<svg width="114" height="115" viewBox="0 0 114 115" fill="none" xmlns="http://www.w3.org/2000/svg">
<path d="M57 0L111.21 39.7315L90.5038 104.018H23.4962L2.78978 39.7315L57 0Z" fill="black"/>
<path d="M57 0L111.21 39.7315L90.5038 104.018H23.4962L2.78978 39.7315L57 0Z" fill="black"/>
<path d="M57 0L111.21 39.7315L90.5038 104.018H23.4962L2.78978 39.7315L57 0Z" fill="black"/>
<path d="M62.5005 16.5C62.5005 20.6421 59.1426 24 55.0005 24C50.8584 24 47.5005 20.6421 47.5005 16.5C47.5005 12.3579 50.8584 9 55.0005 9C59.1426 9 62.5005 12.3579 62.5005 16.5Z" fill="#E60000"/>
<path d="M103.5 43.365C103.5 47.5072 100.142 50.865 96 50.865C91.8579 50.865 88.5 47.5072 88.5 43.365C88.5 39.2229 91.8579 35.865 96 35.865C100.142 35.865 103.5 39.2229 103.5 43.365Z" fill="#E60000"/>
<path d="M24 42.6241C24 46.7662 20.6421 50.1241 16.5 50.1241C12.3579 50.1241 9 46.7662 9 42.6241C9 38.4819 12.3579 35.1241 16.5 35.1241C20.6421 35.1241 24 38.4819 24 42.6241Z" fill="#E60000"/>
<path d="M41 92C41 96.1421 37.6421 99.5 33.5 99.5C29.3579 99.5 26 96.1421 26 92C26 87.8579 29.3579 84.5 33.5 84.5C37.6421 84.5 41 87.8579 41 92Z" fill="#E60000"/>
<path d="M63.8652 54C63.8652 58.1421 60.5074 61.5 56.3652 61.5C52.2231 61.5 48.8652 58.1421 48.8652 54C48.8652 49.8579 52.2231 46.5 56.3652 46.5C60.5074 46.5 63.8652 49.8579 63.8652 54Z" fill="#E60000"/>
<path d="M89 91.5C89 95.6421 85.6421 99 81.5 99C77.3579 99 74 95.6421 74 91.5C74 87.3579 77.3579 84 81.5 84C85.6421 84 89 87.3579 89 91.5Z" fill="#E60000"/>
</svg>
