<svg width="114" height="115" viewBox="0 0 114 115" fill="none" xmlns="http://www.w3.org/2000/svg">
<path d="M57 0L111.21 39.7315L90.5038 104.018H23.4962L2.78978 39.7315L57 0Z" fill="black"/>
<path d="M57 0L111.21 39.7315L90.5038 104.018H23.4962L2.78978 39.7315L57 0Z" fill="black"/>
<path d="M57 0L111.21 39.7315L90.5038 104.018H23.4962L2.78978 39.7315L57 0Z" fill="black"/>
<path d="M80 76.5C80 80.6421 76.6421 84 72.5 84C68.3579 84 65 80.6421 65 76.5C65 72.3579 68.3579 69 72.5 69C76.6421 69 80 72.3579 80 76.5Z" fill="#E60000"/>
<path d="M80 36.5C80 40.6421 76.6421 44 72.5 44C68.3579 44 65 40.6421 65 36.5C65 32.3579 68.3579 29 72.5 29C76.6421 29 80 32.3579 80 36.5Z" fill="#E60000"/>
<path d="M53 36.5C53 40.6422 49.6421 44 45.5 44C41.3579 44 38 40.6422 38 36.5C38 32.3579 41.3579 29 45.5 29C49.6421 29 53 32.3579 53 36.5Z" fill="#E60000"/>
<path d="M45.5 84C49.6421 84 53 80.6421 53 76.5C53 72.3579 49.6421 69 45.5 69C41.3579 69 38 72.3579 38 76.5C38 80.6421 41.3579 84 45.5 84Z" fill="#E60000"/>
<circle cx="34.5" cy="55.5" r="7.5" fill="#E60000"/>
<path d="M91 54.35C91 58.4921 87.6421 61.85 83.5 61.85C79.3579 61.85 76 58.4921 76 54.35C76 50.2078 79.3579 46.85 83.5 46.85C87.6421 46.85 91 50.2078 91 54.35Z" fill="#E60000"/>
</svg>
