<svg width="114" height="115" viewBox="0 0 114 115" fill="none" xmlns="http://www.w3.org/2000/svg">
<path d="M57 0L111.21 39.7315L90.5038 104.018H23.4962L2.78978 39.7315L57 0Z" fill="black"/>
<path d="M57 0L111.21 39.7315L90.5038 104.018H23.4962L2.78978 39.7315L57 0Z" fill="black"/>
<path d="M74.9998 34.5C74.9998 38.6421 71.642 42 67.4998 42C63.3577 42 59.9998 38.6421 59.9998 34.5C59.9998 30.3579 63.3577 27 67.4998 27C71.642 27 74.9998 30.3579 74.9998 34.5Z" fill="#E60000"/>
<path d="M76 57.5C76 61.6421 72.6421 65 68.5 65C64.3579 65 61 61.6421 61 57.5C61 53.3579 64.3579 50 68.5 50C72.6421 50 76 53.3579 76 57.5Z" fill="#E60000"/>
<path d="M52 34.5C52 38.6421 48.6421 42 44.5 42C40.3579 42 37 38.6421 37 34.5C37 30.3579 40.3579 27 44.5 27C48.6421 27 52 30.3579 52 34.5Z" fill="#E60000"/>
<circle cx="44.5" cy="80.5" r="7.5" fill="#E60000"/>
<path d="M52 56.5C52 60.6421 48.6421 64 44.5 64C40.3579 64 37 60.6421 37 56.5C37 52.3579 40.3579 49 44.5 49C48.6421 49 52 52.3579 52 56.5Z" fill="#E60000"/>
<path d="M76 80.5C76 84.6421 72.6421 88 68.5 88C64.3579 88 61 84.6421 61 80.5C61 76.3579 64.3579 73 68.5 73C72.6421 73 76 76.3579 76 80.5Z" fill="#E60000"/>
</svg>
