<svg width="114" height="115" viewBox="0 0 114 115" fill="none" xmlns="http://www.w3.org/2000/svg">
<path d="M57 0L111.21 39.7315L90.5038 104.018H23.4962L2.78978 39.7315L57 0Z" fill="black"/>
<path d="M42.5 60.5661C42.5 64.7082 39.1421 68.0661 35 68.0661C30.8579 68.0661 27.5 64.7082 27.5 60.5661C27.5 56.424 30.8579 53.0661 35 53.0661C39.1421 53.0661 42.5 56.424 42.5 60.5661Z" fill="white"/>
<path d="M86 39.5C86 43.6421 82.6421 47 78.5 47C74.3579 47 71 43.6421 71 39.5C71 35.3579 74.3579 32 78.5 32C82.6421 32 86 35.3579 86 39.5Z" fill="white"/>
<path d="M64 60.5C64 64.6421 60.6421 68 56.5 68C52.3579 68 49 64.6421 49 60.5C49 56.3579 52.3579 53 56.5 53C60.6421 53 64 56.3579 64 60.5Z" fill="white"/>
<circle cx="35.5" cy="81.5" r="7.5" fill="white"/>
<path d="M42 40C42 44.1421 38.6421 47.5 34.5 47.5C30.3579 47.5 27 44.1421 27 40C27 35.8579 30.3579 32.5 34.5 32.5C38.6421 32.5 42 35.8579 42 40Z" fill="white"/>
<path d="M86.3607 81C86.3607 85.1421 83.0028 88.5 78.8607 88.5C74.7185 88.5 71.3607 85.1421 71.3607 81C71.3607 76.8579 74.7185 73.5 78.8607 73.5C83.0028 73.5 86.3607 76.8579 86.3607 81Z" fill="white"/>
<path d="M85.7964 60.5C85.7964 64.6421 82.4385 68 78.2964 68C74.1543 68 70.7964 64.6421 70.7964 60.5C70.7964 56.3579 74.1543 53 78.2964 53C82.4385 53 85.7964 56.3579 85.7964 60.5Z" fill="white"/>
</svg>
