<svg width="117" height="115" viewBox="0 0 117 115" fill="none" xmlns="http://www.w3.org/2000/svg">
<path d="M58.2104 0L112.421 39.7315L91.7142 104.018H24.7067L4.00023 39.7315L58.2104 0Z" fill="black"/>
<path d="M58.2104 0L112.421 39.7315L91.7142 104.018H24.7067L4.00023 39.7315L58.2104 0Z" fill="black"/>
<g filter="url(#filter0_d_199_312)">
<path d="M58.2104 0L112.421 39.7315L91.7142 104.018H24.7067L4.00023 39.7315L58.2104 0Z" fill="black"/>
</g>
<path d="M81.2104 76.5C81.2104 80.6421 77.8526 84 73.7104 84C69.5683 84 66.2104 80.6421 66.2104 76.5C66.2104 72.3579 69.5683 69 73.7104 69C77.8526 69 81.2104 72.3579 81.2104 76.5Z" fill="white"/>
<path d="M81.2104 36.5C81.2104 40.6421 77.8526 44 73.7104 44C69.5683 44 66.2104 40.6421 66.2104 36.5C66.2104 32.3579 69.5683 29 73.7104 29C77.8526 29 81.2104 32.3579 81.2104 36.5Z" fill="white"/>
<path d="M54.2104 36.5C54.2104 40.6422 50.8526 44 46.7104 44C42.5683 44 39.2104 40.6422 39.2104 36.5C39.2104 32.3579 42.5683 29 46.7104 29C50.8526 29 54.2104 32.3579 54.2104 36.5Z" fill="white"/>
<path d="M46.7104 84C50.8526 84 54.2104 80.6421 54.2104 76.5C54.2104 72.3579 50.8526 69 46.7104 69C42.5683 69 39.2104 72.3579 39.2104 76.5C39.2104 80.6421 42.5683 84 46.7104 84Z" fill="white"/>
<circle cx="35.7104" cy="55.5" r="7.5" fill="white"/>
<path d="M92.2104 54.35C92.2104 58.4921 88.8526 61.85 84.7104 61.85C80.5683 61.85 77.2104 58.4921 77.2104 54.35C77.2104 50.2078 80.5683 46.85 84.7104 46.85C88.8526 46.85 92.2104 50.2078 92.2104 54.35Z" fill="white"/>
<defs>
<filter id="filter0_d_199_312" x="0" y="0" width="116.421" height="112.019" filterUnits="userSpaceOnUse" color-interpolation-filters="sRGB">
<feFlood flood-opacity="0" result="BackgroundImageFix"/>
<feColorMatrix in="SourceAlpha" type="matrix" values="0 0 0 0 0 0 0 0 0 0 0 0 0 0 0 0 0 0 127 0" result="hardAlpha"/>
<feOffset dy="4"/>
<feGaussianBlur stdDeviation="2"/>
<feComposite in2="hardAlpha" operator="out"/>
<feColorMatrix type="matrix" values="0 0 0 0 0 0 0 0 0 0 0 0 0 0 0 0 0 0 0.25 0"/>
<feBlend mode="normal" in2="BackgroundImageFix" result="effect1_dropShadow_199_312"/>
<feBlend mode="normal" in="SourceGraphic" in2="effect1_dropShadow_199_312" result="shape"/>
</filter>
</defs>
</svg>
