<svg width="114" height="115" viewBox="0 0 114 115" fill="none" xmlns="http://www.w3.org/2000/svg">
<path d="M57 0L111.21 39.7315L90.5038 104.018H23.4962L2.78978 39.7315L57 0Z" fill="black"/>
<path d="M57 0L111.21 39.7315L90.5038 104.018H23.4962L2.78978 39.7315L57 0Z" fill="black"/>
<path d="M64.395 68.6958C64.395 72.8379 61.0372 76.1958 56.895 76.1958C52.7529 76.1958 49.395 72.8379 49.395 68.6958C49.395 64.5537 52.7529 61.1958 56.895 61.1958C61.0372 61.1958 64.395 64.5537 64.395 68.6958Z" fill="#E60000"/>
<path d="M84.135 44C84.135 48.1421 80.7771 51.5 76.635 51.5C72.4928 51.5 69.135 48.1421 69.135 44C69.135 39.8579 72.4928 36.5 76.635 36.5C80.7771 36.5 84.135 39.8579 84.135 44Z" fill="#E60000"/>
<circle cx="56.5" cy="43.5" r="7.5" fill="#E60000"/>
<path d="M44.5 68.521C44.5 72.6631 41.1421 76.021 37 76.021C32.8579 76.021 29.5 72.6631 29.5 68.521C29.5 64.3789 32.8579 61.021 37 61.021C41.1421 61.021 44.5 64.3789 44.5 68.521Z" fill="#E60000"/>
<circle cx="37.5" cy="43.5" r="7.5" fill="#E60000"/>
<path d="M83.9824 69.1714C83.9824 73.3135 80.6246 76.6714 76.4824 76.6714C72.3403 76.6714 68.9824 73.3135 68.9824 69.1714C68.9824 65.0293 72.3403 61.6714 76.4824 61.6714C80.6246 61.6714 83.9824 65.0293 83.9824 69.1714Z" fill="#E60000"/>
</svg>
