<svg width="80" height="140" viewBox="0 0 80 140" fill="none" xmlns="http://www.w3.org/2000/svg">
<rect width="80" height="140" rx="10" fill="#EE6D6D"/>
<rect x="0.5" y="-0.5" width="64" height="55" rx="2.5" transform="matrix(1 0 0 -1 7 131)" fill="white" stroke="#694E4E"/>
<path d="M14.7602 84.5631C14.7602 84.4514 14.743 84.3511 14.7086 84.2623C14.6771 84.1706 14.6169 84.0876 14.5281 84.0131C14.4393 83.9357 14.3147 83.8598 14.1543 83.7854C13.9939 83.7109 13.7862 83.6335 13.5312 83.5533C13.2477 83.4617 12.9784 83.3585 12.7234 83.2439C12.4714 83.1294 12.2479 82.9962 12.0531 82.8443C11.8612 82.6896 11.7094 82.5106 11.5977 82.3072C11.4888 82.1038 11.4344 81.8675 11.4344 81.5982C11.4344 81.3376 11.4917 81.1012 11.6062 80.8893C11.7208 80.6744 11.8812 80.4911 12.0875 80.3393C12.2937 80.1846 12.5372 80.0657 12.818 79.9826C13.1016 79.8995 13.4124 79.858 13.7504 79.858C14.2116 79.858 14.6141 79.9411 14.9578 80.1072C15.3016 80.2734 15.568 80.5011 15.757 80.7904C15.949 81.0798 16.0449 81.4106 16.0449 81.783H14.7645C14.7645 81.5997 14.7258 81.4393 14.6484 81.3018C14.574 81.1614 14.4594 81.0511 14.3047 80.9709C14.1529 80.8907 13.9609 80.8506 13.7289 80.8506C13.5055 80.8506 13.3193 80.885 13.1703 80.9537C13.0214 81.0196 12.9096 81.1098 12.8352 81.2244C12.7607 81.3361 12.7234 81.4622 12.7234 81.6025C12.7234 81.7085 12.7492 81.8045 12.8008 81.8904C12.8552 81.9764 12.9354 82.0566 13.0414 82.1311C13.1474 82.2055 13.2777 82.2757 13.4324 82.3416C13.5871 82.4075 13.7661 82.4719 13.9695 82.535C14.3104 82.6381 14.6098 82.7541 14.8676 82.883C15.1283 83.0119 15.346 83.1566 15.5207 83.317C15.6954 83.4774 15.8272 83.6593 15.916 83.8627C16.0048 84.0661 16.0492 84.2967 16.0492 84.5545C16.0492 84.8266 15.9962 85.0701 15.8902 85.285C15.7842 85.4998 15.631 85.6817 15.4305 85.8307C15.2299 85.9796 14.9908 86.0928 14.7129 86.1701C14.435 86.2475 14.1242 86.2861 13.7805 86.2861C13.4711 86.2861 13.166 86.246 12.8652 86.1658C12.5645 86.0827 12.2909 85.9581 12.0445 85.792C11.801 85.6258 11.6062 85.4139 11.4602 85.1561C11.3141 84.8982 11.241 84.5932 11.241 84.2408H12.5344C12.5344 84.4356 12.5645 84.6003 12.6246 84.735C12.6848 84.8696 12.7693 84.9785 12.8781 85.0615C12.9898 85.1446 13.1216 85.2048 13.2734 85.242C13.4281 85.2792 13.5971 85.2979 13.7805 85.2979C14.0039 85.2979 14.1872 85.2663 14.3305 85.2033C14.4766 85.1403 14.584 85.0529 14.6527 84.9412C14.7243 84.8295 14.7602 84.7035 14.7602 84.5631ZM19.5984 85.0873V81.551H20.8359V86.2002H19.6715L19.5984 85.0873ZM19.7359 84.1334L20.1012 84.1248C20.1012 84.4342 20.0654 84.7221 19.9938 84.9885C19.9221 85.252 19.8147 85.4812 19.6715 85.676C19.5283 85.8679 19.3478 86.0183 19.1301 86.1271C18.9124 86.2331 18.656 86.2861 18.3609 86.2861C18.1346 86.2861 17.9255 86.2546 17.7336 86.1916C17.5445 86.1257 17.3813 86.024 17.2438 85.8865C17.1091 85.7462 17.0031 85.5671 16.9258 85.3494C16.8513 85.1288 16.8141 84.8639 16.8141 84.5545V81.551H18.0516V84.5631C18.0516 84.7006 18.0673 84.8166 18.0988 84.9111C18.1332 85.0057 18.1805 85.083 18.2406 85.1432C18.3008 85.2033 18.371 85.2463 18.4512 85.2721C18.5342 85.2979 18.6259 85.3107 18.7262 85.3107C18.9811 85.3107 19.1816 85.2592 19.3277 85.1561C19.4767 85.0529 19.5813 84.9126 19.6414 84.735C19.7044 84.5545 19.7359 84.354 19.7359 84.1334ZM21.7812 79.6002H23.0187V85.1346L22.8941 86.2002H21.7812V79.6002ZM25.9621 83.8283V83.9186C25.9621 84.2652 25.9249 84.5831 25.8504 84.8725C25.7788 85.1618 25.6671 85.4124 25.5152 85.6244C25.3634 85.8335 25.1743 85.9968 24.948 86.1143C24.7246 86.2288 24.4611 86.2861 24.1574 86.2861C23.8738 86.2861 23.6275 86.2288 23.4184 86.1143C23.2121 85.9997 23.0388 85.8378 22.8984 85.6287C22.7581 85.4196 22.6449 85.1747 22.559 84.8939C22.473 84.6132 22.4086 84.3067 22.3656 83.9744V83.7768C22.4086 83.4445 22.473 83.138 22.559 82.8572C22.6449 82.5765 22.7581 82.3316 22.8984 82.1225C23.0388 81.9133 23.2121 81.7515 23.4184 81.6369C23.6246 81.5223 23.8681 81.465 24.1488 81.465C24.4553 81.465 24.7217 81.5238 24.948 81.6412C25.1772 81.7558 25.3663 81.9191 25.5152 82.1311C25.6671 82.3402 25.7788 82.5894 25.8504 82.8787C25.9249 83.1652 25.9621 83.4817 25.9621 83.8283ZM24.7246 83.9186V83.8283C24.7246 83.6393 24.7103 83.4617 24.6816 83.2955C24.6559 83.1265 24.61 82.979 24.5441 82.8529C24.4783 82.724 24.388 82.6223 24.2734 82.5479C24.1617 82.4734 24.0171 82.4361 23.8395 82.4361C23.6704 82.4361 23.5272 82.4648 23.4098 82.5221C23.2923 82.5794 23.1949 82.6596 23.1176 82.7627C23.0431 82.8658 22.9872 82.989 22.95 83.1322C22.9128 83.2726 22.8898 83.4273 22.8812 83.5963V84.1592C22.8898 84.3855 22.9271 84.586 22.993 84.7607C23.0617 84.9326 23.1648 85.0687 23.3023 85.1689C23.4427 85.2663 23.6246 85.315 23.848 85.315C24.0228 85.315 24.1674 85.2807 24.282 85.2119C24.3966 85.1432 24.4854 85.0458 24.5484 84.9197C24.6143 84.7937 24.6602 84.6462 24.6859 84.4771C24.7117 84.3053 24.7246 84.1191 24.7246 83.9186ZM29.0086 81.551V82.4275H26.3016V81.551H29.0086ZM26.9719 80.4037H28.2094V84.7994C28.2094 84.934 28.2266 85.0372 28.2609 85.1088C28.2982 85.1804 28.3526 85.2305 28.4242 85.2592C28.4958 85.285 28.5861 85.2979 28.6949 85.2979C28.7723 85.2979 28.841 85.295 28.9012 85.2893C28.9642 85.2807 29.0172 85.2721 29.0602 85.2635L29.0645 86.1744C28.9585 86.2088 28.8439 86.236 28.7207 86.2561C28.5975 86.2761 28.4615 86.2861 28.3125 86.2861C28.0404 86.2861 27.8026 86.2417 27.5992 86.1529C27.3987 86.0613 27.244 85.9152 27.1352 85.7146C27.0263 85.5141 26.9719 85.2506 26.9719 84.924V80.4037ZM30.9508 82.565V86.2002H29.7133V81.551H30.8777L30.9508 82.565ZM32.3516 81.5209L32.3301 82.6682C32.2699 82.6596 32.1969 82.6524 32.1109 82.6467C32.0279 82.6381 31.952 82.6338 31.8832 82.6338C31.7085 82.6338 31.5566 82.6567 31.4277 82.7025C31.3017 82.7455 31.1957 82.81 31.1098 82.8959C31.0267 82.9818 30.9637 83.0864 30.9207 83.2096C30.8806 83.3327 30.8577 83.4731 30.852 83.6307L30.6027 83.5533C30.6027 83.2525 30.6328 82.9761 30.693 82.724C30.7531 82.4691 30.8405 82.2471 30.9551 82.058C31.0725 81.8689 31.2158 81.7229 31.3848 81.6197C31.5538 81.5166 31.7471 81.465 31.9648 81.465C32.0336 81.465 32.1038 81.4708 32.1754 81.4822C32.247 81.4908 32.3057 81.5037 32.3516 81.5209ZM35.2992 85.1518V83.0807C35.2992 82.9317 35.2749 82.8042 35.2262 82.6982C35.1775 82.5894 35.1016 82.5049 34.9984 82.4447C34.8982 82.3846 34.7678 82.3545 34.6074 82.3545C34.4699 82.3545 34.351 82.3788 34.2508 82.4275C34.1505 82.4734 34.0732 82.5407 34.0188 82.6295C33.9643 82.7154 33.9371 82.8171 33.9371 82.9346H32.6996C32.6996 82.7369 32.7454 82.5493 32.8371 82.3717C32.9288 82.1941 33.062 82.038 33.2367 81.9033C33.4115 81.7658 33.6191 81.6584 33.8598 81.5811C34.1033 81.5037 34.3754 81.465 34.6762 81.465C35.0371 81.465 35.3579 81.5252 35.6387 81.6455C35.9194 81.7658 36.14 81.9463 36.3004 82.1869C36.4637 82.4275 36.5453 82.7283 36.5453 83.0893V85.0787C36.5453 85.3337 36.5611 85.5428 36.5926 85.7061C36.6241 85.8665 36.6699 86.0068 36.7301 86.1271V86.2002H35.4797C35.4195 86.0742 35.3737 85.9166 35.3422 85.7275C35.3135 85.5356 35.2992 85.3437 35.2992 85.1518ZM35.4625 83.3686L35.4711 84.0689H34.7793C34.616 84.0689 34.4742 84.0876 34.3539 84.1248C34.2336 84.162 34.1348 84.215 34.0574 84.2838C33.9801 84.3497 33.9228 84.427 33.8855 84.5158C33.8512 84.6046 33.834 84.702 33.834 84.808C33.834 84.914 33.8583 85.01 33.907 85.0959C33.9557 85.179 34.0259 85.2449 34.1176 85.2936C34.2092 85.3394 34.3167 85.3623 34.4398 85.3623C34.626 85.3623 34.7879 85.3251 34.9254 85.2506C35.0629 85.1761 35.1689 85.0844 35.2434 84.9756C35.3207 84.8667 35.3608 84.7636 35.3637 84.6662L35.6902 85.1904C35.6444 85.3079 35.5814 85.4296 35.5012 85.5557C35.4238 85.6817 35.325 85.8006 35.2047 85.9123C35.0844 86.0212 34.9397 86.1114 34.7707 86.183C34.6017 86.2518 34.4012 86.2861 34.1691 86.2861C33.8741 86.2861 33.6063 86.2274 33.3656 86.11C33.1279 85.9896 32.9388 85.8249 32.7984 85.6158C32.6609 85.4038 32.5922 85.1632 32.5922 84.8939C32.5922 84.6505 32.638 84.4342 32.7297 84.2451C32.8214 84.0561 32.956 83.8971 33.1336 83.7682C33.3141 83.6364 33.5389 83.5376 33.8082 83.4717C34.0775 83.4029 34.3897 83.3686 34.7449 83.3686H35.4625ZM39.4199 85.3193C39.5717 85.3193 39.7064 85.2907 39.8238 85.2334C39.9413 85.1732 40.0329 85.0902 40.0988 84.9842C40.1676 84.8753 40.2034 84.7479 40.2063 84.6018H41.3707C41.3678 84.9283 41.2805 85.2191 41.1086 85.474C40.9367 85.7261 40.7061 85.9252 40.4168 86.0713C40.1275 86.2145 39.8038 86.2861 39.4457 86.2861C39.0848 86.2861 38.7697 86.226 38.5004 86.1057C38.234 85.9854 38.012 85.8192 37.8344 85.6072C37.6568 85.3924 37.5236 85.1432 37.4348 84.8596C37.346 84.5731 37.3016 84.2666 37.3016 83.94V83.8154C37.3016 83.486 37.346 83.1795 37.4348 82.8959C37.5236 82.6094 37.6568 82.3602 37.8344 82.1482C38.012 81.9334 38.234 81.7658 38.5004 81.6455C38.7668 81.5252 39.079 81.465 39.4371 81.465C39.8181 81.465 40.1518 81.5381 40.4383 81.6842C40.7276 81.8303 40.9539 82.0394 41.1172 82.3115C41.2833 82.5808 41.3678 82.9002 41.3707 83.2697H40.2063C40.2034 83.115 40.1704 82.9747 40.1074 82.8486C40.0473 82.7226 39.9585 82.6223 39.841 82.5479C39.7264 82.4705 39.5846 82.4318 39.4156 82.4318C39.2352 82.4318 39.0876 82.4705 38.973 82.5479C38.8585 82.6223 38.7697 82.7255 38.7066 82.8572C38.6436 82.9861 38.5992 83.1337 38.5734 83.2998C38.5505 83.4631 38.5391 83.635 38.5391 83.8154V83.94C38.5391 84.1205 38.5505 84.2938 38.5734 84.46C38.5964 84.6261 38.6393 84.7736 38.7023 84.9025C38.7682 85.0314 38.8585 85.1331 38.973 85.2076C39.0876 85.2821 39.2366 85.3193 39.4199 85.3193ZM44.3656 81.551V82.4275H41.6586V81.551H44.3656ZM42.3289 80.4037H43.5664V84.7994C43.5664 84.934 43.5836 85.0372 43.618 85.1088C43.6552 85.1804 43.7096 85.2305 43.7813 85.2592C43.8529 85.285 43.9431 85.2979 44.052 85.2979C44.1293 85.2979 44.198 85.295 44.2582 85.2893C44.3212 85.2807 44.3742 85.2721 44.4172 85.2635L44.4215 86.1744C44.3155 86.2088 44.2009 86.236 44.0777 86.2561C43.9546 86.2761 43.8185 86.2861 43.6695 86.2861C43.3974 86.2861 43.1596 86.2417 42.9563 86.1529C42.7557 86.0613 42.601 85.9152 42.4922 85.7146C42.3833 85.5141 42.3289 85.2506 42.3289 84.924V80.4037ZM49.5949 84.8939L51.0687 79.9439H52.5039L50.3254 86.2002H49.3801L49.5949 84.8939ZM48.2371 79.9439L49.7066 84.8939L49.9301 86.2002H48.9762L46.8105 79.9439H48.2371ZM55.3227 85.1518V83.0807C55.3227 82.9317 55.2983 82.8042 55.2496 82.6982C55.2009 82.5894 55.125 82.5049 55.0219 82.4447C54.9216 82.3846 54.7913 82.3545 54.6309 82.3545C54.4934 82.3545 54.3745 82.3788 54.2742 82.4275C54.174 82.4734 54.0966 82.5407 54.0422 82.6295C53.9878 82.7154 53.9605 82.8171 53.9605 82.9346H52.723C52.723 82.7369 52.7689 82.5493 52.8605 82.3717C52.9522 82.1941 53.0854 82.038 53.2602 81.9033C53.4349 81.7658 53.6426 81.6584 53.8832 81.5811C54.1267 81.5037 54.3988 81.465 54.6996 81.465C55.0605 81.465 55.3814 81.5252 55.6621 81.6455C55.9428 81.7658 56.1634 81.9463 56.3238 82.1869C56.4871 82.4275 56.5688 82.7283 56.5688 83.0893V85.0787C56.5688 85.3337 56.5845 85.5428 56.616 85.7061C56.6475 85.8665 56.6934 86.0068 56.7535 86.1271V86.2002H55.5031C55.443 86.0742 55.3971 85.9166 55.3656 85.7275C55.337 85.5356 55.3227 85.3437 55.3227 85.1518ZM55.4859 83.3686L55.4945 84.0689H54.8027C54.6395 84.0689 54.4977 84.0876 54.3773 84.1248C54.257 84.162 54.1582 84.215 54.0809 84.2838C54.0035 84.3497 53.9462 84.427 53.909 84.5158C53.8746 84.6046 53.8574 84.702 53.8574 84.808C53.8574 84.914 53.8818 85.01 53.9305 85.0959C53.9792 85.179 54.0493 85.2449 54.141 85.2936C54.2327 85.3394 54.3401 85.3623 54.4633 85.3623C54.6495 85.3623 54.8113 85.3251 54.9488 85.2506C55.0863 85.1761 55.1923 85.0844 55.2668 84.9756C55.3441 84.8667 55.3842 84.7636 55.3871 84.6662L55.7137 85.1904C55.6678 85.3079 55.6048 85.4296 55.5246 85.5557C55.4473 85.6817 55.3484 85.8006 55.2281 85.9123C55.1078 86.0212 54.9632 86.1114 54.7941 86.183C54.6251 86.2518 54.4246 86.2861 54.1926 86.2861C53.8975 86.2861 53.6297 86.2274 53.3891 86.11C53.1513 85.9896 52.9622 85.8249 52.8219 85.6158C52.6844 85.4038 52.6156 85.1632 52.6156 84.8939C52.6156 84.6505 52.6615 84.4342 52.7531 84.2451C52.8448 84.0561 52.9794 83.8971 53.157 83.7682C53.3375 83.6364 53.5624 83.5376 53.8316 83.4717C54.1009 83.4029 54.4132 83.3686 54.7684 83.3686H55.4859ZM58.8289 79.6002V86.2002H57.5871V79.6002H58.8289ZM62.6016 85.0873V81.551H63.8391V86.2002H62.6746L62.6016 85.0873ZM62.7391 84.1334L63.1043 84.1248C63.1043 84.4342 63.0685 84.7221 62.9969 84.9885C62.9253 85.252 62.8178 85.4812 62.6746 85.676C62.5314 85.8679 62.3509 86.0183 62.1332 86.1271C61.9155 86.2331 61.6591 86.2861 61.3641 86.2861C61.1378 86.2861 60.9286 86.2546 60.7367 86.1916C60.5477 86.1257 60.3844 86.024 60.2469 85.8865C60.1122 85.7462 60.0062 85.5671 59.9289 85.3494C59.8544 85.1288 59.8172 84.8639 59.8172 84.5545V81.551H61.0547V84.5631C61.0547 84.7006 61.0704 84.8166 61.102 84.9111C61.1363 85.0057 61.1836 85.083 61.2437 85.1432C61.3039 85.2033 61.3741 85.2463 61.4543 85.2721C61.5374 85.2979 61.629 85.3107 61.7293 85.3107C61.9842 85.3107 62.1848 85.2592 62.3309 85.1561C62.4798 85.0529 62.5844 84.9126 62.6445 84.735C62.7076 84.5545 62.7391 84.354 62.7391 84.1334ZM66.9242 86.2861C66.5633 86.2861 66.2396 86.2288 65.9531 86.1143C65.6667 85.9968 65.4232 85.835 65.2227 85.6287C65.025 85.4225 64.8732 85.1833 64.7672 84.9111C64.6612 84.6361 64.6082 84.3439 64.6082 84.0346V83.8627C64.6082 83.5104 64.6583 83.1881 64.7586 82.8959C64.8589 82.6037 65.0021 82.3502 65.1883 82.1354C65.3773 81.9205 65.6065 81.7558 65.8758 81.6412C66.1451 81.5238 66.4487 81.465 66.7867 81.465C67.1161 81.465 67.4083 81.5195 67.6633 81.6283C67.9182 81.7372 68.1316 81.8919 68.3035 82.0924C68.4783 82.2929 68.61 82.5335 68.6988 82.8143C68.7876 83.0921 68.832 83.4015 68.832 83.7424V84.258H65.1367V83.433H67.616V83.3385C67.616 83.1666 67.5845 83.0133 67.5215 82.8787C67.4613 82.7412 67.3697 82.6324 67.2465 82.5521C67.1233 82.4719 66.9658 82.4318 66.7738 82.4318C66.6105 82.4318 66.4702 82.4676 66.3527 82.5393C66.2353 82.6109 66.1393 82.7111 66.0648 82.84C65.9932 82.9689 65.9388 83.1208 65.9016 83.2955C65.8672 83.4674 65.85 83.6564 65.85 83.8627V84.0346C65.85 84.2208 65.8758 84.3926 65.9273 84.5502C65.9818 84.7077 66.0577 84.8438 66.1551 84.9584C66.2553 85.073 66.3757 85.1618 66.516 85.2248C66.6592 85.2878 66.8211 85.3193 67.0016 85.3193C67.225 85.3193 67.4327 85.2764 67.6246 85.1904C67.8194 85.1016 67.987 84.9684 68.1273 84.7908L68.7289 85.4439C68.6315 85.5843 68.4983 85.7189 68.3293 85.8479C68.1632 85.9768 67.9626 86.0827 67.7277 86.1658C67.4928 86.246 67.225 86.2861 66.9242 86.2861Z" fill="black"/>
<path d="M15.7461 94.3345L16.8535 96.4761L17.9639 94.3345H18.6055L17.1348 97.0063V98.6001H16.5693V97.0063L15.0986 94.3345H15.7461ZM18.7344 97.0503V96.9829C18.7344 96.7544 18.7676 96.5425 18.834 96.3472C18.9004 96.1499 18.9961 95.979 19.1211 95.8345C19.2461 95.688 19.3975 95.5747 19.5752 95.4946C19.7529 95.4126 19.9521 95.3716 20.1729 95.3716C20.3955 95.3716 20.5957 95.4126 20.7734 95.4946C20.9531 95.5747 21.1055 95.688 21.2305 95.8345C21.3574 95.979 21.4541 96.1499 21.5205 96.3472C21.5869 96.5425 21.6201 96.7544 21.6201 96.9829V97.0503C21.6201 97.2788 21.5869 97.4907 21.5205 97.686C21.4541 97.8813 21.3574 98.0522 21.2305 98.1987C21.1055 98.3433 20.9541 98.4565 20.7764 98.5386C20.6006 98.6187 20.4014 98.6587 20.1787 98.6587C19.9561 98.6587 19.7559 98.6187 19.5781 98.5386C19.4004 98.4565 19.248 98.3433 19.1211 98.1987C18.9961 98.0522 18.9004 97.8813 18.834 97.686C18.7676 97.4907 18.7344 97.2788 18.7344 97.0503ZM19.2764 96.9829V97.0503C19.2764 97.2085 19.2949 97.3579 19.332 97.4985C19.3691 97.6372 19.4248 97.7603 19.499 97.8677C19.5752 97.9751 19.6699 98.0601 19.7832 98.1226C19.8965 98.1831 20.0283 98.2134 20.1787 98.2134C20.3271 98.2134 20.457 98.1831 20.5684 98.1226C20.6816 98.0601 20.7754 97.9751 20.8496 97.8677C20.9238 97.7603 20.9795 97.6372 21.0166 97.4985C21.0557 97.3579 21.0752 97.2085 21.0752 97.0503V96.9829C21.0752 96.8267 21.0557 96.6792 21.0166 96.5405C20.9795 96.3999 20.9229 96.2759 20.8467 96.1685C20.7725 96.0591 20.6787 95.9731 20.5654 95.9106C20.4541 95.8481 20.3232 95.8169 20.1729 95.8169C20.0244 95.8169 19.8936 95.8481 19.7803 95.9106C19.6689 95.9731 19.5752 96.0591 19.499 96.1685C19.4248 96.2759 19.3691 96.3999 19.332 96.5405C19.2949 96.6792 19.2764 96.8267 19.2764 96.9829ZM24.2393 97.8677V95.4302H24.7842V98.6001H24.2656L24.2393 97.8677ZM24.3418 97.1997L24.5674 97.1938C24.5674 97.4048 24.5449 97.6001 24.5 97.7798C24.457 97.9575 24.3867 98.1118 24.2891 98.2427C24.1914 98.3735 24.0635 98.4761 23.9053 98.5503C23.7471 98.6226 23.5547 98.6587 23.3281 98.6587C23.1738 98.6587 23.0322 98.6362 22.9033 98.5913C22.7764 98.5464 22.667 98.4771 22.5752 98.3833C22.4834 98.2896 22.4121 98.1675 22.3613 98.0171C22.3125 97.8667 22.2881 97.686 22.2881 97.4751V95.4302H22.8301V97.481C22.8301 97.6235 22.8457 97.7417 22.877 97.8354C22.9102 97.9272 22.9541 98.0005 23.0088 98.0552C23.0654 98.1079 23.1279 98.145 23.1963 98.1665C23.2666 98.188 23.3389 98.1987 23.4131 98.1987C23.6436 98.1987 23.8262 98.1548 23.9609 98.0669C24.0957 97.9771 24.1924 97.8569 24.251 97.7065C24.3115 97.5542 24.3418 97.3853 24.3418 97.1997ZM26.1523 95.9282V98.6001H25.6104V95.4302H26.1377L26.1523 95.9282ZM27.1426 95.4126L27.1396 95.9165C27.0947 95.9067 27.0518 95.9009 27.0107 95.8989C26.9717 95.895 26.9268 95.8931 26.876 95.8931C26.751 95.8931 26.6406 95.9126 26.5449 95.9517C26.4492 95.9907 26.3682 96.0454 26.3018 96.1157C26.2354 96.186 26.1826 96.27 26.1436 96.3677C26.1064 96.4634 26.082 96.5688 26.0703 96.6841L25.918 96.772C25.918 96.5806 25.9365 96.4009 25.9736 96.2329C26.0127 96.0649 26.0723 95.9165 26.1523 95.7876C26.2324 95.6567 26.334 95.5552 26.457 95.4829C26.582 95.4087 26.7305 95.3716 26.9023 95.3716C26.9414 95.3716 26.9863 95.3765 27.0371 95.3862C27.0879 95.394 27.123 95.4028 27.1426 95.4126ZM30.4004 98.2134C30.5293 98.2134 30.6484 98.187 30.7578 98.1343C30.8672 98.0815 30.957 98.0093 31.0273 97.9175C31.0977 97.8237 31.1377 97.7173 31.1475 97.5981H31.6631C31.6533 97.7856 31.5898 97.9604 31.4727 98.1226C31.3574 98.2827 31.2061 98.4126 31.0186 98.5122C30.8311 98.6099 30.625 98.6587 30.4004 98.6587C30.1621 98.6587 29.9541 98.6167 29.7764 98.5327C29.6006 98.4487 29.4541 98.3335 29.3369 98.187C29.2217 98.0405 29.1348 97.8726 29.0762 97.6831C29.0195 97.4917 28.9912 97.2896 28.9912 97.0767V96.9536C28.9912 96.7407 29.0195 96.5396 29.0762 96.3501C29.1348 96.1587 29.2217 95.9897 29.3369 95.8433C29.4541 95.6968 29.6006 95.5815 29.7764 95.4976C29.9541 95.4136 30.1621 95.3716 30.4004 95.3716C30.6484 95.3716 30.8652 95.4224 31.0508 95.5239C31.2363 95.6235 31.3818 95.7603 31.4873 95.9341C31.5947 96.106 31.6533 96.3013 31.6631 96.52H31.1475C31.1377 96.3892 31.1006 96.271 31.0361 96.1655C30.9736 96.0601 30.8877 95.9761 30.7783 95.9136C30.6709 95.8491 30.5449 95.8169 30.4004 95.8169C30.2344 95.8169 30.0947 95.8501 29.9814 95.9165C29.8701 95.981 29.7812 96.0688 29.7148 96.1802C29.6504 96.2896 29.6035 96.4116 29.5742 96.5464C29.5469 96.6792 29.5332 96.8149 29.5332 96.9536V97.0767C29.5332 97.2153 29.5469 97.3521 29.5742 97.4868C29.6016 97.6216 29.6475 97.7437 29.7119 97.853C29.7783 97.9624 29.8672 98.0503 29.9785 98.1167C30.0918 98.1812 30.2324 98.2134 30.4004 98.2134ZM34.2119 97.8677V95.4302H34.7568V98.6001H34.2383L34.2119 97.8677ZM34.3145 97.1997L34.54 97.1938C34.54 97.4048 34.5176 97.6001 34.4727 97.7798C34.4297 97.9575 34.3594 98.1118 34.2617 98.2427C34.1641 98.3735 34.0361 98.4761 33.8779 98.5503C33.7197 98.6226 33.5273 98.6587 33.3008 98.6587C33.1465 98.6587 33.0049 98.6362 32.876 98.5913C32.749 98.5464 32.6396 98.4771 32.5479 98.3833C32.4561 98.2896 32.3848 98.1675 32.334 98.0171C32.2852 97.8667 32.2607 97.686 32.2607 97.4751V95.4302H32.8027V97.481C32.8027 97.6235 32.8184 97.7417 32.8496 97.8354C32.8828 97.9272 32.9268 98.0005 32.9814 98.0552C33.0381 98.1079 33.1006 98.145 33.1689 98.1665C33.2393 98.188 33.3115 98.1987 33.3857 98.1987C33.6162 98.1987 33.7988 98.1548 33.9336 98.0669C34.0684 97.9771 34.165 97.8569 34.2236 97.7065C34.2842 97.5542 34.3145 97.3853 34.3145 97.1997ZM36.125 95.9282V98.6001H35.583V95.4302H36.1104L36.125 95.9282ZM37.1152 95.4126L37.1123 95.9165C37.0674 95.9067 37.0244 95.9009 36.9834 95.8989C36.9443 95.895 36.8994 95.8931 36.8486 95.8931C36.7236 95.8931 36.6133 95.9126 36.5176 95.9517C36.4219 95.9907 36.3408 96.0454 36.2744 96.1157C36.208 96.186 36.1553 96.27 36.1162 96.3677C36.0791 96.4634 36.0547 96.5688 36.043 96.6841L35.8906 96.772C35.8906 96.5806 35.9092 96.4009 35.9463 96.2329C35.9854 96.0649 36.0449 95.9165 36.125 95.7876C36.2051 95.6567 36.3066 95.5552 36.4297 95.4829C36.5547 95.4087 36.7031 95.3716 36.875 95.3716C36.9141 95.3716 36.959 95.3765 37.0098 95.3862C37.0605 95.394 37.0957 95.4028 37.1152 95.4126ZM38.1582 95.9282V98.6001H37.6162V95.4302H38.1436L38.1582 95.9282ZM39.1484 95.4126L39.1455 95.9165C39.1006 95.9067 39.0576 95.9009 39.0166 95.8989C38.9775 95.895 38.9326 95.8931 38.8818 95.8931C38.7568 95.8931 38.6465 95.9126 38.5508 95.9517C38.4551 95.9907 38.374 96.0454 38.3076 96.1157C38.2412 96.186 38.1885 96.27 38.1494 96.3677C38.1123 96.4634 38.0879 96.5688 38.0762 96.6841L37.9238 96.772C37.9238 96.5806 37.9424 96.4009 37.9795 96.2329C38.0186 96.0649 38.0781 95.9165 38.1582 95.7876C38.2383 95.6567 38.3398 95.5552 38.4629 95.4829C38.5879 95.4087 38.7363 95.3716 38.9082 95.3716C38.9473 95.3716 38.9922 95.3765 39.043 95.3862C39.0938 95.394 39.1289 95.4028 39.1484 95.4126ZM40.9062 98.6587C40.6855 98.6587 40.4854 98.6216 40.3057 98.5474C40.1279 98.4712 39.9746 98.3647 39.8457 98.228C39.7188 98.0913 39.6211 97.9292 39.5527 97.7417C39.4844 97.5542 39.4502 97.3491 39.4502 97.1265V97.0034C39.4502 96.7456 39.4883 96.5161 39.5645 96.3149C39.6406 96.1118 39.7441 95.9399 39.875 95.7993C40.0059 95.6587 40.1543 95.5522 40.3203 95.48C40.4863 95.4077 40.6582 95.3716 40.8359 95.3716C41.0625 95.3716 41.2578 95.4106 41.4219 95.4888C41.5879 95.5669 41.7236 95.6763 41.8291 95.8169C41.9346 95.9556 42.0127 96.1196 42.0635 96.3091C42.1143 96.4966 42.1396 96.7017 42.1396 96.9243V97.1675H39.7725V96.7251H41.5977V96.6841C41.5898 96.5435 41.5605 96.4067 41.5098 96.2739C41.4609 96.1411 41.3828 96.0317 41.2754 95.9458C41.168 95.8599 41.0215 95.8169 40.8359 95.8169C40.7129 95.8169 40.5996 95.8433 40.4961 95.896C40.3926 95.9468 40.3037 96.0229 40.2295 96.1245C40.1553 96.2261 40.0977 96.3501 40.0566 96.4966C40.0156 96.6431 39.9951 96.812 39.9951 97.0034V97.1265C39.9951 97.2769 40.0156 97.4185 40.0566 97.5513C40.0996 97.6821 40.1611 97.7974 40.2412 97.897C40.3232 97.9966 40.4219 98.0747 40.5371 98.1313C40.6543 98.188 40.7871 98.2163 40.9355 98.2163C41.127 98.2163 41.2891 98.1772 41.4219 98.0991C41.5547 98.021 41.6709 97.9165 41.7705 97.7856L42.0986 98.0464C42.0303 98.1499 41.9434 98.2485 41.8379 98.3423C41.7324 98.436 41.6025 98.5122 41.4482 98.5708C41.2959 98.6294 41.1152 98.6587 40.9062 98.6587ZM43.3145 96.1069V98.6001H42.7725V95.4302H43.2852L43.3145 96.1069ZM43.1855 96.895L42.96 96.8862C42.9619 96.6694 42.9941 96.4692 43.0566 96.2856C43.1191 96.1001 43.207 95.939 43.3203 95.8022C43.4336 95.6655 43.5684 95.5601 43.7246 95.4858C43.8828 95.4097 44.0576 95.3716 44.249 95.3716C44.4053 95.3716 44.5459 95.3931 44.6709 95.436C44.7959 95.4771 44.9023 95.5435 44.9902 95.6353C45.0801 95.7271 45.1484 95.8462 45.1953 95.9927C45.2422 96.1372 45.2656 96.314 45.2656 96.5229V98.6001H44.7207V96.5171C44.7207 96.3511 44.6963 96.2183 44.6475 96.1187C44.5986 96.0171 44.5273 95.9438 44.4336 95.8989C44.3398 95.8521 44.2246 95.8286 44.0879 95.8286C43.9531 95.8286 43.8301 95.8569 43.7188 95.9136C43.6094 95.9702 43.5146 96.0483 43.4346 96.1479C43.3564 96.2476 43.2949 96.3618 43.25 96.4907C43.207 96.6177 43.1855 96.7524 43.1855 96.895ZM47.416 95.4302V95.8462H45.7021V95.4302H47.416ZM46.2822 94.6597H46.8242V97.8149C46.8242 97.9224 46.8408 98.0034 46.874 98.0581C46.9072 98.1128 46.9502 98.1489 47.0029 98.1665C47.0557 98.1841 47.1123 98.1929 47.1729 98.1929C47.2178 98.1929 47.2646 98.189 47.3135 98.1812C47.3643 98.1714 47.4023 98.1636 47.4277 98.1577L47.4307 98.6001C47.3877 98.6138 47.3311 98.6265 47.2607 98.6382C47.1924 98.6519 47.1094 98.6587 47.0117 98.6587C46.8789 98.6587 46.7568 98.6323 46.6455 98.5796C46.5342 98.5269 46.4453 98.439 46.3789 98.3159C46.3145 98.1909 46.2822 98.0229 46.2822 97.812V94.6597ZM51.3857 97.7593C51.3857 97.6812 51.3682 97.6089 51.333 97.5425C51.2998 97.4741 51.2305 97.4126 51.125 97.3579C51.0215 97.3013 50.8652 97.2524 50.6562 97.2114C50.4805 97.1743 50.3213 97.1304 50.1787 97.0796C50.0381 97.0288 49.918 96.9673 49.8184 96.895C49.7207 96.8228 49.6455 96.7378 49.5928 96.6401C49.54 96.5425 49.5137 96.4282 49.5137 96.2974C49.5137 96.1724 49.541 96.0542 49.5957 95.9429C49.6523 95.8315 49.7314 95.7329 49.833 95.647C49.9365 95.561 50.0605 95.4937 50.2051 95.4448C50.3496 95.396 50.5107 95.3716 50.6885 95.3716C50.9424 95.3716 51.1592 95.4165 51.3389 95.5063C51.5186 95.5962 51.6562 95.7163 51.752 95.8667C51.8477 96.0151 51.8955 96.1802 51.8955 96.3618H51.3535C51.3535 96.2739 51.3271 96.189 51.2744 96.1069C51.2236 96.0229 51.1484 95.9536 51.0488 95.8989C50.9512 95.8442 50.8311 95.8169 50.6885 95.8169C50.5381 95.8169 50.416 95.8403 50.3223 95.8872C50.2305 95.9321 50.1631 95.9897 50.1201 96.0601C50.0791 96.1304 50.0586 96.2046 50.0586 96.2827C50.0586 96.3413 50.0684 96.394 50.0879 96.4409C50.1094 96.4858 50.1465 96.5278 50.1992 96.5669C50.252 96.604 50.3262 96.6392 50.4219 96.6724C50.5176 96.7056 50.6396 96.7388 50.7881 96.772C51.0479 96.8306 51.2617 96.9009 51.4297 96.9829C51.5977 97.0649 51.7227 97.1655 51.8047 97.2847C51.8867 97.4038 51.9277 97.5483 51.9277 97.7183C51.9277 97.8569 51.8984 97.9839 51.8398 98.0991C51.7832 98.2144 51.7002 98.314 51.5908 98.3979C51.4834 98.48 51.3545 98.5444 51.2041 98.5913C51.0557 98.6362 50.8887 98.6587 50.7031 98.6587C50.4238 98.6587 50.1875 98.6089 49.9941 98.5093C49.8008 98.4097 49.6543 98.2808 49.5547 98.1226C49.4551 97.9644 49.4053 97.7974 49.4053 97.6216H49.9502C49.958 97.77 50.001 97.8882 50.0791 97.9761C50.1572 98.062 50.2529 98.1235 50.3662 98.1606C50.4795 98.1958 50.5918 98.2134 50.7031 98.2134C50.8516 98.2134 50.9756 98.1938 51.0752 98.1548C51.1768 98.1157 51.2539 98.062 51.3066 97.9937C51.3594 97.9253 51.3857 97.8472 51.3857 97.7593ZM53.9082 98.2134C54.0371 98.2134 54.1562 98.187 54.2656 98.1343C54.375 98.0815 54.4648 98.0093 54.5352 97.9175C54.6055 97.8237 54.6455 97.7173 54.6553 97.5981H55.1709C55.1611 97.7856 55.0977 97.9604 54.9805 98.1226C54.8652 98.2827 54.7139 98.4126 54.5264 98.5122C54.3389 98.6099 54.1328 98.6587 53.9082 98.6587C53.6699 98.6587 53.4619 98.6167 53.2842 98.5327C53.1084 98.4487 52.9619 98.3335 52.8447 98.187C52.7295 98.0405 52.6426 97.8726 52.584 97.6831C52.5273 97.4917 52.499 97.2896 52.499 97.0767V96.9536C52.499 96.7407 52.5273 96.5396 52.584 96.3501C52.6426 96.1587 52.7295 95.9897 52.8447 95.8433C52.9619 95.6968 53.1084 95.5815 53.2842 95.4976C53.4619 95.4136 53.6699 95.3716 53.9082 95.3716C54.1562 95.3716 54.373 95.4224 54.5586 95.5239C54.7441 95.6235 54.8896 95.7603 54.9951 95.9341C55.1025 96.106 55.1611 96.3013 55.1709 96.52H54.6553C54.6455 96.3892 54.6084 96.271 54.5439 96.1655C54.4814 96.0601 54.3955 95.9761 54.2861 95.9136C54.1787 95.8491 54.0527 95.8169 53.9082 95.8169C53.7422 95.8169 53.6025 95.8501 53.4893 95.9165C53.3779 95.981 53.2891 96.0688 53.2227 96.1802C53.1582 96.2896 53.1113 96.4116 53.082 96.5464C53.0547 96.6792 53.041 96.8149 53.041 96.9536V97.0767C53.041 97.2153 53.0547 97.3521 53.082 97.4868C53.1094 97.6216 53.1553 97.7437 53.2197 97.853C53.2861 97.9624 53.375 98.0503 53.4863 98.1167C53.5996 98.1812 53.7402 98.2134 53.9082 98.2134ZM55.6367 97.0503V96.9829C55.6367 96.7544 55.6699 96.5425 55.7363 96.3472C55.8027 96.1499 55.8984 95.979 56.0234 95.8345C56.1484 95.688 56.2998 95.5747 56.4775 95.4946C56.6553 95.4126 56.8545 95.3716 57.0752 95.3716C57.2979 95.3716 57.498 95.4126 57.6758 95.4946C57.8555 95.5747 58.0078 95.688 58.1328 95.8345C58.2598 95.979 58.3564 96.1499 58.4229 96.3472C58.4893 96.5425 58.5225 96.7544 58.5225 96.9829V97.0503C58.5225 97.2788 58.4893 97.4907 58.4229 97.686C58.3564 97.8813 58.2598 98.0522 58.1328 98.1987C58.0078 98.3433 57.8564 98.4565 57.6787 98.5386C57.5029 98.6187 57.3037 98.6587 57.0811 98.6587C56.8584 98.6587 56.6582 98.6187 56.4805 98.5386C56.3027 98.4565 56.1504 98.3433 56.0234 98.1987C55.8984 98.0522 55.8027 97.8813 55.7363 97.686C55.6699 97.4907 55.6367 97.2788 55.6367 97.0503ZM56.1787 96.9829V97.0503C56.1787 97.2085 56.1973 97.3579 56.2344 97.4985C56.2715 97.6372 56.3271 97.7603 56.4014 97.8677C56.4775 97.9751 56.5723 98.0601 56.6855 98.1226C56.7988 98.1831 56.9307 98.2134 57.0811 98.2134C57.2295 98.2134 57.3594 98.1831 57.4707 98.1226C57.584 98.0601 57.6777 97.9751 57.752 97.8677C57.8262 97.7603 57.8818 97.6372 57.9189 97.4985C57.958 97.3579 57.9775 97.2085 57.9775 97.0503V96.9829C57.9775 96.8267 57.958 96.6792 57.9189 96.5405C57.8818 96.3999 57.8252 96.2759 57.749 96.1685C57.6748 96.0591 57.5811 95.9731 57.4678 95.9106C57.3564 95.8481 57.2256 95.8169 57.0752 95.8169C56.9268 95.8169 56.7959 95.8481 56.6826 95.9106C56.5713 95.9731 56.4775 96.0591 56.4014 96.1685C56.3271 96.2759 56.2715 96.3999 56.2344 96.5405C56.1973 96.6792 56.1787 96.8267 56.1787 96.9829ZM59.7441 95.9282V98.6001H59.2021V95.4302H59.7295L59.7441 95.9282ZM60.7344 95.4126L60.7314 95.9165C60.6865 95.9067 60.6436 95.9009 60.6025 95.8989C60.5635 95.895 60.5186 95.8931 60.4678 95.8931C60.3428 95.8931 60.2324 95.9126 60.1367 95.9517C60.041 95.9907 59.96 96.0454 59.8936 96.1157C59.8271 96.186 59.7744 96.27 59.7354 96.3677C59.6982 96.4634 59.6738 96.5688 59.6621 96.6841L59.5098 96.772C59.5098 96.5806 59.5283 96.4009 59.5654 96.2329C59.6045 96.0649 59.6641 95.9165 59.7441 95.7876C59.8242 95.6567 59.9258 95.5552 60.0488 95.4829C60.1738 95.4087 60.3223 95.3716 60.4941 95.3716C60.5332 95.3716 60.5781 95.3765 60.6289 95.3862C60.6797 95.394 60.7148 95.4028 60.7344 95.4126ZM62.4922 98.6587C62.2715 98.6587 62.0713 98.6216 61.8916 98.5474C61.7139 98.4712 61.5605 98.3647 61.4316 98.228C61.3047 98.0913 61.207 97.9292 61.1387 97.7417C61.0703 97.5542 61.0361 97.3491 61.0361 97.1265V97.0034C61.0361 96.7456 61.0742 96.5161 61.1504 96.3149C61.2266 96.1118 61.3301 95.9399 61.4609 95.7993C61.5918 95.6587 61.7402 95.5522 61.9062 95.48C62.0723 95.4077 62.2441 95.3716 62.4219 95.3716C62.6484 95.3716 62.8438 95.4106 63.0078 95.4888C63.1738 95.5669 63.3096 95.6763 63.415 95.8169C63.5205 95.9556 63.5986 96.1196 63.6494 96.3091C63.7002 96.4966 63.7256 96.7017 63.7256 96.9243V97.1675H61.3584V96.7251H63.1836V96.6841C63.1758 96.5435 63.1465 96.4067 63.0957 96.2739C63.0469 96.1411 62.9688 96.0317 62.8613 95.9458C62.7539 95.8599 62.6074 95.8169 62.4219 95.8169C62.2988 95.8169 62.1855 95.8433 62.082 95.896C61.9785 95.9468 61.8896 96.0229 61.8154 96.1245C61.7412 96.2261 61.6836 96.3501 61.6426 96.4966C61.6016 96.6431 61.5811 96.812 61.5811 97.0034V97.1265C61.5811 97.2769 61.6016 97.4185 61.6426 97.5513C61.6855 97.6821 61.7471 97.7974 61.8271 97.897C61.9092 97.9966 62.0078 98.0747 62.123 98.1313C62.2402 98.188 62.373 98.2163 62.5215 98.2163C62.7129 98.2163 62.875 98.1772 63.0078 98.0991C63.1406 98.021 63.2568 97.9165 63.3564 97.7856L63.6846 98.0464C63.6162 98.1499 63.5293 98.2485 63.4238 98.3423C63.3184 98.436 63.1885 98.5122 63.0342 98.5708C62.8818 98.6294 62.7012 98.6587 62.4922 98.6587ZM14.0059 101.43H14.498V104.533C14.498 104.812 14.4414 105.05 14.3281 105.248C14.2148 105.445 14.0566 105.594 13.8535 105.696C13.6523 105.799 13.4199 105.851 13.1562 105.851C13.0469 105.851 12.918 105.833 12.7695 105.798C12.623 105.765 12.4785 105.708 12.3359 105.625C12.1953 105.545 12.0771 105.437 11.9814 105.3L12.2656 104.978C12.3984 105.138 12.5371 105.25 12.6816 105.312C12.8281 105.375 12.9727 105.406 13.1152 105.406C13.2871 105.406 13.4355 105.374 13.5605 105.309C13.6855 105.245 13.7822 105.149 13.8506 105.022C13.9209 104.897 13.9561 104.743 13.9561 104.559V102.127L14.0059 101.43ZM11.8232 103.05V102.989C11.8232 102.747 11.8516 102.527 11.9082 102.33C11.9668 102.13 12.0498 101.959 12.1572 101.817C12.2666 101.674 12.3984 101.565 12.5527 101.489C12.707 101.411 12.8809 101.372 13.0742 101.372C13.2734 101.372 13.4473 101.407 13.5957 101.477C13.7461 101.545 13.873 101.646 13.9766 101.779C14.082 101.91 14.165 102.068 14.2256 102.253C14.2861 102.439 14.3281 102.649 14.3516 102.883V103.153C14.3301 103.385 14.2881 103.594 14.2256 103.78C14.165 103.965 14.082 104.124 13.9766 104.254C13.873 104.385 13.7461 104.486 13.5957 104.556C13.4453 104.625 13.2695 104.659 13.0684 104.659C12.8789 104.659 12.707 104.619 12.5527 104.539C12.4004 104.458 12.2695 104.346 12.1602 104.202C12.0508 104.057 11.9668 103.887 11.9082 103.692C11.8516 103.495 11.8232 103.281 11.8232 103.05ZM12.3652 102.989V103.05C12.3652 103.208 12.3809 103.357 12.4121 103.496C12.4453 103.634 12.4951 103.756 12.5615 103.862C12.6299 103.967 12.7168 104.05 12.8223 104.111C12.9277 104.169 13.0537 104.199 13.2002 104.199C13.3799 104.199 13.5283 104.161 13.6455 104.084C13.7627 104.008 13.8555 103.908 13.9238 103.783C13.9941 103.658 14.0488 103.522 14.0879 103.375V102.669C14.0664 102.562 14.0332 102.458 13.9883 102.359C13.9453 102.257 13.8887 102.167 13.8184 102.089C13.75 102.009 13.665 101.946 13.5635 101.899C13.4619 101.852 13.3428 101.829 13.2061 101.829C13.0576 101.829 12.9297 101.86 12.8223 101.922C12.7168 101.983 12.6299 102.067 12.5615 102.174C12.4951 102.28 12.4453 102.403 12.4121 102.543C12.3809 102.682 12.3652 102.831 12.3652 102.989ZM16.6367 104.659C16.416 104.659 16.2158 104.622 16.0361 104.547C15.8584 104.471 15.7051 104.365 15.5762 104.228C15.4492 104.091 15.3516 103.929 15.2832 103.742C15.2148 103.554 15.1807 103.349 15.1807 103.126V103.003C15.1807 102.746 15.2188 102.516 15.2949 102.315C15.3711 102.112 15.4746 101.94 15.6055 101.799C15.7363 101.659 15.8848 101.552 16.0508 101.48C16.2168 101.408 16.3887 101.372 16.5664 101.372C16.793 101.372 16.9883 101.411 17.1523 101.489C17.3184 101.567 17.4541 101.676 17.5596 101.817C17.665 101.956 17.7432 102.12 17.7939 102.309C17.8447 102.497 17.8701 102.702 17.8701 102.924V103.167H15.5029V102.725H17.3281V102.684C17.3203 102.543 17.291 102.407 17.2402 102.274C17.1914 102.141 17.1133 102.032 17.0059 101.946C16.8984 101.86 16.752 101.817 16.5664 101.817C16.4434 101.817 16.3301 101.843 16.2266 101.896C16.123 101.947 16.0342 102.023 15.96 102.125C15.8857 102.226 15.8281 102.35 15.7871 102.497C15.7461 102.643 15.7256 102.812 15.7256 103.003V103.126C15.7256 103.277 15.7461 103.418 15.7871 103.551C15.8301 103.682 15.8916 103.797 15.9717 103.897C16.0537 103.997 16.1523 104.075 16.2676 104.131C16.3848 104.188 16.5176 104.216 16.666 104.216C16.8574 104.216 17.0195 104.177 17.1523 104.099C17.2852 104.021 17.4014 103.917 17.501 103.786L17.8291 104.046C17.7607 104.15 17.6738 104.249 17.5684 104.342C17.4629 104.436 17.333 104.512 17.1787 104.571C17.0264 104.629 16.8457 104.659 16.6367 104.659ZM19.8301 101.43V101.846H18.1162V101.43H19.8301ZM18.6963 100.66H19.2383V103.815C19.2383 103.922 19.2549 104.003 19.2881 104.058C19.3213 104.113 19.3643 104.149 19.417 104.167C19.4697 104.184 19.5264 104.193 19.5869 104.193C19.6318 104.193 19.6787 104.189 19.7275 104.181C19.7783 104.171 19.8164 104.164 19.8418 104.158L19.8447 104.6C19.8018 104.614 19.7451 104.626 19.6748 104.638C19.6064 104.652 19.5234 104.659 19.4258 104.659C19.293 104.659 19.1709 104.632 19.0596 104.58C18.9482 104.527 18.8594 104.439 18.793 104.316C18.7285 104.191 18.6963 104.023 18.6963 103.812V100.66ZM22.3115 103.759C22.3115 103.681 22.2939 103.609 22.2588 103.542C22.2256 103.474 22.1562 103.413 22.0508 103.358C21.9473 103.301 21.791 103.252 21.582 103.211C21.4062 103.174 21.2471 103.13 21.1045 103.08C20.9639 103.029 20.8438 102.967 20.7441 102.895C20.6465 102.823 20.5713 102.738 20.5186 102.64C20.4658 102.542 20.4395 102.428 20.4395 102.297C20.4395 102.172 20.4668 102.054 20.5215 101.943C20.5781 101.832 20.6572 101.733 20.7588 101.647C20.8623 101.561 20.9863 101.494 21.1309 101.445C21.2754 101.396 21.4365 101.372 21.6143 101.372C21.8682 101.372 22.085 101.417 22.2646 101.506C22.4443 101.596 22.582 101.716 22.6777 101.867C22.7734 102.015 22.8213 102.18 22.8213 102.362H22.2793C22.2793 102.274 22.2529 102.189 22.2002 102.107C22.1494 102.023 22.0742 101.954 21.9746 101.899C21.877 101.844 21.7568 101.817 21.6143 101.817C21.4639 101.817 21.3418 101.84 21.248 101.887C21.1562 101.932 21.0889 101.99 21.0459 102.06C21.0049 102.13 20.9844 102.205 20.9844 102.283C20.9844 102.341 20.9941 102.394 21.0137 102.441C21.0352 102.486 21.0723 102.528 21.125 102.567C21.1777 102.604 21.252 102.639 21.3477 102.672C21.4434 102.706 21.5654 102.739 21.7139 102.772C21.9736 102.831 22.1875 102.901 22.3555 102.983C22.5234 103.065 22.6484 103.166 22.7305 103.285C22.8125 103.404 22.8535 103.548 22.8535 103.718C22.8535 103.857 22.8242 103.984 22.7656 104.099C22.709 104.214 22.626 104.314 22.5166 104.398C22.4092 104.48 22.2803 104.544 22.1299 104.591C21.9814 104.636 21.8145 104.659 21.6289 104.659C21.3496 104.659 21.1133 104.609 20.9199 104.509C20.7266 104.41 20.5801 104.281 20.4805 104.123C20.3809 103.964 20.3311 103.797 20.3311 103.622H20.876C20.8838 103.77 20.9268 103.888 21.0049 103.976C21.083 104.062 21.1787 104.124 21.292 104.161C21.4053 104.196 21.5176 104.213 21.6289 104.213C21.7773 104.213 21.9014 104.194 22.001 104.155C22.1025 104.116 22.1797 104.062 22.2324 103.994C22.2852 103.925 22.3115 103.847 22.3115 103.759ZM27.0518 103.985V100.1H27.5967V104.6H27.0986L27.0518 103.985ZM24.9189 103.05V102.989C24.9189 102.747 24.9482 102.527 25.0068 102.33C25.0674 102.13 25.1523 101.959 25.2617 101.817C25.373 101.674 25.5049 101.565 25.6572 101.489C25.8115 101.411 25.9834 101.372 26.1729 101.372C26.3721 101.372 26.5459 101.407 26.6943 101.477C26.8447 101.545 26.9717 101.646 27.0752 101.779C27.1807 101.91 27.2637 102.068 27.3242 102.253C27.3848 102.439 27.4268 102.649 27.4502 102.883V103.153C27.4287 103.385 27.3867 103.594 27.3242 103.78C27.2637 103.965 27.1807 104.124 27.0752 104.254C26.9717 104.385 26.8447 104.486 26.6943 104.556C26.5439 104.625 26.3682 104.659 26.167 104.659C25.9814 104.659 25.8115 104.619 25.6572 104.539C25.5049 104.458 25.373 104.346 25.2617 104.202C25.1523 104.057 25.0674 103.887 25.0068 103.692C24.9482 103.495 24.9189 103.281 24.9189 103.05ZM25.4639 102.989V103.05C25.4639 103.208 25.4795 103.357 25.5107 103.496C25.5439 103.634 25.5947 103.756 25.6631 103.862C25.7314 103.967 25.8184 104.05 25.9238 104.111C26.0293 104.169 26.1553 104.199 26.3018 104.199C26.4814 104.199 26.6289 104.161 26.7441 104.084C26.8613 104.008 26.9551 103.908 27.0254 103.783C27.0957 103.658 27.1504 103.522 27.1895 103.375V102.669C27.166 102.562 27.1318 102.458 27.0869 102.359C27.0439 102.257 26.9873 102.167 26.917 102.089C26.8486 102.009 26.7637 101.946 26.6621 101.899C26.5625 101.852 26.4443 101.829 26.3076 101.829C26.1592 101.829 26.0312 101.86 25.9238 101.922C25.8184 101.983 25.7314 102.067 25.6631 102.174C25.5947 102.28 25.5439 102.403 25.5107 102.543C25.4795 102.682 25.4639 102.831 25.4639 102.989ZM29.7559 104.659C29.5352 104.659 29.335 104.622 29.1553 104.547C28.9775 104.471 28.8242 104.365 28.6953 104.228C28.5684 104.091 28.4707 103.929 28.4023 103.742C28.334 103.554 28.2998 103.349 28.2998 103.126V103.003C28.2998 102.746 28.3379 102.516 28.4141 102.315C28.4902 102.112 28.5938 101.94 28.7246 101.799C28.8555 101.659 29.0039 101.552 29.1699 101.48C29.3359 101.408 29.5078 101.372 29.6855 101.372C29.9121 101.372 30.1074 101.411 30.2715 101.489C30.4375 101.567 30.5732 101.676 30.6787 101.817C30.7842 101.956 30.8623 102.12 30.9131 102.309C30.9639 102.497 30.9893 102.702 30.9893 102.924V103.167H28.6221V102.725H30.4473V102.684C30.4395 102.543 30.4102 102.407 30.3594 102.274C30.3105 102.141 30.2324 102.032 30.125 101.946C30.0176 101.86 29.8711 101.817 29.6855 101.817C29.5625 101.817 29.4492 101.843 29.3457 101.896C29.2422 101.947 29.1533 102.023 29.0791 102.125C29.0049 102.226 28.9473 102.35 28.9062 102.497C28.8652 102.643 28.8447 102.812 28.8447 103.003V103.126C28.8447 103.277 28.8652 103.418 28.9062 103.551C28.9492 103.682 29.0107 103.797 29.0908 103.897C29.1729 103.997 29.2715 104.075 29.3867 104.131C29.5039 104.188 29.6367 104.216 29.7852 104.216C29.9766 104.216 30.1387 104.177 30.2715 104.099C30.4043 104.021 30.5205 103.917 30.6201 103.786L30.9482 104.046C30.8799 104.15 30.793 104.249 30.6875 104.342C30.582 104.436 30.4521 104.512 30.2979 104.571C30.1455 104.629 29.9648 104.659 29.7559 104.659ZM32.8906 104.213C33.0195 104.213 33.1387 104.187 33.248 104.134C33.3574 104.082 33.4473 104.009 33.5176 103.917C33.5879 103.824 33.6279 103.717 33.6377 103.598H34.1533C34.1436 103.786 34.0801 103.96 33.9629 104.123C33.8477 104.283 33.6963 104.413 33.5088 104.512C33.3213 104.61 33.1152 104.659 32.8906 104.659C32.6523 104.659 32.4443 104.617 32.2666 104.533C32.0908 104.449 31.9443 104.333 31.8271 104.187C31.7119 104.041 31.625 103.873 31.5664 103.683C31.5098 103.492 31.4814 103.29 31.4814 103.077V102.954C31.4814 102.741 31.5098 102.54 31.5664 102.35C31.625 102.159 31.7119 101.99 31.8271 101.843C31.9443 101.697 32.0908 101.582 32.2666 101.498C32.4443 101.414 32.6523 101.372 32.8906 101.372C33.1387 101.372 33.3555 101.422 33.541 101.524C33.7266 101.624 33.8721 101.76 33.9775 101.934C34.085 102.106 34.1436 102.301 34.1533 102.52H33.6377C33.6279 102.389 33.5908 102.271 33.5264 102.166C33.4639 102.06 33.3779 101.976 33.2686 101.914C33.1611 101.849 33.0352 101.817 32.8906 101.817C32.7246 101.817 32.585 101.85 32.4717 101.917C32.3604 101.981 32.2715 102.069 32.2051 102.18C32.1406 102.29 32.0938 102.412 32.0645 102.546C32.0371 102.679 32.0234 102.815 32.0234 102.954V103.077C32.0234 103.215 32.0371 103.352 32.0645 103.487C32.0918 103.622 32.1377 103.744 32.2021 103.853C32.2686 103.962 32.3574 104.05 32.4688 104.117C32.582 104.181 32.7227 104.213 32.8906 104.213ZM35.3047 101.928V104.6H34.7627V101.43H35.29L35.3047 101.928ZM36.2949 101.413L36.292 101.917C36.2471 101.907 36.2041 101.901 36.1631 101.899C36.124 101.895 36.0791 101.893 36.0283 101.893C35.9033 101.893 35.793 101.913 35.6973 101.952C35.6016 101.991 35.5205 102.045 35.4541 102.116C35.3877 102.186 35.335 102.27 35.2959 102.368C35.2588 102.463 35.2344 102.569 35.2227 102.684L35.0703 102.772C35.0703 102.581 35.0889 102.401 35.126 102.233C35.165 102.065 35.2246 101.917 35.3047 101.788C35.3848 101.657 35.4863 101.555 35.6094 101.483C35.7344 101.409 35.8828 101.372 36.0547 101.372C36.0938 101.372 36.1387 101.376 36.1895 101.386C36.2402 101.394 36.2754 101.403 36.2949 101.413ZM38.0527 104.659C37.832 104.659 37.6318 104.622 37.4521 104.547C37.2744 104.471 37.1211 104.365 36.9922 104.228C36.8652 104.091 36.7676 103.929 36.6992 103.742C36.6309 103.554 36.5967 103.349 36.5967 103.126V103.003C36.5967 102.746 36.6348 102.516 36.7109 102.315C36.7871 102.112 36.8906 101.94 37.0215 101.799C37.1523 101.659 37.3008 101.552 37.4668 101.48C37.6328 101.408 37.8047 101.372 37.9824 101.372C38.209 101.372 38.4043 101.411 38.5684 101.489C38.7344 101.567 38.8701 101.676 38.9756 101.817C39.0811 101.956 39.1592 102.12 39.21 102.309C39.2607 102.497 39.2861 102.702 39.2861 102.924V103.167H36.9189V102.725H38.7441V102.684C38.7363 102.543 38.707 102.407 38.6562 102.274C38.6074 102.141 38.5293 102.032 38.4219 101.946C38.3145 101.86 38.168 101.817 37.9824 101.817C37.8594 101.817 37.7461 101.843 37.6426 101.896C37.5391 101.947 37.4502 102.023 37.376 102.125C37.3018 102.226 37.2441 102.35 37.2031 102.497C37.1621 102.643 37.1416 102.812 37.1416 103.003V103.126C37.1416 103.277 37.1621 103.418 37.2031 103.551C37.2461 103.682 37.3076 103.797 37.3877 103.897C37.4697 103.997 37.5684 104.075 37.6836 104.131C37.8008 104.188 37.9336 104.216 38.082 104.216C38.2734 104.216 38.4355 104.177 38.5684 104.099C38.7012 104.021 38.8174 103.917 38.917 103.786L39.2451 104.046C39.1768 104.15 39.0898 104.249 38.9844 104.342C38.8789 104.436 38.749 104.512 38.5947 104.571C38.4424 104.629 38.2617 104.659 38.0527 104.659ZM40.458 102.06V104.6H39.9131V101.43H40.4287L40.458 102.06ZM40.3467 102.895L40.0947 102.886C40.0967 102.669 40.125 102.469 40.1797 102.286C40.2344 102.1 40.3154 101.939 40.4229 101.802C40.5303 101.666 40.6641 101.56 40.8242 101.486C40.9844 101.41 41.1699 101.372 41.3809 101.372C41.5293 101.372 41.666 101.393 41.791 101.436C41.916 101.477 42.0244 101.542 42.1162 101.632C42.208 101.722 42.2793 101.837 42.3301 101.978C42.3809 102.119 42.4062 102.289 42.4062 102.488V104.6H41.8643V102.514C41.8643 102.348 41.8359 102.215 41.7793 102.116C41.7246 102.016 41.6465 101.944 41.5449 101.899C41.4434 101.852 41.3242 101.829 41.1875 101.829C41.0273 101.829 40.8936 101.857 40.7861 101.914C40.6787 101.97 40.5928 102.048 40.5283 102.148C40.4639 102.248 40.417 102.362 40.3877 102.491C40.3604 102.618 40.3467 102.752 40.3467 102.895ZM42.4004 102.596L42.0371 102.708C42.0391 102.534 42.0674 102.367 42.1221 102.207C42.1787 102.046 42.2598 101.904 42.3652 101.779C42.4727 101.654 42.6045 101.555 42.7607 101.483C42.917 101.409 43.0957 101.372 43.2969 101.372C43.4668 101.372 43.6172 101.394 43.748 101.439C43.8809 101.484 43.9922 101.553 44.082 101.647C44.1738 101.739 44.2432 101.857 44.29 102.001C44.3369 102.146 44.3604 102.318 44.3604 102.517V104.6H43.8154V102.511C43.8154 102.333 43.7871 102.196 43.7305 102.098C43.6758 101.999 43.5977 101.929 43.4961 101.89C43.3965 101.849 43.2773 101.829 43.1387 101.829C43.0195 101.829 42.9141 101.849 42.8223 101.89C42.7305 101.931 42.6533 101.988 42.5908 102.06C42.5283 102.13 42.4805 102.211 42.4473 102.303C42.416 102.395 42.4004 102.493 42.4004 102.596ZM46.4961 104.659C46.2754 104.659 46.0752 104.622 45.8955 104.547C45.7178 104.471 45.5645 104.365 45.4355 104.228C45.3086 104.091 45.2109 103.929 45.1426 103.742C45.0742 103.554 45.04 103.349 45.04 103.126V103.003C45.04 102.746 45.0781 102.516 45.1543 102.315C45.2305 102.112 45.334 101.94 45.4648 101.799C45.5957 101.659 45.7441 101.552 45.9102 101.48C46.0762 101.408 46.248 101.372 46.4258 101.372C46.6523 101.372 46.8477 101.411 47.0117 101.489C47.1777 101.567 47.3135 101.676 47.4189 101.817C47.5244 101.956 47.6025 102.12 47.6533 102.309C47.7041 102.497 47.7295 102.702 47.7295 102.924V103.167H45.3623V102.725H47.1875V102.684C47.1797 102.543 47.1504 102.407 47.0996 102.274C47.0508 102.141 46.9727 102.032 46.8652 101.946C46.7578 101.86 46.6113 101.817 46.4258 101.817C46.3027 101.817 46.1895 101.843 46.0859 101.896C45.9824 101.947 45.8936 102.023 45.8193 102.125C45.7451 102.226 45.6875 102.35 45.6465 102.497C45.6055 102.643 45.585 102.812 45.585 103.003V103.126C45.585 103.277 45.6055 103.418 45.6465 103.551C45.6895 103.682 45.751 103.797 45.8311 103.897C45.9131 103.997 46.0117 104.075 46.127 104.131C46.2441 104.188 46.377 104.216 46.5254 104.216C46.7168 104.216 46.8789 104.177 47.0117 104.099C47.1445 104.021 47.2607 103.917 47.3604 103.786L47.6885 104.046C47.6201 104.15 47.5332 104.249 47.4277 104.342C47.3223 104.436 47.1924 104.512 47.0381 104.571C46.8857 104.629 46.7051 104.659 46.4961 104.659ZM48.9043 102.107V104.6H48.3623V101.43H48.875L48.9043 102.107ZM48.7754 102.895L48.5498 102.886C48.5518 102.669 48.584 102.469 48.6465 102.286C48.709 102.1 48.7969 101.939 48.9102 101.802C49.0234 101.666 49.1582 101.56 49.3145 101.486C49.4727 101.41 49.6475 101.372 49.8389 101.372C49.9951 101.372 50.1357 101.393 50.2607 101.436C50.3857 101.477 50.4922 101.543 50.5801 101.635C50.6699 101.727 50.7383 101.846 50.7852 101.993C50.832 102.137 50.8555 102.314 50.8555 102.523V104.6H50.3105V102.517C50.3105 102.351 50.2861 102.218 50.2373 102.119C50.1885 102.017 50.1172 101.944 50.0234 101.899C49.9297 101.852 49.8145 101.829 49.6777 101.829C49.543 101.829 49.4199 101.857 49.3086 101.914C49.1992 101.97 49.1045 102.048 49.0244 102.148C48.9463 102.248 48.8848 102.362 48.8398 102.491C48.7969 102.618 48.7754 102.752 48.7754 102.895ZM53.0059 101.43V101.846H51.292V101.43H53.0059ZM51.8721 100.66H52.4141V103.815C52.4141 103.922 52.4307 104.003 52.4639 104.058C52.4971 104.113 52.54 104.149 52.5928 104.167C52.6455 104.184 52.7021 104.193 52.7627 104.193C52.8076 104.193 52.8545 104.189 52.9033 104.181C52.9541 104.171 52.9922 104.164 53.0176 104.158L53.0205 104.6C52.9775 104.614 52.9209 104.626 52.8506 104.638C52.7822 104.652 52.6992 104.659 52.6016 104.659C52.4688 104.659 52.3467 104.632 52.2354 104.58C52.124 104.527 52.0352 104.439 51.9688 104.316C51.9043 104.191 51.8721 104.023 51.8721 103.812V100.66ZM54.957 104.659C54.7363 104.659 54.5361 104.622 54.3564 104.547C54.1787 104.471 54.0254 104.365 53.8965 104.228C53.7695 104.091 53.6719 103.929 53.6035 103.742C53.5352 103.554 53.501 103.349 53.501 103.126V103.003C53.501 102.746 53.5391 102.516 53.6152 102.315C53.6914 102.112 53.7949 101.94 53.9258 101.799C54.0566 101.659 54.2051 101.552 54.3711 101.48C54.5371 101.408 54.709 101.372 54.8867 101.372C55.1133 101.372 55.3086 101.411 55.4727 101.489C55.6387 101.567 55.7744 101.676 55.8799 101.817C55.9854 101.956 56.0635 102.12 56.1143 102.309C56.165 102.497 56.1904 102.702 56.1904 102.924V103.167H53.8232V102.725H55.6484V102.684C55.6406 102.543 55.6113 102.407 55.5605 102.274C55.5117 102.141 55.4336 102.032 55.3262 101.946C55.2188 101.86 55.0723 101.817 54.8867 101.817C54.7637 101.817 54.6504 101.843 54.5469 101.896C54.4434 101.947 54.3545 102.023 54.2803 102.125C54.2061 102.226 54.1484 102.35 54.1074 102.497C54.0664 102.643 54.0459 102.812 54.0459 103.003V103.126C54.0459 103.277 54.0664 103.418 54.1074 103.551C54.1504 103.682 54.2119 103.797 54.292 103.897C54.374 103.997 54.4727 104.075 54.5879 104.131C54.7051 104.188 54.8379 104.216 54.9863 104.216C55.1777 104.216 55.3398 104.177 55.4727 104.099C55.6055 104.021 55.7217 103.917 55.8213 103.786L56.1494 104.046C56.0811 104.15 55.9941 104.249 55.8887 104.342C55.7832 104.436 55.6533 104.512 55.499 104.571C55.3467 104.629 55.166 104.659 54.957 104.659ZM58.8213 103.985V100.1H59.3662V104.6H58.8682L58.8213 103.985ZM56.6885 103.05V102.989C56.6885 102.747 56.7178 102.527 56.7764 102.33C56.8369 102.13 56.9219 101.959 57.0312 101.817C57.1426 101.674 57.2744 101.565 57.4268 101.489C57.5811 101.411 57.7529 101.372 57.9424 101.372C58.1416 101.372 58.3154 101.407 58.4639 101.477C58.6143 101.545 58.7412 101.646 58.8447 101.779C58.9502 101.91 59.0332 102.068 59.0938 102.253C59.1543 102.439 59.1963 102.649 59.2197 102.883V103.153C59.1982 103.385 59.1562 103.594 59.0938 103.78C59.0332 103.965 58.9502 104.124 58.8447 104.254C58.7412 104.385 58.6143 104.486 58.4639 104.556C58.3135 104.625 58.1377 104.659 57.9365 104.659C57.751 104.659 57.5811 104.619 57.4268 104.539C57.2744 104.458 57.1426 104.346 57.0312 104.202C56.9219 104.057 56.8369 103.887 56.7764 103.692C56.7178 103.495 56.6885 103.281 56.6885 103.05ZM57.2334 102.989V103.05C57.2334 103.208 57.249 103.357 57.2803 103.496C57.3135 103.634 57.3643 103.756 57.4326 103.862C57.501 103.967 57.5879 104.05 57.6934 104.111C57.7988 104.169 57.9248 104.199 58.0713 104.199C58.251 104.199 58.3984 104.161 58.5137 104.084C58.6309 104.008 58.7246 103.908 58.7949 103.783C58.8652 103.658 58.9199 103.522 58.959 103.375V102.669C58.9355 102.562 58.9014 102.458 58.8564 102.359C58.8135 102.257 58.7568 102.167 58.6865 102.089C58.6182 102.009 58.5332 101.946 58.4316 101.899C58.332 101.852 58.2139 101.829 58.0771 101.829C57.9287 101.829 57.8008 101.86 57.6934 101.922C57.5879 101.983 57.501 102.067 57.4326 102.174C57.3643 102.28 57.3135 102.403 57.2803 102.543C57.249 102.682 57.2334 102.831 57.2334 102.989ZM61.6953 100.1H62.2402V103.985L62.1934 104.6H61.6953V100.1ZM64.3818 102.989V103.05C64.3818 103.281 64.3545 103.495 64.2998 103.692C64.2451 103.887 64.165 104.057 64.0596 104.202C63.9541 104.346 63.8252 104.458 63.6729 104.539C63.5205 104.619 63.3457 104.659 63.1484 104.659C62.9473 104.659 62.7705 104.625 62.6182 104.556C62.4678 104.486 62.3408 104.385 62.2373 104.254C62.1338 104.124 62.0508 103.965 61.9883 103.78C61.9277 103.594 61.8857 103.385 61.8623 103.153V102.883C61.8857 102.649 61.9277 102.439 61.9883 102.253C62.0508 102.068 62.1338 101.91 62.2373 101.779C62.3408 101.646 62.4678 101.545 62.6182 101.477C62.7686 101.407 62.9434 101.372 63.1426 101.372C63.3418 101.372 63.5186 101.411 63.6729 101.489C63.8271 101.565 63.9561 101.674 64.0596 101.817C64.165 101.959 64.2451 102.13 64.2998 102.33C64.3545 102.527 64.3818 102.747 64.3818 102.989ZM63.8369 103.05V102.989C63.8369 102.831 63.8223 102.682 63.793 102.543C63.7637 102.403 63.7168 102.28 63.6523 102.174C63.5879 102.067 63.5029 101.983 63.3975 101.922C63.292 101.86 63.1621 101.829 63.0078 101.829C62.8711 101.829 62.752 101.852 62.6504 101.899C62.5508 101.946 62.4658 102.009 62.3955 102.089C62.3252 102.167 62.2676 102.257 62.2227 102.359C62.1797 102.458 62.1475 102.562 62.126 102.669V103.375C62.1572 103.512 62.208 103.644 62.2783 103.771C62.3506 103.896 62.4463 103.999 62.5654 104.079C62.6865 104.159 62.8359 104.199 63.0137 104.199C63.1602 104.199 63.2852 104.169 63.3887 104.111C63.4941 104.05 63.5791 103.967 63.6436 103.862C63.71 103.756 63.7588 103.634 63.79 103.496C63.8213 103.357 63.8369 103.208 63.8369 103.05ZM65.9229 104.272L66.8047 101.43H67.3848L66.1133 105.089C66.084 105.167 66.0449 105.251 65.9961 105.341C65.9492 105.433 65.8887 105.52 65.8145 105.602C65.7402 105.684 65.6504 105.75 65.5449 105.801C65.4414 105.854 65.3174 105.88 65.1729 105.88C65.1299 105.88 65.0752 105.875 65.0088 105.863C64.9424 105.851 64.8955 105.841 64.8682 105.833L64.8652 105.394C64.8809 105.396 64.9053 105.398 64.9385 105.4C64.9736 105.404 64.998 105.406 65.0117 105.406C65.1348 105.406 65.2393 105.389 65.3252 105.356C65.4111 105.325 65.4834 105.271 65.542 105.195C65.6025 105.121 65.6543 105.018 65.6973 104.887L65.9229 104.272ZM65.2754 101.43L66.0986 103.891L66.2393 104.462L65.8496 104.662L64.6836 101.43H65.2754ZM38.5859 108.438V109.1H36.9307V108.438H38.5859ZM42.2422 109.006V109.668H39.1689L39.1279 109.156L40.9062 106.334H41.5771L40.8506 107.55L39.9658 109.006H42.2422ZM41.7588 106.334V110.6H40.915V106.334H41.7588Z" fill="black"/>
<g filter="url(#filter0_d_329_1602)">
<circle cx="40" cy="33" r="25" fill="white"/>
<circle cx="40" cy="33" r="24.25" stroke="#694E4E" stroke-width="1.5"/>
</g>
<mask id="path-7-outside-1_329_1602" maskUnits="userSpaceOnUse" x="28" y="22" width="25" height="20" fill="black">
<rect fill="white" x="28" y="22" width="25" height="20"/>
<path d="M35.7437 32.3516V35H29.1227V32.3516H35.7437ZM51.5687 34.625V37.2734H39.2758L39.1117 35.2227L46.225 23.9375H48.9086L46.0023 28.8008L42.4633 34.625H51.5687ZM49.6352 23.9375V41H46.2602V23.9375H49.6352Z"/>
</mask>
<path d="M35.7437 32.3516V35H29.1227V32.3516H35.7437ZM51.5687 34.625V37.2734H39.2758L39.1117 35.2227L46.225 23.9375H48.9086L46.0023 28.8008L42.4633 34.625H51.5687ZM49.6352 23.9375V41H46.2602V23.9375H49.6352Z" fill="#694E4E"/>
<path d="M35.7437 32.3516H36.7437V31.3516H35.7437V32.3516ZM35.7437 35V36H36.7437V35H35.7437ZM29.1227 35H28.1227V36H29.1227V35ZM29.1227 32.3516V31.3516H28.1227V32.3516H29.1227ZM35.7437 32.3516H34.7437V35H35.7437H36.7437V32.3516H35.7437ZM35.7437 35V34H29.1227V35V36H35.7437V35ZM29.1227 35H30.1227V32.3516H29.1227H28.1227V35H29.1227ZM29.1227 32.3516V33.3516H35.7437V32.3516V31.3516H29.1227V32.3516ZM51.5687 34.625H52.5687V33.625H51.5687V34.625ZM51.5687 37.2734V38.2734H52.5687V37.2734H51.5687ZM39.2758 37.2734L38.279 37.3532L38.3526 38.2734H39.2758V37.2734ZM39.1117 35.2227L38.2657 34.6894L38.0884 34.9708L38.1149 35.3024L39.1117 35.2227ZM46.225 23.9375V22.9375H45.6732L45.379 23.4043L46.225 23.9375ZM48.9086 23.9375L49.767 24.4505L50.6711 22.9375H48.9086V23.9375ZM46.0023 28.8008L46.857 29.3201L46.8607 29.3138L46.0023 28.8008ZM42.4633 34.625L41.6087 34.1057L40.6855 35.625H42.4633V34.625ZM49.6352 23.9375H50.6352V22.9375H49.6352V23.9375ZM49.6352 41V42H50.6352V41H49.6352ZM46.2602 41H45.2602V42H46.2602V41ZM46.2602 23.9375V22.9375H45.2602V23.9375H46.2602ZM51.5687 34.625H50.5687V37.2734H51.5687H52.5687V34.625H51.5687ZM51.5687 37.2734V36.2734H39.2758V37.2734V38.2734H51.5687V37.2734ZM39.2758 37.2734L40.2726 37.1937L40.1085 35.1429L39.1117 35.2227L38.1149 35.3024L38.279 37.3532L39.2758 37.2734ZM39.1117 35.2227L39.9577 35.7559L47.071 24.4707L46.225 23.9375L45.379 23.4043L38.2657 34.6894L39.1117 35.2227ZM46.225 23.9375V24.9375H48.9086V23.9375V22.9375H46.225V23.9375ZM48.9086 23.9375L48.0502 23.4245L45.1439 28.2878L46.0023 28.8008L46.8607 29.3138L49.767 24.4505L48.9086 23.9375ZM46.0023 28.8008L45.1477 28.2815L41.6087 34.1057L42.4633 34.625L43.3179 35.1443L46.8569 29.3201L46.0023 28.8008ZM42.4633 34.625V35.625H51.5687V34.625V33.625H42.4633V34.625ZM49.6352 23.9375H48.6352V41H49.6352H50.6352V23.9375H49.6352ZM49.6352 41V40H46.2602V41V42H49.6352V41ZM46.2602 41H47.2602V23.9375H46.2602H45.2602V41H46.2602ZM46.2602 23.9375V24.9375H49.6352V23.9375V22.9375H46.2602V23.9375Z" fill="#694E4E" mask="url(#path-7-outside-1_329_1602)"/>
<defs>
<filter id="filter0_d_329_1602" x="11" y="7" width="58" height="58" filterUnits="userSpaceOnUse" color-interpolation-filters="sRGB">
<feFlood flood-opacity="0" result="BackgroundImageFix"/>
<feColorMatrix in="SourceAlpha" type="matrix" values="0 0 0 0 0 0 0 0 0 0 0 0 0 0 0 0 0 0 127 0" result="hardAlpha"/>
<feOffset dy="3"/>
<feGaussianBlur stdDeviation="2"/>
<feComposite in2="hardAlpha" operator="out"/>
<feColorMatrix type="matrix" values="0 0 0 0 0 0 0 0 0 0 0 0 0 0 0 0 0 0 0.25 0"/>
<feBlend mode="normal" in2="BackgroundImageFix" result="effect1_dropShadow_329_1602"/>
<feBlend mode="normal" in="SourceGraphic" in2="effect1_dropShadow_329_1602" result="shape"/>
</filter>
</defs>
</svg>
