<svg width="80" height="140" viewBox="0 0 80 140" fill="none" xmlns="http://www.w3.org/2000/svg">
<rect x="0.5" y="0.5" width="79" height="139" rx="9.5" fill="white" stroke="black"/>
<rect x="4.26465" y="3.56567" width="71.4706" height="132.869" rx="9.5" fill="url(#paint0_linear_272_469)" stroke="black"/>
<path d="M66.4114 115.587C67.9053 115.815 69.1698 116.946 69.9906 118.654C70.8104 120.36 71.1702 122.614 70.8603 125.009C70.5504 127.403 69.6323 129.462 68.4111 130.857C67.1884 132.254 65.6857 132.962 64.1918 132.735C62.6978 132.507 61.4326 131.375 60.6117 129.667C59.7919 127.961 59.432 125.707 59.742 123.312C60.0519 120.918 60.97 118.859 62.1912 117.464C63.414 116.068 64.9175 115.359 66.4114 115.587Z" fill="url(#paint1_linear_272_469)" stroke="#B51D83" stroke-width="0.5"/>
<mask id="path-4-outside-1_272_469" maskUnits="userSpaceOnUse" x="60.729" y="120.934" width="9" height="8" fill="black">
<rect fill="white" x="60.729" y="120.934" width="9" height="8"/>
<path d="M65.9367 127.63L66.8976 121.934H68.0578L67.3195 126.188L68.4172 125.794L68.2414 126.798L66.0734 127.626L65.9367 127.63ZM61.8023 122.899L61.9547 121.934H65.2437L65.1109 122.798L63.3609 124.696C63.2594 124.813 63.1565 124.941 63.0523 125.079C62.9482 125.219 62.857 125.367 62.7789 125.52C62.6982 125.677 62.6474 125.834 62.6265 125.993C62.6161 126.079 62.6109 126.18 62.6109 126.298C62.6083 126.417 62.6291 126.522 62.6734 126.61C62.7177 126.701 62.8049 126.748 62.9351 126.751C63.0888 126.759 63.2086 126.708 63.2945 126.598C63.3778 126.489 63.4377 126.36 63.4742 126.212C63.5107 126.063 63.5341 125.932 63.5445 125.817L64.7008 125.809C64.6825 126.148 64.5914 126.462 64.4273 126.751C64.2633 127.042 64.0445 127.275 63.7711 127.45C63.495 127.627 63.1786 127.713 62.8219 127.708C62.5015 127.703 62.2333 127.631 62.0172 127.493C61.7984 127.355 61.6383 127.165 61.5367 126.923C61.4325 126.683 61.3948 126.407 61.4234 126.094C61.4416 125.863 61.4963 125.644 61.5875 125.438C61.6786 125.235 61.7919 125.044 61.9273 124.864C62.0601 124.684 62.2047 124.51 62.3609 124.341C62.5172 124.174 62.6695 124.01 62.8179 123.848L63.564 122.903L61.8023 122.899Z"/>
</mask>
<path d="M65.9367 127.63L66.8976 121.934H68.0578L67.3195 126.188L68.4172 125.794L68.2414 126.798L66.0734 127.626L65.9367 127.63ZM61.8023 122.899L61.9547 121.934H65.2437L65.1109 122.798L63.3609 124.696C63.2594 124.813 63.1565 124.941 63.0523 125.079C62.9482 125.219 62.857 125.367 62.7789 125.52C62.6982 125.677 62.6474 125.834 62.6265 125.993C62.6161 126.079 62.6109 126.18 62.6109 126.298C62.6083 126.417 62.6291 126.522 62.6734 126.61C62.7177 126.701 62.8049 126.748 62.9351 126.751C63.0888 126.759 63.2086 126.708 63.2945 126.598C63.3778 126.489 63.4377 126.36 63.4742 126.212C63.5107 126.063 63.5341 125.932 63.5445 125.817L64.7008 125.809C64.6825 126.148 64.5914 126.462 64.4273 126.751C64.2633 127.042 64.0445 127.275 63.7711 127.45C63.495 127.627 63.1786 127.713 62.8219 127.708C62.5015 127.703 62.2333 127.631 62.0172 127.493C61.7984 127.355 61.6383 127.165 61.5367 126.923C61.4325 126.683 61.3948 126.407 61.4234 126.094C61.4416 125.863 61.4963 125.644 61.5875 125.438C61.6786 125.235 61.7919 125.044 61.9273 124.864C62.0601 124.684 62.2047 124.51 62.3609 124.341C62.5172 124.174 62.6695 124.01 62.8179 123.848L63.564 122.903L61.8023 122.899Z" fill="#CD1696"/>
<path d="M65.9367 127.63L65.6409 127.58L65.5801 127.94L65.9453 127.93L65.9367 127.63ZM66.8976 121.934V121.634H66.644L66.6018 121.884L66.8976 121.934ZM68.0578 121.934L68.3534 121.986L68.4143 121.634H68.0578V121.934ZM67.3195 126.188L67.0239 126.137L66.9358 126.645L67.421 126.471L67.3195 126.188ZM68.4172 125.794L68.7127 125.845L68.8018 125.337L68.3157 125.511L68.4172 125.794ZM68.2414 126.798L68.3484 127.078L68.5075 127.017L68.5369 126.849L68.2414 126.798ZM66.0734 127.626L66.082 127.926L66.1329 127.924L66.1805 127.906L66.0734 127.626ZM65.9367 127.63L66.2325 127.68L67.1935 121.984L66.8976 121.934L66.6018 121.884L65.6409 127.58L65.9367 127.63ZM66.8976 121.934V122.234H68.0578V121.934V121.634H66.8976V121.934ZM68.0578 121.934L67.7622 121.883L67.0239 126.137L67.3195 126.188L67.6151 126.24L68.3534 121.986L68.0578 121.934ZM67.3195 126.188L67.421 126.471L68.5186 126.076L68.4172 125.794L68.3157 125.511L67.218 125.906L67.3195 126.188ZM68.4172 125.794L68.1217 125.742L67.9459 126.746L68.2414 126.798L68.5369 126.849L68.7127 125.845L68.4172 125.794ZM68.2414 126.798L68.1343 126.517L65.9664 127.345L66.0734 127.626L66.1805 127.906L68.3484 127.078L68.2414 126.798ZM66.0734 127.626L66.0648 127.326L65.9281 127.33L65.9367 127.63L65.9453 127.93L66.082 127.926L66.0734 127.626ZM61.8023 122.899L61.506 122.852L61.4514 123.198L61.8017 123.199L61.8023 122.899ZM61.9547 121.934V121.634H61.6983L61.6583 121.888L61.9547 121.934ZM65.2437 121.934L65.5402 121.98L65.5934 121.634H65.2437V121.934ZM65.1109 122.798L65.3315 123.001L65.3935 122.934L65.4074 122.843L65.1109 122.798ZM63.3609 124.696L63.1402 124.493L63.1342 124.5L63.3609 124.696ZM63.0523 125.079L62.8129 124.898L62.8113 124.9L63.0523 125.079ZM62.7789 125.52L63.0454 125.658L63.0463 125.656L62.7789 125.52ZM62.6265 125.993L62.3291 125.954L62.3287 125.957L62.6265 125.993ZM62.6109 126.298L62.9109 126.304V126.298H62.6109ZM62.6734 126.61L62.9433 126.479L62.9417 126.476L62.6734 126.61ZM62.9351 126.751L62.9504 126.451L62.9411 126.451L62.9351 126.751ZM63.2945 126.598L63.5304 126.784L63.5331 126.78L63.2945 126.598ZM63.5445 125.817L63.5425 125.517L63.2704 125.519L63.2457 125.79L63.5445 125.817ZM64.7008 125.809L65.0003 125.825L65.0175 125.507L64.6987 125.509L64.7008 125.809ZM64.4273 126.751L64.1664 126.603L64.1658 126.604L64.4273 126.751ZM63.7711 127.45L63.6097 127.197L63.6091 127.197L63.7711 127.45ZM62.8219 127.708L62.817 128.008L62.8175 128.008L62.8219 127.708ZM62.0172 127.493L62.1786 127.24L62.1772 127.239L62.0172 127.493ZM61.5367 126.923L61.8134 126.807L61.8118 126.803L61.5367 126.923ZM61.4234 126.094L61.7222 126.122L61.7225 126.118L61.4234 126.094ZM61.5875 125.438L61.3138 125.315L61.3132 125.317L61.5875 125.438ZM61.9273 124.864L62.1669 125.045L62.1686 125.042L61.9273 124.864ZM62.3609 124.341L62.142 124.135L62.1405 124.137L62.3609 124.341ZM62.8179 123.848L63.0388 124.051L63.0464 124.043L63.0534 124.034L62.8179 123.848ZM63.564 122.903L63.7995 123.089L64.1819 122.604L63.5647 122.603L63.564 122.903ZM61.8023 122.899L62.0986 122.946L62.251 121.981L61.9547 121.934L61.6583 121.888L61.506 122.852L61.8023 122.899ZM61.9547 121.934V122.234H65.2437V121.934V121.634H61.9547V121.934ZM65.2437 121.934L64.9472 121.889L64.8144 122.752L65.1109 122.798L65.4074 122.843L65.5402 121.98L65.2437 121.934ZM65.1109 122.798L64.8903 122.594L63.1403 124.493L63.3609 124.696L63.5815 124.899L65.3315 123.001L65.1109 122.798ZM63.3609 124.696L63.1342 124.5C63.0278 124.622 62.9206 124.755 62.8129 124.898L63.0523 125.079L63.2918 125.26C63.3923 125.126 63.491 125.004 63.5876 124.893L63.3609 124.696ZM63.0523 125.079L62.8113 124.9C62.6973 125.054 62.5973 125.216 62.5115 125.384L62.7789 125.52L63.0463 125.656C63.1167 125.518 63.199 125.385 63.2934 125.257L63.0523 125.079ZM62.7789 125.52L62.5124 125.383C62.4172 125.567 62.3549 125.757 62.3291 125.954L62.6265 125.993L62.924 126.032C62.9399 125.911 62.9791 125.786 63.0454 125.658L62.7789 125.52ZM62.6265 125.993L62.3287 125.957C62.3164 126.058 62.3109 126.172 62.3109 126.298H62.6109H62.9109C62.9109 126.189 62.9158 126.1 62.9244 126.029L62.6265 125.993ZM62.6109 126.298L62.311 126.291C62.3075 126.449 62.3349 126.604 62.4051 126.744L62.6734 126.61L62.9417 126.476C62.9234 126.439 62.9091 126.385 62.9108 126.304L62.6109 126.298ZM62.6734 126.61L62.4036 126.741C62.5117 126.964 62.7242 127.047 62.9291 127.051L62.9351 126.751L62.9411 126.451C62.9091 126.45 62.9047 126.444 62.914 126.449C62.9191 126.452 62.9256 126.457 62.9319 126.463C62.9381 126.47 62.9417 126.476 62.9433 126.479L62.6734 126.61ZM62.9351 126.751L62.9199 127.05C63.1588 127.062 63.3772 126.979 63.5304 126.784L63.2945 126.598L63.0586 126.413C63.0399 126.437 63.0187 126.455 62.9504 126.451L62.9351 126.751ZM63.2945 126.598L63.5331 126.78C63.6441 126.635 63.7204 126.467 63.7655 126.283L63.4742 126.212L63.1829 126.14C63.1551 126.253 63.1116 126.343 63.0559 126.417L63.2945 126.598ZM63.4742 126.212L63.7655 126.283C63.8045 126.125 63.8311 125.978 63.8433 125.844L63.5445 125.817L63.2457 125.79C63.237 125.886 63.2168 126.002 63.1829 126.14L63.4742 126.212ZM63.5445 125.817L63.5465 126.117L64.7028 126.109L64.7008 125.809L64.6987 125.509L63.5425 125.517L63.5445 125.817ZM64.7008 125.809L64.4012 125.793C64.3854 126.086 64.3071 126.355 64.1664 126.603L64.4273 126.751L64.6882 126.899C64.8757 126.569 64.9796 126.209 65.0003 125.825L64.7008 125.809ZM64.4273 126.751L64.1658 126.604C64.0252 126.854 63.8402 127.05 63.6097 127.197L63.7711 127.45L63.9324 127.703C64.2488 127.501 64.5014 127.231 64.6888 126.898L64.4273 126.751ZM63.7711 127.45L63.6091 127.197C63.387 127.34 63.1295 127.412 62.8262 127.408L62.8219 127.708L62.8175 128.008C63.2277 128.014 63.6031 127.914 63.9331 127.702L63.7711 127.45ZM62.8219 127.708L62.8267 127.408C62.5482 127.403 62.3376 127.342 62.1786 127.24L62.0172 127.493L61.8557 127.746C62.1291 127.92 62.4549 128.002 62.817 128.008L62.8219 127.708ZM62.0172 127.493L62.1772 127.239C62.0114 127.135 61.8915 126.993 61.8134 126.807L61.5367 126.923L61.26 127.039C61.385 127.337 61.5854 127.575 61.8571 127.747L62.0172 127.493ZM61.5367 126.923L61.8118 126.803C61.7314 126.618 61.6972 126.394 61.7222 126.122L61.4234 126.094L61.1247 126.067C61.0923 126.42 61.1336 126.748 61.2616 127.042L61.5367 126.923ZM61.4234 126.094L61.7225 126.118C61.7381 125.919 61.7848 125.733 61.8618 125.56L61.5875 125.438L61.3132 125.317C61.2078 125.554 61.1451 125.806 61.1243 126.071L61.4234 126.094ZM61.5875 125.438L61.8612 125.561C61.9431 125.379 62.0448 125.207 62.1669 125.045L61.9273 124.864L61.6877 124.683C61.539 124.881 61.4142 125.092 61.3138 125.315L61.5875 125.438ZM61.9273 124.864L62.1686 125.042C62.2947 124.872 62.4323 124.706 62.5814 124.544L62.3609 124.341L62.1405 124.137C61.9771 124.314 61.8256 124.497 61.6861 124.686L61.9273 124.864ZM62.3609 124.341L62.5798 124.546C62.7367 124.378 62.8897 124.214 63.0388 124.051L62.8179 123.848L62.5971 123.645C62.4493 123.806 62.2977 123.969 62.1421 124.135L62.3609 124.341ZM62.8179 123.848L63.0534 124.034L63.7995 123.089L63.564 122.903L63.3285 122.717L62.5825 123.663L62.8179 123.848ZM63.564 122.903L63.5647 122.603L61.803 122.599L61.8023 122.899L61.8017 123.199L63.5634 123.203L63.564 122.903Z" fill="#600C57" mask="url(#path-4-outside-1_272_469)"/>
<g filter="url(#filter0_d_272_469)">
<ellipse cx="39.5295" cy="72.0437" rx="26.3529" ry="46.4963" fill="url(#paint2_linear_272_469)" shape-rendering="crispEdges"/>
<ellipse cx="39.5295" cy="72.0437" rx="26.3529" ry="46.4963" stroke="#EC22A9" shape-rendering="crispEdges"/>
</g>
<g filter="url(#filter1_d_272_469)">
<mask id="path-7-outside-2_272_469" maskUnits="userSpaceOnUse" x="19" y="54.613" width="42" height="31" fill="black">
<rect fill="white" x="19" y="54.613" width="42" height="31"/>
<path d="M33.1008 56.1169V84.613H27.4758V62.6013L20.718 64.7498V60.3162L32.4953 56.1169H33.1008ZM59.7508 80.2185V84.613H40.2977V80.863L49.4969 70.9998C50.4214 69.9711 51.1505 69.0662 51.6844 68.2849C52.2182 67.4906 52.6023 66.781 52.8367 66.156C53.0841 65.518 53.2078 64.9125 53.2078 64.3396C53.2078 63.4802 53.0646 62.7445 52.7781 62.1326C52.4917 61.5076 52.0685 61.0258 51.5086 60.6873C50.9617 60.3487 50.2846 60.1794 49.4773 60.1794C48.618 60.1794 47.8758 60.3878 47.2508 60.8044C46.6388 61.2211 46.17 61.8005 45.8445 62.5427C45.532 63.2849 45.3758 64.1248 45.3758 65.0623H39.7312C39.7312 63.3695 40.1349 61.8201 40.9422 60.4138C41.7495 58.9945 42.8888 57.8682 44.3602 57.0349C45.8315 56.1886 47.5763 55.7654 49.5945 55.7654C51.5867 55.7654 53.2664 56.0909 54.6336 56.7419C56.0138 57.38 57.0555 58.3044 57.7586 59.5154C58.4747 60.7133 58.8328 62.1456 58.8328 63.8123C58.8328 64.7498 58.6831 65.6677 58.3836 66.5662C58.0841 67.4516 57.6544 68.337 57.0945 69.2224C56.5477 70.0948 55.8836 70.9802 55.1023 71.8787C54.3211 72.7771 53.4552 73.7081 52.5047 74.6716L47.5633 80.2185H59.7508Z"/>
</mask>
<path d="M33.1008 56.1169V84.613H27.4758V62.6013L20.718 64.7498V60.3162L32.4953 56.1169H33.1008ZM59.7508 80.2185V84.613H40.2977V80.863L49.4969 70.9998C50.4214 69.9711 51.1505 69.0662 51.6844 68.2849C52.2182 67.4906 52.6023 66.781 52.8367 66.156C53.0841 65.518 53.2078 64.9125 53.2078 64.3396C53.2078 63.4802 53.0646 62.7445 52.7781 62.1326C52.4917 61.5076 52.0685 61.0258 51.5086 60.6873C50.9617 60.3487 50.2846 60.1794 49.4773 60.1794C48.618 60.1794 47.8758 60.3878 47.2508 60.8044C46.6388 61.2211 46.17 61.8005 45.8445 62.5427C45.532 63.2849 45.3758 64.1248 45.3758 65.0623H39.7312C39.7312 63.3695 40.1349 61.8201 40.9422 60.4138C41.7495 58.9945 42.8888 57.8682 44.3602 57.0349C45.8315 56.1886 47.5763 55.7654 49.5945 55.7654C51.5867 55.7654 53.2664 56.0909 54.6336 56.7419C56.0138 57.38 57.0555 58.3044 57.7586 59.5154C58.4747 60.7133 58.8328 62.1456 58.8328 63.8123C58.8328 64.7498 58.6831 65.6677 58.3836 66.5662C58.0841 67.4516 57.6544 68.337 57.0945 69.2224C56.5477 70.0948 55.8836 70.9802 55.1023 71.8787C54.3211 72.7771 53.4552 73.7081 52.5047 74.6716L47.5633 80.2185H59.7508Z" fill="#CD1696"/>
<path d="M33.1008 56.1169H34.1008V55.1169H33.1008V56.1169ZM33.1008 84.613V85.613H34.1008V84.613H33.1008ZM27.4758 84.613H26.4758V85.613H27.4758V84.613ZM27.4758 62.6013H28.4758V61.2341L27.1728 61.6483L27.4758 62.6013ZM20.718 64.7498H19.718V66.117L21.0209 65.7028L20.718 64.7498ZM20.718 60.3162L20.3821 59.3742L19.718 59.611V60.3162H20.718ZM32.4953 56.1169V55.1169H32.3224L32.1595 55.175L32.4953 56.1169ZM33.1008 56.1169H32.1008V84.613H33.1008H34.1008V56.1169H33.1008ZM33.1008 84.613V83.613H27.4758V84.613V85.613H33.1008V84.613ZM27.4758 84.613H28.4758V62.6013H27.4758H26.4758V84.613H27.4758ZM27.4758 62.6013L27.1728 61.6483L20.415 63.7968L20.718 64.7498L21.0209 65.7028L27.7788 63.5543L27.4758 62.6013ZM20.718 64.7498H21.718V60.3162H20.718H19.718V64.7498H20.718ZM20.718 60.3162L21.0538 61.2581L32.8312 57.0589L32.4953 56.1169L32.1595 55.175L20.3821 59.3742L20.718 60.3162ZM32.4953 56.1169V57.1169H33.1008V56.1169V55.1169H32.4953V56.1169ZM59.7508 80.2185H60.7508V79.2185H59.7508V80.2185ZM59.7508 84.613V85.613H60.7508V84.613H59.7508ZM40.2977 84.613H39.2977V85.613H40.2977V84.613ZM40.2977 80.863L39.5664 80.181L39.2977 80.4691V80.863H40.2977ZM49.4969 70.9998L50.2282 71.6818L50.2345 71.6751L50.2406 71.6682L49.4969 70.9998ZM51.6844 68.2849L52.51 68.8491L52.5143 68.8427L51.6844 68.2849ZM52.8367 66.156L51.9043 65.7945L51.9004 65.8049L52.8367 66.156ZM52.7781 62.1326L51.869 62.5492L51.8724 62.5565L52.7781 62.1326ZM51.5086 60.6873L50.9822 61.5376L50.9912 61.543L51.5086 60.6873ZM47.2508 60.8044L46.6961 59.9724L46.688 59.9778L47.2508 60.8044ZM45.8445 62.5427L44.9287 62.1411L44.9258 62.1478L44.9229 62.1547L45.8445 62.5427ZM45.3758 65.0623V66.0623H46.3758V65.0623H45.3758ZM39.7312 65.0623H38.7312V66.0623H39.7312V65.0623ZM40.9422 60.4138L41.8094 60.9117L41.8114 60.9082L40.9422 60.4138ZM44.3602 57.0349L44.853 57.9051L44.8588 57.9017L44.3602 57.0349ZM54.6336 56.7419L54.2036 57.6449L54.214 57.6497L54.6336 56.7419ZM57.7586 59.5154L56.8937 60.0176L56.9003 60.0285L57.7586 59.5154ZM58.3836 66.5662L59.3309 66.8866L59.3323 66.8824L58.3836 66.5662ZM57.0945 69.2224L56.2493 68.6879L56.2472 68.6913L57.0945 69.2224ZM52.5047 74.6716L51.7928 73.9694L51.7749 73.9875L51.758 74.0065L52.5047 74.6716ZM47.5633 80.2185L46.8166 79.5533L45.3332 81.2185H47.5633V80.2185ZM59.7508 80.2185H58.7508V84.613H59.7508H60.7508V80.2185H59.7508ZM59.7508 84.613V83.613H40.2977V84.613V85.613H59.7508V84.613ZM40.2977 84.613H41.2977V80.863H40.2977H39.2977V84.613H40.2977ZM40.2977 80.863L41.0289 81.5451L50.2282 71.6818L49.4969 70.9998L48.7656 70.3177L39.5664 80.181L40.2977 80.863ZM49.4969 70.9998L50.2406 71.6682C51.1825 70.6202 51.9427 69.6793 52.51 68.8491L51.6844 68.2849L50.8587 67.7207C50.3583 68.453 49.6602 69.322 48.7531 70.3313L49.4969 70.9998ZM51.6844 68.2849L52.5143 68.8427C53.0745 68.0092 53.5024 67.2288 53.773 66.5071L52.8367 66.156L51.9004 65.8049C51.7023 66.3332 51.3619 66.972 50.8544 67.7271L51.6844 68.2849ZM52.8367 66.156L53.7691 66.5175C54.0527 65.7861 54.2078 65.0577 54.2078 64.3396H53.2078H52.2078C52.2078 64.7674 52.1155 65.2499 51.9044 65.7945L52.8367 66.156ZM53.2078 64.3396H54.2078C54.2078 63.3722 54.0469 62.4843 53.6838 61.7086L52.7781 62.1326L51.8724 62.5565C52.0823 63.0048 52.2078 63.5882 52.2078 64.3396H53.2078ZM52.7781 62.1326L53.6872 61.7159C53.3216 60.9184 52.7665 60.2793 52.026 59.8315L51.5086 60.6873L50.9912 61.543C51.3705 61.7723 51.6617 62.0968 51.8691 62.5492L52.7781 62.1326ZM51.5086 60.6873L52.0349 59.837C51.2942 59.3784 50.4235 59.1794 49.4773 59.1794V60.1794V61.1794C50.1458 61.1794 50.6292 61.319 50.9822 61.5375L51.5086 60.6873ZM49.4773 60.1794V59.1794C48.4498 59.1794 47.5081 59.431 46.6961 59.9724L47.2508 60.8044L47.8055 61.6365C48.2434 61.3445 48.7861 61.1794 49.4773 61.1794V60.1794ZM47.2508 60.8044L46.688 59.9778C45.9062 60.5101 45.3223 61.2438 44.9287 62.1411L45.8445 62.5427L46.7603 62.9444C47.0178 62.3573 47.3714 61.9321 47.8136 61.631L47.2508 60.8044ZM45.8445 62.5427L44.9229 62.1547C44.5509 63.0382 44.3758 64.0131 44.3758 65.0623H45.3758H46.3758C46.3758 64.2364 46.5132 63.5317 46.7662 62.9308L45.8445 62.5427ZM45.3758 65.0623V64.0623H39.7312V65.0623V66.0623H45.3758V65.0623ZM39.7312 65.0623H40.7312C40.7312 63.5363 41.093 62.1596 41.8094 60.9117L40.9422 60.4138L40.0749 59.916C39.1768 61.4805 38.7312 63.2028 38.7312 65.0623H39.7312ZM40.9422 60.4138L41.8114 60.9082C42.5262 59.6516 43.5328 58.6527 44.853 57.905L44.3602 57.0349L43.8673 56.1648C42.2448 57.0838 40.9728 58.3375 40.073 59.9194L40.9422 60.4138ZM44.3602 57.0349L44.8588 57.9017C46.152 57.1578 47.7181 56.7654 49.5945 56.7654V55.7654V54.7654C47.4345 54.7654 45.511 55.2193 43.8615 56.1681L44.3602 57.0349ZM49.5945 55.7654V56.7654C51.4829 56.7654 53.0062 57.0746 54.2037 57.6448L54.6336 56.7419L55.0635 55.8391C53.5266 55.1072 51.6905 54.7654 49.5945 54.7654V55.7654ZM54.6336 56.7419L54.214 57.6497C55.4245 58.2092 56.3028 58.9997 56.8938 60.0175L57.7586 59.5154L58.6234 59.0132C57.8081 57.6092 56.6031 56.5507 55.0532 55.8342L54.6336 56.7419ZM57.7586 59.5154L56.9003 60.0285C57.5071 61.0436 57.8328 62.291 57.8328 63.8123H58.8328H59.8328C59.8328 62.0002 59.4423 60.383 58.6169 59.0023L57.7586 59.5154ZM58.8328 63.8123H57.8328C57.8328 64.6412 57.7007 65.4524 57.4349 66.2499L58.3836 66.5662L59.3323 66.8824C59.6654 65.883 59.8328 64.8583 59.8328 63.8123H58.8328ZM58.3836 66.5662L57.4363 66.2458C57.1651 67.0476 56.7719 67.8616 56.2493 68.688L57.0945 69.2224L57.9397 69.7569C58.537 68.8123 59.0031 67.8555 59.3309 66.8866L58.3836 66.5662ZM57.0945 69.2224L56.2472 68.6913C55.7318 69.5135 55.1 70.3573 54.3477 71.2225L55.1023 71.8787L55.8569 72.5348C56.6671 71.6031 57.3635 70.6761 57.9418 69.7535L57.0945 69.2224ZM55.1023 71.8787L54.3477 71.2225C53.5819 72.1031 52.7305 73.0188 51.7928 73.9694L52.5047 74.6716L53.2166 75.3739C54.1799 74.3974 55.0602 73.451 55.8569 72.5348L55.1023 71.8787ZM52.5047 74.6716L51.758 74.0065L46.8166 79.5533L47.5633 80.2185L48.31 80.8837L53.2514 75.3368L52.5047 74.6716ZM47.5633 80.2185V81.2185H59.7508V80.2185V79.2185H47.5633V80.2185Z" fill="black" mask="url(#path-7-outside-2_272_469)"/>
</g>
<path d="M13.7056 5.22167C15.1995 5.44972 16.464 6.58097 17.2848 8.2892C18.1046 9.99542 18.4644 12.2494 18.1545 14.6439C17.8446 17.0384 16.9265 19.0973 15.7052 20.4921C14.4825 21.8885 12.9799 22.5975 11.486 22.3696C9.99202 22.1417 8.72675 21.0103 7.90588 19.3019C7.08612 17.5957 6.72622 15.3416 7.03615 12.9473C7.34609 10.5529 8.26424 8.49383 9.48541 7.09906C10.7082 5.70252 12.2116 4.99369 13.7056 5.22167Z" fill="url(#paint3_linear_272_469)" stroke="#B51D83" stroke-width="0.5"/>
<mask id="path-10-outside-3_272_469" maskUnits="userSpaceOnUse" x="8.76465" y="9.13135" width="8" height="8" fill="black">
<rect fill="white" x="8.76465" y="9.13135" width="8" height="8"/>
<path d="M11.6727 10.436L10.7118 16.1313H9.55164L10.2899 11.8774L9.19227 12.272L9.36805 11.2681L11.536 10.4399L11.6727 10.436ZM15.4071 15.1665L15.2548 16.1313H11.9657L12.0985 15.2681L13.8485 13.3696C13.9501 13.2524 14.0529 13.1248 14.1571 12.9868C14.2613 12.8462 14.3524 12.6991 14.4305 12.5454C14.5113 12.3892 14.5621 12.2316 14.5829 12.0728C14.5933 11.9868 14.5985 11.8853 14.5985 11.7681C14.6011 11.6483 14.5803 11.5441 14.536 11.4556C14.4917 11.3644 14.4045 11.3175 14.2743 11.3149C14.1207 11.3071 14.0009 11.3579 13.9149 11.4673C13.8316 11.5767 13.7717 11.7056 13.7352 11.854C13.6988 12.0024 13.6753 12.134 13.6649 12.2485L12.5087 12.2563C12.5269 11.9178 12.618 11.604 12.7821 11.3149C12.9462 11.0233 13.1649 10.7902 13.4384 10.6157C13.7144 10.4386 14.0308 10.3527 14.3876 10.3579C14.7079 10.3631 14.9761 10.4347 15.1923 10.5728C15.411 10.7108 15.5712 10.9009 15.6727 11.1431C15.7769 11.3826 15.8147 11.6587 15.786 11.9712C15.7678 12.203 15.7131 12.4217 15.622 12.6274C15.5308 12.8306 15.4175 13.022 15.2821 13.2017C15.1493 13.3813 15.0048 13.5558 14.8485 13.7251C14.6923 13.8918 14.5399 14.0558 14.3915 14.2173L13.6454 15.1626L15.4071 15.1665Z"/>
</mask>
<path d="M11.6727 10.436L10.7118 16.1313H9.55164L10.2899 11.8774L9.19227 12.272L9.36805 11.2681L11.536 10.4399L11.6727 10.436ZM15.4071 15.1665L15.2548 16.1313H11.9657L12.0985 15.2681L13.8485 13.3696C13.9501 13.2524 14.0529 13.1248 14.1571 12.9868C14.2613 12.8462 14.3524 12.6991 14.4305 12.5454C14.5113 12.3892 14.5621 12.2316 14.5829 12.0728C14.5933 11.9868 14.5985 11.8853 14.5985 11.7681C14.6011 11.6483 14.5803 11.5441 14.536 11.4556C14.4917 11.3644 14.4045 11.3175 14.2743 11.3149C14.1207 11.3071 14.0009 11.3579 13.9149 11.4673C13.8316 11.5767 13.7717 11.7056 13.7352 11.854C13.6988 12.0024 13.6753 12.134 13.6649 12.2485L12.5087 12.2563C12.5269 11.9178 12.618 11.604 12.7821 11.3149C12.9462 11.0233 13.1649 10.7902 13.4384 10.6157C13.7144 10.4386 14.0308 10.3527 14.3876 10.3579C14.7079 10.3631 14.9761 10.4347 15.1923 10.5728C15.411 10.7108 15.5712 10.9009 15.6727 11.1431C15.7769 11.3826 15.8147 11.6587 15.786 11.9712C15.7678 12.203 15.7131 12.4217 15.622 12.6274C15.5308 12.8306 15.4175 13.022 15.2821 13.2017C15.1493 13.3813 15.0048 13.5558 14.8485 13.7251C14.6923 13.8918 14.5399 14.0558 14.3915 14.2173L13.6454 15.1626L15.4071 15.1665Z" fill="#CD1696"/>
<path d="M11.6727 10.436L11.9686 10.4859L12.0293 10.1257L11.6642 10.1362L11.6727 10.436ZM10.7118 16.1313V16.4313H10.9654L11.0076 16.1813L10.7118 16.1313ZM9.55164 16.1313L9.25606 16.08L9.19509 16.4313H9.55164V16.1313ZM10.2899 11.8774L10.5855 11.9287L10.6737 11.4207L10.1885 11.5951L10.2899 11.8774ZM9.19227 12.272L8.89676 12.2202L8.80768 12.729L9.29374 12.5543L9.19227 12.272ZM9.36805 11.2681L9.261 10.9878L9.10192 11.0486L9.07255 11.2163L9.36805 11.2681ZM11.536 10.4399L11.5275 10.1401L11.4765 10.1415L11.429 10.1597L11.536 10.4399ZM11.6727 10.436L11.3769 10.3861L10.416 16.0814L10.7118 16.1313L11.0076 16.1813L11.9686 10.4859L11.6727 10.436ZM10.7118 16.1313V15.8313H9.55164V16.1313V16.4313H10.7118V16.1313ZM9.55164 16.1313L9.84722 16.1826L10.5855 11.9287L10.2899 11.8774L9.99434 11.8261L9.25606 16.08L9.55164 16.1313ZM10.2899 11.8774L10.1885 11.5951L9.0908 11.9897L9.19227 12.272L9.29374 12.5543L10.3914 12.1598L10.2899 11.8774ZM9.19227 12.272L9.48777 12.3237L9.66355 11.3198L9.36805 11.2681L9.07255 11.2163L8.89676 12.2202L9.19227 12.272ZM9.36805 11.2681L9.4751 11.5483L11.6431 10.7202L11.536 10.4399L11.429 10.1597L9.261 10.9878L9.36805 11.2681ZM11.536 10.4399L11.5446 10.7398L11.6813 10.7359L11.6727 10.436L11.6642 10.1362L11.5275 10.1401L11.536 10.4399ZM15.4071 15.1665L15.7034 15.2133L15.7581 14.8673L15.4078 14.8665L15.4071 15.1665ZM15.2548 16.1313V16.4313H15.5111L15.5511 16.1781L15.2548 16.1313ZM11.9657 16.1313L11.6692 16.0857L11.616 16.4313H11.9657V16.1313ZM12.0985 15.2681L11.8779 15.0647L11.8159 15.132L11.802 15.2224L12.0985 15.2681ZM13.8485 13.3696L14.0692 13.5731L14.0752 13.5661L13.8485 13.3696ZM14.1571 12.9868L14.3966 13.1675L14.3982 13.1654L14.1571 12.9868ZM14.4305 12.5454L14.164 12.4077L14.1631 12.4094L14.4305 12.5454ZM14.5829 12.0728L14.8804 12.1118L14.8807 12.1089L14.5829 12.0728ZM14.5985 11.7681L14.2985 11.7615V11.7681H14.5985ZM14.536 11.4556L14.2661 11.5866L14.2677 11.5897L14.536 11.4556ZM14.2743 11.3149L14.2591 11.6147L14.2683 11.6149L14.2743 11.3149ZM13.9149 11.4673L13.679 11.2819L13.6763 11.2855L13.9149 11.4673ZM13.6649 12.2485L13.667 12.5485L13.9391 12.5467L13.9637 12.2757L13.6649 12.2485ZM12.5087 12.2563L12.2091 12.2402L12.192 12.5585L12.5107 12.5563L12.5087 12.2563ZM12.7821 11.3149L13.043 11.463L13.0436 11.462L12.7821 11.3149ZM13.4384 10.6157L13.5997 10.8686L13.6003 10.8682L13.4384 10.6157ZM14.3876 10.3579L14.3925 10.0579L14.392 10.0579L14.3876 10.3579ZM15.1923 10.5728L15.0308 10.8256L15.0322 10.8265L15.1923 10.5728ZM15.6727 11.1431L15.3961 11.2591L15.3976 11.2627L15.6727 11.1431ZM15.786 11.9712L15.4872 11.9438L15.4869 11.9477L15.786 11.9712ZM15.622 12.6274L15.8957 12.7503L15.8962 12.749L15.622 12.6274ZM15.2821 13.2017L15.0425 13.0211L15.0409 13.0233L15.2821 13.2017ZM14.8485 13.7251L15.0674 13.9303L15.069 13.9286L14.8485 13.7251ZM14.3915 14.2173L14.1706 14.0142L14.163 14.0226L14.156 14.0314L14.3915 14.2173ZM13.6454 15.1626L13.4099 14.9767L13.0275 15.4612L13.6447 15.4626L13.6454 15.1626ZM15.4071 15.1665L15.1108 15.1197L14.9584 16.0846L15.2548 16.1313L15.5511 16.1781L15.7034 15.2133L15.4071 15.1665ZM15.2548 16.1313V15.8313H11.9657V16.1313V16.4313H15.2548V16.1313ZM11.9657 16.1313L12.2622 16.177L12.395 15.3137L12.0985 15.2681L11.802 15.2224L11.6692 16.0857L11.9657 16.1313ZM12.0985 15.2681L12.3191 15.4714L14.0691 13.573L13.8485 13.3696L13.6279 13.1663L11.8779 15.0647L12.0985 15.2681ZM13.8485 13.3696L14.0752 13.5661C14.1817 13.4433 14.2888 13.3104 14.3966 13.1675L14.1571 12.9868L13.9177 12.8061C13.8171 12.9393 13.7185 13.0616 13.6218 13.1732L13.8485 13.3696ZM14.1571 12.9868L14.3982 13.1654C14.5121 13.0115 14.6121 12.8502 14.698 12.6814L14.4305 12.5454L14.1631 12.4094C14.0927 12.5479 14.0104 12.6809 13.916 12.8082L14.1571 12.9868ZM14.4305 12.5454L14.6971 12.6831C14.7922 12.499 14.8546 12.3083 14.8803 12.1118L14.5829 12.0728L14.2854 12.0337C14.2695 12.155 14.2304 12.2793 14.164 12.4077L14.4305 12.5454ZM14.5829 12.0728L14.8807 12.1089C14.893 12.0076 14.8985 11.8934 14.8985 11.7681H14.5985H14.2985C14.2985 11.8771 14.2936 11.966 14.2851 12.0367L14.5829 12.0728ZM14.5985 11.7681L14.8984 11.7746C14.9019 11.6162 14.8746 11.4618 14.8043 11.3214L14.536 11.4556L14.2677 11.5897C14.286 11.6264 14.3004 11.6804 14.2986 11.7615L14.5985 11.7681ZM14.536 11.4556L14.8059 11.3245C14.6977 11.1018 14.4852 11.0191 14.2803 11.015L14.2743 11.3149L14.2683 11.6149C14.3003 11.6155 14.3047 11.6213 14.2954 11.6163C14.2904 11.6136 14.2838 11.6091 14.2776 11.6025C14.2713 11.5959 14.2678 11.59 14.2662 11.5866L14.536 11.4556ZM14.2743 11.3149L14.2895 11.0153C14.0506 11.0032 13.8322 11.087 13.679 11.2819L13.9149 11.4673L14.1508 11.6526C14.1695 11.6289 14.1907 11.6111 14.2591 11.6146L14.2743 11.3149ZM13.9149 11.4673L13.6763 11.2855C13.5654 11.4311 13.4891 11.5985 13.4439 11.7824L13.7352 11.854L14.0266 11.9256C14.0543 11.8126 14.0978 11.7222 14.1536 11.6491L13.9149 11.4673ZM13.7352 11.854L13.4439 11.7824C13.4049 11.9411 13.3783 12.0879 13.3662 12.2214L13.6649 12.2485L13.9637 12.2757C13.9724 12.18 13.9926 12.0638 14.0266 11.9256L13.7352 11.854ZM13.6649 12.2485L13.6629 11.9485L12.5066 11.9564L12.5087 12.2563L12.5107 12.5563L13.667 12.5485L13.6649 12.2485ZM12.5087 12.2563L12.8082 12.2725C12.824 11.9794 12.9024 11.7109 13.043 11.463L12.7821 11.3149L12.5212 11.1669C12.3337 11.4971 12.2298 11.8563 12.2091 12.2402L12.5087 12.2563ZM12.7821 11.3149L13.0436 11.462C13.1843 11.2119 13.3692 11.0157 13.5997 10.8686L13.4384 10.6157L13.277 10.3628C12.9607 10.5647 12.7081 10.8346 12.5206 11.1679L12.7821 11.3149ZM13.4384 10.6157L13.6003 10.8682C13.8224 10.7258 14.0799 10.6535 14.3832 10.6579L14.3876 10.3579L14.392 10.0579C13.9817 10.052 13.6064 10.1515 13.2764 10.3632L13.4384 10.6157ZM14.3876 10.3579L14.3827 10.6579C14.6612 10.6624 14.8719 10.7241 15.0308 10.8256L15.1923 10.5728L15.3537 10.3199C15.0804 10.1454 14.7546 10.0638 14.3925 10.058L14.3876 10.3579ZM15.1923 10.5728L15.0322 10.8265C15.198 10.9311 15.3179 11.0727 15.3961 11.2591L15.6727 11.1431L15.9494 11.027C15.8244 10.729 15.624 10.4904 15.3524 10.319L15.1923 10.5728ZM15.6727 11.1431L15.3976 11.2627C15.478 11.4476 15.5122 11.6714 15.4873 11.9438L15.786 11.9712L16.0848 11.9986C16.1171 11.6459 16.0758 11.3177 15.9479 11.0234L15.6727 11.1431ZM15.786 11.9712L15.4869 11.9477C15.4713 12.1467 15.4246 12.3322 15.3477 12.5059L15.622 12.6274L15.8962 12.749C16.0016 12.5112 16.0643 12.2592 16.0851 11.9947L15.786 11.9712ZM15.622 12.6274L15.3482 12.5046C15.2664 12.6871 15.1646 12.8591 15.0425 13.0211L15.2821 13.2017L15.5217 13.3822C15.6705 13.1848 15.7952 12.9741 15.8957 12.7503L15.622 12.6274ZM15.2821 13.2017L15.0409 13.0233C14.9147 13.194 14.7772 13.3601 14.6281 13.5216L14.8485 13.7251L15.069 13.9286C15.2324 13.7516 15.3839 13.5687 15.5234 13.38L15.2821 13.2017ZM14.8485 13.7251L14.6297 13.5199C14.4728 13.6873 14.3198 13.852 14.1706 14.0142L14.3915 14.2173L14.6123 14.4203C14.7601 14.2596 14.9118 14.0963 15.0674 13.9303L14.8485 13.7251ZM14.3915 14.2173L14.156 14.0314L13.4099 14.9767L13.6454 15.1626L13.8809 15.3485L14.627 14.4031L14.3915 14.2173ZM13.6454 15.1626L13.6447 15.4626L15.4064 15.4665L15.4071 15.1665L15.4078 14.8665L13.6461 14.8626L13.6454 15.1626Z" fill="#600C57" mask="url(#path-10-outside-3_272_469)"/>
<rect x="42.8235" y="1.02197" width="2.0438" height="1.88235" transform="rotate(90 42.8235 1.02197)" fill="#CD1696"/>
<rect x="40" y="1.02197" width="2.0438" height="1.88235" transform="rotate(90 40 1.02197)" fill="#CD1696"/>
<rect x="35.2942" y="1.02197" width="2.0438" height="1.88235" transform="rotate(90 35.2942 1.02197)" fill="#CD1696"/>
<rect x="32.4707" y="1.02197" width="2.0438" height="1.88235" transform="rotate(90 32.4707 1.02197)" fill="#CD1696"/>
<rect x="24" y="1.02197" width="2.0438" height="1.88235" transform="rotate(90 24 1.02197)" fill="#CD1696"/>
<rect x="29.647" y="1.02197" width="2.0438" height="1.88235" transform="rotate(90 29.647 1.02197)" fill="#CD1696"/>
<rect x="26.8235" y="1.02197" width="2.0438" height="1.88235" transform="rotate(90 26.8235 1.02197)" fill="#CD1696"/>
<rect x="47.5293" y="1.02197" width="2.0438" height="1.88235" transform="rotate(90 47.5293 1.02197)" fill="#CD1696"/>
<rect x="50.353" y="1.02197" width="2.0438" height="1.88235" transform="rotate(90 50.353 1.02197)" fill="#CD1696"/>
<rect x="53.1765" y="1.02197" width="2.0438" height="1.88235" transform="rotate(90 53.1765 1.02197)" fill="#CD1696"/>
<rect x="56" y="1.02197" width="2.0438" height="1.88235" transform="rotate(90 56 1.02197)" fill="#CD1696"/>
<rect x="58.8235" y="1.02197" width="2.0438" height="1.88235" transform="rotate(90 58.8235 1.02197)" fill="#CD1696"/>
<rect x="42.8235" y="136.934" width="2.0438" height="1.88235" transform="rotate(90 42.8235 136.934)" fill="#CD1696"/>
<rect x="40" y="136.934" width="2.0438" height="1.88235" transform="rotate(90 40 136.934)" fill="#CD1696"/>
<rect x="35.2942" y="136.934" width="2.0438" height="1.88235" transform="rotate(90 35.2942 136.934)" fill="#CD1696"/>
<rect x="32.4707" y="136.934" width="2.0438" height="1.88235" transform="rotate(90 32.4707 136.934)" fill="#CD1696"/>
<rect x="24" y="136.934" width="2.0438" height="1.88235" transform="rotate(90 24 136.934)" fill="#CD1696"/>
<rect x="29.647" y="136.934" width="2.0438" height="1.88235" transform="rotate(90 29.647 136.934)" fill="#CD1696"/>
<rect x="26.8235" y="136.934" width="2.0438" height="1.88235" transform="rotate(90 26.8235 136.934)" fill="#CD1696"/>
<rect x="47.5293" y="136.934" width="2.0438" height="1.88235" transform="rotate(90 47.5293 136.934)" fill="#CD1696"/>
<rect x="50.353" y="136.934" width="2.0438" height="1.88235" transform="rotate(90 50.353 136.934)" fill="#CD1696"/>
<rect x="53.1765" y="136.934" width="2.0438" height="1.88235" transform="rotate(90 53.1765 136.934)" fill="#CD1696"/>
<rect x="56" y="136.934" width="2.0438" height="1.88235" transform="rotate(90 56 136.934)" fill="#CD1696"/>
<rect x="58.8235" y="136.934" width="2.0438" height="1.88235" transform="rotate(90 58.8235 136.934)" fill="#CD1696"/>
<rect x="79.0588" y="72.0437" width="2.82353" height="2.0438" transform="rotate(180 79.0588 72.0437)" fill="#CD1696"/>
<rect x="79.0588" y="68.978" width="2.82353" height="2.0438" transform="rotate(180 79.0588 68.978)" fill="#CD1696"/>
<rect x="79.0588" y="63.8687" width="2.82353" height="2.0438" transform="rotate(180 79.0588 63.8687)" fill="#CD1696"/>
<rect x="79.0588" y="60.803" width="2.82353" height="2.0438" transform="rotate(180 79.0588 60.803)" fill="#CD1696"/>
<rect x="79.0588" y="51.606" width="2.82353" height="2.0438" transform="rotate(180 79.0588 51.606)" fill="#CD1696"/>
<rect x="79.0588" y="57.7373" width="2.82353" height="2.0438" transform="rotate(180 79.0588 57.7373)" fill="#CD1696"/>
<rect x="79.0588" y="54.6716" width="2.82353" height="2.0438" transform="rotate(180 79.0588 54.6716)" fill="#CD1696"/>
<rect x="79.0588" y="77.1533" width="2.82353" height="2.0438" transform="rotate(180 79.0588 77.1533)" fill="#CD1696"/>
<rect x="79.0588" y="80.219" width="2.82353" height="2.0438" transform="rotate(180 79.0588 80.219)" fill="#CD1696"/>
<rect x="79.0588" y="83.2847" width="2.82353" height="2.0438" transform="rotate(180 79.0588 83.2847)" fill="#CD1696"/>
<rect x="79.0588" y="86.3503" width="2.82353" height="2.0438" transform="rotate(180 79.0588 86.3503)" fill="#CD1696"/>
<rect x="79.0588" y="89.416" width="2.82353" height="2.0438" transform="rotate(180 79.0588 89.416)" fill="#CD1696"/>
<rect x="3.76465" y="72.0437" width="2.82353" height="2.0438" transform="rotate(180 3.76465 72.0437)" fill="#CD1696"/>
<rect x="3.76465" y="68.978" width="2.82353" height="2.0438" transform="rotate(180 3.76465 68.978)" fill="#CD1696"/>
<rect x="3.76465" y="63.8687" width="2.82353" height="2.0438" transform="rotate(180 3.76465 63.8687)" fill="#CD1696"/>
<rect x="3.76465" y="60.803" width="2.82353" height="2.0438" transform="rotate(180 3.76465 60.803)" fill="#CD1696"/>
<rect x="3.76465" y="51.606" width="2.82353" height="2.0438" transform="rotate(180 3.76465 51.606)" fill="#CD1696"/>
<rect x="3.76465" y="57.7373" width="2.82353" height="2.0438" transform="rotate(180 3.76465 57.7373)" fill="#CD1696"/>
<rect x="3.76465" y="54.6716" width="2.82353" height="2.0438" transform="rotate(180 3.76465 54.6716)" fill="#CD1696"/>
<rect x="3.76465" y="77.1533" width="2.82353" height="2.0438" transform="rotate(180 3.76465 77.1533)" fill="#CD1696"/>
<rect x="3.76465" y="80.219" width="2.82353" height="2.0438" transform="rotate(180 3.76465 80.219)" fill="#CD1696"/>
<rect x="3.76465" y="83.2847" width="2.82353" height="2.0438" transform="rotate(180 3.76465 83.2847)" fill="#CD1696"/>
<rect x="3.76465" y="86.3503" width="2.82353" height="2.0438" transform="rotate(180 3.76465 86.3503)" fill="#CD1696"/>
<rect x="3.76465" y="89.416" width="2.82353" height="2.0438" transform="rotate(180 3.76465 89.416)" fill="#CD1696"/>
<defs>
<filter id="filter0_d_272_469" x="8.67651" y="25.0474" width="61.7058" height="101.993" filterUnits="userSpaceOnUse" color-interpolation-filters="sRGB">
<feFlood flood-opacity="0" result="BackgroundImageFix"/>
<feColorMatrix in="SourceAlpha" type="matrix" values="0 0 0 0 0 0 0 0 0 0 0 0 0 0 0 0 0 0 127 0" result="hardAlpha"/>
<feOffset dy="4"/>
<feGaussianBlur stdDeviation="2"/>
<feComposite in2="hardAlpha" operator="out"/>
<feColorMatrix type="matrix" values="0 0 0 0 0 0 0 0 0 0 0 0 0 0 0 0 0 0 0.25 0"/>
<feBlend mode="normal" in2="BackgroundImageFix" result="effect1_dropShadow_272_469"/>
<feBlend mode="normal" in="SourceGraphic" in2="effect1_dropShadow_272_469" result="shape"/>
</filter>
<filter id="filter1_d_272_469" x="15.718" y="54.7654" width="49.0327" height="38.8477" filterUnits="userSpaceOnUse" color-interpolation-filters="sRGB">
<feFlood flood-opacity="0" result="BackgroundImageFix"/>
<feColorMatrix in="SourceAlpha" type="matrix" values="0 0 0 0 0 0 0 0 0 0 0 0 0 0 0 0 0 0 127 0" result="hardAlpha"/>
<feOffset dy="4"/>
<feGaussianBlur stdDeviation="2"/>
<feComposite in2="hardAlpha" operator="out"/>
<feColorMatrix type="matrix" values="0 0 0 0 0 0 0 0 0 0 0 0 0 0 0 0 0 0 0.25 0"/>
<feBlend mode="normal" in2="BackgroundImageFix" result="effect1_dropShadow_272_469"/>
<feBlend mode="normal" in="SourceGraphic" in2="effect1_dropShadow_272_469" result="shape"/>
</filter>
<linearGradient id="paint0_linear_272_469" x1="40.4705" y1="3.06567" x2="40.4705" y2="136.934" gradientUnits="userSpaceOnUse">
<stop stop-color="#CD1696" stop-opacity="0.95"/>
<stop offset="0.915969" stop-color="#850D61"/>
</linearGradient>
<linearGradient id="paint1_linear_272_469" x1="66.4433" y1="115.339" x2="63.7602" y2="132.922" gradientUnits="userSpaceOnUse">
<stop stop-color="#FFE9FA"/>
<stop offset="1" stop-color="#FF71DC"/>
</linearGradient>
<linearGradient id="paint2_linear_272_469" x1="52.7059" y1="33.2116" x2="17.7176" y2="104.106" gradientUnits="userSpaceOnUse">
<stop stop-color="#FF60D7" stop-opacity="0.95"/>
<stop offset="1" stop-color="#BA459D"/>
</linearGradient>
<linearGradient id="paint3_linear_272_469" x1="13.7375" y1="4.97369" x2="11.0544" y2="22.5567" gradientUnits="userSpaceOnUse">
<stop stop-color="#FFE9FA" stop-opacity="0.9"/>
<stop offset="1" stop-color="#FF71DC"/>
</linearGradient>
</defs>
</svg>
