<svg width="85" height="137" viewBox="0 0 85 137" fill="none" xmlns="http://www.w3.org/2000/svg">
<rect x="0.5" y="0.5" width="84" height="136" rx="9.5" fill="white" stroke="black"/>
<rect x="4.5" y="3.5" width="76" height="130" rx="9.5" fill="url(#paint0_linear_275_1194)" stroke="black"/>
<path d="M70.5618 113.115C72.1646 113.34 73.5109 114.456 74.3812 116.125C75.2513 117.793 75.6332 119.994 75.3046 122.332C74.976 124.67 74.002 126.682 72.7058 128.046C71.4094 129.409 69.8075 130.111 68.2048 129.885C66.602 129.66 65.2547 128.544 64.3843 126.876C63.5142 125.208 63.1324 123.006 63.461 120.668C63.7896 118.33 64.7636 116.319 66.0597 114.955C67.3563 113.591 68.9588 112.889 70.5618 113.115Z" fill="url(#paint1_linear_275_1194)" stroke="#336B3F" stroke-width="0.5"/>
<mask id="path-4-outside-1_275_1194" maskUnits="userSpaceOnUse" x="66.929" y="117.5" width="5" height="7" fill="black">
<rect fill="white" x="66.929" y="117.5" width="5" height="7"/>
<path d="M68.0387 120.684L68.2067 119.719H71.5738L71.4996 120.535L69.0582 124.188H68.0856L69.3629 122.383L70.3434 120.688L68.0387 120.684ZM67.8707 124.188L68.8551 118.5H70.0192L69.0309 124.188H67.8707Z"/>
</mask>
<path d="M68.0387 120.684L68.2067 119.719H71.5738L71.4996 120.535L69.0582 124.188H68.0856L69.3629 122.383L70.3434 120.688L68.0387 120.684ZM67.8707 124.188L68.8551 118.5H70.0192L69.0309 124.188H67.8707Z" fill="url(#paint2_linear_275_1194)"/>
<path d="M68.0387 120.684L67.7431 120.632L67.6821 120.983L68.0382 120.984L68.0387 120.684ZM68.2067 119.719V119.419H67.9544L67.9111 119.667L68.2067 119.719ZM71.5738 119.719L71.8726 119.746L71.9024 119.419H71.5738V119.719ZM71.4996 120.535L71.749 120.702L71.7915 120.638L71.7984 120.562L71.4996 120.535ZM69.0582 124.188V124.488H69.2185L69.3076 124.354L69.0582 124.188ZM68.0856 124.188L67.8407 124.014L67.5057 124.488H68.0856V124.188ZM69.3629 122.383L69.6078 122.556L69.6157 122.545L69.6226 122.533L69.3629 122.383ZM70.3434 120.688L70.6031 120.838L70.8629 120.388L70.3439 120.388L70.3434 120.688ZM67.8707 124.188L67.5751 124.136L67.5143 124.488H67.8707V124.188ZM68.8551 118.5V118.2H68.6026L68.5595 118.449L68.8551 118.5ZM70.0192 118.5L70.3147 118.551L70.3758 118.2H70.0192V118.5ZM69.0309 124.188V124.488H69.2832L69.3264 124.239L69.0309 124.188ZM68.0387 120.684L68.3342 120.735L68.5022 119.77L68.2067 119.719L67.9111 119.667L67.7431 120.632L68.0387 120.684ZM68.2067 119.719V120.019H71.5738V119.719V119.419H68.2067V119.719ZM71.5738 119.719L71.2751 119.692L71.2009 120.508L71.4996 120.535L71.7984 120.562L71.8726 119.746L71.5738 119.719ZM71.4996 120.535L71.2502 120.368L68.8088 124.021L69.0582 124.188L69.3076 124.354L71.749 120.702L71.4996 120.535ZM69.0582 124.188V123.887H68.0856V124.188V124.488H69.0582V124.188ZM68.0856 124.188L68.3304 124.361L69.6078 122.556L69.3629 122.383L69.118 122.209L67.8407 124.014L68.0856 124.188ZM69.3629 122.383L69.6226 122.533L70.6031 120.838L70.3434 120.688L70.0837 120.537L69.1032 122.233L69.3629 122.383ZM70.3434 120.688L70.3439 120.388L68.0392 120.384L68.0387 120.684L68.0382 120.984L70.3429 120.987L70.3434 120.688ZM67.8707 124.188L68.1663 124.239L69.1507 118.551L68.8551 118.5L68.5595 118.449L67.5751 124.136L67.8707 124.188ZM68.8551 118.5V118.8H70.0192V118.5V118.2H68.8551V118.5ZM70.0192 118.5L69.7236 118.449L68.7353 124.136L69.0309 124.188L69.3264 124.239L70.3147 118.551L70.0192 118.5ZM69.0309 124.188V123.887H67.8707V124.188V124.488H69.0309V124.188Z" fill="#318643" mask="url(#path-4-outside-1_275_1194)"/>
<g filter="url(#filter0_d_275_1194)">
<path d="M71 70.5C71 95.629 58.464 116 43 116C27.536 116 15 95.629 15 70.5C15 45.371 27.536 25 43 25C58.464 25 71 45.371 71 70.5Z" fill="url(#paint3_linear_275_1194)"/>
<path d="M71 70.5C71 95.629 58.464 116 43 116C27.536 116 15 95.629 15 70.5C15 45.371 27.536 25 43 25C58.464 25 71 45.371 71 70.5Z" stroke="#4C7455"/>
</g>
<g filter="url(#filter1_d_275_1194)">
<mask id="path-7-outside-2_275_1194" maskUnits="userSpaceOnUse" x="31" y="53" width="23" height="31" fill="black">
<rect fill="white" x="31" y="53" width="23" height="31"/>
<path d="M52.8906 72.375V76.7891H32.4023L32.1289 73.3711L43.9844 54.5625H48.457L43.6133 62.668L37.7148 72.375H52.8906ZM49.668 54.5625V83H44.043V54.5625H49.668Z"/>
</mask>
<path d="M52.8906 72.375V76.7891H32.4023L32.1289 73.3711L43.9844 54.5625H48.457L43.6133 62.668L37.7148 72.375H52.8906ZM49.668 54.5625V83H44.043V54.5625H49.668Z" fill="#0CBA32"/>
<path d="M52.8906 72.375H53.8906V71.375H52.8906V72.375ZM52.8906 76.7891V77.7891H53.8906V76.7891H52.8906ZM32.4023 76.7891L31.4055 76.8688L31.4791 77.7891H32.4023V76.7891ZM32.1289 73.3711L31.2829 72.8379L31.1056 73.1193L31.1321 73.4508L32.1289 73.3711ZM43.9844 54.5625V53.5625H43.4326L43.1384 54.0293L43.9844 54.5625ZM48.457 54.5625L49.3154 55.0755L50.2196 53.5625H48.457V54.5625ZM43.6133 62.668L44.4679 63.1873L44.4717 63.1809L43.6133 62.668ZM37.7148 72.375L36.8602 71.8557L35.9371 73.375H37.7148V72.375ZM49.668 54.5625H50.668V53.5625H49.668V54.5625ZM49.668 83V84H50.668V83H49.668ZM44.043 83H43.043V84H44.043V83ZM44.043 54.5625V53.5625H43.043V54.5625H44.043ZM52.8906 72.375H51.8906V76.7891H52.8906H53.8906V72.375H52.8906ZM52.8906 76.7891V75.7891H32.4023V76.7891V77.7891H52.8906V76.7891ZM32.4023 76.7891L33.3992 76.7093L33.1257 73.2913L32.1289 73.3711L31.1321 73.4508L31.4055 76.8688L32.4023 76.7891ZM32.1289 73.3711L32.9749 73.9043L44.8303 55.0957L43.9844 54.5625L43.1384 54.0293L31.2829 72.8379L32.1289 73.3711ZM43.9844 54.5625V55.5625H48.457V54.5625V53.5625H43.9844V54.5625ZM48.457 54.5625L47.5986 54.0495L42.7549 62.155L43.6133 62.668L44.4717 63.1809L49.3154 55.0755L48.457 54.5625ZM43.6133 62.668L42.7587 62.1487L36.8602 71.8557L37.7148 72.375L38.5694 72.8943L44.4679 63.1873L43.6133 62.668ZM37.7148 72.375V73.375H52.8906V72.375V71.375H37.7148V72.375ZM49.668 54.5625H48.668V83H49.668H50.668V54.5625H49.668ZM49.668 83V82H44.043V83V84H49.668V83ZM44.043 83H45.043V54.5625H44.043H43.043V83H44.043ZM44.043 54.5625V55.5625H49.668V54.5625V53.5625H44.043V54.5625Z" fill="black" mask="url(#path-7-outside-2_275_1194)"/>
</g>
<path d="M14.5616 5.11468C16.1644 5.34009 17.5106 6.45647 18.381 8.12475C19.2511 9.79263 19.633 11.9941 19.3044 14.3322C18.9758 16.6705 18.0018 18.6822 16.7056 20.0457C15.4092 21.4091 13.8073 22.1105 12.2046 21.8854C10.6017 21.6601 9.25448 20.5443 8.38406 18.8762C7.51391 17.2083 7.13218 15.006 7.4608 12.6677C7.7894 10.3296 8.76336 8.31867 10.0594 6.95524C11.356 5.59138 12.9586 4.88939 14.5616 5.11468Z" fill="url(#paint4_linear_275_1194)" stroke="#336B3F" stroke-width="0.5"/>
<mask id="path-10-outside-3_275_1194" maskUnits="userSpaceOnUse" x="10" y="10" width="6" height="7" fill="black">
<rect fill="white" x="10" y="10" width="6" height="7"/>
<path d="M14.6758 13.8164L14.5078 14.7812H11.1406L11.2148 13.9648L13.6562 10.3125H14.6289L13.3516 12.1172L12.3711 13.8125L14.6758 13.8164ZM14.8438 10.3125L13.8594 16H12.6953L13.6836 10.3125H14.8438Z"/>
</mask>
<path d="M14.6758 13.8164L14.5078 14.7812H11.1406L11.2148 13.9648L13.6562 10.3125H14.6289L13.3516 12.1172L12.3711 13.8125L14.6758 13.8164ZM14.8438 10.3125L13.8594 16H12.6953L13.6836 10.3125H14.8438Z" fill="url(#paint5_linear_275_1194)"/>
<path d="M14.6758 13.8164L14.9713 13.8679L15.0324 13.517L14.6763 13.5164L14.6758 13.8164ZM14.5078 14.7812V15.0813H14.7601L14.8034 14.8327L14.5078 14.7812ZM11.1406 14.7812L10.8419 14.7541L10.8121 15.0813H11.1406V14.7812ZM11.2148 13.9648L10.9654 13.7981L10.923 13.8616L10.9161 13.9377L11.2148 13.9648ZM13.6562 10.3125V10.0125H13.4959L13.4068 10.1458L13.6562 10.3125ZM14.6289 10.3125L14.8738 10.4858L15.2088 10.0125H14.6289V10.3125ZM13.3516 12.1172L13.1067 11.9439L13.0987 11.9551L13.0919 11.967L13.3516 12.1172ZM12.3711 13.8125L12.1114 13.6623L11.8515 14.1116L12.3706 14.1125L12.3711 13.8125ZM14.8438 10.3125L15.1394 10.3637L15.2001 10.0125H14.8438V10.3125ZM13.8594 16V16.3H14.1119L14.155 16.0512L13.8594 16ZM12.6953 16L12.3997 15.9486L12.3387 16.3H12.6953V16ZM13.6836 10.3125V10.0125H13.4312L13.388 10.2611L13.6836 10.3125ZM14.6758 13.8164L14.3802 13.765L14.2123 14.7298L14.5078 14.7812L14.8034 14.8327L14.9713 13.8679L14.6758 13.8164ZM14.5078 14.7812V14.4812H11.1406V14.7812V15.0813H14.5078V14.7812ZM11.1406 14.7812L11.4394 14.8084L11.5136 13.992L11.2148 13.9648L10.9161 13.9377L10.8419 14.7541L11.1406 14.7812ZM11.2148 13.9648L11.4643 14.1316L13.9057 10.4792L13.6562 10.3125L13.4068 10.1458L10.9654 13.7981L11.2148 13.9648ZM13.6562 10.3125V10.6125H14.6289V10.3125V10.0125H13.6562V10.3125ZM14.6289 10.3125L14.384 10.1392L13.1067 11.9439L13.3516 12.1172L13.5964 12.2905L14.8738 10.4858L14.6289 10.3125ZM13.3516 12.1172L13.0919 11.967L12.1114 13.6623L12.3711 13.8125L12.6308 13.9627L13.6113 12.2674L13.3516 12.1172ZM12.3711 13.8125L12.3706 14.1125L14.6753 14.1164L14.6758 13.8164L14.6763 13.5164L12.3716 13.5125L12.3711 13.8125ZM14.8438 10.3125L14.5481 10.2613L13.5638 15.9488L13.8594 16L14.155 16.0512L15.1394 10.3637L14.8438 10.3125ZM13.8594 16V15.7H12.6953V16V16.3H13.8594V16ZM12.6953 16L12.9909 16.0514L13.9792 10.3639L13.6836 10.3125L13.388 10.2611L12.3997 15.9486L12.6953 16ZM13.6836 10.3125V10.6125H14.8438V10.3125V10.0125H13.6836V10.3125Z" fill="#318643" mask="url(#path-10-outside-3_275_1194)"/>
<rect x="1" y="71.5" width="3" height="2" fill="#0CBA32"/>
<rect x="1" y="68.5" width="3" height="2" fill="#0CBA32"/>
<rect x="1" y="62.5" width="3" height="2" fill="#0CBA32"/>
<rect x="1" y="65.5" width="3" height="2" fill="#0CBA32"/>
<rect x="81" y="71.5" width="3" height="2" fill="#0CBA32"/>
<rect x="81" y="68.5" width="3" height="2" fill="#0CBA32"/>
<rect x="81" y="62.5" width="3" height="2" fill="#0CBA32"/>
<rect x="81" y="65.5" width="3" height="2" fill="#0CBA32"/>
<rect x="39.5" y="134" width="2" height="2" transform="rotate(90 39.5 134)" fill="#0CBA32"/>
<rect x="42.5" y="134" width="2" height="2" transform="rotate(90 42.5 134)" fill="#0CBA32"/>
<rect x="48.5" y="134" width="2" height="2" transform="rotate(90 48.5 134)" fill="#0CBA32"/>
<rect x="45.5" y="134" width="2" height="2" transform="rotate(90 45.5 134)" fill="#0CBA32"/>
<rect x="39.5" y="1" width="2" height="2" transform="rotate(90 39.5 1)" fill="#0CBA32"/>
<rect x="42.5" y="1" width="2" height="2" transform="rotate(90 42.5 1)" fill="#0CBA32"/>
<rect x="48.5" y="1" width="2" height="2" transform="rotate(90 48.5 1)" fill="#0CBA32"/>
<rect x="45.5" y="1" width="2" height="2" transform="rotate(90 45.5 1)" fill="#0CBA32"/>
<defs>
<filter id="filter0_d_275_1194" x="10.5" y="24.5" width="65" height="100" filterUnits="userSpaceOnUse" color-interpolation-filters="sRGB">
<feFlood flood-opacity="0" result="BackgroundImageFix"/>
<feColorMatrix in="SourceAlpha" type="matrix" values="0 0 0 0 0 0 0 0 0 0 0 0 0 0 0 0 0 0 127 0" result="hardAlpha"/>
<feOffset dy="4"/>
<feGaussianBlur stdDeviation="2"/>
<feComposite in2="hardAlpha" operator="out"/>
<feColorMatrix type="matrix" values="0 0 0 0 0 0 0 0 0 0 0 0 0 0 0 0 0 0 0.25 0"/>
<feBlend mode="normal" in2="BackgroundImageFix" result="effect1_dropShadow_275_1194"/>
<feBlend mode="normal" in="SourceGraphic" in2="effect1_dropShadow_275_1194" result="shape"/>
</filter>
<filter id="filter1_d_275_1194" x="27.1056" y="53.5625" width="30.785" height="38.4375" filterUnits="userSpaceOnUse" color-interpolation-filters="sRGB">
<feFlood flood-opacity="0" result="BackgroundImageFix"/>
<feColorMatrix in="SourceAlpha" type="matrix" values="0 0 0 0 0 0 0 0 0 0 0 0 0 0 0 0 0 0 127 0" result="hardAlpha"/>
<feOffset dy="4"/>
<feGaussianBlur stdDeviation="2"/>
<feComposite in2="hardAlpha" operator="out"/>
<feColorMatrix type="matrix" values="0 0 0 0 0 0 0 0 0 0 0 0 0 0 0 0 0 0 0.25 0"/>
<feBlend mode="normal" in2="BackgroundImageFix" result="effect1_dropShadow_275_1194"/>
<feBlend mode="normal" in="SourceGraphic" in2="effect1_dropShadow_275_1194" result="shape"/>
</filter>
<linearGradient id="paint0_linear_275_1194" x1="42.5" y1="3" x2="42.5" y2="134" gradientUnits="userSpaceOnUse">
<stop stop-color="#17CF3F" stop-opacity="0.95"/>
<stop offset="1" stop-color="#065016"/>
</linearGradient>
<linearGradient id="paint1_linear_275_1194" x1="70.5962" y1="112.867" x2="68.1697" y2="130.133" gradientUnits="userSpaceOnUse">
<stop stop-color="#DAFFE2"/>
<stop offset="1" stop-color="#6FCA83"/>
</linearGradient>
<linearGradient id="paint2_linear_275_1194" x1="69.7145" y1="133.5" x2="69.7145" y2="111.5" gradientUnits="userSpaceOnUse">
<stop stop-color="#DAFFE2"/>
<stop offset="1" stop-color="#6FCA83"/>
</linearGradient>
<linearGradient id="paint3_linear_275_1194" x1="41.5" y1="27.5" x2="41.5" y2="118.5" gradientUnits="userSpaceOnUse">
<stop stop-color="#8CF9A4"/>
<stop offset="1" stop-color="#01B227"/>
</linearGradient>
<linearGradient id="paint4_linear_275_1194" x1="14.596" y1="4.86706" x2="12.1694" y2="22.1329" gradientUnits="userSpaceOnUse">
<stop stop-color="#DAFFE2"/>
<stop offset="1" stop-color="#6FCA83"/>
</linearGradient>
<linearGradient id="paint5_linear_275_1194" x1="13" y1="6" x2="13" y2="21" gradientUnits="userSpaceOnUse">
<stop stop-color="#DAFFE2"/>
<stop offset="1" stop-color="#6FCA83"/>
</linearGradient>
</defs>
</svg>
