<svg width="80" height="140" viewBox="0 0 80 140" fill="none" xmlns="http://www.w3.org/2000/svg">
<rect x="0.5" y="0.5" width="79" height="139" rx="9.5" fill="white" stroke="black"/>
<rect x="4.26465" y="3.56567" width="71.4706" height="132.869" rx="9.5" fill="url(#paint0_linear_268_285)" stroke="black"/>
<path d="M66.4114 115.587C67.9053 115.815 69.1698 116.946 69.9906 118.654C70.8104 120.36 71.1702 122.614 70.8603 125.009C70.5504 127.403 69.6323 129.462 68.4111 130.857C67.1884 132.254 65.6857 132.962 64.1918 132.735C62.6978 132.507 61.4326 131.375 60.6117 129.667C59.7919 127.961 59.432 125.707 59.742 123.312C60.0519 120.918 60.97 118.859 62.1912 117.464C63.414 116.068 64.9175 115.359 66.4114 115.587Z" fill="url(#paint1_linear_268_285)" stroke="#40795C" stroke-width="0.5"/>
<mask id="path-4-outside-1_268_285" maskUnits="userSpaceOnUse" x="60.729" y="120.934" width="9" height="8" fill="black">
<rect fill="white" x="60.729" y="120.934" width="9" height="8"/>
<path d="M65.9367 127.63L66.8976 121.934H68.0578L67.3195 126.188L68.4172 125.794L68.2414 126.798L66.0734 127.626L65.9367 127.63ZM63.7398 125.305L63.2515 125.302C63.1005 125.304 62.9794 125.343 62.8883 125.419C62.7945 125.494 62.7242 125.592 62.6773 125.712C62.6278 125.831 62.5966 125.958 62.5836 126.091C62.5732 126.177 62.5758 126.27 62.5914 126.372C62.6044 126.476 62.6383 126.565 62.6929 126.637C62.745 126.71 62.8271 126.748 62.939 126.751C63.0484 126.753 63.1383 126.723 63.2086 126.661C63.2789 126.598 63.3349 126.52 63.3765 126.427C63.4156 126.335 63.4442 126.247 63.4625 126.161L64.6226 126.153C64.6044 126.458 64.5172 126.727 64.3609 126.962C64.2021 127.199 63.9963 127.384 63.7437 127.516C63.4911 127.649 63.2112 127.713 62.9039 127.708C62.5888 127.7 62.3166 127.63 62.0875 127.497C61.8557 127.364 61.6786 127.178 61.5562 126.938C61.4338 126.701 61.3817 126.424 61.4 126.106C61.413 125.887 61.4664 125.688 61.5601 125.509C61.6539 125.331 61.7776 125.179 61.9312 125.052C62.0823 124.927 62.2541 124.829 62.4469 124.759C62.6396 124.691 62.8427 124.657 63.0562 124.657L63.8453 124.661L63.7398 125.305ZM63.8922 124.372L63.7906 125.001L63.1187 124.997C62.9 124.989 62.7034 124.953 62.5289 124.887C62.3544 124.822 62.206 124.729 62.0836 124.606C61.9586 124.484 61.8674 124.335 61.8101 124.161C61.7502 123.986 61.7268 123.786 61.7398 123.559C61.7554 123.304 61.8166 123.07 61.9234 122.856C62.0302 122.645 62.1721 122.464 62.3492 122.313C62.5237 122.162 62.7242 122.046 62.9508 121.966C63.1747 121.885 63.4143 121.847 63.6695 121.852C63.9091 121.86 64.1213 121.907 64.3062 121.993C64.4885 122.079 64.6422 122.196 64.7672 122.344C64.8896 122.496 64.982 122.67 65.0445 122.868C65.107 123.068 65.1357 123.282 65.1304 123.509H63.9742C63.9716 123.417 63.9612 123.318 63.9429 123.212C63.9247 123.108 63.8857 123.018 63.8258 122.942C63.7659 122.867 63.6773 122.828 63.5601 122.825C63.4221 122.82 63.3062 122.856 63.2125 122.934C63.1161 123.012 63.0406 123.11 62.9859 123.227C62.9286 123.344 62.8922 123.463 62.8765 123.583C62.8635 123.703 62.8622 123.821 62.8726 123.938C62.883 124.055 62.9195 124.154 62.982 124.235C63.0445 124.316 63.1487 124.36 63.2945 124.368L63.8922 124.372Z"/>
</mask>
<path d="M65.9367 127.63L66.8976 121.934H68.0578L67.3195 126.188L68.4172 125.794L68.2414 126.798L66.0734 127.626L65.9367 127.63ZM63.7398 125.305L63.2515 125.302C63.1005 125.304 62.9794 125.343 62.8883 125.419C62.7945 125.494 62.7242 125.592 62.6773 125.712C62.6278 125.831 62.5966 125.958 62.5836 126.091C62.5732 126.177 62.5758 126.27 62.5914 126.372C62.6044 126.476 62.6383 126.565 62.6929 126.637C62.745 126.71 62.8271 126.748 62.939 126.751C63.0484 126.753 63.1383 126.723 63.2086 126.661C63.2789 126.598 63.3349 126.52 63.3765 126.427C63.4156 126.335 63.4442 126.247 63.4625 126.161L64.6226 126.153C64.6044 126.458 64.5172 126.727 64.3609 126.962C64.2021 127.199 63.9963 127.384 63.7437 127.516C63.4911 127.649 63.2112 127.713 62.9039 127.708C62.5888 127.7 62.3166 127.63 62.0875 127.497C61.8557 127.364 61.6786 127.178 61.5562 126.938C61.4338 126.701 61.3817 126.424 61.4 126.106C61.413 125.887 61.4664 125.688 61.5601 125.509C61.6539 125.331 61.7776 125.179 61.9312 125.052C62.0823 124.927 62.2541 124.829 62.4469 124.759C62.6396 124.691 62.8427 124.657 63.0562 124.657L63.8453 124.661L63.7398 125.305ZM63.8922 124.372L63.7906 125.001L63.1187 124.997C62.9 124.989 62.7034 124.953 62.5289 124.887C62.3544 124.822 62.206 124.729 62.0836 124.606C61.9586 124.484 61.8674 124.335 61.8101 124.161C61.7502 123.986 61.7268 123.786 61.7398 123.559C61.7554 123.304 61.8166 123.07 61.9234 122.856C62.0302 122.645 62.1721 122.464 62.3492 122.313C62.5237 122.162 62.7242 122.046 62.9508 121.966C63.1747 121.885 63.4143 121.847 63.6695 121.852C63.9091 121.86 64.1213 121.907 64.3062 121.993C64.4885 122.079 64.6422 122.196 64.7672 122.344C64.8896 122.496 64.982 122.67 65.0445 122.868C65.107 123.068 65.1357 123.282 65.1304 123.509H63.9742C63.9716 123.417 63.9612 123.318 63.9429 123.212C63.9247 123.108 63.8857 123.018 63.8258 122.942C63.7659 122.867 63.6773 122.828 63.5601 122.825C63.4221 122.82 63.3062 122.856 63.2125 122.934C63.1161 123.012 63.0406 123.11 62.9859 123.227C62.9286 123.344 62.8922 123.463 62.8765 123.583C62.8635 123.703 62.8622 123.821 62.8726 123.938C62.883 124.055 62.9195 124.154 62.982 124.235C63.0445 124.316 63.1487 124.36 63.2945 124.368L63.8922 124.372Z" fill="#1DBA96"/>
<path d="M65.9367 127.63L65.6409 127.58L65.5801 127.94L65.9453 127.93L65.9367 127.63ZM66.8976 121.934V121.634H66.644L66.6018 121.884L66.8976 121.934ZM68.0578 121.934L68.3534 121.986L68.4143 121.634H68.0578V121.934ZM67.3195 126.188L67.0239 126.137L66.9358 126.645L67.421 126.471L67.3195 126.188ZM68.4172 125.794L68.7127 125.845L68.8018 125.337L68.3157 125.511L68.4172 125.794ZM68.2414 126.798L68.3484 127.078L68.5075 127.017L68.5369 126.849L68.2414 126.798ZM66.0734 127.626L66.082 127.926L66.1329 127.924L66.1805 127.906L66.0734 127.626ZM65.9367 127.63L66.2325 127.68L67.1935 121.984L66.8976 121.934L66.6018 121.884L65.6409 127.58L65.9367 127.63ZM66.8976 121.934V122.234H68.0578V121.934V121.634H66.8976V121.934ZM68.0578 121.934L67.7622 121.883L67.0239 126.137L67.3195 126.188L67.6151 126.24L68.3534 121.986L68.0578 121.934ZM67.3195 126.188L67.421 126.471L68.5186 126.076L68.4172 125.794L68.3157 125.511L67.218 125.906L67.3195 126.188ZM68.4172 125.794L68.1217 125.742L67.9459 126.746L68.2414 126.798L68.5369 126.849L68.7127 125.845L68.4172 125.794ZM68.2414 126.798L68.1343 126.517L65.9664 127.345L66.0734 127.626L66.1805 127.906L68.3484 127.078L68.2414 126.798ZM66.0734 127.626L66.0648 127.326L65.9281 127.33L65.9367 127.63L65.9453 127.93L66.082 127.926L66.0734 127.626ZM63.7398 125.305L63.7374 125.605L63.9944 125.607L64.0359 125.354L63.7398 125.305ZM63.2515 125.302L63.2539 125.001L63.2464 125.002L63.2515 125.302ZM62.8883 125.419L63.0765 125.652L63.0797 125.65L62.8883 125.419ZM62.6773 125.712L62.9546 125.826L62.9567 125.821L62.6773 125.712ZM62.5836 126.091L62.8815 126.127L62.8821 126.12L62.5836 126.091ZM62.5914 126.372L62.8892 126.335L62.8879 126.326L62.5914 126.372ZM62.6929 126.637L62.9371 126.463L62.9329 126.457L62.6929 126.637ZM62.939 126.751L62.9462 126.451L62.946 126.451L62.939 126.751ZM63.3765 126.427L63.6507 126.548L63.6523 126.545L63.3765 126.427ZM63.4625 126.161L63.4605 125.861L63.2191 125.863L63.169 126.099L63.4625 126.161ZM64.6226 126.153L64.9221 126.171L64.9412 125.851L64.6206 125.853L64.6226 126.153ZM64.3609 126.962L64.6101 127.129L64.6105 127.128L64.3609 126.962ZM62.9039 127.708L62.8964 128.008L62.8988 128.008L62.9039 127.708ZM62.0875 127.497L62.2379 127.237L62.2366 127.237L62.0875 127.497ZM61.5562 126.938L61.8234 126.802L61.8228 126.801L61.5562 126.938ZM61.4 126.106L61.1005 126.088L61.1005 126.089L61.4 126.106ZM61.5601 125.509L61.295 125.368L61.2942 125.37L61.5601 125.509ZM61.9312 125.052L61.74 124.82L61.7396 124.821L61.9312 125.052ZM62.4469 124.759L62.3474 124.475L62.344 124.477L62.4469 124.759ZM63.0562 124.657L63.0577 124.357H63.0562V124.657ZM63.8453 124.661L64.1414 124.709L64.1981 124.363L63.8468 124.361L63.8453 124.661ZM63.8922 124.372L64.1883 124.42L64.2441 124.074L63.8941 124.072L63.8922 124.372ZM63.7906 125.001L63.7889 125.301L64.0458 125.302L64.0868 125.049L63.7906 125.001ZM63.1187 124.997L63.108 125.297L63.117 125.297L63.1187 124.997ZM62.0836 124.606L62.2957 124.394L62.2935 124.392L62.0836 124.606ZM61.8101 124.161L62.0952 124.067L62.0939 124.063L61.8101 124.161ZM61.7398 123.559L61.4404 123.541L61.4403 123.542L61.7398 123.559ZM61.9234 122.856L61.6557 122.721L61.6551 122.722L61.9234 122.856ZM62.3492 122.313L62.5439 122.541L62.5455 122.54L62.3492 122.313ZM62.9508 121.966L63.0515 122.248L63.0525 122.248L62.9508 121.966ZM63.6695 121.852L63.6793 121.552L63.6756 121.552L63.6695 121.852ZM64.3062 121.993L64.4342 121.722L64.4327 121.721L64.3062 121.993ZM64.7672 122.344L65.0003 122.156L64.9966 122.151L64.7672 122.344ZM65.0445 122.868L65.3309 122.779L65.3306 122.778L65.0445 122.868ZM65.1304 123.509V123.809H65.4236L65.4304 123.515L65.1304 123.509ZM63.9742 123.509L63.6743 123.517L63.6826 123.809H63.9742V123.509ZM63.9429 123.212L64.2387 123.161L64.2385 123.16L63.9429 123.212ZM63.8258 122.942L63.5907 123.129L63.8258 122.942ZM63.5601 122.825L63.5488 123.125L63.5535 123.125L63.5601 122.825ZM63.2125 122.934L63.4014 123.167L63.4045 123.165L63.2125 122.934ZM62.9859 123.227L63.2555 123.359L63.2578 123.354L62.9859 123.227ZM62.8765 123.583L62.579 123.544L62.5783 123.55L62.8765 123.583ZM63.2945 124.368L63.2784 124.668L63.2925 124.668L63.2945 124.368ZM63.7398 125.305L63.7422 125.005L63.2539 125.002L63.2515 125.302L63.2491 125.602L63.7374 125.605L63.7398 125.305ZM63.2515 125.302L63.2464 125.002C63.0463 125.005 62.8535 125.058 62.6969 125.188L62.8883 125.419L63.0797 125.65C63.1053 125.628 63.1547 125.603 63.2567 125.601L63.2515 125.302ZM62.8883 125.419L62.7001 125.185C62.5628 125.296 62.4625 125.437 62.3979 125.602L62.6773 125.712L62.9567 125.821C62.9859 125.746 63.0262 125.693 63.0765 125.652L62.8883 125.419ZM62.6773 125.712L62.4 125.597C62.339 125.745 62.3008 125.9 62.285 126.061L62.5836 126.091L62.8821 126.12C62.8924 126.015 62.9167 125.918 62.9546 125.826L62.6773 125.712ZM62.5836 126.091L62.2858 126.054C62.2715 126.172 62.2758 126.294 62.2949 126.417L62.5914 126.372L62.8879 126.326C62.8757 126.247 62.8748 126.181 62.8814 126.127L62.5836 126.091ZM62.5914 126.372L62.2937 126.409C62.3122 126.557 62.3624 126.697 62.4529 126.817L62.6929 126.637L62.9329 126.457C62.9141 126.432 62.8966 126.395 62.8891 126.335L62.5914 126.372ZM62.6929 126.637L62.4488 126.812C62.5694 126.981 62.7519 127.046 62.9321 127.051L62.939 126.751L62.946 126.451C62.9214 126.45 62.915 126.446 62.919 126.448C62.9211 126.449 62.9246 126.451 62.9286 126.454C62.9325 126.457 62.9354 126.461 62.9371 126.463L62.6929 126.637ZM62.939 126.751L62.9319 127.051C63.104 127.055 63.2716 127.006 63.4079 126.885L63.2086 126.661L63.0093 126.437C63.0049 126.441 62.9929 126.452 62.9462 126.451L62.939 126.751ZM63.2086 126.661L63.4079 126.885C63.5129 126.792 63.5932 126.678 63.6507 126.548L63.3765 126.427L63.1024 126.305C63.0765 126.363 63.0448 126.405 63.0093 126.437L63.2086 126.661ZM63.3765 126.427L63.6523 126.545C63.6981 126.438 63.7332 126.331 63.7559 126.223L63.4625 126.161L63.169 126.099C63.1553 126.163 63.1331 126.233 63.1008 126.308L63.3765 126.427ZM63.4625 126.161L63.4645 126.461L64.6247 126.453L64.6226 126.153L64.6206 125.853L63.4605 125.861L63.4625 126.161ZM64.6226 126.153L64.3232 126.135C64.3078 126.391 64.2356 126.609 64.1113 126.795L64.3609 126.962L64.6105 127.128C64.7987 126.846 64.901 126.524 64.9221 126.171L64.6226 126.153ZM64.3609 126.962L64.1117 126.795C63.9806 126.99 63.8126 127.141 63.6041 127.251L63.7437 127.516L63.8833 127.782C64.1801 127.626 64.4235 127.407 64.6101 127.129L64.3609 126.962ZM63.7437 127.516L63.6041 127.251C63.3995 127.358 63.1699 127.412 62.909 127.408L62.9039 127.708L62.8988 128.008C63.2525 128.014 63.5828 127.94 63.8833 127.782L63.7437 127.516ZM62.9039 127.708L62.9113 127.408C62.637 127.401 62.416 127.34 62.2379 127.237L62.0875 127.497L61.937 127.756C62.2173 127.919 62.5406 127.999 62.8964 128.008L62.9039 127.708ZM62.0875 127.497L62.2366 127.237C62.0558 127.133 61.9195 126.99 61.8234 126.802L61.5562 126.938L61.2891 127.075C61.4378 127.366 61.6557 127.595 61.9383 127.757L62.0875 127.497ZM61.5562 126.938L61.8228 126.801C61.7294 126.62 61.6837 126.398 61.6995 126.123L61.4 126.106L61.1005 126.089C61.0798 126.45 61.1382 126.783 61.2897 127.076L61.5562 126.938ZM61.4 126.106L61.6994 126.124C61.7102 125.944 61.7535 125.787 61.8261 125.647L61.5601 125.509L61.2942 125.37C61.1793 125.59 61.1158 125.831 61.1005 126.088L61.4 126.106ZM61.5601 125.509L61.8253 125.649C61.9007 125.506 61.9995 125.385 62.1229 125.282L61.9312 125.052L61.7396 124.821C61.5556 124.973 61.407 125.157 61.295 125.368L61.5601 125.509ZM61.9312 125.052L62.1225 125.283C62.246 125.18 62.3876 125.099 62.5497 125.04L62.4469 124.759L62.344 124.477C62.1207 124.558 61.9186 124.673 61.74 124.82L61.9312 125.052ZM62.4469 124.759L62.5463 125.042C62.7056 124.986 62.875 124.957 63.0562 124.957V124.657V124.357C62.8104 124.357 62.5735 124.396 62.3474 124.476L62.4469 124.759ZM63.0562 124.657L63.0547 124.957L63.8438 124.961L63.8453 124.661L63.8468 124.361L63.0577 124.357L63.0562 124.657ZM63.8453 124.661L63.5492 124.612L63.4438 125.257L63.7398 125.305L64.0359 125.354L64.1414 124.709L63.8453 124.661ZM63.8922 124.372L63.596 124.324L63.4944 124.953L63.7906 125.001L64.0868 125.049L64.1883 124.42L63.8922 124.372ZM63.7906 125.001L63.7923 124.701L63.1205 124.697L63.1187 124.997L63.117 125.297L63.7889 125.301L63.7906 125.001ZM63.1187 124.997L63.1294 124.697C62.9374 124.69 62.7733 124.658 62.6338 124.606L62.5289 124.887L62.424 125.169C62.6334 125.247 62.8626 125.288 63.108 125.297L63.1187 124.997ZM62.5289 124.887L62.6338 124.606C62.4965 124.555 62.3854 124.484 62.2957 124.394L62.0836 124.606L61.8714 124.818C62.0265 124.973 62.2124 125.09 62.424 125.169L62.5289 124.887ZM62.0836 124.606L62.2935 124.392C62.2045 124.305 62.1382 124.198 62.0952 124.067L61.8101 124.161L61.5251 124.254C61.5966 124.472 61.7126 124.663 61.8737 124.821L62.0836 124.606ZM61.8101 124.161L62.0939 124.063C62.0492 123.933 62.028 123.773 62.0393 123.577L61.7398 123.559L61.4403 123.542C61.4256 123.799 61.4513 124.04 61.5264 124.258L61.8101 124.161ZM61.7398 123.559L62.0393 123.578C62.0526 123.36 62.1043 123.165 62.1917 122.99L61.9234 122.856L61.6551 122.722C61.529 122.974 61.4583 123.248 61.4404 123.541L61.7398 123.559ZM61.9234 122.856L62.1911 122.992C62.2802 122.816 62.3975 122.666 62.5439 122.541L62.3492 122.313L62.1545 122.085C61.9467 122.262 61.7802 122.475 61.6558 122.721L61.9234 122.856ZM62.3492 122.313L62.5455 122.54C62.6907 122.414 62.8585 122.317 63.0515 122.248L62.9508 121.966L62.8501 121.683C62.5899 121.776 62.3567 121.91 62.1528 122.086L62.3492 122.313ZM62.9508 121.966L63.0525 122.248C63.2395 122.18 63.4422 122.148 63.6634 122.152L63.6695 121.852L63.6756 121.552C63.3864 121.546 63.11 121.589 62.849 121.683L62.9508 121.966ZM63.6695 121.852L63.6597 122.152C63.8659 122.159 64.0374 122.199 64.1798 122.265L64.3062 121.993L64.4327 121.721C64.2053 121.615 63.9522 121.561 63.6793 121.552L63.6695 121.852ZM64.3062 121.993L64.1783 122.264C64.3231 122.333 64.4416 122.424 64.5377 122.538L64.7672 122.344L64.9966 122.151C64.8427 121.968 64.654 121.825 64.4342 121.722L64.3062 121.993ZM64.7672 122.344L64.5341 122.533C64.6312 122.653 64.7065 122.794 64.7584 122.958L65.0445 122.868L65.3306 122.778C65.2575 122.546 65.1479 122.338 65.0002 122.156L64.7672 122.344ZM65.0445 122.868L64.7581 122.957C64.8102 123.124 64.835 123.305 64.8305 123.502L65.1304 123.509L65.4304 123.515C65.4363 123.259 65.4039 123.013 65.3309 122.779L65.0445 122.868ZM65.1304 123.509V123.209H63.9742V123.509V123.809H65.1304V123.509ZM63.9742 123.509L64.2741 123.5C64.271 123.392 64.2588 123.279 64.2387 123.161L63.9429 123.212L63.6472 123.262C63.6635 123.358 63.6722 123.442 63.6743 123.517L63.9742 123.509ZM63.9429 123.212L64.2385 123.16C64.2125 123.011 64.1547 122.874 64.0608 122.756L63.8258 122.942L63.5907 123.129C63.6166 123.161 63.637 123.204 63.6474 123.263L63.9429 123.212ZM63.8258 122.942L64.0608 122.756C63.9335 122.595 63.752 122.529 63.5668 122.525L63.5601 122.825L63.5535 123.125C63.5807 123.125 63.5919 123.13 63.5933 123.131C63.594 123.131 63.5934 123.131 63.5921 123.13C63.5909 123.129 63.5904 123.128 63.5907 123.129L63.8258 122.942ZM63.5601 122.825L63.5714 122.525C63.3699 122.518 63.1786 122.572 63.0204 122.704L63.2125 122.934L63.4045 123.165C63.4338 123.14 63.4744 123.122 63.5488 123.125L63.5601 122.825ZM63.2125 122.934L63.0235 122.701C62.8903 122.809 62.7871 122.944 62.7141 123.1L62.9859 123.227L63.2578 123.354C63.2941 123.276 63.3419 123.216 63.4014 123.167L63.2125 122.934ZM62.9859 123.227L62.7164 123.096C62.6459 123.24 62.5992 123.389 62.5791 123.544L62.8765 123.583L63.174 123.622C63.1851 123.537 63.2113 123.449 63.2554 123.359L62.9859 123.227ZM62.8765 123.583L62.5783 123.55C62.5632 123.689 62.5616 123.828 62.5738 123.965L62.8726 123.938L63.1715 123.912C63.1628 123.815 63.1638 123.716 63.1748 123.615L62.8765 123.583ZM62.8726 123.938L62.5738 123.965C62.5885 124.13 62.642 124.286 62.7448 124.419L62.982 124.235L63.2192 124.051C63.197 124.023 63.1776 123.981 63.1715 123.912L62.8726 123.938ZM62.982 124.235L62.7448 124.419C62.8805 124.594 63.0842 124.657 63.2785 124.667L63.2945 124.368L63.3106 124.068C63.2629 124.066 63.2365 124.058 63.2243 124.053C63.2142 124.048 63.2158 124.047 63.2192 124.051L62.982 124.235ZM63.2945 124.368L63.2925 124.668L63.8902 124.672L63.8922 124.372L63.8941 124.072L63.2965 124.068L63.2945 124.368Z" fill="#125A4D" mask="url(#path-4-outside-1_268_285)"/>
<g opacity="0.6" filter="url(#filter0_d_268_285)">
<ellipse cx="39.5295" cy="72.0437" rx="26.3529" ry="46.4963" fill="url(#paint2_linear_268_285)" shape-rendering="crispEdges"/>
<ellipse cx="39.5295" cy="72.0437" rx="26.3529" ry="46.4963" stroke="#40795C" shape-rendering="crispEdges"/>
</g>
<g filter="url(#filter1_d_268_285)">
<mask id="path-7-outside-2_268_285" maskUnits="userSpaceOnUse" x="19" y="54.613" width="42" height="32" fill="black">
<rect fill="white" x="19" y="54.613" width="42" height="32"/>
<path d="M33.1008 56.1169V84.613H27.4758V62.6013L20.718 64.7498V60.3162L32.4953 56.1169H33.1008ZM46.0594 67.9529H49.0672C50.0307 67.9529 50.825 67.7901 51.45 67.4646C52.075 67.1261 52.5372 66.6573 52.8367 66.0583C53.1492 65.4464 53.3055 64.7367 53.3055 63.9294C53.3055 63.2003 53.1622 62.5557 52.8758 61.9958C52.6023 61.4229 52.1792 60.9802 51.6062 60.6677C51.0333 60.3422 50.3107 60.1794 49.4383 60.1794C48.7482 60.1794 48.1102 60.3162 47.5242 60.5896C46.9383 60.863 46.4695 61.2472 46.118 61.7419C45.7664 62.2367 45.5906 62.8357 45.5906 63.5388H39.9461C39.9461 61.9763 40.3628 60.6156 41.1961 59.4568C42.0424 58.2979 43.1753 57.393 44.5945 56.7419C46.0138 56.0909 47.5763 55.7654 49.282 55.7654C51.2091 55.7654 52.8953 56.0779 54.3406 56.7029C55.7859 57.3149 56.9122 58.2198 57.7195 59.4177C58.5268 60.6156 58.9305 62.1 58.9305 63.8708C58.9305 64.7693 58.7221 65.6417 58.3055 66.488C57.8888 67.3214 57.2898 68.0766 56.5086 68.7537C55.7404 69.4177 54.8029 69.9516 53.6961 70.3552C52.5893 70.7458 51.3458 70.9412 49.9656 70.9412H46.0594V67.9529ZM46.0594 72.2302V69.3201H49.9656C51.5151 69.3201 52.8758 69.4958 54.0477 69.8474C55.2195 70.199 56.2026 70.7068 56.9969 71.3708C57.7911 72.0219 58.3901 72.7966 58.7937 73.6951C59.1974 74.5805 59.3992 75.5636 59.3992 76.6443C59.3992 77.9724 59.1453 79.1573 58.6375 80.199C58.1297 81.2276 57.4135 82.1 56.4891 82.8162C55.5776 83.5323 54.5099 84.0792 53.2859 84.4568C52.062 84.8214 50.7273 85.0037 49.282 85.0037C48.0841 85.0037 46.9057 84.8409 45.7469 84.5154C44.601 84.1768 43.5594 83.6755 42.6219 83.0115C41.6974 82.3344 40.9552 81.488 40.3953 80.4724C39.8484 79.4438 39.575 78.2263 39.575 76.8201H45.2195C45.2195 77.5492 45.4018 78.2003 45.7664 78.7732C46.131 79.3461 46.6323 79.7953 47.2703 80.1208C47.9214 80.4464 48.644 80.6091 49.4383 80.6091C50.3367 80.6091 51.1049 80.4464 51.743 80.1208C52.394 79.7823 52.8888 79.3136 53.2273 78.7146C53.5789 78.1026 53.7547 77.393 53.7547 76.5857C53.7547 75.544 53.5659 74.7107 53.1883 74.0857C52.8107 73.4477 52.2703 72.9789 51.5672 72.6794C50.8641 72.38 50.0307 72.2302 49.0672 72.2302H46.0594Z"/>
</mask>
<path d="M33.1008 56.1169V84.613H27.4758V62.6013L20.718 64.7498V60.3162L32.4953 56.1169H33.1008ZM46.0594 67.9529H49.0672C50.0307 67.9529 50.825 67.7901 51.45 67.4646C52.075 67.1261 52.5372 66.6573 52.8367 66.0583C53.1492 65.4464 53.3055 64.7367 53.3055 63.9294C53.3055 63.2003 53.1622 62.5557 52.8758 61.9958C52.6023 61.4229 52.1792 60.9802 51.6062 60.6677C51.0333 60.3422 50.3107 60.1794 49.4383 60.1794C48.7482 60.1794 48.1102 60.3162 47.5242 60.5896C46.9383 60.863 46.4695 61.2472 46.118 61.7419C45.7664 62.2367 45.5906 62.8357 45.5906 63.5388H39.9461C39.9461 61.9763 40.3628 60.6156 41.1961 59.4568C42.0424 58.2979 43.1753 57.393 44.5945 56.7419C46.0138 56.0909 47.5763 55.7654 49.282 55.7654C51.2091 55.7654 52.8953 56.0779 54.3406 56.7029C55.7859 57.3149 56.9122 58.2198 57.7195 59.4177C58.5268 60.6156 58.9305 62.1 58.9305 63.8708C58.9305 64.7693 58.7221 65.6417 58.3055 66.488C57.8888 67.3214 57.2898 68.0766 56.5086 68.7537C55.7404 69.4177 54.8029 69.9516 53.6961 70.3552C52.5893 70.7458 51.3458 70.9412 49.9656 70.9412H46.0594V67.9529ZM46.0594 72.2302V69.3201H49.9656C51.5151 69.3201 52.8758 69.4958 54.0477 69.8474C55.2195 70.199 56.2026 70.7068 56.9969 71.3708C57.7911 72.0219 58.3901 72.7966 58.7937 73.6951C59.1974 74.5805 59.3992 75.5636 59.3992 76.6443C59.3992 77.9724 59.1453 79.1573 58.6375 80.199C58.1297 81.2276 57.4135 82.1 56.4891 82.8162C55.5776 83.5323 54.5099 84.0792 53.2859 84.4568C52.062 84.8214 50.7273 85.0037 49.282 85.0037C48.0841 85.0037 46.9057 84.8409 45.7469 84.5154C44.601 84.1768 43.5594 83.6755 42.6219 83.0115C41.6974 82.3344 40.9552 81.488 40.3953 80.4724C39.8484 79.4438 39.575 78.2263 39.575 76.8201H45.2195C45.2195 77.5492 45.4018 78.2003 45.7664 78.7732C46.131 79.3461 46.6323 79.7953 47.2703 80.1208C47.9214 80.4464 48.644 80.6091 49.4383 80.6091C50.3367 80.6091 51.1049 80.4464 51.743 80.1208C52.394 79.7823 52.8888 79.3136 53.2273 78.7146C53.5789 78.1026 53.7547 77.393 53.7547 76.5857C53.7547 75.544 53.5659 74.7107 53.1883 74.0857C52.8107 73.4477 52.2703 72.9789 51.5672 72.6794C50.8641 72.38 50.0307 72.2302 49.0672 72.2302H46.0594Z" fill="#1DBA96"/>
<path d="M33.1008 56.1169H34.1008V55.1169H33.1008V56.1169ZM33.1008 84.613V85.613H34.1008V84.613H33.1008ZM27.4758 84.613H26.4758V85.613H27.4758V84.613ZM27.4758 62.6013H28.4758V61.2341L27.1728 61.6483L27.4758 62.6013ZM20.718 64.7498H19.718V66.117L21.0209 65.7028L20.718 64.7498ZM20.718 60.3162L20.3821 59.3742L19.718 59.611V60.3162H20.718ZM32.4953 56.1169V55.1169H32.3224L32.1595 55.175L32.4953 56.1169ZM33.1008 56.1169H32.1008V84.613H33.1008H34.1008V56.1169H33.1008ZM33.1008 84.613V83.613H27.4758V84.613V85.613H33.1008V84.613ZM27.4758 84.613H28.4758V62.6013H27.4758H26.4758V84.613H27.4758ZM27.4758 62.6013L27.1728 61.6483L20.415 63.7968L20.718 64.7498L21.0209 65.7028L27.7788 63.5543L27.4758 62.6013ZM20.718 64.7498H21.718V60.3162H20.718H19.718V64.7498H20.718ZM20.718 60.3162L21.0538 61.2581L32.8312 57.0589L32.4953 56.1169L32.1595 55.175L20.3821 59.3742L20.718 60.3162ZM32.4953 56.1169V57.1169H33.1008V56.1169V55.1169H32.4953V56.1169ZM46.0594 67.9529V66.9529H45.0594V67.9529H46.0594ZM51.45 67.4646L51.9119 68.3515L51.9191 68.3478L51.9263 68.3439L51.45 67.4646ZM52.8367 66.0583L51.9461 65.6036L51.9423 65.6111L52.8367 66.0583ZM52.8758 61.9958L51.9733 62.4266L51.9792 62.439L51.9855 62.4513L52.8758 61.9958ZM51.6062 60.6677L51.1122 61.5372L51.1198 61.5415L51.1274 61.5456L51.6062 60.6677ZM45.5906 63.5388V64.5388H46.5906V63.5388H45.5906ZM39.9461 63.5388H38.9461V64.5388H39.9461V63.5388ZM41.1961 59.4568L40.3885 58.867L40.3842 58.873L41.1961 59.4568ZM54.3406 56.7029L53.9437 57.6208L53.9507 57.6237L54.3406 56.7029ZM57.7195 59.4177L58.5488 58.8589L57.7195 59.4177ZM58.3055 66.488L59.1999 66.9353L59.2026 66.9297L58.3055 66.488ZM56.5086 68.7537L57.1625 69.5102L57.1635 69.5093L56.5086 68.7537ZM53.6961 70.3552L54.0289 71.2983L54.0387 71.2947L53.6961 70.3552ZM46.0594 70.9412H45.0594V71.9412H46.0594V70.9412ZM46.0594 72.2302H45.0594V73.2302H46.0594V72.2302ZM46.0594 69.3201V68.3201H45.0594V69.3201H46.0594ZM56.9969 71.3708L56.3554 72.1381L56.3629 72.1442L56.9969 71.3708ZM58.7937 73.6951L57.8816 74.1049L57.8838 74.1099L58.7937 73.6951ZM58.6375 80.199L59.5342 80.6416L59.5364 80.6372L58.6375 80.199ZM56.4891 82.8162L55.8766 82.0256L55.8712 82.0298L56.4891 82.8162ZM53.2859 84.4568L53.5714 85.4152L53.5807 85.4123L53.2859 84.4568ZM45.7469 84.5154L45.4635 85.4745L45.4764 85.4781L45.7469 84.5154ZM42.6219 83.0115L42.031 83.8182L42.0374 83.8229L42.0439 83.8275L42.6219 83.0115ZM40.3953 80.4724L39.5123 80.9418L39.5159 80.9485L39.5196 80.9552L40.3953 80.4724ZM39.575 76.8201V75.8201H38.575V76.8201H39.575ZM45.2195 76.8201H46.2195V75.8201H45.2195V76.8201ZM47.2703 80.1208L46.8158 81.0116L46.8231 81.0153L47.2703 80.1208ZM51.743 80.1208L52.1974 81.0116L52.2043 81.0081L51.743 80.1208ZM53.2273 78.7146L52.3602 78.2165L52.3568 78.2225L53.2273 78.7146ZM53.1883 74.0857L52.3277 74.595L52.3324 74.6028L53.1883 74.0857ZM46.0594 67.9529V68.9529H49.0672V67.9529V66.9529H46.0594V67.9529ZM49.0672 67.9529V68.9529C50.1354 68.9529 51.1017 68.7735 51.9119 68.3515L51.45 67.4646L50.9881 66.5777C50.5483 66.8067 49.926 66.9529 49.0672 66.9529V67.9529ZM51.45 67.4646L51.9263 68.3439C52.72 67.914 53.3341 67.2996 53.7311 66.5056L52.8367 66.0583L51.9423 65.6111C51.7403 66.015 51.43 66.3381 50.9737 66.5853L51.45 67.4646ZM52.8367 66.0583L53.7273 66.5131C54.1233 65.7377 54.3055 64.8673 54.3055 63.9294H53.3055H52.3055C52.3055 64.6062 52.1751 65.1551 51.9461 65.6036L52.8367 66.0583ZM53.3055 63.9294H54.3055C54.3055 63.0672 54.1353 62.2622 53.766 61.5404L52.8758 61.9958L51.9855 62.4513C52.1892 62.8493 52.3055 63.3334 52.3055 63.9294H53.3055ZM52.8758 61.9958L53.7783 61.5651C53.4115 60.7967 52.8372 60.2001 52.0851 59.7898L51.6062 60.6677L51.1274 61.5456C51.5211 61.7604 51.7932 62.0492 51.9733 62.4266L52.8758 61.9958ZM51.6062 60.6677L52.1003 59.7983C51.3357 59.3639 50.4296 59.1794 49.4383 59.1794V60.1794V61.1794C50.1918 61.1794 50.731 61.3206 51.1122 61.5372L51.6062 60.6677ZM49.4383 60.1794V59.1794C48.6121 59.1794 47.8285 59.3441 47.1013 59.6834L47.5242 60.5896L47.9471 61.4958C48.3918 61.2882 48.8843 61.1794 49.4383 61.1794V60.1794ZM47.5242 60.5896L47.1013 59.6834C46.3691 60.0251 45.7612 60.5176 45.3028 61.1627L46.118 61.7419L46.9331 62.3212C47.1779 61.9767 47.5074 61.701 47.9471 61.4958L47.5242 60.5896ZM46.118 61.7419L45.3028 61.1627C44.8127 61.8525 44.5906 62.6621 44.5906 63.5388H45.5906H46.5906C46.5906 63.0093 46.7201 62.621 46.9331 62.3212L46.118 61.7419ZM45.5906 63.5388V62.5388H39.9461V63.5388V64.5388H45.5906V63.5388ZM39.9461 63.5388H40.9461C40.9461 62.165 41.3086 61.0132 42.008 60.0406L41.1961 59.4568L40.3842 58.873C39.4169 60.2181 38.9461 61.7877 38.9461 63.5388H39.9461ZM41.1961 59.4568L42.0036 60.0466C42.7405 59.0377 43.7335 58.2371 45.0115 57.6509L44.5945 56.7419L44.1776 55.833C42.617 56.5489 41.3444 57.5582 40.3885 58.867L41.1961 59.4568ZM44.5945 56.7419L45.0115 57.6509C46.2882 57.0652 47.7068 56.7654 49.282 56.7654V55.7654V54.7654C47.4458 54.7654 45.7394 55.1166 44.1776 55.833L44.5945 56.7419ZM49.282 55.7654V56.7654C51.1024 56.7654 52.6484 57.0606 53.9437 57.6207L54.3406 56.7029L54.7375 55.785C53.1422 55.0951 51.3159 54.7654 49.282 54.7654V55.7654ZM54.3406 56.7029L53.9507 57.6237C55.2337 58.167 56.2006 58.9533 56.8903 59.9766L57.7195 59.4177L58.5488 58.8589C57.6238 57.4864 56.3382 56.4627 54.7305 55.782L54.3406 56.7029ZM57.7195 59.4177L56.8903 59.9766C57.5634 60.9754 57.9305 62.2538 57.9305 63.8708H58.9305H59.9305C59.9305 61.9463 59.4903 60.2559 58.5488 58.8589L57.7195 59.4177ZM58.9305 63.8708H57.9305C57.9305 64.6084 57.7608 65.3304 57.4083 66.0464L58.3055 66.488L59.2026 66.9297C59.6835 65.953 59.9305 64.9301 59.9305 63.8708H58.9305ZM58.3055 66.488L57.411 66.0408C57.0593 66.7443 56.5465 67.3975 55.8537 67.998L56.5086 68.7537L57.1635 69.5093C58.0332 68.7556 58.7183 67.8984 59.1999 66.9352L58.3055 66.488ZM56.5086 68.7537L55.8546 67.9971C55.1917 68.5702 54.3642 69.0471 53.3535 69.4158L53.6961 70.3552L54.0387 71.2947C55.2415 70.856 56.2891 70.2652 57.1625 69.5102L56.5086 68.7537ZM53.6961 70.3552L53.3633 69.4122C52.3804 69.7591 51.252 69.9412 49.9656 69.9412V70.9412V71.9412C51.4397 71.9412 52.7983 71.7326 54.0289 71.2982L53.6961 70.3552ZM49.9656 70.9412V69.9412H46.0594V70.9412V71.9412H49.9656V70.9412ZM46.0594 70.9412H47.0594V67.9529H46.0594H45.0594V70.9412H46.0594ZM46.0594 72.2302H47.0594V69.3201H46.0594H45.0594V72.2302H46.0594ZM46.0594 69.3201V70.3201H49.9656V69.3201V68.3201H46.0594V69.3201ZM49.9656 69.3201V70.3201C51.4424 70.3201 52.7026 70.4879 53.7603 70.8052L54.0477 69.8474L54.335 68.8896C53.0489 68.5038 51.5878 68.3201 49.9656 68.3201V69.3201ZM54.0477 69.8474L53.7603 70.8052C54.8257 71.1249 55.6822 71.5751 56.3555 72.138L56.9969 71.3708L57.6383 70.6037C56.723 69.8384 55.6134 69.2731 54.335 68.8896L54.0477 69.8474ZM56.9969 71.3708L56.3629 72.1442C57.0429 72.7015 57.544 73.3536 57.8816 74.1049L58.7937 73.6951L59.7059 73.2853C59.2362 72.2397 58.5394 71.3422 57.6308 70.5975L56.9969 71.3708ZM58.7937 73.6951L57.8838 74.1099C58.2218 74.8513 58.3992 75.6907 58.3992 76.6443H59.3992H60.3992C60.3992 75.4364 60.1729 74.3097 59.7037 73.2803L58.7937 73.6951ZM59.3992 76.6443H58.3992C58.3992 77.8428 58.1708 78.8743 57.7386 79.7608L58.6375 80.199L59.5364 80.6372C60.1198 79.4404 60.3992 78.102 60.3992 76.6443H59.3992ZM58.6375 80.199L57.7408 79.7563C57.3015 80.6462 56.6836 81.4005 55.8767 82.0256L56.4891 82.8162L57.1015 83.6067C58.1435 82.7995 58.9579 81.809 59.5342 80.6416L58.6375 80.199ZM56.4891 82.8162L55.8712 82.0298C55.0658 82.6627 54.1102 83.156 52.9911 83.5012L53.2859 84.4568L53.5807 85.4123C54.9095 85.0024 56.0894 84.4019 57.1069 83.6025L56.4891 82.8162ZM53.2859 84.4568L53.0005 83.4984C51.8804 83.832 50.6432 84.0037 49.282 84.0037V85.0037V86.0037C50.8115 86.0037 52.2435 85.8107 53.5714 85.4152L53.2859 84.4568ZM49.282 85.0037V84.0037C48.176 84.0037 47.0886 83.8536 46.0173 83.5526L45.7469 84.5154L45.4764 85.4781C46.7229 85.8282 47.9922 86.0037 49.282 86.0037V85.0037ZM45.7469 84.5154L46.0302 83.5564C44.9855 83.2477 44.0441 82.7935 43.1999 82.1954L42.6219 83.0115L42.0439 83.8275C43.0746 84.5576 44.2165 85.106 45.4635 85.4744L45.7469 84.5154ZM42.6219 83.0115L43.2127 82.2047C42.4071 81.6147 41.7616 80.8794 41.271 79.9896L40.3953 80.4724L39.5196 80.9552C40.1488 82.0967 40.9877 83.0541 42.031 83.8182L42.6219 83.0115ZM40.3953 80.4724L41.2783 80.003C40.8226 79.1459 40.575 78.0963 40.575 76.8201H39.575H38.575C38.575 78.3564 38.8742 79.7416 39.5123 80.9418L40.3953 80.4724ZM39.575 76.8201V77.8201H45.2195V76.8201V75.8201H39.575V76.8201ZM45.2195 76.8201H44.2195C44.2195 77.7248 44.4485 78.5648 44.9227 79.3101L45.7664 78.7732L46.6101 78.2363C46.3552 77.8358 46.2195 77.3737 46.2195 76.8201H45.2195ZM45.7664 78.7732L44.9227 79.3101C45.3885 80.0419 46.0279 80.6096 46.8158 81.0116L47.2703 80.1208L47.7248 79.2301C47.2367 78.9811 46.8735 78.6503 46.6101 78.2363L45.7664 78.7732ZM47.2703 80.1208L46.8231 81.0153C47.6253 81.4164 48.5032 81.6091 49.4383 81.6091V80.6091V79.6091C48.7848 79.6091 48.2174 79.4763 47.7175 79.2264L47.2703 80.1208ZM49.4383 80.6091V81.6091C50.4554 81.6091 51.3874 81.4249 52.1974 81.0116L51.743 80.1208L51.2885 79.2301C50.8225 79.4679 50.218 79.6091 49.4383 79.6091V80.6091ZM51.743 80.1208L52.2043 81.0081C53.0152 80.5864 53.6577 79.9856 54.0979 79.2067L53.2273 78.7146L52.3568 78.2225C52.1199 78.6416 51.7729 78.9782 51.2816 79.2336L51.743 80.1208ZM53.2273 78.7146L54.0944 79.2127C54.545 78.4285 54.7547 77.5423 54.7547 76.5857H53.7547H52.7547C52.7547 77.2437 52.6128 77.7768 52.3602 78.2165L53.2273 78.7146ZM53.7547 76.5857H54.7547C54.7547 75.4354 54.548 74.4025 54.0442 73.5686L53.1883 74.0857L52.3324 74.6028C52.5838 75.0189 52.7547 75.6527 52.7547 76.5857H53.7547ZM53.1883 74.0857L54.0489 73.5764C53.5592 72.7491 52.8517 72.1396 51.959 71.7594L51.5672 72.6794L51.1753 73.5995C51.6889 73.8182 52.0621 74.1463 52.3277 74.595L53.1883 74.0857ZM51.5672 72.6794L51.959 71.7594C51.1043 71.3953 50.1315 71.2302 49.0672 71.2302V72.2302V73.2302C49.9299 73.2302 50.6239 73.3646 51.1753 73.5995L51.5672 72.6794ZM49.0672 72.2302V71.2302H46.0594V72.2302V73.2302H49.0672V72.2302Z" fill="black" mask="url(#path-7-outside-2_268_285)"/>
</g>
<path d="M13.7056 5.22167C15.1995 5.44972 16.464 6.58097 17.2848 8.2892C18.1046 9.99542 18.4644 12.2494 18.1545 14.6439C17.8446 17.0384 16.9265 19.0973 15.7052 20.4921C14.4825 21.8885 12.9799 22.5975 11.486 22.3696C9.99202 22.1417 8.72675 21.0103 7.90588 19.3019C7.08612 17.5957 6.72622 15.3416 7.03615 12.9473C7.34609 10.5529 8.26424 8.49383 9.48541 7.09906C10.7082 5.70252 12.2116 4.99369 13.7056 5.22167Z" fill="url(#paint3_linear_268_285)" stroke="#40795C" stroke-width="0.5"/>
<mask id="path-10-outside-3_268_285" maskUnits="userSpaceOnUse" x="7.76465" y="9.13135" width="9" height="8" fill="black">
<rect fill="white" x="7.76465" y="9.13135" width="9" height="8"/>
<path d="M11.4727 10.436L10.5118 16.1313H9.35164L10.0899 11.8774L8.99227 12.272L9.16805 11.2681L11.336 10.4399L11.4727 10.436ZM13.6696 12.7603L14.1579 12.7642C14.3089 12.7616 14.43 12.7225 14.5212 12.647C14.6149 12.5715 14.6852 12.4738 14.7321 12.354C14.7816 12.2342 14.8128 12.1079 14.8259 11.9751C14.8363 11.8892 14.8337 11.7954 14.8181 11.6938C14.805 11.5897 14.7712 11.5011 14.7165 11.4282C14.6644 11.3553 14.5824 11.3175 14.4704 11.3149C14.361 11.3123 14.2712 11.3423 14.2009 11.4048C14.1306 11.4673 14.0746 11.5454 14.0329 11.6392C13.9938 11.7303 13.9652 11.8188 13.947 11.9048L12.7868 11.9126C12.805 11.6079 12.8923 11.3384 13.0485 11.104C13.2074 10.867 13.4131 10.6821 13.6657 10.5493C13.9183 10.4165 14.1983 10.3527 14.5056 10.3579C14.8207 10.3657 15.0928 10.436 15.322 10.5688C15.5537 10.7017 15.7308 10.8879 15.8532 11.1274C15.9756 11.3644 16.0277 11.6418 16.0095 11.9595C15.9964 12.1782 15.9431 12.3774 15.8493 12.5571C15.7556 12.7342 15.6319 12.8866 15.4782 13.0142C15.3272 13.1392 15.1553 13.2368 14.9626 13.3071C14.7699 13.3748 14.5667 13.4087 14.3532 13.4087L13.5641 13.4048L13.6696 12.7603ZM13.5173 13.6938L13.6188 13.0649L14.2907 13.0688C14.5095 13.0767 14.7061 13.1131 14.8806 13.1782C15.055 13.2433 15.2035 13.3371 15.3259 13.4595C15.4509 13.5819 15.542 13.7303 15.5993 13.9048C15.6592 14.0793 15.6826 14.2798 15.6696 14.5063C15.654 14.7616 15.5928 14.9959 15.486 15.2095C15.3792 15.4204 15.2373 15.6014 15.0602 15.7524C14.8858 15.9035 14.6852 16.0194 14.4587 16.1001C14.2347 16.1808 13.9951 16.2186 13.7399 16.2134C13.5003 16.2056 13.2881 16.1587 13.1032 16.0728C12.9209 15.9868 12.7673 15.8696 12.6423 15.7212C12.5199 15.5701 12.4274 15.3957 12.3649 15.1978C12.3024 14.9972 12.2738 14.7837 12.279 14.5571H13.4352C13.4378 14.6483 13.4483 14.7472 13.4665 14.854C13.4847 14.9582 13.5238 15.048 13.5837 15.1235C13.6436 15.1991 13.7321 15.2381 13.8493 15.2407C13.9873 15.2459 14.1032 15.2095 14.197 15.1313C14.2933 15.0532 14.3688 14.9556 14.4235 14.8384C14.4808 14.7212 14.5173 14.6027 14.5329 14.4829C14.5459 14.3631 14.5472 14.2446 14.5368 14.1274C14.5264 14.0103 14.4899 13.9113 14.4274 13.8306C14.3649 13.7498 14.2608 13.7056 14.1149 13.6978L13.5173 13.6938Z"/>
</mask>
<path d="M11.4727 10.436L10.5118 16.1313H9.35164L10.0899 11.8774L8.99227 12.272L9.16805 11.2681L11.336 10.4399L11.4727 10.436ZM13.6696 12.7603L14.1579 12.7642C14.3089 12.7616 14.43 12.7225 14.5212 12.647C14.6149 12.5715 14.6852 12.4738 14.7321 12.354C14.7816 12.2342 14.8128 12.1079 14.8259 11.9751C14.8363 11.8892 14.8337 11.7954 14.8181 11.6938C14.805 11.5897 14.7712 11.5011 14.7165 11.4282C14.6644 11.3553 14.5824 11.3175 14.4704 11.3149C14.361 11.3123 14.2712 11.3423 14.2009 11.4048C14.1306 11.4673 14.0746 11.5454 14.0329 11.6392C13.9938 11.7303 13.9652 11.8188 13.947 11.9048L12.7868 11.9126C12.805 11.6079 12.8923 11.3384 13.0485 11.104C13.2074 10.867 13.4131 10.6821 13.6657 10.5493C13.9183 10.4165 14.1983 10.3527 14.5056 10.3579C14.8207 10.3657 15.0928 10.436 15.322 10.5688C15.5537 10.7017 15.7308 10.8879 15.8532 11.1274C15.9756 11.3644 16.0277 11.6418 16.0095 11.9595C15.9964 12.1782 15.9431 12.3774 15.8493 12.5571C15.7556 12.7342 15.6319 12.8866 15.4782 13.0142C15.3272 13.1392 15.1553 13.2368 14.9626 13.3071C14.7699 13.3748 14.5667 13.4087 14.3532 13.4087L13.5641 13.4048L13.6696 12.7603ZM13.5173 13.6938L13.6188 13.0649L14.2907 13.0688C14.5095 13.0767 14.7061 13.1131 14.8806 13.1782C15.055 13.2433 15.2035 13.3371 15.3259 13.4595C15.4509 13.5819 15.542 13.7303 15.5993 13.9048C15.6592 14.0793 15.6826 14.2798 15.6696 14.5063C15.654 14.7616 15.5928 14.9959 15.486 15.2095C15.3792 15.4204 15.2373 15.6014 15.0602 15.7524C14.8858 15.9035 14.6852 16.0194 14.4587 16.1001C14.2347 16.1808 13.9951 16.2186 13.7399 16.2134C13.5003 16.2056 13.2881 16.1587 13.1032 16.0728C12.9209 15.9868 12.7673 15.8696 12.6423 15.7212C12.5199 15.5701 12.4274 15.3957 12.3649 15.1978C12.3024 14.9972 12.2738 14.7837 12.279 14.5571H13.4352C13.4378 14.6483 13.4483 14.7472 13.4665 14.854C13.4847 14.9582 13.5238 15.048 13.5837 15.1235C13.6436 15.1991 13.7321 15.2381 13.8493 15.2407C13.9873 15.2459 14.1032 15.2095 14.197 15.1313C14.2933 15.0532 14.3688 14.9556 14.4235 14.8384C14.4808 14.7212 14.5173 14.6027 14.5329 14.4829C14.5459 14.3631 14.5472 14.2446 14.5368 14.1274C14.5264 14.0103 14.4899 13.9113 14.4274 13.8306C14.3649 13.7498 14.2608 13.7056 14.1149 13.6978L13.5173 13.6938Z" fill="#1DBA96"/>
<path d="M11.4727 10.436L11.7686 10.4859L11.8293 10.1257L11.4642 10.1362L11.4727 10.436ZM10.5118 16.1313V16.4313H10.7654L10.8076 16.1813L10.5118 16.1313ZM9.35164 16.1313L9.05606 16.08L8.99509 16.4313H9.35164V16.1313ZM10.0899 11.8774L10.3855 11.9287L10.4737 11.4207L9.98845 11.5951L10.0899 11.8774ZM8.99227 12.272L8.69676 12.2202L8.60768 12.729L9.09374 12.5543L8.99227 12.272ZM9.16805 11.2681L9.061 10.9878L8.90192 11.0486L8.87255 11.2163L9.16805 11.2681ZM11.336 10.4399L11.3275 10.1401L11.2765 10.1415L11.229 10.1597L11.336 10.4399ZM11.4727 10.436L11.1769 10.3861L10.216 16.0814L10.5118 16.1313L10.8076 16.1813L11.7686 10.4859L11.4727 10.436ZM10.5118 16.1313V15.8313H9.35164V16.1313V16.4313H10.5118V16.1313ZM9.35164 16.1313L9.64722 16.1826L10.3855 11.9287L10.0899 11.8774L9.79434 11.8261L9.05606 16.08L9.35164 16.1313ZM10.0899 11.8774L9.98845 11.5951L8.8908 11.9897L8.99227 12.272L9.09374 12.5543L10.1914 12.1598L10.0899 11.8774ZM8.99227 12.272L9.28777 12.3237L9.46355 11.3198L9.16805 11.2681L8.87255 11.2163L8.69676 12.2202L8.99227 12.272ZM9.16805 11.2681L9.2751 11.5483L11.4431 10.7202L11.336 10.4399L11.229 10.1597L9.061 10.9878L9.16805 11.2681ZM11.336 10.4399L11.3446 10.7398L11.4813 10.7359L11.4727 10.436L11.4642 10.1362L11.3275 10.1401L11.336 10.4399ZM13.6696 12.7603L13.672 12.4603L13.415 12.4582L13.3736 12.7118L13.6696 12.7603ZM14.1579 12.7642L14.1555 13.0642L14.1631 13.0641L14.1579 12.7642ZM14.5212 12.647L14.333 12.4133L14.3298 12.416L14.5212 12.647ZM14.7321 12.354L14.4548 12.2395L14.4527 12.2447L14.7321 12.354ZM14.8259 11.9751L14.528 11.939L14.5273 11.9458L14.8259 11.9751ZM14.8181 11.6938L14.5202 11.7311L14.5215 11.7395L14.8181 11.6938ZM14.7165 11.4282L14.4723 11.6026L14.4765 11.6082L14.7165 11.4282ZM14.4704 11.3149L14.4633 11.6149L14.4634 11.6149L14.4704 11.3149ZM14.0329 11.6392L13.7587 11.5173L13.7572 11.521L14.0329 11.6392ZM13.947 11.9048L13.949 12.2048L14.1903 12.2032L14.2404 11.967L13.947 11.9048ZM12.7868 11.9126L12.4873 11.8947L12.4682 12.2148L12.7888 12.2126L12.7868 11.9126ZM13.0485 11.104L12.7993 10.937L12.7989 10.9376L13.0485 11.104ZM14.5056 10.3579L14.513 10.058L14.5106 10.058L14.5056 10.3579ZM15.322 10.5688L15.1715 10.8284L15.1728 10.8291L15.322 10.5688ZM15.8532 11.1274L15.586 11.2639L15.5867 11.2651L15.8532 11.1274ZM16.0095 11.9595L16.3089 11.9773L16.309 11.9767L16.0095 11.9595ZM15.8493 12.5571L16.1144 12.6975L16.1153 12.6959L15.8493 12.5571ZM15.4782 13.0142L15.6695 13.2453L15.6699 13.2449L15.4782 13.0142ZM14.9626 13.3071L15.062 13.5902L15.0654 13.589L14.9626 13.3071ZM14.3532 13.4087L14.3517 13.7087H14.3532V13.4087ZM13.5641 13.4048L13.2681 13.3563L13.2113 13.703L13.5627 13.7048L13.5641 13.4048ZM13.5173 13.6938L13.2211 13.646L13.1653 13.9916L13.5153 13.9938L13.5173 13.6938ZM13.6188 13.0649L13.6206 12.7649L13.3636 12.7635L13.3227 13.0171L13.6188 13.0649ZM14.2907 13.0688L14.3014 12.7689L14.2925 12.7689L14.2907 13.0688ZM15.3259 13.4595L15.1137 13.6716L15.116 13.6738L15.3259 13.4595ZM15.5993 13.9048L15.3142 13.9984L15.3156 14.0022L15.5993 13.9048ZM15.6696 14.5063L15.9691 14.5247L15.9691 14.5236L15.6696 14.5063ZM15.486 15.2095L15.7537 15.345L15.7543 15.3436L15.486 15.2095ZM15.0602 15.7524L14.8655 15.5242L14.8639 15.5256L15.0602 15.7524ZM14.4587 16.1001L14.358 15.8175L14.3569 15.8179L14.4587 16.1001ZM13.7399 16.2134L13.7301 16.5132L13.7338 16.5133L13.7399 16.2134ZM13.1032 16.0728L12.9753 16.3441L12.9768 16.3448L13.1032 16.0728ZM12.6423 15.7212L12.4091 15.9101L12.4128 15.9144L12.6423 15.7212ZM12.3649 15.1978L12.0785 15.287L12.0789 15.2881L12.3649 15.1978ZM12.279 14.5571V14.2571H11.9858L11.9791 14.5502L12.279 14.5571ZM13.4352 14.5571L13.7351 14.5486L13.7268 14.2571H13.4352V14.5571ZM13.4665 14.854L13.1708 14.9045L13.171 14.9057L13.4665 14.854ZM13.5837 15.1235L13.8187 14.9371L13.5837 15.1235ZM13.8493 15.2407L13.8606 14.9409L13.856 14.9408L13.8493 15.2407ZM14.197 15.1313L14.008 14.8983L14.0049 14.9009L14.197 15.1313ZM14.4235 14.8384L14.154 14.7066L14.1517 14.7115L14.4235 14.8384ZM14.5329 14.4829L14.8304 14.5217L14.8311 14.5153L14.5329 14.4829ZM14.1149 13.6978L14.131 13.3979L14.1169 13.3978L14.1149 13.6978ZM13.6696 12.7603L13.6672 13.0602L14.1555 13.0642L14.1579 12.7642L14.1603 12.4642L13.672 12.4603L13.6696 12.7603ZM14.1579 12.7642L14.1631 13.0641C14.3631 13.0607 14.5559 13.0078 14.7126 12.878L14.5212 12.647L14.3298 12.416C14.3041 12.4372 14.2548 12.4624 14.1527 12.4642L14.1579 12.7642ZM14.5212 12.647L14.7094 12.8806C14.8466 12.77 14.9469 12.6283 15.0115 12.4633L14.7321 12.354L14.4527 12.2447C14.4236 12.3193 14.3832 12.3729 14.333 12.4133L14.5212 12.647ZM14.7321 12.354L15.0094 12.4685C15.0704 12.3207 15.1086 12.1656 15.1244 12.0044L14.8259 11.9751L14.5273 11.9458C14.5171 12.0502 14.4927 12.1477 14.4548 12.2395L14.7321 12.354ZM14.8259 11.9751L15.1237 12.0112C15.1379 11.8936 15.1336 11.772 15.1146 11.6482L14.8181 11.6938L14.5215 11.7395C14.5338 11.8189 14.5346 11.8847 14.528 11.939L14.8259 11.9751ZM14.8181 11.6938L15.1157 11.6566C15.0972 11.5086 15.047 11.3689 14.9565 11.2482L14.7165 11.4282L14.4765 11.6082C14.4954 11.6334 14.5128 11.6707 14.5204 11.7311L14.8181 11.6938ZM14.7165 11.4282L14.9606 11.2539C14.84 11.085 14.6576 11.0192 14.4774 11.015L14.4704 11.3149L14.4634 11.6149C14.488 11.6154 14.4944 11.6196 14.4905 11.6177C14.4884 11.6168 14.4848 11.6148 14.4809 11.6115C14.4769 11.6082 14.474 11.6049 14.4724 11.6026L14.7165 11.4282ZM14.4704 11.3149L14.4775 11.015C14.3055 11.0109 14.1378 11.0595 14.0016 11.1806L14.2009 11.4048L14.4002 11.629C14.4046 11.6251 14.4166 11.6137 14.4633 11.6149L14.4704 11.3149ZM14.2009 11.4048L14.0016 11.1806C13.8965 11.274 13.8162 11.3881 13.7588 11.5173L14.0329 11.6392L14.307 11.761C14.3329 11.7027 14.3646 11.6606 14.4002 11.629L14.2009 11.4048ZM14.0329 11.6392L13.7572 11.521C13.7113 11.6279 13.6763 11.7352 13.6535 11.8425L13.947 11.9048L14.2404 11.967C14.2541 11.9025 14.2763 11.8327 14.3086 11.7573L14.0329 11.6392ZM13.947 11.9048L13.9449 11.6048L12.7848 11.6126L12.7868 11.9126L12.7888 12.2126L13.949 12.2048L13.947 11.9048ZM12.7868 11.9126L13.0863 11.9305C13.1016 11.6743 13.1738 11.4569 13.2981 11.2704L13.0485 11.104L12.7989 10.9376C12.6107 11.2198 12.5085 11.5415 12.4873 11.8947L12.7868 11.9126ZM13.0485 11.104L13.2977 11.271C13.4288 11.0755 13.5968 10.9245 13.8053 10.8149L13.6657 10.5493L13.5261 10.2838C13.2294 10.4398 12.986 10.6585 12.7993 10.937L13.0485 11.104ZM13.6657 10.5493L13.8053 10.8149C14.0099 10.7073 14.2395 10.6534 14.5005 10.6579L14.5056 10.3579L14.5106 10.058C14.157 10.052 13.8267 10.1257 13.5261 10.2838L13.6657 10.5493ZM14.5056 10.3579L14.4981 10.6578C14.7725 10.6646 14.9935 10.7252 15.1715 10.8284L15.322 10.5688L15.4724 10.3093C15.1921 10.1469 14.8688 10.0668 14.513 10.058L14.5056 10.3579ZM15.322 10.5688L15.1728 10.8291C15.3537 10.9328 15.4899 11.0758 15.5861 11.2639L15.8532 11.1274L16.1204 10.991C15.9717 10.6999 15.7538 10.4705 15.4711 10.3086L15.322 10.5688ZM15.8532 11.1274L15.5867 11.2651C15.68 11.4459 15.7257 11.6678 15.7099 11.9423L16.0095 11.9595L16.309 11.9767C16.3297 11.6157 16.2712 11.283 16.1198 10.9898L15.8532 11.1274ZM16.0095 11.9595L15.71 11.9416C15.6993 12.1216 15.656 12.2791 15.5833 12.4184L15.8493 12.5571L16.1153 12.6959C16.2301 12.4757 16.2936 12.2348 16.3089 11.9773L16.0095 11.9595ZM15.8493 12.5571L15.5842 12.4168C15.5087 12.5593 15.4099 12.6809 15.2865 12.7834L15.4782 13.0142L15.6699 13.2449C15.8538 13.0922 16.0024 12.9091 16.1144 12.6975L15.8493 12.5571ZM15.4782 13.0142L15.2869 12.783C15.1635 12.8852 15.0218 12.9662 14.8598 13.0253L14.9626 13.3071L15.0654 13.589C15.2888 13.5075 15.4909 13.3931 15.6695 13.2453L15.4782 13.0142ZM14.9626 13.3071L14.8631 13.0241C14.7038 13.0801 14.5344 13.1087 14.3532 13.1087V13.4087V13.7087C14.5991 13.7087 14.8359 13.6696 15.062 13.5902L14.9626 13.3071ZM14.3532 13.4087L14.3547 13.1087L13.5656 13.1048L13.5641 13.4048L13.5627 13.7048L14.3517 13.7087L14.3532 13.4087ZM13.5641 13.4048L13.8602 13.4532L13.9657 12.8087L13.6696 12.7603L13.3736 12.7118L13.2681 13.3563L13.5641 13.4048ZM13.5173 13.6938L13.8134 13.7417L13.915 13.1128L13.6188 13.0649L13.3227 13.0171L13.2211 13.646L13.5173 13.6938ZM13.6188 13.0649L13.6171 13.3649L14.289 13.3688L14.2907 13.0688L14.2925 12.7689L13.6206 12.7649L13.6188 13.0649ZM14.2907 13.0688L14.28 13.3687C14.4721 13.3755 14.6361 13.4072 14.7757 13.4593L14.8806 13.1782L14.9854 12.8972C14.776 12.819 14.5469 12.7778 14.3014 12.769L14.2907 13.0688ZM14.8806 13.1782L14.7757 13.4593C14.913 13.5105 15.024 13.5819 15.1137 13.6716L15.3259 13.4595L15.538 13.2473C15.3829 13.0923 15.1971 12.9761 14.9854 12.8972L14.8806 13.1782ZM15.3259 13.4595L15.116 13.6738C15.2049 13.7609 15.2712 13.8672 15.3143 13.9984L15.5993 13.9048L15.8843 13.8112C15.8128 13.5934 15.6968 13.4028 15.5358 13.2451L15.3259 13.4595ZM15.5993 13.9048L15.3156 14.0022C15.3603 14.1324 15.3814 14.2928 15.3701 14.4891L15.6696 14.5063L15.9691 14.5236C15.9839 14.2668 15.9581 14.0261 15.883 13.8074L15.5993 13.9048ZM15.6696 14.5063L15.3702 14.488C15.3568 14.7058 15.3051 14.9004 15.2177 15.0753L15.486 15.2095L15.7543 15.3436C15.8804 15.0915 15.9511 14.8173 15.9691 14.5247L15.6696 14.5063ZM15.486 15.2095L15.2184 15.074C15.1292 15.25 15.0119 15.3993 14.8656 15.5242L15.0602 15.7524L15.2549 15.9807C15.4627 15.8035 15.6293 15.5908 15.7537 15.345L15.486 15.2095ZM15.0602 15.7524L14.8639 15.5256C14.7187 15.6513 14.551 15.7487 14.358 15.8175L14.4587 16.1001L14.5594 16.3827C14.8195 16.29 15.0528 16.1557 15.2566 15.9793L15.0602 15.7524ZM14.4587 16.1001L14.3569 15.8179C14.17 15.8853 13.9672 15.918 13.746 15.9134L13.7399 16.2134L13.7338 16.5133C14.0231 16.5192 14.2995 16.4764 14.5604 16.3823L14.4587 16.1001ZM13.7399 16.2134L13.7497 15.9135C13.5435 15.9068 13.3721 15.8669 13.2297 15.8007L13.1032 16.0728L12.9768 16.3448C13.2041 16.4505 13.4572 16.5043 13.7301 16.5132L13.7399 16.2134ZM13.1032 16.0728L13.2311 15.8014C13.0864 15.7332 12.9678 15.6421 12.8717 15.528L12.6423 15.7212L12.4128 15.9144C12.5667 16.0972 12.7555 16.2405 12.9753 16.3441L13.1032 16.0728ZM12.6423 15.7212L12.8753 15.5323C12.7782 15.4124 12.7029 15.2719 12.651 15.1074L12.3649 15.1978L12.0789 15.2881C12.1519 15.5194 12.2615 15.7279 12.4092 15.9101L12.6423 15.7212ZM12.3649 15.1978L12.6513 15.1085C12.5993 14.9414 12.5744 14.7606 12.5789 14.564L12.279 14.5571L11.9791 14.5502C11.9732 14.8068 12.0056 15.053 12.0785 15.287L12.3649 15.1978ZM12.279 14.5571V14.8571H13.4352V14.5571V14.2571H12.279V14.5571ZM13.4352 14.5571L13.1354 14.5657C13.1384 14.6732 13.1506 14.7864 13.1708 14.9045L13.4665 14.854L13.7622 14.8035C13.7459 14.7081 13.7373 14.6233 13.7351 14.5486L13.4352 14.5571ZM13.4665 14.854L13.171 14.9057C13.197 15.0542 13.2547 15.1916 13.3486 15.31L13.5837 15.1235L13.8187 14.9371C13.7928 14.9045 13.7725 14.8621 13.762 14.8023L13.4665 14.854ZM13.5837 15.1235L13.3486 15.31C13.4759 15.4705 13.6574 15.5365 13.8426 15.5406L13.8493 15.2407L13.856 14.9408C13.8287 14.9402 13.8175 14.9356 13.8161 14.935C13.8154 14.9347 13.8161 14.9349 13.8173 14.9359C13.8185 14.9368 13.819 14.9375 13.8187 14.9371L13.5837 15.1235ZM13.8493 15.2407L13.838 15.5405C14.0396 15.5481 14.2308 15.4937 14.389 15.3618L14.197 15.1313L14.0049 14.9009C13.9756 14.9253 13.9351 14.9437 13.8606 14.9409L13.8493 15.2407ZM14.197 15.1313L14.3859 15.3644C14.5191 15.2564 14.6223 15.1218 14.6954 14.9652L14.4235 14.8384L14.1517 14.7115C14.1154 14.7893 14.0675 14.8501 14.008 14.8983L14.197 15.1313ZM14.4235 14.8384L14.693 14.9701C14.7635 14.826 14.8102 14.6763 14.8304 14.5217L14.5329 14.4829L14.2354 14.4441C14.2243 14.5291 14.1981 14.6164 14.154 14.7066L14.4235 14.8384ZM14.5329 14.4829L14.8311 14.5153C14.8462 14.3764 14.8478 14.2382 14.8356 14.1009L14.5368 14.1274L14.238 14.154C14.2466 14.2511 14.2456 14.3498 14.2347 14.4505L14.5329 14.4829ZM14.5368 14.1274L14.8356 14.1009C14.8209 13.9354 14.7674 13.7796 14.6646 13.6469L14.4274 13.8306L14.1902 14.0142C14.2125 14.043 14.2319 14.0851 14.238 14.154L14.5368 14.1274ZM14.4274 13.8306L14.6646 13.6469C14.5289 13.4716 14.3252 13.4086 14.131 13.3982L14.1149 13.6978L14.0989 13.9973C14.1465 13.9999 14.1729 14.0078 14.1851 14.0129C14.1952 14.0172 14.1937 14.0187 14.1902 14.0142L14.4274 13.8306ZM14.1149 13.6978L14.1169 13.3978L13.5192 13.3939L13.5173 13.6938L13.5153 13.9938L14.113 13.9977L14.1149 13.6978Z" fill="#125A4D" mask="url(#path-10-outside-3_268_285)"/>
<rect x="0.941162" y="82.7737" width="2.82353" height="2.0438" fill="#1DBA96"/>
<rect x="0.941162" y="85.8394" width="2.82353" height="2.0438" fill="#1DBA96"/>
<rect x="0.941162" y="88.905" width="2.82353" height="2.0438" fill="#1DBA96"/>
<rect x="0.941162" y="48.0293" width="2.82353" height="2.0438" fill="#1DBA96"/>
<rect x="0.941162" y="51.095" width="2.82353" height="2.0438" fill="#1DBA96"/>
<rect x="0.941162" y="54.1606" width="2.82353" height="2.0438" fill="#1DBA96"/>
<rect x="0.941162" y="57.2263" width="2.82353" height="2.0438" fill="#1DBA96"/>
<rect x="0.941162" y="60.292" width="2.82353" height="2.0438" fill="#1DBA96"/>
<rect x="0.941162" y="79.708" width="2.82353" height="2.0438" fill="#1DBA96"/>
<rect x="0.941162" y="76.6423" width="2.82353" height="2.0438" fill="#1DBA96"/>
<rect x="0.941162" y="71.533" width="2.82353" height="2.0438" fill="#1DBA96"/>
<rect x="0.941162" y="65.4014" width="2.82353" height="2.0438" fill="#1DBA96"/>
<rect x="0.941162" y="68.467" width="2.82353" height="2.0438" fill="#1DBA96"/>
<rect x="76.2354" y="82.7737" width="2.82353" height="2.0438" fill="#1DBA96"/>
<rect x="76.2354" y="85.8394" width="2.82353" height="2.0438" fill="#1DBA96"/>
<rect x="76.2354" y="88.905" width="2.82353" height="2.0438" fill="#1DBA96"/>
<rect x="76.2354" y="48.0293" width="2.82353" height="2.0438" fill="#1DBA96"/>
<rect x="76.2354" y="51.095" width="2.82353" height="2.0438" fill="#1DBA96"/>
<rect x="76.2354" y="54.1606" width="2.82353" height="2.0438" fill="#1DBA96"/>
<rect x="76.2354" y="57.2263" width="2.82353" height="2.0438" fill="#1DBA96"/>
<rect x="76.2354" y="60.292" width="2.82353" height="2.0438" fill="#1DBA96"/>
<rect x="76.2354" y="79.708" width="2.82353" height="2.0438" fill="#1DBA96"/>
<rect x="76.2354" y="76.6423" width="2.82353" height="2.0438" fill="#1DBA96"/>
<rect x="76.2354" y="71.533" width="2.82353" height="2.0438" fill="#1DBA96"/>
<rect x="76.2354" y="65.4014" width="2.82353" height="2.0438" fill="#1DBA96"/>
<rect x="76.2354" y="68.467" width="2.82353" height="2.0438" fill="#1DBA96"/>
<rect x="28.2354" y="136.934" width="2.0438" height="1.88235" transform="rotate(90 28.2354 136.934)" fill="#1DBA96"/>
<rect x="25.4119" y="136.934" width="2.0438" height="1.88235" transform="rotate(90 25.4119 136.934)" fill="#1DBA96"/>
<rect x="22.5881" y="136.934" width="2.0438" height="1.88235" transform="rotate(90 22.5881 136.934)" fill="#1DBA96"/>
<rect x="60.2354" y="136.934" width="2.0438" height="1.88235" transform="rotate(90 60.2354 136.934)" fill="#1DBA96"/>
<rect x="57.4119" y="136.934" width="2.0438" height="1.88235" transform="rotate(90 57.4119 136.934)" fill="#1DBA96"/>
<rect x="54.5881" y="136.934" width="2.0438" height="1.88235" transform="rotate(90 54.5881 136.934)" fill="#1DBA96"/>
<rect x="51.7646" y="136.934" width="2.0438" height="1.88235" transform="rotate(90 51.7646 136.934)" fill="#1DBA96"/>
<rect x="48.9412" y="136.934" width="2.0438" height="1.88235" transform="rotate(90 48.9412 136.934)" fill="#1DBA96"/>
<rect x="31.0588" y="136.934" width="2.0438" height="1.88235" transform="rotate(90 31.0588 136.934)" fill="#1DBA96"/>
<rect x="33.8823" y="136.934" width="2.0438" height="1.88235" transform="rotate(90 33.8823 136.934)" fill="#1DBA96"/>
<rect x="38.5881" y="136.934" width="2.0438" height="1.88235" transform="rotate(90 38.5881 136.934)" fill="#1DBA96"/>
<rect x="44.2354" y="136.934" width="2.0438" height="1.88235" transform="rotate(90 44.2354 136.934)" fill="#1DBA96"/>
<rect x="41.4119" y="136.934" width="2.0438" height="1.88235" transform="rotate(90 41.4119 136.934)" fill="#1DBA96"/>
<rect x="28.2354" y="1.02197" width="2.0438" height="1.88235" transform="rotate(90 28.2354 1.02197)" fill="#1DBA96"/>
<rect x="25.4119" y="1.02197" width="2.0438" height="1.88235" transform="rotate(90 25.4119 1.02197)" fill="#1DBA96"/>
<rect x="22.5881" y="1.02197" width="2.0438" height="1.88235" transform="rotate(90 22.5881 1.02197)" fill="#1DBA96"/>
<rect x="60.2354" y="1.02197" width="2.0438" height="1.88235" transform="rotate(90 60.2354 1.02197)" fill="#1DBA96"/>
<rect x="57.4119" y="1.02197" width="2.0438" height="1.88235" transform="rotate(90 57.4119 1.02197)" fill="#1DBA96"/>
<rect x="54.5881" y="1.02197" width="2.0438" height="1.88235" transform="rotate(90 54.5881 1.02197)" fill="#1DBA96"/>
<rect x="51.7646" y="1.02197" width="2.0438" height="1.88235" transform="rotate(90 51.7646 1.02197)" fill="#1DBA96"/>
<rect x="48.9412" y="1.02197" width="2.0438" height="1.88235" transform="rotate(90 48.9412 1.02197)" fill="#1DBA96"/>
<rect x="31.0588" y="1.02197" width="2.0438" height="1.88235" transform="rotate(90 31.0588 1.02197)" fill="#1DBA96"/>
<rect x="33.8823" y="1.02197" width="2.0438" height="1.88235" transform="rotate(90 33.8823 1.02197)" fill="#1DBA96"/>
<rect x="38.5881" y="1.02197" width="2.0438" height="1.88235" transform="rotate(90 38.5881 1.02197)" fill="#1DBA96"/>
<rect x="44.2354" y="1.02197" width="2.0438" height="1.88235" transform="rotate(90 44.2354 1.02197)" fill="#1DBA96"/>
<rect x="41.4119" y="1.02197" width="2.0438" height="1.88235" transform="rotate(90 41.4119 1.02197)" fill="#1DBA96"/>
<defs>
<filter id="filter0_d_268_285" x="8.67651" y="25.0474" width="61.7058" height="101.993" filterUnits="userSpaceOnUse" color-interpolation-filters="sRGB">
<feFlood flood-opacity="0" result="BackgroundImageFix"/>
<feColorMatrix in="SourceAlpha" type="matrix" values="0 0 0 0 0 0 0 0 0 0 0 0 0 0 0 0 0 0 127 0" result="hardAlpha"/>
<feOffset dy="4"/>
<feGaussianBlur stdDeviation="2"/>
<feComposite in2="hardAlpha" operator="out"/>
<feColorMatrix type="matrix" values="0 0 0 0 0 0 0 0 0 0 0 0 0 0 0 0 0 0 0.25 0"/>
<feBlend mode="normal" in2="BackgroundImageFix" result="effect1_dropShadow_268_285"/>
<feBlend mode="normal" in="SourceGraphic" in2="effect1_dropShadow_268_285" result="shape"/>
</filter>
<filter id="filter1_d_268_285" x="15.718" y="54.7654" width="48.6812" height="39.2383" filterUnits="userSpaceOnUse" color-interpolation-filters="sRGB">
<feFlood flood-opacity="0" result="BackgroundImageFix"/>
<feColorMatrix in="SourceAlpha" type="matrix" values="0 0 0 0 0 0 0 0 0 0 0 0 0 0 0 0 0 0 127 0" result="hardAlpha"/>
<feOffset dy="4"/>
<feGaussianBlur stdDeviation="2"/>
<feComposite in2="hardAlpha" operator="out"/>
<feColorMatrix type="matrix" values="0 0 0 0 0 0 0 0 0 0 0 0 0 0 0 0 0 0 0.25 0"/>
<feBlend mode="normal" in2="BackgroundImageFix" result="effect1_dropShadow_268_285"/>
<feBlend mode="normal" in="SourceGraphic" in2="effect1_dropShadow_268_285" result="shape"/>
</filter>
<linearGradient id="paint0_linear_268_285" x1="39.9999" y1="3.06567" x2="39.9999" y2="136.934" gradientUnits="userSpaceOnUse">
<stop stop-color="#1DBA96" stop-opacity="0.95"/>
<stop offset="1" stop-color="#0D5444"/>
</linearGradient>
<linearGradient id="paint1_linear_268_285" x1="66.4433" y1="115.339" x2="63.7602" y2="132.922" gradientUnits="userSpaceOnUse">
<stop stop-color="#DBFFEB" stop-opacity="0.9"/>
<stop offset="1" stop-color="#47E08C"/>
</linearGradient>
<linearGradient id="paint2_linear_268_285" x1="56" y1="37.2992" x2="15.2641" y2="98.6925" gradientUnits="userSpaceOnUse">
<stop stop-color="#94FFC4" stop-opacity="0.9"/>
<stop offset="1" stop-color="#448762"/>
</linearGradient>
<linearGradient id="paint3_linear_268_285" x1="13.7375" y1="4.97369" x2="11.0544" y2="22.5567" gradientUnits="userSpaceOnUse">
<stop stop-color="#DBFFEB" stop-opacity="0.9"/>
<stop offset="1" stop-color="#47E08C"/>
</linearGradient>
</defs>
</svg>
