<svg width="80" height="140" viewBox="0 0 80 140" fill="none" xmlns="http://www.w3.org/2000/svg">
<rect x="0.5" y="0.5" width="79" height="139" rx="9.5" fill="white" stroke="black"/>
<rect x="4.26465" y="3.56567" width="71.4706" height="132.869" rx="9.5" fill="url(#paint0_linear_272_538)" stroke="black"/>
<path d="M66.4114 115.587C67.9053 115.815 69.1698 116.946 69.9906 118.654C70.8104 120.36 71.1702 122.614 70.8603 125.009C70.5504 127.403 69.6323 129.462 68.4111 130.857C67.1884 132.254 65.6857 132.962 64.1918 132.735C62.6978 132.507 61.4326 131.375 60.6117 129.667C59.7919 127.961 59.432 125.707 59.742 123.312C60.0519 120.918 60.97 118.859 62.1912 117.464C63.414 116.068 64.9175 115.359 66.4114 115.587Z" fill="url(#paint1_linear_272_538)" stroke="#696969" stroke-width="0.5"/>
<mask id="path-4-outside-1_272_538" maskUnits="userSpaceOnUse" x="60.729" y="120.934" width="9" height="8" fill="black">
<rect fill="white" x="60.729" y="120.934" width="9" height="8"/>
<path d="M65.6906 127.63L66.6515 121.934H67.8117L67.0734 126.188L68.1711 125.794L67.9953 126.798L65.8273 127.626L65.6906 127.63ZM61.8375 127.63L62.7984 121.934H63.9586L63.2203 126.188L64.3179 125.794L64.1422 126.798L61.9742 127.626L61.8375 127.63Z"/>
</mask>
<path d="M65.6906 127.63L66.6515 121.934H67.8117L67.0734 126.188L68.1711 125.794L67.9953 126.798L65.8273 127.626L65.6906 127.63ZM61.8375 127.63L62.7984 121.934H63.9586L63.2203 126.188L64.3179 125.794L64.1422 126.798L61.9742 127.626L61.8375 127.63Z" fill="#6C6C6C"/>
<path d="M65.6906 127.63L65.1976 127.546L65.0963 128.147L65.7049 128.129L65.6906 127.63ZM66.6515 121.934V121.434H66.2288L66.1585 121.851L66.6515 121.934ZM67.8117 121.934L68.3043 122.02L68.4059 121.434H67.8117V121.934ZM67.0734 126.188L66.5808 126.103L66.4338 126.949L67.2425 126.659L67.0734 126.188ZM68.1711 125.794L68.6636 125.88L68.812 125.032L68.0019 125.323L68.1711 125.794ZM67.9953 126.798L68.1737 127.265L68.4388 127.163L68.4878 126.884L67.9953 126.798ZM65.8273 127.626L65.8416 128.126L65.9264 128.123L66.0057 128.093L65.8273 127.626ZM65.6906 127.63L66.1836 127.713L67.1446 122.018L66.6515 121.934L66.1585 121.851L65.1976 127.546L65.6906 127.63ZM66.6515 121.934V122.434H67.8117V121.934V121.434H66.6515V121.934ZM67.8117 121.934L67.3191 121.849L66.5808 126.103L67.0734 126.188L67.566 126.274L68.3043 122.02L67.8117 121.934ZM67.0734 126.188L67.2425 126.659L68.3402 126.264L68.1711 125.794L68.0019 125.323L66.9043 125.718L67.0734 126.188ZM68.1711 125.794L67.6786 125.707L67.5028 126.711L67.9953 126.798L68.4878 126.884L68.6636 125.88L68.1711 125.794ZM67.9953 126.798L67.8169 126.331L65.6489 127.159L65.8273 127.626L66.0057 128.093L68.1737 127.265L67.9953 126.798ZM65.8273 127.626L65.813 127.126L65.6763 127.13L65.6906 127.63L65.7049 128.129L65.8416 128.126L65.8273 127.626ZM61.8375 127.63L61.3444 127.546L61.2431 128.147L61.8518 128.129L61.8375 127.63ZM62.7984 121.934V121.434H62.3757L62.3054 121.851L62.7984 121.934ZM63.9586 121.934L64.4512 122.02L64.5528 121.434H63.9586V121.934ZM63.2203 126.188L62.7277 126.103L62.5807 126.949L63.3894 126.659L63.2203 126.188ZM64.3179 125.794L64.8105 125.88L64.9589 125.032L64.1488 125.323L64.3179 125.794ZM64.1422 126.798L64.3206 127.265L64.5857 127.163L64.6347 126.884L64.1422 126.798ZM61.9742 127.626L61.9885 128.126L62.0733 128.123L62.1526 128.093L61.9742 127.626ZM61.8375 127.63L62.3305 127.713L63.2914 122.018L62.7984 121.934L62.3054 121.851L61.3444 127.546L61.8375 127.63ZM62.7984 121.934V122.434H63.9586V121.934V121.434H62.7984V121.934ZM63.9586 121.934L63.4659 121.849L62.7277 126.103L63.2203 126.188L63.7129 126.274L64.4512 122.02L63.9586 121.934ZM63.2203 126.188L63.3894 126.659L64.4871 126.264L64.3179 125.794L64.1488 125.323L63.0512 125.718L63.2203 126.188ZM64.3179 125.794L63.8254 125.707L63.6497 126.711L64.1422 126.798L64.6347 126.884L64.8105 125.88L64.3179 125.794ZM64.1422 126.798L63.9637 126.331L61.7958 127.159L61.9742 127.626L62.1526 128.093L64.3206 127.265L64.1422 126.798ZM61.9742 127.626L61.9599 127.126L61.8232 127.13L61.8375 127.63L61.8518 128.129L61.9885 128.126L61.9742 127.626Z" fill="#333333" mask="url(#path-4-outside-1_272_538)"/>
<g filter="url(#filter0_d_272_538)">
<ellipse cx="39.5295" cy="72.0437" rx="26.3529" ry="46.4963" fill="url(#paint2_linear_272_538)" shape-rendering="crispEdges"/>
<ellipse cx="39.5295" cy="72.0437" rx="26.3529" ry="46.4963" stroke="#B0B0B0" shape-rendering="crispEdges"/>
</g>
<g filter="url(#filter1_d_272_538)">
<mask id="path-7-outside-2_272_538" maskUnits="userSpaceOnUse" x="21" y="54.613" width="35" height="31" fill="black">
<rect fill="white" x="21" y="54.613" width="35" height="31"/>
<path d="M34.9562 56.1169V84.613H29.3312V62.6013L22.5734 64.7498V60.3162L34.3508 56.1169H34.9562ZM54.6141 56.1169V84.613H48.9891V62.6013L42.2312 64.7498V60.3162L54.0086 56.1169H54.6141Z"/>
</mask>
<path d="M34.9562 56.1169V84.613H29.3312V62.6013L22.5734 64.7498V60.3162L34.3508 56.1169H34.9562ZM54.6141 56.1169V84.613H48.9891V62.6013L42.2312 64.7498V60.3162L54.0086 56.1169H54.6141Z" fill="#6C6C6C"/>
<path d="M34.9562 56.1169H35.9562V55.1169H34.9562V56.1169ZM34.9562 84.613V85.613H35.9562V84.613H34.9562ZM29.3312 84.613H28.3312V85.613H29.3312V84.613ZM29.3312 62.6013H30.3312V61.2341L29.0283 61.6483L29.3312 62.6013ZM22.5734 64.7498H21.5734V66.117L22.8764 65.7028L22.5734 64.7498ZM22.5734 60.3162L22.2376 59.3742L21.5734 59.611V60.3162H22.5734ZM34.3508 56.1169V55.1169H34.1778L34.0149 55.175L34.3508 56.1169ZM34.9562 56.1169H33.9562V84.613H34.9562H35.9562V56.1169H34.9562ZM34.9562 84.613V83.613H29.3312V84.613V85.613H34.9562V84.613ZM29.3312 84.613H30.3312V62.6013H29.3312H28.3312V84.613H29.3312ZM29.3312 62.6013L29.0283 61.6483L22.2705 63.7968L22.5734 64.7498L22.8764 65.7028L29.6342 63.5543L29.3312 62.6013ZM22.5734 64.7498H23.5734V60.3162H22.5734H21.5734V64.7498H22.5734ZM22.5734 60.3162L22.9093 61.2581L34.6866 57.0589L34.3508 56.1169L34.0149 55.175L22.2376 59.3742L22.5734 60.3162ZM34.3508 56.1169V57.1169H34.9562V56.1169V55.1169H34.3508V56.1169ZM54.6141 56.1169H55.6141V55.1169H54.6141V56.1169ZM54.6141 84.613V85.613H55.6141V84.613H54.6141ZM48.9891 84.613H47.9891V85.613H48.9891V84.613ZM48.9891 62.6013H49.9891V61.2341L48.6861 61.6483L48.9891 62.6013ZM42.2312 64.7498H41.2312V66.117L42.5342 65.7028L42.2312 64.7498ZM42.2312 60.3162L41.8954 59.3742L41.2312 59.611V60.3162H42.2312ZM54.0086 56.1169V55.1169H53.8356L53.6727 55.175L54.0086 56.1169ZM54.6141 56.1169H53.6141V84.613H54.6141H55.6141V56.1169H54.6141ZM54.6141 84.613V83.613H48.9891V84.613V85.613H54.6141V84.613ZM48.9891 84.613H49.9891V62.6013H48.9891H47.9891V84.613H48.9891ZM48.9891 62.6013L48.6861 61.6483L41.9283 63.7968L42.2312 64.7498L42.5342 65.7028L49.292 63.5543L48.9891 62.6013ZM42.2312 64.7498H43.2312V60.3162H42.2312H41.2312V64.7498H42.2312ZM42.2312 60.3162L42.5671 61.2581L54.3444 57.0589L54.0086 56.1169L53.6727 55.175L41.8954 59.3742L42.2312 60.3162ZM54.0086 56.1169V57.1169H54.6141V56.1169V55.1169H54.0086V56.1169Z" fill="black" mask="url(#path-7-outside-2_272_538)"/>
</g>
<path d="M13.7056 5.22167C15.1995 5.44972 16.464 6.58097 17.2848 8.2892C18.1046 9.99542 18.4644 12.2494 18.1545 14.6439C17.8446 17.0384 16.9265 19.0973 15.7052 20.4921C14.4825 21.8885 12.9799 22.5975 11.486 22.3696C9.99202 22.1417 8.72675 21.0103 7.90588 19.3019C7.08612 17.5957 6.72622 15.3416 7.03615 12.9473C7.34609 10.5529 8.26424 8.49383 9.48541 7.09906C10.7082 5.70252 12.2116 4.99369 13.7056 5.22167Z" fill="url(#paint3_linear_272_538)" stroke="#696969" stroke-width="0.5"/>
<mask id="path-10-outside-3_272_538" maskUnits="userSpaceOnUse" x="8.76465" y="9.13135" width="8" height="8" fill="black">
<rect fill="white" x="8.76465" y="9.13135" width="8" height="8"/>
<path d="M11.7188 10.436L10.7579 16.1313H9.59774L10.336 11.8774L9.23836 12.272L9.41414 11.2681L11.5821 10.4399L11.7188 10.436ZM15.572 10.436L14.611 16.1313H13.4509L14.1891 11.8774L13.0915 12.272L13.2673 11.2681L15.4352 10.4399L15.572 10.436Z"/>
</mask>
<path d="M11.7188 10.436L10.7579 16.1313H9.59774L10.336 11.8774L9.23836 12.272L9.41414 11.2681L11.5821 10.4399L11.7188 10.436ZM15.572 10.436L14.611 16.1313H13.4509L14.1891 11.8774L13.0915 12.272L13.2673 11.2681L15.4352 10.4399L15.572 10.436Z" fill="#6C6C6C"/>
<path d="M11.7188 10.436L12.0147 10.4859L12.0754 10.1257L11.7103 10.1362L11.7188 10.436ZM10.7579 16.1313V16.4313H11.0115L11.0537 16.1813L10.7579 16.1313ZM9.59774 16.1313L9.30216 16.08L9.24119 16.4313H9.59774V16.1313ZM10.336 11.8774L10.6316 11.9287L10.7198 11.4207L10.2345 11.5951L10.336 11.8774ZM9.23836 12.272L8.94286 12.2202L8.85377 12.729L9.33984 12.5543L9.23836 12.272ZM9.41414 11.2681L9.30709 10.9878L9.14801 11.0486L9.11864 11.2163L9.41414 11.2681ZM11.5821 10.4399L11.5735 10.1401L11.5226 10.1415L11.4751 10.1597L11.5821 10.4399ZM11.7188 10.436L11.423 10.3861L10.4621 16.0814L10.7579 16.1313L11.0537 16.1813L12.0147 10.4859L11.7188 10.436ZM10.7579 16.1313V15.8313H9.59774V16.1313V16.4313H10.7579V16.1313ZM9.59774 16.1313L9.89332 16.1826L10.6316 11.9287L10.336 11.8774L10.0404 11.8261L9.30216 16.08L9.59774 16.1313ZM10.336 11.8774L10.2345 11.5951L9.13689 11.9897L9.23836 12.272L9.33984 12.5543L10.4375 12.1598L10.336 11.8774ZM9.23836 12.272L9.53387 12.3237L9.70965 11.3198L9.41414 11.2681L9.11864 11.2163L8.94286 12.2202L9.23836 12.272ZM9.41414 11.2681L9.52119 11.5483L11.6892 10.7202L11.5821 10.4399L11.4751 10.1597L9.30709 10.9878L9.41414 11.2681ZM11.5821 10.4399L11.5907 10.7398L11.7274 10.7359L11.7188 10.436L11.7103 10.1362L11.5735 10.1401L11.5821 10.4399ZM15.572 10.436L15.8678 10.4859L15.9286 10.1257L15.5634 10.1362L15.572 10.436ZM14.611 16.1313V16.4313H14.8646L14.9068 16.1813L14.611 16.1313ZM13.4509 16.1313L13.1553 16.08L13.0943 16.4313H13.4509V16.1313ZM14.1891 11.8774L14.4847 11.9287L14.5729 11.4207L14.0877 11.5951L14.1891 11.8774ZM13.0915 12.272L12.796 12.2202L12.7069 12.729L13.193 12.5543L13.0915 12.272ZM13.2673 11.2681L13.1602 10.9878L13.0011 11.0486L12.9718 11.2163L13.2673 11.2681ZM15.4352 10.4399L15.4267 10.1401L15.3758 10.1415L15.3282 10.1597L15.4352 10.4399ZM15.572 10.436L15.2761 10.3861L14.3152 16.0814L14.611 16.1313L14.9068 16.1813L15.8678 10.4859L15.572 10.436ZM14.611 16.1313V15.8313H13.4509V16.1313V16.4313H14.611V16.1313ZM13.4509 16.1313L13.7464 16.1826L14.4847 11.9287L14.1891 11.8774L13.8936 11.8261L13.1553 16.08L13.4509 16.1313ZM14.1891 11.8774L14.0877 11.5951L12.99 11.9897L13.0915 12.272L13.193 12.5543L14.2906 12.1598L14.1891 11.8774ZM13.0915 12.272L13.387 12.3237L13.5628 11.3198L13.2673 11.2681L12.9718 11.2163L12.796 12.2202L13.0915 12.272ZM13.2673 11.2681L13.3743 11.5483L15.5423 10.7202L15.4352 10.4399L15.3282 10.1597L13.1602 10.9878L13.2673 11.2681ZM15.4352 10.4399L15.4438 10.7398L15.5805 10.7359L15.572 10.436L15.5634 10.1362L15.4267 10.1401L15.4352 10.4399Z" fill="#333333" mask="url(#path-10-outside-3_272_538)"/>
<rect x="0.941162" y="68.467" width="2.82353" height="2.0438" fill="#6C6C6C"/>
<rect x="0.941162" y="73.5767" width="2.82353" height="2.0438" fill="#6C6C6C"/>
<rect x="0.941162" y="76.6423" width="2.82353" height="2.0438" fill="#6C6C6C"/>
<rect x="0.941162" y="79.708" width="2.82353" height="2.0438" fill="#6C6C6C"/>
<rect x="0.941162" y="82.7737" width="2.82353" height="2.0438" fill="#6C6C6C"/>
<rect x="0.941162" y="85.8394" width="2.82353" height="2.0438" fill="#6C6C6C"/>
<rect x="0.941162" y="51.095" width="2.82353" height="2.0438" fill="#6C6C6C"/>
<rect x="0.941162" y="63.3577" width="2.82353" height="2.0438" fill="#6C6C6C"/>
<rect x="0.941162" y="60.292" width="2.82353" height="2.0438" fill="#6C6C6C"/>
<rect x="0.941162" y="57.2263" width="2.82353" height="2.0438" fill="#6C6C6C"/>
<rect x="0.941162" y="54.1606" width="2.82353" height="2.0438" fill="#6C6C6C"/>
<rect x="76.2354" y="68.467" width="2.82353" height="2.0438" fill="#6C6C6C"/>
<rect x="76.2354" y="73.5767" width="2.82353" height="2.0438" fill="#6C6C6C"/>
<rect x="76.2354" y="76.6423" width="2.82353" height="2.0438" fill="#6C6C6C"/>
<rect x="76.2354" y="79.708" width="2.82353" height="2.0438" fill="#6C6C6C"/>
<rect x="76.2354" y="82.7737" width="2.82353" height="2.0438" fill="#6C6C6C"/>
<rect x="76.2354" y="85.8394" width="2.82353" height="2.0438" fill="#6C6C6C"/>
<rect x="76.2354" y="63.3577" width="2.82353" height="2.0438" fill="#6C6C6C"/>
<rect x="76.2354" y="60.292" width="2.82353" height="2.0438" fill="#6C6C6C"/>
<rect x="76.2354" y="57.2263" width="2.82353" height="2.0438" fill="#6C6C6C"/>
<rect x="76.2354" y="54.1606" width="2.82353" height="2.0438" fill="#6C6C6C"/>
<rect x="76.2354" y="51.095" width="2.82353" height="2.0438" fill="#6C6C6C"/>
<rect x="41.4119" y="1.02197" width="2.0438" height="1.88235" transform="rotate(90 41.4119 1.02197)" fill="#6C6C6C"/>
<rect x="36.7058" y="1.02197" width="2.0438" height="1.88235" transform="rotate(90 36.7058 1.02197)" fill="#6C6C6C"/>
<rect x="33.8823" y="1.02197" width="2.0438" height="1.88235" transform="rotate(90 33.8823 1.02197)" fill="#6C6C6C"/>
<rect x="31.0588" y="1.02197" width="2.0438" height="1.88235" transform="rotate(90 31.0588 1.02197)" fill="#6C6C6C"/>
<rect x="28.2354" y="1.02197" width="2.0438" height="1.88235" transform="rotate(90 28.2354 1.02197)" fill="#6C6C6C"/>
<rect x="25.4119" y="1.02197" width="2.0438" height="1.88235" transform="rotate(90 25.4119 1.02197)" fill="#6C6C6C"/>
<rect x="46.1177" y="1.02197" width="2.0438" height="1.88235" transform="rotate(90 46.1177 1.02197)" fill="#6C6C6C"/>
<rect x="48.9412" y="1.02197" width="2.0438" height="1.88235" transform="rotate(90 48.9412 1.02197)" fill="#6C6C6C"/>
<rect x="51.7646" y="1.02197" width="2.0438" height="1.88235" transform="rotate(90 51.7646 1.02197)" fill="#6C6C6C"/>
<rect x="54.5881" y="1.02197" width="2.0438" height="1.88235" transform="rotate(90 54.5881 1.02197)" fill="#6C6C6C"/>
<rect x="57.4119" y="1.02197" width="2.0438" height="1.88235" transform="rotate(90 57.4119 1.02197)" fill="#6C6C6C"/>
<rect x="41.4119" y="136.934" width="2.0438" height="1.88235" transform="rotate(90 41.4119 136.934)" fill="#6C6C6C"/>
<rect x="36.7058" y="136.934" width="2.0438" height="1.88235" transform="rotate(90 36.7058 136.934)" fill="#6C6C6C"/>
<rect x="33.8823" y="136.934" width="2.0438" height="1.88235" transform="rotate(90 33.8823 136.934)" fill="#6C6C6C"/>
<rect x="31.0588" y="136.934" width="2.0438" height="1.88235" transform="rotate(90 31.0588 136.934)" fill="#6C6C6C"/>
<rect x="28.2354" y="136.934" width="2.0438" height="1.88235" transform="rotate(90 28.2354 136.934)" fill="#6C6C6C"/>
<rect x="25.4119" y="136.934" width="2.0438" height="1.88235" transform="rotate(90 25.4119 136.934)" fill="#6C6C6C"/>
<rect x="46.1177" y="136.934" width="2.0438" height="1.88235" transform="rotate(90 46.1177 136.934)" fill="#6C6C6C"/>
<rect x="48.9412" y="136.934" width="2.0438" height="1.88235" transform="rotate(90 48.9412 136.934)" fill="#6C6C6C"/>
<rect x="51.7646" y="136.934" width="2.0438" height="1.88235" transform="rotate(90 51.7646 136.934)" fill="#6C6C6C"/>
<rect x="54.5881" y="136.934" width="2.0438" height="1.88235" transform="rotate(90 54.5881 136.934)" fill="#6C6C6C"/>
<rect x="57.4119" y="136.934" width="2.0438" height="1.88235" transform="rotate(90 57.4119 136.934)" fill="#6C6C6C"/>
<defs>
<filter id="filter0_d_272_538" x="8.67651" y="25.0474" width="61.7058" height="101.993" filterUnits="userSpaceOnUse" color-interpolation-filters="sRGB">
<feFlood flood-opacity="0" result="BackgroundImageFix"/>
<feColorMatrix in="SourceAlpha" type="matrix" values="0 0 0 0 0 0 0 0 0 0 0 0 0 0 0 0 0 0 127 0" result="hardAlpha"/>
<feOffset dy="4"/>
<feGaussianBlur stdDeviation="2"/>
<feComposite in2="hardAlpha" operator="out"/>
<feColorMatrix type="matrix" values="0 0 0 0 0 0 0 0 0 0 0 0 0 0 0 0 0 0 0.25 0"/>
<feBlend mode="normal" in2="BackgroundImageFix" result="effect1_dropShadow_272_538"/>
<feBlend mode="normal" in="SourceGraphic" in2="effect1_dropShadow_272_538" result="shape"/>
</filter>
<filter id="filter1_d_272_538" x="17.5735" y="55.1169" width="42.0405" height="38.4961" filterUnits="userSpaceOnUse" color-interpolation-filters="sRGB">
<feFlood flood-opacity="0" result="BackgroundImageFix"/>
<feColorMatrix in="SourceAlpha" type="matrix" values="0 0 0 0 0 0 0 0 0 0 0 0 0 0 0 0 0 0 127 0" result="hardAlpha"/>
<feOffset dy="4"/>
<feGaussianBlur stdDeviation="2"/>
<feComposite in2="hardAlpha" operator="out"/>
<feColorMatrix type="matrix" values="0 0 0 0 0 0 0 0 0 0 0 0 0 0 0 0 0 0 0.25 0"/>
<feBlend mode="normal" in2="BackgroundImageFix" result="effect1_dropShadow_272_538"/>
<feBlend mode="normal" in="SourceGraphic" in2="effect1_dropShadow_272_538" result="shape"/>
</filter>
<linearGradient id="paint0_linear_272_538" x1="39.9999" y1="3.06567" x2="39.9999" y2="136.934" gradientUnits="userSpaceOnUse">
<stop stop-color="#6C6C6C" stop-opacity="0.95"/>
<stop offset="1" stop-color="#404040"/>
</linearGradient>
<linearGradient id="paint1_linear_272_538" x1="66.4433" y1="115.339" x2="63.7602" y2="132.922" gradientUnits="userSpaceOnUse">
<stop stop-color="#E7E7E7" stop-opacity="0.95"/>
<stop offset="1" stop-color="#757575"/>
</linearGradient>
<linearGradient id="paint2_linear_272_538" x1="51.2942" y1="31.6788" x2="20.3469" y2="108.186" gradientUnits="userSpaceOnUse">
<stop stop-color="#CCCCCC" stop-opacity="0.95"/>
<stop offset="1" stop-color="#666666"/>
</linearGradient>
<linearGradient id="paint3_linear_272_538" x1="13.7375" y1="4.97369" x2="11.0544" y2="22.5567" gradientUnits="userSpaceOnUse">
<stop stop-color="#E7E7E7" stop-opacity="0.95"/>
<stop offset="1" stop-color="#757575"/>
</linearGradient>
</defs>
</svg>
