<svg width="85" height="137" viewBox="0 0 85 137" fill="none" xmlns="http://www.w3.org/2000/svg">
<rect x="0.5" y="0.5" width="84" height="136" rx="9.5" fill="white" stroke="black"/>
<rect x="4.5" y="3.5" width="76" height="130" rx="9.5" fill="url(#paint0_linear_272_469)" stroke="black"/>
<path d="M70.5616 113.115C72.1644 113.34 73.5106 114.456 74.381 116.125C75.2511 117.793 75.633 119.994 75.3044 122.332C74.9758 124.67 74.0018 126.682 72.7056 128.046C71.4092 129.409 69.8073 130.111 68.2046 129.885C66.6017 129.66 65.2545 128.544 64.3841 126.876C63.5139 125.208 63.1322 123.006 63.4608 120.668C63.7894 118.33 64.7634 116.319 66.0594 114.955C67.356 113.591 68.9586 112.889 70.5616 113.115Z" fill="url(#paint1_linear_272_469)" stroke="#B51D83" stroke-width="0.5"/>
<mask id="path-4-outside-1_272_469" maskUnits="userSpaceOnUse" x="64.4622" y="118" width="9" height="8" fill="black">
<rect fill="white" x="64.4622" y="118" width="9" height="8"/>
<path d="M70.0102 124.695L70.9711 119H72.1313L71.393 123.254L72.4906 122.859L72.3149 123.863L70.1469 124.691L70.0102 124.695ZM65.8758 119.965L66.0281 119H69.3172L69.1844 119.863L67.4344 121.762C67.3328 121.879 67.23 122.007 67.1258 122.145C67.0216 122.285 66.9305 122.432 66.8524 122.586C66.7716 122.742 66.7209 122.9 66.7 123.059C66.6896 123.145 66.6844 123.246 66.6844 123.363C66.6818 123.483 66.7026 123.587 66.7469 123.676C66.7912 123.767 66.8784 123.814 67.0086 123.816C67.1623 123.824 67.282 123.773 67.368 123.664C67.4513 123.555 67.5112 123.426 67.5477 123.277C67.5841 123.129 67.6076 122.997 67.618 122.883L68.7742 122.875C68.756 123.214 68.6649 123.527 68.5008 123.816C68.3367 124.108 68.118 124.341 67.8445 124.516C67.5685 124.693 67.2521 124.779 66.8953 124.773C66.575 124.768 66.3068 124.697 66.0906 124.559C65.8719 124.421 65.7117 124.23 65.6102 123.988C65.506 123.749 65.4682 123.473 65.4969 123.16C65.5151 122.928 65.5698 122.71 65.661 122.504C65.7521 122.301 65.8654 122.109 66.0008 121.93C66.1336 121.75 66.2781 121.576 66.4344 121.406C66.5906 121.24 66.743 121.076 66.8914 120.914L67.6375 119.969L65.8758 119.965Z"/>
</mask>
<path d="M70.0102 124.695L70.9711 119H72.1313L71.393 123.254L72.4906 122.859L72.3149 123.863L70.1469 124.691L70.0102 124.695ZM65.8758 119.965L66.0281 119H69.3172L69.1844 119.863L67.4344 121.762C67.3328 121.879 67.23 122.007 67.1258 122.145C67.0216 122.285 66.9305 122.432 66.8524 122.586C66.7716 122.742 66.7209 122.9 66.7 123.059C66.6896 123.145 66.6844 123.246 66.6844 123.363C66.6818 123.483 66.7026 123.587 66.7469 123.676C66.7912 123.767 66.8784 123.814 67.0086 123.816C67.1623 123.824 67.282 123.773 67.368 123.664C67.4513 123.555 67.5112 123.426 67.5477 123.277C67.5841 123.129 67.6076 122.997 67.618 122.883L68.7742 122.875C68.756 123.214 68.6649 123.527 68.5008 123.816C68.3367 124.108 68.118 124.341 67.8445 124.516C67.5685 124.693 67.2521 124.779 66.8953 124.773C66.575 124.768 66.3068 124.697 66.0906 124.559C65.8719 124.421 65.7117 124.23 65.6102 123.988C65.506 123.749 65.4682 123.473 65.4969 123.16C65.5151 122.928 65.5698 122.71 65.661 122.504C65.7521 122.301 65.8654 122.109 66.0008 121.93C66.1336 121.75 66.2781 121.576 66.4344 121.406C66.5906 121.24 66.743 121.076 66.8914 120.914L67.6375 119.969L65.8758 119.965Z" fill="#CD1696"/>
<path d="M70.0102 124.695L69.7144 124.645L69.6536 125.006L70.0187 124.995L70.0102 124.695ZM70.9711 119V118.7H70.7175L70.6753 118.95L70.9711 119ZM72.1313 119L72.4268 119.051L72.4878 118.7H72.1313V119ZM71.393 123.254L71.0974 123.203L71.0092 123.711L71.4945 123.536L71.393 123.254ZM72.4906 122.859L72.7861 122.911L72.8752 122.402L72.3892 122.577L72.4906 122.859ZM72.3149 123.863L72.4219 124.144L72.581 124.083L72.6104 123.915L72.3149 123.863ZM70.1469 124.691L70.1555 124.991L70.2064 124.99L70.2539 124.972L70.1469 124.691ZM70.0102 124.695L70.306 124.745L71.2669 119.05L70.9711 119L70.6753 118.95L69.7144 124.645L70.0102 124.695ZM70.9711 119V119.3H72.1313V119V118.7H70.9711V119ZM72.1313 119L71.8357 118.949L71.0974 123.203L71.393 123.254L71.6886 123.305L72.4268 119.051L72.1313 119ZM71.393 123.254L71.4945 123.536L72.5921 123.142L72.4906 122.859L72.3892 122.577L71.2915 122.972L71.393 123.254ZM72.4906 122.859L72.1951 122.808L72.0194 123.812L72.3149 123.863L72.6104 123.915L72.7861 122.911L72.4906 122.859ZM72.3149 123.863L72.2078 123.583L70.0398 124.411L70.1469 124.691L70.2539 124.972L72.4219 124.144L72.3149 123.863ZM70.1469 124.691L70.1383 124.392L70.0016 124.395L70.0102 124.695L70.0187 124.995L70.1555 124.991L70.1469 124.691ZM65.8758 119.965L65.5795 119.918L65.5248 120.264L65.8751 120.265L65.8758 119.965ZM66.0281 119V118.7H65.7718L65.7318 118.953L66.0281 119ZM69.3172 119L69.6137 119.046L69.6669 118.7H69.3172V119ZM69.1844 119.863L69.405 120.067L69.467 119.999L69.4809 119.909L69.1844 119.863ZM67.4344 121.762L67.2137 121.558L67.2077 121.565L67.4344 121.762ZM67.1258 122.145L66.8863 121.964L66.8847 121.966L67.1258 122.145ZM66.8524 122.586L67.1189 122.724L67.1198 122.722L66.8524 122.586ZM66.7 123.059L66.4026 123.02L66.4022 123.022L66.7 123.059ZM66.6844 123.363L66.9844 123.37V123.363H66.6844ZM66.7469 123.676L67.0168 123.545L67.0152 123.542L66.7469 123.676ZM67.0086 123.816L67.0239 123.517L67.0146 123.516L67.0086 123.816ZM67.368 123.664L67.6039 123.849L67.6066 123.846L67.368 123.664ZM67.618 122.883L67.616 122.583L67.3439 122.585L67.3192 122.856L67.618 122.883ZM68.7742 122.875L69.0738 122.891L69.0909 122.573L68.7722 122.575L68.7742 122.875ZM68.5008 123.816L68.2399 123.668L68.2393 123.669L68.5008 123.816ZM67.8445 124.516L67.6832 124.263L67.6826 124.263L67.8445 124.516ZM66.8953 124.773L66.8905 125.073L66.891 125.073L66.8953 124.773ZM66.0906 124.559L66.2521 124.306L66.2507 124.305L66.0906 124.559ZM65.6102 123.988L65.8869 123.872L65.8853 123.869L65.6102 123.988ZM65.4969 123.16L65.7957 123.188L65.796 123.184L65.4969 123.16ZM65.661 122.504L65.3872 122.381L65.3867 122.382L65.661 122.504ZM66.0008 121.93L66.2404 122.11L66.2421 122.108L66.0008 121.93ZM66.4344 121.406L66.2155 121.201L66.214 121.203L66.4344 121.406ZM66.8914 120.914L67.1123 121.117L67.1199 121.109L67.1269 121.1L66.8914 120.914ZM67.6375 119.969L67.873 120.155L68.2554 119.67L67.6382 119.669L67.6375 119.969ZM65.8758 119.965L66.1721 120.012L66.3245 119.047L66.0281 119L65.7318 118.953L65.5795 119.918L65.8758 119.965ZM66.0281 119V119.3H69.3172V119V118.7H66.0281V119ZM69.3172 119L69.0207 118.954L68.8879 119.818L69.1844 119.863L69.4809 119.909L69.6137 119.046L69.3172 119ZM69.1844 119.863L68.9638 119.66L67.2138 121.558L67.4344 121.762L67.655 121.965L69.405 120.067L69.1844 119.863ZM67.4344 121.762L67.2077 121.565C67.1012 121.688 66.9941 121.821 66.8863 121.964L67.1258 122.145L67.3653 122.325C67.4658 122.192 67.5644 122.07 67.6611 121.958L67.4344 121.762ZM67.1258 122.145L66.8847 121.966C66.7708 122.12 66.6708 122.281 66.5849 122.45L66.8524 122.586L67.1198 122.722C67.1902 122.583 67.2725 122.45 67.3669 122.323L67.1258 122.145ZM66.8524 122.586L66.5858 122.448C66.4907 122.632 66.4283 122.823 66.4026 123.02L66.7 123.059L66.9975 123.098C67.0134 122.976 67.0525 122.852 67.1189 122.724L66.8524 122.586ZM66.7 123.059L66.4022 123.022C66.3899 123.124 66.3844 123.238 66.3844 123.363H66.6844H66.9844C66.9844 123.254 66.9893 123.165 66.9978 123.095L66.7 123.059ZM66.6844 123.363L66.3845 123.357C66.381 123.515 66.4083 123.67 66.4786 123.81L66.7469 123.676L67.0152 123.542C66.9969 123.505 66.9826 123.451 66.9843 123.37L66.6844 123.363ZM66.7469 123.676L66.477 123.807C66.5852 124.03 66.7977 124.112 67.0026 124.116L67.0086 123.816L67.0146 123.516C66.9826 123.516 66.9782 123.51 66.9875 123.515C66.9925 123.518 66.9991 123.522 67.0053 123.529C67.0116 123.535 67.0151 123.541 67.0167 123.545L66.7469 123.676ZM67.0086 123.816L66.9934 124.116C67.2323 124.128 67.4507 124.044 67.6039 123.849L67.368 123.664L67.1321 123.479C67.1134 123.502 67.0922 123.52 67.0238 123.517L67.0086 123.816ZM67.368 123.664L67.6066 123.846C67.7175 123.7 67.7938 123.533 67.839 123.349L67.5477 123.277L67.2563 123.206C67.2286 123.319 67.1851 123.409 67.1294 123.482L67.368 123.664ZM67.5477 123.277L67.839 123.349C67.878 123.19 67.9046 123.043 67.9168 122.91L67.618 122.883L67.3192 122.856C67.3105 122.951 67.2903 123.068 67.2563 123.206L67.5477 123.277ZM67.618 122.883L67.62 123.183L68.7763 123.175L68.7742 122.875L68.7722 122.575L67.616 122.583L67.618 122.883ZM68.7742 122.875L68.4747 122.859C68.4589 123.152 68.3806 123.42 68.2399 123.668L68.5008 123.816L68.7617 123.964C68.9492 123.634 69.0531 123.275 69.0738 122.891L68.7742 122.875ZM68.5008 123.816L68.2393 123.669C68.0986 123.919 67.9137 124.116 67.6832 124.263L67.8445 124.516L68.0059 124.769C68.3223 124.567 68.5748 124.297 68.7623 123.963L68.5008 123.816ZM67.8445 124.516L67.6826 124.263C67.4605 124.406 67.203 124.478 66.8997 124.473L66.8953 124.773L66.891 125.073C67.3012 125.079 67.6765 124.98 68.0065 124.768L67.8445 124.516ZM66.8953 124.773L66.9002 124.473C66.6217 124.469 66.411 124.407 66.2521 124.306L66.0906 124.559L65.9292 124.811C66.2025 124.986 66.5284 125.068 66.8905 125.073L66.8953 124.773ZM66.0906 124.559L66.2507 124.305C66.0849 124.2 65.965 124.059 65.8868 123.872L65.6102 123.988L65.3335 124.104C65.4585 124.402 65.6589 124.641 65.9306 124.812L66.0906 124.559ZM65.6102 123.988L65.8853 123.869C65.8049 123.684 65.7707 123.46 65.7956 123.188L65.4969 123.16L65.1981 123.133C65.1658 123.485 65.2071 123.814 65.3351 124.108L65.6102 123.988ZM65.4969 123.16L65.796 123.184C65.8116 122.985 65.8583 122.799 65.9352 122.625L65.661 122.504L65.3867 122.382C65.2813 122.62 65.2186 122.872 65.1978 123.137L65.4969 123.16ZM65.661 122.504L65.9347 122.627C66.0165 122.444 66.1183 122.272 66.2404 122.11L66.0008 121.93L65.7612 121.749C65.6124 121.947 65.4877 122.157 65.3872 122.381L65.661 122.504ZM66.0008 121.93L66.2421 122.108C66.3682 121.937 66.5057 121.771 66.6548 121.61L66.4344 121.406L66.214 121.203C66.0505 121.38 65.899 121.563 65.7595 121.751L66.0008 121.93ZM66.4344 121.406L66.6533 121.611C66.8101 121.444 66.9632 121.279 67.1123 121.117L66.8914 120.914L66.6706 120.711C66.5228 120.872 66.3711 121.035 66.2155 121.201L66.4344 121.406ZM66.8914 120.914L67.1269 121.1L67.873 120.155L67.6375 119.969L67.402 119.783L66.6559 120.728L66.8914 120.914ZM67.6375 119.969L67.6382 119.669L65.8765 119.665L65.8758 119.965L65.8751 120.265L67.6369 120.269L67.6375 119.969Z" fill="#600C57" mask="url(#path-4-outside-1_272_469)"/>
<g filter="url(#filter0_d_272_469)">
<ellipse cx="42" cy="70.5" rx="28" ry="45.5" fill="url(#paint2_linear_272_469)" shape-rendering="crispEdges"/>
<ellipse cx="42" cy="70.5" rx="28" ry="45.5" stroke="#EC22A9" shape-rendering="crispEdges"/>
</g>
<g filter="url(#filter1_d_272_469)">
<mask id="path-7-outside-2_272_469" maskUnits="userSpaceOnUse" x="22" y="53" width="42" height="31" fill="black">
<rect fill="white" x="22" y="53" width="42" height="31"/>
<path d="M35.6008 54.5039V83H29.9758V60.9883L23.218 63.1367V58.7031L34.9953 54.5039H35.6008ZM62.2508 78.6055V83H42.7977V79.25L51.9969 69.3867C52.9214 68.3581 53.6505 67.4531 54.1844 66.6719C54.7182 65.8776 55.1023 65.168 55.3367 64.543C55.5841 63.9049 55.7078 63.2995 55.7078 62.7266C55.7078 61.8672 55.5646 61.1315 55.2781 60.5195C54.9917 59.8945 54.5685 59.4128 54.0086 59.0742C53.4617 58.7357 52.7846 58.5664 51.9773 58.5664C51.118 58.5664 50.3758 58.7747 49.7508 59.1914C49.1388 59.6081 48.67 60.1875 48.3445 60.9297C48.032 61.6719 47.8758 62.5117 47.8758 63.4492H42.2312C42.2312 61.7565 42.6349 60.207 43.4422 58.8008C44.2495 57.3815 45.3888 56.2552 46.8602 55.4219C48.3315 54.5755 50.0763 54.1523 52.0945 54.1523C54.0867 54.1523 55.7664 54.4779 57.1336 55.1289C58.5138 55.7669 59.5555 56.6914 60.2586 57.9023C60.9747 59.1003 61.3328 60.5326 61.3328 62.1992C61.3328 63.1367 61.1831 64.0547 60.8836 64.9531C60.5841 65.8385 60.1544 66.724 59.5945 67.6094C59.0477 68.4818 58.3836 69.3672 57.6023 70.2656C56.8211 71.1641 55.9552 72.0951 55.0047 73.0586L50.0633 78.6055H62.2508Z"/>
</mask>
<path d="M35.6008 54.5039V83H29.9758V60.9883L23.218 63.1367V58.7031L34.9953 54.5039H35.6008ZM62.2508 78.6055V83H42.7977V79.25L51.9969 69.3867C52.9214 68.3581 53.6505 67.4531 54.1844 66.6719C54.7182 65.8776 55.1023 65.168 55.3367 64.543C55.5841 63.9049 55.7078 63.2995 55.7078 62.7266C55.7078 61.8672 55.5646 61.1315 55.2781 60.5195C54.9917 59.8945 54.5685 59.4128 54.0086 59.0742C53.4617 58.7357 52.7846 58.5664 51.9773 58.5664C51.118 58.5664 50.3758 58.7747 49.7508 59.1914C49.1388 59.6081 48.67 60.1875 48.3445 60.9297C48.032 61.6719 47.8758 62.5117 47.8758 63.4492H42.2312C42.2312 61.7565 42.6349 60.207 43.4422 58.8008C44.2495 57.3815 45.3888 56.2552 46.8602 55.4219C48.3315 54.5755 50.0763 54.1523 52.0945 54.1523C54.0867 54.1523 55.7664 54.4779 57.1336 55.1289C58.5138 55.7669 59.5555 56.6914 60.2586 57.9023C60.9747 59.1003 61.3328 60.5326 61.3328 62.1992C61.3328 63.1367 61.1831 64.0547 60.8836 64.9531C60.5841 65.8385 60.1544 66.724 59.5945 67.6094C59.0477 68.4818 58.3836 69.3672 57.6023 70.2656C56.8211 71.1641 55.9552 72.0951 55.0047 73.0586L50.0633 78.6055H62.2508Z" fill="#CD1696"/>
<path d="M35.6008 54.5039H36.6008V53.5039H35.6008V54.5039ZM35.6008 83V84H36.6008V83H35.6008ZM29.9758 83H28.9758V84H29.9758V83ZM29.9758 60.9883H30.9758V59.621L29.6728 60.0353L29.9758 60.9883ZM23.218 63.1367H22.218V64.504L23.5209 64.0897L23.218 63.1367ZM23.218 58.7031L22.8821 57.7612L22.218 57.998V58.7031H23.218ZM34.9953 54.5039V53.5039H34.8224L34.6595 53.562L34.9953 54.5039ZM35.6008 54.5039H34.6008V83H35.6008H36.6008V54.5039H35.6008ZM35.6008 83V82H29.9758V83V84H35.6008V83ZM29.9758 83H30.9758V60.9883H29.9758H28.9758V83H29.9758ZM29.9758 60.9883L29.6728 60.0353L22.915 62.1837L23.218 63.1367L23.5209 64.0897L30.2788 61.9413L29.9758 60.9883ZM23.218 63.1367H24.218V58.7031H23.218H22.218V63.1367H23.218ZM23.218 58.7031L23.5538 59.645L35.3312 55.4458L34.9953 54.5039L34.6595 53.562L22.8821 57.7612L23.218 58.7031ZM34.9953 54.5039V55.5039H35.6008V54.5039V53.5039H34.9953V54.5039ZM62.2508 78.6055H63.2508V77.6055H62.2508V78.6055ZM62.2508 83V84H63.2508V83H62.2508ZM42.7977 83H41.7977V84H42.7977V83ZM42.7977 79.25L42.0664 78.5679L41.7977 78.856V79.25H42.7977ZM51.9969 69.3867L52.7282 70.0688L52.7345 70.062L52.7406 70.0552L51.9969 69.3867ZM54.1844 66.6719L55.01 67.2361L55.0143 67.2297L54.1844 66.6719ZM55.3367 64.543L54.4043 64.1814L54.4004 64.1918L55.3367 64.543ZM55.2781 60.5195L54.369 60.9362L54.3724 60.9435L55.2781 60.5195ZM54.0086 59.0742L53.4822 59.9245L53.4912 59.93L54.0086 59.0742ZM49.7508 59.1914L49.1961 58.3593L49.188 58.3648L49.7508 59.1914ZM48.3445 60.9297L47.4287 60.528L47.4258 60.5348L47.4229 60.5416L48.3445 60.9297ZM47.8758 63.4492V64.4492H48.8758V63.4492H47.8758ZM42.2312 63.4492H41.2312V64.4492H42.2312V63.4492ZM43.4422 58.8008L44.3094 59.2987L44.3114 59.2952L43.4422 58.8008ZM46.8602 55.4219L47.353 56.292L47.3588 56.2887L46.8602 55.4219ZM57.1336 55.1289L56.7036 56.0318L56.714 56.0366L57.1336 55.1289ZM60.2586 57.9023L59.3937 58.4045L59.4003 58.4155L60.2586 57.9023ZM60.8836 64.9531L61.8309 65.2735L61.8323 65.2694L60.8836 64.9531ZM59.5945 67.6094L58.7493 67.0749L58.7472 67.0782L59.5945 67.6094ZM55.0047 73.0586L54.2928 72.3563L54.2749 72.3744L54.258 72.3934L55.0047 73.0586ZM50.0633 78.6055L49.3166 77.9403L47.8332 79.6055H50.0633V78.6055ZM62.2508 78.6055H61.2508V83H62.2508H63.2508V78.6055H62.2508ZM62.2508 83V82H42.7977V83V84H62.2508V83ZM42.7977 83H43.7977V79.25H42.7977H41.7977V83H42.7977ZM42.7977 79.25L43.5289 79.9321L52.7282 70.0688L51.9969 69.3867L51.2656 68.7047L42.0664 78.5679L42.7977 79.25ZM51.9969 69.3867L52.7406 70.0552C53.6825 69.0072 54.4427 68.0663 55.01 67.2361L54.1844 66.6719L53.3587 66.1077C52.8583 66.84 52.1602 67.709 51.2531 68.7183L51.9969 69.3867ZM54.1844 66.6719L55.0143 67.2297C55.5745 66.3962 56.0024 65.6158 56.273 64.8941L55.3367 64.543L54.4004 64.1918C54.2023 64.7202 53.8619 65.359 53.3544 66.114L54.1844 66.6719ZM55.3367 64.543L56.2691 64.9045C56.5527 64.1731 56.7078 63.4446 56.7078 62.7266H55.7078H54.7078C54.7078 63.1543 54.6155 63.6368 54.4044 64.1814L55.3367 64.543ZM55.7078 62.7266H56.7078C56.7078 61.7592 56.5469 60.8712 56.1838 60.0956L55.2781 60.5195L54.3724 60.9435C54.5823 61.3918 54.7078 61.9752 54.7078 62.7266H55.7078ZM55.2781 60.5195L56.1872 60.1029C55.8216 59.3053 55.2665 58.6662 54.526 58.2185L54.0086 59.0742L53.4912 59.93C53.8705 60.1593 54.1617 60.4837 54.3691 60.9362L55.2781 60.5195ZM54.0086 59.0742L54.5349 58.224C53.7942 57.7654 52.9235 57.5664 51.9773 57.5664V58.5664V59.5664C52.6458 59.5664 53.1292 59.706 53.4822 59.9245L54.0086 59.0742ZM51.9773 58.5664V57.5664C50.9498 57.5664 50.0081 57.818 49.1961 58.3594L49.7508 59.1914L50.3055 60.0235C50.7434 59.7315 51.2861 59.5664 51.9773 59.5664V58.5664ZM49.7508 59.1914L49.188 58.3648C48.4062 58.8971 47.8223 59.6307 47.4287 60.528L48.3445 60.9297L49.2603 61.3313C49.5178 60.7443 49.8714 60.3191 50.3136 60.018L49.7508 59.1914ZM48.3445 60.9297L47.4229 60.5416C47.0509 61.4251 46.8758 62.4001 46.8758 63.4492H47.8758H48.8758C48.8758 62.6234 49.0132 61.9186 49.2662 61.3177L48.3445 60.9297ZM47.8758 63.4492V62.4492H42.2312V63.4492V64.4492H47.8758V63.4492ZM42.2312 63.4492H43.2312C43.2312 61.9232 43.593 60.5466 44.3094 59.2986L43.4422 58.8008L42.5749 58.3029C41.6768 59.8675 41.2312 61.5898 41.2312 63.4492H42.2312ZM43.4422 58.8008L44.3114 59.2952C45.0262 58.0386 46.0328 57.0397 47.353 56.292L46.8602 55.4219L46.3673 54.5517C44.7448 55.4707 43.4728 56.7244 42.573 58.3064L43.4422 58.8008ZM46.8602 55.4219L47.3588 56.2887C48.652 55.5448 50.2181 55.1523 52.0945 55.1523V54.1523V53.1523C49.9345 53.1523 48.011 53.6063 46.3615 54.5551L46.8602 55.4219ZM52.0945 54.1523V55.1523C53.9829 55.1523 55.5062 55.4615 56.7037 56.0318L57.1336 55.1289L57.5635 54.226C56.0266 53.4942 54.1905 53.1523 52.0945 53.1523V54.1523ZM57.1336 55.1289L56.714 56.0366C57.9245 56.5962 58.8028 57.3867 59.3938 58.4045L60.2586 57.9023L61.1234 57.4002C60.3081 55.9961 59.1031 54.9377 57.5532 54.2212L57.1336 55.1289ZM60.2586 57.9023L59.4003 58.4155C60.0071 59.4306 60.3328 60.678 60.3328 62.1992H61.3328H62.3328C62.3328 60.3871 61.9423 58.77 61.1169 57.3892L60.2586 57.9023ZM61.3328 62.1992H60.3328C60.3328 63.0281 60.2007 63.8394 59.9349 64.6369L60.8836 64.9531L61.8323 65.2694C62.1654 64.27 62.3328 63.2453 62.3328 62.1992H61.3328ZM60.8836 64.9531L59.9363 64.6327C59.6651 65.4346 59.2719 66.2486 58.7493 67.0749L59.5945 67.6094L60.4397 68.1438C61.037 67.1993 61.5031 66.2425 61.8309 65.2735L60.8836 64.9531ZM59.5945 67.6094L58.7472 67.0782C58.2318 67.9004 57.6 68.7443 56.8477 69.6094L57.6023 70.2656L58.3569 70.9218C59.1671 69.9901 59.8635 69.0631 60.4418 68.1405L59.5945 67.6094ZM57.6023 70.2656L56.8477 69.6094C56.0819 70.4901 55.2305 71.4057 54.2928 72.3563L55.0047 73.0586L55.7166 73.7609C56.6799 72.7844 57.5602 71.838 58.3569 70.9218L57.6023 70.2656ZM55.0047 73.0586L54.258 72.3934L49.3166 77.9403L50.0633 78.6055L50.81 79.2706L55.7514 73.7238L55.0047 73.0586ZM50.0633 78.6055V79.6055H62.2508V78.6055V77.6055H50.0633V78.6055Z" fill="black" mask="url(#path-7-outside-2_272_469)"/>
</g>
<path d="M14.5616 5.11468C16.1644 5.34009 17.5106 6.45647 18.381 8.12475C19.2511 9.79263 19.633 11.9941 19.3044 14.3322C18.9758 16.6705 18.0018 18.6822 16.7056 20.0457C15.4092 21.4091 13.8073 22.1105 12.2046 21.8854C10.6017 21.6601 9.25448 20.5443 8.38406 18.8762C7.51391 17.2083 7.13218 15.006 7.4608 12.6677C7.7894 10.3296 8.76336 8.31867 10.0594 6.95524C11.356 5.59138 12.9586 4.88939 14.5616 5.11468Z" fill="url(#paint3_linear_272_469)" stroke="#B51D83" stroke-width="0.5"/>
<mask id="path-10-outside-3_272_469" maskUnits="userSpaceOnUse" x="9" y="9" width="8" height="8" fill="black">
<rect fill="white" x="9" y="9" width="8" height="8"/>
<path d="M12.4375 10.3047L11.4766 16H10.3164L11.0547 11.7461L9.95703 12.1406L10.1328 11.1367L12.3008 10.3086L12.4375 10.3047ZM16.1719 15.0352L16.0195 16H12.7305L12.8633 15.1367L14.6133 13.2383C14.7148 13.1211 14.8177 12.9935 14.9219 12.8555C15.026 12.7148 15.1172 12.5677 15.1953 12.4141C15.276 12.2578 15.3268 12.1003 15.3477 11.9414C15.3581 11.8555 15.3633 11.7539 15.3633 11.6367C15.3659 11.5169 15.3451 11.4128 15.3008 11.3242C15.2565 11.2331 15.1693 11.1862 15.0391 11.1836C14.8854 11.1758 14.7656 11.2266 14.6797 11.3359C14.5964 11.4453 14.5365 11.5742 14.5 11.7227C14.4635 11.8711 14.4401 12.0026 14.4297 12.1172L13.2734 12.125C13.2917 11.7865 13.3828 11.4727 13.5469 11.1836C13.7109 10.8919 13.9297 10.6589 14.2031 10.4844C14.4792 10.3073 14.7956 10.2214 15.1523 10.2266C15.4727 10.2318 15.7409 10.3034 15.957 10.4414C16.1758 10.5794 16.3359 10.7695 16.4375 11.0117C16.5417 11.2513 16.5794 11.5273 16.5508 11.8398C16.5326 12.0716 16.4779 12.2904 16.3867 12.4961C16.2956 12.6992 16.1823 12.8906 16.0469 13.0703C15.9141 13.25 15.7695 13.4245 15.6133 13.5938C15.457 13.7604 15.3047 13.9245 15.1562 14.0859L14.4102 15.0312L16.1719 15.0352Z"/>
</mask>
<path d="M12.4375 10.3047L11.4766 16H10.3164L11.0547 11.7461L9.95703 12.1406L10.1328 11.1367L12.3008 10.3086L12.4375 10.3047ZM16.1719 15.0352L16.0195 16H12.7305L12.8633 15.1367L14.6133 13.2383C14.7148 13.1211 14.8177 12.9935 14.9219 12.8555C15.026 12.7148 15.1172 12.5677 15.1953 12.4141C15.276 12.2578 15.3268 12.1003 15.3477 11.9414C15.3581 11.8555 15.3633 11.7539 15.3633 11.6367C15.3659 11.5169 15.3451 11.4128 15.3008 11.3242C15.2565 11.2331 15.1693 11.1862 15.0391 11.1836C14.8854 11.1758 14.7656 11.2266 14.6797 11.3359C14.5964 11.4453 14.5365 11.5742 14.5 11.7227C14.4635 11.8711 14.4401 12.0026 14.4297 12.1172L13.2734 12.125C13.2917 11.7865 13.3828 11.4727 13.5469 11.1836C13.7109 10.8919 13.9297 10.6589 14.2031 10.4844C14.4792 10.3073 14.7956 10.2214 15.1523 10.2266C15.4727 10.2318 15.7409 10.3034 15.957 10.4414C16.1758 10.5794 16.3359 10.7695 16.4375 11.0117C16.5417 11.2513 16.5794 11.5273 16.5508 11.8398C16.5326 12.0716 16.4779 12.2904 16.3867 12.4961C16.2956 12.6992 16.1823 12.8906 16.0469 13.0703C15.9141 13.25 15.7695 13.4245 15.6133 13.5938C15.457 13.7604 15.3047 13.9245 15.1562 14.0859L14.4102 15.0312L16.1719 15.0352Z" fill="#CD1696"/>
<path d="M12.4375 10.3047L12.7333 10.3546L12.7941 9.99438L12.4289 10.0048L12.4375 10.3047ZM11.4766 16V16.3H11.7302L11.7724 16.0499L11.4766 16ZM10.3164 16L10.0208 15.9487L9.95986 16.3H10.3164V16ZM11.0547 11.7461L11.3503 11.7974L11.4384 11.2894L10.9532 11.4638L11.0547 11.7461ZM9.95703 12.1406L9.66153 12.0889L9.57244 12.5976L10.0585 12.4229L9.95703 12.1406ZM10.1328 11.1367L10.0258 10.8565L9.86668 10.9172L9.83731 11.085L10.1328 11.1367ZM12.3008 10.3086L12.2922 10.0087L12.2413 10.0102L12.1937 10.0283L12.3008 10.3086ZM12.4375 10.3047L12.1417 10.2548L11.1807 15.9501L11.4766 16L11.7724 16.0499L12.7333 10.3546L12.4375 10.3047ZM11.4766 16V15.7H10.3164V16V16.3H11.4766V16ZM10.3164 16L10.612 16.0513L11.3503 11.7974L11.0547 11.7461L10.7591 11.6948L10.0208 15.9487L10.3164 16ZM11.0547 11.7461L10.9532 11.4638L9.85556 11.8583L9.95703 12.1406L10.0585 12.4229L11.1562 12.0284L11.0547 11.7461ZM9.95703 12.1406L10.2525 12.1924L10.4283 11.1885L10.1328 11.1367L9.83731 11.085L9.66153 12.0889L9.95703 12.1406ZM10.1328 11.1367L10.2399 11.417L12.4078 10.5888L12.3008 10.3086L12.1937 10.0283L10.0258 10.8565L10.1328 11.1367ZM12.3008 10.3086L12.3093 10.6085L12.4461 10.6046L12.4375 10.3047L12.4289 10.0048L12.2922 10.0087L12.3008 10.3086ZM16.1719 15.0352L16.4682 15.0819L16.5228 14.7359L16.1725 14.7352L16.1719 15.0352ZM16.0195 16V16.3H16.2759L16.3159 16.0468L16.0195 16ZM12.7305 16L12.434 15.9544L12.3808 16.3H12.7305V16ZM12.8633 15.1367L12.6427 14.9334L12.5807 15.0007L12.5668 15.0911L12.8633 15.1367ZM14.6133 13.2383L14.834 13.4417L14.84 13.4348L14.6133 13.2383ZM14.9219 12.8555L15.1613 13.0362L15.1629 13.034L14.9219 12.8555ZM15.1953 12.4141L14.9288 12.2764L14.9279 12.2781L15.1953 12.4141ZM15.3477 11.9414L15.6451 11.9804L15.6455 11.9775L15.3477 11.9414ZM15.3633 11.6367L15.0633 11.6302V11.6367H15.3633ZM15.3008 11.3242L15.0309 11.4553L15.0325 11.4584L15.3008 11.3242ZM15.0391 11.1836L15.0238 11.4833L15.0331 11.4835L15.0391 11.1836ZM14.6797 11.3359L14.4438 11.1506L14.4411 11.1541L14.6797 11.3359ZM14.4297 12.1172L14.4317 12.4172L14.7038 12.4153L14.7285 12.1443L14.4297 12.1172ZM13.2734 12.125L12.9739 12.1089L12.9567 12.4271L13.2755 12.425L13.2734 12.125ZM13.5469 11.1836L13.8078 11.3317L13.8083 11.3307L13.5469 11.1836ZM14.2031 10.4844L14.3645 10.7373L14.3651 10.7369L14.2031 10.4844ZM15.1523 10.2266L15.1572 9.9266L15.1567 9.92659L15.1523 10.2266ZM15.957 10.4414L15.7956 10.6943L15.7969 10.6951L15.957 10.4414ZM16.4375 11.0117L16.1608 11.1277L16.1624 11.1313L16.4375 11.0117ZM16.5508 11.8398L16.252 11.8125L16.2517 11.8163L16.5508 11.8398ZM16.3867 12.4961L16.6604 12.6189L16.661 12.6176L16.3867 12.4961ZM16.0469 13.0703L15.8073 12.8897L15.8056 12.892L16.0469 13.0703ZM15.6133 13.5938L15.8321 13.7989L15.8337 13.7972L15.6133 13.5938ZM15.1562 14.0859L14.9354 13.8829L14.9278 13.8912L14.9208 13.9001L15.1562 14.0859ZM14.4102 15.0312L14.1747 14.8454L13.7923 15.3299L14.4095 15.3312L14.4102 15.0312ZM16.1719 15.0352L15.8755 14.9884L15.7232 15.9532L16.0195 16L16.3159 16.0468L16.4682 15.0819L16.1719 15.0352ZM16.0195 16V15.7H12.7305V16V16.3H16.0195V16ZM12.7305 16L13.027 16.0456L13.1598 15.1823L12.8633 15.1367L12.5668 15.0911L12.434 15.9544L12.7305 16ZM12.8633 15.1367L13.0839 15.3401L14.8339 13.4416L14.6133 13.2383L14.3927 13.0349L12.6427 14.9334L12.8633 15.1367ZM14.6133 13.2383L14.84 13.4348C14.9464 13.3119 15.0535 13.179 15.1613 13.0362L14.9219 12.8555L14.6824 12.6747C14.5819 12.808 14.4832 12.9303 14.3866 13.0418L14.6133 13.2383ZM14.9219 12.8555L15.1629 13.034C15.2769 12.8802 15.3769 12.7188 15.4627 12.55L15.1953 12.4141L14.9279 12.2781C14.8575 12.4166 14.7752 12.5495 14.6808 12.6769L14.9219 12.8555ZM15.1953 12.4141L15.4618 12.5518C15.557 12.3677 15.6193 12.1769 15.6451 11.9804L15.3477 11.9414L15.0502 11.9024C15.0343 12.0236 14.9951 12.148 14.9288 12.2764L15.1953 12.4141ZM15.3477 11.9414L15.6455 11.9775C15.6577 11.8763 15.6633 11.7621 15.6633 11.6367H15.3633H15.0633C15.0633 11.7457 15.0584 11.8347 15.0498 11.9053L15.3477 11.9414ZM15.3633 11.6367L15.6632 11.6432C15.6667 11.4848 15.6393 11.3305 15.5691 11.1901L15.3008 11.3242L15.0325 11.4584C15.0508 11.495 15.0651 11.549 15.0634 11.6302L15.3633 11.6367ZM15.3008 11.3242L15.5706 11.1931C15.4625 10.9705 15.25 10.8878 15.0451 10.8837L15.0391 11.1836L15.0331 11.4835C15.0651 11.4842 15.0695 11.49 15.0602 11.485C15.0551 11.4823 15.0486 11.4777 15.0423 11.4711C15.0361 11.4646 15.0325 11.4586 15.0309 11.4553L15.3008 11.3242ZM15.0391 11.1836L15.0543 10.884C14.8154 10.8718 14.597 10.9556 14.4438 11.1506L14.6797 11.3359L14.9156 11.5213C14.9343 11.4975 14.9555 11.4797 15.0238 11.4832L15.0391 11.1836ZM14.6797 11.3359L14.4411 11.1541C14.3301 11.2997 14.2538 11.4672 14.2087 11.6511L14.5 11.7227L14.7913 11.7942C14.8191 11.6813 14.8626 11.5909 14.9183 11.5178L14.6797 11.3359ZM14.5 11.7227L14.2087 11.6511C14.1697 11.8097 14.1431 11.9565 14.1309 12.09L14.4297 12.1172L14.7285 12.1443C14.7372 12.0487 14.7574 11.9325 14.7913 11.7942L14.5 11.7227ZM14.4297 12.1172L14.4277 11.8172L13.2714 11.825L13.2734 12.125L13.2755 12.425L14.4317 12.4172L14.4297 12.1172ZM13.2734 12.125L13.573 12.1411C13.5888 11.848 13.6671 11.5795 13.8078 11.3317L13.5469 11.1836L13.286 11.0355C13.0985 11.3658 12.9945 11.7249 12.9739 12.1089L13.2734 12.125ZM13.5469 11.1836L13.8083 11.3307C13.949 11.0806 14.134 10.8844 14.3645 10.7373L14.2031 10.4844L14.0418 10.2315C13.7254 10.4333 13.4728 10.7033 13.2854 11.0365L13.5469 11.1836ZM14.2031 10.4844L14.3651 10.7369C14.5872 10.5944 14.8447 10.5221 15.148 10.5265L15.1523 10.2266L15.1567 9.92659C14.7464 9.92061 14.3711 10.0202 14.0411 10.2319L14.2031 10.4844ZM15.1523 10.2266L15.1475 10.5265C15.426 10.5311 15.6366 10.5928 15.7956 10.6943L15.957 10.4414L16.1185 10.1886C15.8451 10.014 15.5193 9.93249 15.1572 9.9266L15.1523 10.2266ZM15.957 10.4414L15.7969 10.6951C15.9628 10.7998 16.0827 10.9414 16.1608 11.1277L16.4375 11.0117L16.7142 10.8957C16.5892 10.5977 16.3888 10.3591 16.1171 10.1877L15.957 10.4414ZM16.4375 11.0117L16.1624 11.1313C16.2428 11.3162 16.277 11.5401 16.252 11.8125L16.5508 11.8398L16.8495 11.8672C16.8819 11.5146 16.8406 11.1864 16.7126 10.8921L16.4375 11.0117ZM16.5508 11.8398L16.2517 11.8163C16.236 12.0154 16.1894 12.2009 16.1124 12.3746L16.3867 12.4961L16.661 12.6176C16.7664 12.3798 16.8291 12.1278 16.8499 11.8634L16.5508 11.8398ZM16.3867 12.4961L16.113 12.3733C16.0311 12.5557 15.9294 12.7278 15.8073 12.8898L16.0469 13.0703L16.2865 13.2509C16.4352 13.0535 16.56 12.8427 16.6604 12.6189L16.3867 12.4961ZM16.0469 13.0703L15.8056 12.892C15.6795 13.0627 15.5419 13.2288 15.3928 13.3903L15.6133 13.5938L15.8337 13.7972C15.9971 13.6202 16.1486 13.4373 16.2881 13.2486L16.0469 13.0703ZM15.6133 13.5938L15.3944 13.3886C15.2375 13.5559 15.0845 13.7207 14.9354 13.8829L15.1562 14.0859L15.3771 14.289C15.5249 14.1283 15.6765 13.9649 15.8321 13.7989L15.6133 13.5938ZM15.1562 14.0859L14.9208 13.9001L14.1747 14.8454L14.4102 15.0312L14.6456 15.2171L15.3917 14.2718L15.1562 14.0859ZM14.4102 15.0312L14.4095 15.3312L16.1712 15.3352L16.1719 15.0352L16.1725 14.7352L14.4108 14.7313L14.4102 15.0312Z" fill="#600C57" mask="url(#path-10-outside-3_272_469)"/>
<rect x="45.5" y="1" width="2" height="2" transform="rotate(90 45.5 1)" fill="#CD1696"/>
<rect x="42.5" y="1" width="2" height="2" transform="rotate(90 42.5 1)" fill="#CD1696"/>
<rect x="37.5" y="1" width="2" height="2" transform="rotate(90 37.5 1)" fill="#CD1696"/>
<rect x="34.5" y="1" width="2" height="2" transform="rotate(90 34.5 1)" fill="#CD1696"/>
<rect x="25.5" y="1" width="2" height="2" transform="rotate(90 25.5 1)" fill="#CD1696"/>
<rect x="31.5" y="1" width="2" height="2" transform="rotate(90 31.5 1)" fill="#CD1696"/>
<rect x="28.5" y="1" width="2" height="2" transform="rotate(90 28.5 1)" fill="#CD1696"/>
<rect x="50.5" y="1" width="2" height="2" transform="rotate(90 50.5 1)" fill="#CD1696"/>
<rect x="53.5" y="1" width="2" height="2" transform="rotate(90 53.5 1)" fill="#CD1696"/>
<rect x="56.5" y="1" width="2" height="2" transform="rotate(90 56.5 1)" fill="#CD1696"/>
<rect x="59.5" y="1" width="2" height="2" transform="rotate(90 59.5 1)" fill="#CD1696"/>
<rect x="62.5" y="1" width="2" height="2" transform="rotate(90 62.5 1)" fill="#CD1696"/>
<rect x="45.5" y="134" width="2" height="2" transform="rotate(90 45.5 134)" fill="#CD1696"/>
<rect x="42.5" y="134" width="2" height="2" transform="rotate(90 42.5 134)" fill="#CD1696"/>
<rect x="37.5" y="134" width="2" height="2" transform="rotate(90 37.5 134)" fill="#CD1696"/>
<rect x="34.5" y="134" width="2" height="2" transform="rotate(90 34.5 134)" fill="#CD1696"/>
<rect x="25.5" y="134" width="2" height="2" transform="rotate(90 25.5 134)" fill="#CD1696"/>
<rect x="31.5" y="134" width="2" height="2" transform="rotate(90 31.5 134)" fill="#CD1696"/>
<rect x="28.5" y="134" width="2" height="2" transform="rotate(90 28.5 134)" fill="#CD1696"/>
<rect x="50.5" y="134" width="2" height="2" transform="rotate(90 50.5 134)" fill="#CD1696"/>
<rect x="53.5" y="134" width="2" height="2" transform="rotate(90 53.5 134)" fill="#CD1696"/>
<rect x="56.5" y="134" width="2" height="2" transform="rotate(90 56.5 134)" fill="#CD1696"/>
<rect x="59.5" y="134" width="2" height="2" transform="rotate(90 59.5 134)" fill="#CD1696"/>
<rect x="62.5" y="134" width="2" height="2" transform="rotate(90 62.5 134)" fill="#CD1696"/>
<rect x="84" y="70.5" width="3" height="2" transform="rotate(180 84 70.5)" fill="#CD1696"/>
<rect x="84" y="67.5" width="3" height="2" transform="rotate(180 84 67.5)" fill="#CD1696"/>
<rect x="84" y="62.5" width="3" height="2" transform="rotate(180 84 62.5)" fill="#CD1696"/>
<rect x="84" y="59.5" width="3" height="2" transform="rotate(180 84 59.5)" fill="#CD1696"/>
<rect x="84" y="50.5" width="3" height="2" transform="rotate(180 84 50.5)" fill="#CD1696"/>
<rect x="84" y="56.5" width="3" height="2" transform="rotate(180 84 56.5)" fill="#CD1696"/>
<rect x="84" y="53.5" width="3" height="2" transform="rotate(180 84 53.5)" fill="#CD1696"/>
<rect x="84" y="75.5" width="3" height="2" transform="rotate(180 84 75.5)" fill="#CD1696"/>
<rect x="84" y="78.5" width="3" height="2" transform="rotate(180 84 78.5)" fill="#CD1696"/>
<rect x="84" y="81.5" width="3" height="2" transform="rotate(180 84 81.5)" fill="#CD1696"/>
<rect x="84" y="84.5" width="3" height="2" transform="rotate(180 84 84.5)" fill="#CD1696"/>
<rect x="84" y="87.5" width="3" height="2" transform="rotate(180 84 87.5)" fill="#CD1696"/>
<rect x="4" y="70.5" width="3" height="2" transform="rotate(180 4 70.5)" fill="#CD1696"/>
<rect x="4" y="67.5" width="3" height="2" transform="rotate(180 4 67.5)" fill="#CD1696"/>
<rect x="4" y="62.5" width="3" height="2" transform="rotate(180 4 62.5)" fill="#CD1696"/>
<rect x="4" y="59.5" width="3" height="2" transform="rotate(180 4 59.5)" fill="#CD1696"/>
<rect x="4" y="50.5" width="3" height="2" transform="rotate(180 4 50.5)" fill="#CD1696"/>
<rect x="4" y="56.5" width="3" height="2" transform="rotate(180 4 56.5)" fill="#CD1696"/>
<rect x="4" y="53.5" width="3" height="2" transform="rotate(180 4 53.5)" fill="#CD1696"/>
<rect x="4" y="75.5" width="3" height="2" transform="rotate(180 4 75.5)" fill="#CD1696"/>
<rect x="4" y="78.5" width="3" height="2" transform="rotate(180 4 78.5)" fill="#CD1696"/>
<rect x="4" y="81.5" width="3" height="2" transform="rotate(180 4 81.5)" fill="#CD1696"/>
<rect x="4" y="84.5" width="3" height="2" transform="rotate(180 4 84.5)" fill="#CD1696"/>
<rect x="4" y="87.5" width="3" height="2" transform="rotate(180 4 87.5)" fill="#CD1696"/>
<defs>
<filter id="filter0_d_272_469" x="9.5" y="24.5" width="65" height="100" filterUnits="userSpaceOnUse" color-interpolation-filters="sRGB">
<feFlood flood-opacity="0" result="BackgroundImageFix"/>
<feColorMatrix in="SourceAlpha" type="matrix" values="0 0 0 0 0 0 0 0 0 0 0 0 0 0 0 0 0 0 127 0" result="hardAlpha"/>
<feOffset dy="4"/>
<feGaussianBlur stdDeviation="2"/>
<feComposite in2="hardAlpha" operator="out"/>
<feColorMatrix type="matrix" values="0 0 0 0 0 0 0 0 0 0 0 0 0 0 0 0 0 0 0.25 0"/>
<feBlend mode="normal" in2="BackgroundImageFix" result="effect1_dropShadow_272_469"/>
<feBlend mode="normal" in="SourceGraphic" in2="effect1_dropShadow_272_469" result="shape"/>
</filter>
<filter id="filter1_d_272_469" x="18.218" y="53.1523" width="49.0327" height="38.8477" filterUnits="userSpaceOnUse" color-interpolation-filters="sRGB">
<feFlood flood-opacity="0" result="BackgroundImageFix"/>
<feColorMatrix in="SourceAlpha" type="matrix" values="0 0 0 0 0 0 0 0 0 0 0 0 0 0 0 0 0 0 127 0" result="hardAlpha"/>
<feOffset dy="4"/>
<feGaussianBlur stdDeviation="2"/>
<feComposite in2="hardAlpha" operator="out"/>
<feColorMatrix type="matrix" values="0 0 0 0 0 0 0 0 0 0 0 0 0 0 0 0 0 0 0.25 0"/>
<feBlend mode="normal" in2="BackgroundImageFix" result="effect1_dropShadow_272_469"/>
<feBlend mode="normal" in="SourceGraphic" in2="effect1_dropShadow_272_469" result="shape"/>
</filter>
<linearGradient id="paint0_linear_272_469" x1="43" y1="3" x2="43" y2="134" gradientUnits="userSpaceOnUse">
<stop stop-color="#CD1696" stop-opacity="0.95"/>
<stop offset="0.915969" stop-color="#850D61"/>
</linearGradient>
<linearGradient id="paint1_linear_272_469" x1="70.596" y1="112.867" x2="68.1694" y2="130.133" gradientUnits="userSpaceOnUse">
<stop stop-color="#FFE9FA"/>
<stop offset="1" stop-color="#FF71DC"/>
</linearGradient>
<linearGradient id="paint2_linear_272_469" x1="56" y1="32.5" x2="23.5" y2="104" gradientUnits="userSpaceOnUse">
<stop stop-color="#FF60D7" stop-opacity="0.95"/>
<stop offset="1" stop-color="#BA459D"/>
</linearGradient>
<linearGradient id="paint3_linear_272_469" x1="14.596" y1="4.86706" x2="12.1694" y2="22.1329" gradientUnits="userSpaceOnUse">
<stop stop-color="#FFE9FA" stop-opacity="0.9"/>
<stop offset="1" stop-color="#FF71DC"/>
</linearGradient>
</defs>
</svg>
