<svg width="85" height="137" viewBox="0 0 85 137" fill="none" xmlns="http://www.w3.org/2000/svg">
<rect x="0.5" y="0.5" width="84" height="136" rx="9.5" fill="white" stroke="black"/>
<rect x="4.5" y="3.5" width="76" height="130" rx="9.5" fill="url(#paint0_linear_275_1002)" stroke="black"/>
<path d="M70.5617 113.115C72.1645 113.34 73.5108 114.456 74.3811 116.125C75.2512 117.793 75.6331 119.994 75.3045 122.332C74.9759 124.67 74.0019 126.682 72.7057 128.046C71.4093 129.409 69.8074 130.111 68.2047 129.885C66.6018 129.66 65.2546 128.544 64.3842 126.876C63.514 125.208 63.1323 123.006 63.4609 120.668C63.7895 118.33 64.7635 116.319 66.0596 114.955C67.3561 113.591 68.9587 112.889 70.5617 113.115Z" fill="url(#paint1_linear_275_1002)" stroke="#A71E1E" stroke-width="0.5"/>
<mask id="path-4-outside-1_275_1002" maskUnits="userSpaceOnUse" x="66.4623" y="118" width="6" height="8" fill="black">
<rect fill="white" x="66.4623" y="118" width="6" height="8"/>
<path d="M67.8025 119.965L67.9548 119H71.2439L71.1111 119.863L69.3611 121.762C69.2595 121.879 69.1567 122.007 69.0525 122.145C68.9483 122.285 68.8572 122.432 68.779 122.586C68.6983 122.742 68.6475 122.9 68.6267 123.059C68.6163 123.145 68.6111 123.246 68.6111 123.363C68.6085 123.483 68.6293 123.587 68.6736 123.676C68.7178 123.767 68.8051 123.814 68.9353 123.816C69.0889 123.824 69.2087 123.773 69.2947 123.664C69.378 123.555 69.4379 123.426 69.4744 123.277C69.5108 123.129 69.5343 122.997 69.5447 122.883L70.7009 122.875C70.6827 123.214 70.5915 123.527 70.4275 123.816C70.2634 124.108 70.0447 124.341 69.7712 124.516C69.4952 124.693 69.1788 124.779 68.822 124.773C68.5017 124.768 68.2335 124.697 68.0173 124.559C67.7986 124.421 67.6384 124.23 67.5369 123.988C67.4327 123.749 67.3949 123.473 67.4236 123.16C67.4418 122.928 67.4965 122.71 67.5876 122.504C67.6788 122.301 67.7921 122.109 67.9275 121.93C68.0603 121.75 68.2048 121.576 68.3611 121.406C68.5173 121.24 68.6697 121.076 68.8181 120.914L69.5642 119.969L67.8025 119.965Z"/>
</mask>
<path d="M67.8025 119.965L67.9548 119H71.2439L71.1111 119.863L69.3611 121.762C69.2595 121.879 69.1567 122.007 69.0525 122.145C68.9483 122.285 68.8572 122.432 68.779 122.586C68.6983 122.742 68.6475 122.9 68.6267 123.059C68.6163 123.145 68.6111 123.246 68.6111 123.363C68.6085 123.483 68.6293 123.587 68.6736 123.676C68.7178 123.767 68.8051 123.814 68.9353 123.816C69.0889 123.824 69.2087 123.773 69.2947 123.664C69.378 123.555 69.4379 123.426 69.4744 123.277C69.5108 123.129 69.5343 122.997 69.5447 122.883L70.7009 122.875C70.6827 123.214 70.5915 123.527 70.4275 123.816C70.2634 124.108 70.0447 124.341 69.7712 124.516C69.4952 124.693 69.1788 124.779 68.822 124.773C68.5017 124.768 68.2335 124.697 68.0173 124.559C67.7986 124.421 67.6384 124.23 67.5369 123.988C67.4327 123.749 67.3949 123.473 67.4236 123.16C67.4418 122.928 67.4965 122.71 67.5876 122.504C67.6788 122.301 67.7921 122.109 67.9275 121.93C68.0603 121.75 68.2048 121.576 68.3611 121.406C68.5173 121.24 68.6697 121.076 68.8181 120.914L69.5642 119.969L67.8025 119.965Z" fill="#DF0A0A"/>
<path d="M67.8025 119.965L67.5062 119.918L67.4515 120.264L67.8018 120.265L67.8025 119.965ZM67.9548 119V118.7H67.6985L67.6585 118.953L67.9548 119ZM71.2439 119L71.5404 119.046L71.5936 118.7H71.2439V119ZM71.1111 119.863L71.3317 120.067L71.3937 119.999L71.4076 119.909L71.1111 119.863ZM69.3611 121.762L69.1404 121.558L69.1344 121.565L69.3611 121.762ZM69.0525 122.145L68.813 121.964L68.8114 121.966L69.0525 122.145ZM68.779 122.586L69.0456 122.724L69.0465 122.722L68.779 122.586ZM68.6267 123.059L68.3292 123.02L68.3289 123.022L68.6267 123.059ZM68.6111 123.363L68.9111 123.37V123.363H68.6111ZM68.6736 123.676L68.9434 123.545L68.9419 123.542L68.6736 123.676ZM68.9353 123.816L68.9505 123.517L68.9413 123.516L68.9353 123.816ZM69.2947 123.664L69.5306 123.849L69.5333 123.846L69.2947 123.664ZM69.5447 122.883L69.5426 122.583L69.2705 122.585L69.2459 122.856L69.5447 122.883ZM70.7009 122.875L71.0005 122.891L71.0176 122.573L70.6989 122.575L70.7009 122.875ZM70.4275 123.816L70.1666 123.668L70.166 123.669L70.4275 123.816ZM69.7712 124.516L69.6099 124.263L69.6092 124.263L69.7712 124.516ZM68.822 124.773L68.8171 125.073L68.8176 125.073L68.822 124.773ZM68.0173 124.559L68.1788 124.306L68.1774 124.305L68.0173 124.559ZM67.5369 123.988L67.8135 123.872L67.812 123.869L67.5369 123.988ZM67.4236 123.16L67.7223 123.188L67.7227 123.184L67.4236 123.16ZM67.5876 122.504L67.3139 122.381L67.3134 122.382L67.5876 122.504ZM67.9275 121.93L68.1671 122.11L68.1687 122.108L67.9275 121.93ZM68.3611 121.406L68.1422 121.201L68.1406 121.203L68.3611 121.406ZM68.8181 120.914L69.039 121.117L69.0466 121.109L69.0536 121.1L68.8181 120.914ZM69.5642 119.969L69.7997 120.155L70.1821 119.67L69.5649 119.669L69.5642 119.969ZM67.8025 119.965L68.0988 120.012L68.2512 119.047L67.9548 119L67.6585 118.953L67.5062 119.918L67.8025 119.965ZM67.9548 119V119.3H71.2439V119V118.7H67.9548V119ZM71.2439 119L70.9474 118.954L70.8146 119.818L71.1111 119.863L71.4076 119.909L71.5404 119.046L71.2439 119ZM71.1111 119.863L70.8905 119.66L69.1405 121.558L69.3611 121.762L69.5817 121.965L71.3317 120.067L71.1111 119.863ZM69.3611 121.762L69.1344 121.565C69.0279 121.688 68.9208 121.821 68.813 121.964L69.0525 122.145L69.2919 122.325C69.3925 122.192 69.4911 122.07 69.5878 121.958L69.3611 121.762ZM69.0525 122.145L68.8114 121.966C68.6974 122.12 68.5975 122.281 68.5116 122.45L68.779 122.586L69.0465 122.722C69.1169 122.583 69.1992 122.45 69.2936 122.323L69.0525 122.145ZM68.779 122.586L68.5125 122.448C68.4174 122.632 68.355 122.823 68.3292 123.02L68.6267 123.059L68.9242 123.098C68.9401 122.976 68.9792 122.852 69.0456 122.724L68.779 122.586ZM68.6267 123.059L68.3289 123.022C68.3166 123.124 68.3111 123.238 68.3111 123.363H68.6111H68.9111C68.9111 123.254 68.916 123.165 68.9245 123.095L68.6267 123.059ZM68.6111 123.363L68.3111 123.357C68.3077 123.515 68.335 123.67 68.4052 123.81L68.6736 123.676L68.9419 123.542C68.9236 123.505 68.9092 123.451 68.911 123.37L68.6111 123.363ZM68.6736 123.676L68.4037 123.807C68.5119 124.03 68.7244 124.112 68.9293 124.116L68.9353 123.816L68.9413 123.516C68.9093 123.516 68.9049 123.51 68.9142 123.515C68.9192 123.518 68.9257 123.522 68.932 123.529C68.9383 123.535 68.9418 123.541 68.9434 123.545L68.6736 123.676ZM68.9353 123.816L68.9201 124.116C69.159 124.128 69.3774 124.044 69.5306 123.849L69.2947 123.664L69.0588 123.479C69.0401 123.502 69.0189 123.52 68.9505 123.517L68.9353 123.816ZM69.2947 123.664L69.5333 123.846C69.6442 123.7 69.7205 123.533 69.7657 123.349L69.4744 123.277L69.183 123.206C69.1553 123.319 69.1118 123.409 69.056 123.482L69.2947 123.664ZM69.4744 123.277L69.7657 123.349C69.8047 123.19 69.8313 123.043 69.8434 122.91L69.5447 122.883L69.2459 122.856C69.2372 122.951 69.217 123.068 69.183 123.206L69.4744 123.277ZM69.5447 122.883L69.5467 123.183L70.7029 123.175L70.7009 122.875L70.6989 122.575L69.5426 122.583L69.5447 122.883ZM70.7009 122.875L70.4014 122.859C70.3856 123.152 70.3072 123.42 70.1666 123.668L70.4275 123.816L70.6884 123.964C70.8759 123.634 70.9798 123.275 71.0005 122.891L70.7009 122.875ZM70.4275 123.816L70.166 123.669C70.0253 123.919 69.8404 124.116 69.6099 124.263L69.7712 124.516L69.9326 124.769C70.2489 124.567 70.5015 124.297 70.689 123.963L70.4275 123.816ZM69.7712 124.516L69.6092 124.263C69.3872 124.406 69.1297 124.478 68.8264 124.473L68.822 124.773L68.8176 125.073C69.2279 125.079 69.6032 124.98 69.9332 124.768L69.7712 124.516ZM68.822 124.773L68.8269 124.473C68.5484 124.469 68.3377 124.407 68.1788 124.306L68.0173 124.559L67.8559 124.811C68.1292 124.986 68.455 125.068 68.8171 125.073L68.822 124.773ZM68.0173 124.559L68.1774 124.305C68.0116 124.2 67.8917 124.059 67.8135 123.872L67.5369 123.988L67.2602 124.104C67.3852 124.402 67.5856 124.641 67.8572 124.812L68.0173 124.559ZM67.5369 123.988L67.812 123.869C67.7316 123.684 67.6974 123.46 67.7223 123.188L67.4236 123.16L67.1248 123.133C67.0925 123.485 67.1338 123.814 67.2617 124.108L67.5369 123.988ZM67.4236 123.16L67.7227 123.184C67.7383 122.985 67.785 122.799 67.8619 122.625L67.5876 122.504L67.3134 122.382C67.208 122.62 67.1453 122.872 67.1245 123.137L67.4236 123.16ZM67.5876 122.504L67.8613 122.627C67.9432 122.444 68.045 122.272 68.1671 122.11L67.9275 121.93L67.6879 121.749C67.5391 121.947 67.4144 122.157 67.3139 122.381L67.5876 122.504ZM67.9275 121.93L68.1687 122.108C68.2949 121.937 68.4324 121.771 68.5815 121.61L68.3611 121.406L68.1406 121.203C67.9772 121.38 67.8257 121.563 67.6862 121.751L67.9275 121.93ZM68.3611 121.406L68.5799 121.611C68.7368 121.444 68.8898 121.279 69.039 121.117L68.8181 120.914L68.5973 120.711C68.4495 120.872 68.2978 121.035 68.1422 121.201L68.3611 121.406ZM68.8181 120.914L69.0536 121.1L69.7997 120.155L69.5642 119.969L69.3287 119.783L68.5826 120.728L68.8181 120.914ZM69.5642 119.969L69.5649 119.669L67.8031 119.665L67.8025 119.965L67.8018 120.265L69.5635 120.269L69.5642 119.969Z" fill="#A71E1E" mask="url(#path-4-outside-1_275_1002)"/>
<g filter="url(#filter0_d_275_1002)">
<ellipse cx="42" cy="70.5" rx="28" ry="45.5" fill="url(#paint2_linear_275_1002)"/>
<ellipse cx="42" cy="70.5" rx="28" ry="45.5" stroke="#7E0000"/>
</g>
<g filter="url(#filter1_d_275_1002)">
<mask id="path-7-outside-2_275_1002" maskUnits="userSpaceOnUse" x="31" y="53" width="23" height="31" fill="black">
<rect fill="white" x="31" y="53" width="23" height="31"/>
<path d="M52.4219 78.6055V83H32.9688V79.25L42.168 69.3867C43.0924 68.3581 43.8216 67.4531 44.3555 66.6719C44.8893 65.8776 45.2734 65.168 45.5078 64.543C45.7552 63.9049 45.8789 63.2995 45.8789 62.7266C45.8789 61.8672 45.7357 61.1315 45.4492 60.5195C45.1628 59.8945 44.7396 59.4128 44.1797 59.0742C43.6328 58.7357 42.9557 58.5664 42.1484 58.5664C41.2891 58.5664 40.5469 58.7747 39.9219 59.1914C39.3099 59.6081 38.8411 60.1875 38.5156 60.9297C38.2031 61.6719 38.0469 62.5117 38.0469 63.4492H32.4023C32.4023 61.7565 32.806 60.207 33.6133 58.8008C34.4206 57.3815 35.5599 56.2552 37.0312 55.4219C38.5026 54.5755 40.2474 54.1523 42.2656 54.1523C44.2578 54.1523 45.9375 54.4779 47.3047 55.1289C48.6849 55.7669 49.7266 56.6914 50.4297 57.9023C51.1458 59.1003 51.5039 60.5326 51.5039 62.1992C51.5039 63.1367 51.3542 64.0547 51.0547 64.9531C50.7552 65.8385 50.3255 66.724 49.7656 67.6094C49.2188 68.4818 48.5547 69.3672 47.7734 70.2656C46.9922 71.1641 46.1263 72.0951 45.1758 73.0586L40.2344 78.6055H52.4219Z"/>
</mask>
<path d="M52.4219 78.6055V83H32.9688V79.25L42.168 69.3867C43.0924 68.3581 43.8216 67.4531 44.3555 66.6719C44.8893 65.8776 45.2734 65.168 45.5078 64.543C45.7552 63.9049 45.8789 63.2995 45.8789 62.7266C45.8789 61.8672 45.7357 61.1315 45.4492 60.5195C45.1628 59.8945 44.7396 59.4128 44.1797 59.0742C43.6328 58.7357 42.9557 58.5664 42.1484 58.5664C41.2891 58.5664 40.5469 58.7747 39.9219 59.1914C39.3099 59.6081 38.8411 60.1875 38.5156 60.9297C38.2031 61.6719 38.0469 62.5117 38.0469 63.4492H32.4023C32.4023 61.7565 32.806 60.207 33.6133 58.8008C34.4206 57.3815 35.5599 56.2552 37.0312 55.4219C38.5026 54.5755 40.2474 54.1523 42.2656 54.1523C44.2578 54.1523 45.9375 54.4779 47.3047 55.1289C48.6849 55.7669 49.7266 56.6914 50.4297 57.9023C51.1458 59.1003 51.5039 60.5326 51.5039 62.1992C51.5039 63.1367 51.3542 64.0547 51.0547 64.9531C50.7552 65.8385 50.3255 66.724 49.7656 67.6094C49.2188 68.4818 48.5547 69.3672 47.7734 70.2656C46.9922 71.1641 46.1263 72.0951 45.1758 73.0586L40.2344 78.6055H52.4219Z" fill="#DF0A0A"/>
<path d="M52.4219 78.6055H53.4219V77.6055H52.4219V78.6055ZM52.4219 83V84H53.4219V83H52.4219ZM32.9688 83H31.9688V84H32.9688V83ZM32.9688 79.25L32.2375 78.5679L31.9688 78.856V79.25H32.9688ZM42.168 69.3867L42.8993 70.0688L42.9056 70.062L42.9117 70.0552L42.168 69.3867ZM44.3555 66.6719L45.1811 67.2361L45.1854 67.2297L44.3555 66.6719ZM45.5078 64.543L44.5754 64.1814L44.5715 64.1918L45.5078 64.543ZM45.4492 60.5195L44.5401 60.9362L44.5435 60.9435L45.4492 60.5195ZM44.1797 59.0742L43.6533 59.9245L43.6623 59.93L44.1797 59.0742ZM39.9219 59.1914L39.3671 58.3593L39.3591 58.3648L39.9219 59.1914ZM38.5156 60.9297L37.5998 60.528L37.5969 60.5348L37.594 60.5416L38.5156 60.9297ZM38.0469 63.4492V64.4492H39.0469V63.4492H38.0469ZM32.4023 63.4492H31.4023V64.4492H32.4023V63.4492ZM33.6133 58.8008L34.4805 59.2987L34.4825 59.2952L33.6133 58.8008ZM37.0312 55.4219L37.5241 56.292L37.5299 56.2887L37.0312 55.4219ZM47.3047 55.1289L46.8747 56.0318L46.8851 56.0366L47.3047 55.1289ZM50.4297 57.9023L49.5648 58.4045L49.5714 58.4155L50.4297 57.9023ZM51.0547 64.9531L52.002 65.2735L52.0034 65.2694L51.0547 64.9531ZM49.7656 67.6094L48.9204 67.0749L48.9183 67.0782L49.7656 67.6094ZM45.1758 73.0586L44.4639 72.3563L44.446 72.3744L44.4291 72.3934L45.1758 73.0586ZM40.2344 78.6055L39.4877 77.9403L38.0043 79.6055H40.2344V78.6055ZM52.4219 78.6055H51.4219V83H52.4219H53.4219V78.6055H52.4219ZM52.4219 83V82H32.9688V83V84H52.4219V83ZM32.9688 83H33.9688V79.25H32.9688H31.9688V83H32.9688ZM32.9688 79.25L33.7 79.9321L42.8993 70.0688L42.168 69.3867L41.4367 68.7047L32.2375 78.5679L32.9688 79.25ZM42.168 69.3867L42.9117 70.0552C43.8536 69.0072 44.6138 68.0663 45.1811 67.2361L44.3555 66.6719L43.5298 66.1077C43.0294 66.84 42.3313 67.709 41.4242 68.7183L42.168 69.3867ZM44.3555 66.6719L45.1854 67.2297C45.7456 66.3962 46.1735 65.6158 46.4441 64.8941L45.5078 64.543L44.5715 64.1918C44.3734 64.7202 44.033 65.359 43.5255 66.114L44.3555 66.6719ZM45.5078 64.543L46.4402 64.9045C46.7238 64.1731 46.8789 63.4446 46.8789 62.7266H45.8789H44.8789C44.8789 63.1543 44.7866 63.6368 44.5755 64.1814L45.5078 64.543ZM45.8789 62.7266H46.8789C46.8789 61.7592 46.718 60.8712 46.3549 60.0956L45.4492 60.5195L44.5435 60.9435C44.7534 61.3918 44.8789 61.9752 44.8789 62.7266H45.8789ZM45.4492 60.5195L46.3583 60.1029C45.9927 59.3053 45.4376 58.6662 44.6971 58.2185L44.1797 59.0742L43.6623 59.93C44.0415 60.1593 44.3328 60.4837 44.5402 60.9362L45.4492 60.5195ZM44.1797 59.0742L44.706 58.224C43.9653 57.7654 43.0946 57.5664 42.1484 57.5664V58.5664V59.5664C42.8169 59.5664 43.3003 59.706 43.6533 59.9245L44.1797 59.0742ZM42.1484 58.5664V57.5664C41.1209 57.5664 40.1792 57.818 39.3672 58.3594L39.9219 59.1914L40.4766 60.0235C40.9145 59.7315 41.4572 59.5664 42.1484 59.5664V58.5664ZM39.9219 59.1914L39.3591 58.3648C38.5773 58.8971 37.9934 59.6307 37.5998 60.528L38.5156 60.9297L39.4314 61.3313C39.6889 60.7443 40.0425 60.3191 40.4847 60.018L39.9219 59.1914ZM38.5156 60.9297L37.594 60.5416C37.222 61.4251 37.0469 62.4001 37.0469 63.4492H38.0469H39.0469C39.0469 62.6234 39.1843 61.9186 39.4373 61.3177L38.5156 60.9297ZM38.0469 63.4492V62.4492H32.4023V63.4492V64.4492H38.0469V63.4492ZM32.4023 63.4492H33.4023C33.4023 61.9232 33.7641 60.5466 34.4805 59.2986L33.6133 58.8008L32.746 58.3029C31.8479 59.8675 31.4023 61.5898 31.4023 63.4492H32.4023ZM33.6133 58.8008L34.4825 59.2952C35.1973 58.0386 36.2039 57.0397 37.5241 56.292L37.0312 55.4219L36.5384 54.5517C34.9159 55.4707 33.6439 56.7244 32.7441 58.3064L33.6133 58.8008ZM37.0312 55.4219L37.5299 56.2887C38.8231 55.5448 40.3892 55.1523 42.2656 55.1523V54.1523V53.1523C40.1056 53.1523 38.1821 53.6063 36.5326 54.5551L37.0312 55.4219ZM42.2656 54.1523V55.1523C44.154 55.1523 45.6773 55.4615 46.8748 56.0318L47.3047 55.1289L47.7346 54.226C46.1977 53.4942 44.3616 53.1523 42.2656 53.1523V54.1523ZM47.3047 55.1289L46.8851 56.0366C48.0956 56.5962 48.9739 57.3867 49.5649 58.4045L50.4297 57.9023L51.2945 57.4002C50.4792 55.9961 49.2742 54.9377 47.7243 54.2212L47.3047 55.1289ZM50.4297 57.9023L49.5714 58.4155C50.1782 59.4306 50.5039 60.678 50.5039 62.1992H51.5039H52.5039C52.5039 60.3871 52.1134 58.77 51.288 57.3892L50.4297 57.9023ZM51.5039 62.1992H50.5039C50.5039 63.0281 50.3718 63.8394 50.106 64.6369L51.0547 64.9531L52.0034 65.2694C52.3365 64.27 52.5039 63.2453 52.5039 62.1992H51.5039ZM51.0547 64.9531L50.1074 64.6327C49.8362 65.4346 49.4429 66.2486 48.9204 67.0749L49.7656 67.6094L50.6108 68.1438C51.2081 67.1993 51.6742 66.2425 52.002 65.2735L51.0547 64.9531ZM49.7656 67.6094L48.9183 67.0782C48.4029 67.9004 47.7711 68.7443 47.0188 69.6094L47.7734 70.2656L48.528 70.9218C49.3382 69.9901 50.0346 69.0631 50.6129 68.1405L49.7656 67.6094ZM47.7734 70.2656L47.0188 69.6094C46.253 70.4901 45.4016 71.4057 44.4639 72.3563L45.1758 73.0586L45.8877 73.7609C46.851 72.7844 47.7313 71.838 48.528 70.9218L47.7734 70.2656ZM45.1758 73.0586L44.4291 72.3934L39.4877 77.9403L40.2344 78.6055L40.9811 79.2706L45.9225 73.7238L45.1758 73.0586ZM40.2344 78.6055V79.6055H52.4219V78.6055V77.6055H40.2344V78.6055Z" fill="black" mask="url(#path-7-outside-2_275_1002)"/>
</g>
<path d="M14.5616 5.11468C16.1644 5.34009 17.5106 6.45647 18.381 8.12475C19.2511 9.79263 19.633 11.9941 19.3044 14.3322C18.9758 16.6705 18.0018 18.6822 16.7056 20.0457C15.4092 21.4091 13.8073 22.1105 12.2046 21.8854C10.6017 21.6601 9.25448 20.5443 8.38406 18.8762C7.51391 17.2083 7.13218 15.006 7.4608 12.6677C7.7894 10.3296 8.76336 8.31867 10.0594 6.95524C11.356 5.59138 12.9586 4.88939 14.5616 5.11468Z" fill="url(#paint3_linear_275_1002)" stroke="#A71E1E" stroke-width="0.5"/>
<mask id="path-10-outside-3_275_1002" maskUnits="userSpaceOnUse" x="10.5" y="9" width="6" height="8" fill="black">
<rect fill="white" x="10.5" y="9" width="6" height="8"/>
<path d="M14.9453 15.0352L14.793 16H11.5039L11.6367 15.1367L13.3867 13.2383C13.4883 13.1211 13.5911 12.9935 13.6953 12.8555C13.7995 12.7148 13.8906 12.5677 13.9688 12.4141C14.0495 12.2578 14.1003 12.1003 14.1211 11.9414C14.1315 11.8555 14.1367 11.7539 14.1367 11.6367C14.1393 11.5169 14.1185 11.4128 14.0742 11.3242C14.0299 11.2331 13.9427 11.1862 13.8125 11.1836C13.6589 11.1758 13.5391 11.2266 13.4531 11.3359C13.3698 11.4453 13.3099 11.5742 13.2734 11.7227C13.237 11.8711 13.2135 12.0026 13.2031 12.1172L12.0469 12.125C12.0651 11.7865 12.1562 11.4727 12.3203 11.1836C12.4844 10.8919 12.7031 10.6589 12.9766 10.4844C13.2526 10.3073 13.569 10.2214 13.9258 10.2266C14.2461 10.2318 14.5143 10.3034 14.7305 10.4414C14.9492 10.5794 15.1094 10.7695 15.2109 11.0117C15.3151 11.2513 15.3529 11.5273 15.3242 11.8398C15.306 12.0716 15.2513 12.2904 15.1602 12.4961C15.069 12.6992 14.9557 12.8906 14.8203 13.0703C14.6875 13.25 14.543 13.4245 14.3867 13.5938C14.2305 13.7604 14.0781 13.9245 13.9297 14.0859L13.1836 15.0312L14.9453 15.0352Z"/>
</mask>
<path d="M14.9453 15.0352L14.793 16H11.5039L11.6367 15.1367L13.3867 13.2383C13.4883 13.1211 13.5911 12.9935 13.6953 12.8555C13.7995 12.7148 13.8906 12.5677 13.9688 12.4141C14.0495 12.2578 14.1003 12.1003 14.1211 11.9414C14.1315 11.8555 14.1367 11.7539 14.1367 11.6367C14.1393 11.5169 14.1185 11.4128 14.0742 11.3242C14.0299 11.2331 13.9427 11.1862 13.8125 11.1836C13.6589 11.1758 13.5391 11.2266 13.4531 11.3359C13.3698 11.4453 13.3099 11.5742 13.2734 11.7227C13.237 11.8711 13.2135 12.0026 13.2031 12.1172L12.0469 12.125C12.0651 11.7865 12.1562 11.4727 12.3203 11.1836C12.4844 10.8919 12.7031 10.6589 12.9766 10.4844C13.2526 10.3073 13.569 10.2214 13.9258 10.2266C14.2461 10.2318 14.5143 10.3034 14.7305 10.4414C14.9492 10.5794 15.1094 10.7695 15.2109 11.0117C15.3151 11.2513 15.3529 11.5273 15.3242 11.8398C15.306 12.0716 15.2513 12.2904 15.1602 12.4961C15.069 12.6992 14.9557 12.8906 14.8203 13.0703C14.6875 13.25 14.543 13.4245 14.3867 13.5938C14.2305 13.7604 14.0781 13.9245 13.9297 14.0859L13.1836 15.0312L14.9453 15.0352Z" fill="#DF0A0A"/>
<path d="M14.9453 15.0352L15.2416 15.0819L15.2963 14.7359L14.946 14.7352L14.9453 15.0352ZM14.793 16V16.3H15.0493L15.0893 16.0468L14.793 16ZM11.5039 16L11.2074 15.9544L11.1542 16.3H11.5039V16ZM11.6367 15.1367L11.4161 14.9334L11.3541 15.0007L11.3402 15.0911L11.6367 15.1367ZM13.3867 13.2383L13.6074 13.4417L13.6134 13.4348L13.3867 13.2383ZM13.6953 12.8555L13.9348 13.0362L13.9364 13.034L13.6953 12.8555ZM13.9688 12.4141L13.7022 12.2764L13.7013 12.2781L13.9688 12.4141ZM14.1211 11.9414L14.4186 11.9804L14.4189 11.9775L14.1211 11.9414ZM14.1367 11.6367L13.8367 11.6302V11.6367H14.1367ZM14.0742 11.3242L13.8043 11.4553L13.8059 11.4584L14.0742 11.3242ZM13.8125 11.1836L13.7973 11.4833L13.8065 11.4835L13.8125 11.1836ZM13.4531 11.3359L13.2172 11.1506L13.2145 11.1541L13.4531 11.3359ZM13.2031 12.1172L13.2052 12.4172L13.4773 12.4153L13.5019 12.1443L13.2031 12.1172ZM12.0469 12.125L11.7473 12.1089L11.7302 12.4271L12.0489 12.425L12.0469 12.125ZM12.3203 11.1836L12.5812 11.3317L12.5818 11.3307L12.3203 11.1836ZM12.9766 10.4844L13.1379 10.7373L13.1385 10.7369L12.9766 10.4844ZM13.9258 10.2266L13.9307 9.9266L13.9302 9.92659L13.9258 10.2266ZM14.7305 10.4414L14.569 10.6943L14.5704 10.6951L14.7305 10.4414ZM15.2109 11.0117L14.9343 11.1277L14.9358 11.1313L15.2109 11.0117ZM15.3242 11.8398L15.0254 11.8125L15.0251 11.8163L15.3242 11.8398ZM15.1602 12.4961L15.4339 12.6189L15.4344 12.6176L15.1602 12.4961ZM14.8203 13.0703L14.5807 12.8897L14.5791 12.892L14.8203 13.0703ZM14.3867 13.5938L14.6056 13.7989L14.6072 13.7972L14.3867 13.5938ZM13.9297 14.0859L13.7088 13.8829L13.7012 13.8912L13.6942 13.9001L13.9297 14.0859ZM13.1836 15.0312L12.9481 14.8454L12.5657 15.3299L13.1829 15.3312L13.1836 15.0312ZM14.9453 15.0352L14.649 14.9884L14.4966 15.9532L14.793 16L15.0893 16.0468L15.2416 15.0819L14.9453 15.0352ZM14.793 16V15.7H11.5039V16V16.3H14.793V16ZM11.5039 16L11.8004 16.0456L11.9332 15.1823L11.6367 15.1367L11.3402 15.0911L11.2074 15.9544L11.5039 16ZM11.6367 15.1367L11.8573 15.3401L13.6073 13.4416L13.3867 13.2383L13.1661 13.0349L11.4161 14.9334L11.6367 15.1367ZM13.3867 13.2383L13.6134 13.4348C13.7199 13.3119 13.827 13.179 13.9348 13.0362L13.6953 12.8555L13.4559 12.6747C13.3553 12.808 13.2567 12.9303 13.16 13.0418L13.3867 13.2383ZM13.6953 12.8555L13.9364 13.034C14.0503 12.8802 14.1503 12.7188 14.2362 12.55L13.9688 12.4141L13.7013 12.2781C13.6309 12.4166 13.5486 12.5495 13.4542 12.6769L13.6953 12.8555ZM13.9688 12.4141L14.2353 12.5518C14.3304 12.3677 14.3928 12.1769 14.4185 11.9804L14.1211 11.9414L13.8236 11.9024C13.8077 12.0236 13.7686 12.148 13.7022 12.2764L13.9688 12.4141ZM14.1211 11.9414L14.4189 11.9775C14.4312 11.8763 14.4367 11.7621 14.4367 11.6367H14.1367H13.8367C13.8367 11.7457 13.8318 11.8347 13.8233 11.9053L14.1211 11.9414ZM14.1367 11.6367L14.4366 11.6432C14.4401 11.4848 14.4128 11.3305 14.3425 11.1901L14.0742 11.3242L13.8059 11.4584C13.8242 11.495 13.8386 11.549 13.8368 11.6302L14.1367 11.6367ZM14.0742 11.3242L14.3441 11.1931C14.2359 10.9705 14.0234 10.8878 13.8185 10.8837L13.8125 11.1836L13.8065 11.4835C13.8385 11.4842 13.8429 11.49 13.8336 11.485C13.8286 11.4823 13.8221 11.4777 13.8158 11.4711C13.8095 11.4646 13.806 11.4586 13.8044 11.4553L14.0742 11.3242ZM13.8125 11.1836L13.8277 10.884C13.5888 10.8718 13.3704 10.9556 13.2172 11.1506L13.4531 11.3359L13.689 11.5213C13.7077 11.4975 13.7289 11.4797 13.7973 11.4832L13.8125 11.1836ZM13.4531 11.3359L13.2145 11.1541C13.1036 11.2997 13.0273 11.4672 12.9821 11.6511L13.2734 11.7227L13.5648 11.7942C13.5925 11.6813 13.636 11.5909 13.6918 11.5178L13.4531 11.3359ZM13.2734 11.7227L12.9821 11.6511C12.9431 11.8097 12.9165 11.9565 12.9044 12.09L13.2031 12.1172L13.5019 12.1443C13.5106 12.0487 13.5308 11.9325 13.5648 11.7942L13.2734 11.7227ZM13.2031 12.1172L13.2011 11.8172L12.0448 11.825L12.0469 12.125L12.0489 12.425L13.2052 12.4172L13.2031 12.1172ZM12.0469 12.125L12.3464 12.1411C12.3622 11.848 12.4406 11.5795 12.5812 11.3317L12.3203 11.1836L12.0594 11.0355C11.8719 11.3658 11.768 11.7249 11.7473 12.1089L12.0469 12.125ZM12.3203 11.1836L12.5818 11.3307C12.7225 11.0806 12.9074 10.8844 13.1379 10.7373L12.9766 10.4844L12.8152 10.2315C12.4989 10.4333 12.2463 10.7033 12.0588 11.0365L12.3203 11.1836ZM12.9766 10.4844L13.1385 10.7369C13.3606 10.5944 13.6181 10.5221 13.9214 10.5265L13.9258 10.2266L13.9302 9.92659C13.5199 9.92061 13.1446 10.0202 12.8146 10.2319L12.9766 10.4844ZM13.9258 10.2266L13.9209 10.5265C14.1994 10.5311 14.4101 10.5928 14.569 10.6943L14.7305 10.4414L14.8919 10.1886C14.6186 10.014 14.2928 9.93249 13.9307 9.9266L13.9258 10.2266ZM14.7305 10.4414L14.5704 10.6951C14.7362 10.7998 14.8561 10.9414 14.9343 11.1277L15.2109 11.0117L15.4876 10.8957C15.3626 10.5977 15.1622 10.3591 14.8906 10.1877L14.7305 10.4414ZM15.2109 11.0117L14.9358 11.1313C15.0162 11.3162 15.0504 11.5401 15.0255 11.8125L15.3242 11.8398L15.623 11.8672C15.6553 11.5146 15.614 11.1864 15.4861 10.8921L15.2109 11.0117ZM15.3242 11.8398L15.0251 11.8163C15.0095 12.0154 14.9628 12.2009 14.8859 12.3746L15.1602 12.4961L15.4344 12.6176C15.5398 12.3798 15.6025 12.1278 15.6233 11.8634L15.3242 11.8398ZM15.1602 12.4961L14.8864 12.3733C14.8046 12.5557 14.7028 12.7278 14.5807 12.8898L14.8203 13.0703L15.0599 13.2509C15.2087 13.0535 15.3334 12.8427 15.4339 12.6189L15.1602 12.4961ZM14.8203 13.0703L14.5791 12.892C14.4529 13.0627 14.3154 13.2288 14.1663 13.3903L14.3867 13.5938L14.6072 13.7972C14.7706 13.6202 14.9221 13.4373 15.0616 13.2486L14.8203 13.0703ZM14.3867 13.5938L14.1679 13.3886C14.011 13.5559 13.858 13.7207 13.7088 13.8829L13.9297 14.0859L14.1505 14.289C14.2983 14.1283 14.45 13.9649 14.6056 13.7989L14.3867 13.5938ZM13.9297 14.0859L13.6942 13.9001L12.9481 14.8454L13.1836 15.0312L13.4191 15.2171L14.1652 14.2718L13.9297 14.0859ZM13.1836 15.0312L13.1829 15.3312L14.9446 15.3352L14.9453 15.0352L14.946 14.7352L13.1843 14.7313L13.1836 15.0312Z" fill="#A71E1E" mask="url(#path-10-outside-3_275_1002)"/>
<rect x="45.5" y="134" width="2" height="2" transform="rotate(90 45.5 134)" fill="#DF0A0A"/>
<rect x="42.5" y="134" width="2" height="2" transform="rotate(90 42.5 134)" fill="#DF0A0A"/>
<rect x="1" y="68.5" width="3" height="2" fill="#DF0A0A"/>
<rect x="1" y="65.5" width="3" height="2" fill="#DF0A0A"/>
<rect x="81" y="68.5" width="3" height="2" fill="#DF0A0A"/>
<rect x="81" y="65.5" width="3" height="2" fill="#DF0A0A"/>
<rect x="45.5" y="1" width="2" height="2" transform="rotate(90 45.5 1)" fill="#DF0A0A"/>
<rect x="42.5" y="1" width="2" height="2" transform="rotate(90 42.5 1)" fill="#DF0A0A"/>
<defs>
<filter id="filter0_d_275_1002" x="9.5" y="24.5" width="65" height="100" filterUnits="userSpaceOnUse" color-interpolation-filters="sRGB">
<feFlood flood-opacity="0" result="BackgroundImageFix"/>
<feColorMatrix in="SourceAlpha" type="matrix" values="0 0 0 0 0 0 0 0 0 0 0 0 0 0 0 0 0 0 127 0" result="hardAlpha"/>
<feOffset dy="4"/>
<feGaussianBlur stdDeviation="2"/>
<feComposite in2="hardAlpha" operator="out"/>
<feColorMatrix type="matrix" values="0 0 0 0 0 0 0 0 0 0 0 0 0 0 0 0 0 0 0.25 0"/>
<feBlend mode="normal" in2="BackgroundImageFix" result="effect1_dropShadow_275_1002"/>
<feBlend mode="normal" in="SourceGraphic" in2="effect1_dropShadow_275_1002" result="shape"/>
</filter>
<filter id="filter1_d_275_1002" x="27.4023" y="53.1523" width="30.0195" height="38.8477" filterUnits="userSpaceOnUse" color-interpolation-filters="sRGB">
<feFlood flood-opacity="0" result="BackgroundImageFix"/>
<feColorMatrix in="SourceAlpha" type="matrix" values="0 0 0 0 0 0 0 0 0 0 0 0 0 0 0 0 0 0 127 0" result="hardAlpha"/>
<feOffset dy="4"/>
<feGaussianBlur stdDeviation="2"/>
<feComposite in2="hardAlpha" operator="out"/>
<feColorMatrix type="matrix" values="0 0 0 0 0 0 0 0 0 0 0 0 0 0 0 0 0 0 0.25 0"/>
<feBlend mode="normal" in2="BackgroundImageFix" result="effect1_dropShadow_275_1002"/>
<feBlend mode="normal" in="SourceGraphic" in2="effect1_dropShadow_275_1002" result="shape"/>
</filter>
<linearGradient id="paint0_linear_275_1002" x1="42.5" y1="3" x2="42.5" y2="134" gradientUnits="userSpaceOnUse">
<stop stop-color="#ED2626" stop-opacity="0.95"/>
<stop offset="1" stop-color="#730F0F"/>
</linearGradient>
<linearGradient id="paint1_linear_275_1002" x1="70.5961" y1="112.867" x2="68.1695" y2="130.133" gradientUnits="userSpaceOnUse">
<stop stop-color="#FFB4B4"/>
<stop offset="1" stop-color="#C85656"/>
</linearGradient>
<linearGradient id="paint2_linear_275_1002" x1="42" y1="25" x2="42" y2="116" gradientUnits="userSpaceOnUse">
<stop offset="0.266553" stop-color="#FF2F2F"/>
<stop offset="1" stop-color="#B10000"/>
</linearGradient>
<linearGradient id="paint3_linear_275_1002" x1="14.596" y1="4.86706" x2="12.1694" y2="22.1329" gradientUnits="userSpaceOnUse">
<stop stop-color="#FFB4B4"/>
<stop offset="1" stop-color="#C85656"/>
</linearGradient>
</defs>
</svg>
