<svg width="85" height="137" viewBox="0 0 85 137" fill="none" xmlns="http://www.w3.org/2000/svg">
<rect x="0.5" y="0.5" width="84" height="136" rx="9.5" fill="white" stroke="black"/>
<rect x="4.5" y="3.5" width="76" height="130" rx="9.5" fill="url(#paint0_linear_275_1066)" stroke="black"/>
<path d="M70.5617 113.115C72.1645 113.34 73.5108 114.456 74.3811 116.125C75.2512 117.793 75.6331 119.994 75.3045 122.332C74.9759 124.67 74.0019 126.682 72.7057 128.046C71.4093 129.409 69.8074 130.111 68.2047 129.885C66.6018 129.66 65.2546 128.544 64.3842 126.876C63.514 125.208 63.1323 123.006 63.4609 120.668C63.7895 118.33 64.7635 116.319 66.0596 114.955C67.3561 113.591 68.9587 112.889 70.5617 113.115Z" fill="url(#paint1_linear_275_1066)" stroke="#BCBCBC" stroke-width="0.5"/>
<mask id="path-4-outside-1_275_1066" maskUnits="userSpaceOnUse" x="67.4623" y="118" width="4" height="8" fill="black">
<rect fill="white" x="67.4623" y="118" width="4" height="8"/>
<path d="M67.8376 124.695L68.7986 119H69.9587L69.2205 123.254L70.3181 122.859L70.1423 123.863L67.9744 124.691L67.8376 124.695Z"/>
</mask>
<path d="M67.8376 124.695L68.7986 119H69.9587L69.2205 123.254L70.3181 122.859L70.1423 123.863L67.9744 124.691L67.8376 124.695Z" fill="#FBFBFB"/>
<path d="M67.8376 124.695L67.5418 124.645L67.481 125.006L67.8462 124.995L67.8376 124.695ZM68.7986 119V118.7H68.545L68.5028 118.95L68.7986 119ZM69.9587 119L70.2543 119.051L70.3153 118.7H69.9587V119ZM69.2205 123.254L68.9249 123.203L68.8367 123.711L69.3219 123.536L69.2205 123.254ZM70.3181 122.859L70.6136 122.911L70.7027 122.402L70.2166 122.577L70.3181 122.859ZM70.1423 123.863L70.2494 124.144L70.4085 124.083L70.4378 123.915L70.1423 123.863ZM67.9744 124.691L67.9829 124.991L68.0338 124.99L68.0814 124.972L67.9744 124.691ZM67.8376 124.695L68.1335 124.745L69.0944 119.05L68.7986 119L68.5028 118.95L67.5418 124.645L67.8376 124.695ZM68.7986 119V119.3H69.9587V119V118.7H68.7986V119ZM69.9587 119L69.6632 118.949L68.9249 123.203L69.2205 123.254L69.516 123.305L70.2543 119.051L69.9587 119ZM69.2205 123.254L69.3219 123.536L70.4196 123.142L70.3181 122.859L70.2166 122.577L69.119 122.972L69.2205 123.254ZM70.3181 122.859L70.0226 122.808L69.8468 123.812L70.1423 123.863L70.4378 123.915L70.6136 122.911L70.3181 122.859ZM70.1423 123.863L70.0353 123.583L67.8673 124.411L67.9744 124.691L68.0814 124.972L70.2494 124.144L70.1423 123.863ZM67.9744 124.691L67.9658 124.392L67.8291 124.395L67.8376 124.695L67.8462 124.995L67.9829 124.991L67.9744 124.691Z" fill="black" mask="url(#path-4-outside-1_275_1066)"/>
<g filter="url(#filter0_d_275_1066)">
<ellipse cx="42" cy="70.5" rx="28" ry="45.5" fill="#CCCCCC"/>
<ellipse cx="42" cy="70.5" rx="28" ry="45.5" stroke="#B0B0B0"/>
</g>
<g filter="url(#filter1_d_275_1066)">
<mask id="path-7-outside-2_275_1066" maskUnits="userSpaceOnUse" x="33" y="53" width="16" height="31" fill="black">
<rect fill="white" x="33" y="53" width="16" height="31"/>
<path d="M47.2852 54.5039V83H41.6602V60.9883L34.9023 63.1367V58.7031L46.6797 54.5039H47.2852Z"/>
</mask>
<path d="M47.2852 54.5039V83H41.6602V60.9883L34.9023 63.1367V58.7031L46.6797 54.5039H47.2852Z" fill="#E9E9E9"/>
<path d="M47.2852 54.5039H48.2852V53.5039H47.2852V54.5039ZM47.2852 83V84H48.2852V83H47.2852ZM41.6602 83H40.6602V84H41.6602V83ZM41.6602 60.9883H42.6602V59.621L41.3572 60.0353L41.6602 60.9883ZM34.9023 63.1367H33.9023V64.504L35.2053 64.0897L34.9023 63.1367ZM34.9023 58.7031L34.5665 57.7612L33.9023 57.998V58.7031H34.9023ZM46.6797 54.5039V53.5039H46.5067L46.3438 53.562L46.6797 54.5039ZM47.2852 54.5039H46.2852V83H47.2852H48.2852V54.5039H47.2852ZM47.2852 83V82H41.6602V83V84H47.2852V83ZM41.6602 83H42.6602V60.9883H41.6602H40.6602V83H41.6602ZM41.6602 60.9883L41.3572 60.0353L34.5994 62.1837L34.9023 63.1367L35.2053 64.0897L41.9631 61.9413L41.6602 60.9883ZM34.9023 63.1367H35.9023V58.7031H34.9023H33.9023V63.1367H34.9023ZM34.9023 58.7031L35.2382 59.645L47.0155 55.4458L46.6797 54.5039L46.3438 53.562L34.5665 57.7612L34.9023 58.7031ZM46.6797 54.5039V55.5039H47.2852V54.5039V53.5039H46.6797V54.5039Z" fill="black" mask="url(#path-7-outside-2_275_1066)"/>
</g>
<path d="M14.5616 5.11468C16.1644 5.34009 17.5106 6.45647 18.381 8.12475C19.2511 9.79263 19.633 11.9941 19.3044 14.3322C18.9758 16.6705 18.0018 18.6822 16.7056 20.0457C15.4092 21.4091 13.8073 22.1105 12.2046 21.8854C10.6017 21.6601 9.25448 20.5443 8.38406 18.8762C7.51391 17.2083 7.13218 15.006 7.4608 12.6677C7.7894 10.3296 8.76336 8.31867 10.0594 6.95524C11.356 5.59138 12.9586 4.88939 14.5616 5.11468Z" fill="url(#paint2_linear_275_1066)" stroke="#BCBCBC" stroke-width="0.5"/>
<mask id="path-10-outside-3_275_1066" maskUnits="userSpaceOnUse" x="11" y="9" width="4" height="8" fill="black">
<rect fill="white" x="11" y="9" width="4" height="8"/>
<path d="M14.4102 10.3047L13.4492 16H12.2891L13.0273 11.7461L11.9297 12.1406L12.1055 11.1367L14.2734 10.3086L14.4102 10.3047Z"/>
</mask>
<path d="M14.4102 10.3047L13.4492 16H12.2891L13.0273 11.7461L11.9297 12.1406L12.1055 11.1367L14.2734 10.3086L14.4102 10.3047Z" fill="#FBFBFB"/>
<path d="M14.4102 10.3047L14.706 10.3546L14.7668 9.99438L14.4016 10.0048L14.4102 10.3047ZM13.4492 16V16.3H13.7028L13.745 16.0499L13.4492 16ZM12.2891 16L11.9935 15.9487L11.9325 16.3H12.2891V16ZM13.0273 11.7461L13.3229 11.7974L13.4111 11.2894L12.9259 11.4638L13.0273 11.7461ZM11.9297 12.1406L11.6342 12.0889L11.5451 12.5976L12.0312 12.4229L11.9297 12.1406ZM12.1055 11.1367L11.9984 10.8565L11.8393 10.9172L11.81 11.085L12.1055 11.1367ZM14.2734 10.3086L14.2649 10.0087L14.214 10.0102L14.1664 10.0283L14.2734 10.3086ZM14.4102 10.3047L14.1143 10.2548L13.1534 15.9501L13.4492 16L13.745 16.0499L14.706 10.3546L14.4102 10.3047ZM13.4492 16V15.7H12.2891V16V16.3H13.4492V16ZM12.2891 16L12.5846 16.0513L13.3229 11.7974L13.0273 11.7461L12.7318 11.6948L11.9935 15.9487L12.2891 16ZM13.0273 11.7461L12.9259 11.4638L11.8282 11.8583L11.9297 12.1406L12.0312 12.4229L13.1288 12.0284L13.0273 11.7461ZM11.9297 12.1406L12.2252 12.1924L12.401 11.1885L12.1055 11.1367L11.81 11.085L11.6342 12.0889L11.9297 12.1406ZM12.1055 11.1367L12.2125 11.417L14.3805 10.5888L14.2734 10.3086L14.1664 10.0283L11.9984 10.8565L12.1055 11.1367ZM14.2734 10.3086L14.282 10.6085L14.4187 10.6046L14.4102 10.3047L14.4016 10.0048L14.2649 10.0087L14.2734 10.3086Z" fill="black" mask="url(#path-10-outside-3_275_1066)"/>
<rect x="44" y="134" width="2" height="2" transform="rotate(90 44 134)" fill="#E9E9E9"/>
<rect x="1" y="67" width="3" height="2" fill="#E9E9E9"/>
<rect x="81" y="67" width="3" height="2" fill="#E9E9E9"/>
<rect x="44" y="1" width="2" height="2" transform="rotate(90 44 1)" fill="#E9E9E9"/>
<defs>
<filter id="filter0_d_275_1066" x="9.5" y="24.5" width="65" height="100" filterUnits="userSpaceOnUse" color-interpolation-filters="sRGB">
<feFlood flood-opacity="0" result="BackgroundImageFix"/>
<feColorMatrix in="SourceAlpha" type="matrix" values="0 0 0 0 0 0 0 0 0 0 0 0 0 0 0 0 0 0 127 0" result="hardAlpha"/>
<feOffset dy="4"/>
<feGaussianBlur stdDeviation="2"/>
<feComposite in2="hardAlpha" operator="out"/>
<feColorMatrix type="matrix" values="0 0 0 0 0 0 0 0 0 0 0 0 0 0 0 0 0 0 0.25 0"/>
<feBlend mode="normal" in2="BackgroundImageFix" result="effect1_dropShadow_275_1066"/>
<feBlend mode="normal" in="SourceGraphic" in2="effect1_dropShadow_275_1066" result="shape"/>
</filter>
<filter id="filter1_d_275_1066" x="29.9023" y="53.5039" width="22.3828" height="38.4961" filterUnits="userSpaceOnUse" color-interpolation-filters="sRGB">
<feFlood flood-opacity="0" result="BackgroundImageFix"/>
<feColorMatrix in="SourceAlpha" type="matrix" values="0 0 0 0 0 0 0 0 0 0 0 0 0 0 0 0 0 0 127 0" result="hardAlpha"/>
<feOffset dy="4"/>
<feGaussianBlur stdDeviation="2"/>
<feComposite in2="hardAlpha" operator="out"/>
<feColorMatrix type="matrix" values="0 0 0 0 0 0 0 0 0 0 0 0 0 0 0 0 0 0 0.25 0"/>
<feBlend mode="normal" in2="BackgroundImageFix" result="effect1_dropShadow_275_1066"/>
<feBlend mode="normal" in="SourceGraphic" in2="effect1_dropShadow_275_1066" result="shape"/>
</filter>
<linearGradient id="paint0_linear_275_1066" x1="42.5" y1="3" x2="42.5" y2="134" gradientUnits="userSpaceOnUse">
<stop stop-color="white" stop-opacity="0.95"/>
<stop offset="1" stop-color="#ACACAC"/>
</linearGradient>
<linearGradient id="paint1_linear_275_1066" x1="70.5961" y1="112.867" x2="68.1695" y2="130.133" gradientUnits="userSpaceOnUse">
<stop stop-color="white"/>
<stop offset="1" stop-color="#E0E0E0"/>
</linearGradient>
<linearGradient id="paint2_linear_275_1066" x1="14.596" y1="4.86706" x2="12.1694" y2="22.1329" gradientUnits="userSpaceOnUse">
<stop stop-color="white"/>
<stop offset="1" stop-color="#E0E0E0"/>
</linearGradient>
</defs>
</svg>
