<svg width="80" height="140" viewBox="0 0 80 140" fill="none" xmlns="http://www.w3.org/2000/svg">
<rect x="0.5" y="0.5" width="79" height="139" rx="9.5" fill="white" stroke="black"/>
<rect x="4.26465" y="3.56567" width="71.4706" height="132.869" rx="9.5" fill="url(#paint0_linear_275_1066)" stroke="black"/>
<path d="M66.4116 115.587C67.9054 115.815 69.1699 116.946 69.9907 118.654C70.8105 120.36 71.1704 122.614 70.8604 125.009C70.5505 127.403 69.6324 129.462 68.4112 130.857C67.1885 132.254 65.6858 132.962 64.1919 132.735C62.698 132.507 61.4327 131.375 60.6118 129.667C59.7921 127.961 59.4322 125.707 59.7421 123.312C60.052 120.918 60.9702 118.859 62.1913 117.464C63.4141 116.068 64.9176 115.359 66.4116 115.587Z" fill="url(#paint1_linear_275_1066)" stroke="#BCBCBC" stroke-width="0.5"/>
<mask id="path-4-outside-1_275_1066" maskUnits="userSpaceOnUse" x="62.7292" y="120.934" width="4" height="8" fill="black">
<rect fill="white" x="62.7292" y="120.934" width="4" height="8"/>
<path d="M63.7643 127.63L64.7252 121.934H65.8854L65.1471 126.188L66.2448 125.794L66.069 126.798L63.901 127.626L63.7643 127.63Z"/>
</mask>
<path d="M63.7643 127.63L64.7252 121.934H65.8854L65.1471 126.188L66.2448 125.794L66.069 126.798L63.901 127.626L63.7643 127.63Z" fill="#FBFBFB"/>
<path d="M63.7643 127.63L63.4685 127.58L63.4077 127.94L63.7729 127.93L63.7643 127.63ZM64.7252 121.934V121.634H64.4716L64.4294 121.884L64.7252 121.934ZM65.8854 121.934L66.181 121.986L66.2419 121.634H65.8854V121.934ZM65.1471 126.188L64.8515 126.137L64.7633 126.645L65.2486 126.471L65.1471 126.188ZM66.2448 125.794L66.5403 125.845L66.6293 125.337L66.1433 125.511L66.2448 125.794ZM66.069 126.798L66.176 127.078L66.3351 127.017L66.3645 126.849L66.069 126.798ZM63.901 127.626L63.9096 127.926L63.9605 127.924L64.0081 127.906L63.901 127.626ZM63.7643 127.63L64.0601 127.68L65.021 121.984L64.7252 121.934L64.4294 121.884L63.4685 127.58L63.7643 127.63ZM64.7252 121.934V122.234H65.8854V121.934V121.634H64.7252V121.934ZM65.8854 121.934L65.5898 121.883L64.8515 126.137L65.1471 126.188L65.4427 126.24L66.181 121.986L65.8854 121.934ZM65.1471 126.188L65.2486 126.471L66.3462 126.076L66.2448 125.794L66.1433 125.511L65.0456 125.906L65.1471 126.188ZM66.2448 125.794L65.9492 125.742L65.7735 126.746L66.069 126.798L66.3645 126.849L66.5403 125.845L66.2448 125.794ZM66.069 126.798L65.9619 126.517L63.794 127.345L63.901 127.626L64.0081 127.906L66.176 127.078L66.069 126.798ZM63.901 127.626L63.8924 127.326L63.7557 127.33L63.7643 127.63L63.7729 127.93L63.9096 127.926L63.901 127.626Z" fill="black" mask="url(#path-4-outside-1_275_1066)"/>
<g filter="url(#filter0_d_275_1066)">
<ellipse cx="39.5295" cy="72.0437" rx="26.3529" ry="46.4963" fill="#CCCCCC"/>
<ellipse cx="39.5295" cy="72.0437" rx="26.3529" ry="46.4963" stroke="#B0B0B0"/>
</g>
<g filter="url(#filter1_d_275_1066)">
<mask id="path-7-outside-2_275_1066" maskUnits="userSpaceOnUse" x="31" y="54.613" width="15" height="31" fill="black">
<rect fill="white" x="31" y="54.613" width="15" height="31"/>
<path d="M44.7852 56.1169V84.613H39.1602V62.6013L32.4023 64.7498V60.3162L44.1797 56.1169H44.7852Z"/>
</mask>
<path d="M44.7852 56.1169V84.613H39.1602V62.6013L32.4023 64.7498V60.3162L44.1797 56.1169H44.7852Z" fill="#E9E9E9"/>
<path d="M44.7852 56.1169H45.7852V55.1169H44.7852V56.1169ZM44.7852 84.613V85.613H45.7852V84.613H44.7852ZM39.1602 84.613H38.1602V85.613H39.1602V84.613ZM39.1602 62.6013H40.1602V61.2341L38.8572 61.6483L39.1602 62.6013ZM32.4023 64.7498H31.4023V66.117L32.7053 65.7028L32.4023 64.7498ZM32.4023 60.3162L32.0665 59.3742L31.4023 59.611V60.3162H32.4023ZM44.1797 56.1169V55.1169H44.0067L43.8438 55.175L44.1797 56.1169ZM44.7852 56.1169H43.7852V84.613H44.7852H45.7852V56.1169H44.7852ZM44.7852 84.613V83.613H39.1602V84.613V85.613H44.7852V84.613ZM39.1602 84.613H40.1602V62.6013H39.1602H38.1602V84.613H39.1602ZM39.1602 62.6013L38.8572 61.6483L32.0994 63.7968L32.4023 64.7498L32.7053 65.7028L39.4631 63.5543L39.1602 62.6013ZM32.4023 64.7498H33.4023V60.3162H32.4023H31.4023V64.7498H32.4023ZM32.4023 60.3162L32.7382 61.2581L44.5155 57.0589L44.1797 56.1169L43.8438 55.175L32.0665 59.3742L32.4023 60.3162ZM44.1797 56.1169V57.1169H44.7852V56.1169V55.1169H44.1797V56.1169Z" fill="black" mask="url(#path-7-outside-2_275_1066)"/>
</g>
<path d="M13.7055 5.22167C15.1993 5.44972 16.4638 6.58097 17.2847 8.2892C18.1045 9.99542 18.4643 12.2494 18.1544 14.6439C17.8445 17.0384 16.9264 19.0973 15.7051 20.4921C14.4824 21.8885 12.9798 22.5975 11.4859 22.3696C9.9919 22.1417 8.72663 21.0103 7.90576 19.3019C7.086 17.5957 6.7261 15.3416 7.03602 12.9473C7.34596 10.5529 8.26412 8.49383 9.48529 7.09906C10.7081 5.70252 12.2115 4.99369 13.7055 5.22167Z" fill="url(#paint2_linear_275_1066)" stroke="#BCBCBC" stroke-width="0.5"/>
<mask id="path-10-outside-3_275_1066" maskUnits="userSpaceOnUse" x="10.7646" y="9.13135" width="4" height="8" fill="black">
<rect fill="white" x="10.7646" y="9.13135" width="4" height="8"/>
<path d="M13.6454 10.436L12.6845 16.1313H11.5243L12.2626 11.8774L11.1649 12.272L11.3407 11.2681L13.5087 10.4399L13.6454 10.436Z"/>
</mask>
<path d="M13.6454 10.436L12.6845 16.1313H11.5243L12.2626 11.8774L11.1649 12.272L11.3407 11.2681L13.5087 10.4399L13.6454 10.436Z" fill="#FBFBFB"/>
<path d="M13.6454 10.436L13.9412 10.4859L14.002 10.1257L13.6368 10.1362L13.6454 10.436ZM12.6845 16.1313V16.4313H12.9381L12.9803 16.1813L12.6845 16.1313ZM11.5243 16.1313L11.2287 16.08L11.1677 16.4313H11.5243V16.1313ZM12.2626 11.8774L12.5582 11.9287L12.6463 11.4207L12.1611 11.5951L12.2626 11.8774ZM11.1649 12.272L10.8694 12.2202L10.7803 12.729L11.2664 12.5543L11.1649 12.272ZM11.3407 11.2681L11.2337 10.9878L11.0746 11.0486L11.0452 11.2163L11.3407 11.2681ZM13.5087 10.4399L13.5001 10.1401L13.4492 10.1415L13.4016 10.1597L13.5087 10.4399ZM13.6454 10.436L13.3496 10.3861L12.3886 16.0814L12.6845 16.1313L12.9803 16.1813L13.9412 10.4859L13.6454 10.436ZM12.6845 16.1313V15.8313H11.5243V16.1313V16.4313H12.6845V16.1313ZM11.5243 16.1313L11.8199 16.1826L12.5582 11.9287L12.2626 11.8774L11.967 11.8261L11.2287 16.08L11.5243 16.1313ZM12.2626 11.8774L12.1611 11.5951L11.0635 11.9897L11.1649 12.272L11.2664 12.5543L12.3641 12.1598L12.2626 11.8774ZM11.1649 12.272L11.4604 12.3237L11.6362 11.3198L11.3407 11.2681L11.0452 11.2163L10.8694 12.2202L11.1649 12.272ZM11.3407 11.2681L11.4478 11.5483L13.6157 10.7202L13.5087 10.4399L13.4016 10.1597L11.2337 10.9878L11.3407 11.2681ZM13.5087 10.4399L13.5172 10.7398L13.654 10.7359L13.6454 10.436L13.6368 10.1362L13.5001 10.1401L13.5087 10.4399Z" fill="black" mask="url(#path-10-outside-3_275_1066)"/>
<rect x="41.4117" y="136.934" width="2.0438" height="1.88235" transform="rotate(90 41.4117 136.934)" fill="#E9E9E9"/>
<rect x="0.941162" y="68.467" width="2.82353" height="2.0438" fill="#E9E9E9"/>
<rect x="76.2354" y="68.467" width="2.82353" height="2.0438" fill="#E9E9E9"/>
<rect x="41.4117" y="1.02197" width="2.0438" height="1.88235" transform="rotate(90 41.4117 1.02197)" fill="#E9E9E9"/>
<defs>
<filter id="filter0_d_275_1066" x="8.67651" y="25.0474" width="61.7059" height="101.993" filterUnits="userSpaceOnUse" color-interpolation-filters="sRGB">
<feFlood flood-opacity="0" result="BackgroundImageFix"/>
<feColorMatrix in="SourceAlpha" type="matrix" values="0 0 0 0 0 0 0 0 0 0 0 0 0 0 0 0 0 0 127 0" result="hardAlpha"/>
<feOffset dy="4"/>
<feGaussianBlur stdDeviation="2"/>
<feComposite in2="hardAlpha" operator="out"/>
<feColorMatrix type="matrix" values="0 0 0 0 0 0 0 0 0 0 0 0 0 0 0 0 0 0 0.25 0"/>
<feBlend mode="normal" in2="BackgroundImageFix" result="effect1_dropShadow_275_1066"/>
<feBlend mode="normal" in="SourceGraphic" in2="effect1_dropShadow_275_1066" result="shape"/>
</filter>
<filter id="filter1_d_275_1066" x="27.4023" y="55.1169" width="22.3828" height="38.4961" filterUnits="userSpaceOnUse" color-interpolation-filters="sRGB">
<feFlood flood-opacity="0" result="BackgroundImageFix"/>
<feColorMatrix in="SourceAlpha" type="matrix" values="0 0 0 0 0 0 0 0 0 0 0 0 0 0 0 0 0 0 127 0" result="hardAlpha"/>
<feOffset dy="4"/>
<feGaussianBlur stdDeviation="2"/>
<feComposite in2="hardAlpha" operator="out"/>
<feColorMatrix type="matrix" values="0 0 0 0 0 0 0 0 0 0 0 0 0 0 0 0 0 0 0.25 0"/>
<feBlend mode="normal" in2="BackgroundImageFix" result="effect1_dropShadow_275_1066"/>
<feBlend mode="normal" in="SourceGraphic" in2="effect1_dropShadow_275_1066" result="shape"/>
</filter>
<linearGradient id="paint0_linear_275_1066" x1="39.9999" y1="3.06567" x2="39.9999" y2="136.934" gradientUnits="userSpaceOnUse">
<stop stop-color="white" stop-opacity="0.95"/>
<stop offset="1" stop-color="#ACACAC"/>
</linearGradient>
<linearGradient id="paint1_linear_275_1066" x1="66.4434" y1="115.339" x2="63.7603" y2="132.922" gradientUnits="userSpaceOnUse">
<stop stop-color="white"/>
<stop offset="1" stop-color="#E0E0E0"/>
</linearGradient>
<linearGradient id="paint2_linear_275_1066" x1="13.7373" y1="4.97369" x2="11.0543" y2="22.5567" gradientUnits="userSpaceOnUse">
<stop stop-color="white"/>
<stop offset="1" stop-color="#E0E0E0"/>
</linearGradient>
</defs>
</svg>
