<svg width="85" height="137" viewBox="0 0 85 137" fill="none" xmlns="http://www.w3.org/2000/svg">
<rect x="0.5" y="0.5" width="84" height="136" rx="9.5" fill="white" stroke="black"/>
<rect x="4.5" y="3.5" width="76" height="130" rx="9.5" fill="url(#paint0_linear_275_680)" stroke="black"/>
<path d="M70.5618 113.115C72.1646 113.34 73.5109 114.456 74.3812 116.125C75.2513 117.793 75.6332 119.994 75.3046 122.332C74.976 124.67 74.002 126.682 72.7058 128.046C71.4094 129.409 69.8075 130.111 68.2048 129.885C66.602 129.66 65.2547 128.544 64.3843 126.876C63.5142 125.208 63.1324 123.006 63.461 120.668C63.7896 118.33 64.7636 116.319 66.0597 114.955C67.3563 113.591 68.9588 112.889 70.5618 113.115Z" fill="url(#paint1_linear_275_680)" stroke="#7B5600" stroke-width="0.5"/>
<mask id="path-4-outside-1_275_680" maskUnits="userSpaceOnUse" x="67.429" y="117" width="6" height="9" fill="black">
<rect fill="white" x="67.429" y="117" width="6" height="9"/>
<path d="M68.8785 124.762H68.6871L68.7848 123.773L68.8278 123.777C69.0856 123.785 69.3147 123.741 69.5153 123.645C69.7132 123.551 69.8824 123.419 70.0231 123.25C70.1637 123.083 70.2783 122.892 70.3668 122.676C70.4528 122.462 70.5113 122.238 70.5426 122.004L70.6754 121.023C70.6806 120.951 70.6884 120.853 70.6988 120.73C70.7093 120.608 70.7093 120.482 70.6988 120.352C70.6884 120.224 70.6572 120.115 70.6051 120.023C70.5504 119.935 70.4619 119.888 70.3395 119.883C70.2223 119.88 70.1246 119.914 70.0465 119.984C69.9658 120.055 69.9007 120.146 69.8512 120.258C69.8017 120.37 69.764 120.483 69.7379 120.598C69.7119 120.715 69.6949 120.816 69.6871 120.902C69.6819 120.975 69.6793 121.065 69.6793 121.172C69.6793 121.279 69.691 121.385 69.7145 121.492C69.7353 121.599 69.7744 121.689 69.8317 121.762C69.8863 121.835 69.9684 121.871 70.0778 121.871C70.2132 121.876 70.3265 121.837 70.4176 121.754C70.5087 121.671 70.5804 121.566 70.6324 121.441C70.6819 121.319 70.7158 121.199 70.734 121.082L71.0035 121.363C70.9853 121.543 70.941 121.719 70.8707 121.891C70.7978 122.065 70.7015 122.224 70.5817 122.367C70.4619 122.51 70.3212 122.624 70.1598 122.707C69.9983 122.79 69.8199 122.831 69.6246 122.828C69.3798 122.82 69.1806 122.754 69.027 122.629C68.8733 122.504 68.7574 122.344 68.6793 122.148C68.6012 121.953 68.5517 121.745 68.5309 121.523C68.51 121.305 68.5061 121.098 68.5192 120.902C68.5426 120.655 68.6025 120.411 68.6988 120.172C68.7952 119.935 68.9241 119.72 69.0856 119.527C69.247 119.337 69.4384 119.186 69.6598 119.074C69.8811 118.965 70.1272 118.913 70.3981 118.918C70.7001 118.926 70.9488 119 71.1442 119.141C71.3395 119.284 71.4905 119.467 71.5973 119.691C71.7041 119.918 71.7744 120.163 71.8082 120.426C71.8395 120.691 71.8421 120.949 71.816 121.199L71.7574 121.656C71.708 122.047 71.6103 122.426 71.4645 122.793C71.3186 123.163 71.1272 123.495 70.8903 123.789C70.6507 124.086 70.3642 124.322 70.0309 124.496C69.6975 124.671 69.3134 124.759 68.8785 124.762Z"/>
<path d="M72.2262 118.219H68.2028V117.828H72.2262V118.219Z"/>
</mask>
<path d="M68.8785 124.762H68.6871L68.7848 123.773L68.8278 123.777C69.0856 123.785 69.3147 123.741 69.5153 123.645C69.7132 123.551 69.8824 123.419 70.0231 123.25C70.1637 123.083 70.2783 122.892 70.3668 122.676C70.4528 122.462 70.5113 122.238 70.5426 122.004L70.6754 121.023C70.6806 120.951 70.6884 120.853 70.6988 120.73C70.7093 120.608 70.7093 120.482 70.6988 120.352C70.6884 120.224 70.6572 120.115 70.6051 120.023C70.5504 119.935 70.4619 119.888 70.3395 119.883C70.2223 119.88 70.1246 119.914 70.0465 119.984C69.9658 120.055 69.9007 120.146 69.8512 120.258C69.8017 120.37 69.764 120.483 69.7379 120.598C69.7119 120.715 69.6949 120.816 69.6871 120.902C69.6819 120.975 69.6793 121.065 69.6793 121.172C69.6793 121.279 69.691 121.385 69.7145 121.492C69.7353 121.599 69.7744 121.689 69.8317 121.762C69.8863 121.835 69.9684 121.871 70.0778 121.871C70.2132 121.876 70.3265 121.837 70.4176 121.754C70.5087 121.671 70.5804 121.566 70.6324 121.441C70.6819 121.319 70.7158 121.199 70.734 121.082L71.0035 121.363C70.9853 121.543 70.941 121.719 70.8707 121.891C70.7978 122.065 70.7015 122.224 70.5817 122.367C70.4619 122.51 70.3212 122.624 70.1598 122.707C69.9983 122.79 69.8199 122.831 69.6246 122.828C69.3798 122.82 69.1806 122.754 69.027 122.629C68.8733 122.504 68.7574 122.344 68.6793 122.148C68.6012 121.953 68.5517 121.745 68.5309 121.523C68.51 121.305 68.5061 121.098 68.5192 120.902C68.5426 120.655 68.6025 120.411 68.6988 120.172C68.7952 119.935 68.9241 119.72 69.0856 119.527C69.247 119.337 69.4384 119.186 69.6598 119.074C69.8811 118.965 70.1272 118.913 70.3981 118.918C70.7001 118.926 70.9488 119 71.1442 119.141C71.3395 119.284 71.4905 119.467 71.5973 119.691C71.7041 119.918 71.7744 120.163 71.8082 120.426C71.8395 120.691 71.8421 120.949 71.816 121.199L71.7574 121.656C71.708 122.047 71.6103 122.426 71.4645 122.793C71.3186 123.163 71.1272 123.495 70.8903 123.789C70.6507 124.086 70.3642 124.322 70.0309 124.496C69.6975 124.671 69.3134 124.759 68.8785 124.762Z" fill="#FFB200"/>
<path d="M72.2262 118.219H68.2028V117.828H72.2262V118.219Z" fill="#FFB200"/>
<path d="M68.8785 124.762V125.062L68.8803 125.062L68.8785 124.762ZM68.6871 124.762L68.3886 124.732L68.356 125.062H68.6871V124.762ZM68.7848 123.773L68.8119 123.475L68.5155 123.448L68.4862 123.744L68.7848 123.773ZM68.8278 123.777L68.8006 124.076L68.8096 124.077L68.8187 124.077L68.8278 123.777ZM69.5153 123.645L69.3868 123.373L69.3853 123.374L69.5153 123.645ZM70.0231 123.25L69.7938 123.057L69.7923 123.058L70.0231 123.25ZM70.3668 122.676L70.6444 122.79L70.6451 122.788L70.3668 122.676ZM70.5426 122.004L70.2453 121.964L70.2452 121.964L70.5426 122.004ZM70.6754 121.023L70.9727 121.064L70.974 121.054L70.9746 121.045L70.6754 121.023ZM70.6988 120.352L70.9979 120.328L70.9979 120.327L70.6988 120.352ZM70.6051 120.023L70.8657 119.875L70.8603 119.866L70.6051 120.023ZM70.3395 119.883L70.3522 119.583L70.3461 119.583L70.3395 119.883ZM70.0465 119.984L70.2436 120.211L70.2472 120.207L70.0465 119.984ZM69.7379 120.598L69.4454 120.531L69.4451 120.533L69.7379 120.598ZM69.6871 120.902L69.3883 120.875L69.3879 120.881L69.6871 120.902ZM69.7145 121.492L70.009 121.435L70.0075 121.428L69.7145 121.492ZM69.8317 121.762L70.0717 121.582L70.0676 121.576L69.8317 121.762ZM70.0778 121.871L70.0893 121.571H70.0778V121.871ZM70.6324 121.441L70.9094 121.557L70.9106 121.554L70.6324 121.441ZM70.734 121.082L70.9506 120.874L70.5308 120.436L70.4376 121.036L70.734 121.082ZM71.0035 121.363L71.302 121.394L71.316 121.256L71.2201 121.156L71.0035 121.363ZM70.8707 121.891L71.1475 122.006L71.1484 122.004L70.8707 121.891ZM70.1598 122.707L70.2974 122.974L70.1598 122.707ZM69.6246 122.828L69.6151 123.128L69.6206 123.128L69.6246 122.828ZM68.5309 121.523L68.8296 121.495L68.8295 121.495L68.5309 121.523ZM68.5192 120.902L68.2204 120.874L68.2198 120.882L68.5192 120.902ZM68.6988 120.172L68.4209 120.059L68.4205 120.06L68.6988 120.172ZM69.0856 119.527L68.8569 119.333L68.8556 119.335L69.0856 119.527ZM69.6598 119.074L69.5269 118.805L69.5244 118.807L69.6598 119.074ZM70.3981 118.918L70.4058 118.618L70.4038 118.618L70.3981 118.918ZM71.1442 119.141L71.3216 118.899L71.3194 118.897L71.1442 119.141ZM71.5973 119.691L71.8687 119.564L71.8681 119.562L71.5973 119.691ZM71.8082 120.426L72.1062 120.391L72.1058 120.387L71.8082 120.426ZM71.816 121.199L72.1137 121.237L72.1144 121.23L71.816 121.199ZM71.7574 121.656L71.4599 121.618L71.4598 121.619L71.7574 121.656ZM71.4645 122.793L71.1857 122.682L71.1854 122.683L71.4645 122.793ZM70.8903 123.789L71.1237 123.977L71.1239 123.977L70.8903 123.789ZM68.8785 124.762V124.462H68.6871V124.762V125.062H68.8785V124.762ZM68.6871 124.762L68.9857 124.791L69.0833 123.803L68.7848 123.773L68.4862 123.744L68.3886 124.732L68.6871 124.762ZM68.7848 123.773L68.7576 124.072L68.8006 124.076L68.8278 123.777L68.8549 123.479L68.8119 123.475L68.7848 123.773ZM68.8278 123.777L68.8187 124.077C69.1168 124.086 69.3949 124.035 69.6452 123.915L69.5153 123.645L69.3853 123.374C69.2345 123.447 69.0543 123.484 68.8368 123.477L68.8278 123.777ZM69.5153 123.645L69.6437 123.916C69.8813 123.803 70.0854 123.644 70.2538 123.442L70.0231 123.25L69.7923 123.058C69.6795 123.194 69.5451 123.298 69.3868 123.373L69.5153 123.645ZM70.0231 123.25L70.2524 123.443C70.4145 123.251 70.5449 123.033 70.6444 122.79L70.3668 122.676L70.0892 122.562C70.0117 122.751 69.9129 122.915 69.7938 123.057L70.0231 123.25ZM70.3668 122.676L70.6451 122.788C70.7407 122.55 70.8055 122.302 70.84 122.044L70.5426 122.004L70.2452 121.964C70.2172 122.174 70.1648 122.374 70.0885 122.564L70.3668 122.676ZM70.5426 122.004L70.8399 122.044L70.9727 121.064L70.6754 121.023L70.3781 120.983L70.2453 121.964L70.5426 122.004ZM70.6754 121.023L70.9746 121.045C70.9797 120.974 70.9874 120.878 70.9978 120.756L70.6988 120.73L70.3999 120.705C70.3895 120.828 70.3815 120.927 70.3762 121.002L70.6754 121.023ZM70.6988 120.73L70.9978 120.756C71.0097 120.616 71.0095 120.473 70.9979 120.328L70.6988 120.352L70.3998 120.375C70.409 120.49 70.4089 120.6 70.3999 120.705L70.6988 120.73ZM70.6988 120.352L70.9979 120.327C70.9846 120.165 70.9437 120.011 70.8656 119.875L70.6051 120.023L70.3446 120.172C70.3707 120.218 70.3922 120.283 70.3998 120.376L70.6988 120.352ZM70.6051 120.023L70.8603 119.866C70.7435 119.677 70.5537 119.592 70.3522 119.583L70.3395 119.883L70.3267 120.183C70.3531 120.184 70.3603 120.189 70.3573 120.187C70.3559 120.186 70.3537 120.185 70.3516 120.183C70.3496 120.181 70.3491 120.18 70.3499 120.181L70.6051 120.023ZM70.3395 119.883L70.3461 119.583C70.1621 119.579 69.9875 119.634 69.8458 119.761L70.0465 119.984L70.2472 120.207C70.2618 120.194 70.2825 120.182 70.3328 120.183L70.3395 119.883ZM70.0465 119.984L69.8495 119.758C69.7311 119.861 69.6415 119.99 69.5768 120.137L69.8512 120.258L70.1256 120.379C70.1598 120.302 70.2004 120.248 70.2435 120.211L70.0465 119.984ZM69.8512 120.258L69.5768 120.137C69.5198 120.265 69.4759 120.397 69.4454 120.531L69.7379 120.598L70.0304 120.664C70.052 120.569 70.0836 120.474 70.1256 120.379L69.8512 120.258ZM69.7379 120.598L69.4451 120.533C69.4172 120.658 69.3977 120.773 69.3884 120.875L69.6871 120.902L69.9859 120.93C69.9922 120.86 70.0065 120.772 70.0308 120.663L69.7379 120.598ZM69.6871 120.902L69.3879 120.881C69.382 120.963 69.3793 121.061 69.3793 121.172H69.6793H69.9793C69.9793 121.069 69.9818 120.987 69.9864 120.924L69.6871 120.902ZM69.6793 121.172H69.3793C69.3793 121.301 69.3935 121.429 69.4214 121.557L69.7145 121.492L70.0075 121.428C69.9886 121.342 69.9793 121.257 69.9793 121.172H69.6793ZM69.7145 121.492L69.42 121.55C69.4484 121.695 69.5044 121.831 69.5958 121.947L69.8317 121.762L70.0676 121.576C70.0443 121.547 70.0222 121.503 70.0089 121.435L69.7145 121.492ZM69.8317 121.762L69.5917 121.942C69.7146 122.106 69.8952 122.171 70.0778 122.171V121.871V121.571C70.0561 121.571 70.0513 121.567 70.056 121.57C70.0584 121.571 70.0617 121.573 70.0652 121.575C70.0687 121.578 70.0708 121.581 70.0717 121.582L69.8317 121.762ZM70.0778 121.871L70.0662 122.171C70.2721 122.179 70.4647 122.117 70.62 121.975L70.4176 121.754L70.2152 121.532C70.1882 121.557 70.1543 121.574 70.0893 121.571L70.0778 121.871ZM70.4176 121.754L70.62 121.975C70.7464 121.86 70.8421 121.718 70.9094 121.557L70.6324 121.441L70.3555 121.326C70.3186 121.415 70.271 121.481 70.2152 121.532L70.4176 121.754ZM70.6324 121.441L70.9106 121.554C70.9677 121.412 71.0083 121.27 71.0304 121.128L70.734 121.082L70.4376 121.036C70.4232 121.128 70.3961 121.226 70.3543 121.329L70.6324 121.441ZM70.734 121.082L70.5174 121.29L70.7869 121.571L71.0035 121.363L71.2201 121.156L70.9506 120.874L70.734 121.082ZM71.0035 121.363L70.7051 121.333C70.6898 121.483 70.6528 121.631 70.5931 121.777L70.8707 121.891L71.1484 122.004C71.2293 121.806 71.2808 121.603 71.302 121.394L71.0035 121.363ZM70.8707 121.891L70.5939 121.775C70.5325 121.922 70.4518 122.055 70.3515 122.175L70.5817 122.367L70.8118 122.56C70.9511 122.393 71.0631 122.208 71.1475 122.006L70.8707 121.891ZM70.5817 122.367L70.3515 122.175C70.2566 122.288 70.1472 122.376 70.0222 122.44L70.1598 122.707L70.2974 122.974C70.4953 122.871 70.6671 122.733 70.8118 122.56L70.5817 122.367ZM70.1598 122.707L70.0222 122.44C69.9077 122.5 69.7785 122.53 69.6286 122.528L69.6246 122.828L69.6206 123.128C69.8614 123.131 70.0889 123.081 70.2974 122.974L70.1598 122.707ZM69.6246 122.828L69.6342 122.528C69.4392 122.522 69.3079 122.471 69.2163 122.396L69.027 122.629L68.8376 122.862C69.0533 123.037 69.3205 123.119 69.6151 123.128L69.6246 122.828ZM69.027 122.629L69.2163 122.396C69.1047 122.305 69.0183 122.188 68.9579 122.037L68.6793 122.148L68.4008 122.26C68.4966 122.499 68.642 122.702 68.8376 122.862L69.027 122.629ZM68.6793 122.148L68.9579 122.037C68.891 121.87 68.8479 121.69 68.8296 121.495L68.5309 121.523L68.2322 121.552C68.2556 121.8 68.3114 122.036 68.4008 122.26L68.6793 122.148ZM68.5309 121.523L68.8295 121.495C68.81 121.29 68.8067 121.1 68.8185 120.922L68.5192 120.902L68.2198 120.882C68.2056 121.096 68.21 121.319 68.2322 121.552L68.5309 121.523ZM68.5192 120.902L68.8178 120.931C68.8384 120.713 68.8912 120.498 68.9772 120.284L68.6988 120.172L68.4205 120.06C68.3138 120.325 68.2468 120.597 68.2205 120.874L68.5192 120.902ZM68.6988 120.172L68.9768 120.285C69.0616 120.076 69.1744 119.888 69.3155 119.72L69.0856 119.527L68.8556 119.335C68.6738 119.552 68.5288 119.794 68.4209 120.059L68.6988 120.172ZM69.0856 119.527L69.3142 119.722C69.45 119.562 69.6097 119.436 69.7952 119.342L69.6598 119.074L69.5244 118.807C69.2671 118.937 69.0441 119.113 68.8569 119.333L69.0856 119.527ZM69.6598 119.074L69.7927 119.343C69.9669 119.257 70.1647 119.214 70.3923 119.218L70.3981 118.918L70.4038 118.618C70.0897 118.612 69.7954 118.673 69.5269 118.805L69.6598 119.074ZM70.3981 118.918L70.3903 119.218C70.6476 119.225 70.8337 119.287 70.9689 119.384L71.1442 119.141L71.3194 118.897C71.064 118.713 70.7527 118.627 70.4058 118.618L70.3981 118.918ZM71.1442 119.141L70.9667 119.383C71.1211 119.496 71.2405 119.64 71.3265 119.821L71.5973 119.691L71.8681 119.562C71.7405 119.295 71.5579 119.072 71.3216 118.899L71.1442 119.141ZM71.5973 119.691L71.3259 119.819C71.4186 120.016 71.4806 120.23 71.5107 120.464L71.8082 120.426L72.1058 120.387C72.0682 120.095 71.9895 119.82 71.8687 119.564L71.5973 119.691ZM71.8082 120.426L71.5103 120.461C71.5391 120.706 71.5413 120.941 71.5176 121.168L71.816 121.199L72.1144 121.23C72.1429 120.957 72.1398 120.677 72.1062 120.391L71.8082 120.426ZM71.816 121.199L71.5185 121.161L71.4599 121.618L71.7574 121.656L72.055 121.694L72.1136 121.237L71.816 121.199ZM71.7574 121.656L71.4598 121.619C71.4135 121.984 71.3222 122.338 71.1857 122.682L71.4645 122.793L71.7433 122.904C71.8984 122.513 72.0024 122.11 72.0551 121.694L71.7574 121.656ZM71.4645 122.793L71.1854 122.683C71.0501 123.026 70.8736 123.331 70.6566 123.601L70.8903 123.789L71.1239 123.977C71.3809 123.658 71.5872 123.3 71.7436 122.903L71.4645 122.793ZM70.8903 123.789L70.6568 123.601C70.4427 123.866 70.1882 124.075 69.8918 124.23L70.0309 124.496L70.17 124.762C70.5403 124.568 70.8587 124.306 71.1237 123.977L70.8903 123.789ZM70.0309 124.496L69.8918 124.23C69.607 124.379 69.2713 124.459 68.8767 124.462L68.8785 124.762L68.8803 125.062C69.3556 125.059 69.7881 124.962 70.17 124.762L70.0309 124.496Z" fill="black" mask="url(#path-4-outside-1_275_680)"/>
<path d="M72.2262 118.219V118.519H72.5262V118.219H72.2262ZM68.2028 118.219H67.9028V118.519H68.2028V118.219ZM68.2028 117.828V117.528H67.9028V117.828H68.2028ZM72.2262 117.828H72.5262V117.528H72.2262V117.828ZM72.2262 118.219V117.919H68.2028V118.219V118.519H72.2262V118.219ZM68.2028 118.219H68.5028V117.828H68.2028H67.9028V118.219H68.2028ZM68.2028 117.828V118.128H72.2262V117.828V117.528H68.2028V117.828ZM72.2262 117.828H71.9262V118.219H72.2262H72.5262V117.828H72.2262Z" fill="black" mask="url(#path-4-outside-1_275_680)"/>
<g filter="url(#filter0_d_275_680)">
<ellipse cx="42" cy="70.5" rx="28" ry="45.5" fill="url(#paint2_linear_275_680)" shape-rendering="crispEdges"/>
<ellipse cx="42" cy="70.5" rx="28" ry="45.5" stroke="#7B5600" shape-rendering="crispEdges"/>
</g>
<g filter="url(#filter1_d_275_680)">
<mask id="path-7-outside-2_275_680" maskUnits="userSpaceOnUse" x="29" y="53" width="27" height="37" fill="black">
<rect fill="white" x="29" y="53" width="27" height="37"/>
<path d="M47.6758 54.2695H48.4961V58.7617H48.1641C46.6797 58.7617 45.3581 58.9831 44.1992 59.4258C43.0404 59.8685 42.0573 60.5 41.25 61.3203C40.4557 62.1276 39.8438 63.1042 39.4141 64.25C38.9974 65.3958 38.7891 66.6784 38.7891 68.0977V72.8242C38.7891 73.8398 38.8867 74.7383 39.082 75.5195C39.2904 76.2878 39.5833 76.9323 39.9609 77.4531C40.3516 77.9609 40.8073 78.3451 41.3281 78.6055C41.849 78.8529 42.4349 78.9766 43.0859 78.9766C43.6979 78.9766 44.2513 78.8464 44.7461 78.5859C45.2539 78.3255 45.6836 77.9609 46.0352 77.4922C46.3997 77.0104 46.6732 76.4505 46.8555 75.8125C47.0508 75.1615 47.1484 74.4518 47.1484 73.6836C47.1484 72.9154 47.0508 72.2057 46.8555 71.5547C46.6732 70.9036 46.3997 70.3438 46.0352 69.875C45.6706 69.3932 45.2279 69.0221 44.707 68.7617C44.1862 68.5013 43.6003 68.3711 42.9492 68.3711C42.0638 68.3711 41.2826 68.5794 40.6055 68.9961C39.9414 69.3997 39.4206 69.9206 39.043 70.5586C38.6654 71.1966 38.4635 71.8672 38.4375 72.5703L36.7383 71.4766C36.7773 70.474 36.9857 69.5234 37.3633 68.625C37.7539 67.7266 38.2878 66.9323 38.9648 66.2422C39.6549 65.5391 40.4818 64.9922 41.4453 64.6016C42.4089 64.1979 43.4961 63.9961 44.707 63.9961C46.0352 63.9961 47.2005 64.25 48.2031 64.7578C49.2188 65.2656 50.0651 65.9622 50.7422 66.8477C51.4193 67.7331 51.9271 68.7552 52.2656 69.9141C52.6042 71.0729 52.7734 72.3099 52.7734 73.625C52.7734 75.0052 52.5456 76.2878 52.0898 77.4727C51.6471 78.6576 51.0026 79.6927 50.1562 80.5781C49.3229 81.4635 48.3203 82.1536 47.1484 82.6484C45.9766 83.1432 44.6615 83.3906 43.2031 83.3906C41.6927 83.3906 40.319 83.1172 39.082 82.5703C37.8581 82.0104 36.8034 81.2292 35.918 80.2266C35.0326 79.224 34.349 78.0326 33.8672 76.6523C33.3984 75.2721 33.1641 73.7617 33.1641 72.1211V69.9336C33.1641 67.6419 33.4961 65.5456 34.1602 63.6445C34.8372 61.7305 35.8073 60.0768 37.0703 58.6836C38.3333 57.2773 39.8568 56.1901 41.6406 55.4219C43.4245 54.6536 45.4362 54.2695 47.6758 54.2695Z"/>
<path d="M30.8203 86.9062H54.1602V88.8594H30.8203V86.9062Z"/>
</mask>
<path d="M47.6758 54.2695H48.4961V58.7617H48.1641C46.6797 58.7617 45.3581 58.9831 44.1992 59.4258C43.0404 59.8685 42.0573 60.5 41.25 61.3203C40.4557 62.1276 39.8438 63.1042 39.4141 64.25C38.9974 65.3958 38.7891 66.6784 38.7891 68.0977V72.8242C38.7891 73.8398 38.8867 74.7383 39.082 75.5195C39.2904 76.2878 39.5833 76.9323 39.9609 77.4531C40.3516 77.9609 40.8073 78.3451 41.3281 78.6055C41.849 78.8529 42.4349 78.9766 43.0859 78.9766C43.6979 78.9766 44.2513 78.8464 44.7461 78.5859C45.2539 78.3255 45.6836 77.9609 46.0352 77.4922C46.3997 77.0104 46.6732 76.4505 46.8555 75.8125C47.0508 75.1615 47.1484 74.4518 47.1484 73.6836C47.1484 72.9154 47.0508 72.2057 46.8555 71.5547C46.6732 70.9036 46.3997 70.3438 46.0352 69.875C45.6706 69.3932 45.2279 69.0221 44.707 68.7617C44.1862 68.5013 43.6003 68.3711 42.9492 68.3711C42.0638 68.3711 41.2826 68.5794 40.6055 68.9961C39.9414 69.3997 39.4206 69.9206 39.043 70.5586C38.6654 71.1966 38.4635 71.8672 38.4375 72.5703L36.7383 71.4766C36.7773 70.474 36.9857 69.5234 37.3633 68.625C37.7539 67.7266 38.2878 66.9323 38.9648 66.2422C39.6549 65.5391 40.4818 64.9922 41.4453 64.6016C42.4089 64.1979 43.4961 63.9961 44.707 63.9961C46.0352 63.9961 47.2005 64.25 48.2031 64.7578C49.2188 65.2656 50.0651 65.9622 50.7422 66.8477C51.4193 67.7331 51.9271 68.7552 52.2656 69.9141C52.6042 71.0729 52.7734 72.3099 52.7734 73.625C52.7734 75.0052 52.5456 76.2878 52.0898 77.4727C51.6471 78.6576 51.0026 79.6927 50.1562 80.5781C49.3229 81.4635 48.3203 82.1536 47.1484 82.6484C45.9766 83.1432 44.6615 83.3906 43.2031 83.3906C41.6927 83.3906 40.319 83.1172 39.082 82.5703C37.8581 82.0104 36.8034 81.2292 35.918 80.2266C35.0326 79.224 34.349 78.0326 33.8672 76.6523C33.3984 75.2721 33.1641 73.7617 33.1641 72.1211V69.9336C33.1641 67.6419 33.4961 65.5456 34.1602 63.6445C34.8372 61.7305 35.8073 60.0768 37.0703 58.6836C38.3333 57.2773 39.8568 56.1901 41.6406 55.4219C43.4245 54.6536 45.4362 54.2695 47.6758 54.2695Z" fill="#FFB200"/>
<path d="M30.8203 86.9062H54.1602V88.8594H30.8203V86.9062Z" fill="#FFB200"/>
<path d="M48.4961 54.2695H49.4961V53.2695H48.4961V54.2695ZM48.4961 58.7617V59.7617H49.4961V58.7617H48.4961ZM41.25 61.3203L40.5373 60.6189L40.5372 60.619L41.25 61.3203ZM39.4141 64.25L38.4777 63.8989L38.4743 63.9083L39.4141 64.25ZM39.082 75.5195L38.1119 75.7621L38.1143 75.7717L38.1169 75.7813L39.082 75.5195ZM39.9609 77.4531L39.1513 78.0401L39.1597 78.0516L39.1683 78.0628L39.9609 77.4531ZM41.3281 78.6055L40.8809 79.4999L40.8899 79.5044L40.8991 79.5087L41.3281 78.6055ZM44.7461 78.5859L44.2897 77.6961L44.2803 77.701L44.7461 78.5859ZM46.0352 77.4922L45.2377 76.8887L45.2352 76.8922L46.0352 77.4922ZM46.8555 75.8125L45.8976 75.5251L45.8939 75.5378L46.8555 75.8125ZM46.8555 71.5547L45.8925 71.8243L45.895 71.8332L45.8976 71.842L46.8555 71.5547ZM46.0352 69.875L45.2377 70.4785L45.2458 70.4889L46.0352 69.875ZM40.6055 68.9961L41.1249 69.8506L41.1296 69.8478L40.6055 68.9961ZM38.4375 72.5703L37.8963 73.4112L39.3719 74.361L39.4368 72.6073L38.4375 72.5703ZM36.7383 71.4766L35.739 71.4376L35.7168 72.0083L36.197 72.3174L36.7383 71.4766ZM37.3633 68.625L36.4461 68.2262L36.4414 68.2375L37.3633 68.625ZM38.9648 66.2422L38.2512 65.5417L38.251 65.5418L38.9648 66.2422ZM41.4453 64.6016L41.821 65.5284L41.8317 65.5239L41.4453 64.6016ZM48.2031 64.7578L47.7513 65.6499L47.7559 65.6522L48.2031 64.7578ZM50.7422 66.8477L49.9478 67.4551L50.7422 66.8477ZM52.0898 77.4727L51.1565 77.1137L51.1531 77.1227L52.0898 77.4727ZM50.1562 80.5781L49.4334 79.8871L49.428 79.8928L50.1562 80.5781ZM39.082 82.5703L38.666 83.4798L38.6777 83.4849L39.082 82.5703ZM33.8672 76.6523L32.9203 76.9739L32.923 76.9819L33.8672 76.6523ZM34.1602 63.6445L33.2174 63.311L33.2161 63.3148L34.1602 63.6445ZM37.0703 58.6836L37.8112 59.3552L37.8143 59.3518L37.0703 58.6836ZM41.6406 55.4219L41.2451 54.5034L41.6406 55.4219ZM47.6758 54.2695V55.2695H48.4961V54.2695V53.2695H47.6758V54.2695ZM48.4961 54.2695H47.4961V58.7617H48.4961H49.4961V54.2695H48.4961ZM48.4961 58.7617V57.7617H48.1641V58.7617V59.7617H48.4961V58.7617ZM48.1641 58.7617V57.7617C46.5811 57.7617 45.1351 57.9978 43.8424 58.4916L44.1992 59.4258L44.5561 60.3599C45.581 59.9684 46.7783 59.7617 48.1641 59.7617V58.7617ZM44.1992 59.4258L43.8424 58.4916C42.5601 58.9815 41.4528 59.6886 40.5373 60.6189L41.25 61.3203L41.9627 62.0217C42.6618 61.3114 43.5206 60.7555 44.5561 60.3599L44.1992 59.4258ZM41.25 61.3203L40.5372 60.619C39.637 61.5339 38.9526 62.6326 38.4777 63.8989L39.4141 64.25L40.3504 64.6011C40.7349 63.5757 41.2745 62.7213 41.9628 62.0216L41.25 61.3203ZM39.4141 64.25L38.4743 63.9083C38.0118 65.18 37.7891 66.5806 37.7891 68.0977H38.7891H39.7891C39.7891 66.7762 39.983 65.6117 40.3539 64.5917L39.4141 64.25ZM38.7891 68.0977H37.7891V72.8242H38.7891H39.7891V68.0977H38.7891ZM38.7891 72.8242H37.7891C37.7891 73.9014 37.8924 74.884 38.1119 75.7621L39.082 75.5195L40.0522 75.277C39.8811 74.5925 39.7891 73.7783 39.7891 72.8242H38.7891ZM39.082 75.5195L38.1169 75.7813C38.3497 76.6397 38.688 77.401 39.1513 78.0401L39.9609 77.4531L40.7705 76.8662C40.4787 76.4636 40.2311 75.9359 40.0472 75.2578L39.082 75.5195ZM39.9609 77.4531L39.1683 78.0628C39.6417 78.6783 40.2118 79.1653 40.8809 79.4999L41.3281 78.6055L41.7753 77.711C41.4028 77.5248 41.0614 77.2436 40.7536 76.8434L39.9609 77.4531ZM41.3281 78.6055L40.8991 79.5087C41.5703 79.8276 42.3057 79.9766 43.0859 79.9766V78.9766V77.9766C42.5641 77.9766 42.1276 77.8781 41.7572 77.7022L41.3281 78.6055ZM43.0859 78.9766V79.9766C43.8445 79.9766 44.5602 79.8138 45.2118 79.4709L44.7461 78.5859L44.2803 77.701C43.9424 77.8789 43.5513 77.9766 43.0859 77.9766V78.9766ZM44.7461 78.5859L45.2024 79.4758C45.849 79.1442 46.395 78.679 46.8352 78.0922L46.0352 77.4922L45.2352 76.8922C44.9722 77.2428 44.6588 77.5069 44.2898 77.6961L44.7461 78.5859ZM46.0352 77.4922L46.8326 78.0956C47.2787 77.5061 47.6041 76.8323 47.817 76.0872L46.8555 75.8125L45.8939 75.5378C45.7422 76.0687 45.5208 76.5147 45.2378 76.8887L46.0352 77.4922ZM46.8555 75.8125L47.8133 76.0998C48.0399 75.3444 48.1484 74.5367 48.1484 73.6836H47.1484H46.1484C46.1484 74.367 46.0616 74.9786 45.8976 75.5252L46.8555 75.8125ZM47.1484 73.6836H48.1484C48.1484 72.8305 48.0399 72.0228 47.8133 71.2673L46.8555 71.5547L45.8976 71.842C46.0616 72.3886 46.1484 73.0002 46.1484 73.6836H47.1484ZM46.8555 71.5547L47.8184 71.2851C47.606 70.5263 47.279 69.8454 46.8245 69.2611L46.0352 69.875L45.2458 70.4889C45.5205 70.8421 45.7404 71.281 45.8925 71.8243L46.8555 71.5547ZM46.0352 69.875L46.8326 69.2716C46.3788 68.6719 45.8179 68.1991 45.1542 67.8673L44.707 68.7617L44.2598 69.6561C44.6379 69.8452 44.9624 70.1146 45.2378 70.4784L46.0352 69.875ZM44.707 68.7617L45.1542 67.8673C44.4789 67.5296 43.737 67.3711 42.9492 67.3711V68.3711V69.3711C43.4635 69.3711 43.8935 69.473 44.2598 69.6561L44.707 68.7617ZM42.9492 68.3711V67.3711C41.9004 67.3711 40.9335 67.62 40.0814 68.1444L40.6055 68.9961L41.1296 69.8478C41.6316 69.5388 42.2272 69.3711 42.9492 69.3711V68.3711ZM40.6055 68.9961L40.0861 68.1416C39.2886 68.6263 38.6477 69.263 38.1824 70.0493L39.043 70.5586L39.9035 71.0679C40.1934 70.5781 40.5942 70.1732 41.1249 69.8506L40.6055 68.9961ZM39.043 70.5586L38.1824 70.0493C37.7246 70.8227 37.4707 71.6546 37.4382 72.5333L38.4375 72.5703L39.4368 72.6073C39.4564 72.0797 39.6061 71.5705 39.9035 71.0679L39.043 70.5586ZM38.4375 72.5703L38.9787 71.7294L37.2795 70.6357L36.7383 71.4766L36.197 72.3174L37.8963 73.4112L38.4375 72.5703ZM36.7383 71.4766L37.7375 71.5155C37.7721 70.6292 37.9554 69.797 38.2852 69.0125L37.3633 68.625L36.4414 68.2375C36.0159 69.2498 35.7826 70.3188 35.739 71.4376L36.7383 71.4766ZM37.3633 68.625L38.2803 69.0237C38.6229 68.2359 39.0883 67.5442 39.6787 66.9425L38.9648 66.2422L38.251 65.5418C37.4872 66.3204 36.8849 67.2172 36.4462 68.2263L37.3633 68.625ZM38.9648 66.2422L39.6785 66.9427C40.2674 66.3427 40.9773 65.8704 41.821 65.5283L41.4453 64.6016L41.0696 63.6748C39.9862 64.114 39.0425 64.7355 38.2512 65.5417L38.9648 66.2422ZM41.4453 64.6016L41.8317 65.5239C42.655 65.179 43.6079 64.9961 44.707 64.9961V63.9961V62.9961C43.3843 62.9961 42.1627 63.2168 41.0589 63.6792L41.4453 64.6016ZM44.707 63.9961V64.9961C45.9066 64.9961 46.912 65.2248 47.7513 65.6499L48.2031 64.7578L48.655 63.8657C47.489 63.2752 46.1638 62.9961 44.707 62.9961V63.9961ZM48.2031 64.7578L47.7559 65.6522C48.6381 66.0934 49.3649 66.6928 49.9478 67.4551L50.7422 66.8477L51.5365 66.2402C50.7653 65.2317 49.7994 64.4379 48.6503 63.8634L48.2031 64.7578ZM50.7422 66.8477L49.9478 67.4551C50.5441 68.2348 50.9989 69.144 51.3057 70.1945L52.2656 69.9141L53.2255 69.6336C52.8553 68.3664 52.2945 67.2314 51.5365 66.2402L50.7422 66.8477ZM52.2656 69.9141L51.3057 70.1945C51.6154 71.2545 51.7734 72.3964 51.7734 73.625H52.7734H53.7734C53.7734 72.2234 53.5929 70.8913 53.2255 69.6336L52.2656 69.9141ZM52.7734 73.625H51.7734C51.7734 74.8932 51.5645 76.0529 51.1565 77.1137L52.0898 77.4727L53.0232 77.8316C53.5267 76.5226 53.7734 75.1172 53.7734 73.625H52.7734ZM52.0898 77.4727L51.1531 77.1227C50.7562 78.1848 50.183 79.1029 49.4334 79.8871L50.1562 80.5781L50.8791 81.2691C51.8222 80.2825 52.538 79.1303 53.0266 77.8227L52.0898 77.4727ZM50.1562 80.5781L49.428 79.8928C48.6945 80.6721 47.8091 81.284 46.7595 81.7272L47.1484 82.6484L47.5374 83.5697C48.8315 83.0233 49.9513 82.255 50.8845 81.2635L50.1562 80.5781ZM47.1484 82.6484L46.7595 81.7272C45.7274 82.1629 44.5473 82.3906 43.2031 82.3906V83.3906V84.3906C44.7756 84.3906 46.2257 84.1235 47.5374 83.5697L47.1484 82.6484ZM43.2031 83.3906V82.3906C41.8157 82.3906 40.5819 82.14 39.4864 81.6557L39.082 82.5703L38.6777 83.4849C40.0561 84.0943 41.5698 84.3906 43.2031 84.3906V83.3906ZM39.082 82.5703L39.498 81.6609C38.4005 81.1589 37.4597 80.4616 36.6675 79.5646L35.918 80.2266L35.1684 80.8885C36.1471 81.9967 37.3156 82.8619 38.666 83.4797L39.082 82.5703ZM35.918 80.2266L36.6675 79.5646C35.8756 78.6678 35.2544 77.5921 34.8113 76.3228L33.8672 76.6523L32.923 76.9819C33.4435 78.473 34.1896 79.7801 35.1684 80.8885L35.918 80.2266ZM33.8672 76.6523L34.8141 76.3308C34.3846 75.0662 34.1641 73.6659 34.1641 72.1211H33.1641H32.1641C32.1641 73.8575 32.4123 75.478 32.9203 76.9739L33.8672 76.6523ZM33.1641 72.1211H34.1641V69.9336H33.1641H32.1641V72.1211H33.1641ZM33.1641 69.9336H34.1641C34.1641 67.7389 34.4819 65.7558 35.1042 63.9743L34.1602 63.6445L33.2161 63.3148C32.5103 65.3353 32.1641 67.5449 32.1641 69.9336H33.1641ZM34.1602 63.6445L35.1029 63.978C35.7393 62.1789 36.6441 60.6426 37.8112 59.3552L37.0703 58.6836L36.3294 58.012C34.9705 59.511 33.9351 61.282 33.2174 63.311L34.1602 63.6445ZM37.0703 58.6836L37.8143 59.3518C38.9779 58.0562 40.3814 57.0529 42.0362 56.3403L41.6406 55.4219L41.2451 54.5034C39.3321 55.3273 37.6887 56.4985 36.3263 58.0154L37.0703 58.6836ZM41.6406 55.4219L42.0362 56.3403C43.6774 55.6335 45.5516 55.2695 47.6758 55.2695V54.2695V53.2695C45.3208 53.2695 43.1715 53.6738 41.2451 54.5034L41.6406 55.4219Z" fill="black" mask="url(#path-7-outside-2_275_680)"/>
<path d="M30.8203 86.9062V85.9062H29.8203V86.9062H30.8203ZM54.1602 86.9062H55.1602V85.9062H54.1602V86.9062ZM54.1602 88.8594V89.8594H55.1602V88.8594H54.1602ZM30.8203 88.8594H29.8203V89.8594H30.8203V88.8594ZM30.8203 86.9062V87.9062H54.1602V86.9062V85.9062H30.8203V86.9062ZM54.1602 86.9062H53.1602V88.8594H54.1602H55.1602V86.9062H54.1602ZM54.1602 88.8594V87.8594H30.8203V88.8594V89.8594H54.1602V88.8594ZM30.8203 88.8594H31.8203V86.9062H30.8203H29.8203V88.8594H30.8203Z" fill="black" mask="url(#path-7-outside-2_275_680)"/>
</g>
<path d="M14.5616 5.11468C16.1644 5.34009 17.5106 6.45647 18.381 8.12475C19.2511 9.79263 19.633 11.9941 19.3044 14.3322C18.9758 16.6705 18.0018 18.6822 16.7056 20.0457C15.4092 21.4091 13.8073 22.1105 12.2046 21.8854C10.6017 21.6601 9.25448 20.5443 8.38406 18.8762C7.51391 17.2083 7.13218 15.006 7.4608 12.6677C7.7894 10.3296 8.76336 8.31867 10.0594 6.95524C11.356 5.59138 12.9586 4.88939 14.5616 5.11468Z" fill="url(#paint3_linear_275_680)" stroke="#7B5600" stroke-width="0.5"/>
<g opacity="0.6">
<mask id="path-10-outside-3_275_680" maskUnits="userSpaceOnUse" x="10" y="9" width="6" height="9" fill="black">
<rect fill="white" x="10" y="9" width="6" height="9"/>
<path d="M14.3359 10.2383H14.5273L14.4297 11.2266L14.3867 11.2227C14.1289 11.2148 13.8997 11.2591 13.6992 11.3555C13.5013 11.4492 13.332 11.5807 13.1914 11.75C13.0508 11.9167 12.9362 12.1081 12.8477 12.3242C12.7617 12.5378 12.7031 12.7617 12.6719 12.9961L12.5391 13.9766C12.5339 14.0495 12.526 14.1471 12.5156 14.2695C12.5052 14.3919 12.5052 14.5182 12.5156 14.6484C12.526 14.776 12.5573 14.8854 12.6094 14.9766C12.6641 15.0651 12.7526 15.112 12.875 15.1172C12.9922 15.1198 13.0898 15.0859 13.168 15.0156C13.2487 14.9453 13.3138 14.8542 13.3633 14.7422C13.4128 14.6302 13.4505 14.5169 13.4766 14.4023C13.5026 14.2852 13.5195 14.1836 13.5273 14.0977C13.5326 14.0247 13.5352 13.9349 13.5352 13.8281C13.5352 13.7214 13.5234 13.6146 13.5 13.5078C13.4792 13.401 13.4401 13.3112 13.3828 13.2383C13.3281 13.1654 13.2461 13.1289 13.1367 13.1289C13.0013 13.1237 12.888 13.1628 12.7969 13.2461C12.7057 13.3294 12.6341 13.4336 12.582 13.5586C12.5326 13.681 12.4987 13.8008 12.4805 13.918L12.2109 13.6367C12.2292 13.457 12.2734 13.2812 12.3438 13.1094C12.4167 12.9349 12.513 12.776 12.6328 12.6328C12.7526 12.4896 12.8932 12.3763 13.0547 12.293C13.2161 12.2096 13.3945 12.1693 13.5898 12.1719C13.8346 12.1797 14.0339 12.2461 14.1875 12.3711C14.3411 12.4961 14.457 12.6562 14.5352 12.8516C14.6133 13.0469 14.6628 13.2552 14.6836 13.4766C14.7044 13.6953 14.7083 13.9023 14.6953 14.0977C14.6719 14.3451 14.612 14.5885 14.5156 14.8281C14.4193 15.0651 14.2904 15.2799 14.1289 15.4727C13.9674 15.6628 13.776 15.8138 13.5547 15.9258C13.3333 16.0352 13.0872 16.0872 12.8164 16.082C12.5143 16.0742 12.2656 16 12.0703 15.8594C11.875 15.7161 11.724 15.5326 11.6172 15.3086C11.5104 15.082 11.4401 14.8372 11.4062 14.5742C11.375 14.3086 11.3724 14.0508 11.3984 13.8008L11.457 13.3438C11.5065 12.9531 11.6042 12.5742 11.75 12.207C11.8958 11.8372 12.0872 11.5052 12.3242 11.2109C12.5638 10.9141 12.8503 10.6784 13.1836 10.5039C13.5169 10.3294 13.901 10.2409 14.3359 10.2383Z"/>
<path d="M10.9883 16.7812H15.0117V17.1719H10.9883V16.7812Z"/>
</mask>
<path d="M14.3359 10.2383H14.5273L14.4297 11.2266L14.3867 11.2227C14.1289 11.2148 13.8997 11.2591 13.6992 11.3555C13.5013 11.4492 13.332 11.5807 13.1914 11.75C13.0508 11.9167 12.9362 12.1081 12.8477 12.3242C12.7617 12.5378 12.7031 12.7617 12.6719 12.9961L12.5391 13.9766C12.5339 14.0495 12.526 14.1471 12.5156 14.2695C12.5052 14.3919 12.5052 14.5182 12.5156 14.6484C12.526 14.776 12.5573 14.8854 12.6094 14.9766C12.6641 15.0651 12.7526 15.112 12.875 15.1172C12.9922 15.1198 13.0898 15.0859 13.168 15.0156C13.2487 14.9453 13.3138 14.8542 13.3633 14.7422C13.4128 14.6302 13.4505 14.5169 13.4766 14.4023C13.5026 14.2852 13.5195 14.1836 13.5273 14.0977C13.5326 14.0247 13.5352 13.9349 13.5352 13.8281C13.5352 13.7214 13.5234 13.6146 13.5 13.5078C13.4792 13.401 13.4401 13.3112 13.3828 13.2383C13.3281 13.1654 13.2461 13.1289 13.1367 13.1289C13.0013 13.1237 12.888 13.1628 12.7969 13.2461C12.7057 13.3294 12.6341 13.4336 12.582 13.5586C12.5326 13.681 12.4987 13.8008 12.4805 13.918L12.2109 13.6367C12.2292 13.457 12.2734 13.2812 12.3438 13.1094C12.4167 12.9349 12.513 12.776 12.6328 12.6328C12.7526 12.4896 12.8932 12.3763 13.0547 12.293C13.2161 12.2096 13.3945 12.1693 13.5898 12.1719C13.8346 12.1797 14.0339 12.2461 14.1875 12.3711C14.3411 12.4961 14.457 12.6562 14.5352 12.8516C14.6133 13.0469 14.6628 13.2552 14.6836 13.4766C14.7044 13.6953 14.7083 13.9023 14.6953 14.0977C14.6719 14.3451 14.612 14.5885 14.5156 14.8281C14.4193 15.0651 14.2904 15.2799 14.1289 15.4727C13.9674 15.6628 13.776 15.8138 13.5547 15.9258C13.3333 16.0352 13.0872 16.0872 12.8164 16.082C12.5143 16.0742 12.2656 16 12.0703 15.8594C11.875 15.7161 11.724 15.5326 11.6172 15.3086C11.5104 15.082 11.4401 14.8372 11.4062 14.5742C11.375 14.3086 11.3724 14.0508 11.3984 13.8008L11.457 13.3438C11.5065 12.9531 11.6042 12.5742 11.75 12.207C11.8958 11.8372 12.0872 11.5052 12.3242 11.2109C12.5638 10.9141 12.8503 10.6784 13.1836 10.5039C13.5169 10.3294 13.901 10.2409 14.3359 10.2383Z" fill="#FFB200"/>
<path d="M10.9883 16.7812H15.0117V17.1719H10.9883V16.7812Z" fill="#FFB200"/>
<path d="M14.3359 10.2383V9.93828L14.3341 9.93829L14.3359 10.2383ZM14.5273 10.2383L14.8259 10.2678L14.8584 9.93828H14.5273V10.2383ZM14.4297 11.2266L14.4025 11.5253L14.699 11.5523L14.7282 11.2561L14.4297 11.2266ZM14.3867 11.2227L14.4139 10.9239L14.4049 10.9231L14.3958 10.9228L14.3867 11.2227ZM13.6992 11.3555L13.8276 11.6266L13.8292 11.6259L13.6992 11.3555ZM13.1914 11.75L13.4207 11.9435L13.4222 11.9417L13.1914 11.75ZM12.8477 12.3242L12.57 12.2105L12.5693 12.2122L12.8477 12.3242ZM12.6719 12.9961L12.9692 13.0364L12.9692 13.0357L12.6719 12.9961ZM12.5391 13.9766L12.2418 13.9363L12.2405 13.9457L12.2398 13.9552L12.5391 13.9766ZM12.5156 14.6484L12.2166 14.6724L12.2166 14.6728L12.5156 14.6484ZM12.6094 14.9766L12.3488 15.1255L12.3541 15.1342L12.6094 14.9766ZM12.875 15.1172L12.8622 15.417L12.8683 15.4171L12.875 15.1172ZM13.168 15.0156L12.9709 14.7894L12.9673 14.7926L13.168 15.0156ZM13.4766 14.4023L13.7691 14.4688L13.7694 14.4674L13.4766 14.4023ZM13.5273 14.0977L13.8262 14.1248L13.8266 14.119L13.5273 14.0977ZM13.5 13.5078L13.2055 13.5653L13.207 13.5721L13.5 13.5078ZM13.3828 13.2383L13.1428 13.4183L13.1469 13.4236L13.3828 13.2383ZM13.1367 13.1289L13.1252 13.4289H13.1367V13.1289ZM12.582 13.5586L12.3051 13.4432L12.3039 13.4462L12.582 13.5586ZM12.4805 13.918L12.2639 14.1255L12.6837 14.5636L12.7769 13.9641L12.4805 13.918ZM12.2109 13.6367L11.9125 13.6064L11.8985 13.7443L11.9943 13.8443L12.2109 13.6367ZM12.3438 13.1094L12.0669 12.9937L12.0661 12.9958L12.3438 13.1094ZM13.0547 12.293L12.9171 12.0264L13.0547 12.293ZM13.5898 12.1719L13.5994 11.872L13.5938 11.8719L13.5898 12.1719ZM14.6836 13.4766L14.3849 13.5047L14.3849 13.505L14.6836 13.4766ZM14.6953 14.0977L14.9941 14.126L14.9946 14.1176L14.6953 14.0977ZM14.5156 14.8281L14.7935 14.9411L14.794 14.9401L14.5156 14.8281ZM14.1289 15.4727L14.3576 15.6669L14.3589 15.6653L14.1289 15.4727ZM13.5547 15.9258L13.6876 16.1948L13.6901 16.1935L13.5547 15.9258ZM12.8164 16.082L12.8087 16.3819L12.8106 16.382L12.8164 16.082ZM12.0703 15.8594L11.8929 16.1013L11.895 16.1028L12.0703 15.8594ZM11.6172 15.3086L11.3458 15.4365L11.3464 15.4377L11.6172 15.3086ZM11.4062 14.5742L11.1083 14.6093L11.1087 14.6125L11.4062 14.5742ZM11.3984 13.8008L11.1008 13.7626L11.1001 13.7697L11.3984 13.8008ZM11.457 13.3438L11.7546 13.3819L11.7547 13.3814L11.457 13.3438ZM11.75 12.207L12.0288 12.3178L12.0291 12.3171L11.75 12.207ZM12.3242 11.2109L12.0908 11.0225L12.0906 11.0228L12.3242 11.2109ZM14.3359 10.2383V10.5383H14.5273V10.2383V9.93828H14.3359V10.2383ZM14.5273 10.2383L14.2288 10.2088L14.1311 11.1971L14.4297 11.2266L14.7282 11.2561L14.8259 10.2678L14.5273 10.2383ZM14.4297 11.2266L14.4568 10.9278L14.4139 10.9239L14.3867 11.2227L14.3596 11.5214L14.4025 11.5253L14.4297 11.2266ZM14.3867 11.2227L14.3958 10.9228C14.0976 10.9138 13.8195 10.9648 13.5693 11.0851L13.6992 11.3555L13.8292 11.6259C13.9799 11.5534 14.1602 11.5159 14.3776 11.5225L14.3867 11.2227ZM13.6992 11.3555L13.5708 11.0843C13.3332 11.1969 13.1291 11.3556 12.9606 11.5583L13.1914 11.75L13.4222 11.9417C13.535 11.8059 13.6694 11.7015 13.8276 11.6266L13.6992 11.3555ZM13.1914 11.75L12.9621 11.5565C12.7999 11.7487 12.6696 11.9675 12.57 12.2105L12.8477 12.3242L13.1253 12.4379C13.2028 12.2487 13.3016 12.0846 13.4207 11.9435L13.1914 11.75ZM12.8477 12.3242L12.5693 12.2122C12.4738 12.4496 12.409 12.6979 12.3745 12.9564L12.6719 12.9961L12.9692 13.0357C12.9973 12.8255 13.0496 12.6259 13.126 12.4362L12.8477 12.3242ZM12.6719 12.9961L12.3746 12.9558L12.2418 13.9363L12.5391 13.9766L12.8363 14.0168L12.9692 13.0364L12.6719 12.9961ZM12.5391 13.9766L12.2398 13.9552C12.2348 14.0261 12.2271 14.1223 12.2167 14.2441L12.5156 14.2695L12.8145 14.295C12.825 14.172 12.833 14.0728 12.8383 13.9979L12.5391 13.9766ZM12.5156 14.2695L12.2167 14.2441C12.2048 14.3839 12.2049 14.5268 12.2166 14.6724L12.5156 14.6484L12.8147 14.6245C12.8055 14.5097 12.8056 14.3999 12.8145 14.295L12.5156 14.2695ZM12.5156 14.6484L12.2166 14.6728C12.2298 14.8348 12.2708 14.9887 12.3489 15.1254L12.6094 14.9766L12.8698 14.8277C12.8438 14.7822 12.8222 14.7173 12.8146 14.624L12.5156 14.6484ZM12.6094 14.9766L12.3541 15.1342C12.4709 15.3233 12.6608 15.4083 12.8622 15.4169L12.875 15.1172L12.8878 14.8175C12.8614 14.8163 12.8542 14.8114 12.8572 14.813C12.8586 14.8137 12.8607 14.8152 12.8628 14.8172C12.8649 14.8191 12.8654 14.8201 12.8646 14.8189L12.6094 14.9766ZM12.875 15.1172L12.8683 15.4171C13.0524 15.4212 13.227 15.3661 13.3687 15.2386L13.168 15.0156L12.9673 14.7926C12.9527 14.8058 12.932 14.8184 12.8817 14.8173L12.875 15.1172ZM13.168 15.0156L13.365 15.2418C13.4834 15.1388 13.573 15.0099 13.6377 14.8634L13.3633 14.7422L13.0889 14.6209C13.0546 14.6985 13.014 14.7519 12.9709 14.7894L13.168 15.0156ZM13.3633 14.7422L13.6377 14.8634C13.6946 14.7346 13.7386 14.603 13.7691 14.4688L13.4766 14.4023L13.184 14.3359C13.1624 14.4309 13.1309 14.5259 13.0889 14.6209L13.3633 14.7422ZM13.4766 14.4023L13.7694 14.4674C13.7973 14.3422 13.8168 14.2274 13.8261 14.1248L13.5273 14.0977L13.2286 14.0705C13.2223 14.1398 13.208 14.2281 13.1837 14.3373L13.4766 14.4023ZM13.5273 14.0977L13.8266 14.119C13.8325 14.0366 13.8352 13.9391 13.8352 13.8281H13.5352H13.2352C13.2352 13.9307 13.2326 14.0129 13.2281 14.0763L13.5273 14.0977ZM13.5352 13.8281H13.8352C13.8352 13.6992 13.821 13.5709 13.793 13.4435L13.5 13.5078L13.207 13.5721C13.2259 13.6583 13.2352 13.7435 13.2352 13.8281H13.5352ZM13.5 13.5078L13.7944 13.4504C13.7661 13.305 13.7101 13.1692 13.6187 13.0529L13.3828 13.2383L13.1469 13.4236C13.1701 13.4532 13.1923 13.4971 13.2056 13.5653L13.5 13.5078ZM13.3828 13.2383L13.6228 13.0583C13.4998 12.8943 13.3193 12.8289 13.1367 12.8289V13.1289V13.4289C13.1584 13.4289 13.1632 13.4325 13.1584 13.4304C13.1561 13.4293 13.1527 13.4275 13.1493 13.4247C13.1458 13.4219 13.1437 13.4194 13.1428 13.4183L13.3828 13.2383ZM13.1367 13.1289L13.1482 12.8291C12.9424 12.8212 12.7498 12.8827 12.5944 13.0247L12.7969 13.2461L12.9993 13.4675C13.0263 13.4428 13.0602 13.4262 13.1252 13.4287L13.1367 13.1289ZM12.7969 13.2461L12.5944 13.0247C12.468 13.1403 12.3724 13.2818 12.3051 13.4432L12.582 13.5586L12.859 13.674C12.8959 13.5854 12.9434 13.5186 12.9993 13.4675L12.7969 13.2461ZM12.582 13.5586L12.3039 13.4462C12.2468 13.5875 12.2062 13.7295 12.184 13.8719L12.4805 13.918L12.7769 13.9641C12.7912 13.872 12.8184 13.7745 12.8602 13.671L12.582 13.5586ZM12.4805 13.918L12.6971 13.7104L12.4275 13.4291L12.2109 13.6367L11.9943 13.8443L12.2639 14.1255L12.4805 13.918ZM12.2109 13.6367L12.5094 13.667C12.5246 13.5167 12.5617 13.369 12.6214 13.223L12.3438 13.1094L12.0661 12.9958C11.9852 13.1935 11.9337 13.3973 11.9125 13.6064L12.2109 13.6367ZM12.3438 13.1094L12.6206 13.2251C12.682 13.078 12.7627 12.9451 12.8629 12.8253L12.6328 12.6328L12.4027 12.4403C12.2633 12.607 12.1513 12.7918 12.0669 12.9937L12.3438 13.1094ZM12.6328 12.6328L12.8629 12.8253C12.9578 12.7118 13.0673 12.6241 13.1923 12.5596L13.0547 12.293L12.9171 12.0264C12.7192 12.1285 12.5474 12.2674 12.4027 12.4403L12.6328 12.6328ZM13.0547 12.293L13.1923 12.5596C13.3067 12.5005 13.436 12.4698 13.5858 12.4718L13.5898 12.1719L13.5938 11.8719C13.3531 11.8687 13.1255 11.9188 12.9171 12.0264L13.0547 12.293ZM13.5898 12.1719L13.5803 12.4717C13.7753 12.4779 13.9065 12.5293 13.9982 12.6038L14.1875 12.3711L14.3768 12.1384C14.1612 11.9629 13.894 11.8814 13.5994 11.872L13.5898 12.1719ZM14.1875 12.3711L13.9982 12.6038C14.1098 12.6946 14.1962 12.812 14.2566 12.963L14.5352 12.8516L14.8137 12.7401C14.7178 12.5005 14.5725 12.2976 14.3768 12.1384L14.1875 12.3711ZM14.5352 12.8516L14.2566 12.963C14.3235 13.1302 14.3666 13.3103 14.3849 13.5047L14.6836 13.4766L14.9823 13.4485C14.9589 13.2001 14.9031 12.9636 14.8137 12.7401L14.5352 12.8516ZM14.6836 13.4766L14.3849 13.505C14.4044 13.7096 14.4078 13.9003 14.396 14.0777L14.6953 14.0977L14.9946 14.1176C15.0089 13.9044 15.0044 13.681 14.9822 13.4481L14.6836 13.4766ZM14.6953 14.0977L14.3967 14.0694C14.376 14.2869 14.3233 14.5023 14.2373 14.7162L14.5156 14.8281L14.794 14.9401C14.9007 14.6748 14.9677 14.4032 14.994 14.126L14.6953 14.0977ZM14.5156 14.8281L14.2377 14.7151C14.1529 14.9237 14.04 15.1116 13.899 15.28L14.1289 15.4727L14.3589 15.6653C14.5407 15.4483 14.6856 15.2065 14.7935 14.9411L14.5156 14.8281ZM14.1289 15.4727L13.9002 15.2785C13.7645 15.4383 13.6048 15.5642 13.4193 15.6581L13.5547 15.9258L13.6901 16.1935C13.9473 16.0634 14.1704 15.8873 14.3576 15.6669L14.1289 15.4727ZM13.5547 15.9258L13.4218 15.6568C13.2476 15.7429 13.0497 15.7865 12.8222 15.7821L12.8164 16.082L12.8106 16.382C13.1248 16.388 13.4191 16.3274 13.6876 16.1947L13.5547 15.9258ZM12.8164 16.082L12.8242 15.7821C12.5669 15.7755 12.3808 15.7133 12.2456 15.6159L12.0703 15.8594L11.895 16.1028C12.1504 16.2867 12.4618 16.373 12.8087 16.3819L12.8164 16.082ZM12.0703 15.8594L12.2477 15.6175C12.0934 15.5043 11.974 15.3598 11.888 15.1795L11.6172 15.3086L11.3464 15.4377C11.4739 15.7053 11.6566 15.928 11.8929 16.1013L12.0703 15.8594ZM11.6172 15.3086L11.8886 15.1807C11.7959 14.9841 11.7339 14.7697 11.7038 14.5359L11.4062 14.5742L11.1087 14.6125C11.1463 14.9048 11.2249 15.18 11.3458 15.4365L11.6172 15.3086ZM11.4062 14.5742L11.7042 14.5392C11.6754 14.2941 11.6732 14.0585 11.6968 13.8319L11.3984 13.8008L11.1001 13.7697C11.0716 14.043 11.0746 14.3231 11.1083 14.6093L11.4062 14.5742ZM11.3984 13.8008L11.696 13.8389L11.7546 13.3819L11.457 13.3438L11.1595 13.3056L11.1009 13.7626L11.3984 13.8008ZM11.457 13.3438L11.7547 13.3814C11.8009 13.0159 11.8923 12.6616 12.0288 12.3178L11.75 12.207L11.4712 12.0963C11.3161 12.4869 11.2121 12.8903 11.1594 13.3061L11.457 13.3438ZM11.75 12.207L12.0291 12.3171C12.1644 11.974 12.3409 11.6686 12.5579 11.3991L12.3242 11.2109L12.0906 11.0228C11.8336 11.3418 11.6273 11.7005 11.4709 12.097L11.75 12.207ZM12.3242 11.2109L12.5577 11.3993C12.7718 11.134 13.0263 10.9248 13.3227 10.7697L13.1836 10.5039L13.0445 10.2381C12.6742 10.4319 12.3558 10.6941 12.0908 11.0225L12.3242 11.2109ZM13.1836 10.5039L13.3227 10.7697C13.6075 10.6206 13.9432 10.5406 14.3377 10.5383L14.3359 10.2383L14.3341 9.93829C13.8589 9.94113 13.4264 10.0382 13.0445 10.2381L13.1836 10.5039Z" fill="black" mask="url(#path-10-outside-3_275_680)"/>
<path d="M10.9883 16.7812V16.4812H10.6883V16.7812H10.9883ZM15.0117 16.7812H15.3117V16.4812H15.0117V16.7812ZM15.0117 17.1719V17.4719H15.3117V17.1719H15.0117ZM10.9883 17.1719H10.6883V17.4719H10.9883V17.1719ZM10.9883 16.7812V17.0813H15.0117V16.7812V16.4812H10.9883V16.7812ZM15.0117 16.7812H14.7117V17.1719H15.0117H15.3117V16.7812H15.0117ZM15.0117 17.1719V16.8719H10.9883V17.1719V17.4719H15.0117V17.1719ZM10.9883 17.1719H11.2883V16.7812H10.9883H10.6883V17.1719H10.9883Z" fill="black" mask="url(#path-10-outside-3_275_680)"/>
</g>
<rect x="1" y="61.5" width="3" height="2" fill="#FFB200"/>
<rect x="1" y="69.5" width="3" height="2" fill="#FFB200"/>
<rect x="1" y="72.5" width="3" height="2" fill="#FFB200"/>
<rect x="1" y="75.5" width="3" height="2" fill="#FFB200"/>
<rect x="1" y="58.5" width="3" height="2" fill="#FFB200"/>
<rect x="1" y="64.5" width="3" height="2" fill="#FFB200"/>
<rect x="81" y="61.5" width="3" height="2" fill="#FFB200"/>
<rect x="81" y="69.5" width="3" height="2" fill="#FFB200"/>
<rect x="81" y="72.5" width="3" height="2" fill="#FFB200"/>
<rect x="81" y="75.5" width="3" height="2" fill="#FFB200"/>
<rect x="81" y="58.5" width="3" height="2" fill="#FFB200"/>
<rect x="81" y="64.5" width="3" height="2" fill="#FFB200"/>
<rect x="49.5" y="134" width="2" height="2" transform="rotate(90 49.5 134)" fill="#FFB200"/>
<rect x="41.5" y="134" width="2" height="2" transform="rotate(90 41.5 134)" fill="#FFB200"/>
<rect x="38.5" y="134" width="2" height="2" transform="rotate(90 38.5 134)" fill="#FFB200"/>
<rect x="35.5" y="134" width="2" height="2" transform="rotate(90 35.5 134)" fill="#FFB200"/>
<rect x="52.5" y="134" width="2" height="2" transform="rotate(90 52.5 134)" fill="#FFB200"/>
<rect x="46.5" y="134" width="2" height="2" transform="rotate(90 46.5 134)" fill="#FFB200"/>
<rect x="49.5" y="1" width="2" height="2" transform="rotate(90 49.5 1)" fill="#FFB200"/>
<rect x="41.5" y="1" width="2" height="2" transform="rotate(90 41.5 1)" fill="#FFB200"/>
<rect x="38.5" y="1" width="2" height="2" transform="rotate(90 38.5 1)" fill="#FFB200"/>
<rect x="35.5" y="1" width="2" height="2" transform="rotate(90 35.5 1)" fill="#FFB200"/>
<rect x="52.5" y="1" width="2" height="2" transform="rotate(90 52.5 1)" fill="#FFB200"/>
<rect x="46.5" y="1" width="2" height="2" transform="rotate(90 46.5 1)" fill="#FFB200"/>
<defs>
<filter id="filter0_d_275_680" x="9.5" y="24.5" width="65" height="100" filterUnits="userSpaceOnUse" color-interpolation-filters="sRGB">
<feFlood flood-opacity="0" result="BackgroundImageFix"/>
<feColorMatrix in="SourceAlpha" type="matrix" values="0 0 0 0 0 0 0 0 0 0 0 0 0 0 0 0 0 0 127 0" result="hardAlpha"/>
<feOffset dy="4"/>
<feGaussianBlur stdDeviation="2"/>
<feComposite in2="hardAlpha" operator="out"/>
<feColorMatrix type="matrix" values="0 0 0 0 0 0 0 0 0 0 0 0 0 0 0 0 0 0 0.25 0"/>
<feBlend mode="normal" in2="BackgroundImageFix" result="effect1_dropShadow_275_680"/>
<feBlend mode="normal" in="SourceGraphic" in2="effect1_dropShadow_275_680" result="shape"/>
</filter>
<filter id="filter1_d_275_680" x="25.8203" y="53.2695" width="33.3398" height="44.5898" filterUnits="userSpaceOnUse" color-interpolation-filters="sRGB">
<feFlood flood-opacity="0" result="BackgroundImageFix"/>
<feColorMatrix in="SourceAlpha" type="matrix" values="0 0 0 0 0 0 0 0 0 0 0 0 0 0 0 0 0 0 127 0" result="hardAlpha"/>
<feOffset dy="4"/>
<feGaussianBlur stdDeviation="2"/>
<feComposite in2="hardAlpha" operator="out"/>
<feColorMatrix type="matrix" values="0 0 0 0 0 0 0 0 0 0 0 0 0 0 0 0 0 0 0.25 0"/>
<feBlend mode="normal" in2="BackgroundImageFix" result="effect1_dropShadow_275_680"/>
<feBlend mode="normal" in="SourceGraphic" in2="effect1_dropShadow_275_680" result="shape"/>
</filter>
<linearGradient id="paint0_linear_275_680" x1="42.5" y1="3" x2="42.5" y2="134" gradientUnits="userSpaceOnUse">
<stop stop-color="#E8A200" stop-opacity="0.95"/>
<stop offset="1" stop-color="#5B4001"/>
</linearGradient>
<linearGradient id="paint1_linear_275_680" x1="70.5962" y1="112.867" x2="68.1697" y2="130.133" gradientUnits="userSpaceOnUse">
<stop stop-color="#FFF3D6" stop-opacity="0.95"/>
<stop offset="1" stop-color="#C88C02"/>
</linearGradient>
<linearGradient id="paint2_linear_275_680" x1="42" y1="25" x2="42" y2="116" gradientUnits="userSpaceOnUse">
<stop stop-color="#FFD678" stop-opacity="0.95"/>
<stop offset="1" stop-color="#865E00"/>
</linearGradient>
<linearGradient id="paint3_linear_275_680" x1="14.596" y1="4.86706" x2="12.1694" y2="22.1329" gradientUnits="userSpaceOnUse">
<stop stop-color="#FFF3D6" stop-opacity="0.95"/>
<stop offset="1" stop-color="#C88C02"/>
</linearGradient>
</defs>
</svg>
