<svg width="85" height="137" viewBox="0 0 85 137" fill="none" xmlns="http://www.w3.org/2000/svg">
<rect x="0.5" y="0.5" width="84" height="136" rx="9.5" fill="white" stroke="black"/>
<rect x="4.5" y="3.5" width="76" height="130" rx="9.5" fill="url(#paint0_linear_272_538)" stroke="black"/>
<path d="M70.5616 113.115C72.1644 113.34 73.5106 114.456 74.381 116.125C75.2511 117.793 75.633 119.994 75.3044 122.332C74.9758 124.67 74.0018 126.682 72.7056 128.046C71.4092 129.409 69.8073 130.111 68.2046 129.885C66.6017 129.66 65.2545 128.544 64.3841 126.876C63.5139 125.208 63.1322 123.006 63.4608 120.668C63.7894 118.33 64.7634 116.319 66.0594 114.955C67.356 113.591 68.9586 112.889 70.5616 113.115Z" fill="url(#paint1_linear_272_538)" stroke="#696969" stroke-width="0.5"/>
<mask id="path-4-outside-1_272_538" maskUnits="userSpaceOnUse" x="64.4622" y="118" width="9" height="8" fill="black">
<rect fill="white" x="64.4622" y="118" width="9" height="8"/>
<path d="M69.7641 124.695L70.725 119H71.8852L71.1469 123.254L72.2445 122.859L72.0688 123.863L69.9008 124.691L69.7641 124.695ZM65.911 124.695L66.8719 119H68.032L67.2938 123.254L68.3914 122.859L68.2156 123.863L66.0477 124.691L65.911 124.695Z"/>
</mask>
<path d="M69.7641 124.695L70.725 119H71.8852L71.1469 123.254L72.2445 122.859L72.0688 123.863L69.9008 124.691L69.7641 124.695ZM65.911 124.695L66.8719 119H68.032L67.2938 123.254L68.3914 122.859L68.2156 123.863L66.0477 124.691L65.911 124.695Z" fill="#6C6C6C"/>
<path d="M69.7641 124.695L69.271 124.612L69.1698 125.212L69.7784 125.195L69.7641 124.695ZM70.725 119V118.5H70.3023L70.232 118.917L70.725 119ZM71.8852 119L72.3778 119.085L72.4794 118.5H71.8852V119ZM71.1469 123.254L70.6543 123.168L70.5073 124.015L71.316 123.724L71.1469 123.254ZM72.2445 122.859L72.7371 122.946L72.8855 122.098L72.0754 122.389L72.2445 122.859ZM72.0688 123.863L72.2472 124.33L72.5123 124.229L72.5613 123.95L72.0688 123.863ZM69.9008 124.691L69.9151 125.191L69.9999 125.189L70.0792 125.158L69.9008 124.691ZM69.7641 124.695L70.2571 124.778L71.218 119.083L70.725 119L70.232 118.917L69.271 124.612L69.7641 124.695ZM70.725 119V119.5H71.8852V119V118.5H70.725V119ZM71.8852 119L71.3925 118.915L70.6543 123.168L71.1469 123.254L71.6395 123.339L72.3778 119.085L71.8852 119ZM71.1469 123.254L71.316 123.724L72.4137 123.33L72.2445 122.859L72.0754 122.389L70.9778 122.783L71.1469 123.254ZM72.2445 122.859L71.752 122.773L71.5763 123.777L72.0688 123.863L72.5613 123.95L72.7371 122.946L72.2445 122.859ZM72.0688 123.863L71.8904 123.396L69.7224 124.224L69.9008 124.691L70.0792 125.158L72.2472 124.33L72.0688 123.863ZM69.9008 124.691L69.8865 124.192L69.7498 124.196L69.7641 124.695L69.7784 125.195L69.9151 125.191L69.9008 124.691ZM65.911 124.695L65.4179 124.612L65.3166 125.212L65.9252 125.195L65.911 124.695ZM66.8719 119V118.5H66.4492L66.3789 118.917L66.8719 119ZM68.032 119L68.5247 119.085L68.6263 118.5H68.032V119ZM67.2938 123.254L66.8011 123.168L66.6542 124.015L67.4629 123.724L67.2938 123.254ZM68.3914 122.859L68.8839 122.946L69.0324 122.098L68.2223 122.389L68.3914 122.859ZM68.2156 123.863L68.3941 124.33L68.6592 124.229L68.7081 123.95L68.2156 123.863ZM66.0477 124.691L66.062 125.191L66.1468 125.189L66.2261 125.158L66.0477 124.691ZM65.911 124.695L66.404 124.778L67.3649 119.083L66.8719 119L66.3789 118.917L65.4179 124.612L65.911 124.695ZM66.8719 119V119.5H68.032V119V118.5H66.8719V119ZM68.032 119L67.5394 118.915L66.8011 123.168L67.2938 123.254L67.7864 123.339L68.5247 119.085L68.032 119ZM67.2938 123.254L67.4629 123.724L68.5605 123.33L68.3914 122.859L68.2223 122.389L67.1246 122.783L67.2938 123.254ZM68.3914 122.859L67.8989 122.773L67.7231 123.777L68.2156 123.863L68.7081 123.95L68.8839 122.946L68.3914 122.859ZM68.2156 123.863L68.0372 123.396L65.8693 124.224L66.0477 124.691L66.2261 125.158L68.3941 124.33L68.2156 123.863ZM66.0477 124.691L66.0334 124.192L65.8967 124.196L65.911 124.695L65.9252 125.195L66.062 125.191L66.0477 124.691Z" fill="#333333" mask="url(#path-4-outside-1_272_538)"/>
<g filter="url(#filter0_d_272_538)">
<ellipse cx="42" cy="70.5" rx="28" ry="45.5" fill="url(#paint2_linear_272_538)" shape-rendering="crispEdges"/>
<ellipse cx="42" cy="70.5" rx="28" ry="45.5" stroke="#B0B0B0" shape-rendering="crispEdges"/>
</g>
<g filter="url(#filter1_d_272_538)">
<mask id="path-7-outside-2_272_538" maskUnits="userSpaceOnUse" x="24" y="53" width="35" height="31" fill="black">
<rect fill="white" x="24" y="53" width="35" height="31"/>
<path d="M37.4562 54.5039V83H31.8312V60.9883L25.0734 63.1367V58.7031L36.8508 54.5039H37.4562ZM57.1141 54.5039V83H51.4891V60.9883L44.7312 63.1367V58.7031L56.5086 54.5039H57.1141Z"/>
</mask>
<path d="M37.4562 54.5039V83H31.8312V60.9883L25.0734 63.1367V58.7031L36.8508 54.5039H37.4562ZM57.1141 54.5039V83H51.4891V60.9883L44.7312 63.1367V58.7031L56.5086 54.5039H57.1141Z" fill="#6C6C6C"/>
<path d="M37.4562 54.5039H38.4562V53.5039H37.4562V54.5039ZM37.4562 83V84H38.4562V83H37.4562ZM31.8312 83H30.8312V84H31.8312V83ZM31.8312 60.9883H32.8312V59.621L31.5283 60.0353L31.8312 60.9883ZM25.0734 63.1367H24.0734V64.504L25.3764 64.0897L25.0734 63.1367ZM25.0734 58.7031L24.7376 57.7612L24.0734 57.998V58.7031H25.0734ZM36.8508 54.5039V53.5039H36.6778L36.5149 53.562L36.8508 54.5039ZM37.4562 54.5039H36.4562V83H37.4562H38.4562V54.5039H37.4562ZM37.4562 83V82H31.8312V83V84H37.4562V83ZM31.8312 83H32.8312V60.9883H31.8312H30.8312V83H31.8312ZM31.8312 60.9883L31.5283 60.0353L24.7705 62.1837L25.0734 63.1367L25.3764 64.0897L32.1342 61.9413L31.8312 60.9883ZM25.0734 63.1367H26.0734V58.7031H25.0734H24.0734V63.1367H25.0734ZM25.0734 58.7031L25.4093 59.645L37.1866 55.4458L36.8508 54.5039L36.5149 53.562L24.7376 57.7612L25.0734 58.7031ZM36.8508 54.5039V55.5039H37.4562V54.5039V53.5039H36.8508V54.5039ZM57.1141 54.5039H58.1141V53.5039H57.1141V54.5039ZM57.1141 83V84H58.1141V83H57.1141ZM51.4891 83H50.4891V84H51.4891V83ZM51.4891 60.9883H52.4891V59.621L51.1861 60.0353L51.4891 60.9883ZM44.7312 63.1367H43.7312V64.504L45.0342 64.0897L44.7312 63.1367ZM44.7312 58.7031L44.3954 57.7612L43.7312 57.998V58.7031H44.7312ZM56.5086 54.5039V53.5039H56.3356L56.1727 53.562L56.5086 54.5039ZM57.1141 54.5039H56.1141V83H57.1141H58.1141V54.5039H57.1141ZM57.1141 83V82H51.4891V83V84H57.1141V83ZM51.4891 83H52.4891V60.9883H51.4891H50.4891V83H51.4891ZM51.4891 60.9883L51.1861 60.0353L44.4283 62.1837L44.7312 63.1367L45.0342 64.0897L51.792 61.9413L51.4891 60.9883ZM44.7312 63.1367H45.7312V58.7031H44.7312H43.7312V63.1367H44.7312ZM44.7312 58.7031L45.0671 59.645L56.8444 55.4458L56.5086 54.5039L56.1727 53.562L44.3954 57.7612L44.7312 58.7031ZM56.5086 54.5039V55.5039H57.1141V54.5039V53.5039H56.5086V54.5039Z" fill="black" mask="url(#path-7-outside-2_272_538)"/>
</g>
<path d="M14.5616 5.11468C16.1644 5.34009 17.5106 6.45647 18.381 8.12475C19.2511 9.79263 19.633 11.9941 19.3044 14.3322C18.9758 16.6705 18.0018 18.6822 16.7056 20.0457C15.4092 21.4091 13.8073 22.1105 12.2046 21.8854C10.6017 21.6601 9.25448 20.5443 8.38406 18.8762C7.51391 17.2083 7.13218 15.006 7.4608 12.6677C7.7894 10.3296 8.76336 8.31867 10.0594 6.95524C11.356 5.59138 12.9586 4.88939 14.5616 5.11468Z" fill="url(#paint3_linear_272_538)" stroke="#696969" stroke-width="0.5"/>
<mask id="path-10-outside-3_272_538" maskUnits="userSpaceOnUse" x="9" y="9" width="8" height="8" fill="black">
<rect fill="white" x="9" y="9" width="8" height="8"/>
<path d="M12.4836 10.3047L11.5227 16H10.3625L11.1008 11.7461L10.0031 12.1406L10.1789 11.1367L12.3469 10.3086L12.4836 10.3047ZM16.3367 10.3047L15.3758 16H14.2156L14.9539 11.7461L13.8563 12.1406L14.032 11.1367L16.2 10.3086L16.3367 10.3047Z"/>
</mask>
<path d="M12.4836 10.3047L11.5227 16H10.3625L11.1008 11.7461L10.0031 12.1406L10.1789 11.1367L12.3469 10.3086L12.4836 10.3047ZM16.3367 10.3047L15.3758 16H14.2156L14.9539 11.7461L13.8563 12.1406L14.032 11.1367L16.2 10.3086L16.3367 10.3047Z" fill="#6C6C6C"/>
<path d="M12.4836 10.3047L12.7794 10.3546L12.8402 9.99438L12.475 10.0048L12.4836 10.3047ZM11.5227 16V16.3H11.7763L11.8185 16.0499L11.5227 16ZM10.3625 16L10.0669 15.9487L10.0059 16.3H10.3625V16ZM11.1008 11.7461L11.3964 11.7974L11.4845 11.2894L10.9993 11.4638L11.1008 11.7461ZM10.0031 12.1406L9.70762 12.0889L9.61854 12.5976L10.1046 12.4229L10.0031 12.1406ZM10.1789 11.1367L10.0719 10.8565L9.91277 10.9172L9.8834 11.085L10.1789 11.1367ZM12.3469 10.3086L12.3383 10.0087L12.2874 10.0102L12.2398 10.0283L12.3469 10.3086ZM12.4836 10.3047L12.1878 10.2548L11.2268 15.9501L11.5227 16L11.8185 16.0499L12.7794 10.3546L12.4836 10.3047ZM11.5227 16V15.7H10.3625V16V16.3H11.5227V16ZM10.3625 16L10.6581 16.0513L11.3964 11.7974L11.1008 11.7461L10.8052 11.6948L10.0669 15.9487L10.3625 16ZM11.1008 11.7461L10.9993 11.4638L9.90165 11.8583L10.0031 12.1406L10.1046 12.4229L11.2023 12.0284L11.1008 11.7461ZM10.0031 12.1406L10.2986 12.1924L10.4744 11.1885L10.1789 11.1367L9.8834 11.085L9.70762 12.0889L10.0031 12.1406ZM10.1789 11.1367L10.286 11.417L12.4539 10.5888L12.3469 10.3086L12.2398 10.0283L10.0719 10.8565L10.1789 11.1367ZM12.3469 10.3086L12.3554 10.6085L12.4922 10.6046L12.4836 10.3047L12.475 10.0048L12.3383 10.0087L12.3469 10.3086ZM16.3367 10.3047L16.6325 10.3546L16.6933 9.99438L16.3282 10.0048L16.3367 10.3047ZM15.3758 16V16.3H15.6294L15.6716 16.0499L15.3758 16ZM14.2156 16L13.92 15.9487L13.8591 16.3H14.2156V16ZM14.9539 11.7461L15.2495 11.7974L15.3377 11.2894L14.8524 11.4638L14.9539 11.7461ZM13.8563 12.1406L13.5607 12.0889L13.4717 12.5976L13.9577 12.4229L13.8563 12.1406ZM14.032 11.1367L13.925 10.8565L13.7659 10.9172L13.7365 11.085L14.032 11.1367ZM16.2 10.3086L16.1914 10.0087L16.1405 10.0102L16.093 10.0283L16.2 10.3086ZM16.3367 10.3047L16.0409 10.2548L15.08 15.9501L15.3758 16L15.6716 16.0499L16.6325 10.3546L16.3367 10.3047ZM15.3758 16V15.7H14.2156V16V16.3H15.3758V16ZM14.2156 16L14.5112 16.0513L15.2495 11.7974L14.9539 11.7461L14.6583 11.6948L13.92 15.9487L14.2156 16ZM14.9539 11.7461L14.8524 11.4638L13.7548 11.8583L13.8563 12.1406L13.9577 12.4229L15.0554 12.0284L14.9539 11.7461ZM13.8563 12.1406L14.1518 12.1924L14.3275 11.1885L14.032 11.1367L13.7365 11.085L13.5607 12.0889L13.8563 12.1406ZM14.032 11.1367L14.1391 11.417L16.3071 10.5888L16.2 10.3086L16.093 10.0283L13.925 10.8565L14.032 11.1367ZM16.2 10.3086L16.2086 10.6085L16.3453 10.6046L16.3367 10.3047L16.3282 10.0048L16.1914 10.0087L16.2 10.3086Z" fill="#333333" mask="url(#path-10-outside-3_272_538)"/>
<rect x="1" y="67" width="3" height="2" fill="#6C6C6C"/>
<rect x="1" y="72" width="3" height="2" fill="#6C6C6C"/>
<rect x="1" y="75" width="3" height="2" fill="#6C6C6C"/>
<rect x="1" y="78" width="3" height="2" fill="#6C6C6C"/>
<rect x="1" y="81" width="3" height="2" fill="#6C6C6C"/>
<rect x="1" y="84" width="3" height="2" fill="#6C6C6C"/>
<rect x="1" y="50" width="3" height="2" fill="#6C6C6C"/>
<rect x="1" y="62" width="3" height="2" fill="#6C6C6C"/>
<rect x="1" y="59" width="3" height="2" fill="#6C6C6C"/>
<rect x="1" y="56" width="3" height="2" fill="#6C6C6C"/>
<rect x="1" y="53" width="3" height="2" fill="#6C6C6C"/>
<rect x="81" y="67" width="3" height="2" fill="#6C6C6C"/>
<rect x="81" y="72" width="3" height="2" fill="#6C6C6C"/>
<rect x="81" y="75" width="3" height="2" fill="#6C6C6C"/>
<rect x="81" y="78" width="3" height="2" fill="#6C6C6C"/>
<rect x="81" y="81" width="3" height="2" fill="#6C6C6C"/>
<rect x="81" y="84" width="3" height="2" fill="#6C6C6C"/>
<rect x="81" y="62" width="3" height="2" fill="#6C6C6C"/>
<rect x="81" y="59" width="3" height="2" fill="#6C6C6C"/>
<rect x="81" y="56" width="3" height="2" fill="#6C6C6C"/>
<rect x="81" y="53" width="3" height="2" fill="#6C6C6C"/>
<rect x="81" y="50" width="3" height="2" fill="#6C6C6C"/>
<rect x="44" y="1" width="2" height="2" transform="rotate(90 44 1)" fill="#6C6C6C"/>
<rect x="39" y="1" width="2" height="2" transform="rotate(90 39 1)" fill="#6C6C6C"/>
<rect x="36" y="1" width="2" height="2" transform="rotate(90 36 1)" fill="#6C6C6C"/>
<rect x="33" y="1" width="2" height="2" transform="rotate(90 33 1)" fill="#6C6C6C"/>
<rect x="30" y="1" width="2" height="2" transform="rotate(90 30 1)" fill="#6C6C6C"/>
<rect x="27" y="1" width="2" height="2" transform="rotate(90 27 1)" fill="#6C6C6C"/>
<rect x="49" y="1" width="2" height="2" transform="rotate(90 49 1)" fill="#6C6C6C"/>
<rect x="52" y="1" width="2" height="2" transform="rotate(90 52 1)" fill="#6C6C6C"/>
<rect x="55" y="1" width="2" height="2" transform="rotate(90 55 1)" fill="#6C6C6C"/>
<rect x="58" y="1" width="2" height="2" transform="rotate(90 58 1)" fill="#6C6C6C"/>
<rect x="61" y="1" width="2" height="2" transform="rotate(90 61 1)" fill="#6C6C6C"/>
<rect x="44" y="134" width="2" height="2" transform="rotate(90 44 134)" fill="#6C6C6C"/>
<rect x="39" y="134" width="2" height="2" transform="rotate(90 39 134)" fill="#6C6C6C"/>
<rect x="36" y="134" width="2" height="2" transform="rotate(90 36 134)" fill="#6C6C6C"/>
<rect x="33" y="134" width="2" height="2" transform="rotate(90 33 134)" fill="#6C6C6C"/>
<rect x="30" y="134" width="2" height="2" transform="rotate(90 30 134)" fill="#6C6C6C"/>
<rect x="27" y="134" width="2" height="2" transform="rotate(90 27 134)" fill="#6C6C6C"/>
<rect x="49" y="134" width="2" height="2" transform="rotate(90 49 134)" fill="#6C6C6C"/>
<rect x="52" y="134" width="2" height="2" transform="rotate(90 52 134)" fill="#6C6C6C"/>
<rect x="55" y="134" width="2" height="2" transform="rotate(90 55 134)" fill="#6C6C6C"/>
<rect x="58" y="134" width="2" height="2" transform="rotate(90 58 134)" fill="#6C6C6C"/>
<rect x="61" y="134" width="2" height="2" transform="rotate(90 61 134)" fill="#6C6C6C"/>
<defs>
<filter id="filter0_d_272_538" x="9.5" y="24.5" width="65" height="100" filterUnits="userSpaceOnUse" color-interpolation-filters="sRGB">
<feFlood flood-opacity="0" result="BackgroundImageFix"/>
<feColorMatrix in="SourceAlpha" type="matrix" values="0 0 0 0 0 0 0 0 0 0 0 0 0 0 0 0 0 0 127 0" result="hardAlpha"/>
<feOffset dy="4"/>
<feGaussianBlur stdDeviation="2"/>
<feComposite in2="hardAlpha" operator="out"/>
<feColorMatrix type="matrix" values="0 0 0 0 0 0 0 0 0 0 0 0 0 0 0 0 0 0 0.25 0"/>
<feBlend mode="normal" in2="BackgroundImageFix" result="effect1_dropShadow_272_538"/>
<feBlend mode="normal" in="SourceGraphic" in2="effect1_dropShadow_272_538" result="shape"/>
</filter>
<filter id="filter1_d_272_538" x="20.0735" y="53.5039" width="42.0405" height="38.4961" filterUnits="userSpaceOnUse" color-interpolation-filters="sRGB">
<feFlood flood-opacity="0" result="BackgroundImageFix"/>
<feColorMatrix in="SourceAlpha" type="matrix" values="0 0 0 0 0 0 0 0 0 0 0 0 0 0 0 0 0 0 127 0" result="hardAlpha"/>
<feOffset dy="4"/>
<feGaussianBlur stdDeviation="2"/>
<feComposite in2="hardAlpha" operator="out"/>
<feColorMatrix type="matrix" values="0 0 0 0 0 0 0 0 0 0 0 0 0 0 0 0 0 0 0.25 0"/>
<feBlend mode="normal" in2="BackgroundImageFix" result="effect1_dropShadow_272_538"/>
<feBlend mode="normal" in="SourceGraphic" in2="effect1_dropShadow_272_538" result="shape"/>
</filter>
<linearGradient id="paint0_linear_272_538" x1="42.5" y1="3" x2="42.5" y2="134" gradientUnits="userSpaceOnUse">
<stop stop-color="#6C6C6C" stop-opacity="0.95"/>
<stop offset="1" stop-color="#404040"/>
</linearGradient>
<linearGradient id="paint1_linear_272_538" x1="70.596" y1="112.867" x2="68.1694" y2="130.133" gradientUnits="userSpaceOnUse">
<stop stop-color="#E7E7E7" stop-opacity="0.95"/>
<stop offset="1" stop-color="#757575"/>
</linearGradient>
<linearGradient id="paint2_linear_272_538" x1="54.5" y1="31" x2="26" y2="107.5" gradientUnits="userSpaceOnUse">
<stop stop-color="#CCCCCC" stop-opacity="0.95"/>
<stop offset="1" stop-color="#666666"/>
</linearGradient>
<linearGradient id="paint3_linear_272_538" x1="14.596" y1="4.86706" x2="12.1694" y2="22.1329" gradientUnits="userSpaceOnUse">
<stop stop-color="#E7E7E7" stop-opacity="0.95"/>
<stop offset="1" stop-color="#757575"/>
</linearGradient>
</defs>
</svg>
