<svg width="85" height="137" viewBox="0 0 85 137" fill="none" xmlns="http://www.w3.org/2000/svg">
<rect x="0.5" y="0.5" width="84" height="136" rx="9.5" fill="white" stroke="black"/>
<rect x="4.5" y="3.5" width="76" height="130" rx="9.5" fill="url(#paint0_linear_275_1130)" stroke="black"/>
<path d="M70.5617 113.115C72.1645 113.34 73.5108 114.456 74.3811 116.125C75.2512 117.793 75.6331 119.994 75.3045 122.332C74.9759 124.67 74.0019 126.682 72.7057 128.046C71.4093 129.409 69.8074 130.111 68.2047 129.885C66.6018 129.66 65.2546 128.544 64.3842 126.876C63.514 125.208 63.1323 123.006 63.4609 120.668C63.7895 118.33 64.7635 116.319 66.0596 114.955C67.3561 113.591 68.9587 112.889 70.5617 113.115Z" fill="url(#paint1_linear_275_1130)" stroke="#171717" stroke-width="0.5"/>
<mask id="path-4-outside-1_275_1130" maskUnits="userSpaceOnUse" x="66.4623" y="118" width="5" height="8" fill="black">
<rect fill="white" x="66.4623" y="118" width="5" height="8"/>
<path d="M67.4509 122.352L67.6072 121.344C67.6436 121.07 67.7061 120.79 67.7947 120.504C67.8832 120.217 68.0043 119.952 68.158 119.707C68.309 119.465 68.5004 119.271 68.7322 119.125C68.9639 118.979 69.2465 118.911 69.5798 118.922C69.8324 118.927 70.0434 118.982 70.2126 119.086C70.3793 119.193 70.5134 119.331 70.615 119.5C70.7139 119.672 70.7856 119.862 70.8298 120.07C70.8741 120.279 70.8975 120.492 70.9001 120.711C70.9027 120.932 70.8923 121.142 70.8689 121.34L70.7126 122.352C70.6736 122.625 70.6111 122.904 70.5251 123.188C70.4366 123.474 70.3155 123.738 70.1619 123.98C70.0082 124.225 69.8155 124.419 69.5837 124.562C69.352 124.708 69.0694 124.776 68.7361 124.766C68.4835 124.76 68.2738 124.704 68.1072 124.598C67.9379 124.493 67.8038 124.355 67.7048 124.184C67.6059 124.014 67.5343 123.826 67.49 123.617C67.4457 123.409 67.4223 123.195 67.4197 122.977C67.4171 122.758 67.4275 122.549 67.4509 122.352ZM68.783 121.18L68.5876 122.52C68.5824 122.574 68.5733 122.651 68.5603 122.75C68.5447 122.849 68.5343 122.957 68.529 123.074C68.5212 123.194 68.5238 123.309 68.5369 123.418C68.5473 123.527 68.5759 123.618 68.6228 123.691C68.6697 123.764 68.7413 123.803 68.8376 123.809C68.9809 123.819 69.0968 123.776 69.1853 123.68C69.2712 123.586 69.3376 123.465 69.3845 123.316C69.4314 123.171 69.4652 123.023 69.4861 122.875C69.5069 122.727 69.5225 122.608 69.533 122.52L69.7283 121.18C69.7335 121.13 69.7439 121.055 69.7595 120.953C69.7725 120.854 69.783 120.745 69.7908 120.625C69.7986 120.505 69.7973 120.389 69.7869 120.277C69.7738 120.168 69.7439 120.076 69.697 120C69.6501 119.927 69.5785 119.887 69.4822 119.879C69.3389 119.868 69.2244 119.911 69.1384 120.008C69.0499 120.104 68.9822 120.227 68.9353 120.375C68.8884 120.523 68.8546 120.672 68.8337 120.82C68.8129 120.971 68.796 121.091 68.783 121.18Z"/>
</mask>
<path d="M67.4509 122.352L67.6072 121.344C67.6436 121.07 67.7061 120.79 67.7947 120.504C67.8832 120.217 68.0043 119.952 68.158 119.707C68.309 119.465 68.5004 119.271 68.7322 119.125C68.9639 118.979 69.2465 118.911 69.5798 118.922C69.8324 118.927 70.0434 118.982 70.2126 119.086C70.3793 119.193 70.5134 119.331 70.615 119.5C70.7139 119.672 70.7856 119.862 70.8298 120.07C70.8741 120.279 70.8975 120.492 70.9001 120.711C70.9027 120.932 70.8923 121.142 70.8689 121.34L70.7126 122.352C70.6736 122.625 70.6111 122.904 70.5251 123.188C70.4366 123.474 70.3155 123.738 70.1619 123.98C70.0082 124.225 69.8155 124.419 69.5837 124.562C69.352 124.708 69.0694 124.776 68.7361 124.766C68.4835 124.76 68.2738 124.704 68.1072 124.598C67.9379 124.493 67.8038 124.355 67.7048 124.184C67.6059 124.014 67.5343 123.826 67.49 123.617C67.4457 123.409 67.4223 123.195 67.4197 122.977C67.4171 122.758 67.4275 122.549 67.4509 122.352ZM68.783 121.18L68.5876 122.52C68.5824 122.574 68.5733 122.651 68.5603 122.75C68.5447 122.849 68.5343 122.957 68.529 123.074C68.5212 123.194 68.5238 123.309 68.5369 123.418C68.5473 123.527 68.5759 123.618 68.6228 123.691C68.6697 123.764 68.7413 123.803 68.8376 123.809C68.9809 123.819 69.0968 123.776 69.1853 123.68C69.2712 123.586 69.3376 123.465 69.3845 123.316C69.4314 123.171 69.4652 123.023 69.4861 122.875C69.5069 122.727 69.5225 122.608 69.533 122.52L69.7283 121.18C69.7335 121.13 69.7439 121.055 69.7595 120.953C69.7725 120.854 69.783 120.745 69.7908 120.625C69.7986 120.505 69.7973 120.389 69.7869 120.277C69.7738 120.168 69.7439 120.076 69.697 120C69.6501 119.927 69.5785 119.887 69.4822 119.879C69.3389 119.868 69.2244 119.911 69.1384 120.008C69.0499 120.104 68.9822 120.227 68.9353 120.375C68.8884 120.523 68.8546 120.672 68.8337 120.82C68.8129 120.971 68.796 121.091 68.783 121.18Z" fill="black"/>
<path d="M67.4509 122.352L67.1543 122.306L67.153 122.316L67.4509 122.352ZM67.6072 121.344L67.9037 121.39L67.9045 121.383L67.6072 121.344ZM68.158 119.707L68.412 119.867L68.4125 119.866L68.158 119.707ZM69.5798 118.922L69.5705 119.222L69.5736 119.222L69.5798 118.922ZM70.2126 119.086L70.3745 118.833L70.3699 118.83L70.2126 119.086ZM70.615 119.5L70.875 119.35L70.8722 119.346L70.615 119.5ZM70.8298 120.07L71.1233 120.008L70.8298 120.07ZM70.9001 120.711L71.2001 120.707V120.707L70.9001 120.711ZM70.8689 121.34L71.1656 121.386L71.1668 121.375L70.8689 121.34ZM70.7126 122.352L70.4161 122.306L70.4157 122.309L70.7126 122.352ZM70.5251 123.188L70.8118 123.276L70.8123 123.274L70.5251 123.188ZM70.1619 123.98L69.9085 123.82L69.9078 123.821L70.1619 123.98ZM69.5837 124.562L69.426 124.307L69.424 124.309L69.5837 124.562ZM68.7361 124.766L68.7454 124.466L68.7423 124.466L68.7361 124.766ZM68.1072 124.598L68.269 124.345L68.2644 124.342L68.1072 124.598ZM67.7048 124.184L67.9648 124.034L67.9638 124.032L67.7048 124.184ZM68.783 121.18L68.4861 121.136L68.4861 121.136L68.783 121.18ZM68.5876 122.52L68.2908 122.476L68.2897 122.484L68.289 122.491L68.5876 122.52ZM68.5603 122.75L68.8567 122.797L68.8577 122.789L68.5603 122.75ZM68.529 123.074L68.8285 123.094L68.8288 123.088L68.529 123.074ZM68.5369 123.418L68.8356 123.39L68.8348 123.383L68.5369 123.418ZM68.8376 123.809L68.8594 123.509L68.8538 123.509L68.8376 123.809ZM69.1853 123.68L69.4062 123.883L69.4064 123.882L69.1853 123.68ZM69.3845 123.316L69.0989 123.225L69.0984 123.226L69.3845 123.316ZM69.533 122.52L69.236 122.476L69.235 122.484L69.533 122.52ZM69.7283 121.18L70.0254 121.223L70.0266 121.211L69.7283 121.18ZM69.7595 120.953L70.0561 120.999L70.057 120.992L69.7595 120.953ZM69.7869 120.277L70.0857 120.25L70.0848 120.242L69.7869 120.277ZM69.697 120L69.9519 119.842L69.9494 119.838L69.697 120ZM69.4822 119.879L69.5064 119.58L69.5039 119.58L69.4822 119.879ZM69.1384 120.008L69.3593 120.211L69.3623 120.207L69.1384 120.008ZM68.8337 120.82L68.5366 120.779L68.5365 120.779L68.8337 120.82ZM67.4509 122.352L67.7474 122.398L67.9036 121.39L67.6072 121.344L67.3107 121.298L67.1545 122.306L67.4509 122.352ZM67.6072 121.344L67.9045 121.383C67.9386 121.128 67.9973 120.864 68.0813 120.592L67.7947 120.504L67.508 120.415C67.415 120.716 67.3487 121.013 67.3098 121.304L67.6072 121.344ZM67.7947 120.504L68.0813 120.592C68.1624 120.33 68.2728 120.088 68.412 119.867L68.158 119.707L67.9039 119.548C67.7358 119.815 67.604 120.105 67.508 120.415L67.7947 120.504ZM68.158 119.707L68.4125 119.866C68.5406 119.66 68.7002 119.5 68.8919 119.379L68.7322 119.125L68.5724 118.871C68.3006 119.042 68.0774 119.269 67.9034 119.548L68.158 119.707ZM68.7322 119.125L68.8919 119.379C69.0631 119.271 69.2837 119.213 69.5705 119.222L69.5798 118.922L69.5892 118.622C69.2093 118.61 68.8648 118.687 68.5724 118.871L68.7322 119.125ZM69.5798 118.922L69.5736 119.222C69.7871 119.226 69.9424 119.272 70.0554 119.341L70.2126 119.086L70.3699 118.83C70.1443 118.692 69.8778 118.628 69.586 118.622L69.5798 118.922ZM70.2126 119.086L70.0508 119.339C70.1786 119.42 70.28 119.525 70.3577 119.654L70.615 119.5L70.8722 119.346C70.7468 119.137 70.58 118.965 70.3745 118.833L70.2126 119.086ZM70.615 119.5L70.355 119.65C70.4372 119.792 70.4981 119.953 70.5364 120.133L70.8298 120.07L71.1233 120.008C71.073 119.771 70.9907 119.551 70.875 119.35L70.615 119.5ZM70.8298 120.07L70.5364 120.133C70.5764 120.321 70.5978 120.515 70.6002 120.715L70.9001 120.711L71.2001 120.707C71.1973 120.469 71.1718 120.236 71.1233 120.008L70.8298 120.07ZM70.9001 120.711L70.6002 120.714C70.6026 120.924 70.5927 121.121 70.571 121.305L70.8689 121.34L71.1668 121.375C71.1919 121.163 71.2029 120.94 71.2001 120.707L70.9001 120.711ZM70.8689 121.34L70.5724 121.294L70.4162 122.306L70.7126 122.352L71.0091 122.397L71.1654 121.386L70.8689 121.34ZM70.7126 122.352L70.4157 122.309C70.3789 122.566 70.3199 122.83 70.238 123.101L70.5251 123.188L70.8123 123.274C70.9023 122.977 70.9683 122.684 71.0096 122.394L70.7126 122.352ZM70.5251 123.188L70.2385 123.099C70.1575 123.361 70.0473 123.601 69.9085 123.82L70.1619 123.98L70.4152 124.141C70.5837 123.876 70.7157 123.587 70.8118 123.276L70.5251 123.188ZM70.1619 123.98L69.9078 123.821C69.777 124.029 69.6164 124.19 69.426 124.307L69.5837 124.562L69.7414 124.818C70.0146 124.649 70.2394 124.421 70.416 124.14L70.1619 123.98ZM69.5837 124.562L69.424 124.309C69.2528 124.416 69.0322 124.475 68.7454 124.466L68.7361 124.766L68.7267 125.065C69.1066 125.077 69.4511 125 69.7435 124.816L69.5837 124.562ZM68.7361 124.766L68.7423 124.466C68.5298 124.461 68.3779 124.415 68.269 124.345L68.1072 124.598L67.9453 124.85C68.1698 124.994 68.4371 125.06 68.7299 125.066L68.7361 124.766ZM68.1072 124.598L68.2644 124.342C68.1376 124.264 68.0388 124.162 67.9648 124.034L67.7048 124.184L67.4448 124.333C67.5688 124.549 67.7382 124.723 67.9499 124.853L68.1072 124.598ZM67.7048 124.184L67.9638 124.032C67.8824 123.893 67.8216 123.735 67.7834 123.555L67.49 123.617L67.1965 123.68C67.2469 123.917 67.3294 124.136 67.4458 124.335L67.7048 124.184ZM67.49 123.617L67.7834 123.555C67.7434 123.366 67.722 123.173 67.7197 122.973L67.4197 122.977L67.1197 122.98C67.1225 123.218 67.148 123.451 67.1965 123.68L67.49 123.617ZM67.4197 122.977L67.7197 122.973C67.7172 122.766 67.7271 122.571 67.7488 122.387L67.4509 122.352L67.153 122.316C67.1279 122.528 67.1169 122.75 67.1197 122.98L67.4197 122.977ZM68.783 121.18L68.4861 121.136L68.2908 122.476L68.5876 122.52L68.8845 122.563L69.0798 121.223L68.783 121.18ZM68.5876 122.52L68.289 122.491C68.2843 122.54 68.2757 122.613 68.2629 122.711L68.5603 122.75L68.8577 122.789C68.8709 122.689 68.8806 122.608 68.8863 122.548L68.5876 122.52ZM68.5603 122.75L68.264 122.703C68.2463 122.815 68.235 122.934 68.2293 123.061L68.529 123.074L68.8288 123.088C68.8335 122.98 68.843 122.883 68.8566 122.797L68.5603 122.75ZM68.529 123.074L68.2297 123.055C68.2208 123.191 68.2236 123.324 68.239 123.453L68.5369 123.418L68.8348 123.383C68.8241 123.293 68.8217 123.197 68.8284 123.094L68.529 123.074ZM68.5369 123.418L68.2382 123.446C68.252 123.591 68.2917 123.731 68.3704 123.854L68.6228 123.691L68.8751 123.529C68.8602 123.506 68.8426 123.464 68.8355 123.39L68.5369 123.418ZM68.6228 123.691L68.3704 123.854C68.4759 124.018 68.6415 124.098 68.8214 124.108L68.8376 123.809L68.8538 123.509C68.8422 123.508 68.8453 123.507 68.8553 123.512C68.8601 123.515 68.8647 123.518 68.8686 123.522C68.8725 123.525 68.8746 123.528 68.8751 123.529L68.6228 123.691ZM68.8376 123.809L68.8159 124.108C69.0403 124.124 69.2491 124.054 69.4062 123.883L69.1853 123.68L68.9644 123.477C68.9444 123.498 68.9215 123.514 68.8594 123.509L68.8376 123.809ZM69.1853 123.68L69.4064 123.882C69.5278 123.75 69.6134 123.588 69.6706 123.407L69.3845 123.316L69.0984 123.226C69.0619 123.342 69.0146 123.422 68.9641 123.477L69.1853 123.68ZM69.3845 123.316L69.6701 123.408C69.7221 123.246 69.7599 123.083 69.7832 122.917L69.4861 122.875L69.189 122.833C69.1706 122.964 69.1406 123.095 69.0989 123.225L69.3845 123.316ZM69.4861 122.875L69.7832 122.917C69.8041 122.767 69.8201 122.646 69.8309 122.555L69.533 122.52L69.235 122.484C69.225 122.57 69.2097 122.686 69.189 122.833L69.4861 122.875ZM69.533 122.52L69.8298 122.563L70.0251 121.223L69.7283 121.18L69.4314 121.136L69.2361 122.476L69.533 122.52ZM69.7283 121.18L70.0266 121.211C70.031 121.169 70.0405 121.099 70.056 120.999L69.7595 120.953L69.463 120.908C69.4472 121.01 69.4359 121.091 69.4299 121.148L69.7283 121.18ZM69.7595 120.953L70.057 120.992C70.071 120.886 70.082 120.77 70.0901 120.645L69.7908 120.625L69.4914 120.605C69.4839 120.72 69.4741 120.823 69.4621 120.914L69.7595 120.953ZM69.7908 120.625L70.0901 120.645C70.0989 120.51 70.0975 120.378 70.0856 120.25L69.7869 120.277L69.4881 120.305C69.497 120.4 69.4983 120.5 69.4914 120.605L69.7908 120.625ZM69.7869 120.277L70.0848 120.242C70.0678 120.099 70.0268 119.962 69.9519 119.842L69.697 120L69.4421 120.158C69.461 120.189 69.4799 120.237 69.489 120.313L69.7869 120.277ZM69.697 120L69.9494 119.838C69.8456 119.676 69.6837 119.594 69.5064 119.58L69.4822 119.879L69.4579 120.178C69.4704 120.179 69.4689 120.181 69.4608 120.176C69.457 120.174 69.4532 120.171 69.4499 120.168C69.4466 120.165 69.445 120.163 69.4447 120.162L69.697 120ZM69.4822 119.879L69.5039 119.58C69.2798 119.563 69.07 119.634 68.9145 119.808L69.1384 120.008L69.3623 120.207C69.3787 120.189 69.3981 120.174 69.4604 120.178L69.4822 119.879ZM69.1384 120.008L68.9175 119.805C68.7942 119.939 68.7068 120.102 68.6492 120.285L68.9353 120.375L69.2214 120.465C69.2575 120.351 69.3056 120.269 69.3593 120.211L69.1384 120.008ZM68.9353 120.375L68.6492 120.285C68.5975 120.448 68.5599 120.613 68.5366 120.779L68.8337 120.82L69.1308 120.862C69.1493 120.731 69.1793 120.599 69.2214 120.465L68.9353 120.375ZM68.8337 120.82L68.5365 120.779C68.5158 120.93 68.499 121.049 68.4861 121.136L68.783 121.18L69.0798 121.223C69.093 121.134 69.11 121.013 69.1309 120.861L68.8337 120.82Z" fill="#B3B3B3" mask="url(#path-4-outside-1_275_1130)"/>
<g filter="url(#filter0_d_275_1130)">
<ellipse cx="42" cy="70.5" rx="28" ry="45.5" fill="url(#paint2_linear_275_1130)"/>
<ellipse cx="42" cy="70.5" rx="28" ry="45.5" stroke="#353535"/>
</g>
<g filter="url(#filter1_d_275_1130)">
<mask id="path-7-outside-2_275_1130" maskUnits="userSpaceOnUse" x="31" y="53" width="23" height="32" fill="black">
<rect fill="white" x="31" y="53" width="23" height="32"/>
<path d="M52.1094 66.2812V71.2031C52.1094 73.3385 51.8815 75.181 51.4258 76.7305C50.9701 78.2669 50.3125 79.5299 49.4531 80.5195C48.6068 81.4961 47.5977 82.2188 46.4258 82.6875C45.2539 83.1562 43.9518 83.3906 42.5195 83.3906C41.3737 83.3906 40.306 83.2474 39.3164 82.9609C38.3268 82.6615 37.4349 82.1992 36.6406 81.5742C35.8594 80.9492 35.1823 80.1615 34.6094 79.2109C34.0495 78.2474 33.6198 77.1016 33.3203 75.7734C33.0208 74.4453 32.8711 72.9219 32.8711 71.2031V66.2812C32.8711 64.1458 33.099 62.3164 33.5547 60.793C34.0234 59.2565 34.681 58 35.5273 57.0234C36.3867 56.0469 37.4023 55.3307 38.5742 54.875C39.7461 54.4062 41.0482 54.1719 42.4805 54.1719C43.6263 54.1719 44.6875 54.3216 45.6641 54.6211C46.6536 54.9076 47.5456 55.3568 48.3398 55.9688C49.1341 56.5807 49.8112 57.3685 50.3711 58.332C50.931 59.2826 51.3607 60.4219 51.6602 61.75C51.9596 63.0651 52.1094 64.5755 52.1094 66.2812ZM46.4648 71.9453V65.5195C46.4648 64.4909 46.4062 63.5924 46.2891 62.8242C46.1849 62.056 46.0221 61.4049 45.8008 60.8711C45.5794 60.3242 45.306 59.8815 44.9805 59.543C44.6549 59.2044 44.2839 58.957 43.8672 58.8008C43.4505 58.6445 42.9883 58.5664 42.4805 58.5664C41.8424 58.5664 41.276 58.6901 40.7812 58.9375C40.2995 59.1849 39.8893 59.582 39.5508 60.1289C39.2122 60.6628 38.9518 61.3789 38.7695 62.2773C38.6003 63.1628 38.5156 64.2435 38.5156 65.5195V71.9453C38.5156 72.974 38.5677 73.8789 38.6719 74.6602C38.7891 75.4414 38.9583 76.112 39.1797 76.6719C39.4141 77.2188 39.6875 77.668 40 78.0195C40.3255 78.3581 40.6966 78.6055 41.1133 78.7617C41.543 78.918 42.0117 78.9961 42.5195 78.9961C43.1445 78.9961 43.6979 78.8724 44.1797 78.625C44.6745 78.3646 45.0911 77.9609 45.4297 77.4141C45.7812 76.8542 46.0417 76.125 46.2109 75.2266C46.3802 74.3281 46.4648 73.2344 46.4648 71.9453Z"/>
</mask>
<path d="M52.1094 66.2812V71.2031C52.1094 73.3385 51.8815 75.181 51.4258 76.7305C50.9701 78.2669 50.3125 79.5299 49.4531 80.5195C48.6068 81.4961 47.5977 82.2188 46.4258 82.6875C45.2539 83.1562 43.9518 83.3906 42.5195 83.3906C41.3737 83.3906 40.306 83.2474 39.3164 82.9609C38.3268 82.6615 37.4349 82.1992 36.6406 81.5742C35.8594 80.9492 35.1823 80.1615 34.6094 79.2109C34.0495 78.2474 33.6198 77.1016 33.3203 75.7734C33.0208 74.4453 32.8711 72.9219 32.8711 71.2031V66.2812C32.8711 64.1458 33.099 62.3164 33.5547 60.793C34.0234 59.2565 34.681 58 35.5273 57.0234C36.3867 56.0469 37.4023 55.3307 38.5742 54.875C39.7461 54.4062 41.0482 54.1719 42.4805 54.1719C43.6263 54.1719 44.6875 54.3216 45.6641 54.6211C46.6536 54.9076 47.5456 55.3568 48.3398 55.9688C49.1341 56.5807 49.8112 57.3685 50.3711 58.332C50.931 59.2826 51.3607 60.4219 51.6602 61.75C51.9596 63.0651 52.1094 64.5755 52.1094 66.2812ZM46.4648 71.9453V65.5195C46.4648 64.4909 46.4062 63.5924 46.2891 62.8242C46.1849 62.056 46.0221 61.4049 45.8008 60.8711C45.5794 60.3242 45.306 59.8815 44.9805 59.543C44.6549 59.2044 44.2839 58.957 43.8672 58.8008C43.4505 58.6445 42.9883 58.5664 42.4805 58.5664C41.8424 58.5664 41.276 58.6901 40.7812 58.9375C40.2995 59.1849 39.8893 59.582 39.5508 60.1289C39.2122 60.6628 38.9518 61.3789 38.7695 62.2773C38.6003 63.1628 38.5156 64.2435 38.5156 65.5195V71.9453C38.5156 72.974 38.5677 73.8789 38.6719 74.6602C38.7891 75.4414 38.9583 76.112 39.1797 76.6719C39.4141 77.2188 39.6875 77.668 40 78.0195C40.3255 78.3581 40.6966 78.6055 41.1133 78.7617C41.543 78.918 42.0117 78.9961 42.5195 78.9961C43.1445 78.9961 43.6979 78.8724 44.1797 78.625C44.6745 78.3646 45.0911 77.9609 45.4297 77.4141C45.7812 76.8542 46.0417 76.125 46.2109 75.2266C46.3802 74.3281 46.4648 73.2344 46.4648 71.9453Z" fill="black"/>
<path d="M51.4258 76.7305L52.3845 77.0148L52.3851 77.0126L51.4258 76.7305ZM49.4531 80.5195L48.6981 79.8638L48.6974 79.8646L49.4531 80.5195ZM39.3164 82.9609L39.0267 83.9181L39.0383 83.9215L39.3164 82.9609ZM36.6406 81.5742L36.0159 82.3551L36.0222 82.3601L36.6406 81.5742ZM34.6094 79.2109L33.7448 79.7134L33.7488 79.7203L33.7529 79.7272L34.6094 79.2109ZM33.3203 75.7734L32.3448 75.9934L33.3203 75.7734ZM33.5547 60.793L32.5982 60.5012L32.5966 60.5064L33.5547 60.793ZM35.5273 57.0234L34.7766 56.3628L34.7717 56.3685L35.5273 57.0234ZM38.5742 54.875L38.9367 55.807L38.9456 55.8035L38.5742 54.875ZM45.6641 54.6211L45.3709 55.5771L45.3784 55.5795L45.386 55.5817L45.6641 54.6211ZM50.3711 58.332L49.5065 58.8345L49.5095 58.8396L50.3711 58.332ZM51.6602 61.75L50.6846 61.97L50.6851 61.972L51.6602 61.75ZM46.2891 62.8242L45.2981 62.9586L45.2992 62.9668L45.3005 62.975L46.2891 62.8242ZM45.8008 60.8711L44.8738 61.2463L44.877 61.2541L45.8008 60.8711ZM40.7812 58.9375L40.334 58.043L40.3244 58.0479L40.7812 58.9375ZM39.5508 60.1289L40.3953 60.6645L40.401 60.6553L39.5508 60.1289ZM38.7695 62.2773L37.7894 62.0785L37.7873 62.0896L38.7695 62.2773ZM38.6719 74.6602L37.6806 74.7923L37.6817 74.8004L37.6829 74.8085L38.6719 74.6602ZM39.1797 76.6719L38.2497 77.0395L38.2549 77.0527L38.2605 77.0658L39.1797 76.6719ZM40 78.0195L39.2526 78.6839L39.2656 78.6985L39.2792 78.7126L40 78.0195ZM41.1133 78.7617L40.7621 79.6981L40.7715 79.7015L41.1133 78.7617ZM44.1797 78.625L44.6365 79.5146L44.6454 79.5099L44.1797 78.625ZM45.4297 77.4141L44.5828 76.8823L44.5794 76.8877L45.4297 77.4141ZM52.1094 66.2812H51.1094V71.2031H52.1094H53.1094V66.2812H52.1094ZM52.1094 71.2031H51.1094C51.1094 73.2718 50.8881 75.0145 50.4664 76.4483L51.4258 76.7305L52.3851 77.0126C52.8749 75.3475 53.1094 73.4053 53.1094 71.2031H52.1094ZM51.4258 76.7305L50.4671 76.4461C50.0431 77.8755 49.4454 79.0033 48.6981 79.8638L49.4531 80.5195L50.2082 81.1752C51.1796 80.0566 51.897 78.6584 52.3845 77.0148L51.4258 76.7305ZM49.4531 80.5195L48.6974 79.8646C47.9529 80.7236 47.0746 81.351 46.0544 81.759L46.4258 82.6875L46.7972 83.616C48.1208 83.0865 49.2606 82.2686 50.2088 81.1745L49.4531 80.5195ZM46.4258 82.6875L46.0544 81.759C45.0155 82.1746 43.8416 82.3906 42.5195 82.3906V83.3906V84.3906C44.062 84.3906 45.4923 84.1379 46.7972 83.616L46.4258 82.6875ZM42.5195 83.3906V82.3906C41.4574 82.3906 40.4842 82.2579 39.5945 82.0004L39.3164 82.9609L39.0383 83.9215C40.1278 84.2369 41.29 84.3906 42.5195 84.3906V83.3906ZM39.3164 82.9609L39.6061 82.0038C38.733 81.7396 37.9531 81.3345 37.259 80.7883L36.6406 81.5742L36.0222 82.3601C36.9167 83.0639 37.9207 83.5833 39.0267 83.9181L39.3164 82.9609ZM36.6406 81.5742L37.2653 80.7934C36.5859 80.2498 35.9844 79.555 35.4658 78.6947L34.6094 79.2109L33.7529 79.7272C34.3802 80.7679 35.1329 81.6486 36.0159 82.3551L36.6406 81.5742ZM34.6094 79.2109L35.474 78.7085C34.9751 77.8499 34.5777 76.8035 34.2958 75.5535L33.3203 75.7734L32.3448 75.9934C32.6619 77.3996 33.1239 78.6449 33.7448 79.7134L34.6094 79.2109ZM33.3203 75.7734L34.2958 75.5535C34.0162 74.3135 33.8711 72.8662 33.8711 71.2031H32.8711H31.8711C31.8711 72.9775 32.0255 74.5772 32.3448 75.9934L33.3203 75.7734ZM32.8711 71.2031H33.8711V66.2812H32.8711H31.8711V71.2031H32.8711ZM32.8711 66.2812H33.8711C33.8711 64.2119 34.0925 62.4844 34.5127 61.0796L33.5547 60.793L32.5966 60.5064C32.1054 62.1484 31.8711 64.0797 31.8711 66.2812H32.8711ZM33.5547 60.793L34.5112 61.0848C34.9487 59.6505 35.5477 58.5269 36.283 57.6784L35.5273 57.0234L34.7717 56.3685C33.8143 57.4731 33.0981 58.8625 32.5982 60.5012L33.5547 60.793ZM35.5273 57.0234L36.2781 57.6841C37.0354 56.8234 37.9193 56.2026 38.9367 55.807L38.5742 54.875L38.2118 53.943C36.8854 54.4588 35.738 55.2703 34.7766 56.3628L35.5273 57.0234ZM38.5742 54.875L38.9456 55.8035C39.9845 55.3879 41.1584 55.1719 42.4805 55.1719V54.1719V53.1719C40.938 53.1719 39.5077 53.4246 38.2028 53.9465L38.5742 54.875ZM42.4805 54.1719V55.1719C43.5389 55.1719 44.5001 55.3101 45.3709 55.5771L45.6641 54.6211L45.9573 53.665C44.8749 53.3331 43.7137 53.1719 42.4805 53.1719V54.1719ZM45.6641 54.6211L45.386 55.5817C46.2586 55.8343 47.0372 56.2275 47.7295 56.7609L48.3398 55.9688L48.9502 55.1766C48.0539 54.4861 47.0487 53.9808 45.9421 53.6605L45.6641 54.6211ZM48.3398 55.9688L47.7295 56.7609C48.4102 57.2853 49.0045 57.9706 49.5065 58.8344L50.3711 58.332L51.2357 57.8296C50.6179 56.7664 49.8581 55.8761 48.9502 55.1766L48.3398 55.9688ZM50.3711 58.332L49.5095 58.8396C50.0061 59.6826 50.4029 60.7203 50.6846 61.97L51.6602 61.75L52.6357 61.53C52.3185 60.1235 51.8559 58.8825 51.2327 57.8245L50.3711 58.332ZM51.6602 61.75L50.6851 61.972C50.9643 63.1981 51.1094 64.6316 51.1094 66.2812H52.1094H53.1094C53.1094 64.5195 52.9549 62.9321 52.6352 61.528L51.6602 61.75ZM46.4648 71.9453H47.4648V65.5195H46.4648H45.4648V71.9453H46.4648ZM46.4648 65.5195H47.4648C47.4648 64.4555 47.4044 63.5045 47.2776 62.6734L46.2891 62.8242L45.3005 62.975C45.4081 63.6804 45.4648 64.5263 45.4648 65.5195H46.4648ZM46.2891 62.8242L47.28 62.6899C47.1679 61.8633 46.9879 61.1234 46.7245 60.4881L45.8008 60.8711L44.877 61.2541C45.0563 61.6865 45.2019 62.2487 45.2981 62.9586L46.2891 62.8242ZM45.8008 60.8711L46.7277 60.4959C46.4703 59.86 46.1346 59.3005 45.7013 58.8499L44.9805 59.543L44.2596 60.2361C44.4774 60.4625 44.6885 60.7884 44.8738 61.2463L45.8008 60.8711ZM44.9805 59.543L45.7013 58.8499C45.2781 58.4098 44.7826 58.076 44.2183 57.8645L43.8672 58.8008L43.5161 59.7371C43.7852 59.838 44.0318 59.9991 44.2596 60.2361L44.9805 59.543ZM43.8672 58.8008L44.2183 57.8645C43.6747 57.6606 43.0915 57.5664 42.4805 57.5664V58.5664V59.5664C42.8851 59.5664 43.2263 59.6285 43.5161 59.7371L43.8672 58.8008ZM42.4805 58.5664V57.5664C41.711 57.5664 40.9875 57.7163 40.334 58.0431L40.7812 58.9375L41.2285 59.8319C41.5645 59.6639 41.9738 59.5664 42.4805 59.5664V58.5664ZM40.7812 58.9375L40.3244 58.0479C39.6529 58.3928 39.1167 58.9303 38.7005 59.6026L39.5508 60.1289L40.401 60.6553C40.662 60.2337 40.9461 59.977 41.2381 59.8271L40.7812 58.9375ZM39.5508 60.1289L38.7063 59.5934C38.2801 60.2655 37.9861 61.1097 37.7895 62.0785L38.7695 62.2773L39.7496 62.4762C39.9176 61.6481 40.1444 61.06 40.3953 60.6644L39.5508 60.1289ZM38.7695 62.2773L37.7873 62.0896C37.6025 63.0565 37.5156 64.2042 37.5156 65.5195H38.5156H39.5156C39.5156 64.2828 39.598 63.2691 39.7517 62.4651L38.7695 62.2773ZM38.5156 65.5195H37.5156V71.9453H38.5156H39.5156V65.5195H38.5156ZM38.5156 71.9453H37.5156C37.5156 73.0056 37.5692 73.9564 37.6806 74.7923L38.6719 74.6602L39.6631 74.528C39.5662 73.8014 39.5156 72.9423 39.5156 71.9453H38.5156ZM38.6719 74.6602L37.6829 74.8085C37.8081 75.643 37.9934 76.3911 38.2497 77.0395L39.1797 76.6719L40.1096 76.3042C39.9233 75.8329 39.77 75.2398 39.6608 74.5118L38.6719 74.6602ZM39.1797 76.6719L38.2605 77.0658C38.5266 77.6865 38.8526 78.234 39.2526 78.6839L40 78.0195L40.7474 77.3552C40.5224 77.102 40.3016 76.751 40.0988 76.278L39.1797 76.6719ZM40 78.0195L39.2792 78.7126C39.7023 79.1527 40.1979 79.4865 40.7622 79.698L41.1133 78.7617L41.4644 77.8254C41.1953 77.7245 40.9487 77.5634 40.7208 77.3264L40 78.0195ZM41.1133 78.7617L40.7715 79.7015C41.3222 79.9018 41.908 79.9961 42.5195 79.9961V78.9961V77.9961C42.1154 77.9961 41.7637 77.9342 41.455 77.8219L41.1133 78.7617ZM42.5195 78.9961V79.9961C43.2789 79.9961 43.993 79.845 44.6365 79.5146L44.1797 78.625L43.7229 77.7354C43.4028 77.8998 43.0102 77.9961 42.5195 77.9961V78.9961ZM44.1797 78.625L44.6454 79.5099C45.3206 79.1546 45.8619 78.6158 46.28 77.9404L45.4297 77.4141L44.5794 76.8877C44.3204 77.3061 44.0284 77.5746 43.7139 77.7401L44.1797 78.625ZM45.4297 77.4141L46.2766 77.9458C46.7149 77.2478 47.0095 76.3893 47.1936 75.4117L46.2109 75.2266L45.2282 75.0414C45.0739 75.8607 44.8476 76.4606 44.5828 76.8823L45.4297 77.4141ZM46.2109 75.2266L47.1936 75.4117C47.378 74.4331 47.4648 73.2734 47.4648 71.9453H46.4648H45.4648C45.4648 73.1953 45.3824 74.2231 45.2282 75.0414L46.2109 75.2266Z" fill="#B3B3B3" mask="url(#path-7-outside-2_275_1130)"/>
</g>
<path d="M14.5616 5.11468C16.1644 5.34009 17.5106 6.45647 18.381 8.12475C19.2511 9.79263 19.633 11.9941 19.3044 14.3322C18.9758 16.6705 18.0018 18.6822 16.7056 20.0457C15.4092 21.4091 13.8073 22.1105 12.2046 21.8854C10.6017 21.6601 9.25448 20.5443 8.38406 18.8762C7.51391 17.2083 7.13218 15.006 7.4608 12.6677C7.7894 10.3296 8.76336 8.31867 10.0594 6.95524C11.356 5.59138 12.9586 4.88939 14.5616 5.11468Z" fill="url(#paint3_linear_275_1130)" stroke="#171717" stroke-width="0.5"/>
<mask id="path-10-outside-3_275_1130" maskUnits="userSpaceOnUse" x="11" y="9" width="5" height="8" fill="black">
<rect fill="white" x="11" y="9" width="5" height="8"/>
<path d="M14.7969 12.6484L14.6406 13.6562C14.6042 13.9297 14.5417 14.2096 14.4531 14.4961C14.3646 14.7826 14.2435 15.0482 14.0898 15.293C13.9388 15.5352 13.7474 15.7292 13.5156 15.875C13.2839 16.0208 13.0013 16.0885 12.668 16.0781C12.4154 16.0729 12.2044 16.0182 12.0352 15.9141C11.8685 15.8073 11.7344 15.6693 11.6328 15.5C11.5339 15.3281 11.4622 15.138 11.418 14.9297C11.3737 14.7214 11.3503 14.5078 11.3477 14.2891C11.3451 14.0677 11.3555 13.8581 11.3789 13.6602L11.5352 12.6484C11.5742 12.375 11.6367 12.0964 11.7227 11.8125C11.8112 11.526 11.9323 11.2617 12.0859 11.0195C12.2396 10.7747 12.4323 10.5807 12.6641 10.4375C12.8958 10.2917 13.1784 10.224 13.5117 10.2344C13.7643 10.2396 13.974 10.2956 14.1406 10.4023C14.3099 10.5065 14.444 10.6445 14.543 10.8164C14.6419 10.9857 14.7135 11.1745 14.7578 11.3828C14.8021 11.5911 14.8255 11.8047 14.8281 12.0234C14.8307 12.2422 14.8203 12.4505 14.7969 12.6484ZM13.4648 13.8203L13.6602 12.4805C13.6654 12.4258 13.6745 12.349 13.6875 12.25C13.7031 12.151 13.7135 12.043 13.7188 11.9258C13.7266 11.806 13.724 11.6914 13.7109 11.582C13.7005 11.4727 13.6719 11.3815 13.625 11.3086C13.5781 11.2357 13.5065 11.1966 13.4102 11.1914C13.2669 11.181 13.151 11.224 13.0625 11.3203C12.9766 11.4141 12.9102 11.5352 12.8633 11.6836C12.8164 11.8294 12.7826 11.9766 12.7617 12.125C12.7409 12.2734 12.7253 12.3919 12.7148 12.4805L12.5195 13.8203C12.5143 13.8698 12.5039 13.9453 12.4883 14.0469C12.4753 14.1458 12.4648 14.2552 12.457 14.375C12.4492 14.4948 12.4505 14.6107 12.4609 14.7227C12.474 14.832 12.5039 14.9245 12.5508 15C12.5977 15.0729 12.6693 15.1133 12.7656 15.1211C12.9089 15.1315 13.0234 15.0885 13.1094 14.9922C13.1979 14.8958 13.2656 14.7734 13.3125 14.625C13.3594 14.4766 13.3932 14.3281 13.4141 14.1797C13.4349 14.0286 13.4518 13.9089 13.4648 13.8203Z"/>
</mask>
<path d="M14.7969 12.6484L14.6406 13.6562C14.6042 13.9297 14.5417 14.2096 14.4531 14.4961C14.3646 14.7826 14.2435 15.0482 14.0898 15.293C13.9388 15.5352 13.7474 15.7292 13.5156 15.875C13.2839 16.0208 13.0013 16.0885 12.668 16.0781C12.4154 16.0729 12.2044 16.0182 12.0352 15.9141C11.8685 15.8073 11.7344 15.6693 11.6328 15.5C11.5339 15.3281 11.4622 15.138 11.418 14.9297C11.3737 14.7214 11.3503 14.5078 11.3477 14.2891C11.3451 14.0677 11.3555 13.8581 11.3789 13.6602L11.5352 12.6484C11.5742 12.375 11.6367 12.0964 11.7227 11.8125C11.8112 11.526 11.9323 11.2617 12.0859 11.0195C12.2396 10.7747 12.4323 10.5807 12.6641 10.4375C12.8958 10.2917 13.1784 10.224 13.5117 10.2344C13.7643 10.2396 13.974 10.2956 14.1406 10.4023C14.3099 10.5065 14.444 10.6445 14.543 10.8164C14.6419 10.9857 14.7135 11.1745 14.7578 11.3828C14.8021 11.5911 14.8255 11.8047 14.8281 12.0234C14.8307 12.2422 14.8203 12.4505 14.7969 12.6484ZM13.4648 13.8203L13.6602 12.4805C13.6654 12.4258 13.6745 12.349 13.6875 12.25C13.7031 12.151 13.7135 12.043 13.7188 11.9258C13.7266 11.806 13.724 11.6914 13.7109 11.582C13.7005 11.4727 13.6719 11.3815 13.625 11.3086C13.5781 11.2357 13.5065 11.1966 13.4102 11.1914C13.2669 11.181 13.151 11.224 13.0625 11.3203C12.9766 11.4141 12.9102 11.5352 12.8633 11.6836C12.8164 11.8294 12.7826 11.9766 12.7617 12.125C12.7409 12.2734 12.7253 12.3919 12.7148 12.4805L12.5195 13.8203C12.5143 13.8698 12.5039 13.9453 12.4883 14.0469C12.4753 14.1458 12.4648 14.2552 12.457 14.375C12.4492 14.4948 12.4505 14.6107 12.4609 14.7227C12.474 14.832 12.5039 14.9245 12.5508 15C12.5977 15.0729 12.6693 15.1133 12.7656 15.1211C12.9089 15.1315 13.0234 15.0885 13.1094 14.9922C13.1979 14.8958 13.2656 14.7734 13.3125 14.625C13.3594 14.4766 13.3932 14.3281 13.4141 14.1797C13.4349 14.0286 13.4518 13.9089 13.4648 13.8203Z" fill="#171717"/>
<path d="M14.7969 12.6484L15.0935 12.6944L15.0948 12.6837L14.7969 12.6484ZM14.6406 13.6562L14.3441 13.6103L14.3433 13.6166L14.6406 13.6562ZM14.0898 15.293L13.8357 15.1335L13.8353 15.1342L14.0898 15.293ZM12.668 16.0781L12.6773 15.7783L12.6742 15.7782L12.668 16.0781ZM12.0352 15.9141L11.8733 16.1667L11.8779 16.1696L12.0352 15.9141ZM11.6328 15.5L11.3728 15.6497L11.3756 15.6543L11.6328 15.5ZM11.418 14.9297L11.1245 14.992L11.418 14.9297ZM11.3477 14.2891L11.0477 14.2926L11.0477 14.2926L11.3477 14.2891ZM11.3789 13.6602L11.0822 13.6143L11.081 13.6249L11.3789 13.6602ZM11.5352 12.6484L11.8317 12.6942L11.8321 12.6909L11.5352 12.6484ZM11.7227 11.8125L11.436 11.7239L11.4355 11.7256L11.7227 11.8125ZM12.0859 11.0195L12.3393 11.1802L12.34 11.179L12.0859 11.0195ZM12.6641 10.4375L12.8218 10.6927L12.8238 10.6914L12.6641 10.4375ZM13.5117 10.2344L13.5023 10.5342L13.5055 10.5343L13.5117 10.2344ZM14.1406 10.4023L13.9788 10.655L13.9834 10.6578L14.1406 10.4023ZM14.543 10.8164L14.283 10.9661L14.284 10.9678L14.543 10.8164ZM13.4648 13.8203L13.7617 13.864L13.7617 13.8636L13.4648 13.8203ZM13.6602 12.4805L13.957 12.5237L13.9581 12.5163L13.9588 12.5089L13.6602 12.4805ZM13.6875 12.25L13.3911 12.2032L13.3901 12.2109L13.6875 12.25ZM13.7188 11.9258L13.4193 11.9063L13.419 11.9125L13.7188 11.9258ZM13.7109 11.582L13.4122 11.6105L13.413 11.6175L13.7109 11.582ZM13.4102 11.1914L13.3884 11.4907L13.394 11.491L13.4102 11.1914ZM13.0625 11.3203L12.8416 11.1173L12.8414 11.1176L13.0625 11.3203ZM12.8633 11.6836L13.1489 11.7754L13.1494 11.7739L12.8633 11.6836ZM12.7148 12.4805L13.0118 12.5238L13.0128 12.5155L12.7148 12.4805ZM12.5195 13.8203L12.2224 13.777L12.2212 13.7889L12.5195 13.8203ZM12.4883 14.0469L12.1917 14.0012L12.1908 14.0077L12.4883 14.0469ZM12.4609 14.7227L12.1621 14.7505L12.163 14.7581L12.4609 14.7227ZM12.5508 15L12.2959 15.1582L12.2984 15.1622L12.5508 15ZM12.7656 15.1211L12.7414 15.4201L12.7439 15.4203L12.7656 15.1211ZM13.1094 14.9922L12.8885 14.7892L12.8855 14.7925L13.1094 14.9922ZM13.4141 14.1797L13.7112 14.2214L13.7112 14.2207L13.4141 14.1797ZM14.7969 12.6484L14.5004 12.6025L14.3442 13.6103L14.6406 13.6562L14.9371 13.7022L15.0933 12.6944L14.7969 12.6484ZM14.6406 13.6562L14.3433 13.6166C14.3092 13.8721 14.2505 14.1357 14.1665 14.4075L14.4531 14.4961L14.7397 14.5847C14.8328 14.2836 14.8991 13.9873 14.938 13.6959L14.6406 13.6562ZM14.4531 14.4961L14.1665 14.4075C14.0854 14.67 13.975 14.9116 13.8357 15.1335L14.0898 15.293L14.3439 15.4525C14.512 15.1847 14.6438 14.8952 14.7397 14.5847L14.4531 14.4961ZM14.0898 15.293L13.8353 15.1342C13.7072 15.3396 13.5476 15.5004 13.3559 15.6211L13.5156 15.875L13.6754 16.1289C13.9472 15.9579 14.1704 15.7307 14.3444 15.4517L14.0898 15.293ZM13.5156 15.875L13.3559 15.6211C13.1847 15.7288 12.9641 15.7872 12.6773 15.7783L12.668 16.0781L12.6586 16.378C13.0385 16.3898 13.383 16.3129 13.6754 16.1289L13.5156 15.875ZM12.668 16.0781L12.6742 15.7782C12.4607 15.7738 12.3054 15.7281 12.1924 15.6586L12.0352 15.9141L11.8779 16.1696C12.1035 16.3084 12.37 16.372 12.6618 16.3781L12.668 16.0781ZM12.0352 15.9141L12.197 15.6615C12.0692 15.5796 11.9678 15.4751 11.8901 15.3457L11.6328 15.5L11.3756 15.6543C11.501 15.8634 11.6678 16.035 11.8733 16.1667L12.0352 15.9141ZM11.6328 15.5L11.8928 15.3503C11.8106 15.2076 11.7496 15.0472 11.7114 14.8673L11.418 14.9297L11.1245 14.992C11.1748 15.2288 11.2571 15.4487 11.3728 15.6497L11.6328 15.5ZM11.418 14.9297L11.7114 14.8673C11.6714 14.6788 11.65 14.485 11.6476 14.2855L11.3477 14.2891L11.0477 14.2926C11.0505 14.5306 11.076 14.7639 11.1245 14.992L11.418 14.9297ZM11.3477 14.2891L11.6476 14.2855C11.6452 14.0757 11.6551 13.8792 11.6768 13.6954L11.3789 13.6602L11.081 13.6249C11.0559 13.837 11.0449 14.0597 11.0477 14.2926L11.3477 14.2891ZM11.3789 13.6602L11.6754 13.7059L11.8316 12.6942L11.5352 12.6484L11.2387 12.6026L11.0824 13.6144L11.3789 13.6602ZM11.5352 12.6484L11.8321 12.6909C11.8689 12.4335 11.9279 12.1698 12.0098 11.8994L11.7227 11.8125L11.4355 11.7256C11.3455 12.0229 11.2795 12.3165 11.2382 12.606L11.5352 12.6484ZM11.7227 11.8125L12.0093 11.9011C12.0903 11.6389 12.2005 11.399 12.3393 11.1802L12.0859 11.0195L11.8326 10.8588C11.6641 11.1245 11.5321 11.4132 11.436 11.7239L11.7227 11.8125ZM12.0859 11.0195L12.34 11.179C12.4708 10.9707 12.6314 10.8104 12.8218 10.6927L12.6641 10.4375L12.5064 10.1823C12.2332 10.3511 12.0084 10.5788 11.8318 10.86L12.0859 11.0195ZM12.6641 10.4375L12.8238 10.6914C12.995 10.5837 13.2156 10.5253 13.5023 10.5342L13.5117 10.2344L13.5211 9.93452C13.1412 9.92265 12.7967 9.99959 12.5043 10.1836L12.6641 10.4375ZM13.5117 10.2344L13.5055 10.5343C13.718 10.5387 13.8699 10.5852 13.9788 10.655L14.1406 10.4023L14.3025 10.1497C14.078 10.006 13.8107 9.94048 13.5179 9.93444L13.5117 10.2344ZM14.1406 10.4023L13.9834 10.6578C14.1102 10.7359 14.209 10.8376 14.283 10.9661L14.543 10.8164L14.803 10.6667C14.679 10.4515 14.5096 10.2771 14.2979 10.1468L14.1406 10.4023ZM14.543 10.8164L14.284 10.9678C14.3654 11.1071 14.4262 11.2655 14.4644 11.4452L14.7578 11.3828L15.0513 11.3205C15.0009 11.0835 14.9184 10.8642 14.802 10.665L14.543 10.8164ZM14.7578 11.3828L14.4644 11.4452C14.5044 11.6337 14.5258 11.8275 14.5281 12.027L14.8281 12.0234L15.1281 12.0199C15.1253 11.7819 15.0997 11.5486 15.0513 11.3205L14.7578 11.3828ZM14.8281 12.0234L14.5281 12.027C14.5306 12.234 14.5207 12.4293 14.499 12.6132L14.7969 12.6484L15.0948 12.6837C15.1199 12.4717 15.1308 12.2504 15.1281 12.0199L14.8281 12.0234ZM13.4648 13.8203L13.7617 13.8636L13.957 12.5237L13.6602 12.4805L13.3633 12.4372L13.168 13.777L13.4648 13.8203ZM13.6602 12.4805L13.9588 12.5089C13.9635 12.4596 13.9721 12.3869 13.9849 12.2891L13.6875 12.25L13.3901 12.2109C13.3769 12.311 13.3672 12.392 13.3615 12.452L13.6602 12.4805ZM13.6875 12.25L13.9838 12.2968C14.0015 12.1851 14.0128 12.0657 14.0185 11.9391L13.7188 11.9258L13.419 11.9125C13.4143 12.0203 13.4048 12.117 13.3912 12.2032L13.6875 12.25ZM13.7188 11.9258L14.0181 11.9453C14.027 11.8088 14.0242 11.6757 14.0088 11.5466L13.7109 11.582L13.413 11.6175C13.4237 11.7071 13.4261 11.8032 13.4194 11.9063L13.7188 11.9258ZM13.7109 11.582L14.0096 11.5536C13.9958 11.409 13.9561 11.2689 13.8774 11.1464L13.625 11.3086L13.3726 11.4708C13.3876 11.4941 13.4052 11.5363 13.4123 11.6105L13.7109 11.582ZM13.625 11.3086L13.8774 11.1464C13.7719 10.9823 13.6063 10.9016 13.4263 10.8918L13.4102 11.1914L13.394 11.491C13.4056 11.4916 13.4025 11.4934 13.3925 11.488C13.3877 11.4854 13.3831 11.482 13.3791 11.4783C13.3752 11.4746 13.3732 11.4717 13.3726 11.4708L13.625 11.3086ZM13.4102 11.1914L13.4319 10.8922C13.2075 10.8759 12.9987 10.9464 12.8416 11.1173L13.0625 11.3203L13.2834 11.5233C13.3034 11.5015 13.3263 11.4861 13.3884 11.4906L13.4102 11.1914ZM13.0625 11.3203L12.8414 11.1176C12.72 11.25 12.6344 11.4122 12.5772 11.5933L12.8633 11.6836L13.1494 11.7739C13.1859 11.6581 13.2332 11.5781 13.2836 11.523L13.0625 11.3203ZM12.8633 11.6836L12.5777 11.5918C12.5257 11.7536 12.4879 11.9175 12.4646 12.0833L12.7617 12.125L13.0588 12.1667C13.0772 12.0356 13.1072 11.9052 13.1489 11.7754L12.8633 11.6836ZM12.7617 12.125L12.4646 12.0833C12.4437 12.2327 12.4277 12.3537 12.4169 12.4454L12.7148 12.4805L13.0128 12.5155C13.0228 12.4302 13.0381 12.3142 13.0588 12.1667L12.7617 12.125ZM12.7148 12.4805L12.418 12.4372L12.2227 13.777L12.5195 13.8203L12.8164 13.8636L13.0117 12.5237L12.7148 12.4805ZM12.5195 13.8203L12.2212 13.7889C12.2168 13.8309 12.2073 13.9006 12.1918 14.0013L12.4883 14.0469L12.7848 14.0925C12.8006 13.9901 12.8119 13.9087 12.8179 13.8517L12.5195 13.8203ZM12.4883 14.0469L12.1908 14.0077C12.1768 14.1144 12.1658 14.2304 12.1577 14.3555L12.457 14.375L12.7564 14.3945C12.7639 14.28 12.7737 14.1773 12.7857 14.086L12.4883 14.0469ZM12.457 14.375L12.1577 14.3555C12.1489 14.49 12.1503 14.6217 12.1622 14.7504L12.4609 14.7227L12.7596 14.6949C12.7508 14.5996 12.7495 14.4996 12.7564 14.3945L12.457 14.375ZM12.4609 14.7227L12.163 14.7581C12.18 14.9009 12.221 15.0376 12.2959 15.1582L12.5508 15L12.8057 14.8418C12.7868 14.8114 12.7679 14.7632 12.7588 14.6872L12.4609 14.7227ZM12.5508 15L12.2984 15.1622C12.4022 15.3236 12.5641 15.4057 12.7414 15.4201L12.7656 15.1211L12.7899 14.8221C12.7774 14.8211 12.7789 14.8191 12.787 14.8236C12.7908 14.8258 12.7946 14.8286 12.7979 14.8317C12.8011 14.8349 12.8028 14.8372 12.8031 14.8378L12.5508 15ZM12.7656 15.1211L12.7439 15.4203C12.968 15.4366 13.1778 15.3662 13.3333 15.1919L13.1094 14.9922L12.8855 14.7925C12.8691 14.8109 12.8497 14.8264 12.7874 14.8219L12.7656 15.1211ZM13.1094 14.9922L13.3303 15.1952C13.4536 15.0609 13.541 14.8978 13.5986 14.7153L13.3125 14.625L13.0264 14.5347C12.9903 14.6491 12.9422 14.7307 12.8885 14.7892L13.1094 14.9922ZM13.3125 14.625L13.5986 14.7153C13.6503 14.5516 13.6879 14.3869 13.7112 14.2214L13.4141 14.1797L13.117 14.138C13.0985 14.2693 13.0685 14.4015 13.0264 14.5347L13.3125 14.625ZM13.4141 14.1797L13.7112 14.2207C13.732 14.07 13.7488 13.9512 13.7617 13.864L13.4648 13.8203L13.168 13.7767C13.1548 13.8665 13.1378 13.9873 13.1169 14.1387L13.4141 14.1797Z" fill="#B3B3B3" mask="url(#path-10-outside-3_275_1130)"/>
<defs>
<filter id="filter0_d_275_1130" x="9.5" y="24.5" width="65" height="100" filterUnits="userSpaceOnUse" color-interpolation-filters="sRGB">
<feFlood flood-opacity="0" result="BackgroundImageFix"/>
<feColorMatrix in="SourceAlpha" type="matrix" values="0 0 0 0 0 0 0 0 0 0 0 0 0 0 0 0 0 0 127 0" result="hardAlpha"/>
<feOffset dy="4"/>
<feGaussianBlur stdDeviation="2"/>
<feComposite in2="hardAlpha" operator="out"/>
<feColorMatrix type="matrix" values="0 0 0 0 0 0 0 0 0 0 0 0 0 0 0 0 0 0 0.25 0"/>
<feBlend mode="normal" in2="BackgroundImageFix" result="effect1_dropShadow_275_1130"/>
<feBlend mode="normal" in="SourceGraphic" in2="effect1_dropShadow_275_1130" result="shape"/>
</filter>
<filter id="filter1_d_275_1130" x="27.8711" y="53.1719" width="29.2383" height="39.2188" filterUnits="userSpaceOnUse" color-interpolation-filters="sRGB">
<feFlood flood-opacity="0" result="BackgroundImageFix"/>
<feColorMatrix in="SourceAlpha" type="matrix" values="0 0 0 0 0 0 0 0 0 0 0 0 0 0 0 0 0 0 127 0" result="hardAlpha"/>
<feOffset dy="4"/>
<feGaussianBlur stdDeviation="2"/>
<feComposite in2="hardAlpha" operator="out"/>
<feColorMatrix type="matrix" values="0 0 0 0 0.668269 0 0 0 0 0.668269 0 0 0 0 0.668269 0 0 0 0.59 0"/>
<feBlend mode="normal" in2="BackgroundImageFix" result="effect1_dropShadow_275_1130"/>
<feBlend mode="normal" in="SourceGraphic" in2="effect1_dropShadow_275_1130" result="shape"/>
</filter>
<linearGradient id="paint0_linear_275_1130" x1="42.5" y1="3" x2="42.5" y2="134" gradientUnits="userSpaceOnUse">
<stop stop-color="#3F3F3F" stop-opacity="0.95"/>
<stop offset="1" stop-color="#313131"/>
</linearGradient>
<linearGradient id="paint1_linear_275_1130" x1="70.5961" y1="112.867" x2="68.1695" y2="130.133" gradientUnits="userSpaceOnUse">
<stop stop-color="#CCCCCC"/>
<stop offset="1" stop-color="#666666"/>
</linearGradient>
<linearGradient id="paint2_linear_275_1130" x1="42" y1="25" x2="42" y2="116" gradientUnits="userSpaceOnUse">
<stop stop-color="#828282"/>
<stop offset="0.465308" stop-color="#626262"/>
<stop offset="0.86711" stop-color="#2F2F2F"/>
</linearGradient>
<linearGradient id="paint3_linear_275_1130" x1="14.596" y1="4.86706" x2="12.1694" y2="22.1329" gradientUnits="userSpaceOnUse">
<stop stop-color="#CCCCCC"/>
<stop offset="1" stop-color="#666666"/>
</linearGradient>
</defs>
</svg>
