<svg width="85" height="137" viewBox="0 0 85 137" fill="none" xmlns="http://www.w3.org/2000/svg">
<rect x="0.5" y="0.5" width="84" height="136" rx="9.5" fill="white" stroke="black"/>
<rect x="4.5" y="3.5" width="76" height="130" rx="9.5" fill="url(#paint0_linear_275_550)" stroke="black"/>
<path d="M70.5616 113.115C72.1644 113.34 73.5106 114.456 74.381 116.125C75.2511 117.793 75.633 119.994 75.3044 122.332C74.9758 124.67 74.0018 126.682 72.7056 128.046C71.4092 129.409 69.8073 130.111 68.2046 129.885C66.6017 129.66 65.2545 128.544 64.3841 126.876C63.5139 125.208 63.1322 123.006 63.4608 120.668C63.7894 118.33 64.7634 116.319 66.0594 114.955C67.356 113.591 68.9586 112.889 70.5616 113.115Z" fill="url(#paint1_linear_275_550)" stroke="#6B0092" stroke-width="0.5"/>
<mask id="path-4-outside-1_275_550" maskUnits="userSpaceOnUse" x="66.4622" y="118" width="5" height="8" fill="black">
<rect fill="white" x="66.4622" y="118" width="5" height="8"/>
<path d="M67.7789 120.598C67.7998 120.264 67.8896 119.97 68.0485 119.715C68.2047 119.46 68.4143 119.26 68.6774 119.117C68.9404 118.977 69.2399 118.91 69.5758 118.918C69.8857 118.926 70.1526 119 70.3766 119.141C70.5979 119.281 70.762 119.471 70.8688 119.711C70.9755 119.951 71.0198 120.224 71.0016 120.531C70.986 120.773 70.9287 120.993 70.8297 121.191C70.7307 121.392 70.5992 121.565 70.4352 121.711C70.2711 121.859 70.0836 121.971 69.8727 122.047C69.6617 122.125 69.4365 122.161 69.1969 122.156C68.8974 122.148 68.6383 122.077 68.4195 121.941C68.2008 121.806 68.0341 121.622 67.9195 121.391C67.805 121.159 67.7581 120.895 67.7789 120.598ZM68.9195 120.688C68.9065 120.776 68.9026 120.878 68.9078 120.992C68.913 121.109 68.9404 121.212 68.9899 121.301C69.0367 121.389 69.1227 121.435 69.2477 121.438C69.3857 121.44 69.4951 121.396 69.5758 121.305C69.6539 121.216 69.7125 121.107 69.7516 120.977C69.788 120.849 69.8115 120.732 69.8219 120.625C69.8297 120.536 69.831 120.434 69.8258 120.316C69.8206 120.202 69.7932 120.1 69.7438 120.012C69.6943 119.926 69.607 119.882 69.482 119.879C69.344 119.876 69.236 119.919 69.1578 120.008C69.0797 120.099 69.0224 120.208 68.986 120.336C68.9495 120.464 68.9274 120.581 68.9195 120.688ZM67.4039 123.203C67.4222 122.904 67.5094 122.638 67.6656 122.406C67.8193 122.177 68.0211 121.999 68.2711 121.871C68.5211 121.743 68.7945 121.682 69.0914 121.688C69.3649 121.695 69.607 121.762 69.818 121.887C70.0289 122.012 70.1904 122.181 70.3024 122.395C70.4143 122.611 70.4612 122.858 70.443 123.137C70.4274 123.454 70.3453 123.737 70.1969 123.984C70.0485 124.234 69.8505 124.43 69.6031 124.57C69.3531 124.714 69.0654 124.781 68.7399 124.773C68.4378 124.766 68.1839 124.691 67.9781 124.551C67.7724 124.413 67.6214 124.227 67.525 123.992C67.4261 123.758 67.3857 123.495 67.4039 123.203ZM68.5797 123.137C68.5745 123.21 68.5706 123.298 68.568 123.402C68.5654 123.509 68.5823 123.603 68.6188 123.684C68.6552 123.767 68.7281 123.81 68.8375 123.812C68.9599 123.815 69.0524 123.773 69.1149 123.688C69.1774 123.602 69.2229 123.501 69.2516 123.387C69.2776 123.272 69.2945 123.171 69.3024 123.082C69.3102 123.009 69.3154 122.918 69.318 122.809C69.318 122.702 69.2998 122.605 69.2633 122.52C69.2268 122.434 69.1526 122.391 69.0406 122.391C68.9182 122.388 68.8258 122.43 68.7633 122.516C68.6982 122.604 68.6539 122.708 68.6305 122.828C68.6044 122.948 68.5875 123.051 68.5797 123.137Z"/>
</mask>
<path d="M67.7789 120.598C67.7998 120.264 67.8896 119.97 68.0485 119.715C68.2047 119.46 68.4143 119.26 68.6774 119.117C68.9404 118.977 69.2399 118.91 69.5758 118.918C69.8857 118.926 70.1526 119 70.3766 119.141C70.5979 119.281 70.762 119.471 70.8688 119.711C70.9755 119.951 71.0198 120.224 71.0016 120.531C70.986 120.773 70.9287 120.993 70.8297 121.191C70.7307 121.392 70.5992 121.565 70.4352 121.711C70.2711 121.859 70.0836 121.971 69.8727 122.047C69.6617 122.125 69.4365 122.161 69.1969 122.156C68.8974 122.148 68.6383 122.077 68.4195 121.941C68.2008 121.806 68.0341 121.622 67.9195 121.391C67.805 121.159 67.7581 120.895 67.7789 120.598ZM68.9195 120.688C68.9065 120.776 68.9026 120.878 68.9078 120.992C68.913 121.109 68.9404 121.212 68.9899 121.301C69.0367 121.389 69.1227 121.435 69.2477 121.438C69.3857 121.44 69.4951 121.396 69.5758 121.305C69.6539 121.216 69.7125 121.107 69.7516 120.977C69.788 120.849 69.8115 120.732 69.8219 120.625C69.8297 120.536 69.831 120.434 69.8258 120.316C69.8206 120.202 69.7932 120.1 69.7438 120.012C69.6943 119.926 69.607 119.882 69.482 119.879C69.344 119.876 69.236 119.919 69.1578 120.008C69.0797 120.099 69.0224 120.208 68.986 120.336C68.9495 120.464 68.9274 120.581 68.9195 120.688ZM67.4039 123.203C67.4222 122.904 67.5094 122.638 67.6656 122.406C67.8193 122.177 68.0211 121.999 68.2711 121.871C68.5211 121.743 68.7945 121.682 69.0914 121.688C69.3649 121.695 69.607 121.762 69.818 121.887C70.0289 122.012 70.1904 122.181 70.3024 122.395C70.4143 122.611 70.4612 122.858 70.443 123.137C70.4274 123.454 70.3453 123.737 70.1969 123.984C70.0485 124.234 69.8505 124.43 69.6031 124.57C69.3531 124.714 69.0654 124.781 68.7399 124.773C68.4378 124.766 68.1839 124.691 67.9781 124.551C67.7724 124.413 67.6214 124.227 67.525 123.992C67.4261 123.758 67.3857 123.495 67.4039 123.203ZM68.5797 123.137C68.5745 123.21 68.5706 123.298 68.568 123.402C68.5654 123.509 68.5823 123.603 68.6188 123.684C68.6552 123.767 68.7281 123.81 68.8375 123.812C68.9599 123.815 69.0524 123.773 69.1149 123.688C69.1774 123.602 69.2229 123.501 69.2516 123.387C69.2776 123.272 69.2945 123.171 69.3024 123.082C69.3102 123.009 69.3154 122.918 69.318 122.809C69.318 122.702 69.2998 122.605 69.2633 122.52C69.2268 122.434 69.1526 122.391 69.0406 122.391C68.9182 122.388 68.8258 122.43 68.7633 122.516C68.6982 122.604 68.6539 122.708 68.6305 122.828C68.6044 122.948 68.5875 123.051 68.5797 123.137Z" fill="#BE00E9"/>
<path d="M67.7789 120.598L68.0782 120.619L68.0783 120.616L67.7789 120.598ZM68.0485 119.715L68.3032 119.873L68.3043 119.871L68.0485 119.715ZM68.6774 119.117L68.5359 118.853L68.5339 118.854L68.6774 119.117ZM69.5758 118.918L69.5834 118.618L69.5828 118.618L69.5758 118.918ZM70.3766 119.141L70.5375 118.887L70.5361 118.887L70.3766 119.141ZM70.8688 119.711L71.1428 119.589L70.8688 119.711ZM71.0016 120.531L71.301 120.551L71.3011 120.549L71.0016 120.531ZM70.8297 121.191L70.5614 121.057L70.5607 121.059L70.8297 121.191ZM70.4352 121.711L70.2359 121.487L70.2339 121.488L70.4352 121.711ZM69.8727 122.047L69.7715 121.764L69.7685 121.766L69.8727 122.047ZM69.1969 122.156L69.1891 122.456L69.1904 122.456L69.1969 122.156ZM68.9195 120.688L69.2164 120.731L69.2179 120.72L69.2187 120.709L68.9195 120.688ZM68.9078 120.992L69.2075 120.979L69.2075 120.979L68.9078 120.992ZM68.9899 121.301L69.2551 121.16L69.2517 121.154L68.9899 121.301ZM69.2477 121.438L69.2414 121.737L69.242 121.737L69.2477 121.438ZM69.5758 121.305L69.8004 121.504L69.8008 121.503L69.5758 121.305ZM69.7516 120.977L70.039 121.063L70.04 121.059L69.7516 120.977ZM69.8219 120.625L70.1205 120.654L70.1207 120.651L69.8219 120.625ZM69.8258 120.316L70.1255 120.303L70.1255 120.303L69.8258 120.316ZM69.7438 120.012L70.0057 119.865L70.0038 119.862L69.7438 120.012ZM69.482 119.879L69.4883 119.579L69.4877 119.579L69.482 119.879ZM69.1578 120.008L68.9329 119.809L68.9301 119.813L69.1578 120.008ZM67.4039 123.203L67.7033 123.222L67.7034 123.221L67.4039 123.203ZM67.6656 122.406L67.9144 122.574L67.9148 122.573L67.6656 122.406ZM69.0914 121.688L69.1 121.388L69.0967 121.388L69.0914 121.688ZM70.3024 122.395L70.5687 122.257L70.568 122.255L70.3024 122.395ZM70.443 123.137L70.1436 123.117L70.1433 123.122L70.443 123.137ZM70.1969 123.984L69.9396 123.83L69.9389 123.831L70.1969 123.984ZM69.6031 124.57L69.4549 124.31L69.454 124.31L69.6031 124.57ZM68.7399 124.773L68.7321 125.073L68.7327 125.073L68.7399 124.773ZM67.9781 124.551L68.1474 124.303L68.1453 124.302L67.9781 124.551ZM67.525 123.992L67.8025 123.878L67.8014 123.875L67.525 123.992ZM68.5797 123.137L68.2809 123.11L68.2805 123.115L68.5797 123.137ZM68.568 123.402L68.2681 123.395L68.2681 123.395L68.568 123.402ZM68.6188 123.684L68.8936 123.563L68.8922 123.56L68.6188 123.684ZM68.8375 123.812L68.8304 124.112L68.8311 124.112L68.8375 123.812ZM69.2516 123.387L69.5427 123.459L69.5441 123.453L69.2516 123.387ZM69.3024 123.082L69.004 123.05L69.0035 123.056L69.3024 123.082ZM69.318 122.809L69.618 122.816V122.809H69.318ZM69.2633 122.52L69.5395 122.402L69.2633 122.52ZM69.0406 122.391L69.0343 122.691H69.0406V122.391ZM68.7633 122.516L69.005 122.693L69.0059 122.692L68.7633 122.516ZM68.6305 122.828L68.9237 122.892L68.9249 122.886L68.6305 122.828ZM67.7789 120.598L68.0783 120.616C68.0964 120.327 68.1734 120.082 68.3031 119.873L68.0485 119.715L67.7938 119.556C67.6058 119.858 67.5031 120.202 67.4795 120.579L67.7789 120.598ZM68.0485 119.715L68.3043 119.871C68.4331 119.661 68.6039 119.499 68.8208 119.381L68.6774 119.117L68.5339 118.854C68.2247 119.022 67.9763 119.258 67.7926 119.558L68.0485 119.715ZM68.6774 119.117L68.8188 119.382C69.0307 119.268 69.2779 119.211 69.5688 119.218L69.5758 118.918L69.5828 118.618C69.2018 118.609 68.8501 118.685 68.5359 118.853L68.6774 119.117ZM69.5758 118.918L69.5682 119.218C69.8337 119.225 70.046 119.287 70.217 119.395L70.3766 119.141L70.5361 118.887C70.2592 118.713 69.9377 118.627 69.5834 118.618L69.5758 118.918ZM70.3766 119.141L70.2157 119.394C70.3873 119.503 70.512 119.647 70.5947 119.833L70.8688 119.711L71.1428 119.589C71.012 119.295 70.8086 119.06 70.5374 118.887L70.3766 119.141ZM70.8688 119.711L70.5947 119.833C70.6788 120.022 70.718 120.246 70.7021 120.513L71.0016 120.531L71.3011 120.549C71.3216 120.202 71.2723 119.879 71.1428 119.589L70.8688 119.711ZM71.0016 120.531L70.7022 120.512C70.6889 120.718 70.6408 120.898 70.5614 121.057L70.8297 121.191L71.098 121.326C71.2166 121.088 71.283 120.829 71.301 120.551L71.0016 120.531ZM70.8297 121.191L70.5607 121.059C70.4785 121.225 70.3705 121.367 70.2359 121.487L70.4352 121.711L70.6345 121.935C70.828 121.763 70.983 121.559 71.0987 121.324L70.8297 121.191ZM70.4352 121.711L70.2339 121.488C70.0993 121.61 69.946 121.702 69.7716 121.764L69.8727 122.047L69.9738 122.329C70.2212 122.241 70.4429 122.109 70.6364 121.933L70.4352 121.711ZM69.8727 122.047L69.7685 121.766C69.5952 121.83 69.4077 121.861 69.2034 121.856L69.1969 122.156L69.1904 122.456C69.4652 122.462 69.7283 122.42 69.9769 122.328L69.8727 122.047ZM69.1969 122.156L69.2047 121.856C68.9495 121.85 68.7441 121.789 68.5775 121.686L68.4195 121.941L68.2616 122.196C68.5325 122.364 68.8453 122.447 69.1891 122.456L69.1969 122.156ZM68.4195 121.941L68.5775 121.686C68.4067 121.581 68.2783 121.439 68.1885 121.258L67.9195 121.391L67.6506 121.524C67.7899 121.805 67.9949 122.031 68.2616 122.196L68.4195 121.941ZM67.9195 121.391L68.1885 121.258C68.1009 121.08 68.0605 120.871 68.0782 120.619L67.7789 120.598L67.4797 120.577C67.4557 120.918 67.5091 121.237 67.6506 121.524L67.9195 121.391ZM68.9195 120.688L68.6227 120.644C68.6063 120.756 68.6023 120.877 68.6081 121.006L68.9078 120.992L69.2075 120.979C69.203 120.878 69.2068 120.796 69.2164 120.731L68.9195 120.688ZM68.9078 120.992L68.6081 121.006C68.6151 121.162 68.6524 121.312 68.728 121.447L68.9899 121.301L69.2517 121.154C69.2284 121.113 69.211 121.057 69.2075 120.979L68.9078 120.992ZM68.9899 121.301L68.7247 121.441C68.8358 121.651 69.0392 121.733 69.2414 121.737L69.2477 121.438L69.2539 121.138C69.2253 121.137 69.2215 121.132 69.23 121.136C69.2345 121.139 69.2401 121.143 69.2455 121.148C69.2508 121.153 69.2538 121.158 69.255 121.16L68.9899 121.301ZM69.2477 121.438L69.242 121.737C69.4547 121.741 69.6532 121.67 69.8004 121.504L69.5758 121.305L69.3512 121.106C69.3369 121.122 69.3167 121.139 69.2533 121.138L69.2477 121.438ZM69.5758 121.305L69.8008 121.503C69.9116 121.378 69.9893 121.228 70.0389 121.063L69.7516 120.977L69.4642 120.89C69.4357 120.985 69.3963 121.055 69.3508 121.106L69.5758 121.305ZM69.7516 120.977L70.04 121.059C70.0804 120.918 70.1079 120.783 70.1205 120.654L69.8219 120.625L69.5233 120.596C69.515 120.681 69.4957 120.78 69.4631 120.894L69.7516 120.977ZM69.8219 120.625L70.1207 120.651C70.13 120.546 70.1311 120.43 70.1255 120.303L69.8258 120.316L69.5261 120.33C69.5309 120.438 69.5294 120.527 69.5231 120.599L69.8219 120.625ZM69.8258 120.316L70.1255 120.303C70.1184 120.148 70.0807 120 70.0057 119.865L69.7438 120.012L69.4819 120.158C69.5058 120.201 69.5227 120.256 69.5261 120.33L69.8258 120.316ZM69.7438 120.012L70.0038 119.862C69.8878 119.661 69.6868 119.583 69.4883 119.579L69.482 119.879L69.4758 120.179C69.5054 120.179 69.5116 120.185 69.5055 120.182C69.5022 120.18 69.4975 120.177 69.4927 120.172C69.4879 120.168 69.485 120.164 69.4838 120.161L69.7438 120.012ZM69.482 119.879L69.4877 119.579C69.2782 119.575 69.0794 119.643 68.9329 119.809L69.1578 120.008L69.3828 120.206C69.3926 120.195 69.4099 120.178 69.4764 120.179L69.482 119.879ZM69.1578 120.008L68.9301 119.813C68.821 119.94 68.7446 120.089 68.6975 120.254L68.986 120.336L69.2744 120.418C69.3003 120.328 69.3384 120.258 69.3856 120.203L69.1578 120.008ZM68.986 120.336L68.6975 120.254C68.6567 120.396 68.63 120.534 68.6203 120.666L68.9195 120.688L69.2187 120.709C69.2248 120.627 69.2423 120.531 69.2744 120.418L68.986 120.336ZM67.4039 123.203L67.7034 123.221C67.7186 122.971 67.7903 122.758 67.9144 122.574L67.6656 122.406L67.4169 122.239C67.2285 122.518 67.1257 122.836 67.1045 123.185L67.4039 123.203ZM67.6656 122.406L67.9148 122.573C68.0395 122.387 68.2022 122.243 68.4075 122.138L68.2711 121.871L68.1347 121.604C67.84 121.754 67.5991 121.967 67.4165 122.239L67.6656 122.406ZM68.2711 121.871L68.4075 122.138C68.6111 122.034 68.8355 121.983 69.0862 121.987L69.0914 121.688L69.0967 121.388C68.7536 121.382 68.4311 121.453 68.1347 121.604L68.2711 121.871ZM69.0914 121.688L69.0829 121.987C69.3114 121.994 69.5028 122.049 69.665 122.145L69.818 121.887L69.9709 121.629C69.7113 121.475 69.4183 121.397 69.1 121.388L69.0914 121.688ZM69.818 121.887L69.665 122.145C69.829 122.242 69.951 122.37 70.0367 122.534L70.3024 122.395L70.568 122.255C70.4298 121.992 70.2289 121.781 69.9709 121.629L69.818 121.887ZM70.3024 122.395L70.036 122.533C70.1193 122.693 70.1588 122.885 70.1436 123.117L70.443 123.137L70.7423 123.156C70.7636 122.831 70.7094 122.528 70.5687 122.257L70.3024 122.395ZM70.443 123.137L70.1433 123.122C70.1299 123.396 70.0601 123.629 69.9396 123.83L70.1969 123.984L70.4541 124.139C70.6305 123.845 70.7248 123.513 70.7426 123.151L70.443 123.137ZM70.1969 123.984L69.9389 123.831C69.8165 124.037 69.656 124.195 69.4549 124.31L69.6031 124.57L69.7514 124.831C70.0451 124.664 70.2804 124.431 70.4548 124.138L70.1969 123.984ZM69.6031 124.57L69.454 124.31C69.2575 124.423 69.0251 124.48 68.7471 124.474L68.7399 124.773L68.7327 125.073C69.1056 125.082 69.4488 125.004 69.7523 124.831L69.6031 124.57ZM68.7399 124.773L68.7476 124.474C68.4909 124.467 68.2962 124.405 68.1474 124.303L67.9781 124.551L67.8089 124.798C68.0716 124.978 68.3847 125.064 68.7321 125.073L68.7399 124.773ZM67.9781 124.551L68.1453 124.302C67.9901 124.198 67.8768 124.059 67.8025 123.878L67.525 123.992L67.2476 124.106C67.3659 124.394 67.5548 124.628 67.811 124.8L67.9781 124.551ZM67.525 123.992L67.8014 123.875C67.723 123.69 67.6876 123.474 67.7033 123.222L67.4039 123.203L67.1045 123.184C67.0838 123.515 67.1291 123.826 67.2486 124.109L67.525 123.992ZM68.5797 123.137L68.2805 123.115C68.2748 123.194 68.2708 123.288 68.2681 123.395L68.568 123.402L68.8679 123.41C68.8704 123.309 68.8742 123.225 68.8789 123.158L68.5797 123.137ZM68.568 123.402L68.2681 123.395C68.2646 123.538 68.2869 123.678 68.3454 123.807L68.6188 123.684L68.8922 123.56C68.8777 123.528 68.8662 123.481 68.8679 123.41L68.568 123.402ZM68.6188 123.684L68.3439 123.804C68.3854 123.899 68.4535 123.981 68.5485 124.037C68.6401 124.091 68.7391 124.11 68.8304 124.112L68.8375 123.812L68.8447 123.513C68.8265 123.512 68.8344 123.509 68.8531 123.52C68.8625 123.525 68.8718 123.533 68.8797 123.542C68.8875 123.551 68.8917 123.559 68.8936 123.563L68.6188 123.684ZM68.8375 123.812L68.8311 124.112C69.0345 124.117 69.2278 124.042 69.3575 123.864L69.1149 123.688L68.8722 123.511C68.8706 123.513 68.8704 123.513 68.8717 123.512C68.873 123.511 68.8745 123.51 68.8754 123.51C68.8774 123.509 68.8696 123.513 68.8439 123.513L68.8375 123.812ZM69.1149 123.688L69.3575 123.864C69.445 123.744 69.5057 123.607 69.5426 123.459L69.2516 123.387L68.9605 123.314C68.9402 123.395 68.9097 123.46 68.8722 123.511L69.1149 123.688ZM69.2516 123.387L69.5441 123.453C69.5723 123.329 69.5919 123.214 69.6012 123.108L69.3024 123.082L69.0035 123.056C68.9972 123.127 68.983 123.215 68.959 123.32L69.2516 123.387ZM69.3024 123.082L69.6007 123.114C69.6097 123.03 69.6152 122.93 69.6179 122.816L69.318 122.809L69.0181 122.801C69.0156 122.906 69.0107 122.988 69.0041 123.05L69.3024 123.082ZM69.318 122.809H69.618C69.618 122.667 69.5938 122.53 69.5395 122.402L69.2633 122.52L68.9871 122.637C69.0058 122.681 69.018 122.736 69.018 122.809H69.318ZM69.2633 122.52L69.5395 122.402C69.4982 122.305 69.4291 122.22 69.3306 122.163C69.2359 122.108 69.1337 122.091 69.0406 122.091V122.391V122.691C69.0596 122.691 69.0505 122.694 69.03 122.682C69.0196 122.676 69.0096 122.668 69.0013 122.659C68.9931 122.649 68.9889 122.641 68.9871 122.637L69.2633 122.52ZM69.0406 122.391L69.047 122.091C68.8437 122.086 68.6504 122.161 68.5207 122.339L68.7633 122.516L69.0059 122.692C69.0075 122.69 69.0078 122.69 69.0065 122.691C69.0051 122.692 69.0037 122.693 69.0028 122.693C69.0007 122.694 69.0086 122.69 69.0343 122.691L69.0406 122.391ZM68.7633 122.516L68.5216 122.338C68.4275 122.466 68.3671 122.612 68.3361 122.771L68.6305 122.828L68.9249 122.886C68.9408 122.805 68.9689 122.742 69.005 122.693L68.7633 122.516ZM68.6305 122.828L68.3373 122.764C68.3097 122.892 68.2902 123.007 68.2809 123.11L68.5797 123.137L68.8785 123.164C68.8848 123.094 68.8992 123.004 68.9236 122.892L68.6305 122.828Z" fill="#5F0273" mask="url(#path-4-outside-1_275_550)"/>
<g filter="url(#filter0_d_275_550)">
<ellipse cx="42" cy="70.5" rx="28" ry="45.5" fill="url(#paint2_linear_275_550)"/>
<ellipse cx="42" cy="70.5" rx="28" ry="45.5" stroke="#6B0092"/>
</g>
<g filter="url(#filter1_d_275_550)">
<mask id="path-7-outside-2_275_550" maskUnits="userSpaceOnUse" x="31" y="53" width="23" height="32" fill="black">
<rect fill="white" x="31" y="53" width="23" height="32"/>
<path d="M52.1289 75.207C52.1289 76.9909 51.7122 78.4948 50.8789 79.7188C50.0456 80.9297 48.8997 81.8477 47.4414 82.4727C45.9961 83.0846 44.3555 83.3906 42.5195 83.3906C40.6836 83.3906 39.0365 83.0846 37.5781 82.4727C36.1198 81.8477 34.9674 80.9297 34.1211 79.7188C33.2747 78.4948 32.8516 76.9909 32.8516 75.207C32.8516 74.0091 33.0924 72.9284 33.5742 71.9648C34.056 70.9883 34.7266 70.1549 35.5859 69.4648C36.4583 68.7617 37.4805 68.2279 38.6523 67.8633C39.8242 67.4857 41.1003 67.2969 42.4805 67.2969C44.3294 67.2969 45.9831 67.6224 47.4414 68.2734C48.8997 68.9245 50.0456 69.8424 50.8789 71.0273C51.7122 72.2122 52.1289 73.6055 52.1289 75.207ZM46.4648 74.8359C46.4648 73.9635 46.2956 73.2148 45.957 72.5898C45.6315 71.9518 45.1693 71.4635 44.5703 71.125C43.9714 70.7865 43.2747 70.6172 42.4805 70.6172C41.6862 70.6172 40.9896 70.7865 40.3906 71.125C39.7917 71.4635 39.3229 71.9518 38.9844 72.5898C38.6589 73.2148 38.4961 73.9635 38.4961 74.8359C38.4961 75.6953 38.6589 76.4375 38.9844 77.0625C39.3229 77.6875 39.7917 78.1693 40.3906 78.5078C41.0026 78.8333 41.7122 78.9961 42.5195 78.9961C43.3268 78.9961 44.0234 78.8333 44.6094 78.5078C45.2083 78.1693 45.6641 77.6875 45.9766 77.0625C46.3021 76.4375 46.4648 75.6953 46.4648 74.8359ZM51.5234 62.1016C51.5234 63.5469 51.1393 64.8294 50.3711 65.9492C49.6029 67.056 48.5352 67.9219 47.168 68.5469C45.8138 69.1719 44.2643 69.4844 42.5195 69.4844C40.7617 69.4844 39.1992 69.1719 37.832 68.5469C36.4648 67.9219 35.3971 67.056 34.6289 65.9492C33.8607 64.8294 33.4766 63.5469 33.4766 62.1016C33.4766 60.3828 33.8607 58.9375 34.6289 57.7656C35.4102 56.5807 36.4779 55.6823 37.832 55.0703C39.1992 54.4583 40.7487 54.1523 42.4805 54.1523C44.2383 54.1523 45.7943 54.4583 47.1484 55.0703C48.5156 55.6823 49.5833 56.5807 50.3516 57.7656C51.1328 58.9375 51.5234 60.3828 51.5234 62.1016ZM45.8984 62.3555C45.8984 61.5872 45.7617 60.9232 45.4883 60.3633C45.2148 59.7904 44.8242 59.3477 44.3164 59.0352C43.8216 58.7227 43.2096 58.5664 42.4805 58.5664C41.7773 58.5664 41.1719 58.7161 40.6641 59.0156C40.1693 59.3151 39.7852 59.7513 39.5117 60.3242C39.2513 60.8841 39.1211 61.5612 39.1211 62.3555C39.1211 63.1237 39.2513 63.8008 39.5117 64.3867C39.7852 64.9596 40.1758 65.4089 40.6836 65.7344C41.1914 66.0599 41.8034 66.2227 42.5195 66.2227C43.2357 66.2227 43.8411 66.0599 44.3359 65.7344C44.8438 65.4089 45.2279 64.9596 45.4883 64.3867C45.7617 63.8008 45.8984 63.1237 45.8984 62.3555Z"/>
</mask>
<path d="M52.1289 75.207C52.1289 76.9909 51.7122 78.4948 50.8789 79.7188C50.0456 80.9297 48.8997 81.8477 47.4414 82.4727C45.9961 83.0846 44.3555 83.3906 42.5195 83.3906C40.6836 83.3906 39.0365 83.0846 37.5781 82.4727C36.1198 81.8477 34.9674 80.9297 34.1211 79.7188C33.2747 78.4948 32.8516 76.9909 32.8516 75.207C32.8516 74.0091 33.0924 72.9284 33.5742 71.9648C34.056 70.9883 34.7266 70.1549 35.5859 69.4648C36.4583 68.7617 37.4805 68.2279 38.6523 67.8633C39.8242 67.4857 41.1003 67.2969 42.4805 67.2969C44.3294 67.2969 45.9831 67.6224 47.4414 68.2734C48.8997 68.9245 50.0456 69.8424 50.8789 71.0273C51.7122 72.2122 52.1289 73.6055 52.1289 75.207ZM46.4648 74.8359C46.4648 73.9635 46.2956 73.2148 45.957 72.5898C45.6315 71.9518 45.1693 71.4635 44.5703 71.125C43.9714 70.7865 43.2747 70.6172 42.4805 70.6172C41.6862 70.6172 40.9896 70.7865 40.3906 71.125C39.7917 71.4635 39.3229 71.9518 38.9844 72.5898C38.6589 73.2148 38.4961 73.9635 38.4961 74.8359C38.4961 75.6953 38.6589 76.4375 38.9844 77.0625C39.3229 77.6875 39.7917 78.1693 40.3906 78.5078C41.0026 78.8333 41.7122 78.9961 42.5195 78.9961C43.3268 78.9961 44.0234 78.8333 44.6094 78.5078C45.2083 78.1693 45.6641 77.6875 45.9766 77.0625C46.3021 76.4375 46.4648 75.6953 46.4648 74.8359ZM51.5234 62.1016C51.5234 63.5469 51.1393 64.8294 50.3711 65.9492C49.6029 67.056 48.5352 67.9219 47.168 68.5469C45.8138 69.1719 44.2643 69.4844 42.5195 69.4844C40.7617 69.4844 39.1992 69.1719 37.832 68.5469C36.4648 67.9219 35.3971 67.056 34.6289 65.9492C33.8607 64.8294 33.4766 63.5469 33.4766 62.1016C33.4766 60.3828 33.8607 58.9375 34.6289 57.7656C35.4102 56.5807 36.4779 55.6823 37.832 55.0703C39.1992 54.4583 40.7487 54.1523 42.4805 54.1523C44.2383 54.1523 45.7943 54.4583 47.1484 55.0703C48.5156 55.6823 49.5833 56.5807 50.3516 57.7656C51.1328 58.9375 51.5234 60.3828 51.5234 62.1016ZM45.8984 62.3555C45.8984 61.5872 45.7617 60.9232 45.4883 60.3633C45.2148 59.7904 44.8242 59.3477 44.3164 59.0352C43.8216 58.7227 43.2096 58.5664 42.4805 58.5664C41.7773 58.5664 41.1719 58.7161 40.6641 59.0156C40.1693 59.3151 39.7852 59.7513 39.5117 60.3242C39.2513 60.8841 39.1211 61.5612 39.1211 62.3555C39.1211 63.1237 39.2513 63.8008 39.5117 64.3867C39.7852 64.9596 40.1758 65.4089 40.6836 65.7344C41.1914 66.0599 41.8034 66.2227 42.5195 66.2227C43.2357 66.2227 43.8411 66.0599 44.3359 65.7344C44.8438 65.4089 45.2279 64.9596 45.4883 64.3867C45.7617 63.8008 45.8984 63.1237 45.8984 62.3555Z" fill="#BE00E9"/>
<path d="M50.8789 79.7188L51.7027 80.2857L51.7055 80.2815L50.8789 79.7188ZM47.4414 82.4727L47.8313 83.3935L47.8353 83.3918L47.4414 82.4727ZM37.5781 82.4727L37.1842 83.3918L37.1912 83.3948L37.5781 82.4727ZM34.1211 79.7188L33.2986 80.2875L33.3014 80.2916L34.1211 79.7188ZM33.5742 71.9648L34.4687 72.4121L34.471 72.4073L33.5742 71.9648ZM35.5859 69.4648L36.2121 70.2446L36.2135 70.2434L35.5859 69.4648ZM38.6523 67.8633L38.9494 68.8182L38.959 68.8151L38.6523 67.8633ZM50.8789 71.0273L50.0609 71.6026L50.8789 71.0273ZM45.957 72.5898L45.0663 73.0443L45.0719 73.0553L45.0777 73.0661L45.957 72.5898ZM40.3906 71.125L40.8827 71.9956L40.3906 71.125ZM38.9844 72.5898L38.101 72.1211L38.0975 72.1279L38.9844 72.5898ZM38.9844 77.0625L38.0975 77.5244L38.1012 77.5316L38.1051 77.5388L38.9844 77.0625ZM40.3906 78.5078L39.8986 79.3784L39.9097 79.3847L39.921 79.3907L40.3906 78.5078ZM44.6094 78.5078L45.095 79.382L45.1014 79.3784L44.6094 78.5078ZM45.9766 77.0625L45.0896 76.6006L45.0858 76.6079L45.0821 76.6153L45.9766 77.0625ZM50.3711 65.9492L51.1926 66.5194L51.1957 66.5149L50.3711 65.9492ZM47.168 68.5469L46.7522 67.6374L46.7489 67.6389L47.168 68.5469ZM34.6289 65.9492L33.8043 66.5149L33.8074 66.5194L34.6289 65.9492ZM34.6289 57.7656L33.794 57.2152L33.7926 57.2174L34.6289 57.7656ZM37.832 55.0703L37.4235 54.1576L37.4202 54.159L37.832 55.0703ZM47.1484 55.0703L46.7366 55.9816L46.7399 55.983L47.1484 55.0703ZM50.3516 57.7656L49.5124 58.3097L49.5195 58.3203L50.3516 57.7656ZM45.4883 60.3633L44.5858 60.794L44.5897 60.8021L45.4883 60.3633ZM44.3164 59.0352L43.7824 59.8807L43.7923 59.8868L44.3164 59.0352ZM40.6641 59.0156L40.156 58.1542L40.1463 58.1601L40.6641 59.0156ZM39.5117 60.3242L38.6092 59.8935L38.605 59.9025L39.5117 60.3242ZM39.5117 64.3867L38.5979 64.7929L38.6034 64.8052L38.6092 64.8174L39.5117 64.3867ZM44.3359 65.7344L43.7962 64.8924L43.7863 64.899L44.3359 65.7344ZM45.4883 64.3867L44.5821 63.9638L44.5779 63.9729L45.4883 64.3867ZM52.1289 75.207H51.1289C51.1289 76.8319 50.7512 78.1294 50.0523 79.156L50.8789 79.7188L51.7055 80.2815C52.6732 78.8602 53.1289 77.1499 53.1289 75.207H52.1289ZM50.8789 79.7188L50.0551 79.1518C49.3374 80.1947 48.3465 80.9968 47.0475 81.5535L47.4414 82.4727L47.8353 83.3918C49.453 82.6985 50.7537 81.6646 51.7027 80.2857L50.8789 79.7188ZM47.4414 82.4727L47.0515 81.5518C45.7487 82.1035 44.244 82.3906 42.5195 82.3906V83.3906V84.3906C44.467 84.3906 46.2435 84.0658 47.8313 83.3935L47.4414 82.4727ZM42.5195 83.3906V82.3906C40.7953 82.3906 39.2828 82.1035 37.9651 81.5506L37.5781 82.4727L37.1912 83.3948C38.7901 84.0657 40.5719 84.3906 42.5195 84.3906V83.3906ZM37.5781 82.4727L37.972 81.5535C36.6719 80.9963 35.6723 80.1926 34.9407 79.1459L34.1211 79.7188L33.3014 80.2916C34.2626 81.6668 35.5676 82.699 37.1842 83.3918L37.5781 82.4727ZM34.1211 79.7188L34.9436 79.15C34.2342 78.1241 33.8516 76.8288 33.8516 75.207H32.8516H31.8516C31.8516 77.1529 32.3153 78.8655 33.2986 80.2875L34.1211 79.7188ZM32.8516 75.207H33.8516C33.8516 74.1468 34.0638 73.2218 34.4686 72.4121L33.5742 71.9648L32.6798 71.5176C32.1211 72.635 31.8516 73.8715 31.8516 75.207H32.8516ZM33.5742 71.9648L34.471 72.4073C34.8874 71.5632 35.465 70.8445 36.2121 70.2446L35.5859 69.4648L34.9598 68.6851C33.9881 69.4654 33.2245 70.4134 32.6774 71.5224L33.5742 71.9648ZM35.5859 69.4648L36.2135 70.2434C36.9788 69.6266 37.8863 69.1489 38.9494 68.8181L38.6523 67.8633L38.3553 66.9084C37.0746 67.3068 35.9378 67.8969 34.9584 68.6862L35.5859 69.4648ZM38.6523 67.8633L38.959 68.8151C40.0206 68.473 41.1919 68.2969 42.4805 68.2969V67.2969V66.2969C41.0086 66.2969 39.6278 66.4983 38.3456 66.9115L38.6523 67.8633ZM42.4805 67.2969V68.2969C44.211 68.2969 45.7224 68.6011 47.0338 69.1866L47.4414 68.2734L47.8491 67.3603C46.2438 66.6437 44.4479 66.2969 42.4805 66.2969V67.2969ZM47.4414 68.2734L47.0338 69.1866C48.3447 69.7718 49.3418 70.5801 50.0609 71.6026L50.8789 71.0273L51.6969 70.4521C50.7493 69.1048 49.4548 68.0771 47.8491 67.3603L47.4414 68.2734ZM50.8789 71.0273L50.0609 71.6026C50.7634 72.6014 51.1289 73.7886 51.1289 75.207H52.1289H53.1289C53.1289 73.4223 52.6611 71.8231 51.6969 70.4521L50.8789 71.0273ZM46.4648 74.8359H47.4648C47.4648 73.8346 47.2702 72.9145 46.8363 72.1136L45.957 72.5898L45.0777 73.0661C45.321 73.5152 45.4648 74.0925 45.4648 74.8359H46.4648ZM45.957 72.5898L46.8478 72.1354C46.437 71.3301 45.8394 70.6937 45.0624 70.2544L44.5703 71.125L44.0783 71.9956C44.4991 72.2334 44.8261 72.5735 45.0663 73.0443L45.957 72.5898ZM44.5703 71.125L45.0624 70.2544C44.2915 69.8187 43.4202 69.6172 42.4805 69.6172V70.6172V71.6172C43.1292 71.6172 43.6512 71.7542 44.0783 71.9956L44.5703 71.125ZM42.4805 70.6172V69.6172C41.5407 69.6172 40.6695 69.8187 39.8986 70.2544L40.3906 71.125L40.8827 71.9956C41.3097 71.7542 41.8317 71.6172 42.4805 71.6172V70.6172ZM40.3906 71.125L39.8986 70.2544C39.125 70.6917 38.5243 71.3234 38.101 72.1211L38.9844 72.5898L39.8677 73.0586C40.1215 72.5803 40.4583 72.2354 40.8827 71.9956L40.3906 71.125ZM38.9844 72.5898L38.0975 72.1279C37.682 72.9256 37.4961 73.8403 37.4961 74.8359H38.4961H39.4961C39.4961 74.0868 39.6357 73.5041 39.8713 73.0518L38.9844 72.5898ZM38.4961 74.8359H37.4961C37.4961 75.8213 37.6831 76.7288 38.0975 77.5244L38.9844 77.0625L39.8713 76.6006C39.6347 76.1462 39.4961 75.5693 39.4961 74.8359H38.4961ZM38.9844 77.0625L38.1051 77.5388C38.53 78.3232 39.1304 78.9442 39.8986 79.3784L40.3906 78.5078L40.8827 77.6372C40.4529 77.3943 40.1158 77.0518 39.8637 76.5862L38.9844 77.0625ZM40.3906 78.5078L39.921 79.3907C40.6997 79.8049 41.5755 79.9961 42.5195 79.9961V78.9961V77.9961C41.849 77.9961 41.3055 77.8618 40.8602 77.6249L40.3906 78.5078ZM42.5195 78.9961V79.9961C43.4622 79.9961 44.3329 79.8053 45.095 79.382L44.6094 78.5078L44.1237 77.6337C43.7139 77.8613 43.1915 77.9961 42.5195 77.9961V78.9961ZM44.6094 78.5078L45.1014 79.3784C45.8765 78.9403 46.471 78.3098 46.871 77.5097L45.9766 77.0625L45.0821 76.6153C44.8572 77.0652 44.5401 77.3983 44.1173 77.6372L44.6094 78.5078ZM45.9766 77.0625L46.8635 77.5244C47.2779 76.7288 47.4648 75.8213 47.4648 74.8359H46.4648H45.4648C45.4648 75.5693 45.3263 76.1462 45.0896 76.6006L45.9766 77.0625ZM51.5234 62.1016H50.5234C50.5234 63.3586 50.193 64.4412 49.5465 65.3835L50.3711 65.9492L51.1957 66.5149C52.0857 65.2177 52.5234 63.7351 52.5234 62.1016H51.5234ZM50.3711 65.9492L49.5496 65.379C48.8952 66.3217 47.9755 67.0782 46.7522 67.6374L47.168 68.5469L47.5837 69.4563C49.0948 68.7656 50.3105 67.7902 51.1926 66.5194L50.3711 65.9492ZM47.168 68.5469L46.7489 67.6389C45.5466 68.1938 44.144 68.4844 42.5195 68.4844V69.4844V70.4844C44.3846 70.4844 46.081 70.1499 47.587 69.4548L47.168 68.5469ZM42.5195 69.4844V68.4844C40.8811 68.4844 39.4642 68.1935 38.2478 67.6374L37.832 68.5469L37.4163 69.4563C38.9342 70.1503 40.6423 70.4844 42.5195 70.4844V69.4844ZM37.832 68.5469L38.2478 67.6374C37.0245 67.0782 36.1048 66.3217 35.4504 65.379L34.6289 65.9492L33.8074 66.5194C34.6895 67.7902 35.9052 68.7656 37.4163 69.4563L37.832 68.5469ZM34.6289 65.9492L35.4535 65.3835C34.807 64.4412 34.4766 63.3586 34.4766 62.1016H33.4766H32.4766C32.4766 63.7351 32.9143 65.2177 33.8043 66.5149L34.6289 65.9492ZM33.4766 62.1016H34.4766C34.4766 60.5332 34.8258 59.2893 35.4652 58.3139L34.6289 57.7656L33.7926 57.2174C32.8956 58.5857 32.4766 60.2324 32.4766 62.1016H33.4766ZM34.6289 57.7656L35.4638 58.3161C36.1359 57.2966 37.0535 56.5195 38.2439 55.9816L37.832 55.0703L37.4202 54.159C35.9023 54.845 34.6844 55.8648 33.794 57.2152L34.6289 57.7656ZM37.832 55.0703L38.2406 55.983C39.4607 55.4369 40.8677 55.1523 42.4805 55.1523V54.1523V53.1523C40.6297 53.1523 38.9377 53.4798 37.4235 54.1576L37.832 55.0703ZM42.4805 54.1523V55.1523C44.1219 55.1523 45.5334 55.4378 46.7366 55.9816L47.1484 55.0703L47.5603 54.159C46.0552 53.4789 44.3546 53.1523 42.4805 53.1523V54.1523ZM47.1484 55.0703L46.7399 55.983C47.9422 56.5212 48.8557 57.2966 49.5125 58.3096L50.3516 57.7656L51.1906 57.2216C50.311 55.8648 49.089 54.8433 47.557 54.1576L47.1484 55.0703ZM50.3516 57.7656L49.5195 58.3203C50.1692 59.2948 50.5234 60.5363 50.5234 62.1016H51.5234H52.5234C52.5234 60.2293 52.0964 58.5802 51.1836 57.2109L50.3516 57.7656ZM45.8984 62.3555H46.8984C46.8984 61.4699 46.7407 60.6491 46.3868 59.9244L45.4883 60.3633L44.5897 60.8021C44.7827 61.1973 44.8984 61.7046 44.8984 62.3555H45.8984ZM45.4883 60.3633L46.3908 59.9326C46.04 59.1976 45.5231 58.6036 44.8405 58.1835L44.3164 59.0352L43.7923 59.8868C44.1253 60.0917 44.3897 60.3831 44.5858 60.794L45.4883 60.3633ZM44.3164 59.0352L44.8504 58.1897C44.1607 57.754 43.3523 57.5664 42.4805 57.5664V58.5664V59.5664C43.067 59.5664 43.4826 59.6913 43.7824 59.8806L44.3164 59.0352ZM42.4805 58.5664V57.5664C41.6333 57.5664 40.8451 57.7479 40.1561 58.1543L40.6641 59.0156L41.172 59.877C41.4987 59.6844 41.9214 59.5664 42.4805 59.5664V58.5664ZM40.6641 59.0156L40.1463 58.1601C39.4684 58.5704 38.9582 59.1624 38.6092 59.8935L39.5117 60.3242L40.4142 60.7549C40.6121 60.3402 40.8702 60.0598 41.1819 59.8711L40.6641 59.0156ZM39.5117 60.3242L38.605 59.9025C38.2682 60.6266 38.1211 61.4557 38.1211 62.3555H39.1211H40.1211C40.1211 61.6667 40.2344 61.1416 40.4184 60.7459L39.5117 60.3242ZM39.1211 62.3555H38.1211C38.1211 63.2364 38.2706 64.0563 38.5979 64.7929L39.5117 64.3867L40.4255 63.9806C40.232 63.5452 40.1211 63.011 40.1211 62.3555H39.1211ZM39.5117 64.3867L38.6092 64.8174C38.9585 65.5493 39.4708 66.1448 40.1439 66.5763L40.6836 65.7344L41.2233 64.8925C40.8807 64.6729 40.6118 64.37 40.4142 63.956L39.5117 64.3867ZM40.6836 65.7344L40.1439 66.5763C40.8409 67.023 41.6484 67.2227 42.5195 67.2227V66.2227V65.2227C41.9584 65.2227 41.5419 65.0968 41.2233 64.8925L40.6836 65.7344ZM42.5195 66.2227V67.2227C43.3897 67.2227 44.1962 67.0233 44.8856 66.5698L44.3359 65.7344L43.7863 64.899C43.4861 65.0965 43.0816 65.2227 42.5195 65.2227V66.2227ZM44.3359 65.7344L44.8756 66.5763C45.5529 66.1421 46.0621 65.5409 46.3986 64.8005L45.4883 64.3867L44.5779 63.9729C44.3936 64.3784 44.1346 64.6756 43.7963 64.8925L44.3359 65.7344ZM45.4883 64.3867L46.3945 64.8096C46.7402 64.0687 46.8984 63.2427 46.8984 62.3555H45.8984H44.8984C44.8984 63.0047 44.7832 63.5329 44.5821 63.9638L45.4883 64.3867Z" fill="black" mask="url(#path-7-outside-2_275_550)"/>
</g>
<path d="M14.5616 5.11468C16.1644 5.34009 17.5106 6.45647 18.381 8.12475C19.2511 9.79263 19.633 11.9941 19.3044 14.3322C18.9758 16.6705 18.0018 18.6822 16.7056 20.0457C15.4092 21.4091 13.8073 22.1105 12.2046 21.8854C10.6017 21.6601 9.25448 20.5443 8.38406 18.8762C7.51391 17.2083 7.13218 15.006 7.4608 12.6677C7.7894 10.3296 8.76336 8.31867 10.0594 6.95524C11.356 5.59138 12.9586 4.88939 14.5616 5.11468Z" fill="url(#paint3_linear_275_550)" stroke="#6B0092" stroke-width="0.5"/>
<mask id="path-10-outside-3_275_550" maskUnits="userSpaceOnUse" x="10" y="9" width="6" height="8" fill="black">
<rect fill="white" x="10" y="9" width="6" height="8"/>
<path d="M14.4688 14.4023C14.4479 14.7357 14.3581 15.0299 14.1992 15.2852C14.043 15.5404 13.8333 15.7396 13.5703 15.8828C13.3073 16.0234 13.0078 16.0898 12.6719 16.082C12.362 16.0742 12.0951 16 11.8711 15.8594C11.6497 15.7188 11.4857 15.5286 11.3789 15.2891C11.2721 15.0495 11.2279 14.776 11.2461 14.4688C11.2617 14.2266 11.319 14.0065 11.418 13.8086C11.5169 13.6081 11.6484 13.4349 11.8125 13.2891C11.9766 13.1406 12.1641 13.0286 12.375 12.9531C12.5859 12.875 12.8112 12.8385 13.0508 12.8438C13.3503 12.8516 13.6094 12.9232 13.8281 13.0586C14.0469 13.194 14.2135 13.3776 14.3281 13.6094C14.4427 13.8411 14.4896 14.1055 14.4688 14.4023ZM13.3281 14.3125C13.3411 14.224 13.3451 14.1224 13.3398 14.0078C13.3346 13.8906 13.3073 13.7878 13.2578 13.6992C13.2109 13.6107 13.125 13.5651 13 13.5625C12.862 13.5599 12.7526 13.6042 12.6719 13.6953C12.5938 13.7839 12.5352 13.8932 12.4961 14.0234C12.4596 14.151 12.4362 14.2682 12.4258 14.375C12.418 14.4635 12.4167 14.5664 12.4219 14.6836C12.4271 14.7982 12.4544 14.8997 12.5039 14.9883C12.5534 15.0742 12.6406 15.1185 12.7656 15.1211C12.9036 15.1237 13.0117 15.0807 13.0898 14.9922C13.168 14.901 13.2253 14.7917 13.2617 14.6641C13.2982 14.5365 13.3203 14.4193 13.3281 14.3125ZM14.8438 11.7969C14.8255 12.0964 14.7383 12.362 14.582 12.5938C14.4284 12.8229 14.2266 13.0013 13.9766 13.1289C13.7266 13.2565 13.4531 13.3177 13.1562 13.3125C12.8828 13.3047 12.6406 13.2383 12.4297 13.1133C12.2188 12.9883 12.0573 12.819 11.9453 12.6055C11.8333 12.3893 11.7865 12.1419 11.8047 11.8633C11.8203 11.5456 11.9023 11.263 12.0508 11.0156C12.1992 10.7656 12.3971 10.5703 12.6445 10.4297C12.8945 10.2865 13.1823 10.2188 13.5078 10.2266C13.8099 10.2344 14.0638 10.3086 14.2695 10.4492C14.4753 10.5872 14.6263 10.7734 14.7227 11.0078C14.8216 11.2422 14.862 11.5052 14.8438 11.7969ZM13.668 11.8633C13.6732 11.7904 13.6771 11.7018 13.6797 11.5977C13.6823 11.4909 13.6654 11.3971 13.6289 11.3164C13.5924 11.2331 13.5195 11.1901 13.4102 11.1875C13.2878 11.1849 13.1953 11.2266 13.1328 11.3125C13.0703 11.3984 13.0247 11.4987 12.9961 11.6133C12.9701 11.7279 12.9531 11.8294 12.9453 11.918C12.9375 11.9909 12.9323 12.082 12.9297 12.1914C12.9297 12.2982 12.9479 12.3945 12.9844 12.4805C13.0208 12.5664 13.0951 12.6094 13.207 12.6094C13.3294 12.612 13.4219 12.5703 13.4844 12.4844C13.5495 12.3958 13.5938 12.2917 13.6172 12.1719C13.6432 12.0521 13.6602 11.9492 13.668 11.8633Z"/>
</mask>
<path d="M14.4688 14.4023C14.4479 14.7357 14.3581 15.0299 14.1992 15.2852C14.043 15.5404 13.8333 15.7396 13.5703 15.8828C13.3073 16.0234 13.0078 16.0898 12.6719 16.082C12.362 16.0742 12.0951 16 11.8711 15.8594C11.6497 15.7188 11.4857 15.5286 11.3789 15.2891C11.2721 15.0495 11.2279 14.776 11.2461 14.4688C11.2617 14.2266 11.319 14.0065 11.418 13.8086C11.5169 13.6081 11.6484 13.4349 11.8125 13.2891C11.9766 13.1406 12.1641 13.0286 12.375 12.9531C12.5859 12.875 12.8112 12.8385 13.0508 12.8438C13.3503 12.8516 13.6094 12.9232 13.8281 13.0586C14.0469 13.194 14.2135 13.3776 14.3281 13.6094C14.4427 13.8411 14.4896 14.1055 14.4688 14.4023ZM13.3281 14.3125C13.3411 14.224 13.3451 14.1224 13.3398 14.0078C13.3346 13.8906 13.3073 13.7878 13.2578 13.6992C13.2109 13.6107 13.125 13.5651 13 13.5625C12.862 13.5599 12.7526 13.6042 12.6719 13.6953C12.5938 13.7839 12.5352 13.8932 12.4961 14.0234C12.4596 14.151 12.4362 14.2682 12.4258 14.375C12.418 14.4635 12.4167 14.5664 12.4219 14.6836C12.4271 14.7982 12.4544 14.8997 12.5039 14.9883C12.5534 15.0742 12.6406 15.1185 12.7656 15.1211C12.9036 15.1237 13.0117 15.0807 13.0898 14.9922C13.168 14.901 13.2253 14.7917 13.2617 14.6641C13.2982 14.5365 13.3203 14.4193 13.3281 14.3125ZM14.8438 11.7969C14.8255 12.0964 14.7383 12.362 14.582 12.5938C14.4284 12.8229 14.2266 13.0013 13.9766 13.1289C13.7266 13.2565 13.4531 13.3177 13.1562 13.3125C12.8828 13.3047 12.6406 13.2383 12.4297 13.1133C12.2188 12.9883 12.0573 12.819 11.9453 12.6055C11.8333 12.3893 11.7865 12.1419 11.8047 11.8633C11.8203 11.5456 11.9023 11.263 12.0508 11.0156C12.1992 10.7656 12.3971 10.5703 12.6445 10.4297C12.8945 10.2865 13.1823 10.2188 13.5078 10.2266C13.8099 10.2344 14.0638 10.3086 14.2695 10.4492C14.4753 10.5872 14.6263 10.7734 14.7227 11.0078C14.8216 11.2422 14.862 11.5052 14.8438 11.7969ZM13.668 11.8633C13.6732 11.7904 13.6771 11.7018 13.6797 11.5977C13.6823 11.4909 13.6654 11.3971 13.6289 11.3164C13.5924 11.2331 13.5195 11.1901 13.4102 11.1875C13.2878 11.1849 13.1953 11.2266 13.1328 11.3125C13.0703 11.3984 13.0247 11.4987 12.9961 11.6133C12.9701 11.7279 12.9531 11.8294 12.9453 11.918C12.9375 11.9909 12.9323 12.082 12.9297 12.1914C12.9297 12.2982 12.9479 12.3945 12.9844 12.4805C13.0208 12.5664 13.0951 12.6094 13.207 12.6094C13.3294 12.612 13.4219 12.5703 13.4844 12.4844C13.5495 12.3958 13.5938 12.2917 13.6172 12.1719C13.6432 12.0521 13.6602 11.9492 13.668 11.8633Z" fill="#BE00E9"/>
<path d="M14.4688 14.4023L14.1695 14.3813L14.1693 14.3836L14.4688 14.4023ZM14.1992 15.2852L13.9445 15.1266L13.9434 15.1285L14.1992 15.2852ZM13.5703 15.8828L13.7118 16.1474L13.7138 16.1463L13.5703 15.8828ZM12.6719 16.082L12.6643 16.3819L12.6649 16.382L12.6719 16.082ZM11.8711 15.8594L11.7102 16.1126L11.7116 16.1134L11.8711 15.8594ZM11.3789 15.2891L11.1049 15.4112L11.3789 15.2891ZM11.2461 14.4688L10.9467 14.4494L10.9466 14.451L11.2461 14.4688ZM11.418 13.8086L11.6863 13.9428L11.687 13.9414L11.418 13.8086ZM11.8125 13.2891L12.0118 13.5133L12.0138 13.5115L11.8125 13.2891ZM12.375 12.9531L12.4761 13.2356L12.4792 13.2344L12.375 12.9531ZM13.0508 12.8438L13.0586 12.5438L13.0573 12.5438L13.0508 12.8438ZM13.3281 14.3125L13.0313 14.2689L13.0297 14.2797L13.0289 14.2906L13.3281 14.3125ZM13.3398 14.0078L13.0401 14.0211L13.0402 14.0214L13.3398 14.0078ZM13.2578 13.6992L12.9926 13.8396L12.9959 13.8456L13.2578 13.6992ZM13 13.5625L13.0062 13.2626L13.0057 13.2626L13 13.5625ZM12.6719 13.6953L12.4473 13.4964L12.4469 13.4968L12.6719 13.6953ZM12.4961 14.0234L12.2087 13.9372L12.2076 13.941L12.4961 14.0234ZM12.4258 14.375L12.1272 14.3459L12.1269 14.3486L12.4258 14.375ZM12.4219 14.6836L12.1222 14.6969L12.1222 14.6972L12.4219 14.6836ZM12.5039 14.9883L12.242 15.1346L12.2439 15.138L12.5039 14.9883ZM12.7656 15.1211L12.7594 15.421L12.76 15.421L12.7656 15.1211ZM13.0898 14.9922L13.3148 15.1907L13.3176 15.1874L13.0898 14.9922ZM14.8438 11.7969L14.5443 11.7782L14.5443 11.7786L14.8438 11.7969ZM14.582 12.5938L14.3333 12.4261L14.3329 12.4267L14.582 12.5938ZM13.1562 13.3125L13.1477 13.6124L13.151 13.6125L13.1562 13.3125ZM11.9453 12.6055L11.6789 12.7435L11.6796 12.7448L11.9453 12.6055ZM11.8047 11.8633L12.1041 11.8829L12.1043 11.878L11.8047 11.8633ZM12.0508 11.0156L12.308 11.17L12.3087 11.1688L12.0508 11.0156ZM12.6445 10.4297L12.7928 10.6905L12.7937 10.69L12.6445 10.4297ZM13.5078 10.2266L13.5156 9.92666L13.515 9.92665L13.5078 10.2266ZM14.2695 10.4492L14.1002 10.6969L14.1024 10.6983L14.2695 10.4492ZM14.7227 11.0078L14.4452 11.1219L14.4463 11.1245L14.7227 11.0078ZM13.668 11.8633L13.9668 11.8904L13.9672 11.8847L13.668 11.8633ZM13.6797 11.5977L13.9796 11.6052L13.9796 11.605L13.6797 11.5977ZM13.6289 11.3164L13.354 11.4367L13.3555 11.4399L13.6289 11.3164ZM13.4102 11.1875L13.4173 10.8876L13.4165 10.8876L13.4102 11.1875ZM12.9961 11.6133L12.705 11.5405L12.7036 11.5468L12.9961 11.6133ZM12.9453 11.918L13.2437 11.9499L13.2442 11.9443L12.9453 11.918ZM12.9297 12.1914L12.6297 12.1843V12.1914H12.9297ZM12.9844 12.4805L12.7082 12.5976L12.9844 12.4805ZM13.207 12.6094L13.2134 12.3094H13.207V12.6094ZM13.4844 12.4844L13.2427 12.3067L13.2418 12.3079L13.4844 12.4844ZM13.6172 12.1719L13.324 12.1081L13.3228 12.1143L13.6172 12.1719ZM14.4688 14.4023L14.1693 14.3836C14.1512 14.673 14.0743 14.9181 13.9445 15.1266L14.1992 15.2852L14.4539 15.4437C14.6418 15.1418 14.7446 14.7984 14.7682 14.4211L14.4688 14.4023ZM14.1992 15.2852L13.9434 15.1285C13.8146 15.3388 13.6437 15.5012 13.4268 15.6193L13.5703 15.8828L13.7138 16.1463C14.0229 15.9779 14.2713 15.7419 14.4551 15.4418L14.1992 15.2852ZM13.5703 15.8828L13.4289 15.6183C13.217 15.7315 12.9698 15.7889 12.6789 15.7821L12.6719 16.082L12.6649 16.382C13.0459 16.3908 13.3976 16.3153 13.7118 16.1474L13.5703 15.8828ZM12.6719 16.082L12.6794 15.7821C12.414 15.7754 12.2016 15.7127 12.0306 15.6053L11.8711 15.8594L11.7116 16.1134C11.9885 16.2873 12.3099 16.373 12.6643 16.3819L12.6719 16.082ZM11.8711 15.8594L12.032 15.6062C11.8604 15.4972 11.7357 15.3527 11.6529 15.1669L11.3789 15.2891L11.1049 15.4112C11.2357 15.7046 11.4391 15.9403 11.7102 16.1126L11.8711 15.8594ZM11.3789 15.2891L11.6529 15.1669C11.5689 14.9783 11.5297 14.7541 11.5456 14.4865L11.2461 14.4688L10.9466 14.451C10.926 14.7979 10.9754 15.1207 11.1049 15.4112L11.3789 15.2891ZM11.2461 14.4688L11.5455 14.4881C11.5588 14.282 11.6069 14.1015 11.6863 13.9428L11.418 13.8086L11.1496 13.6744C11.0311 13.9115 10.9647 14.1712 10.9467 14.4494L11.2461 14.4688ZM11.418 13.8086L11.687 13.9414C11.7692 13.7749 11.8772 13.6329 12.0118 13.5133L11.8125 13.2891L11.6132 13.0648C11.4197 13.2369 11.2647 13.4413 11.1489 13.6758L11.418 13.8086ZM11.8125 13.2891L12.0138 13.5115C12.1483 13.3898 12.3017 13.298 12.4761 13.2356L12.375 12.9531L12.2739 12.6707C12.0264 12.7593 11.8048 12.8915 11.6112 13.0666L11.8125 13.2891ZM12.375 12.9531L12.4792 13.2344C12.6525 13.1703 12.8399 13.1392 13.0443 13.1437L13.0508 12.8438L13.0573 12.5438C12.7825 12.5378 12.5194 12.5797 12.2708 12.6718L12.375 12.9531ZM13.0508 12.8438L13.043 13.1436C13.2982 13.1503 13.5036 13.2105 13.6702 13.3137L13.8281 13.0586L13.986 12.8035C13.7151 12.6358 13.4024 12.5528 13.0586 12.5439L13.0508 12.8438ZM13.8281 13.0586L13.6702 13.3137C13.841 13.4194 13.9693 13.5606 14.0592 13.7423L14.3281 13.6094L14.5971 13.4764C14.4577 13.1946 14.2527 12.9686 13.986 12.8035L13.8281 13.0586ZM14.3281 13.6094L14.0592 13.7423C14.1468 13.9196 14.1872 14.1294 14.1695 14.3813L14.4688 14.4023L14.768 14.4233C14.792 14.0815 14.7386 13.7627 14.5971 13.4764L14.3281 13.6094ZM13.3281 14.3125L13.6249 14.3561C13.6414 14.2442 13.6454 14.1229 13.6395 13.9942L13.3398 14.0078L13.0402 14.0214C13.0447 14.1219 13.0409 14.2037 13.0313 14.2689L13.3281 14.3125ZM13.3398 14.0078L13.6395 13.9945C13.6326 13.8379 13.5953 13.6881 13.5197 13.5529L13.2578 13.6992L12.9959 13.8456C13.0193 13.8874 13.0367 13.9433 13.0401 14.0211L13.3398 14.0078ZM13.2578 13.6992L13.5229 13.5589C13.4119 13.349 13.2084 13.2668 13.0062 13.2626L13 13.5625L12.9938 13.8624C13.0223 13.863 13.0262 13.8682 13.0177 13.8637C13.0132 13.8613 13.0076 13.8574 13.0022 13.852C12.9968 13.8466 12.9939 13.8418 12.9927 13.8396L13.2578 13.6992ZM13 13.5625L13.0057 13.2626C12.7929 13.2585 12.5945 13.3303 12.4473 13.4964L12.6719 13.6953L12.8965 13.8942C12.9107 13.8781 12.931 13.8613 12.9943 13.8624L13 13.5625ZM12.6719 13.6953L12.4469 13.4968C12.3361 13.6224 12.2584 13.7718 12.2087 13.9372L12.4961 14.0234L12.7834 14.1096C12.8119 14.0147 12.8514 13.9453 12.8968 13.8938L12.6719 13.6953ZM12.4961 14.0234L12.2076 13.941C12.1673 14.0821 12.1397 14.2174 12.1272 14.3459L12.4258 14.375L12.7244 14.4041C12.7327 14.319 12.752 14.2199 12.7846 14.1059L12.4961 14.0234ZM12.4258 14.375L12.1269 14.3486C12.1177 14.4538 12.1165 14.5704 12.1222 14.6969L12.4219 14.6836L12.7216 14.6703C12.7168 14.5624 12.7183 14.4733 12.7246 14.4014L12.4258 14.375ZM12.4219 14.6836L12.1222 14.6972C12.1292 14.8522 12.167 15.0003 12.242 15.1346L12.5039 14.9883L12.7658 14.8419C12.7419 14.7991 12.7249 14.7441 12.7216 14.67L12.4219 14.6836ZM12.5039 14.9883L12.2439 15.138C12.3599 15.3393 12.5609 15.4169 12.7594 15.421L12.7656 15.1211L12.7719 14.8212C12.7423 14.8205 12.7361 14.8153 12.7422 14.8184C12.7455 14.8201 12.7502 14.8231 12.755 14.8277C12.7598 14.8322 12.7626 14.8364 12.7639 14.8386L12.5039 14.9883ZM12.7656 15.1211L12.76 15.421C12.9695 15.425 13.1683 15.3567 13.3148 15.1907L13.0898 14.9922L12.8649 14.7937C12.8551 14.8048 12.8378 14.8224 12.7713 14.8211L12.7656 15.1211ZM13.0898 14.9922L13.3176 15.1874C13.4267 15.0602 13.5031 14.9112 13.5502 14.7465L13.2617 14.6641L12.9733 14.5816C12.9474 14.6721 12.9092 14.7419 12.8621 14.797L13.0898 14.9922ZM13.2617 14.6641L13.5502 14.7465C13.591 14.6036 13.6177 14.4658 13.6273 14.3344L13.3281 14.3125L13.0289 14.2906C13.0229 14.3727 13.0054 14.4693 12.9733 14.5816L13.2617 14.6641ZM14.8438 11.7969L14.5443 11.7786C14.5291 12.0287 14.4574 12.2419 14.3333 12.4261L14.582 12.5938L14.8308 12.7614C15.0192 12.482 15.122 12.164 15.1432 11.8151L14.8438 11.7969ZM14.582 12.5938L14.3329 12.4267C14.2082 12.6126 14.0455 12.7569 13.8402 12.8617L13.9766 13.1289L14.1129 13.3961C14.4076 13.2457 14.6486 13.0332 14.8312 12.7608L14.582 12.5938ZM13.9766 13.1289L13.8402 12.8617C13.6365 12.9656 13.4121 13.0169 13.1615 13.0125L13.1562 13.3125L13.151 13.6125C13.4941 13.6185 13.8166 13.5474 14.1129 13.3961L13.9766 13.1289ZM13.1562 13.3125L13.1648 13.0126C12.9363 13.0061 12.7449 12.9513 12.5826 12.8552L12.4297 13.1133L12.2767 13.3714C12.5364 13.5252 12.8294 13.6033 13.1477 13.6124L13.1562 13.3125ZM12.4297 13.1133L12.5826 12.8552C12.4187 12.7581 12.2967 12.6295 12.211 12.4661L11.9453 12.6055L11.6796 12.7448C11.8179 13.0085 12.0188 13.2185 12.2767 13.3714L12.4297 13.1133ZM11.9453 12.6055L12.2117 12.4675C12.1284 12.3067 12.0889 12.1151 12.104 11.8829L11.8047 11.8633L11.5053 11.8437C11.4841 12.1687 11.5383 12.472 11.6789 12.7435L11.9453 12.6055ZM11.8047 11.8633L12.1043 11.878C12.1178 11.6045 12.1875 11.3708 12.308 11.17L12.0508 11.0156L11.7935 10.8613C11.6172 11.1552 11.5228 11.4867 11.505 11.8485L11.8047 11.8633ZM12.0508 11.0156L12.3087 11.1688C12.4312 10.9626 12.5917 10.8048 12.7928 10.6905L12.6445 10.4297L12.4963 10.1689C12.2026 10.3358 11.9673 10.5687 11.7928 10.8625L12.0508 11.0156ZM12.6445 10.4297L12.7937 10.69C12.9902 10.5774 13.2226 10.5198 13.5006 10.5265L13.5078 10.2266L13.515 9.92665C13.142 9.9177 12.7989 9.99552 12.4954 10.1694L12.6445 10.4297ZM13.5078 10.2266L13.5001 10.5265C13.7568 10.5331 13.9515 10.5952 14.1002 10.6969L14.2695 10.4492L14.4388 10.2015C14.1761 10.022 13.863 9.93565 13.5156 9.92666L13.5078 10.2266ZM14.2695 10.4492L14.1024 10.6983C14.2576 10.8025 14.3709 10.9411 14.4452 11.1219L14.7227 11.0078L15.0001 10.8937C14.8817 10.6058 14.6929 10.372 14.4367 10.2001L14.2695 10.4492ZM14.7227 11.0078L14.4463 11.1245C14.5247 11.3102 14.5601 11.5259 14.5443 11.7782L14.8438 11.7969L15.1432 11.8156C15.1639 11.4845 15.1185 11.1742 14.999 10.8911L14.7227 11.0078ZM13.668 11.8633L13.9672 11.8847C13.9729 11.8056 13.9769 11.7122 13.9796 11.6052L13.6797 11.5977L13.3798 11.5902C13.3772 11.6915 13.3735 11.7751 13.3687 11.8419L13.668 11.8633ZM13.6797 11.5977L13.9796 11.605C13.9831 11.4623 13.9607 11.3223 13.9023 11.1929L13.6289 11.3164L13.3555 11.4399C13.37 11.472 13.3815 11.5195 13.3798 11.5903L13.6797 11.5977ZM13.6289 11.3164L13.9038 11.1962C13.8622 11.1012 13.7942 11.0192 13.6992 10.9632C13.6076 10.9093 13.5085 10.8898 13.4173 10.8876L13.4102 11.1875L13.403 11.4874C13.4212 11.4878 13.4132 11.4911 13.3946 11.4801C13.3851 11.4746 13.3758 11.467 13.3679 11.4579C13.3602 11.4489 13.356 11.441 13.3541 11.4367L13.6289 11.3164ZM13.4102 11.1875L13.4165 10.8876C13.2132 10.8832 13.0199 10.9577 12.8902 11.136L13.1328 11.3125L13.3754 11.489C13.377 11.4868 13.3773 11.4869 13.376 11.4879C13.3746 11.4891 13.3732 11.4899 13.3723 11.4903C13.3702 11.4912 13.3781 11.4869 13.4038 11.4874L13.4102 11.1875ZM13.1328 11.3125L12.8902 11.136C12.8027 11.2564 12.742 11.3927 12.7051 11.5405L12.9961 11.6133L13.2871 11.686C13.3075 11.6046 13.338 11.5405 13.3754 11.489L13.1328 11.3125ZM12.9961 11.6133L12.7036 11.5468C12.6754 11.6707 12.6558 11.7861 12.6465 11.8916L12.9453 11.918L13.2442 11.9443C13.2505 11.8728 13.2647 11.7851 13.2886 11.6798L12.9961 11.6133ZM12.9453 11.918L12.647 11.886C12.638 11.9701 12.6325 12.0702 12.6298 12.1843L12.9297 12.1914L13.2296 12.1985C13.2321 12.0939 13.237 12.0117 13.2436 11.9499L12.9453 11.918ZM12.9297 12.1914H12.6297C12.6297 12.3327 12.6539 12.4697 12.7082 12.5976L12.9844 12.4805L13.2605 12.3633C13.2419 12.3194 13.2297 12.2637 13.2297 12.1914H12.9297ZM12.9844 12.4805L12.7082 12.5976C12.7495 12.6949 12.8186 12.7798 12.9171 12.8368C13.0118 12.8916 13.114 12.9094 13.207 12.9094V12.6094V12.3094C13.1881 12.3094 13.1972 12.3057 13.2177 12.3175C13.2281 12.3235 13.2381 12.3317 13.2464 12.3414C13.2546 12.351 13.2588 12.3591 13.2605 12.3633L12.9844 12.4805ZM13.207 12.6094L13.2006 12.9093C13.404 12.9136 13.5973 12.8392 13.727 12.6608L13.4844 12.4844L13.2418 12.3079C13.2402 12.3101 13.2399 12.31 13.2412 12.3089C13.2425 12.3078 13.244 12.307 13.2449 12.3066C13.2469 12.3056 13.2391 12.31 13.2134 12.3094L13.207 12.6094ZM13.4844 12.4844L13.7261 12.6621C13.8202 12.5341 13.8806 12.3879 13.9116 12.2295L13.6172 12.1719L13.3228 12.1143C13.3069 12.1955 13.2788 12.2576 13.2427 12.3067L13.4844 12.4844ZM13.6172 12.1719L13.9103 12.2356C13.938 12.1083 13.9575 11.9926 13.9667 11.8904L13.668 11.8633L13.3692 11.8361C13.3629 11.9059 13.3484 11.9958 13.324 12.1081L13.6172 12.1719Z" fill="#5F0273" mask="url(#path-10-outside-3_275_550)"/>
<rect x="1" y="65.5" width="3" height="2" fill="#BE00E9"/>
<rect x="1" y="68.5" width="3" height="2" fill="#BE00E9"/>
<rect x="1" y="73.5" width="3" height="2" fill="#BE00E9"/>
<rect x="1" y="76.5" width="3" height="2" fill="#BE00E9"/>
<rect x="1" y="79.5" width="3" height="2" fill="#BE00E9"/>
<rect x="1" y="60.5" width="3" height="2" fill="#BE00E9"/>
<rect x="1" y="57.5" width="3" height="2" fill="#BE00E9"/>
<rect x="1" y="54.5" width="3" height="2" fill="#BE00E9"/>
<rect x="45.5" y="1" width="2" height="2" transform="rotate(90 45.5 1)" fill="#BE00E9"/>
<rect x="42.5" y="1" width="2" height="2" transform="rotate(90 42.5 1)" fill="#BE00E9"/>
<rect x="37.5" y="1" width="2" height="2" transform="rotate(90 37.5 1)" fill="#BE00E9"/>
<rect x="34.5" y="1" width="2" height="2" transform="rotate(90 34.5 1)" fill="#BE00E9"/>
<rect x="31.5" y="1" width="2" height="2" transform="rotate(90 31.5 1)" fill="#BE00E9"/>
<rect x="50.5" y="1" width="2" height="2" transform="rotate(90 50.5 1)" fill="#BE00E9"/>
<rect x="53.5" y="1" width="2" height="2" transform="rotate(90 53.5 1)" fill="#BE00E9"/>
<rect x="56.5" y="1" width="2" height="2" transform="rotate(90 56.5 1)" fill="#BE00E9"/>
<rect x="45.5" y="134" width="2" height="2" transform="rotate(90 45.5 134)" fill="#BE00E9"/>
<rect x="42.5" y="134" width="2" height="2" transform="rotate(90 42.5 134)" fill="#BE00E9"/>
<rect x="37.5" y="134" width="2" height="2" transform="rotate(90 37.5 134)" fill="#BE00E9"/>
<rect x="34.5" y="134" width="2" height="2" transform="rotate(90 34.5 134)" fill="#BE00E9"/>
<rect x="31.5" y="134" width="2" height="2" transform="rotate(90 31.5 134)" fill="#BE00E9"/>
<rect x="50.5" y="134" width="2" height="2" transform="rotate(90 50.5 134)" fill="#BE00E9"/>
<rect x="53.5" y="134" width="2" height="2" transform="rotate(90 53.5 134)" fill="#BE00E9"/>
<rect x="56.5" y="134" width="2" height="2" transform="rotate(90 56.5 134)" fill="#BE00E9"/>
<rect x="81" y="65.5" width="3" height="2" fill="#BE00E9"/>
<rect x="81" y="68.5" width="3" height="2" fill="#BE00E9"/>
<rect x="81" y="73.5" width="3" height="2" fill="#BE00E9"/>
<rect x="81" y="76.5" width="3" height="2" fill="#BE00E9"/>
<rect x="81" y="79.5" width="3" height="2" fill="#BE00E9"/>
<rect x="81" y="60.5" width="3" height="2" fill="#BE00E9"/>
<rect x="81" y="57.5" width="3" height="2" fill="#BE00E9"/>
<rect x="81" y="54.5" width="3" height="2" fill="#BE00E9"/>
<defs>
<filter id="filter0_d_275_550" x="9.5" y="24.5" width="65" height="100" filterUnits="userSpaceOnUse" color-interpolation-filters="sRGB">
<feFlood flood-opacity="0" result="BackgroundImageFix"/>
<feColorMatrix in="SourceAlpha" type="matrix" values="0 0 0 0 0 0 0 0 0 0 0 0 0 0 0 0 0 0 127 0" result="hardAlpha"/>
<feOffset dy="4"/>
<feGaussianBlur stdDeviation="2"/>
<feComposite in2="hardAlpha" operator="out"/>
<feColorMatrix type="matrix" values="0 0 0 0 0 0 0 0 0 0 0 0 0 0 0 0 0 0 0.25 0"/>
<feBlend mode="normal" in2="BackgroundImageFix" result="effect1_dropShadow_275_550"/>
<feBlend mode="normal" in="SourceGraphic" in2="effect1_dropShadow_275_550" result="shape"/>
</filter>
<filter id="filter1_d_275_550" x="27.8516" y="53.1523" width="29.2773" height="39.2383" filterUnits="userSpaceOnUse" color-interpolation-filters="sRGB">
<feFlood flood-opacity="0" result="BackgroundImageFix"/>
<feColorMatrix in="SourceAlpha" type="matrix" values="0 0 0 0 0 0 0 0 0 0 0 0 0 0 0 0 0 0 127 0" result="hardAlpha"/>
<feOffset dy="4"/>
<feGaussianBlur stdDeviation="2"/>
<feComposite in2="hardAlpha" operator="out"/>
<feColorMatrix type="matrix" values="0 0 0 0 0 0 0 0 0 0 0 0 0 0 0 0 0 0 0.25 0"/>
<feBlend mode="normal" in2="BackgroundImageFix" result="effect1_dropShadow_275_550"/>
<feBlend mode="normal" in="SourceGraphic" in2="effect1_dropShadow_275_550" result="shape"/>
</filter>
<linearGradient id="paint0_linear_275_550" x1="42.5" y1="3" x2="42.5" y2="134" gradientUnits="userSpaceOnUse">
<stop stop-color="#AA00D0" stop-opacity="0.95"/>
<stop offset="1" stop-color="#2A0051"/>
</linearGradient>
<linearGradient id="paint1_linear_275_550" x1="70.596" y1="112.867" x2="68.1694" y2="130.133" gradientUnits="userSpaceOnUse">
<stop stop-color="#EFA7FF" stop-opacity="0.95"/>
<stop offset="1" stop-color="#A40FC5"/>
</linearGradient>
<linearGradient id="paint2_linear_275_550" x1="42" y1="25" x2="42" y2="116" gradientUnits="userSpaceOnUse">
<stop stop-color="#DD46FF"/>
<stop offset="1" stop-color="#7800AB"/>
</linearGradient>
<linearGradient id="paint3_linear_275_550" x1="14.596" y1="4.86706" x2="12.1694" y2="22.1329" gradientUnits="userSpaceOnUse">
<stop stop-color="#EFA7FF" stop-opacity="0.95"/>
<stop offset="1" stop-color="#A40FC5"/>
</linearGradient>
</defs>
</svg>
