<svg width="80" height="140" viewBox="0 0 80 140" fill="none" xmlns="http://www.w3.org/2000/svg">
<rect x="0.5" y="0.5" width="79" height="139" rx="9.5" fill="white" stroke="black"/>
<rect x="4.26465" y="3.56567" width="71.4706" height="132.869" rx="9.5" fill="url(#paint0_linear_275_1130)" stroke="black"/>
<path d="M66.4116 115.587C67.9054 115.815 69.1699 116.946 69.9907 118.654C70.8105 120.36 71.1704 122.614 70.8604 125.009C70.5505 127.403 69.6324 129.462 68.4112 130.857C67.1885 132.254 65.6858 132.962 64.1919 132.735C62.698 132.507 61.4327 131.375 60.6118 129.667C59.7921 127.961 59.4322 125.707 59.7421 123.312C60.052 120.918 60.9702 118.859 62.1913 117.464C63.4141 116.068 64.9176 115.359 66.4116 115.587Z" fill="url(#paint1_linear_275_1130)" stroke="#171717" stroke-width="0.5"/>
<mask id="path-4-outside-1_275_1130" maskUnits="userSpaceOnUse" x="62.7292" y="120.934" width="5" height="8" fill="black">
<rect fill="white" x="62.7292" y="120.934" width="5" height="8"/>
<path d="M63.3776 125.286L63.5338 124.278C63.5703 124.005 63.6328 123.725 63.7213 123.438C63.8099 123.152 63.9309 122.886 64.0846 122.641C64.2356 122.399 64.427 122.205 64.6588 122.059C64.8906 121.913 65.1731 121.846 65.5065 121.856C65.7591 121.861 65.97 121.916 66.1393 122.02C66.3059 122.127 66.4401 122.265 66.5416 122.434C66.6406 122.606 66.7122 122.796 66.7565 123.005C66.8007 123.213 66.8242 123.427 66.8268 123.645C66.8294 123.867 66.819 124.076 66.7955 124.274L66.6393 125.286C66.6002 125.559 66.5377 125.838 66.4518 126.122C66.3632 126.408 66.2421 126.673 66.0885 126.915C65.9349 127.16 65.7421 127.354 65.5104 127.497C65.2786 127.643 64.9961 127.71 64.6627 127.7C64.4101 127.695 64.2005 127.639 64.0338 127.532C63.8645 127.428 63.7304 127.29 63.6315 127.118C63.5325 126.949 63.4609 126.76 63.4166 126.552C63.3724 126.343 63.3489 126.13 63.3463 125.911C63.3437 125.692 63.3541 125.484 63.3776 125.286ZM64.7096 124.114L64.5143 125.454C64.5091 125.509 64.5 125.585 64.4869 125.684C64.4713 125.783 64.4609 125.891 64.4557 126.009C64.4479 126.128 64.4505 126.243 64.4635 126.352C64.4739 126.462 64.5026 126.553 64.5494 126.626C64.5963 126.699 64.6679 126.738 64.7643 126.743C64.9075 126.753 65.0234 126.71 65.1119 126.614C65.1979 126.52 65.2643 126.399 65.3112 126.251C65.358 126.105 65.3919 125.958 65.4127 125.809C65.4336 125.661 65.4492 125.542 65.4596 125.454L65.6549 124.114C65.6601 124.065 65.6705 123.989 65.6862 123.887C65.6992 123.788 65.7096 123.679 65.7174 123.559C65.7252 123.44 65.7239 123.324 65.7135 123.212C65.7005 123.102 65.6705 123.01 65.6237 122.934C65.5768 122.861 65.5052 122.821 65.4088 122.813C65.2656 122.803 65.151 122.846 65.0651 122.942C64.9765 123.038 64.9088 123.161 64.8619 123.309C64.8151 123.458 64.7812 123.606 64.7604 123.755C64.7395 123.906 64.7226 124.025 64.7096 124.114Z"/>
</mask>
<path d="M63.3776 125.286L63.5338 124.278C63.5703 124.005 63.6328 123.725 63.7213 123.438C63.8099 123.152 63.9309 122.886 64.0846 122.641C64.2356 122.399 64.427 122.205 64.6588 122.059C64.8906 121.913 65.1731 121.846 65.5065 121.856C65.7591 121.861 65.97 121.916 66.1393 122.02C66.3059 122.127 66.4401 122.265 66.5416 122.434C66.6406 122.606 66.7122 122.796 66.7565 123.005C66.8007 123.213 66.8242 123.427 66.8268 123.645C66.8294 123.867 66.819 124.076 66.7955 124.274L66.6393 125.286C66.6002 125.559 66.5377 125.838 66.4518 126.122C66.3632 126.408 66.2421 126.673 66.0885 126.915C65.9349 127.16 65.7421 127.354 65.5104 127.497C65.2786 127.643 64.9961 127.71 64.6627 127.7C64.4101 127.695 64.2005 127.639 64.0338 127.532C63.8645 127.428 63.7304 127.29 63.6315 127.118C63.5325 126.949 63.4609 126.76 63.4166 126.552C63.3724 126.343 63.3489 126.13 63.3463 125.911C63.3437 125.692 63.3541 125.484 63.3776 125.286ZM64.7096 124.114L64.5143 125.454C64.5091 125.509 64.5 125.585 64.4869 125.684C64.4713 125.783 64.4609 125.891 64.4557 126.009C64.4479 126.128 64.4505 126.243 64.4635 126.352C64.4739 126.462 64.5026 126.553 64.5494 126.626C64.5963 126.699 64.6679 126.738 64.7643 126.743C64.9075 126.753 65.0234 126.71 65.1119 126.614C65.1979 126.52 65.2643 126.399 65.3112 126.251C65.358 126.105 65.3919 125.958 65.4127 125.809C65.4336 125.661 65.4492 125.542 65.4596 125.454L65.6549 124.114C65.6601 124.065 65.6705 123.989 65.6862 123.887C65.6992 123.788 65.7096 123.679 65.7174 123.559C65.7252 123.44 65.7239 123.324 65.7135 123.212C65.7005 123.102 65.6705 123.01 65.6237 122.934C65.5768 122.861 65.5052 122.821 65.4088 122.813C65.2656 122.803 65.151 122.846 65.0651 122.942C64.9765 123.038 64.9088 123.161 64.8619 123.309C64.8151 123.458 64.7812 123.606 64.7604 123.755C64.7395 123.906 64.7226 124.025 64.7096 124.114Z" fill="black"/>
<path d="M63.3776 125.286L63.0809 125.24L63.0796 125.251L63.3776 125.286ZM63.5338 124.278L63.8303 124.324L63.8312 124.318L63.5338 124.278ZM64.0846 122.641L64.3387 122.801L64.3391 122.8L64.0846 122.641ZM65.5065 121.856L65.4971 122.156L65.5003 122.156L65.5065 121.856ZM66.1393 122.02L66.3011 121.768L66.2965 121.765L66.1393 122.02ZM66.5416 122.434L66.8017 122.285L66.7989 122.28L66.5416 122.434ZM66.7565 123.005L67.0499 122.942L66.7565 123.005ZM66.8268 123.645L67.1268 123.642V123.642L66.8268 123.645ZM66.7955 124.274L67.0922 124.32L67.0935 124.309L66.7955 124.274ZM66.6393 125.286L66.3428 125.24L66.3423 125.243L66.6393 125.286ZM66.4518 126.122L66.7384 126.21L66.7389 126.209L66.4518 126.122ZM66.0885 126.915L65.8352 126.754L65.8344 126.755L66.0885 126.915ZM65.5104 127.497L65.3527 127.242L65.3506 127.243L65.5104 127.497ZM64.6627 127.7L64.6721 127.4L64.6689 127.4L64.6627 127.7ZM64.0338 127.532L64.1957 127.279L64.191 127.276L64.0338 127.532ZM63.6315 127.118L63.8915 126.968L63.8905 126.967L63.6315 127.118ZM64.7096 124.114L64.4128 124.07L64.4127 124.071L64.7096 124.114ZM64.5143 125.454L64.2174 125.411L64.2163 125.418L64.2156 125.425L64.5143 125.454ZM64.4869 125.684L64.7834 125.731L64.7844 125.723L64.4869 125.684ZM64.4557 126.009L64.7551 126.028L64.7554 126.022L64.4557 126.009ZM64.4635 126.352L64.7622 126.324L64.7614 126.317L64.4635 126.352ZM64.7643 126.743L64.786 126.444L64.7805 126.443L64.7643 126.743ZM65.1119 126.614L65.3328 126.817L65.3331 126.817L65.1119 126.614ZM65.3112 126.251L65.0255 126.159L65.0251 126.16L65.3112 126.251ZM65.4596 125.454L65.1626 125.411L65.1617 125.419L65.4596 125.454ZM65.6549 124.114L65.952 124.157L65.9533 124.145L65.6549 124.114ZM65.6862 123.887L65.9827 123.933L65.9836 123.927L65.6862 123.887ZM65.7135 123.212L66.0123 123.184L66.0114 123.176L65.7135 123.212ZM65.6237 122.934L65.8786 122.776L65.876 122.772L65.6237 122.934ZM65.4088 122.813L65.4331 122.514L65.4306 122.514L65.4088 122.813ZM65.0651 122.942L65.286 123.145L65.289 123.142L65.0651 122.942ZM64.7604 123.755L64.4633 123.713L64.4632 123.714L64.7604 123.755ZM63.3776 125.286L63.674 125.332L63.8303 124.324L63.5338 124.278L63.2374 124.232L63.0811 125.24L63.3776 125.286ZM63.5338 124.278L63.8312 124.318C63.8652 124.062 63.9239 123.799 64.0079 123.527L63.7213 123.438L63.4347 123.35C63.3416 123.651 63.2753 123.947 63.2364 124.238L63.5338 124.278ZM63.7213 123.438L64.0079 123.527C64.0891 123.264 64.1994 123.023 64.3387 122.801L64.0846 122.641L63.8305 122.482C63.6625 122.75 63.5307 123.039 63.4347 123.35L63.7213 123.438ZM64.0846 122.641L64.3391 122.8C64.4672 122.595 64.6268 122.434 64.8186 122.313L64.6588 122.059L64.499 121.805C64.2273 121.976 64.004 122.204 63.83 122.483L64.0846 122.641ZM64.6588 122.059L64.8186 122.313C64.9897 122.206 65.2103 122.147 65.4971 122.156L65.5065 121.856L65.5158 121.556C65.136 121.544 64.7915 121.621 64.499 121.805L64.6588 122.059ZM65.5065 121.856L65.5003 122.156C65.7137 122.161 65.8691 122.206 65.9821 122.276L66.1393 122.02L66.2965 121.765C66.071 121.626 65.8044 121.562 65.5127 121.556L65.5065 121.856ZM66.1393 122.02L65.9775 122.273C66.1053 122.355 66.2067 122.459 66.2844 122.589L66.5416 122.434L66.7989 122.28C66.6734 122.071 66.5066 121.899 66.3011 121.768L66.1393 122.02ZM66.5416 122.434L66.2816 122.584C66.3638 122.727 66.4248 122.887 66.463 123.067L66.7565 123.005L67.0499 122.942C66.9996 122.706 66.9173 122.486 66.8016 122.285L66.5416 122.434ZM66.7565 123.005L66.463 123.067C66.5031 123.255 66.5244 123.449 66.5268 123.649L66.8268 123.645L67.1268 123.642C67.1239 123.404 67.0984 123.17 67.0499 122.942L66.7565 123.005ZM66.8268 123.645L66.5268 123.649C66.5293 123.859 66.5194 124.055 66.4976 124.239L66.7955 124.274L67.0935 124.309C67.1186 124.097 67.1295 123.875 67.1268 123.642L66.8268 123.645ZM66.7955 124.274L66.499 124.228L66.3428 125.24L66.6393 125.286L66.9358 125.332L67.092 124.32L66.7955 124.274ZM66.6393 125.286L66.3423 125.243C66.3055 125.501 66.2465 125.765 66.1647 126.035L66.4518 126.122L66.7389 126.209C66.8289 125.911 66.8949 125.618 66.9363 125.328L66.6393 125.286ZM66.4518 126.122L66.1652 126.033C66.0841 126.295 65.9739 126.535 65.8352 126.754L66.0885 126.915L66.3418 127.076C66.5104 126.81 66.6424 126.521 66.7384 126.21L66.4518 126.122ZM66.0885 126.915L65.8344 126.755C65.7036 126.964 65.5431 127.124 65.3527 127.242L65.5104 127.497L65.6681 127.752C65.9412 127.583 66.1661 127.356 66.3426 127.074L66.0885 126.915ZM65.5104 127.497L65.3506 127.243C65.1795 127.351 64.9589 127.409 64.6721 127.4L64.6627 127.7L64.6534 128C65.0332 128.012 65.3777 127.935 65.6701 127.751L65.5104 127.497ZM64.6627 127.7L64.6689 127.4C64.4565 127.396 64.3045 127.349 64.1956 127.279L64.0338 127.532L63.872 127.785C64.0964 127.928 64.3638 127.994 64.6565 128L64.6627 127.7ZM64.0338 127.532L64.191 127.276C64.0642 127.198 63.9654 127.097 63.8915 126.968L63.6315 127.118L63.3715 127.268C63.4954 127.483 63.6649 127.657 63.8766 127.787L64.0338 127.532ZM63.6315 127.118L63.8905 126.967C63.809 126.827 63.7483 126.669 63.7101 126.489L63.4166 126.552L63.1232 126.614C63.1735 126.851 63.256 127.07 63.3725 127.269L63.6315 127.118ZM63.4166 126.552L63.7101 126.489C63.67 126.301 63.6487 126.107 63.6463 125.907L63.3463 125.911L63.0463 125.914C63.0492 126.152 63.0747 126.386 63.1232 126.614L63.4166 126.552ZM63.3463 125.911L63.6463 125.907C63.6438 125.7 63.6537 125.505 63.6755 125.321L63.3776 125.286L63.0796 125.251C63.0545 125.463 63.0436 125.684 63.0463 125.914L63.3463 125.911ZM64.7096 124.114L64.4127 124.071L64.2174 125.411L64.5143 125.454L64.8111 125.497L65.0065 124.157L64.7096 124.114ZM64.5143 125.454L64.2156 125.425C64.2109 125.475 64.2024 125.547 64.1895 125.645L64.4869 125.684L64.7844 125.723C64.7976 125.623 64.8072 125.542 64.8129 125.482L64.5143 125.454ZM64.4869 125.684L64.1906 125.638C64.173 125.749 64.1616 125.869 64.156 125.995L64.4557 126.009L64.7554 126.022C64.7602 125.914 64.7697 125.817 64.7833 125.731L64.4869 125.684ZM64.4557 126.009L64.1563 125.989C64.1474 126.126 64.1502 126.259 64.1656 126.388L64.4635 126.352L64.7614 126.317C64.7507 126.227 64.7483 126.131 64.7551 126.028L64.4557 126.009ZM64.4635 126.352L64.1649 126.381C64.1786 126.525 64.2183 126.665 64.2971 126.788L64.5494 126.626L64.8018 126.464C64.7868 126.44 64.7692 126.398 64.7622 126.324L64.4635 126.352ZM64.5494 126.626L64.2971 126.788C64.4025 126.952 64.5681 127.033 64.7481 127.042L64.7643 126.743L64.7805 126.443C64.7689 126.443 64.772 126.441 64.782 126.446C64.7867 126.449 64.7913 126.452 64.7953 126.456C64.7992 126.46 64.8012 126.463 64.8018 126.464L64.5494 126.626ZM64.7643 126.743L64.7425 127.042C64.9669 127.058 65.1757 126.988 65.3328 126.817L65.1119 126.614L64.891 126.411C64.871 126.433 64.8481 126.448 64.786 126.444L64.7643 126.743ZM65.1119 126.614L65.3331 126.817C65.4545 126.684 65.5401 126.522 65.5972 126.341L65.3112 126.251L65.0251 126.16C64.9885 126.276 64.9413 126.356 64.8908 126.411L65.1119 126.614ZM65.3112 126.251L65.5968 126.343C65.6488 126.181 65.6865 126.017 65.7098 125.851L65.4127 125.809L65.1156 125.768C65.0972 125.899 65.0673 126.029 65.0255 126.159L65.3112 126.251ZM65.4127 125.809L65.7098 125.851C65.7308 125.702 65.7467 125.581 65.7575 125.489L65.4596 125.454L65.1617 125.419C65.1516 125.504 65.1363 125.62 65.1156 125.768L65.4127 125.809ZM65.4596 125.454L65.7565 125.497L65.9518 124.157L65.6549 124.114L65.358 124.071L65.1627 125.411L65.4596 125.454ZM65.6549 124.114L65.9533 124.145C65.9577 124.103 65.9672 124.034 65.9827 123.933L65.6862 123.887L65.3896 123.842C65.3739 123.944 65.3626 124.026 65.3566 124.083L65.6549 124.114ZM65.6862 123.887L65.9836 123.927C65.9976 123.82 66.0086 123.704 66.0168 123.579L65.7174 123.559L65.418 123.54C65.4106 123.654 65.4007 123.757 65.3887 123.848L65.6862 123.887ZM65.7174 123.559L66.0168 123.579C66.0255 123.444 66.0242 123.313 66.0122 123.184L65.7135 123.212L65.4148 123.239C65.4237 123.335 65.4249 123.435 65.418 123.54L65.7174 123.559ZM65.7135 123.212L66.0114 123.176C65.9944 123.033 65.9534 122.897 65.8786 122.776L65.6237 122.934L65.3688 123.093C65.3877 123.123 65.4066 123.171 65.4156 123.247L65.7135 123.212ZM65.6237 122.934L65.876 122.772C65.7723 122.611 65.6103 122.529 65.4331 122.514L65.4088 122.813L65.3846 123.112C65.397 123.113 65.3956 123.115 65.3875 123.111C65.3837 123.109 65.3799 123.106 65.3766 123.103C65.3733 123.099 65.3717 123.097 65.3713 123.097L65.6237 122.934ZM65.4088 122.813L65.4306 122.514C65.2064 122.498 64.9967 122.568 64.8412 122.742L65.0651 122.942L65.289 123.142C65.3053 123.123 65.3248 123.108 65.3871 123.112L65.4088 122.813ZM65.0651 122.942L64.8442 122.739C64.7208 122.873 64.6335 123.037 64.5759 123.219L64.8619 123.309L65.148 123.4C65.1841 123.285 65.2322 123.204 65.286 123.145L65.0651 122.942ZM64.8619 123.309L64.5759 123.219C64.5242 123.383 64.4865 123.547 64.4633 123.713L64.7604 123.755L65.0575 123.796C65.0759 123.665 65.106 123.533 65.148 123.4L64.8619 123.309ZM64.7604 123.755L64.4632 123.714C64.4424 123.864 64.4256 123.983 64.4128 124.07L64.7096 124.114L65.0064 124.158C65.0196 124.068 65.0367 123.947 65.0576 123.796L64.7604 123.755Z" fill="#B3B3B3" mask="url(#path-4-outside-1_275_1130)"/>
<g filter="url(#filter0_d_275_1130)">
<ellipse cx="39.5295" cy="72.0437" rx="26.3529" ry="46.4963" fill="url(#paint2_linear_275_1130)"/>
<ellipse cx="39.5295" cy="72.0437" rx="26.3529" ry="46.4963" stroke="#353535"/>
</g>
<g filter="url(#filter1_d_275_1130)">
<mask id="path-7-outside-2_275_1130" maskUnits="userSpaceOnUse" x="29" y="54.613" width="22" height="32" fill="black">
<rect fill="white" x="29" y="54.613" width="22" height="32"/>
<path d="M49.6094 67.8943V72.8162C49.6094 74.9516 49.3815 76.794 48.9258 78.3435C48.4701 79.88 47.8125 81.143 46.9531 82.1326C46.1068 83.1091 45.0977 83.8318 43.9258 84.3005C42.7539 84.7693 41.4518 85.0037 40.0195 85.0037C38.8737 85.0037 37.806 84.8604 36.8164 84.574C35.8268 84.2745 34.9349 83.8123 34.1406 83.1873C33.3594 82.5623 32.6823 81.7745 32.1094 80.824C31.5495 79.8604 31.1198 78.7146 30.8203 77.3865C30.5208 76.0583 30.3711 74.5349 30.3711 72.8162V67.8943C30.3711 65.7589 30.599 63.9294 31.0547 62.406C31.5234 60.8695 32.181 59.613 33.0273 58.6365C33.8867 57.6599 34.9023 56.9438 36.0742 56.488C37.2461 56.0193 38.5482 55.7849 39.9805 55.7849C41.1263 55.7849 42.1875 55.9347 43.1641 56.2341C44.1536 56.5206 45.0456 56.9698 45.8398 57.5818C46.6341 58.1938 47.3112 58.9815 47.8711 59.9451C48.431 60.8956 48.8607 62.0349 49.1602 63.363C49.4596 64.6781 49.6094 66.1886 49.6094 67.8943ZM43.9648 73.5583V67.1326C43.9648 66.1039 43.9062 65.2055 43.7891 64.4373C43.6849 63.669 43.5221 63.018 43.3008 62.4841C43.0794 61.9373 42.806 61.4945 42.4805 61.156C42.1549 60.8175 41.7839 60.5701 41.3672 60.4138C40.9505 60.2576 40.4883 60.1794 39.9805 60.1794C39.3424 60.1794 38.776 60.3031 38.2812 60.5505C37.7995 60.7979 37.3893 61.1951 37.0508 61.7419C36.7122 62.2758 36.4518 62.9919 36.2695 63.8904C36.1003 64.7758 36.0156 65.8565 36.0156 67.1326V73.5583C36.0156 74.587 36.0677 75.4919 36.1719 76.2732C36.2891 77.0544 36.4583 77.725 36.6797 78.2849C36.9141 78.8318 37.1875 79.281 37.5 79.6326C37.8255 79.9711 38.1966 80.2185 38.6133 80.3748C39.043 80.531 39.5117 80.6091 40.0195 80.6091C40.6445 80.6091 41.1979 80.4854 41.6797 80.238C42.1745 79.9776 42.5911 79.574 42.9297 79.0271C43.2812 78.4672 43.5417 77.738 43.7109 76.8396C43.8802 75.9412 43.9648 74.8474 43.9648 73.5583Z"/>
</mask>
<path d="M49.6094 67.8943V72.8162C49.6094 74.9516 49.3815 76.794 48.9258 78.3435C48.4701 79.88 47.8125 81.143 46.9531 82.1326C46.1068 83.1091 45.0977 83.8318 43.9258 84.3005C42.7539 84.7693 41.4518 85.0037 40.0195 85.0037C38.8737 85.0037 37.806 84.8604 36.8164 84.574C35.8268 84.2745 34.9349 83.8123 34.1406 83.1873C33.3594 82.5623 32.6823 81.7745 32.1094 80.824C31.5495 79.8604 31.1198 78.7146 30.8203 77.3865C30.5208 76.0583 30.3711 74.5349 30.3711 72.8162V67.8943C30.3711 65.7589 30.599 63.9294 31.0547 62.406C31.5234 60.8695 32.181 59.613 33.0273 58.6365C33.8867 57.6599 34.9023 56.9438 36.0742 56.488C37.2461 56.0193 38.5482 55.7849 39.9805 55.7849C41.1263 55.7849 42.1875 55.9347 43.1641 56.2341C44.1536 56.5206 45.0456 56.9698 45.8398 57.5818C46.6341 58.1938 47.3112 58.9815 47.8711 59.9451C48.431 60.8956 48.8607 62.0349 49.1602 63.363C49.4596 64.6781 49.6094 66.1886 49.6094 67.8943ZM43.9648 73.5583V67.1326C43.9648 66.1039 43.9062 65.2055 43.7891 64.4373C43.6849 63.669 43.5221 63.018 43.3008 62.4841C43.0794 61.9373 42.806 61.4945 42.4805 61.156C42.1549 60.8175 41.7839 60.5701 41.3672 60.4138C40.9505 60.2576 40.4883 60.1794 39.9805 60.1794C39.3424 60.1794 38.776 60.3031 38.2812 60.5505C37.7995 60.7979 37.3893 61.1951 37.0508 61.7419C36.7122 62.2758 36.4518 62.9919 36.2695 63.8904C36.1003 64.7758 36.0156 65.8565 36.0156 67.1326V73.5583C36.0156 74.587 36.0677 75.4919 36.1719 76.2732C36.2891 77.0544 36.4583 77.725 36.6797 78.2849C36.9141 78.8318 37.1875 79.281 37.5 79.6326C37.8255 79.9711 38.1966 80.2185 38.6133 80.3748C39.043 80.531 39.5117 80.6091 40.0195 80.6091C40.6445 80.6091 41.1979 80.4854 41.6797 80.238C42.1745 79.9776 42.5911 79.574 42.9297 79.0271C43.2812 78.4672 43.5417 77.738 43.7109 76.8396C43.8802 75.9412 43.9648 74.8474 43.9648 73.5583Z" fill="black"/>
<path d="M48.9258 78.3435L49.8845 78.6279L49.8851 78.6257L48.9258 78.3435ZM46.9531 82.1326L46.1981 81.4769L46.1974 81.4776L46.9531 82.1326ZM36.8164 84.574L36.5267 85.5312L36.5383 85.5345L36.8164 84.574ZM34.1406 83.1873L33.5159 83.9682L33.5222 83.9731L34.1406 83.1873ZM32.1094 80.824L31.2447 81.3264L31.2488 81.3333L31.2529 81.3402L32.1094 80.824ZM30.8203 77.3865L29.8448 77.6064L30.8203 77.3865ZM31.0547 62.406L30.0982 62.1142L30.0966 62.1194L31.0547 62.406ZM33.0273 58.6365L32.2766 57.9758L32.2717 57.9815L33.0273 58.6365ZM36.0742 56.488L36.4367 57.4201L36.4456 57.4165L36.0742 56.488ZM43.1641 56.2341L42.8709 57.1902L42.8784 57.1925L42.886 57.1947L43.1641 56.2341ZM47.8711 59.9451L47.0065 60.4475L47.0095 60.4526L47.8711 59.9451ZM49.1602 63.363L48.1846 63.583L48.1851 63.5851L49.1602 63.363ZM43.7891 64.4373L42.7981 64.5716L42.7992 64.5798L42.8005 64.5881L43.7891 64.4373ZM43.3008 62.4841L42.3738 62.8593L42.377 62.8671L43.3008 62.4841ZM38.2812 60.5505L37.834 59.6561L37.8244 59.661L38.2812 60.5505ZM37.0508 61.7419L37.8953 62.2775L37.901 62.2683L37.0508 61.7419ZM36.2695 63.8904L35.2894 63.6915L35.2873 63.7026L36.2695 63.8904ZM36.1719 76.2732L35.1806 76.4054L35.1817 76.4135L35.1829 76.4215L36.1719 76.2732ZM36.6797 78.2849L35.7497 78.6526L35.7549 78.6658L35.7605 78.6788L36.6797 78.2849ZM37.5 79.6326L36.7526 80.2969L36.7656 80.3116L36.7792 80.3257L37.5 79.6326ZM38.6133 80.3748L38.2621 81.3111L38.2715 81.3145L38.6133 80.3748ZM41.6797 80.238L42.1365 81.1276L42.1454 81.123L41.6797 80.238ZM42.9297 79.0271L42.0828 78.4953L42.0794 78.5007L42.9297 79.0271ZM49.6094 67.8943H48.6094V72.8162H49.6094H50.6094V67.8943H49.6094ZM49.6094 72.8162H48.6094C48.6094 74.8848 48.3881 76.6275 47.9664 78.0613L48.9258 78.3435L49.8851 78.6257C50.3749 76.9605 50.6094 75.0183 50.6094 72.8162H49.6094ZM48.9258 78.3435L47.9671 78.0591C47.5431 79.4885 46.9454 80.6164 46.1981 81.4769L46.9531 82.1326L47.7082 82.7883C48.6796 81.6696 49.397 80.2714 49.8845 78.6279L48.9258 78.3435ZM46.9531 82.1326L46.1974 81.4776C45.4529 82.3367 44.5746 82.964 43.5544 83.3721L43.9258 84.3005L44.2972 85.229C45.6208 84.6996 46.7606 83.8816 47.7088 82.7875L46.9531 82.1326ZM43.9258 84.3005L43.5544 83.3721C42.5155 83.7876 41.3416 84.0037 40.0195 84.0037V85.0037V86.0037C41.562 86.0037 42.9923 85.7509 44.2972 85.229L43.9258 84.3005ZM40.0195 85.0037V84.0037C38.9574 84.0037 37.9842 83.871 37.0945 83.6134L36.8164 84.574L36.5383 85.5345C37.6278 85.8499 38.79 86.0037 40.0195 86.0037V85.0037ZM36.8164 84.574L37.1061 83.6168C36.233 83.3526 35.4531 82.9475 34.759 82.4014L34.1406 83.1873L33.5222 83.9731C34.4167 84.677 35.4207 85.1964 36.5267 85.5311L36.8164 84.574ZM34.1406 83.1873L34.7653 82.4064C34.0859 81.8628 33.4844 81.1681 32.9658 80.3078L32.1094 80.824L31.2529 81.3402C31.8802 82.3809 32.6329 83.2617 33.5159 83.9681L34.1406 83.1873ZM32.1094 80.824L32.974 80.3216C32.4751 79.4629 32.0777 78.4165 31.7958 77.1665L30.8203 77.3865L29.8448 77.6064C30.1619 79.0126 30.6239 80.2579 31.2447 81.3264L32.1094 80.824ZM30.8203 77.3865L31.7958 77.1665C31.5162 75.9265 31.3711 74.4792 31.3711 72.8162H30.3711H29.3711C29.3711 74.5906 29.5255 76.1902 29.8448 77.6064L30.8203 77.3865ZM30.3711 72.8162H31.3711V67.8943H30.3711H29.3711V72.8162H30.3711ZM30.3711 67.8943H31.3711C31.3711 65.825 31.5925 64.0974 32.0127 62.6926L31.0547 62.406L30.0966 62.1194C29.6054 63.7615 29.3711 65.6928 29.3711 67.8943H30.3711ZM31.0547 62.406L32.0112 62.6978C32.4487 61.2635 33.0477 60.1399 33.783 59.2914L33.0273 58.6365L32.2717 57.9815C31.3143 59.0862 30.5981 60.4756 30.0982 62.1142L31.0547 62.406ZM33.0273 58.6365L33.7781 59.2971C34.5354 58.4365 35.4193 57.8157 36.4367 57.42L36.0742 56.488L35.7118 55.556C34.3854 56.0719 33.238 56.8833 32.2766 57.9758L33.0273 58.6365ZM36.0742 56.488L36.4456 57.4165C37.4845 57.0009 38.6584 56.7849 39.9805 56.7849V55.7849V54.7849C38.438 54.7849 37.0077 55.0376 35.7028 55.5596L36.0742 56.488ZM39.9805 55.7849V56.7849C41.0389 56.7849 42.0001 56.9231 42.8709 57.1902L43.1641 56.2341L43.4573 55.2781C42.3749 54.9462 41.2137 54.7849 39.9805 54.7849V55.7849ZM43.1641 56.2341L42.886 57.1947C43.7586 57.4473 44.5372 57.8405 45.2295 58.3739L45.8398 57.5818L46.4502 56.7896C45.5539 56.0991 44.5487 55.5939 43.4421 55.2736L43.1641 56.2341ZM45.8398 57.5818L45.2295 58.3739C45.9102 58.8984 46.5045 59.5836 47.0065 60.4475L47.8711 59.9451L48.7357 59.4427C48.1179 58.3795 47.3581 57.4892 46.4502 56.7896L45.8398 57.5818ZM47.8711 59.9451L47.0095 60.4526C47.5061 61.2957 47.9029 62.3333 48.1846 63.583L49.1602 63.363L50.1357 63.1431C49.8185 61.7365 49.3559 60.4955 48.7327 59.4375L47.8711 59.9451ZM49.1602 63.363L48.1851 63.5851C48.4643 64.8111 48.6094 66.2446 48.6094 67.8943H49.6094H50.6094C50.6094 66.1325 50.4549 64.5451 50.1352 63.141L49.1602 63.363ZM43.9648 73.5583H44.9648V67.1326H43.9648H42.9648V73.5583H43.9648ZM43.9648 67.1326H44.9648C44.9648 66.0685 44.9044 65.1176 44.7776 64.2865L43.7891 64.4373L42.8005 64.5881C42.9081 65.2934 42.9648 66.1393 42.9648 67.1326H43.9648ZM43.7891 64.4373L44.78 64.3029C44.6679 63.4763 44.4879 62.7364 44.2245 62.1011L43.3008 62.4841L42.377 62.8671C42.5563 63.2996 42.7019 63.8618 42.7981 64.5716L43.7891 64.4373ZM43.3008 62.4841L44.2277 62.1089C43.9703 61.4731 43.6346 60.9135 43.2013 60.4629L42.4805 61.156L41.7596 61.8491C41.9774 62.0756 42.1885 62.4015 42.3738 62.8593L43.3008 62.4841ZM42.4805 61.156L43.2013 60.4629C42.7781 60.0228 42.2826 59.6891 41.7183 59.4775L41.3672 60.4138L41.0161 61.3501C41.2852 61.4511 41.5318 61.6121 41.7596 61.8491L42.4805 61.156ZM41.3672 60.4138L41.7183 59.4775C41.1747 59.2736 40.5915 59.1794 39.9805 59.1794V60.1794V61.1794C40.3851 61.1794 40.7263 61.2415 41.0161 61.3501L41.3672 60.4138ZM39.9805 60.1794V59.1794C39.211 59.1794 38.4875 59.3294 37.834 59.6561L38.2812 60.5505L38.7285 61.445C39.0645 61.2769 39.4738 61.1794 39.9805 61.1794V60.1794ZM38.2812 60.5505L37.8244 59.661C37.1529 60.0058 36.6167 60.5434 36.2005 61.2156L37.0508 61.7419L37.901 62.2683C38.162 61.8468 38.4461 61.59 38.7381 61.4401L38.2812 60.5505ZM37.0508 61.7419L36.2063 61.2064C35.7801 61.8785 35.4861 62.7227 35.2895 63.6915L36.2695 63.8904L37.2496 64.0892C37.4176 63.2612 37.6444 62.6731 37.8953 62.2775L37.0508 61.7419ZM36.2695 63.8904L35.2873 63.7026C35.1025 64.6695 35.0156 65.8172 35.0156 67.1326H36.0156H37.0156C37.0156 65.8958 37.098 64.8821 37.2517 64.0782L36.2695 63.8904ZM36.0156 67.1326H35.0156V73.5583H36.0156H37.0156V67.1326H36.0156ZM36.0156 73.5583H35.0156C35.0156 74.6187 35.0692 75.5694 35.1806 76.4054L36.1719 76.2732L37.1631 76.141C37.0662 75.4145 37.0156 74.5553 37.0156 73.5583H36.0156ZM36.1719 76.2732L35.1829 76.4215C35.3081 77.256 35.4934 78.0041 35.7497 78.6526L36.6797 78.2849L37.6096 77.9173C37.4233 77.4459 37.27 76.8529 37.1608 76.1249L36.1719 76.2732ZM36.6797 78.2849L35.7605 78.6788C36.0266 79.2996 36.3526 79.847 36.7526 80.2969L37.5 79.6326L38.2474 78.9682C38.0224 78.715 37.8016 78.364 37.5988 77.891L36.6797 78.2849ZM37.5 79.6326L36.7792 80.3257C37.2023 80.7658 37.6979 81.0995 38.2622 81.3111L38.6133 80.3748L38.9644 79.4384C38.6953 79.3375 38.4487 79.1764 38.2208 78.9395L37.5 79.6326ZM38.6133 80.3748L38.2715 81.3145C38.8222 81.5148 39.408 81.6091 40.0195 81.6091V80.6091V79.6091C39.6154 79.6091 39.2637 79.5472 38.955 79.435L38.6133 80.3748ZM40.0195 80.6091V81.6091C40.7789 81.6091 41.493 81.458 42.1365 81.1276L41.6797 80.238L41.2229 79.3485C40.9028 79.5128 40.5102 79.6091 40.0195 79.6091V80.6091ZM41.6797 80.238L42.1454 81.123C42.8206 80.7676 43.3619 80.2289 43.78 79.5535L42.9297 79.0271L42.0794 78.5007C41.8204 78.9191 41.5284 79.1876 41.2139 79.3531L41.6797 80.238ZM42.9297 79.0271L43.7766 79.5589C44.2149 78.8608 44.5095 78.0024 44.6936 77.0247L43.7109 76.8396L42.7282 76.6544C42.5739 77.4737 42.3476 78.0736 42.0828 78.4953L42.9297 79.0271ZM43.7109 76.8396L44.6936 77.0247C44.878 76.0461 44.9648 74.8865 44.9648 73.5583H43.9648H42.9648C42.9648 74.8084 42.8824 75.8362 42.7282 76.6544L43.7109 76.8396Z" fill="#B3B3B3" mask="url(#path-7-outside-2_275_1130)"/>
</g>
<path d="M13.7055 5.22167C15.1993 5.44972 16.4638 6.58097 17.2847 8.2892C18.1045 9.99542 18.4643 12.2494 18.1544 14.6439C17.8445 17.0384 16.9264 19.0973 15.7051 20.4921C14.4824 21.8885 12.9798 22.5975 11.4859 22.3696C9.9919 22.1417 8.72663 21.0103 7.90576 19.3019C7.086 17.5957 6.7261 15.3416 7.03602 12.9473C7.34596 10.5529 8.26412 8.49383 9.48529 7.09906C10.7081 5.70252 12.2115 4.99369 13.7055 5.22167Z" fill="url(#paint3_linear_275_1130)" stroke="#171717" stroke-width="0.5"/>
<mask id="path-10-outside-3_275_1130" maskUnits="userSpaceOnUse" x="9.76465" y="9.13135" width="5" height="8" fill="black">
<rect fill="white" x="9.76465" y="9.13135" width="5" height="8"/>
<path d="M14.0321 12.7798L13.8759 13.7876C13.8394 14.061 13.7769 14.341 13.6884 14.6274C13.5998 14.9139 13.4787 15.1795 13.3251 15.4243C13.174 15.6665 12.9826 15.8605 12.7509 16.0063C12.5191 16.1522 12.2365 16.2199 11.9032 16.2095C11.6506 16.2043 11.4397 16.1496 11.2704 16.0454C11.1037 15.9386 10.9696 15.8006 10.868 15.6313C10.7691 15.4595 10.6975 15.2694 10.6532 15.061C10.6089 14.8527 10.5855 14.6392 10.5829 14.4204C10.5803 14.1991 10.5907 13.9894 10.6141 13.7915L10.7704 12.7798C10.8095 12.5063 10.872 12.2277 10.9579 11.9438C11.0464 11.6574 11.1675 11.3931 11.3212 11.1509C11.4748 10.9061 11.6675 10.7121 11.8993 10.5688C12.1311 10.423 12.4136 10.3553 12.747 10.3657C12.9996 10.3709 13.2092 10.4269 13.3759 10.5337C13.5451 10.6379 13.6792 10.7759 13.7782 10.9478C13.8772 11.117 13.9488 11.3058 13.993 11.5142C14.0373 11.7225 14.0608 11.936 14.0634 12.1548C14.066 12.3735 14.0555 12.5819 14.0321 12.7798ZM12.7001 13.9517L12.8954 12.6118C12.9006 12.5571 12.9097 12.4803 12.9227 12.3813C12.9384 12.2824 12.9488 12.1743 12.954 12.0571C12.9618 11.9373 12.9592 11.8228 12.9462 11.7134C12.9358 11.604 12.9071 11.5129 12.8602 11.4399C12.8134 11.367 12.7417 11.328 12.6454 11.3228C12.5022 11.3123 12.3863 11.3553 12.2977 11.4517C12.2118 11.5454 12.1454 11.6665 12.0985 11.8149C12.0516 11.9608 12.0178 12.1079 11.997 12.2563C11.9761 12.4048 11.9605 12.5233 11.9501 12.6118L11.7548 13.9517C11.7496 14.0011 11.7391 14.0767 11.7235 14.1782C11.7105 14.2772 11.7001 14.3866 11.6923 14.5063C11.6845 14.6261 11.6858 14.742 11.6962 14.854C11.7092 14.9634 11.7391 15.0558 11.786 15.1313C11.8329 15.2043 11.9045 15.2446 12.0009 15.2524C12.1441 15.2629 12.2587 15.2199 12.3446 15.1235C12.4332 15.0272 12.5009 14.9048 12.5477 14.7563C12.5946 14.6079 12.6285 14.4595 12.6493 14.311C12.6701 14.16 12.6871 14.0402 12.7001 13.9517Z"/>
</mask>
<path d="M14.0321 12.7798L13.8759 13.7876C13.8394 14.061 13.7769 14.341 13.6884 14.6274C13.5998 14.9139 13.4787 15.1795 13.3251 15.4243C13.174 15.6665 12.9826 15.8605 12.7509 16.0063C12.5191 16.1522 12.2365 16.2199 11.9032 16.2095C11.6506 16.2043 11.4397 16.1496 11.2704 16.0454C11.1037 15.9386 10.9696 15.8006 10.868 15.6313C10.7691 15.4595 10.6975 15.2694 10.6532 15.061C10.6089 14.8527 10.5855 14.6392 10.5829 14.4204C10.5803 14.1991 10.5907 13.9894 10.6141 13.7915L10.7704 12.7798C10.8095 12.5063 10.872 12.2277 10.9579 11.9438C11.0464 11.6574 11.1675 11.3931 11.3212 11.1509C11.4748 10.9061 11.6675 10.7121 11.8993 10.5688C12.1311 10.423 12.4136 10.3553 12.747 10.3657C12.9996 10.3709 13.2092 10.4269 13.3759 10.5337C13.5451 10.6379 13.6792 10.7759 13.7782 10.9478C13.8772 11.117 13.9488 11.3058 13.993 11.5142C14.0373 11.7225 14.0608 11.936 14.0634 12.1548C14.066 12.3735 14.0555 12.5819 14.0321 12.7798ZM12.7001 13.9517L12.8954 12.6118C12.9006 12.5571 12.9097 12.4803 12.9227 12.3813C12.9384 12.2824 12.9488 12.1743 12.954 12.0571C12.9618 11.9373 12.9592 11.8228 12.9462 11.7134C12.9358 11.604 12.9071 11.5129 12.8602 11.4399C12.8134 11.367 12.7417 11.328 12.6454 11.3228C12.5022 11.3123 12.3863 11.3553 12.2977 11.4517C12.2118 11.5454 12.1454 11.6665 12.0985 11.8149C12.0516 11.9608 12.0178 12.1079 11.997 12.2563C11.9761 12.4048 11.9605 12.5233 11.9501 12.6118L11.7548 13.9517C11.7496 14.0011 11.7391 14.0767 11.7235 14.1782C11.7105 14.2772 11.7001 14.3866 11.6923 14.5063C11.6845 14.6261 11.6858 14.742 11.6962 14.854C11.7092 14.9634 11.7391 15.0558 11.786 15.1313C11.8329 15.2043 11.9045 15.2446 12.0009 15.2524C12.1441 15.2629 12.2587 15.2199 12.3446 15.1235C12.4332 15.0272 12.5009 14.9048 12.5477 14.7563C12.5946 14.6079 12.6285 14.4595 12.6493 14.311C12.6701 14.16 12.6871 14.0402 12.7001 13.9517Z" fill="#171717"/>
<path d="M14.0321 12.7798L14.3288 12.8258L14.33 12.8151L14.0321 12.7798ZM13.8759 13.7876L13.5793 13.7416L13.5785 13.7479L13.8759 13.7876ZM13.3251 15.4243L13.071 15.2648L13.0705 15.2656L13.3251 15.4243ZM11.9032 16.2095L11.9126 15.9096L11.9094 15.9095L11.9032 16.2095ZM11.2704 16.0454L11.1085 16.2981L11.1132 16.3009L11.2704 16.0454ZM10.868 15.6313L10.608 15.7811L10.6108 15.7857L10.868 15.6313ZM10.6532 15.061L10.3598 15.1234L10.6532 15.061ZM10.5829 14.4204L10.2829 14.4239L10.2829 14.424L10.5829 14.4204ZM10.6141 13.7915L10.3175 13.7457L10.3162 13.7562L10.6141 13.7915ZM10.7704 12.7798L11.0669 12.8256L11.0674 12.8222L10.7704 12.7798ZM10.9579 11.9438L10.6713 11.8553L10.6708 11.8569L10.9579 11.9438ZM11.3212 11.1509L11.5745 11.3116L11.5753 11.3104L11.3212 11.1509ZM11.8993 10.5688L12.057 10.8241L12.0591 10.8228L11.8993 10.5688ZM12.747 10.3657L12.7376 10.6656L12.7408 10.6657L12.747 10.3657ZM13.3759 10.5337L13.214 10.7863L13.2186 10.7892L13.3759 10.5337ZM13.7782 10.9478L13.5182 11.0974L13.5192 11.0992L13.7782 10.9478ZM12.7001 13.9517L12.9969 13.9953L12.9969 13.9949L12.7001 13.9517ZM12.8954 12.6118L13.1923 12.6551L13.1933 12.6477L13.194 12.6403L12.8954 12.6118ZM12.9227 12.3813L12.6263 12.3345L12.6253 12.3422L12.9227 12.3813ZM12.954 12.0571L12.6546 12.0376L12.6543 12.0438L12.954 12.0571ZM12.9462 11.7134L12.6474 11.7418L12.6483 11.7488L12.9462 11.7134ZM12.6454 11.3228L12.6236 11.622L12.6292 11.6223L12.6454 11.3228ZM12.2977 11.4517L12.0768 11.2487L12.0766 11.2489L12.2977 11.4517ZM12.0985 11.8149L12.3841 11.9067L12.3846 11.9053L12.0985 11.8149ZM11.9501 12.6118L12.2471 12.6551L12.248 12.6469L11.9501 12.6118ZM11.7548 13.9517L11.4577 13.9084L11.4564 13.9203L11.7548 13.9517ZM11.7235 14.1782L11.4269 14.1326L11.4261 14.1391L11.7235 14.1782ZM11.6962 14.854L11.3974 14.8818L11.3983 14.8895L11.6962 14.854ZM11.786 15.1313L11.5311 15.2896L11.5337 15.2936L11.786 15.1313ZM12.0009 15.2524L11.9766 15.5515L11.9791 15.5517L12.0009 15.2524ZM12.3446 15.1235L12.1237 14.9205L12.1207 14.9239L12.3446 15.1235ZM12.6493 14.311L12.9464 14.3527L12.9465 14.352L12.6493 14.311ZM14.0321 12.7798L13.7357 12.7338L13.5794 13.7416L13.8759 13.7876L14.1723 13.8336L14.3286 12.8257L14.0321 12.7798ZM13.8759 13.7876L13.5785 13.7479C13.5444 14.0034 13.4858 14.267 13.4017 14.5388L13.6884 14.6274L13.975 14.716C14.068 14.415 14.1344 14.1186 14.1732 13.8272L13.8759 13.7876ZM13.6884 14.6274L13.4017 14.5388C13.3206 14.8013 13.2102 15.043 13.071 15.2648L13.3251 15.4243L13.5792 15.5838C13.7472 15.3161 13.879 15.0265 13.975 14.716L13.6884 14.6274ZM13.3251 15.4243L13.0705 15.2656C12.9424 15.4709 12.7828 15.6318 12.5911 15.7524L12.7509 16.0063L12.9106 16.2603C13.1824 16.0893 13.4056 15.8621 13.5796 15.5831L13.3251 15.4243ZM12.7509 16.0063L12.5911 15.7524C12.42 15.8601 12.1994 15.9186 11.9126 15.9096L11.9032 16.2095L11.8938 16.5093C12.2737 16.5212 12.6182 16.4443 12.9106 16.2603L12.7509 16.0063ZM11.9032 16.2095L11.9094 15.9095C11.6959 15.9051 11.5406 15.8595 11.4276 15.7899L11.2704 16.0454L11.1132 16.3009C11.3387 16.4397 11.6053 16.5034 11.897 16.5094L11.9032 16.2095ZM11.2704 16.0454L11.4322 15.7928C11.3044 15.7109 11.203 15.6065 11.1253 15.477L10.868 15.6313L10.6108 15.7857C10.7362 15.9948 10.903 16.1664 11.1086 16.298L11.2704 16.0454ZM10.868 15.6313L11.128 15.4817C11.0458 15.3389 10.9849 15.1786 10.9467 14.9987L10.6532 15.061L10.3598 15.1234C10.4101 15.3601 10.4923 15.58 10.6081 15.781L10.868 15.6313ZM10.6532 15.061L10.9467 14.9987C10.9066 14.8102 10.8852 14.6164 10.8829 14.4168L10.5829 14.4204L10.2829 14.424C10.2857 14.662 10.3113 14.8952 10.3598 15.1234L10.6532 15.061ZM10.5829 14.4204L10.8829 14.4169C10.8804 14.2071 10.8903 14.0105 10.9121 13.8268L10.6141 13.7915L10.3162 13.7562C10.2911 13.9683 10.2802 14.191 10.2829 14.4239L10.5829 14.4204ZM10.6141 13.7915L10.9106 13.8373L11.0669 12.8256L10.7704 12.7798L10.4739 12.734L10.3177 13.7457L10.6141 13.7915ZM10.7704 12.7798L11.0674 12.8222C11.1041 12.5649 11.1632 12.3011 11.245 12.0308L10.9579 11.9438L10.6708 11.8569C10.5807 12.1543 10.5148 12.4478 10.4734 12.7374L10.7704 12.7798ZM10.9579 11.9438L11.2445 12.0324C11.3256 11.7702 11.4357 11.5303 11.5745 11.3116L11.3212 11.1509L11.0679 10.9902C10.8993 11.2558 10.7673 11.5445 10.6713 11.8553L10.9579 11.9438ZM11.3212 11.1509L11.5753 11.3104C11.706 11.102 11.8666 10.9417 12.057 10.824L11.8993 10.5688L11.7416 10.3136C11.4684 10.4824 11.2436 10.7102 11.0671 10.9914L11.3212 11.1509ZM11.8993 10.5688L12.0591 10.8228C12.2302 10.7151 12.4508 10.6566 12.7376 10.6656L12.747 10.3657L12.7563 10.0659C12.3765 10.054 12.0319 10.1309 11.7395 10.3149L11.8993 10.5688ZM12.747 10.3657L12.7408 10.6657C12.9532 10.67 13.1051 10.7165 13.214 10.7863L13.3759 10.5337L13.5377 10.2811C13.3133 10.1373 13.0459 10.0718 12.7531 10.0658L12.747 10.3657ZM13.3759 10.5337L13.2186 10.7892C13.3455 10.8672 13.4442 10.9689 13.5182 11.0974L13.7782 10.9478L14.0382 10.7981C13.9143 10.5828 13.7448 10.4085 13.5331 10.2782L13.3759 10.5337ZM13.7782 10.9478L13.5192 11.0992C13.6007 11.2385 13.6614 11.3968 13.6996 11.5765L13.993 11.5142L14.2865 11.4518C14.2361 11.2148 14.1537 10.9956 14.0372 10.7963L13.7782 10.9478ZM13.993 11.5142L13.6996 11.5765C13.7397 11.765 13.761 11.9588 13.7634 12.1584L14.0634 12.1548L14.3633 12.1512C14.3605 11.9132 14.335 11.68 14.2865 11.4518L13.993 11.5142ZM14.0634 12.1548L13.7634 12.1584C13.7658 12.3654 13.756 12.5607 13.7342 12.7445L14.0321 12.7798L14.33 12.8151C14.3551 12.6031 14.3661 12.3817 14.3633 12.1512L14.0634 12.1548ZM12.7001 13.9517L12.9969 13.9949L13.1923 12.6551L12.8954 12.6118L12.5985 12.5685L12.4032 13.9084L12.7001 13.9517ZM12.8954 12.6118L13.194 12.6403C13.1987 12.5909 13.2073 12.5182 13.2202 12.4205L12.9227 12.3813L12.6253 12.3422C12.6121 12.4424 12.6025 12.5233 12.5967 12.5834L12.8954 12.6118ZM12.9227 12.3813L13.2191 12.4281C13.2367 12.3164 13.2481 12.197 13.2537 12.0704L12.954 12.0571L12.6543 12.0438C12.6495 12.1516 12.64 12.2484 12.6264 12.3346L12.9227 12.3813ZM12.954 12.0571L13.2534 12.0767C13.2623 11.9401 13.2594 11.8071 13.2441 11.6779L12.9462 11.7134L12.6483 11.7488C12.6589 11.8384 12.6613 11.9345 12.6546 12.0376L12.954 12.0571ZM12.9462 11.7134L13.2448 11.6849C13.2311 11.5403 13.1913 11.4002 13.1126 11.2777L12.8602 11.4399L12.6079 11.6022C12.6229 11.6255 12.6405 11.6677 12.6475 11.7418L12.9462 11.7134ZM12.8602 11.4399L13.1126 11.2777C13.0071 11.1137 12.8415 11.0329 12.6616 11.0232L12.6454 11.3228L12.6292 11.6223C12.6408 11.6229 12.6377 11.6248 12.6277 11.6193C12.623 11.6167 12.6184 11.6134 12.6144 11.6096C12.6105 11.606 12.6085 11.6031 12.6079 11.6022L12.8602 11.4399ZM12.6454 11.3228L12.6672 11.0235C12.4428 11.0072 12.2339 11.0777 12.0768 11.2487L12.2977 11.4517L12.5186 11.6546C12.5386 11.6329 12.5616 11.6174 12.6236 11.622L12.6454 11.3228ZM12.2977 11.4517L12.0766 11.2489C11.9552 11.3814 11.8696 11.5436 11.8124 11.7246L12.0985 11.8149L12.3846 11.9053C12.4212 11.7894 12.4684 11.7095 12.5189 11.6544L12.2977 11.4517ZM12.0985 11.8149L11.8129 11.7231C11.7609 11.885 11.7231 12.0488 11.6999 12.2147L11.997 12.2563L12.294 12.298C12.3124 12.167 12.3424 12.0366 12.3841 11.9067L12.0985 11.8149ZM11.997 12.2563L11.6999 12.2147C11.6789 12.364 11.6629 12.485 11.6521 12.5768L11.9501 12.6118L12.248 12.6469C12.2581 12.5615 12.2733 12.4455 12.294 12.298L11.997 12.2563ZM11.9501 12.6118L11.6532 12.5685L11.4579 13.9084L11.7548 13.9517L12.0516 13.9949L12.2469 12.6551L11.9501 12.6118ZM11.7548 13.9517L11.4564 13.9203C11.452 13.9623 11.4425 14.0319 11.427 14.1326L11.7235 14.1782L12.02 14.2238C12.0358 14.1214 12.0471 14.04 12.0531 13.9831L11.7548 13.9517ZM11.7235 14.1782L11.4261 14.1391C11.4121 14.2457 11.4011 14.3617 11.3929 14.4868L11.6923 14.5063L11.9916 14.5259C11.9991 14.4114 12.0089 14.3087 12.021 14.2174L11.7235 14.1782ZM11.6923 14.5063L11.3929 14.4868C11.3841 14.6213 11.3855 14.7531 11.3975 14.8818L11.6962 14.854L11.9949 14.8262C11.986 14.731 11.9848 14.6309 11.9916 14.5259L11.6923 14.5063ZM11.6962 14.854L11.3983 14.8895C11.4153 15.0322 11.4563 15.1689 11.5311 15.2896L11.786 15.1313L12.0409 14.9731C12.022 14.9427 12.0031 14.8945 11.9941 14.8185L11.6962 14.854ZM11.786 15.1313L11.5337 15.2936C11.6374 15.455 11.7994 15.5371 11.9766 15.5515L12.0009 15.2524L12.0251 14.9534C12.0127 14.9524 12.0141 14.9504 12.0222 14.955C12.026 14.9571 12.0298 14.9599 12.0331 14.9631C12.0364 14.9662 12.038 14.9686 12.0384 14.9691L11.786 15.1313ZM12.0009 15.2524L11.9791 15.5517C12.2033 15.568 12.413 15.4976 12.5685 15.3232L12.3446 15.1235L12.1207 14.9239C12.1043 14.9422 12.0849 14.9578 12.0226 14.9532L12.0009 15.2524ZM12.3446 15.1235L12.5655 15.3265C12.6889 15.1923 12.7762 15.0292 12.8338 14.8467L12.5477 14.7563L12.2617 14.666C12.2255 14.7804 12.1774 14.8621 12.1237 14.9205L12.3446 15.1235ZM12.5477 14.7563L12.8338 14.8467C12.8855 14.683 12.9232 14.5183 12.9464 14.3527L12.6493 14.311L12.3522 14.2693C12.3338 14.4007 12.3037 14.5328 12.2617 14.666L12.5477 14.7563ZM12.6493 14.311L12.9465 14.352C12.9673 14.2013 12.9841 14.0826 12.9969 13.9953L12.7001 13.9517L12.4033 13.908C12.3901 13.9978 12.373 14.1186 12.3521 14.27L12.6493 14.311Z" fill="#B3B3B3" mask="url(#path-10-outside-3_275_1130)"/>
<defs>
<filter id="filter0_d_275_1130" x="8.67651" y="25.0474" width="61.7059" height="101.993" filterUnits="userSpaceOnUse" color-interpolation-filters="sRGB">
<feFlood flood-opacity="0" result="BackgroundImageFix"/>
<feColorMatrix in="SourceAlpha" type="matrix" values="0 0 0 0 0 0 0 0 0 0 0 0 0 0 0 0 0 0 127 0" result="hardAlpha"/>
<feOffset dy="4"/>
<feGaussianBlur stdDeviation="2"/>
<feComposite in2="hardAlpha" operator="out"/>
<feColorMatrix type="matrix" values="0 0 0 0 0 0 0 0 0 0 0 0 0 0 0 0 0 0 0.25 0"/>
<feBlend mode="normal" in2="BackgroundImageFix" result="effect1_dropShadow_275_1130"/>
<feBlend mode="normal" in="SourceGraphic" in2="effect1_dropShadow_275_1130" result="shape"/>
</filter>
<filter id="filter1_d_275_1130" x="25.3711" y="54.7849" width="29.2383" height="39.2188" filterUnits="userSpaceOnUse" color-interpolation-filters="sRGB">
<feFlood flood-opacity="0" result="BackgroundImageFix"/>
<feColorMatrix in="SourceAlpha" type="matrix" values="0 0 0 0 0 0 0 0 0 0 0 0 0 0 0 0 0 0 127 0" result="hardAlpha"/>
<feOffset dy="4"/>
<feGaussianBlur stdDeviation="2"/>
<feComposite in2="hardAlpha" operator="out"/>
<feColorMatrix type="matrix" values="0 0 0 0 0.668269 0 0 0 0 0.668269 0 0 0 0 0.668269 0 0 0 0.59 0"/>
<feBlend mode="normal" in2="BackgroundImageFix" result="effect1_dropShadow_275_1130"/>
<feBlend mode="normal" in="SourceGraphic" in2="effect1_dropShadow_275_1130" result="shape"/>
</filter>
<linearGradient id="paint0_linear_275_1130" x1="39.9999" y1="3.06567" x2="39.9999" y2="136.934" gradientUnits="userSpaceOnUse">
<stop stop-color="#3F3F3F" stop-opacity="0.95"/>
<stop offset="1" stop-color="#313131"/>
</linearGradient>
<linearGradient id="paint1_linear_275_1130" x1="66.4434" y1="115.339" x2="63.7603" y2="132.922" gradientUnits="userSpaceOnUse">
<stop stop-color="#CCCCCC"/>
<stop offset="1" stop-color="#666666"/>
</linearGradient>
<linearGradient id="paint2_linear_275_1130" x1="39.5295" y1="25.5474" x2="39.5295" y2="118.54" gradientUnits="userSpaceOnUse">
<stop stop-color="#828282"/>
<stop offset="0.465308" stop-color="#626262"/>
<stop offset="0.86711" stop-color="#2F2F2F"/>
</linearGradient>
<linearGradient id="paint3_linear_275_1130" x1="13.7373" y1="4.97369" x2="11.0543" y2="22.5567" gradientUnits="userSpaceOnUse">
<stop stop-color="#CCCCCC"/>
<stop offset="1" stop-color="#666666"/>
</linearGradient>
</defs>
</svg>
