<svg width="80" height="140" viewBox="0 0 80 140" fill="none" xmlns="http://www.w3.org/2000/svg">
<rect x="0.5" y="0.5" width="79" height="139" rx="9.5" fill="white" stroke="black"/>
<rect x="4.26465" y="3.56567" width="71.4706" height="132.869" rx="9.5" fill="url(#paint0_linear_275_550)" stroke="black"/>
<path d="M66.4114 115.587C67.9053 115.815 69.1698 116.946 69.9906 118.654C70.8104 120.36 71.1702 122.614 70.8603 125.009C70.5504 127.403 69.6323 129.462 68.4111 130.857C67.1884 132.254 65.6857 132.962 64.1918 132.735C62.6978 132.507 61.4326 131.375 60.6117 129.667C59.7919 127.961 59.432 125.707 59.742 123.312C60.0519 120.918 60.97 118.859 62.1912 117.464C63.414 116.068 64.9175 115.359 66.4114 115.587Z" fill="url(#paint1_linear_275_550)" stroke="#6B0092" stroke-width="0.5"/>
<mask id="path-4-outside-1_275_550" maskUnits="userSpaceOnUse" x="62.729" y="120.934" width="5" height="8" fill="black">
<rect fill="white" x="62.729" y="120.934" width="5" height="8"/>
<path d="M63.7054 123.532C63.7263 123.199 63.8161 122.904 63.975 122.649C64.1312 122.394 64.3409 122.195 64.6039 122.052C64.8669 121.911 65.1664 121.844 65.5023 121.852C65.8122 121.86 66.0791 121.934 66.3031 122.075C66.5245 122.216 66.6885 122.406 66.7953 122.645C66.9021 122.885 66.9463 123.158 66.9281 123.466C66.9125 123.708 66.8552 123.928 66.7562 124.126C66.6573 124.326 66.5258 124.499 66.3617 124.645C66.1976 124.794 66.0101 124.906 65.7992 124.981C65.5883 125.059 65.363 125.096 65.1234 125.091C64.8239 125.083 64.5648 125.011 64.3461 124.876C64.1273 124.74 63.9607 124.557 63.8461 124.325C63.7315 124.093 63.6846 123.829 63.7054 123.532ZM64.8461 123.622C64.833 123.71 64.8291 123.812 64.8344 123.927C64.8396 124.044 64.8669 124.147 64.9164 124.235C64.9633 124.324 65.0492 124.369 65.1742 124.372C65.3122 124.374 65.4216 124.33 65.5023 124.239C65.5804 124.15 65.639 124.041 65.6781 123.911C65.7146 123.783 65.738 123.666 65.7484 123.559C65.7562 123.471 65.7575 123.368 65.7523 123.251C65.7471 123.136 65.7198 123.035 65.6703 122.946C65.6208 122.86 65.5336 122.816 65.4086 122.813C65.2705 122.811 65.1625 122.854 65.0844 122.942C65.0062 123.033 64.9489 123.143 64.9125 123.27C64.876 123.398 64.8539 123.515 64.8461 123.622ZM63.3304 126.137C63.3487 125.838 63.4359 125.572 63.5922 125.341C63.7458 125.111 63.9476 124.933 64.1976 124.805C64.4476 124.678 64.7211 124.617 65.0179 124.622C65.2914 124.63 65.5336 124.696 65.7445 124.821C65.9554 124.946 66.1169 125.115 66.2289 125.329C66.3409 125.545 66.3877 125.792 66.3695 126.071C66.3539 126.389 66.2719 126.671 66.1234 126.919C65.975 127.169 65.7771 127.364 65.5297 127.505C65.2797 127.648 64.9919 127.716 64.6664 127.708C64.3643 127.7 64.1104 127.626 63.9047 127.485C63.6989 127.347 63.5479 127.161 63.4515 126.927C63.3526 126.692 63.3122 126.429 63.3304 126.137ZM64.5062 126.071C64.501 126.144 64.4971 126.233 64.4945 126.337C64.4919 126.443 64.5088 126.537 64.5453 126.618C64.5817 126.701 64.6547 126.744 64.764 126.747C64.8864 126.749 64.9789 126.708 65.0414 126.622C65.1039 126.536 65.1495 126.436 65.1781 126.321C65.2041 126.206 65.2211 126.105 65.2289 126.016C65.2367 125.943 65.2419 125.852 65.2445 125.743C65.2445 125.636 65.2263 125.54 65.1898 125.454C65.1534 125.368 65.0791 125.325 64.9672 125.325C64.8448 125.322 64.7523 125.364 64.6898 125.45C64.6247 125.538 64.5804 125.643 64.557 125.762C64.531 125.882 64.514 125.985 64.5062 126.071Z"/>
</mask>
<path d="M63.7054 123.532C63.7263 123.199 63.8161 122.904 63.975 122.649C64.1312 122.394 64.3409 122.195 64.6039 122.052C64.8669 121.911 65.1664 121.844 65.5023 121.852C65.8122 121.86 66.0791 121.934 66.3031 122.075C66.5245 122.216 66.6885 122.406 66.7953 122.645C66.9021 122.885 66.9463 123.158 66.9281 123.466C66.9125 123.708 66.8552 123.928 66.7562 124.126C66.6573 124.326 66.5258 124.499 66.3617 124.645C66.1976 124.794 66.0101 124.906 65.7992 124.981C65.5883 125.059 65.363 125.096 65.1234 125.091C64.8239 125.083 64.5648 125.011 64.3461 124.876C64.1273 124.74 63.9607 124.557 63.8461 124.325C63.7315 124.093 63.6846 123.829 63.7054 123.532ZM64.8461 123.622C64.833 123.71 64.8291 123.812 64.8344 123.927C64.8396 124.044 64.8669 124.147 64.9164 124.235C64.9633 124.324 65.0492 124.369 65.1742 124.372C65.3122 124.374 65.4216 124.33 65.5023 124.239C65.5804 124.15 65.639 124.041 65.6781 123.911C65.7146 123.783 65.738 123.666 65.7484 123.559C65.7562 123.471 65.7575 123.368 65.7523 123.251C65.7471 123.136 65.7198 123.035 65.6703 122.946C65.6208 122.86 65.5336 122.816 65.4086 122.813C65.2705 122.811 65.1625 122.854 65.0844 122.942C65.0062 123.033 64.9489 123.143 64.9125 123.27C64.876 123.398 64.8539 123.515 64.8461 123.622ZM63.3304 126.137C63.3487 125.838 63.4359 125.572 63.5922 125.341C63.7458 125.111 63.9476 124.933 64.1976 124.805C64.4476 124.678 64.7211 124.617 65.0179 124.622C65.2914 124.63 65.5336 124.696 65.7445 124.821C65.9554 124.946 66.1169 125.115 66.2289 125.329C66.3409 125.545 66.3877 125.792 66.3695 126.071C66.3539 126.389 66.2719 126.671 66.1234 126.919C65.975 127.169 65.7771 127.364 65.5297 127.505C65.2797 127.648 64.9919 127.716 64.6664 127.708C64.3643 127.7 64.1104 127.626 63.9047 127.485C63.6989 127.347 63.5479 127.161 63.4515 126.927C63.3526 126.692 63.3122 126.429 63.3304 126.137ZM64.5062 126.071C64.501 126.144 64.4971 126.233 64.4945 126.337C64.4919 126.443 64.5088 126.537 64.5453 126.618C64.5817 126.701 64.6547 126.744 64.764 126.747C64.8864 126.749 64.9789 126.708 65.0414 126.622C65.1039 126.536 65.1495 126.436 65.1781 126.321C65.2041 126.206 65.2211 126.105 65.2289 126.016C65.2367 125.943 65.2419 125.852 65.2445 125.743C65.2445 125.636 65.2263 125.54 65.1898 125.454C65.1534 125.368 65.0791 125.325 64.9672 125.325C64.8448 125.322 64.7523 125.364 64.6898 125.45C64.6247 125.538 64.5804 125.643 64.557 125.762C64.531 125.882 64.514 125.985 64.5062 126.071Z" fill="#BE00E9"/>
<path d="M63.7054 123.532L64.0047 123.553L64.0049 123.551L63.7054 123.532ZM63.975 122.649L64.2297 122.808L64.2308 122.806L63.975 122.649ZM64.6039 122.052L64.4624 121.787L64.4604 121.788L64.6039 122.052ZM65.5023 121.852L65.5099 121.552L65.5093 121.552L65.5023 121.852ZM66.3031 122.075L66.464 121.822L66.4626 121.821L66.3031 122.075ZM66.7953 122.645L67.0693 122.523L66.7953 122.645ZM66.9281 123.466L67.2275 123.485L67.2276 123.483L66.9281 123.466ZM66.7562 124.126L66.4879 123.992L66.4872 123.993L66.7562 124.126ZM66.3617 124.645L66.1624 124.421L66.1604 124.423L66.3617 124.645ZM65.7992 124.981L65.6981 124.699L65.695 124.7L65.7992 124.981ZM65.1234 125.091L65.1156 125.39L65.1169 125.391L65.1234 125.091ZM64.8461 123.622L65.1429 123.665L65.1445 123.655L65.1453 123.644L64.8461 123.622ZM64.8344 123.927L65.1341 123.913L65.134 123.913L64.8344 123.927ZM64.9164 124.235L65.1816 124.095L65.1783 124.089L64.9164 124.235ZM65.1742 124.372L65.1679 124.672L65.1685 124.672L65.1742 124.372ZM65.5023 124.239L65.7269 124.438L65.7273 124.438L65.5023 124.239ZM65.6781 123.911L65.9655 123.997L65.9666 123.993L65.6781 123.911ZM65.7484 123.559L66.047 123.588L66.0473 123.586L65.7484 123.559ZM65.7523 123.251L66.052 123.237L66.052 123.237L65.7523 123.251ZM65.6703 122.946L65.9322 122.8L65.9303 122.796L65.6703 122.946ZM65.4086 122.813L65.4148 122.513L65.4142 122.513L65.4086 122.813ZM65.0844 122.942L64.8594 122.744L64.8566 122.747L65.0844 122.942ZM63.3304 126.137L63.6299 126.156L63.6299 126.156L63.3304 126.137ZM63.5922 125.341L63.8409 125.508L63.8413 125.508L63.5922 125.341ZM65.0179 124.622L65.0265 124.322L65.0232 124.322L65.0179 124.622ZM66.2289 125.329L66.4953 125.191L66.4946 125.19L66.2289 125.329ZM66.3695 126.071L66.0701 126.051L66.0699 126.056L66.3695 126.071ZM66.1234 126.919L65.8662 126.764L65.8655 126.766L66.1234 126.919ZM65.5297 127.505L65.3814 127.244L65.3805 127.244L65.5297 127.505ZM64.6664 127.708L64.6586 128.008L64.6592 128.008L64.6664 127.708ZM63.9047 127.485L64.074 127.237L64.0718 127.236L63.9047 127.485ZM63.4515 126.927L63.729 126.812L63.7279 126.81L63.4515 126.927ZM64.5062 126.071L64.2074 126.044L64.207 126.05L64.5062 126.071ZM64.4945 126.337L64.1946 126.329L64.1946 126.329L64.4945 126.337ZM64.5453 126.618L64.8202 126.498L64.8187 126.494L64.5453 126.618ZM64.764 126.747L64.7569 127.047L64.7577 127.047L64.764 126.747ZM65.1781 126.321L65.4692 126.394L65.4706 126.388L65.1781 126.321ZM65.2289 126.016L64.9305 125.984L64.93 125.99L65.2289 126.016ZM65.2445 125.743L65.5445 125.75V125.743H65.2445ZM65.1898 125.454L65.466 125.337L65.1898 125.454ZM64.9672 125.325L64.9608 125.625H64.9672V125.325ZM64.6898 125.45L64.9315 125.628L64.9324 125.626L64.6898 125.45ZM64.557 125.762L64.8502 125.826L64.8514 125.82L64.557 125.762ZM63.7054 123.532L64.0049 123.551C64.0229 123.261 64.0999 123.016 64.2297 122.808L63.975 122.649L63.7203 122.491C63.5324 122.793 63.4296 123.136 63.406 123.513L63.7054 123.532ZM63.975 122.649L64.2308 122.806C64.3596 122.595 64.5305 122.433 64.7474 122.315L64.6039 122.052L64.4604 121.788C64.1513 121.956 63.9028 122.192 63.7191 122.493L63.975 122.649ZM64.6039 122.052L64.7453 122.316C64.9572 122.203 65.2044 122.145 65.4953 122.152L65.5023 121.852L65.5093 121.552C65.1283 121.544 64.7766 121.619 64.4624 121.787L64.6039 122.052ZM65.5023 121.852L65.4948 122.152C65.7602 122.159 65.9726 122.222 66.1436 122.329L66.3031 122.075L66.4626 121.821C66.1857 121.647 65.8643 121.561 65.5099 121.552L65.5023 121.852ZM66.3031 122.075L66.1422 122.328C66.3138 122.437 66.4385 122.582 66.5213 122.767L66.7953 122.645L67.0693 122.523C66.9385 122.23 66.7351 121.994 66.464 121.822L66.3031 122.075ZM66.7953 122.645L66.5213 122.767C66.6053 122.956 66.6445 123.18 66.6286 123.448L66.9281 123.466L67.2276 123.483C67.2482 123.136 67.1988 122.814 67.0693 122.523L66.7953 122.645ZM66.9281 123.466L66.6287 123.446C66.6154 123.652 66.5673 123.833 66.4879 123.992L66.7562 124.126L67.0246 124.26C67.1431 124.023 67.2095 123.763 67.2275 123.485L66.9281 123.466ZM66.7562 124.126L66.4872 123.993C66.405 124.159 66.297 124.301 66.1624 124.421L66.3617 124.645L66.561 124.869C66.7545 124.697 66.9095 124.493 67.0252 124.258L66.7562 124.126ZM66.3617 124.645L66.1604 124.423C66.0259 124.545 65.8725 124.636 65.6981 124.699L65.7992 124.981L65.9003 125.264C66.1478 125.175 66.3694 125.043 66.563 124.868L66.3617 124.645ZM65.7992 124.981L65.695 124.7C65.5217 124.764 65.3343 124.795 65.1299 124.791L65.1234 125.091L65.1169 125.391C65.3917 125.396 65.6548 125.355 65.9034 125.263L65.7992 124.981ZM65.1234 125.091L65.1312 124.791C64.876 124.784 64.6706 124.724 64.504 124.621L64.3461 124.876L64.1882 125.131C64.4591 125.299 64.7718 125.382 65.1156 125.39L65.1234 125.091ZM64.3461 124.876L64.504 124.621C64.3332 124.515 64.2049 124.374 64.115 124.192L63.8461 124.325L63.5771 124.458C63.7165 124.74 63.9215 124.966 64.1882 125.131L64.3461 124.876ZM63.8461 124.325L64.115 124.192C64.0274 124.015 63.987 123.805 64.0047 123.553L63.7054 123.532L63.4062 123.511C63.3822 123.853 63.4356 124.172 63.5771 124.458L63.8461 124.325ZM64.8461 123.622L64.5493 123.578C64.5328 123.69 64.5288 123.811 64.5347 123.94L64.8344 123.927L65.134 123.913C65.1295 123.812 65.1333 123.731 65.1429 123.665L64.8461 123.622ZM64.8344 123.927L64.5346 123.94C64.5416 124.096 64.5789 124.246 64.6545 124.381L64.9164 124.235L65.1783 124.089C65.1549 124.047 65.1375 123.991 65.1341 123.913L64.8344 123.927ZM64.9164 124.235L64.6512 124.375C64.7623 124.585 64.9658 124.668 65.1679 124.672L65.1742 124.372L65.1804 124.072C65.1519 124.071 65.148 124.066 65.1565 124.071C65.161 124.073 65.1666 124.077 65.172 124.082C65.1774 124.088 65.1803 124.092 65.1815 124.095L64.9164 124.235ZM65.1742 124.372L65.1685 124.672C65.3813 124.676 65.5797 124.604 65.7269 124.438L65.5023 124.239L65.2777 124.04C65.2634 124.056 65.2432 124.073 65.1799 124.072L65.1742 124.372ZM65.5023 124.239L65.7273 124.438C65.8381 124.312 65.9158 124.163 65.9654 123.997L65.6781 123.911L65.3908 123.825C65.3623 123.92 65.3228 123.989 65.2774 124.041L65.5023 124.239ZM65.6781 123.911L65.9666 123.993C66.0069 123.852 66.0345 123.717 66.047 123.588L65.7484 123.559L65.4498 123.53C65.4415 123.615 65.4222 123.714 65.3896 123.828L65.6781 123.911ZM65.7484 123.559L66.0473 123.586C66.0565 123.481 66.0576 123.364 66.052 123.237L65.7523 123.251L65.4526 123.264C65.4574 123.372 65.4559 123.461 65.4496 123.533L65.7484 123.559ZM65.7523 123.251L66.052 123.237C66.045 123.082 66.0072 122.934 65.9322 122.8L65.6703 122.946L65.4084 123.092C65.4323 123.135 65.4493 123.19 65.4526 123.264L65.7523 123.251ZM65.6703 122.946L65.9303 122.796C65.8143 122.595 65.6133 122.517 65.4148 122.513L65.4086 122.813L65.4023 123.113C65.4319 123.114 65.4381 123.119 65.432 123.116C65.4287 123.114 65.424 123.111 65.4192 123.107C65.4144 123.102 65.4116 123.098 65.4103 123.096L65.6703 122.946ZM65.4086 122.813L65.4142 122.513C65.2047 122.509 65.0059 122.578 64.8594 122.744L65.0844 122.942L65.3093 123.141C65.3191 123.13 65.3364 123.112 65.4029 123.113L65.4086 122.813ZM65.0844 122.942L64.8566 122.747C64.7475 122.874 64.6711 123.023 64.624 123.188L64.9125 123.27L65.2009 123.353C65.2268 123.262 65.265 123.192 65.3121 123.137L65.0844 122.942ZM64.9125 123.27L64.624 123.188C64.5832 123.331 64.5565 123.468 64.5469 123.6L64.8461 123.622L65.1453 123.644C65.1513 123.562 65.1688 123.465 65.2009 123.353L64.9125 123.27ZM63.3304 126.137L63.6299 126.156C63.6451 125.906 63.7168 125.692 63.8409 125.508L63.5922 125.341L63.3434 125.173C63.155 125.452 63.0522 125.77 63.031 126.119L63.3304 126.137ZM63.5922 125.341L63.8413 125.508C63.966 125.322 64.1287 125.177 64.334 125.073L64.1976 124.805L64.0612 124.538C63.7666 124.689 63.5256 124.901 63.343 125.174L63.5922 125.341ZM64.1976 124.805L64.334 125.073C64.5377 124.969 64.7621 124.917 65.0127 124.922L65.0179 124.622L65.0232 124.322C64.6801 124.316 64.3576 124.387 64.0612 124.538L64.1976 124.805ZM65.0179 124.622L65.0094 124.922C65.2379 124.928 65.4293 124.983 65.5916 125.079L65.7445 124.821L65.8974 124.563C65.6378 124.409 65.3448 124.331 65.0265 124.322L65.0179 124.622ZM65.7445 124.821L65.5916 125.079C65.7555 125.176 65.8775 125.305 65.9632 125.468L66.2289 125.329L66.4946 125.19C66.3563 124.926 66.1554 124.716 65.8974 124.563L65.7445 124.821ZM66.2289 125.329L65.9625 125.467C66.0458 125.628 66.0853 125.819 66.0701 126.051L66.3695 126.071L66.6689 126.091C66.6901 125.766 66.6359 125.462 66.4953 125.191L66.2289 125.329ZM66.3695 126.071L66.0699 126.056C66.0564 126.33 65.9867 126.564 65.8662 126.764L66.1234 126.919L66.3807 127.073C66.557 126.779 66.6513 126.448 66.6691 126.086L66.3695 126.071ZM66.1234 126.919L65.8655 126.766C65.743 126.972 65.5825 127.13 65.3814 127.244L65.5297 127.505L65.6779 127.765C65.9716 127.598 66.2069 127.366 66.3814 127.072L66.1234 126.919ZM65.5297 127.505L65.3805 127.244C65.184 127.357 64.9516 127.415 64.6736 127.408L64.6664 127.708L64.6592 128.008C65.0322 128.017 65.3753 127.939 65.6788 127.765L65.5297 127.505ZM64.6664 127.708L64.6741 127.408C64.4174 127.401 64.2227 127.339 64.074 127.237L63.9047 127.485L63.7354 127.733C63.9981 127.912 64.3112 127.999 64.6586 128.008L64.6664 127.708ZM63.9047 127.485L64.0718 127.236C63.9166 127.132 63.8033 126.993 63.729 126.812L63.4515 126.927L63.1741 127.041C63.2925 127.329 63.4813 127.562 63.7375 127.734L63.9047 127.485ZM63.4515 126.927L63.7279 126.81C63.6495 126.624 63.6141 126.408 63.6299 126.156L63.3304 126.137L63.031 126.119C63.0103 126.45 63.0556 126.76 63.1752 127.043L63.4515 126.927ZM64.5062 126.071L64.207 126.05C64.2013 126.129 64.1973 126.222 64.1946 126.329L64.4945 126.337L64.7944 126.344C64.7969 126.243 64.8007 126.159 64.8055 126.092L64.5062 126.071ZM64.4945 126.337L64.1946 126.329C64.1911 126.472 64.2135 126.612 64.2719 126.741L64.5453 126.618L64.8187 126.494C64.8042 126.462 64.7927 126.415 64.7944 126.344L64.4945 126.337ZM64.5453 126.618L64.2704 126.738C64.312 126.833 64.38 126.915 64.475 126.971C64.5666 127.025 64.6657 127.045 64.7569 127.047L64.764 126.747L64.7712 126.447C64.753 126.446 64.761 126.443 64.7796 126.454C64.7891 126.46 64.7983 126.467 64.8063 126.476C64.814 126.485 64.8182 126.493 64.8201 126.498L64.5453 126.618ZM64.764 126.747L64.7577 127.047C64.961 127.051 65.1543 126.977 65.284 126.798L65.0414 126.622L64.7988 126.445C64.7972 126.448 64.7969 126.447 64.7982 126.446C64.7995 126.445 64.801 126.444 64.8019 126.444C64.804 126.443 64.7961 126.447 64.7704 126.447L64.764 126.747ZM65.0414 126.622L65.284 126.798C65.3715 126.678 65.4322 126.542 65.4691 126.394L65.1781 126.321L64.8871 126.248C64.8667 126.33 64.8362 126.394 64.7988 126.445L65.0414 126.622ZM65.1781 126.321L65.4706 126.388C65.4988 126.264 65.5184 126.148 65.5277 126.043L65.2289 126.016L64.93 125.99C64.9237 126.062 64.9095 126.149 64.8856 126.255L65.1781 126.321ZM65.2289 126.016L65.5272 126.048C65.5362 125.964 65.5417 125.864 65.5444 125.75L65.2445 125.743L64.9446 125.736C64.9421 125.84 64.9372 125.923 64.9306 125.984L65.2289 126.016ZM65.2445 125.743H65.5445C65.5445 125.602 65.5203 125.465 65.466 125.337L65.1898 125.454L64.9136 125.571C64.9323 125.615 64.9445 125.671 64.9445 125.743H65.2445ZM65.1898 125.454L65.466 125.337C65.4247 125.239 65.3556 125.155 65.2571 125.098C65.1624 125.043 65.0602 125.025 64.9672 125.025V125.325V125.625C64.9861 125.625 64.977 125.629 64.9565 125.617C64.9461 125.611 64.9361 125.603 64.9278 125.593C64.9196 125.583 64.9154 125.575 64.9136 125.571L65.1898 125.454ZM64.9672 125.325L64.9735 125.025C64.7702 125.021 64.5769 125.095 64.4472 125.273L64.6898 125.45L64.9324 125.626C64.934 125.624 64.9343 125.624 64.933 125.625C64.9317 125.627 64.9302 125.627 64.9293 125.628C64.9272 125.629 64.9351 125.624 64.9608 125.625L64.9672 125.325ZM64.6898 125.45L64.4481 125.272C64.354 125.4 64.2936 125.546 64.2626 125.705L64.557 125.762L64.8514 125.82C64.8673 125.739 64.8954 125.677 64.9315 125.628L64.6898 125.45ZM64.557 125.762L64.2639 125.699C64.2362 125.826 64.2167 125.942 64.2075 126.044L64.5062 126.071L64.805 126.098C64.8113 126.028 64.8257 125.938 64.8502 125.826L64.557 125.762Z" fill="#5F0273" mask="url(#path-4-outside-1_275_550)"/>
<g filter="url(#filter0_d_275_550)">
<ellipse cx="39.5295" cy="72.0437" rx="26.3529" ry="46.4963" fill="url(#paint2_linear_275_550)"/>
<ellipse cx="39.5295" cy="72.0437" rx="26.3529" ry="46.4963" stroke="#6B0092"/>
</g>
<g filter="url(#filter1_d_275_550)">
<mask id="path-7-outside-2_275_550" maskUnits="userSpaceOnUse" x="29" y="54.613" width="22" height="32" fill="black">
<rect fill="white" x="29" y="54.613" width="22" height="32"/>
<path d="M49.6289 76.8201C49.6289 78.6039 49.2122 80.1078 48.3789 81.3318C47.5456 82.5427 46.3997 83.4607 44.9414 84.0857C43.4961 84.6977 41.8555 85.0037 40.0195 85.0037C38.1836 85.0037 36.5365 84.6977 35.0781 84.0857C33.6198 83.4607 32.4674 82.5427 31.6211 81.3318C30.7747 80.1078 30.3516 78.6039 30.3516 76.8201C30.3516 75.6222 30.5924 74.5414 31.0742 73.5779C31.556 72.6013 32.2266 71.768 33.0859 71.0779C33.9583 70.3748 34.9805 69.8409 36.1523 69.4763C37.3242 69.0987 38.6003 68.9099 39.9805 68.9099C41.8294 68.9099 43.4831 69.2354 44.9414 69.8865C46.3997 70.5375 47.5456 71.4555 48.3789 72.6404C49.2122 73.8253 49.6289 75.2185 49.6289 76.8201ZM43.9648 76.449C43.9648 75.5766 43.7956 74.8279 43.457 74.2029C43.1315 73.5649 42.6693 73.0766 42.0703 72.738C41.4714 72.3995 40.7747 72.2302 39.9805 72.2302C39.1862 72.2302 38.4896 72.3995 37.8906 72.738C37.2917 73.0766 36.8229 73.5649 36.4844 74.2029C36.1589 74.8279 35.9961 75.5766 35.9961 76.449C35.9961 77.3083 36.1589 78.0505 36.4844 78.6755C36.8229 79.3005 37.2917 79.7823 37.8906 80.1208C38.5026 80.4464 39.2122 80.6091 40.0195 80.6091C40.8268 80.6091 41.5234 80.4464 42.1094 80.1208C42.7083 79.7823 43.1641 79.3005 43.4766 78.6755C43.8021 78.0505 43.9648 77.3083 43.9648 76.449ZM49.0234 63.7146C49.0234 65.1599 48.6393 66.4425 47.8711 67.5623C47.1029 68.669 46.0352 69.5349 44.668 70.1599C43.3138 70.7849 41.7643 71.0974 40.0195 71.0974C38.2617 71.0974 36.6992 70.7849 35.332 70.1599C33.9648 69.5349 32.8971 68.669 32.1289 67.5623C31.3607 66.4425 30.9766 65.1599 30.9766 63.7146C30.9766 61.9958 31.3607 60.5505 32.1289 59.3787C32.9102 58.1938 33.9779 57.2953 35.332 56.6833C36.6992 56.0714 38.2487 55.7654 39.9805 55.7654C41.7383 55.7654 43.2943 56.0714 44.6484 56.6833C46.0156 57.2953 47.0833 58.1938 47.8516 59.3787C48.6328 60.5505 49.0234 61.9958 49.0234 63.7146ZM43.3984 63.9685C43.3984 63.2003 43.2617 62.5362 42.9883 61.9763C42.7148 61.4034 42.3242 60.9607 41.8164 60.6482C41.3216 60.3357 40.7096 60.1794 39.9805 60.1794C39.2773 60.1794 38.6719 60.3292 38.1641 60.6287C37.6693 60.9281 37.2852 61.3643 37.0117 61.9373C36.7513 62.4972 36.6211 63.1742 36.6211 63.9685C36.6211 64.7367 36.7513 65.4138 37.0117 65.9998C37.2852 66.5727 37.6758 67.0219 38.1836 67.3474C38.6914 67.6729 39.3034 67.8357 40.0195 67.8357C40.7357 67.8357 41.3411 67.6729 41.8359 67.3474C42.3438 67.0219 42.7279 66.5727 42.9883 65.9998C43.2617 65.4138 43.3984 64.7367 43.3984 63.9685Z"/>
</mask>
<path d="M49.6289 76.8201C49.6289 78.6039 49.2122 80.1078 48.3789 81.3318C47.5456 82.5427 46.3997 83.4607 44.9414 84.0857C43.4961 84.6977 41.8555 85.0037 40.0195 85.0037C38.1836 85.0037 36.5365 84.6977 35.0781 84.0857C33.6198 83.4607 32.4674 82.5427 31.6211 81.3318C30.7747 80.1078 30.3516 78.6039 30.3516 76.8201C30.3516 75.6222 30.5924 74.5414 31.0742 73.5779C31.556 72.6013 32.2266 71.768 33.0859 71.0779C33.9583 70.3748 34.9805 69.8409 36.1523 69.4763C37.3242 69.0987 38.6003 68.9099 39.9805 68.9099C41.8294 68.9099 43.4831 69.2354 44.9414 69.8865C46.3997 70.5375 47.5456 71.4555 48.3789 72.6404C49.2122 73.8253 49.6289 75.2185 49.6289 76.8201ZM43.9648 76.449C43.9648 75.5766 43.7956 74.8279 43.457 74.2029C43.1315 73.5649 42.6693 73.0766 42.0703 72.738C41.4714 72.3995 40.7747 72.2302 39.9805 72.2302C39.1862 72.2302 38.4896 72.3995 37.8906 72.738C37.2917 73.0766 36.8229 73.5649 36.4844 74.2029C36.1589 74.8279 35.9961 75.5766 35.9961 76.449C35.9961 77.3083 36.1589 78.0505 36.4844 78.6755C36.8229 79.3005 37.2917 79.7823 37.8906 80.1208C38.5026 80.4464 39.2122 80.6091 40.0195 80.6091C40.8268 80.6091 41.5234 80.4464 42.1094 80.1208C42.7083 79.7823 43.1641 79.3005 43.4766 78.6755C43.8021 78.0505 43.9648 77.3083 43.9648 76.449ZM49.0234 63.7146C49.0234 65.1599 48.6393 66.4425 47.8711 67.5623C47.1029 68.669 46.0352 69.5349 44.668 70.1599C43.3138 70.7849 41.7643 71.0974 40.0195 71.0974C38.2617 71.0974 36.6992 70.7849 35.332 70.1599C33.9648 69.5349 32.8971 68.669 32.1289 67.5623C31.3607 66.4425 30.9766 65.1599 30.9766 63.7146C30.9766 61.9958 31.3607 60.5505 32.1289 59.3787C32.9102 58.1938 33.9779 57.2953 35.332 56.6833C36.6992 56.0714 38.2487 55.7654 39.9805 55.7654C41.7383 55.7654 43.2943 56.0714 44.6484 56.6833C46.0156 57.2953 47.0833 58.1938 47.8516 59.3787C48.6328 60.5505 49.0234 61.9958 49.0234 63.7146ZM43.3984 63.9685C43.3984 63.2003 43.2617 62.5362 42.9883 61.9763C42.7148 61.4034 42.3242 60.9607 41.8164 60.6482C41.3216 60.3357 40.7096 60.1794 39.9805 60.1794C39.2773 60.1794 38.6719 60.3292 38.1641 60.6287C37.6693 60.9281 37.2852 61.3643 37.0117 61.9373C36.7513 62.4972 36.6211 63.1742 36.6211 63.9685C36.6211 64.7367 36.7513 65.4138 37.0117 65.9998C37.2852 66.5727 37.6758 67.0219 38.1836 67.3474C38.6914 67.6729 39.3034 67.8357 40.0195 67.8357C40.7357 67.8357 41.3411 67.6729 41.8359 67.3474C42.3438 67.0219 42.7279 66.5727 42.9883 65.9998C43.2617 65.4138 43.3984 64.7367 43.3984 63.9685Z" fill="#BE00E9"/>
<path d="M48.3789 81.3318L49.2027 81.8987L49.2055 81.8946L48.3789 81.3318ZM44.9414 84.0857L45.3313 85.0066L45.3353 85.0048L44.9414 84.0857ZM35.0781 84.0857L34.6842 85.0049L34.6912 85.0078L35.0781 84.0857ZM31.6211 81.3318L30.7986 81.9006L30.8014 81.9047L31.6211 81.3318ZM31.0742 73.5779L31.9687 74.0251L31.971 74.0203L31.0742 73.5779ZM33.0859 71.0779L33.7121 71.8576L33.7135 71.8565L33.0859 71.0779ZM36.1523 69.4763L36.4494 70.4312L36.459 70.4281L36.1523 69.4763ZM48.3789 72.6404L47.5609 73.2157L48.3789 72.6404ZM43.457 74.2029L42.5663 74.6574L42.5719 74.6683L42.5777 74.6792L43.457 74.2029ZM37.8906 72.738L38.3827 73.6086L37.8906 72.738ZM36.4844 74.2029L35.601 73.7341L35.5975 73.7409L36.4844 74.2029ZM36.4844 78.6755L35.5975 79.1375L35.6012 79.1447L35.6051 79.1518L36.4844 78.6755ZM37.8906 80.1208L37.3986 80.9914L37.4097 80.9977L37.421 81.0037L37.8906 80.1208ZM42.1094 80.1208L42.595 80.995L42.6014 80.9914L42.1094 80.1208ZM43.4766 78.6755L42.5896 78.2136L42.5858 78.2209L42.5821 78.2283L43.4766 78.6755ZM47.8711 67.5623L48.6926 68.1325L48.6957 68.128L47.8711 67.5623ZM44.668 70.1599L44.2522 69.2504L44.2489 69.252L44.668 70.1599ZM32.1289 67.5623L31.3043 68.128L31.3074 68.1325L32.1289 67.5623ZM32.1289 59.3787L31.294 58.8282L31.2926 58.8304L32.1289 59.3787ZM35.332 56.6833L34.9235 55.7706L34.9202 55.7721L35.332 56.6833ZM44.6484 56.6833L44.2366 57.5946L44.2399 57.5961L44.6484 56.6833ZM47.8516 59.3787L47.0124 59.9227L47.0195 59.9334L47.8516 59.3787ZM42.9883 61.9763L42.0858 62.4071L42.0897 62.4152L42.9883 61.9763ZM41.8164 60.6482L41.2824 61.4937L41.2923 61.4999L41.8164 60.6482ZM38.1641 60.6287L37.656 59.7672L37.6463 59.7732L38.1641 60.6287ZM37.0117 61.9373L36.1092 61.5065L36.105 61.5155L37.0117 61.9373ZM37.0117 65.9998L36.0979 66.4059L36.1034 66.4183L36.1092 66.4305L37.0117 65.9998ZM41.8359 67.3474L41.2962 66.5055L41.2863 66.512L41.8359 67.3474ZM42.9883 65.9998L42.0821 65.5769L42.0779 65.586L42.9883 65.9998ZM49.6289 76.8201H48.6289C48.6289 78.4449 48.2512 79.7424 47.5523 80.769L48.3789 81.3318L49.2055 81.8946C50.1732 80.4732 50.6289 78.7629 50.6289 76.8201H49.6289ZM48.3789 81.3318L47.5551 80.7649C46.8374 81.8078 45.8465 82.6098 44.5475 83.1665L44.9414 84.0857L45.3353 85.0048C46.953 84.3116 48.2537 83.2777 49.2027 81.8987L48.3789 81.3318ZM44.9414 84.0857L44.5515 83.1648C43.2487 83.7165 41.744 84.0037 40.0195 84.0037V85.0037V86.0037C41.967 86.0037 43.7435 85.6789 45.3313 85.0065L44.9414 84.0857ZM40.0195 85.0037V84.0037C38.2953 84.0037 36.7828 83.7166 35.4651 83.1636L35.0781 84.0857L34.6912 85.0078C36.2901 85.6788 38.0719 86.0037 40.0195 86.0037V85.0037ZM35.0781 84.0857L35.472 83.1665C34.1719 82.6094 33.1723 81.8056 32.4407 80.7589L31.6211 81.3318L30.8014 81.9047C31.7626 83.2798 33.0676 84.312 34.6842 85.0048L35.0781 84.0857ZM31.6211 81.3318L32.4436 80.763C31.7342 79.7372 31.3516 78.4419 31.3516 76.8201H30.3516H29.3516C29.3516 78.766 29.8153 80.4785 30.7986 81.9005L31.6211 81.3318ZM30.3516 76.8201H31.3516C31.3516 75.7598 31.5638 74.8349 31.9686 74.0251L31.0742 73.5779L30.1798 73.1307C29.6211 74.248 29.3516 75.4845 29.3516 76.8201H30.3516ZM31.0742 73.5779L31.971 74.0203C32.3874 73.1762 32.965 72.4575 33.7121 71.8576L33.0859 71.0779L32.4598 70.2982C31.4881 71.0785 30.7245 72.0264 30.1774 73.1355L31.0742 73.5779ZM33.0859 71.0779L33.7135 71.8565C34.4788 71.2396 35.3863 70.7619 36.4494 70.4312L36.1523 69.4763L35.8553 68.5215C34.5746 68.9199 33.4378 69.5099 32.4584 70.2993L33.0859 71.0779ZM36.1523 69.4763L36.459 70.4281C37.5206 70.0861 38.6919 69.9099 39.9805 69.9099V68.9099V67.9099C38.5086 67.9099 37.1278 68.1114 35.8456 68.5245L36.1523 69.4763ZM39.9805 68.9099V69.9099C41.711 69.9099 43.2224 70.2142 44.5338 70.7996L44.9414 69.8865L45.3491 68.9733C43.7438 68.2567 41.9479 67.9099 39.9805 67.9099V68.9099ZM44.9414 69.8865L44.5338 70.7996C45.8447 71.3849 46.8418 72.1932 47.5609 73.2157L48.3789 72.6404L49.1969 72.0651C48.2493 70.7178 46.9548 69.6902 45.3491 68.9733L44.9414 69.8865ZM48.3789 72.6404L47.5609 73.2157C48.2634 74.2144 48.6289 75.4017 48.6289 76.8201H49.6289H50.6289C50.6289 75.0353 50.1611 73.4361 49.1969 72.0651L48.3789 72.6404ZM43.9648 76.449H44.9648C44.9648 75.4476 44.7702 74.5275 44.3363 73.7266L43.457 74.2029L42.5777 74.6792C42.821 75.1282 42.9648 75.7055 42.9648 76.449H43.9648ZM43.457 74.2029L44.3478 73.7484C43.937 72.9432 43.3394 72.3067 42.5624 71.8675L42.0703 72.738L41.5783 73.6086C41.9991 73.8465 42.3261 74.1866 42.5663 74.6574L43.457 74.2029ZM42.0703 72.738L42.5624 71.8675C41.7915 71.4318 40.9202 71.2302 39.9805 71.2302V72.2302V73.2302C40.6292 73.2302 41.1512 73.3672 41.5783 73.6086L42.0703 72.738ZM39.9805 72.2302V71.2302C39.0407 71.2302 38.1695 71.4318 37.3986 71.8675L37.8906 72.738L38.3827 73.6086C38.8097 73.3672 39.3317 73.2302 39.9805 73.2302V72.2302ZM37.8906 72.738L37.3986 71.8675C36.625 72.3047 36.0243 72.9364 35.601 73.7342L36.4844 74.2029L37.3677 74.6716C37.6215 74.1933 37.9583 73.8485 38.3827 73.6086L37.8906 72.738ZM36.4844 74.2029L35.5975 73.7409C35.182 74.5386 34.9961 75.4534 34.9961 76.449H35.9961H36.9961C36.9961 75.6998 37.1357 75.1172 37.3713 74.6648L36.4844 74.2029ZM35.9961 76.449H34.9961C34.9961 77.4343 35.1831 78.3418 35.5975 79.1375L36.4844 78.6755L37.3713 78.2136C37.1347 77.7593 36.9961 77.1824 36.9961 76.449H35.9961ZM36.4844 78.6755L35.6051 79.1518C36.03 79.9363 36.6304 80.5573 37.3986 80.9914L37.8906 80.1208L38.3827 79.2503C37.9529 79.0074 37.6158 78.6648 37.3637 78.1993L36.4844 78.6755ZM37.8906 80.1208L37.421 81.0037C38.1997 81.4179 39.0755 81.6091 40.0195 81.6091V80.6091V79.6091C39.349 79.6091 38.8055 79.4748 38.3602 79.238L37.8906 80.1208ZM40.0195 80.6091V81.6091C40.9622 81.6091 41.8329 81.4184 42.595 80.995L42.1094 80.1208L41.6237 79.2467C41.2139 79.4744 40.6915 79.6091 40.0195 79.6091V80.6091ZM42.1094 80.1208L42.6014 80.9914C43.3765 80.5533 43.971 79.9228 44.371 79.1227L43.4766 78.6755L42.5821 78.2283C42.3572 78.6783 42.0401 79.0113 41.6173 79.2503L42.1094 80.1208ZM43.4766 78.6755L44.3635 79.1375C44.7779 78.3418 44.9648 77.4343 44.9648 76.449H43.9648H42.9648C42.9648 77.1824 42.8263 77.7593 42.5896 78.2136L43.4766 78.6755ZM49.0234 63.7146H48.0234C48.0234 64.9716 47.693 66.0542 47.0465 66.9965L47.8711 67.5623L48.6957 68.128C49.5857 66.8307 50.0234 65.3482 50.0234 63.7146H49.0234ZM47.8711 67.5623L47.0496 66.992C46.3952 67.9348 45.4755 68.6912 44.2522 69.2504L44.668 70.1599L45.0837 71.0694C46.5948 70.3786 47.8105 69.4033 48.6926 68.1325L47.8711 67.5623ZM44.668 70.1599L44.2489 69.252C43.0466 69.8069 41.644 70.0974 40.0195 70.0974V71.0974V72.0974C41.8846 72.0974 43.581 71.763 45.087 71.0679L44.668 70.1599ZM40.0195 71.0974V70.0974C38.3811 70.0974 36.9642 69.8065 35.7478 69.2504L35.332 70.1599L34.9163 71.0694C36.4342 71.7633 38.1423 72.0974 40.0195 72.0974V71.0974ZM35.332 70.1599L35.7478 69.2504C34.5245 68.6912 33.6048 67.9348 32.9504 66.992L32.1289 67.5623L31.3074 68.1325C32.1895 69.4033 33.4052 70.3786 34.9163 71.0694L35.332 70.1599ZM32.1289 67.5623L32.9535 66.9965C32.307 66.0542 31.9766 64.9716 31.9766 63.7146H30.9766H29.9766C29.9766 65.3482 30.4143 66.8307 31.3043 68.128L32.1289 67.5623ZM30.9766 63.7146H31.9766C31.9766 62.1462 32.3258 60.9023 32.9652 59.9269L32.1289 59.3787L31.2926 58.8304C30.3956 60.1987 29.9766 61.8455 29.9766 63.7146H30.9766ZM32.1289 59.3787L32.9638 59.9291C33.6359 58.9097 34.5535 58.1326 35.7439 57.5946L35.332 56.6833L34.9202 55.7721C33.4023 56.4581 32.1844 57.4778 31.294 58.8282L32.1289 59.3787ZM35.332 56.6833L35.7406 57.5961C36.9607 57.0499 38.3677 56.7654 39.9805 56.7654V55.7654V54.7654C38.1297 54.7654 36.4377 55.0928 34.9235 55.7706L35.332 56.6833ZM39.9805 55.7654V56.7654C41.6219 56.7654 43.0334 57.0508 44.2366 57.5946L44.6484 56.6833L45.0603 55.7721C43.5552 55.0919 41.8546 54.7654 39.9805 54.7654V55.7654ZM44.6484 56.6833L44.2399 57.5961C45.4422 58.1343 46.3557 58.9096 47.0125 59.9227L47.8516 59.3787L48.6906 58.8346C47.811 57.4779 46.589 56.4564 45.057 55.7706L44.6484 56.6833ZM47.8516 59.3787L47.0195 59.9334C47.6692 60.9079 48.0234 62.1494 48.0234 63.7146H49.0234H50.0234C50.0234 61.8423 49.5964 60.1932 48.6836 58.824L47.8516 59.3787ZM43.3984 63.9685H44.3984C44.3984 63.0829 44.2407 62.2621 43.8868 61.5375L42.9883 61.9763L42.0897 62.4152C42.2827 62.8103 42.3984 63.3177 42.3984 63.9685H43.3984ZM42.9883 61.9763L43.8908 61.5456C43.54 60.8106 43.0231 60.2166 42.3405 59.7965L41.8164 60.6482L41.2923 61.4999C41.6253 61.7048 41.8897 61.9962 42.0858 62.407L42.9883 61.9763ZM41.8164 60.6482L42.3504 59.8027C41.6607 59.3671 40.8523 59.1794 39.9805 59.1794V60.1794V61.1794C40.567 61.1794 40.9826 61.3043 41.2824 61.4937L41.8164 60.6482ZM39.9805 60.1794V59.1794C39.1333 59.1794 38.3451 59.361 37.6561 59.7673L38.1641 60.6287L38.672 61.49C38.9987 61.2974 39.4214 61.1794 39.9805 61.1794V60.1794ZM38.1641 60.6287L37.6463 59.7732C36.9684 60.1835 36.4582 60.7754 36.1092 61.5065L37.0117 61.9373L37.9142 62.368C38.1121 61.9533 38.3702 61.6728 38.6819 61.4842L38.1641 60.6287ZM37.0117 61.9373L36.105 61.5155C35.7682 62.2397 35.6211 63.0687 35.6211 63.9685H36.6211H37.6211C37.6211 63.2798 37.7344 62.7546 37.9184 62.359L37.0117 61.9373ZM36.6211 63.9685H35.6211C35.6211 64.8494 35.7706 65.6694 36.0979 66.4059L37.0117 65.9998L37.9255 65.5936C37.732 65.1583 37.6211 64.6241 37.6211 63.9685H36.6211ZM37.0117 65.9998L36.1092 66.4305C36.4585 67.1623 36.9708 67.7578 37.6439 68.1893L38.1836 67.3474L38.7233 66.5055C38.3807 66.286 38.1118 65.983 37.9142 65.569L37.0117 65.9998ZM38.1836 67.3474L37.6439 68.1893C38.3409 68.6361 39.1484 68.8357 40.0195 68.8357V67.8357V66.8357C39.4584 66.8357 39.0419 66.7098 38.7233 66.5055L38.1836 67.3474ZM40.0195 67.8357V68.8357C40.8897 68.8357 41.6962 68.6364 42.3856 68.1828L41.8359 67.3474L41.2863 66.512C40.9861 66.7095 40.5816 66.8357 40.0195 66.8357V67.8357ZM41.8359 67.3474L42.3756 68.1893C43.0529 67.7551 43.5621 67.1539 43.8986 66.4136L42.9883 65.9998L42.0779 65.586C41.8936 65.9914 41.6346 66.2887 41.2963 66.5055L41.8359 67.3474ZM42.9883 65.9998L43.8945 66.4226C44.2402 65.6817 44.3984 64.8557 44.3984 63.9685H43.3984H42.3984C42.3984 64.6178 42.2832 65.1459 42.0821 65.5769L42.9883 65.9998Z" fill="black" mask="url(#path-7-outside-2_275_550)"/>
</g>
<path d="M13.7056 5.22167C15.1995 5.44972 16.464 6.58097 17.2848 8.2892C18.1046 9.99542 18.4644 12.2494 18.1545 14.6439C17.8446 17.0384 16.9265 19.0973 15.7052 20.4921C14.4825 21.8885 12.9799 22.5975 11.486 22.3696C9.99202 22.1417 8.72675 21.0103 7.90588 19.3019C7.08612 17.5957 6.72622 15.3416 7.03615 12.9473C7.34609 10.5529 8.26424 8.49383 9.48541 7.09906C10.7082 5.70252 12.2116 4.99369 13.7056 5.22167Z" fill="url(#paint3_linear_275_550)" stroke="#6B0092" stroke-width="0.5"/>
<mask id="path-10-outside-3_275_550" maskUnits="userSpaceOnUse" x="9.76465" y="9.13135" width="5" height="8" fill="black">
<rect fill="white" x="9.76465" y="9.13135" width="5" height="8"/>
<path d="M13.704 14.5337C13.6832 14.867 13.5933 15.1613 13.4345 15.4165C13.2782 15.6717 13.0686 15.8709 12.8055 16.0142C12.5425 16.1548 12.243 16.2212 11.9071 16.2134C11.5972 16.2056 11.3303 16.1313 11.1063 15.9907C10.885 15.8501 10.7209 15.66 10.6141 15.4204C10.5074 15.1808 10.4631 14.9074 10.4813 14.6001C10.497 14.3579 10.5542 14.1379 10.6532 13.9399C10.7522 13.7394 10.8837 13.5662 11.0477 13.4204C11.2118 13.272 11.3993 13.16 11.6102 13.0845C11.8212 13.0063 12.0464 12.9699 12.286 12.9751C12.5855 12.9829 12.8446 13.0545 13.0634 13.1899C13.2821 13.3254 13.4488 13.509 13.5634 13.7407C13.6779 13.9725 13.7248 14.2368 13.704 14.5337ZM12.5634 14.4438C12.5764 14.3553 12.5803 14.2537 12.5751 14.1392C12.5699 14.022 12.5425 13.9191 12.493 13.8306C12.4462 13.742 12.3602 13.6965 12.2352 13.6938C12.0972 13.6912 11.9878 13.7355 11.9071 13.8267C11.829 13.9152 11.7704 14.0246 11.7313 14.1548C11.6949 14.2824 11.6714 14.3996 11.661 14.5063C11.6532 14.5949 11.6519 14.6978 11.6571 14.8149C11.6623 14.9295 11.6897 15.0311 11.7391 15.1196C11.7886 15.2056 11.8759 15.2498 12.0009 15.2524C12.1389 15.255 12.247 15.2121 12.3251 15.1235C12.4032 15.0324 12.4605 14.923 12.497 14.7954C12.5334 14.6678 12.5555 14.5506 12.5634 14.4438ZM14.079 11.9282C14.0608 12.2277 13.9735 12.4933 13.8173 12.7251C13.6636 12.9543 13.4618 13.1326 13.2118 13.2603C12.9618 13.3879 12.6884 13.4491 12.3915 13.4438C12.118 13.436 11.8759 13.3696 11.6649 13.2446C11.454 13.1196 11.2925 12.9504 11.1805 12.7368C11.0686 12.5207 11.0217 12.2733 11.0399 11.9946C11.0555 11.6769 11.1376 11.3944 11.286 11.147C11.4345 10.897 11.6324 10.7017 11.8798 10.561C12.1298 10.4178 12.4175 10.3501 12.743 10.3579C13.0451 10.3657 13.299 10.4399 13.5048 10.5806C13.7105 10.7186 13.8615 10.9048 13.9579 11.1392C14.0569 11.3735 14.0972 11.6366 14.079 11.9282ZM12.9032 11.9946C12.9084 11.9217 12.9123 11.8332 12.9149 11.729C12.9175 11.6222 12.9006 11.5285 12.8641 11.4478C12.8277 11.3644 12.7548 11.3215 12.6454 11.3188C12.523 11.3162 12.4305 11.3579 12.368 11.4438C12.3055 11.5298 12.26 11.63 12.2313 11.7446C12.2053 11.8592 12.1884 11.9608 12.1805 12.0493C12.1727 12.1222 12.1675 12.2134 12.1649 12.3228C12.1649 12.4295 12.1832 12.5259 12.2196 12.6118C12.2561 12.6978 12.3303 12.7407 12.4423 12.7407C12.5647 12.7433 12.6571 12.7017 12.7196 12.6157C12.7847 12.5272 12.829 12.423 12.8524 12.3032C12.8785 12.1834 12.8954 12.0806 12.9032 11.9946Z"/>
</mask>
<path d="M13.704 14.5337C13.6832 14.867 13.5933 15.1613 13.4345 15.4165C13.2782 15.6717 13.0686 15.8709 12.8055 16.0142C12.5425 16.1548 12.243 16.2212 11.9071 16.2134C11.5972 16.2056 11.3303 16.1313 11.1063 15.9907C10.885 15.8501 10.7209 15.66 10.6141 15.4204C10.5074 15.1808 10.4631 14.9074 10.4813 14.6001C10.497 14.3579 10.5542 14.1379 10.6532 13.9399C10.7522 13.7394 10.8837 13.5662 11.0477 13.4204C11.2118 13.272 11.3993 13.16 11.6102 13.0845C11.8212 13.0063 12.0464 12.9699 12.286 12.9751C12.5855 12.9829 12.8446 13.0545 13.0634 13.1899C13.2821 13.3254 13.4488 13.509 13.5634 13.7407C13.6779 13.9725 13.7248 14.2368 13.704 14.5337ZM12.5634 14.4438C12.5764 14.3553 12.5803 14.2537 12.5751 14.1392C12.5699 14.022 12.5425 13.9191 12.493 13.8306C12.4462 13.742 12.3602 13.6965 12.2352 13.6938C12.0972 13.6912 11.9878 13.7355 11.9071 13.8267C11.829 13.9152 11.7704 14.0246 11.7313 14.1548C11.6949 14.2824 11.6714 14.3996 11.661 14.5063C11.6532 14.5949 11.6519 14.6978 11.6571 14.8149C11.6623 14.9295 11.6897 15.0311 11.7391 15.1196C11.7886 15.2056 11.8759 15.2498 12.0009 15.2524C12.1389 15.255 12.247 15.2121 12.3251 15.1235C12.4032 15.0324 12.4605 14.923 12.497 14.7954C12.5334 14.6678 12.5555 14.5506 12.5634 14.4438ZM14.079 11.9282C14.0608 12.2277 13.9735 12.4933 13.8173 12.7251C13.6636 12.9543 13.4618 13.1326 13.2118 13.2603C12.9618 13.3879 12.6884 13.4491 12.3915 13.4438C12.118 13.436 11.8759 13.3696 11.6649 13.2446C11.454 13.1196 11.2925 12.9504 11.1805 12.7368C11.0686 12.5207 11.0217 12.2733 11.0399 11.9946C11.0555 11.6769 11.1376 11.3944 11.286 11.147C11.4345 10.897 11.6324 10.7017 11.8798 10.561C12.1298 10.4178 12.4175 10.3501 12.743 10.3579C13.0451 10.3657 13.299 10.4399 13.5048 10.5806C13.7105 10.7186 13.8615 10.9048 13.9579 11.1392C14.0569 11.3735 14.0972 11.6366 14.079 11.9282ZM12.9032 11.9946C12.9084 11.9217 12.9123 11.8332 12.9149 11.729C12.9175 11.6222 12.9006 11.5285 12.8641 11.4478C12.8277 11.3644 12.7548 11.3215 12.6454 11.3188C12.523 11.3162 12.4305 11.3579 12.368 11.4438C12.3055 11.5298 12.26 11.63 12.2313 11.7446C12.2053 11.8592 12.1884 11.9608 12.1805 12.0493C12.1727 12.1222 12.1675 12.2134 12.1649 12.3228C12.1649 12.4295 12.1832 12.5259 12.2196 12.6118C12.2561 12.6978 12.3303 12.7407 12.4423 12.7407C12.5647 12.7433 12.6571 12.7017 12.7196 12.6157C12.7847 12.5272 12.829 12.423 12.8524 12.3032C12.8785 12.1834 12.8954 12.0806 12.9032 11.9946Z" fill="#BE00E9"/>
<path d="M13.704 14.5337L13.4047 14.5127L13.4046 14.515L13.704 14.5337ZM13.4345 15.4165L13.1798 15.258L13.1786 15.2599L13.4345 15.4165ZM12.8055 16.0142L12.947 16.2787L12.949 16.2776L12.8055 16.0142ZM11.9071 16.2134L11.8996 16.5133L11.9001 16.5133L11.9071 16.2134ZM11.1063 15.9907L10.9455 16.2439L10.9468 16.2448L11.1063 15.9907ZM10.6141 15.4204L10.3401 15.5425L10.6141 15.4204ZM10.4813 14.6001L10.1819 14.5808L10.1819 14.5823L10.4813 14.6001ZM10.6532 13.9399L10.9215 14.0741L10.9222 14.0727L10.6532 13.9399ZM11.0477 13.4204L11.2471 13.6446L11.249 13.6429L11.0477 13.4204ZM11.6102 13.0845L11.7114 13.3669L11.7144 13.3658L11.6102 13.0845ZM12.286 12.9751L12.2938 12.6752L12.2925 12.6752L12.286 12.9751ZM12.5634 14.4438L12.2666 14.4002L12.265 14.411L12.2642 14.422L12.5634 14.4438ZM12.5751 14.1392L12.2754 14.1525L12.2754 14.1528L12.5751 14.1392ZM12.493 13.8306L12.2278 13.971L12.2312 13.9769L12.493 13.8306ZM12.2352 13.6938L12.2415 13.3939L12.2409 13.3939L12.2352 13.6938ZM11.9071 13.8267L11.6825 13.6277L11.6822 13.6282L11.9071 13.8267ZM11.7313 14.1548L11.444 14.0686L11.4429 14.0724L11.7313 14.1548ZM11.661 14.5063L11.3624 14.4772L11.3622 14.48L11.661 14.5063ZM11.6571 14.8149L11.3574 14.8283L11.3574 14.8286L11.6571 14.8149ZM11.7391 15.1196L11.4772 15.266L11.4792 15.2693L11.7391 15.1196ZM12.0009 15.2524L11.9946 15.5524L11.9952 15.5524L12.0009 15.2524ZM12.3251 15.1235L12.5501 15.322L12.5529 15.3188L12.3251 15.1235ZM14.079 11.9282L13.7796 11.9095L13.7795 11.91L14.079 11.9282ZM13.8173 12.7251L13.5685 12.5574L13.5681 12.558L13.8173 12.7251ZM12.3915 13.4438L12.3829 13.7437L12.3862 13.7438L12.3915 13.4438ZM11.1805 12.7368L10.9142 12.8748L10.9149 12.8761L11.1805 12.7368ZM11.0399 11.9946L11.3393 12.0142L11.3396 12.0094L11.0399 11.9946ZM11.286 11.147L11.5433 11.3013L11.544 11.3001L11.286 11.147ZM11.8798 10.561L12.028 10.8218L12.0289 10.8213L11.8798 10.561ZM12.743 10.3579L12.7508 10.058L12.7502 10.058L12.743 10.3579ZM13.5048 10.5806L13.3355 10.8282L13.3376 10.8297L13.5048 10.5806ZM13.9579 11.1392L13.6804 11.2532L13.6815 11.2559L13.9579 11.1392ZM12.9032 11.9946L13.202 12.0218L13.2024 12.016L12.9032 11.9946ZM12.9149 11.729L13.2148 11.7365L13.2148 11.7363L12.9149 11.729ZM12.8641 11.4478L12.5893 11.568L12.5907 11.5712L12.8641 11.4478ZM12.6454 11.3188L12.6525 11.0189L12.6518 11.0189L12.6454 11.3188ZM12.2313 11.7446L11.9402 11.6719L11.9388 11.6781L12.2313 11.7446ZM12.1805 12.0493L12.4789 12.0813L12.4794 12.0757L12.1805 12.0493ZM12.1649 12.3228L11.8649 12.3156V12.3228H12.1649ZM12.2196 12.6118L11.9434 12.729L12.2196 12.6118ZM12.4423 12.7407L12.4487 12.4407H12.4423V12.7407ZM12.7196 12.6157L12.4779 12.438L12.477 12.4393L12.7196 12.6157ZM12.8524 12.3032L12.5592 12.2395L12.558 12.2456L12.8524 12.3032ZM13.704 14.5337L13.4046 14.515C13.3865 14.8043 13.3095 15.0495 13.1798 15.258L13.4345 15.4165L13.6891 15.575C13.8771 15.2731 13.9798 14.9297 14.0034 14.5524L13.704 14.5337ZM13.4345 15.4165L13.1786 15.2599C13.0498 15.4702 12.879 15.6326 12.6621 15.7507L12.8055 16.0142L12.949 16.2776C13.2582 16.1093 13.5066 15.8732 13.6903 15.5731L13.4345 15.4165ZM12.8055 16.0142L12.6641 15.7496C12.4522 15.8629 12.205 15.9202 11.9141 15.9135L11.9071 16.2134L11.9001 16.5133C12.2811 16.5222 12.6328 16.4467 12.947 16.2787L12.8055 16.0142ZM11.9071 16.2134L11.9147 15.9135C11.6493 15.9068 11.4369 15.844 11.2659 15.7367L11.1063 15.9907L10.9468 16.2448C11.2237 16.4187 11.5452 16.5043 11.8996 16.5133L11.9071 16.2134ZM11.1063 15.9907L11.2672 15.7375C11.0956 15.6285 10.9709 15.484 10.8882 15.2983L10.6141 15.4204L10.3401 15.5425C10.4709 15.836 10.6743 16.0717 10.9455 16.2439L11.1063 15.9907ZM10.6141 15.4204L10.8882 15.2983C10.8041 15.1097 10.7649 14.8855 10.7808 14.6179L10.4813 14.6001L10.1819 14.5823C10.1613 14.9293 10.2106 15.252 10.3401 15.5425L10.6141 15.4204ZM10.4813 14.6001L10.7807 14.6194C10.794 14.4133 10.8422 14.2329 10.9215 14.0741L10.6532 13.9399L10.3849 13.8058C10.2663 14.0428 10.1999 14.3025 10.182 14.5808L10.4813 14.6001ZM10.6532 13.9399L10.9222 14.0727C11.0044 13.9062 11.1125 13.7643 11.247 13.6446L11.0477 13.4204L10.8484 13.1962C10.6549 13.3682 10.4999 13.5726 10.3842 13.8072L10.6532 13.9399ZM11.0477 13.4204L11.249 13.6429C11.3836 13.5211 11.5369 13.4294 11.7114 13.3669L11.6102 13.0845L11.5091 12.802C11.2617 12.8906 11.04 13.0228 10.8465 13.1979L11.0477 13.4204ZM11.6102 13.0845L11.7144 13.3658C11.8877 13.3016 12.0752 13.2706 12.2795 13.275L12.286 12.9751L12.2925 12.6752C12.0177 12.6692 11.7547 12.7111 11.506 12.8031L11.6102 13.0845ZM12.286 12.9751L12.2782 13.275C12.5334 13.2817 12.7388 13.3419 12.9055 13.445L13.0634 13.1899L13.2213 12.9349C12.9504 12.7672 12.6376 12.6842 12.2938 12.6752L12.286 12.9751ZM13.0634 13.1899L12.9055 13.445C13.0763 13.5508 13.2046 13.6919 13.2944 13.8737L13.5634 13.7407L13.8323 13.6078C13.693 13.326 13.488 13.1 13.2213 12.9349L13.0634 13.1899ZM13.5634 13.7407L13.2944 13.8737C13.3821 14.0509 13.4224 14.2608 13.4047 14.5127L13.704 14.5337L14.0033 14.5547C14.0272 14.2129 13.9738 13.8941 13.8323 13.6078L13.5634 13.7407ZM12.5634 14.4438L12.8602 14.4875C12.8766 14.3756 12.8806 14.2542 12.8748 14.1255L12.5751 14.1392L12.2754 14.1528C12.28 14.2533 12.2761 14.335 12.2666 14.4002L12.5634 14.4438ZM12.5751 14.1392L12.8748 14.1258C12.8678 13.9693 12.8305 13.8195 12.7549 13.6842L12.493 13.8306L12.2312 13.9769C12.2545 14.0187 12.2719 14.0747 12.2754 14.1525L12.5751 14.1392ZM12.493 13.8306L12.7582 13.6902C12.6471 13.4803 12.4437 13.3981 12.2415 13.3939L12.2352 13.6938L12.229 13.9938C12.2576 13.9944 12.2614 13.9996 12.2529 13.995C12.2484 13.9926 12.2428 13.9888 12.2374 13.9833C12.2321 13.9779 12.2291 13.9732 12.2279 13.9709L12.493 13.8306ZM12.2352 13.6938L12.2409 13.3939C12.0282 13.3899 11.8297 13.4616 11.6825 13.6277L11.9071 13.8267L12.1317 14.0256C12.146 14.0094 12.1663 13.9926 12.2296 13.9938L12.2352 13.6938ZM11.9071 13.8267L11.6822 13.6282C11.5713 13.7538 11.4936 13.9031 11.444 14.0686L11.7313 14.1548L12.0187 14.241C12.0472 14.146 12.0866 14.0766 12.1321 14.0251L11.9071 13.8267ZM11.7313 14.1548L11.4429 14.0724C11.4026 14.2135 11.375 14.3488 11.3624 14.4772L11.661 14.5063L11.9596 14.5355C11.9679 14.4504 11.9872 14.3513 12.0198 14.2372L11.7313 14.1548ZM11.661 14.5063L11.3622 14.48C11.3529 14.5851 11.3518 14.7018 11.3574 14.8283L11.6571 14.8149L11.9568 14.8016C11.952 14.6938 11.9535 14.6047 11.9599 14.5327L11.661 14.5063ZM11.6571 14.8149L11.3574 14.8286C11.3645 14.9836 11.4022 15.1317 11.4773 15.266L11.7391 15.1196L12.001 14.9733C11.9771 14.9305 11.9602 14.8755 11.9568 14.8013L11.6571 14.8149ZM11.7391 15.1196L11.4792 15.2693C11.5951 15.4707 11.7961 15.5482 11.9946 15.5524L12.0009 15.2524L12.0071 14.9525C11.9775 14.9519 11.9713 14.9466 11.9774 14.9498C11.9807 14.9514 11.9854 14.9544 11.9902 14.959C11.995 14.9636 11.9979 14.9677 11.9991 14.9699L11.7391 15.1196ZM12.0009 15.2524L11.9952 15.5524C12.2048 15.5563 12.4036 15.488 12.55 15.322L12.3251 15.1235L12.1001 14.925C12.0904 14.9361 12.073 14.9537 12.0065 14.9525L12.0009 15.2524ZM12.3251 15.1235L12.5529 15.3188C12.6619 15.1915 12.7383 15.0425 12.7854 14.8778L12.497 14.7954L12.2085 14.713C12.1826 14.8035 12.1445 14.8733 12.0973 14.9283L12.3251 15.1235ZM12.497 14.7954L12.7854 14.8778C12.8262 14.735 12.8529 14.5972 12.8626 14.4657L12.5634 14.4438L12.2642 14.422C12.2582 14.5041 12.2406 14.6007 12.2085 14.713L12.497 14.7954ZM14.079 11.9282L13.7795 11.91C13.7643 12.1601 13.6926 12.3733 13.5685 12.5574L13.8173 12.7251L14.066 12.8928C14.2544 12.6134 14.3572 12.2953 14.3784 11.9464L14.079 11.9282ZM13.8173 12.7251L13.5681 12.558C13.4434 12.744 13.2807 12.8883 13.0754 12.993L13.2118 13.2603L13.3482 13.5275C13.6429 13.377 13.8838 13.1645 14.0664 12.8922L13.8173 12.7251ZM13.2118 13.2603L13.0754 12.993C12.8718 13.097 12.6474 13.1483 12.3967 13.1439L12.3915 13.4438L12.3862 13.7438C12.7294 13.7498 13.0518 13.6787 13.3482 13.5275L13.2118 13.2603ZM12.3915 13.4438L12.4001 13.144C12.1715 13.1374 11.9801 13.0827 11.8179 12.9865L11.6649 13.2446L11.512 13.5027C11.7716 13.6566 12.0646 13.7346 12.3829 13.7437L12.3915 13.4438ZM11.6649 13.2446L11.8179 12.9865C11.6539 12.8894 11.5319 12.7609 11.4462 12.5975L11.1805 12.7368L10.9149 12.8761C11.0531 13.1398 11.254 13.3499 11.512 13.5027L11.6649 13.2446ZM11.1805 12.7368L11.4469 12.5988C11.3636 12.438 11.3241 12.2465 11.3393 12.0142L11.0399 11.9946L10.7406 11.975C10.7193 12.3001 10.7735 12.6033 10.9142 12.8748L11.1805 12.7368ZM11.0399 11.9946L11.3396 12.0094C11.353 11.7358 11.4228 11.5022 11.5433 11.3013L11.286 11.147L11.0288 10.9926C10.8524 11.2866 10.7581 11.618 10.7403 11.9799L11.0399 11.9946ZM11.286 11.147L11.544 11.3001C11.6664 11.0939 11.8269 10.9361 12.028 10.8218L11.8798 10.561L11.7315 10.3002C11.4378 10.4672 11.2025 10.7 11.0281 10.9938L11.286 11.147ZM11.8798 10.561L12.0289 10.8213C12.2254 10.7087 12.4578 10.6512 12.7359 10.6578L12.743 10.3579L12.7502 10.058C12.3773 10.049 12.0341 10.1269 11.7306 10.3007L11.8798 10.561ZM12.743 10.3579L12.7353 10.6578C12.992 10.6644 13.1867 10.7266 13.3355 10.8282L13.5048 10.5806L13.6741 10.3329C13.4114 10.1533 13.0983 10.067 12.7508 10.058L12.743 10.3579ZM13.5048 10.5806L13.3376 10.8297C13.4928 10.9338 13.6061 11.0725 13.6804 11.2532L13.9579 11.1392L14.2354 11.0251C14.117 10.7371 13.9282 10.5034 13.6719 10.3314L13.5048 10.5806ZM13.9579 11.1392L13.6815 11.2559C13.7599 11.4415 13.7953 11.6572 13.7796 11.9095L14.079 11.9282L14.3784 11.9469C14.3991 11.6159 14.3538 11.3055 14.2343 11.0225L13.9579 11.1392ZM12.9032 11.9946L13.2024 12.016C13.2081 11.937 13.2122 11.8435 13.2148 11.7365L12.9149 11.729L12.615 11.7215C12.6125 11.8228 12.6087 11.9064 12.604 11.9733L12.9032 11.9946ZM12.9149 11.729L13.2148 11.7363C13.2183 11.5936 13.196 11.4536 13.1376 11.3243L12.8641 11.4478L12.5907 11.5712C12.6052 11.6033 12.6167 11.6508 12.615 11.7217L12.9149 11.729ZM12.8641 11.4478L13.139 11.3275C13.0975 11.2326 13.0294 11.1505 12.9344 11.0946C12.8428 11.0406 12.7438 11.0211 12.6525 11.0189L12.6454 11.3188L12.6383 11.6188C12.6564 11.6192 12.6485 11.6225 12.6298 11.6115C12.6204 11.6059 12.6111 11.5983 12.6032 11.5892C12.5954 11.5802 12.5912 11.5724 12.5893 11.568L12.8641 11.4478ZM12.6454 11.3188L12.6518 11.0189C12.4484 11.0146 12.2552 11.089 12.1254 11.2674L12.368 11.4438L12.6107 11.6203C12.6123 11.6181 12.6126 11.6182 12.6113 11.6193C12.6099 11.6204 12.6084 11.6213 12.6075 11.6216C12.6055 11.6226 12.6133 11.6182 12.639 11.6188L12.6454 11.3188ZM12.368 11.4438L12.1254 11.2674C12.0379 11.3878 11.9772 11.5241 11.9403 11.6719L12.2313 11.7446L12.5224 11.8174C12.5427 11.736 12.5732 11.6718 12.6107 11.6203L12.368 11.4438ZM12.2313 11.7446L11.9388 11.6781C11.9106 11.802 11.891 11.9174 11.8817 12.0229L12.1805 12.0493L12.4794 12.0757C12.4857 12.0041 12.4999 11.9164 12.5239 11.8111L12.2313 11.7446ZM12.1805 12.0493L11.8823 12.0174C11.8732 12.1015 11.8677 12.2015 11.865 12.3156L12.1649 12.3228L12.4648 12.3299C12.4673 12.2252 12.4722 12.143 12.4788 12.0813L12.1805 12.0493ZM12.1649 12.3228H11.8649C11.8649 12.464 11.8892 12.601 11.9434 12.729L12.2196 12.6118L12.4958 12.4947C12.4772 12.4507 12.4649 12.395 12.4649 12.3228H12.1649ZM12.2196 12.6118L11.9434 12.729C11.9847 12.8262 12.0539 12.9111 12.1523 12.9681C12.247 13.023 12.3492 13.0407 12.4423 13.0407V12.7407V12.4407C12.4233 12.4407 12.4324 12.437 12.4529 12.4489C12.4633 12.4549 12.4733 12.4631 12.4817 12.4728C12.4898 12.4823 12.494 12.4905 12.4958 12.4947L12.2196 12.6118ZM12.4423 12.7407L12.4359 13.0407C12.6392 13.045 12.8325 12.9706 12.9622 12.7922L12.7196 12.6157L12.477 12.4393C12.4754 12.4415 12.4751 12.4414 12.4764 12.4403C12.4778 12.4392 12.4793 12.4383 12.4801 12.4379C12.4822 12.437 12.4743 12.4413 12.4487 12.4408L12.4423 12.7407ZM12.7196 12.6157L12.9613 12.7934C13.0554 12.6655 13.1159 12.5192 13.1468 12.3608L12.8524 12.3032L12.558 12.2456C12.5421 12.3268 12.514 12.3889 12.4779 12.438L12.7196 12.6157ZM12.8524 12.3032L13.1456 12.367C13.1732 12.2397 13.1927 12.1239 13.202 12.0218L12.9032 11.9946L12.6044 11.9675C12.5981 12.0372 12.5837 12.1272 12.5593 12.2395L12.8524 12.3032Z" fill="#5F0273" mask="url(#path-10-outside-3_275_550)"/>
<rect x="0.941162" y="66.9343" width="2.82353" height="2.0438" fill="#BE00E9"/>
<rect x="0.941162" y="70" width="2.82353" height="2.0438" fill="#BE00E9"/>
<rect x="0.941162" y="75.1094" width="2.82353" height="2.0438" fill="#BE00E9"/>
<rect x="0.941162" y="78.1753" width="2.82353" height="2.0438" fill="#BE00E9"/>
<rect x="0.941162" y="81.241" width="2.82353" height="2.0438" fill="#BE00E9"/>
<rect x="0.941162" y="61.8247" width="2.82353" height="2.0438" fill="#BE00E9"/>
<rect x="0.941162" y="58.759" width="2.82353" height="2.0438" fill="#BE00E9"/>
<rect x="0.941162" y="55.6934" width="2.82353" height="2.0438" fill="#BE00E9"/>
<rect x="42.8235" y="1.02197" width="2.0438" height="1.88235" transform="rotate(90 42.8235 1.02197)" fill="#BE00E9"/>
<rect x="40" y="1.02197" width="2.0438" height="1.88235" transform="rotate(90 40 1.02197)" fill="#BE00E9"/>
<rect x="35.2942" y="1.02197" width="2.0438" height="1.88235" transform="rotate(90 35.2942 1.02197)" fill="#BE00E9"/>
<rect x="32.4707" y="1.02197" width="2.0438" height="1.88235" transform="rotate(90 32.4707 1.02197)" fill="#BE00E9"/>
<rect x="29.647" y="1.02197" width="2.0438" height="1.88235" transform="rotate(90 29.647 1.02197)" fill="#BE00E9"/>
<rect x="47.5293" y="1.02197" width="2.0438" height="1.88235" transform="rotate(90 47.5293 1.02197)" fill="#BE00E9"/>
<rect x="50.353" y="1.02197" width="2.0438" height="1.88235" transform="rotate(90 50.353 1.02197)" fill="#BE00E9"/>
<rect x="53.1765" y="1.02197" width="2.0438" height="1.88235" transform="rotate(90 53.1765 1.02197)" fill="#BE00E9"/>
<rect x="42.8235" y="136.934" width="2.0438" height="1.88235" transform="rotate(90 42.8235 136.934)" fill="#BE00E9"/>
<rect x="40" y="136.934" width="2.0438" height="1.88235" transform="rotate(90 40 136.934)" fill="#BE00E9"/>
<rect x="35.2942" y="136.934" width="2.0438" height="1.88235" transform="rotate(90 35.2942 136.934)" fill="#BE00E9"/>
<rect x="32.4707" y="136.934" width="2.0438" height="1.88235" transform="rotate(90 32.4707 136.934)" fill="#BE00E9"/>
<rect x="29.647" y="136.934" width="2.0438" height="1.88235" transform="rotate(90 29.647 136.934)" fill="#BE00E9"/>
<rect x="47.5293" y="136.934" width="2.0438" height="1.88235" transform="rotate(90 47.5293 136.934)" fill="#BE00E9"/>
<rect x="50.353" y="136.934" width="2.0438" height="1.88235" transform="rotate(90 50.353 136.934)" fill="#BE00E9"/>
<rect x="53.1765" y="136.934" width="2.0438" height="1.88235" transform="rotate(90 53.1765 136.934)" fill="#BE00E9"/>
<rect x="76.2354" y="66.9343" width="2.82353" height="2.0438" fill="#BE00E9"/>
<rect x="76.2354" y="70" width="2.82353" height="2.0438" fill="#BE00E9"/>
<rect x="76.2354" y="75.1094" width="2.82353" height="2.0438" fill="#BE00E9"/>
<rect x="76.2354" y="78.1753" width="2.82353" height="2.0438" fill="#BE00E9"/>
<rect x="76.2354" y="81.241" width="2.82353" height="2.0438" fill="#BE00E9"/>
<rect x="76.2354" y="61.8247" width="2.82353" height="2.0438" fill="#BE00E9"/>
<rect x="76.2354" y="58.759" width="2.82353" height="2.0438" fill="#BE00E9"/>
<rect x="76.2354" y="55.6934" width="2.82353" height="2.0438" fill="#BE00E9"/>
<defs>
<filter id="filter0_d_275_550" x="8.67651" y="25.0474" width="61.7058" height="101.993" filterUnits="userSpaceOnUse" color-interpolation-filters="sRGB">
<feFlood flood-opacity="0" result="BackgroundImageFix"/>
<feColorMatrix in="SourceAlpha" type="matrix" values="0 0 0 0 0 0 0 0 0 0 0 0 0 0 0 0 0 0 127 0" result="hardAlpha"/>
<feOffset dy="4"/>
<feGaussianBlur stdDeviation="2"/>
<feComposite in2="hardAlpha" operator="out"/>
<feColorMatrix type="matrix" values="0 0 0 0 0 0 0 0 0 0 0 0 0 0 0 0 0 0 0.25 0"/>
<feBlend mode="normal" in2="BackgroundImageFix" result="effect1_dropShadow_275_550"/>
<feBlend mode="normal" in="SourceGraphic" in2="effect1_dropShadow_275_550" result="shape"/>
</filter>
<filter id="filter1_d_275_550" x="25.3516" y="54.7654" width="29.2773" height="39.2383" filterUnits="userSpaceOnUse" color-interpolation-filters="sRGB">
<feFlood flood-opacity="0" result="BackgroundImageFix"/>
<feColorMatrix in="SourceAlpha" type="matrix" values="0 0 0 0 0 0 0 0 0 0 0 0 0 0 0 0 0 0 127 0" result="hardAlpha"/>
<feOffset dy="4"/>
<feGaussianBlur stdDeviation="2"/>
<feComposite in2="hardAlpha" operator="out"/>
<feColorMatrix type="matrix" values="0 0 0 0 0 0 0 0 0 0 0 0 0 0 0 0 0 0 0.25 0"/>
<feBlend mode="normal" in2="BackgroundImageFix" result="effect1_dropShadow_275_550"/>
<feBlend mode="normal" in="SourceGraphic" in2="effect1_dropShadow_275_550" result="shape"/>
</filter>
<linearGradient id="paint0_linear_275_550" x1="39.9999" y1="3.06567" x2="39.9999" y2="136.934" gradientUnits="userSpaceOnUse">
<stop stop-color="#AA00D0" stop-opacity="0.95"/>
<stop offset="1" stop-color="#2A0051"/>
</linearGradient>
<linearGradient id="paint1_linear_275_550" x1="66.4433" y1="115.339" x2="63.7602" y2="132.922" gradientUnits="userSpaceOnUse">
<stop stop-color="#EFA7FF" stop-opacity="0.95"/>
<stop offset="1" stop-color="#A40FC5"/>
</linearGradient>
<linearGradient id="paint2_linear_275_550" x1="39.5295" y1="25.5474" x2="39.5295" y2="118.54" gradientUnits="userSpaceOnUse">
<stop stop-color="#DD46FF"/>
<stop offset="1" stop-color="#7800AB"/>
</linearGradient>
<linearGradient id="paint3_linear_275_550" x1="13.7375" y1="4.97369" x2="11.0544" y2="22.5567" gradientUnits="userSpaceOnUse">
<stop stop-color="#EFA7FF" stop-opacity="0.95"/>
<stop offset="1" stop-color="#A40FC5"/>
</linearGradient>
</defs>
</svg>
