<svg width="80" height="140" viewBox="0 0 80 140" fill="none" xmlns="http://www.w3.org/2000/svg">
<rect x="0.5" y="0.5" width="79" height="139" rx="9.5" fill="white" stroke="black"/>
<rect x="4.26465" y="3.56567" width="71.4706" height="132.869" rx="9.5" fill="url(#paint0_linear_275_680)" stroke="black"/>
<path d="M66.4117 115.587C67.9055 115.815 69.17 116.946 69.9908 118.654C70.8107 120.36 71.1705 122.614 70.8606 125.009C70.5506 127.403 69.6325 129.462 68.4113 130.857C67.1886 132.254 65.6859 132.962 64.1921 132.735C62.6981 132.507 61.4328 131.375 60.6119 129.667C59.7922 127.961 59.4323 125.707 59.7422 123.312C60.0521 120.918 60.9703 118.859 62.1915 117.464C63.4142 116.068 64.9177 115.359 66.4117 115.587Z" fill="url(#paint1_linear_275_680)" stroke="#7B5600" stroke-width="0.5"/>
<mask id="path-4-outside-1_275_680" maskUnits="userSpaceOnUse" x="63.6389" y="119.934" width="5" height="9" fill="black">
<rect fill="white" x="63.6389" y="119.934" width="5" height="9"/>
<path d="M64.7482 127.696H64.5568L64.6544 126.708L64.6974 126.712C64.9552 126.719 65.1844 126.675 65.3849 126.579C65.5828 126.485 65.7521 126.354 65.8927 126.184C66.0333 126.018 66.1479 125.826 66.2365 125.61C66.3224 125.397 66.381 125.173 66.4122 124.938L66.545 123.958C66.5503 123.885 66.5581 123.787 66.5685 123.665C66.5789 123.542 66.5789 123.416 66.5685 123.286C66.5581 123.158 66.5268 123.049 66.4747 122.958C66.42 122.869 66.3315 122.822 66.2091 122.817C66.0919 122.815 65.9943 122.848 65.9161 122.919C65.8354 122.989 65.7703 123.08 65.7208 123.192C65.6713 123.304 65.6336 123.417 65.6075 123.532C65.5815 123.649 65.5646 123.751 65.5568 123.837C65.5516 123.91 65.549 123.999 65.549 124.106C65.549 124.213 65.5607 124.32 65.5841 124.427C65.6049 124.533 65.644 124.623 65.7013 124.696C65.756 124.769 65.838 124.805 65.9474 124.805C66.0828 124.811 66.1961 124.772 66.2872 124.688C66.3784 124.605 66.45 124.501 66.5021 124.376C66.5516 124.253 66.5854 124.134 66.6036 124.016L66.8732 124.298C66.8549 124.477 66.8107 124.653 66.7404 124.825C66.6674 124.999 66.5711 125.158 66.4513 125.302C66.3315 125.445 66.1909 125.558 66.0294 125.641C65.868 125.725 65.6896 125.765 65.4943 125.762C65.2495 125.755 65.0503 125.688 64.8966 125.563C64.743 125.438 64.6271 125.278 64.549 125.083C64.4708 124.887 64.4213 124.679 64.4005 124.458C64.3797 124.239 64.3758 124.032 64.3888 123.837C64.4122 123.589 64.4721 123.346 64.5685 123.106C64.6648 122.869 64.7937 122.654 64.9552 122.462C65.1167 122.272 65.3081 122.121 65.5294 122.009C65.7508 121.899 65.9969 121.847 66.2677 121.852C66.5698 121.86 66.8185 121.934 67.0138 122.075C67.2091 122.218 67.3601 122.402 67.4669 122.626C67.5737 122.852 67.644 123.097 67.6779 123.36C67.7091 123.626 67.7117 123.884 67.6857 124.134L67.6271 124.591C67.5776 124.981 67.4799 125.36 67.3341 125.727C67.1883 126.097 66.9969 126.429 66.7599 126.723C66.5203 127.02 66.2338 127.256 65.9005 127.43C65.5672 127.605 65.1831 127.693 64.7482 127.696Z"/>
<path d="M68.0958 121.153H64.0724V120.762H68.0958V121.153Z"/>
</mask>
<path d="M64.7482 127.696H64.5568L64.6544 126.708L64.6974 126.712C64.9552 126.719 65.1844 126.675 65.3849 126.579C65.5828 126.485 65.7521 126.354 65.8927 126.184C66.0333 126.018 66.1479 125.826 66.2365 125.61C66.3224 125.397 66.381 125.173 66.4122 124.938L66.545 123.958C66.5503 123.885 66.5581 123.787 66.5685 123.665C66.5789 123.542 66.5789 123.416 66.5685 123.286C66.5581 123.158 66.5268 123.049 66.4747 122.958C66.42 122.869 66.3315 122.822 66.2091 122.817C66.0919 122.815 65.9943 122.848 65.9161 122.919C65.8354 122.989 65.7703 123.08 65.7208 123.192C65.6713 123.304 65.6336 123.417 65.6075 123.532C65.5815 123.649 65.5646 123.751 65.5568 123.837C65.5516 123.91 65.549 123.999 65.549 124.106C65.549 124.213 65.5607 124.32 65.5841 124.427C65.6049 124.533 65.644 124.623 65.7013 124.696C65.756 124.769 65.838 124.805 65.9474 124.805C66.0828 124.811 66.1961 124.772 66.2872 124.688C66.3784 124.605 66.45 124.501 66.5021 124.376C66.5516 124.253 66.5854 124.134 66.6036 124.016L66.8732 124.298C66.8549 124.477 66.8107 124.653 66.7404 124.825C66.6674 124.999 66.5711 125.158 66.4513 125.302C66.3315 125.445 66.1909 125.558 66.0294 125.641C65.868 125.725 65.6896 125.765 65.4943 125.762C65.2495 125.755 65.0503 125.688 64.8966 125.563C64.743 125.438 64.6271 125.278 64.549 125.083C64.4708 124.887 64.4213 124.679 64.4005 124.458C64.3797 124.239 64.3758 124.032 64.3888 123.837C64.4122 123.589 64.4721 123.346 64.5685 123.106C64.6648 122.869 64.7937 122.654 64.9552 122.462C65.1167 122.272 65.3081 122.121 65.5294 122.009C65.7508 121.899 65.9969 121.847 66.2677 121.852C66.5698 121.86 66.8185 121.934 67.0138 122.075C67.2091 122.218 67.3601 122.402 67.4669 122.626C67.5737 122.852 67.644 123.097 67.6779 123.36C67.7091 123.626 67.7117 123.884 67.6857 124.134L67.6271 124.591C67.5776 124.981 67.4799 125.36 67.3341 125.727C67.1883 126.097 66.9969 126.429 66.7599 126.723C66.5203 127.02 66.2338 127.256 65.9005 127.43C65.5672 127.605 65.1831 127.693 64.7482 127.696Z" fill="#FFB200"/>
<path d="M68.0958 121.153H64.0724V120.762H68.0958V121.153Z" fill="#FFB200"/>
<path d="M64.7482 127.696V127.996L64.75 127.996L64.7482 127.696ZM64.5568 127.696L64.2582 127.667L64.2257 127.996H64.5568V127.696ZM64.6544 126.708L64.6816 126.409L64.3851 126.382L64.3559 126.678L64.6544 126.708ZM64.6974 126.712L64.6702 127.01L64.6792 127.011L64.6883 127.012L64.6974 126.712ZM65.3849 126.579L65.2565 126.308L65.255 126.308L65.3849 126.579ZM65.8927 126.184L65.6634 125.991L65.6619 125.993L65.8927 126.184ZM66.2365 125.61L66.5141 125.724L66.5148 125.722L66.2365 125.61ZM66.4122 124.938L66.1149 124.898L66.1149 124.899L66.4122 124.938ZM66.545 123.958L66.8423 123.998L66.8436 123.989L66.8443 123.979L66.545 123.958ZM66.5685 123.286L66.8675 123.262L66.8675 123.261L66.5685 123.286ZM66.4747 122.958L66.7354 122.809L66.73 122.8L66.4747 122.958ZM66.2091 122.817L66.2219 122.517L66.2158 122.517L66.2091 122.817ZM65.9161 122.919L66.1132 123.145L66.1168 123.142L65.9161 122.919ZM65.6075 123.532L65.315 123.465L65.3147 123.467L65.6075 123.532ZM65.5568 123.837L65.2579 123.81L65.2575 123.815L65.5568 123.837ZM65.5841 124.427L65.8786 124.369L65.8771 124.362L65.5841 124.427ZM65.7013 124.696L65.9414 124.516L65.9372 124.511L65.7013 124.696ZM65.9474 124.805L65.9589 124.505H65.9474V124.805ZM66.5021 124.376L66.779 124.491L66.7802 124.488L66.5021 124.376ZM66.6036 124.016L66.8202 123.809L66.4005 123.371L66.3072 123.97L66.6036 124.016ZM66.8732 124.298L67.1716 124.328L67.1856 124.19L67.0898 124.09L66.8732 124.298ZM66.7404 124.825L67.0172 124.941L67.018 124.939L66.7404 124.825ZM66.0294 125.641L66.167 125.908L66.0294 125.641ZM65.4943 125.762L65.4847 126.062L65.4903 126.062L65.4943 125.762ZM64.4005 124.458L64.6992 124.43L64.6992 124.429L64.4005 124.458ZM64.3888 123.837L64.09 123.808L64.0895 123.817L64.3888 123.837ZM64.5685 123.106L64.2906 122.993L64.2901 122.994L64.5685 123.106ZM64.9552 122.462L64.7265 122.267L64.7252 122.269L64.9552 122.462ZM65.5294 122.009L65.3965 121.74L65.394 121.741L65.5294 122.009ZM66.2677 121.852L66.2755 121.552L66.2735 121.552L66.2677 121.852ZM67.0138 122.075L67.1912 121.833L67.1891 121.831L67.0138 122.075ZM67.4669 122.626L67.7383 122.498L67.7377 122.497L67.4669 122.626ZM67.6779 123.36L67.9758 123.325L67.9754 123.322L67.6779 123.36ZM67.6857 124.134L67.9833 124.172L67.9841 124.165L67.6857 124.134ZM67.6271 124.591L67.3295 124.552L67.3295 124.553L67.6271 124.591ZM67.3341 125.727L67.0553 125.617L67.055 125.617L67.3341 125.727ZM66.7599 126.723L66.9933 126.912L66.9935 126.912L66.7599 126.723ZM64.7482 127.696V127.396H64.5568V127.696V127.996H64.7482V127.696ZM64.5568 127.696L64.8553 127.726L64.953 126.737L64.6544 126.708L64.3559 126.678L64.2582 127.667L64.5568 127.696ZM64.6544 126.708L64.6273 127.007L64.6702 127.01L64.6974 126.712L64.7245 126.413L64.6816 126.409L64.6544 126.708ZM64.6974 126.712L64.6883 127.012C64.9865 127.021 65.2646 126.97 65.5148 126.849L65.3849 126.579L65.255 126.308C65.1042 126.381 64.9239 126.418 64.7065 126.412L64.6974 126.712ZM65.3849 126.579L65.5133 126.85C65.7509 126.737 65.9551 126.579 66.1235 126.376L65.8927 126.184L65.6619 125.993C65.5491 126.128 65.4147 126.233 65.2565 126.308L65.3849 126.579ZM65.8927 126.184L66.122 126.378C66.2842 126.186 66.4145 125.967 66.5141 125.724L66.2365 125.61L65.9588 125.496C65.8813 125.686 65.7825 125.85 65.6634 125.991L65.8927 126.184ZM66.2365 125.61L66.5148 125.722C66.6103 125.485 66.6751 125.236 66.7096 124.978L66.4122 124.938L66.1149 124.899C66.0868 125.109 66.0345 125.308 65.9581 125.498L66.2365 125.61ZM66.4122 124.938L66.7095 124.979L66.8423 123.998L66.545 123.958L66.2478 123.917L66.1149 124.898L66.4122 124.938ZM66.545 123.958L66.8443 123.979C66.8494 123.908 66.857 123.812 66.8674 123.69L66.5685 123.665L66.2696 123.639C66.2591 123.762 66.2512 123.862 66.2458 123.936L66.545 123.958ZM66.5685 123.665L66.8674 123.69C66.8793 123.55 66.8792 123.408 66.8675 123.262L66.5685 123.286L66.2694 123.31C66.2786 123.425 66.2785 123.534 66.2696 123.639L66.5685 123.665ZM66.5685 123.286L66.8675 123.261C66.8543 123.1 66.8133 122.946 66.7352 122.809L66.4747 122.958L66.2143 123.107C66.2403 123.152 66.2619 123.217 66.2695 123.31L66.5685 123.286ZM66.4747 122.958L66.73 122.8C66.6132 122.611 66.4234 122.526 66.2219 122.517L66.2091 122.817L66.1964 123.117C66.2227 123.118 66.2299 123.123 66.2269 123.121C66.2255 123.121 66.2234 123.119 66.2213 123.117C66.2192 123.115 66.2187 123.114 66.2195 123.115L66.4747 122.958ZM66.2091 122.817L66.2158 122.517C66.0317 122.513 65.8571 122.568 65.7154 122.696L65.9161 122.919L66.1168 123.142C66.1314 123.129 66.1521 123.116 66.2024 123.117L66.2091 122.817ZM65.9161 122.919L65.7191 122.692C65.6007 122.796 65.5111 122.924 65.4464 123.071L65.7208 123.192L65.9952 123.313C66.0295 123.236 66.0701 123.182 66.1132 123.145L65.9161 122.919ZM65.7208 123.192L65.4464 123.071C65.3895 123.2 65.3455 123.331 65.315 123.465L65.6075 123.532L65.9001 123.598C65.9217 123.503 65.9532 123.408 65.9952 123.313L65.7208 123.192ZM65.6075 123.532L65.3147 123.467C65.2869 123.592 65.2673 123.707 65.258 123.81L65.5568 123.837L65.8555 123.864C65.8618 123.794 65.8762 123.706 65.9004 123.597L65.6075 123.532ZM65.5568 123.837L65.2575 123.815C65.2516 123.898 65.249 123.995 65.249 124.106H65.549H65.849C65.849 124.004 65.8515 123.921 65.856 123.858L65.5568 123.837ZM65.549 124.106H65.249C65.249 124.235 65.2631 124.363 65.2911 124.491L65.5841 124.427L65.8771 124.362C65.8582 124.276 65.849 124.191 65.849 124.106H65.549ZM65.5841 124.427L65.2897 124.484C65.318 124.629 65.374 124.765 65.4654 124.881L65.7013 124.696L65.9372 124.511C65.914 124.481 65.8919 124.437 65.8786 124.369L65.5841 124.427ZM65.7013 124.696L65.4613 124.876C65.5843 125.04 65.7648 125.105 65.9474 125.105V124.805V124.505C65.9257 124.505 65.9209 124.502 65.9257 124.504C65.928 124.505 65.9314 124.507 65.9348 124.51C65.9383 124.512 65.9404 124.515 65.9413 124.516L65.7013 124.696ZM65.9474 124.805L65.9359 125.105C66.1417 125.113 66.3343 125.052 66.4897 124.91L66.2872 124.688L66.0848 124.467C66.0578 124.491 66.0239 124.508 65.9589 124.506L65.9474 124.805ZM66.2872 124.688L66.4897 124.91C66.6161 124.794 66.7117 124.653 66.779 124.491L66.5021 124.376L66.2252 124.26C66.1882 124.349 66.1407 124.416 66.0848 124.467L66.2872 124.688ZM66.5021 124.376L66.7802 124.488C66.8374 124.347 66.8779 124.205 66.9001 124.062L66.6036 124.016L66.3072 123.97C66.2929 124.062 66.2658 124.16 66.2239 124.263L66.5021 124.376ZM66.6036 124.016L66.387 124.224L66.6566 124.505L66.8732 124.298L67.0898 124.09L66.8202 123.809L66.6036 124.016ZM66.8732 124.298L66.5747 124.267C66.5595 124.418 66.5224 124.565 66.4627 124.711L66.7404 124.825L67.018 124.939C67.0989 124.741 67.1504 124.537 67.1716 124.328L66.8732 124.298ZM66.7404 124.825L66.4636 124.709C66.4021 124.856 66.3214 124.989 66.2212 125.109L66.4513 125.302L66.6814 125.494C66.8208 125.327 66.9328 125.143 67.0172 124.941L66.7404 124.825ZM66.4513 125.302L66.2212 125.109C66.1263 125.223 66.0168 125.31 65.8918 125.375L66.0294 125.641L66.167 125.908C66.3649 125.806 66.5367 125.667 66.6814 125.494L66.4513 125.302ZM66.0294 125.641L65.8918 125.375C65.7774 125.434 65.6481 125.464 65.4983 125.462L65.4943 125.762L65.4903 126.062C65.731 126.066 65.9586 126.016 66.167 125.908L66.0294 125.641ZM65.4943 125.762L65.5038 125.463C65.3088 125.456 65.1776 125.405 65.0859 125.331L64.8966 125.563L64.7073 125.796C64.9229 125.971 65.1901 126.053 65.4847 126.062L65.4943 125.762ZM64.8966 125.563L65.0859 125.331C64.9743 125.24 64.8879 125.122 64.8275 124.971L64.549 125.083L64.2704 125.194C64.3663 125.434 64.5116 125.637 64.7073 125.796L64.8966 125.563ZM64.549 125.083L64.8275 124.971C64.7606 124.804 64.7175 124.624 64.6992 124.43L64.4005 124.458L64.1018 124.486C64.1252 124.734 64.181 124.971 64.2704 125.194L64.549 125.083ZM64.4005 124.458L64.6992 124.429C64.6797 124.225 64.6763 124.034 64.6881 123.857L64.3888 123.837L64.0895 123.817C64.0752 124.03 64.0797 124.253 64.1019 124.486L64.4005 124.458ZM64.3888 123.837L64.6875 123.865C64.7081 123.647 64.7608 123.432 64.8468 123.218L64.5685 123.106L64.2901 122.994C64.1835 123.26 64.1164 123.531 64.0901 123.808L64.3888 123.837ZM64.5685 123.106L64.8464 123.219C64.9312 123.011 65.0441 122.823 65.1852 122.654L64.9552 122.462L64.7252 122.269C64.5434 122.486 64.3985 122.728 64.2906 122.993L64.5685 123.106ZM64.9552 122.462L65.1839 122.656C65.3196 122.496 65.4794 122.37 65.6648 122.276L65.5294 122.009L65.394 121.741C65.1368 121.871 64.9137 122.047 64.7265 122.267L64.9552 122.462ZM65.5294 122.009L65.6623 122.278C65.8365 122.191 66.0344 122.148 66.2619 122.152L66.2677 121.852L66.2735 121.552C65.9594 121.546 65.665 121.607 65.3965 121.74L65.5294 122.009ZM66.2677 121.852L66.2599 122.152C66.5172 122.159 66.7033 122.221 66.8385 122.318L67.0138 122.075L67.1891 121.831C66.9337 121.648 66.6223 121.561 66.2755 121.552L66.2677 121.852ZM67.0138 122.075L66.8364 122.317C66.9907 122.43 67.1101 122.574 67.1961 122.755L67.4669 122.626L67.7377 122.497C67.6102 122.229 67.4275 122.006 67.1912 121.833L67.0138 122.075ZM67.4669 122.626L67.1955 122.754C67.2882 122.95 67.3502 123.165 67.3803 123.398L67.6779 123.36L67.9754 123.322C67.9378 123.03 67.8592 122.754 67.7383 122.498L67.4669 122.626ZM67.6779 123.36L67.3799 123.395C67.4087 123.64 67.4109 123.876 67.3873 124.102L67.6857 124.134L67.9841 124.165C68.0125 123.891 68.0095 123.611 67.9758 123.325L67.6779 123.36ZM67.6857 124.134L67.3881 124.095L67.3295 124.552L67.6271 124.591L67.9246 124.629L67.9832 124.172L67.6857 124.134ZM67.6271 124.591L67.3295 124.553C67.2832 124.918 67.1918 125.273 67.0553 125.617L67.3341 125.727L67.6129 125.838C67.768 125.447 67.872 125.044 67.9247 124.628L67.6271 124.591ZM67.3341 125.727L67.055 125.617C66.9197 125.96 66.7432 126.266 66.5262 126.535L66.7599 126.723L66.9935 126.912C67.2505 126.592 67.4568 126.234 67.6132 125.837L67.3341 125.727ZM66.7599 126.723L66.5264 126.535C66.3123 126.8 66.0578 127.009 65.7614 127.165L65.9005 127.43L66.0396 127.696C66.4099 127.502 66.7283 127.24 66.9933 126.912L66.7599 126.723ZM65.9005 127.43L65.7614 127.165C65.4766 127.314 65.1409 127.394 64.7464 127.396L64.7482 127.696L64.75 127.996C65.2252 127.993 65.6577 127.896 66.0396 127.696L65.9005 127.43Z" fill="black" mask="url(#path-4-outside-1_275_680)"/>
<path d="M68.0958 121.153V121.453H68.3958V121.153H68.0958ZM64.0724 121.153H63.7724V121.453H64.0724V121.153ZM64.0724 120.762V120.462H63.7724V120.762H64.0724ZM68.0958 120.762H68.3958V120.462H68.0958V120.762ZM68.0958 121.153V120.853H64.0724V121.153V121.453H68.0958V121.153ZM64.0724 121.153H64.3724V120.762H64.0724H63.7724V121.153H64.0724ZM64.0724 120.762V121.062H68.0958V120.762V120.462H64.0724V120.762ZM68.0958 120.762H67.7958V121.153H68.0958H68.3958V120.762H68.0958Z" fill="black" mask="url(#path-4-outside-1_275_680)"/>
<g filter="url(#filter0_d_275_680)">
<ellipse cx="39.5295" cy="72.0437" rx="26.3529" ry="46.4963" fill="url(#paint2_linear_275_680)" shape-rendering="crispEdges"/>
<ellipse cx="39.5295" cy="72.0437" rx="26.3529" ry="46.4963" stroke="#7B5600" shape-rendering="crispEdges"/>
</g>
<g filter="url(#filter1_d_275_680)">
<mask id="path-7-outside-2_275_680" maskUnits="userSpaceOnUse" x="27" y="54.613" width="26" height="37" fill="black">
<rect fill="white" x="27" y="54.613" width="26" height="37"/>
<path d="M45.1758 55.8826H45.9961V60.3748H45.6641C44.1797 60.3748 42.8581 60.5961 41.6992 61.0388C40.5404 61.4815 39.5573 62.113 38.75 62.9333C37.9557 63.7406 37.3438 64.7172 36.9141 65.863C36.4974 67.0089 36.2891 68.2914 36.2891 69.7107V74.4373C36.2891 75.4529 36.3867 76.3513 36.582 77.1326C36.7904 77.9008 37.0833 78.5453 37.4609 79.0662C37.8516 79.574 38.3073 79.9581 38.8281 80.2185C39.349 80.4659 39.9349 80.5896 40.5859 80.5896C41.1979 80.5896 41.7513 80.4594 42.2461 80.199C42.7539 79.9386 43.1836 79.574 43.5352 79.1052C43.8997 78.6235 44.1732 78.0636 44.3555 77.4255C44.5508 76.7745 44.6484 76.0649 44.6484 75.2966C44.6484 74.5284 44.5508 73.8188 44.3555 73.1677C44.1732 72.5167 43.8997 71.9568 43.5352 71.488C43.1706 71.0063 42.7279 70.6352 42.207 70.3748C41.6862 70.1143 41.1003 69.9841 40.4492 69.9841C39.5638 69.9841 38.7826 70.1925 38.1055 70.6091C37.4414 71.0128 36.9206 71.5336 36.543 72.1716C36.1654 72.8097 35.9635 73.4802 35.9375 74.1833L34.2383 73.0896C34.2773 72.087 34.4857 71.1365 34.8633 70.238C35.2539 69.3396 35.7878 68.5453 36.4648 67.8552C37.1549 67.1521 37.9818 66.6052 38.9453 66.2146C39.9089 65.811 40.9961 65.6091 42.207 65.6091C43.5352 65.6091 44.7005 65.863 45.7031 66.3708C46.7188 66.8787 47.5651 67.5753 48.2422 68.4607C48.9193 69.3461 49.4271 70.3682 49.7656 71.5271C50.1042 72.686 50.2734 73.9229 50.2734 75.238C50.2734 76.6182 50.0456 77.9008 49.5898 79.0857C49.1471 80.2706 48.5026 81.3057 47.6562 82.1912C46.8229 83.0766 45.8203 83.7667 44.6484 84.2615C43.4766 84.7563 42.1615 85.0037 40.7031 85.0037C39.1927 85.0037 37.819 84.7302 36.582 84.1833C35.3581 83.6235 34.3034 82.8422 33.418 81.8396C32.5326 80.837 31.849 79.6456 31.3672 78.2654C30.8984 76.8852 30.6641 75.3748 30.6641 73.7341V71.5466C30.6641 69.255 30.9961 67.1586 31.6602 65.2576C32.3372 63.3435 33.3073 61.6899 34.5703 60.2966C35.8333 58.8904 37.3568 57.8031 39.1406 57.0349C40.9245 56.2667 42.9362 55.8826 45.1758 55.8826Z"/>
<path d="M28.3203 88.5193H51.6602V90.4724H28.3203V88.5193Z"/>
</mask>
<path d="M45.1758 55.8826H45.9961V60.3748H45.6641C44.1797 60.3748 42.8581 60.5961 41.6992 61.0388C40.5404 61.4815 39.5573 62.113 38.75 62.9333C37.9557 63.7406 37.3438 64.7172 36.9141 65.863C36.4974 67.0089 36.2891 68.2914 36.2891 69.7107V74.4373C36.2891 75.4529 36.3867 76.3513 36.582 77.1326C36.7904 77.9008 37.0833 78.5453 37.4609 79.0662C37.8516 79.574 38.3073 79.9581 38.8281 80.2185C39.349 80.4659 39.9349 80.5896 40.5859 80.5896C41.1979 80.5896 41.7513 80.4594 42.2461 80.199C42.7539 79.9386 43.1836 79.574 43.5352 79.1052C43.8997 78.6235 44.1732 78.0636 44.3555 77.4255C44.5508 76.7745 44.6484 76.0649 44.6484 75.2966C44.6484 74.5284 44.5508 73.8188 44.3555 73.1677C44.1732 72.5167 43.8997 71.9568 43.5352 71.488C43.1706 71.0063 42.7279 70.6352 42.207 70.3748C41.6862 70.1143 41.1003 69.9841 40.4492 69.9841C39.5638 69.9841 38.7826 70.1925 38.1055 70.6091C37.4414 71.0128 36.9206 71.5336 36.543 72.1716C36.1654 72.8097 35.9635 73.4802 35.9375 74.1833L34.2383 73.0896C34.2773 72.087 34.4857 71.1365 34.8633 70.238C35.2539 69.3396 35.7878 68.5453 36.4648 67.8552C37.1549 67.1521 37.9818 66.6052 38.9453 66.2146C39.9089 65.811 40.9961 65.6091 42.207 65.6091C43.5352 65.6091 44.7005 65.863 45.7031 66.3708C46.7188 66.8787 47.5651 67.5753 48.2422 68.4607C48.9193 69.3461 49.4271 70.3682 49.7656 71.5271C50.1042 72.686 50.2734 73.9229 50.2734 75.238C50.2734 76.6182 50.0456 77.9008 49.5898 79.0857C49.1471 80.2706 48.5026 81.3057 47.6562 82.1912C46.8229 83.0766 45.8203 83.7667 44.6484 84.2615C43.4766 84.7563 42.1615 85.0037 40.7031 85.0037C39.1927 85.0037 37.819 84.7302 36.582 84.1833C35.3581 83.6235 34.3034 82.8422 33.418 81.8396C32.5326 80.837 31.849 79.6456 31.3672 78.2654C30.8984 76.8852 30.6641 75.3748 30.6641 73.7341V71.5466C30.6641 69.255 30.9961 67.1586 31.6602 65.2576C32.3372 63.3435 33.3073 61.6899 34.5703 60.2966C35.8333 58.8904 37.3568 57.8031 39.1406 57.0349C40.9245 56.2667 42.9362 55.8826 45.1758 55.8826Z" fill="#FFB200"/>
<path d="M28.3203 88.5193H51.6602V90.4724H28.3203V88.5193Z" fill="#FFB200"/>
<path d="M45.9961 55.8826H46.9961V54.8826H45.9961V55.8826ZM45.9961 60.3748V61.3748H46.9961V60.3748H45.9961ZM38.75 62.9333L38.0373 62.2319L38.0372 62.232L38.75 62.9333ZM36.9141 65.863L35.9777 65.5119L35.9743 65.5213L36.9141 65.863ZM36.582 77.1326L35.6119 77.3751L35.6143 77.3847L35.6169 77.3943L36.582 77.1326ZM37.4609 79.0662L36.6513 79.6531L36.6597 79.6646L36.6683 79.6759L37.4609 79.0662ZM38.8281 80.2185L38.3809 81.1129L38.3899 81.1175L38.3991 81.1218L38.8281 80.2185ZM42.2461 80.199L41.7897 79.3091L41.7803 79.3141L42.2461 80.199ZM43.5352 79.1052L42.7377 78.5018L42.7352 78.5052L43.5352 79.1052ZM44.3555 77.4255L43.3976 77.1382L43.3939 77.1508L44.3555 77.4255ZM44.3555 73.1677L43.3925 73.4374L43.395 73.4462L43.3976 73.4551L44.3555 73.1677ZM43.5352 71.488L42.7377 72.0915L42.7458 72.102L43.5352 71.488ZM38.1055 70.6091L38.6249 71.4637L38.6296 71.4608L38.1055 70.6091ZM35.9375 74.1833L35.3963 75.0242L36.8719 75.974L36.9368 74.2204L35.9375 74.1833ZM34.2383 73.0896L33.239 73.0507L33.2168 73.6213L33.697 73.9305L34.2383 73.0896ZM34.8633 70.238L33.9461 69.8393L33.9414 69.8506L34.8633 70.238ZM36.4648 67.8552L35.7512 67.1548L35.751 67.1549L36.4648 67.8552ZM38.9453 66.2146L39.321 67.1414L39.3317 67.1369L38.9453 66.2146ZM45.7031 66.3708L45.2513 67.263L45.2559 67.2653L45.7031 66.3708ZM48.2422 68.4607L47.4478 69.0681L48.2422 68.4607ZM49.5898 79.0857L48.6565 78.7267L48.6531 78.7357L49.5898 79.0857ZM47.6562 82.1912L46.9334 81.5002L46.928 81.5058L47.6562 82.1912ZM36.582 84.1833L36.166 85.0928L36.1777 85.098L36.582 84.1833ZM31.3672 78.2654L30.4203 78.587L30.4231 78.5949L31.3672 78.2654ZM31.6602 65.2576L30.7174 64.9241L30.7161 64.9278L31.6602 65.2576ZM34.5703 60.2966L35.3112 60.9683L35.3143 60.9648L34.5703 60.2966ZM39.1406 57.0349L38.7451 56.1165L39.1406 57.0349ZM45.1758 55.8826V56.8826H45.9961V55.8826V54.8826H45.1758V55.8826ZM45.9961 55.8826H44.9961V60.3748H45.9961H46.9961V55.8826H45.9961ZM45.9961 60.3748V59.3748H45.6641V60.3748V61.3748H45.9961V60.3748ZM45.6641 60.3748V59.3748C44.0811 59.3748 42.6351 59.6108 41.3424 60.1047L41.6992 61.0388L42.0561 61.973C43.081 61.5814 44.2783 61.3748 45.6641 61.3748V60.3748ZM41.6992 61.0388L41.3424 60.1047C40.0601 60.5945 38.9528 61.3016 38.0373 62.2319L38.75 62.9333L39.4627 63.6348C40.1618 62.9244 41.0206 62.3686 42.0561 61.973L41.6992 61.0388ZM38.75 62.9333L38.0372 62.232C37.137 63.1469 36.4526 64.2457 35.9777 65.5119L36.9141 65.863L37.8504 66.2142C38.2349 65.1887 38.7745 64.3343 39.4628 63.6347L38.75 62.9333ZM36.9141 65.863L35.9743 65.5213C35.5118 66.793 35.2891 68.1936 35.2891 69.7107H36.2891H37.2891C37.2891 68.3892 37.483 67.2247 37.8539 66.2048L36.9141 65.863ZM36.2891 69.7107H35.2891V74.4373H36.2891H37.2891V69.7107H36.2891ZM36.2891 74.4373H35.2891C35.2891 75.5144 35.3924 76.4971 35.6119 77.3751L36.582 77.1326L37.5522 76.89C37.3811 76.2056 37.2891 75.3913 37.2891 74.4373H36.2891ZM36.582 77.1326L35.6169 77.3943C35.8497 78.2527 36.188 79.014 36.6513 79.6531L37.4609 79.0662L38.2705 78.4792C37.9787 78.0767 37.7311 77.5489 37.5472 76.8708L36.582 77.1326ZM37.4609 79.0662L36.6683 79.6759C37.1417 80.2913 37.7118 80.7784 38.3809 81.1129L38.8281 80.2185L39.2753 79.3241C38.9028 79.1378 38.5614 78.8566 38.2536 78.4565L37.4609 79.0662ZM38.8281 80.2185L38.3991 81.1218C39.0703 81.4406 39.8057 81.5896 40.5859 81.5896V80.5896V79.5896C40.0641 79.5896 39.6276 79.4912 39.2572 79.3152L38.8281 80.2185ZM40.5859 80.5896V81.5896C41.3445 81.5896 42.0602 81.4269 42.7118 81.0839L42.2461 80.199L41.7803 79.3141C41.4424 79.4919 41.0513 79.5896 40.5859 79.5896V80.5896ZM42.2461 80.199L42.7024 81.0888C43.349 80.7572 43.895 80.2921 44.3352 79.7052L43.5352 79.1052L42.7352 78.5052C42.4722 78.8559 42.1588 79.1199 41.7898 79.3092L42.2461 80.199ZM43.5352 79.1052L44.3326 79.7087C44.7787 79.1192 45.1041 78.4454 45.317 77.7003L44.3555 77.4255L43.3939 77.1508C43.2422 77.6818 43.0208 78.1278 42.7378 78.5018L43.5352 79.1052ZM44.3555 77.4255L45.3133 77.7129C45.5399 76.9574 45.6484 76.1497 45.6484 75.2966H44.6484H43.6484C43.6484 75.98 43.5616 76.5916 43.3976 77.1382L44.3555 77.4255ZM44.6484 75.2966H45.6484C45.6484 74.4435 45.5399 73.6359 45.3133 72.8804L44.3555 73.1677L43.3976 73.4551C43.5616 74.0017 43.6484 74.6133 43.6484 75.2966H44.6484ZM44.3555 73.1677L45.3184 72.8981C45.106 72.1393 44.779 71.4585 44.3245 70.8741L43.5352 71.488L42.7458 72.102C43.0205 72.4551 43.2404 72.8941 43.3925 73.4374L44.3555 73.1677ZM43.5352 71.488L44.3326 70.8846C43.8788 70.2849 43.3179 69.8121 42.6542 69.4803L42.207 70.3748L41.7598 71.2692C42.1379 71.4582 42.4624 71.7276 42.7378 72.0915L43.5352 71.488ZM42.207 70.3748L42.6542 69.4803C41.9789 69.1427 41.237 68.9841 40.4492 68.9841V69.9841V70.9841C40.9635 70.9841 41.3935 71.086 41.7598 71.2692L42.207 70.3748ZM40.4492 69.9841V68.9841C39.4004 68.9841 38.4335 69.2331 37.5814 69.7575L38.1055 70.6091L38.6296 71.4608C39.1316 71.1519 39.7272 70.9841 40.4492 70.9841V69.9841ZM38.1055 70.6091L37.5861 69.7546C36.7886 70.2393 36.1477 70.8761 35.6824 71.6623L36.543 72.1716L37.4035 72.681C37.6934 72.1911 38.0942 71.7862 38.6249 71.4637L38.1055 70.6091ZM36.543 72.1716L35.6824 71.6623C35.2246 72.4358 34.9707 73.2677 34.9382 74.1463L35.9375 74.1833L36.9368 74.2204C36.9564 73.6928 37.1061 73.1835 37.4035 72.681L36.543 72.1716ZM35.9375 74.1833L36.4787 73.3425L34.7795 72.2487L34.2383 73.0896L33.697 73.9305L35.3963 75.0242L35.9375 74.1833ZM34.2383 73.0896L35.2375 73.1285C35.2721 72.2422 35.4554 71.4101 35.7852 70.6255L34.8633 70.238L33.9414 69.8506C33.5159 70.8629 33.2826 71.9318 33.239 73.0507L34.2383 73.0896ZM34.8633 70.238L35.7803 70.6368C36.1229 69.8489 36.5883 69.1572 37.1787 68.5556L36.4648 67.8552L35.751 67.1549C34.9872 67.9334 34.3849 68.8303 33.9462 69.8393L34.8633 70.238ZM36.4648 67.8552L37.1785 68.5557C37.7674 67.9557 38.4773 67.4834 39.321 67.1413L38.9453 66.2146L38.5696 65.2879C37.4862 65.7271 36.5425 66.3485 35.7512 67.1548L36.4648 67.8552ZM38.9453 66.2146L39.3317 67.1369C40.155 66.7921 41.1079 66.6091 42.207 66.6091V65.6091V64.6091C40.8843 64.6091 39.6627 64.8299 38.5589 65.2923L38.9453 66.2146ZM42.207 65.6091V66.6091C43.4066 66.6091 44.412 66.8379 45.2513 67.2629L45.7031 66.3708L46.155 65.4788C44.989 64.8882 43.6638 64.6091 42.207 64.6091V65.6091ZM45.7031 66.3708L45.2559 67.2653C46.1381 67.7064 46.8649 68.3059 47.4478 69.0681L48.2422 68.4607L49.0365 67.8532C48.2653 66.8447 47.2994 66.0509 46.1503 65.4764L45.7031 66.3708ZM48.2422 68.4607L47.4478 69.0681C48.0441 69.8478 48.4989 70.7571 48.8057 71.8075L49.7656 71.5271L50.7255 71.2467C50.3553 69.9794 49.7945 68.8444 49.0365 67.8532L48.2422 68.4607ZM49.7656 71.5271L48.8057 71.8075C49.1154 72.8675 49.2734 74.0094 49.2734 75.238H50.2734H51.2734C51.2734 73.8364 51.0929 72.5044 50.7255 71.2467L49.7656 71.5271ZM50.2734 75.238H49.2734C49.2734 76.5062 49.0645 77.666 48.6565 78.7267L49.5898 79.0857L50.5232 79.4447C51.0267 78.1356 51.2734 76.7302 51.2734 75.238H50.2734ZM49.5898 79.0857L48.6531 78.7357C48.2562 79.7979 47.683 80.716 46.9334 81.5002L47.6562 82.1912L48.3791 82.8821C49.3222 81.8955 50.038 80.7433 50.5266 79.4357L49.5898 79.0857ZM47.6562 82.1912L46.928 81.5058C46.1945 82.2852 45.3091 82.897 44.2595 83.3402L44.6484 84.2615L45.0374 85.1827C46.3315 84.6363 47.4513 83.868 48.3845 82.8765L47.6562 82.1912ZM44.6484 84.2615L44.2595 83.3402C43.2274 83.776 42.0473 84.0037 40.7031 84.0037V85.0037V86.0037C42.2756 86.0037 43.7257 85.7365 45.0374 85.1827L44.6484 84.2615ZM40.7031 85.0037V84.0037C39.3157 84.0037 38.0819 83.7531 36.9864 83.2687L36.582 84.1833L36.1777 85.098C37.5561 85.7074 39.0698 86.0037 40.7031 86.0037V85.0037ZM36.582 84.1833L36.998 83.274C35.9005 82.7719 34.9597 82.0747 34.1675 81.1777L33.418 81.8396L32.6684 82.5015C33.6471 83.6097 34.8156 84.475 36.166 85.0927L36.582 84.1833ZM33.418 81.8396L34.1675 81.1777C33.3756 80.2809 32.7544 79.2051 32.3113 77.9358L31.3672 78.2654L30.4231 78.5949C30.9435 80.0861 31.6896 81.3931 32.6684 82.5015L33.418 81.8396ZM31.3672 78.2654L32.3141 77.9438C31.8846 76.6793 31.6641 75.2789 31.6641 73.7341H30.6641H29.6641C29.6641 75.4706 29.9123 77.0911 30.4203 78.587L31.3672 78.2654ZM30.6641 73.7341H31.6641V71.5466H30.6641H29.6641V73.7341H30.6641ZM30.6641 71.5466H31.6641C31.6641 69.352 31.9819 67.3689 32.6042 65.5873L31.6602 65.2576L30.7161 64.9278C30.0103 66.9484 29.6641 69.158 29.6641 71.5466H30.6641ZM31.6602 65.2576L32.6029 65.5911C33.2393 63.7919 34.1441 62.2557 35.3112 60.9683L34.5703 60.2966L33.8294 59.625C32.4705 61.124 31.4351 62.8951 30.7174 64.9241L31.6602 65.2576ZM34.5703 60.2966L35.3143 60.9648C36.4779 59.6692 37.8814 58.666 39.5362 57.9534L39.1406 57.0349L38.7451 56.1165C36.8321 56.9403 35.1887 58.1115 33.8263 59.6284L34.5703 60.2966ZM39.1406 57.0349L39.5362 57.9534C41.1774 57.2465 43.0516 56.8826 45.1758 56.8826V55.8826V54.8826C42.8208 54.8826 40.6715 55.2868 38.7451 56.1165L39.1406 57.0349Z" fill="black" mask="url(#path-7-outside-2_275_680)"/>
<path d="M28.3203 88.5193V87.5193H27.3203V88.5193H28.3203ZM51.6602 88.5193H52.6602V87.5193H51.6602V88.5193ZM51.6602 90.4724V91.4724H52.6602V90.4724H51.6602ZM28.3203 90.4724H27.3203V91.4724H28.3203V90.4724ZM28.3203 88.5193V89.5193H51.6602V88.5193V87.5193H28.3203V88.5193ZM51.6602 88.5193H50.6602V90.4724H51.6602H52.6602V88.5193H51.6602ZM51.6602 90.4724V89.4724H28.3203V90.4724V91.4724H51.6602V90.4724ZM28.3203 90.4724H29.3203V88.5193H28.3203H27.3203V90.4724H28.3203Z" fill="black" mask="url(#path-7-outside-2_275_680)"/>
</g>
<path d="M13.7056 5.22167C15.1995 5.44972 16.464 6.58097 17.2848 8.2892C18.1046 9.99542 18.4644 12.2494 18.1545 14.6439C17.8446 17.0384 16.9265 19.0973 15.7052 20.4921C14.4825 21.8885 12.9799 22.5975 11.486 22.3696C9.99202 22.1417 8.72675 21.0103 7.90588 19.3019C7.08612 17.5957 6.72622 15.3416 7.03615 12.9473C7.34609 10.5529 8.26424 8.49383 9.48541 7.09906C10.7082 5.70252 12.2116 4.99369 13.7056 5.22167Z" fill="url(#paint3_linear_275_680)" stroke="#7B5600" stroke-width="0.5"/>
<g opacity="0.6">
<mask id="path-10-outside-3_275_680" maskUnits="userSpaceOnUse" x="9.76465" y="9.13135" width="5" height="9" fill="black">
<rect fill="white" x="9.76465" y="9.13135" width="5" height="9"/>
<path d="M13.5712 10.3696H13.7626L13.6649 11.3579L13.622 11.354C13.3641 11.3462 13.135 11.3905 12.9345 11.4868C12.7365 11.5806 12.5673 11.7121 12.4266 11.8813C12.286 12.048 12.1714 12.2394 12.0829 12.4556C11.997 12.6691 11.9384 12.8931 11.9071 13.1274L11.7743 14.1079C11.7691 14.1808 11.7613 14.2785 11.7509 14.4009C11.7404 14.5233 11.7404 14.6496 11.7509 14.7798C11.7613 14.9074 11.7925 15.0168 11.8446 15.1079C11.8993 15.1965 11.9878 15.2433 12.1102 15.2485C12.2274 15.2511 12.3251 15.2173 12.4032 15.147C12.4839 15.0767 12.549 14.9855 12.5985 14.8735C12.648 14.7616 12.6858 14.6483 12.7118 14.5337C12.7378 14.4165 12.7548 14.3149 12.7626 14.229C12.7678 14.1561 12.7704 14.0662 12.7704 13.9595C12.7704 13.8527 12.7587 13.7459 12.7352 13.6392C12.7144 13.5324 12.6753 13.4425 12.618 13.3696C12.5634 13.2967 12.4813 13.2603 12.372 13.2603C12.2365 13.255 12.1233 13.2941 12.0321 13.3774C11.941 13.4608 11.8694 13.5649 11.8173 13.6899C11.7678 13.8123 11.7339 13.9321 11.7157 14.0493L11.4462 13.7681C11.4644 13.5884 11.5087 13.4126 11.579 13.2407C11.6519 13.0662 11.7483 12.9074 11.868 12.7642C11.9878 12.6209 12.1285 12.5076 12.2899 12.4243C12.4514 12.341 12.6298 12.3006 12.8251 12.3032C13.0699 12.311 13.2691 12.3774 13.4227 12.5024C13.5764 12.6274 13.6923 12.7876 13.7704 12.9829C13.8485 13.1782 13.898 13.3866 13.9188 13.6079C13.9397 13.8267 13.9436 14.0337 13.9305 14.229C13.9071 14.4764 13.8472 14.7199 13.7509 14.9595C13.6545 15.1965 13.5256 15.4113 13.3641 15.604C13.2027 15.7941 13.0113 15.9451 12.7899 16.0571C12.5686 16.1665 12.3225 16.2186 12.0516 16.2134C11.7496 16.2056 11.5009 16.1313 11.3055 15.9907C11.1102 15.8475 10.9592 15.6639 10.8524 15.4399C10.7457 15.2134 10.6753 14.9686 10.6415 14.7056C10.6102 14.4399 10.6076 14.1821 10.6337 13.9321L10.6923 13.4751C10.7417 13.0845 10.8394 12.7056 10.9852 12.3384C11.1311 11.9686 11.3225 11.6366 11.5595 11.3423C11.799 11.0454 12.0855 10.8097 12.4188 10.6353C12.7522 10.4608 13.1363 10.3722 13.5712 10.3696Z"/>
<path d="M10.2235 16.9126H14.247V17.3032H10.2235V16.9126Z"/>
</mask>
<path d="M13.5712 10.3696H13.7626L13.6649 11.3579L13.622 11.354C13.3641 11.3462 13.135 11.3905 12.9345 11.4868C12.7365 11.5806 12.5673 11.7121 12.4266 11.8813C12.286 12.048 12.1714 12.2394 12.0829 12.4556C11.997 12.6691 11.9384 12.8931 11.9071 13.1274L11.7743 14.1079C11.7691 14.1808 11.7613 14.2785 11.7509 14.4009C11.7404 14.5233 11.7404 14.6496 11.7509 14.7798C11.7613 14.9074 11.7925 15.0168 11.8446 15.1079C11.8993 15.1965 11.9878 15.2433 12.1102 15.2485C12.2274 15.2511 12.3251 15.2173 12.4032 15.147C12.4839 15.0767 12.549 14.9855 12.5985 14.8735C12.648 14.7616 12.6858 14.6483 12.7118 14.5337C12.7378 14.4165 12.7548 14.3149 12.7626 14.229C12.7678 14.1561 12.7704 14.0662 12.7704 13.9595C12.7704 13.8527 12.7587 13.7459 12.7352 13.6392C12.7144 13.5324 12.6753 13.4425 12.618 13.3696C12.5634 13.2967 12.4813 13.2603 12.372 13.2603C12.2365 13.255 12.1233 13.2941 12.0321 13.3774C11.941 13.4608 11.8694 13.5649 11.8173 13.6899C11.7678 13.8123 11.7339 13.9321 11.7157 14.0493L11.4462 13.7681C11.4644 13.5884 11.5087 13.4126 11.579 13.2407C11.6519 13.0662 11.7483 12.9074 11.868 12.7642C11.9878 12.6209 12.1285 12.5076 12.2899 12.4243C12.4514 12.341 12.6298 12.3006 12.8251 12.3032C13.0699 12.311 13.2691 12.3774 13.4227 12.5024C13.5764 12.6274 13.6923 12.7876 13.7704 12.9829C13.8485 13.1782 13.898 13.3866 13.9188 13.6079C13.9397 13.8267 13.9436 14.0337 13.9305 14.229C13.9071 14.4764 13.8472 14.7199 13.7509 14.9595C13.6545 15.1965 13.5256 15.4113 13.3641 15.604C13.2027 15.7941 13.0113 15.9451 12.7899 16.0571C12.5686 16.1665 12.3225 16.2186 12.0516 16.2134C11.7496 16.2056 11.5009 16.1313 11.3055 15.9907C11.1102 15.8475 10.9592 15.6639 10.8524 15.4399C10.7457 15.2134 10.6753 14.9686 10.6415 14.7056C10.6102 14.4399 10.6076 14.1821 10.6337 13.9321L10.6923 13.4751C10.7417 13.0845 10.8394 12.7056 10.9852 12.3384C11.1311 11.9686 11.3225 11.6366 11.5595 11.3423C11.799 11.0454 12.0855 10.8097 12.4188 10.6353C12.7522 10.4608 13.1363 10.3722 13.5712 10.3696Z" fill="#FFB200"/>
<path d="M10.2235 16.9126H14.247V17.3032H10.2235V16.9126Z" fill="#FFB200"/>
<path d="M13.5712 10.3696V10.0696L13.5694 10.0696L13.5712 10.3696ZM13.7626 10.3696L14.0611 10.3991L14.0937 10.0696H13.7626V10.3696ZM13.6649 11.3579L13.6378 11.6567L13.9342 11.6836L13.9635 11.3874L13.6649 11.3579ZM13.622 11.354L13.6491 11.0552L13.6401 11.0544L13.631 11.0541L13.622 11.354ZM12.9345 11.4868L13.0629 11.7579L13.0644 11.7572L12.9345 11.4868ZM12.4266 11.8813L12.6559 12.0748L12.6574 12.0731L12.4266 11.8813ZM12.0829 12.4556L11.8053 12.3418L11.8046 12.3436L12.0829 12.4556ZM11.9071 13.1274L12.2044 13.1677L12.2045 13.1671L11.9071 13.1274ZM11.7743 14.1079L11.477 14.0676L11.4757 14.0771L11.4751 14.0865L11.7743 14.1079ZM11.7509 14.7798L11.4518 14.8037L11.4519 14.8042L11.7509 14.7798ZM11.8446 15.1079L11.584 15.2568L11.5894 15.2656L11.8446 15.1079ZM12.1102 15.2485L12.0975 15.5483L12.1036 15.5485L12.1102 15.2485ZM12.4032 15.147L12.2061 14.9207L12.2025 14.924L12.4032 15.147ZM12.7118 14.5337L13.0043 14.6002L13.0047 14.5988L12.7118 14.5337ZM12.7626 14.229L13.0614 14.2562L13.0618 14.2504L12.7626 14.229ZM12.7352 13.6392L12.4407 13.6966L12.4422 13.7035L12.7352 13.6392ZM12.618 13.3696L12.378 13.5497L12.3822 13.555L12.618 13.3696ZM12.372 13.2603L12.3604 13.5603H12.372V13.2603ZM11.8173 13.6899L11.5403 13.5746L11.5391 13.5775L11.8173 13.6899ZM11.7157 14.0493L11.4991 14.2569L11.9189 14.6949L12.0121 14.0954L11.7157 14.0493ZM11.4462 13.7681L11.1477 13.7378L11.1337 13.8756L11.2296 13.9756L11.4462 13.7681ZM11.579 13.2407L11.3022 13.125L11.3013 13.1271L11.579 13.2407ZM12.2899 12.4243L12.1523 12.1577L12.2899 12.4243ZM12.8251 12.3032L12.8347 12.0033L12.8291 12.0032L12.8251 12.3032ZM13.9188 13.6079L13.6202 13.636L13.6202 13.6364L13.9188 13.6079ZM13.9305 14.229L14.2293 14.2573L14.2299 14.249L13.9305 14.229ZM13.7509 14.9595L14.0288 15.0725L14.0292 15.0714L13.7509 14.9595ZM13.3641 15.604L13.5928 15.7982L13.5941 15.7967L13.3641 15.604ZM12.7899 16.0571L12.9228 16.3261L12.9253 16.3248L12.7899 16.0571ZM12.0516 16.2134L12.0439 16.5133L12.0459 16.5133L12.0516 16.2134ZM11.3055 15.9907L11.1281 16.2327L11.1303 16.2342L11.3055 15.9907ZM10.8524 15.4399L10.581 15.5678L10.5816 15.569L10.8524 15.4399ZM10.6415 14.7056L10.3435 14.7406L10.3439 14.7439L10.6415 14.7056ZM10.6337 13.9321L10.336 13.894L10.3353 13.901L10.6337 13.9321ZM10.6923 13.4751L10.9898 13.5132L10.9899 13.5128L10.6923 13.4751ZM10.9852 12.3384L11.2641 12.4491L11.2643 12.4484L10.9852 12.3384ZM11.5595 11.3423L11.326 11.1539L11.3258 11.1541L11.5595 11.3423ZM13.5712 10.3696V10.6696H13.7626V10.3696V10.0696H13.5712V10.3696ZM13.7626 10.3696L13.464 10.3401L13.3664 11.3284L13.6649 11.3579L13.9635 11.3874L14.0611 10.3991L13.7626 10.3696ZM13.6649 11.3579L13.6921 11.0591L13.6491 11.0552L13.622 11.354L13.5948 11.6528L13.6378 11.6567L13.6649 11.3579ZM13.622 11.354L13.631 11.0541C13.3329 11.0451 13.0548 11.0962 12.8045 11.2164L12.9345 11.4868L13.0644 11.7572C13.2152 11.6848 13.3954 11.6473 13.6129 11.6539L13.622 11.354ZM12.9345 11.4868L12.806 11.2157C12.5684 11.3282 12.3643 11.4869 12.1959 11.6896L12.4266 11.8813L12.6574 12.0731C12.7702 11.9372 12.9046 11.8329 13.0629 11.7579L12.9345 11.4868ZM12.4266 11.8813L12.1974 11.6879C12.0352 11.8801 11.9048 12.0988 11.8053 12.3418L12.0829 12.4556L12.3605 12.5693C12.438 12.38 12.5369 12.2159 12.6559 12.0748L12.4266 11.8813ZM12.0829 12.4556L11.8046 12.3436C11.709 12.581 11.6442 12.8293 11.6097 13.0878L11.9071 13.1274L12.2045 13.1671C12.2325 12.9569 12.2849 12.7573 12.3612 12.5676L12.0829 12.4556ZM11.9071 13.1274L11.6098 13.0872L11.477 14.0676L11.7743 14.1079L12.0716 14.1482L12.2044 13.1677L11.9071 13.1274ZM11.7743 14.1079L11.4751 14.0865C11.47 14.1575 11.4623 14.2536 11.4519 14.3754L11.7509 14.4009L12.0498 14.4263C12.0602 14.3033 12.0682 14.2042 12.0735 14.1293L11.7743 14.1079ZM11.7509 14.4009L11.4519 14.3754C11.44 14.5153 11.4402 14.6581 11.4518 14.8037L11.7509 14.7798L12.0499 14.7559C12.0407 14.6411 12.0408 14.5313 12.0498 14.4263L11.7509 14.4009ZM11.7509 14.7798L11.4519 14.8042C11.4651 14.9662 11.506 15.12 11.5841 15.2568L11.8446 15.1079L12.1051 14.9591C12.0791 14.9135 12.0575 14.8486 12.0499 14.7554L11.7509 14.7798ZM11.8446 15.1079L11.5894 15.2656C11.7062 15.4547 11.896 15.5397 12.0975 15.5483L12.1102 15.2485L12.123 14.9488C12.0966 14.9477 12.0894 14.9428 12.0924 14.9443C12.0938 14.9451 12.096 14.9465 12.0981 14.9485C12.1001 14.9505 12.1006 14.9515 12.0999 14.9503L11.8446 15.1079ZM12.1102 15.2485L12.1036 15.5485C12.2876 15.5526 12.4623 15.4974 12.6039 15.37L12.4032 15.147L12.2025 14.924C12.1879 14.9371 12.1672 14.9497 12.1169 14.9486L12.1102 15.2485ZM12.4032 15.147L12.6002 15.3732C12.7186 15.2701 12.8082 15.1412 12.8729 14.9948L12.5985 14.8735L12.3241 14.7523C12.2899 14.8298 12.2493 14.8832 12.2062 14.9207L12.4032 15.147ZM12.5985 14.8735L12.8729 14.9948C12.9299 14.8659 12.9739 14.7343 13.0043 14.6002L12.7118 14.5337L12.4193 14.4672C12.3977 14.5622 12.3661 14.6572 12.3241 14.7523L12.5985 14.8735ZM12.7118 14.5337L13.0047 14.5988C13.0325 14.4735 13.052 14.3587 13.0613 14.2562L12.7626 14.229L12.4638 14.2018C12.4575 14.2712 12.4432 14.3595 12.4189 14.4686L12.7118 14.5337ZM12.7626 14.229L13.0618 14.2504C13.0677 14.1679 13.0704 14.0705 13.0704 13.9595H12.7704H12.4704C12.4704 14.062 12.4679 14.1442 12.4633 14.2076L12.7626 14.229ZM12.7704 13.9595H13.0704C13.0704 13.8306 13.0562 13.7022 13.0283 13.5748L12.7352 13.6392L12.4422 13.7035C12.4611 13.7896 12.4704 13.8748 12.4704 13.9595H12.7704ZM12.7352 13.6392L13.0297 13.5817C13.0013 13.4363 12.9453 13.3006 12.8539 13.1843L12.618 13.3696L12.3822 13.555C12.4054 13.5845 12.4275 13.6284 12.4408 13.6966L12.7352 13.6392ZM12.618 13.3696L12.858 13.1896C12.7351 13.0257 12.5545 12.9603 12.372 12.9603V13.2603V13.5603C12.3936 13.5603 12.3984 13.5639 12.3937 13.5617C12.3913 13.5607 12.388 13.5588 12.3845 13.556C12.381 13.5533 12.3789 13.5508 12.378 13.5496L12.618 13.3696ZM12.372 13.2603L12.3835 12.9605C12.1776 12.9526 11.985 13.014 11.8297 13.156L12.0321 13.3774L12.2345 13.5989C12.2615 13.5742 12.2954 13.5575 12.3604 13.56L12.372 13.2603ZM12.0321 13.3774L11.8297 13.156C11.7033 13.2716 11.6076 13.4131 11.5403 13.5746L11.8173 13.6899L12.0942 13.8053C12.1311 13.7167 12.1787 13.6499 12.2345 13.5989L12.0321 13.3774ZM11.8173 13.6899L11.5391 13.5775C11.482 13.7189 11.4414 13.8609 11.4193 14.0032L11.7157 14.0493L12.0121 14.0954C12.0265 14.0034 12.0536 13.9058 12.0954 13.8024L11.8173 13.6899ZM11.7157 14.0493L11.9323 13.8417L11.6628 13.5605L11.4462 13.7681L11.2296 13.9756L11.4991 14.2569L11.7157 14.0493ZM11.4462 13.7681L11.7446 13.7983C11.7599 13.6481 11.7969 13.5003 11.8567 13.3543L11.579 13.2407L11.3013 13.1271C11.2204 13.3249 11.1689 13.5287 11.1477 13.7378L11.4462 13.7681ZM11.579 13.2407L11.8558 13.3564C11.9172 13.2094 11.998 13.0765 12.0982 12.9566L11.868 12.7642L11.6379 12.5717C11.4986 12.7383 11.3866 12.9231 11.3022 13.125L11.579 13.2407ZM11.868 12.7642L12.0982 12.9566C12.1931 12.8431 12.3025 12.7554 12.4275 12.6909L12.2899 12.4243L12.1523 12.1577C11.9544 12.2599 11.7826 12.3987 11.6379 12.5717L11.868 12.7642ZM12.2899 12.4243L12.4275 12.6909C12.542 12.6318 12.6712 12.6012 12.8211 12.6032L12.8251 12.3032L12.8291 12.0032C12.5883 12 12.3608 12.0501 12.1523 12.1577L12.2899 12.4243ZM12.8251 12.3032L12.8155 12.6031C13.0105 12.6093 13.1418 12.6606 13.2334 12.7352L13.4227 12.5024L13.6121 12.2697C13.3964 12.0943 13.1292 12.0128 12.8347 12.0034L12.8251 12.3032ZM13.4227 12.5024L13.2334 12.7352C13.345 12.826 13.4315 12.9433 13.4918 13.0943L13.7704 12.9829L14.0489 12.8715C13.9531 12.6319 13.8077 12.4289 13.6121 12.2697L13.4227 12.5024ZM13.7704 12.9829L13.4918 13.0943C13.5587 13.2615 13.6019 13.4416 13.6202 13.636L13.9188 13.6079L14.2175 13.5798C14.1941 13.3315 14.1383 13.0949 14.0489 12.8715L13.7704 12.9829ZM13.9188 13.6079L13.6202 13.6364C13.6397 13.8409 13.643 14.0317 13.6312 14.209L13.9305 14.229L14.2299 14.249C14.2441 14.0357 14.2397 13.8124 14.2175 13.5795L13.9188 13.6079ZM13.9305 14.229L13.6319 14.2007C13.6113 14.4183 13.5585 14.6337 13.4725 14.8475L13.7509 14.9595L14.0292 15.0714C14.1359 14.8061 14.2029 14.5345 14.2292 14.2573L13.9305 14.229ZM13.7509 14.9595L13.473 14.8465C13.3881 15.0551 13.2753 15.243 13.1342 15.4113L13.3641 15.604L13.5941 15.7967C13.7759 15.5796 13.9209 15.3378 14.0288 15.0725L13.7509 14.9595ZM13.3641 15.604L13.1355 15.4098C12.9998 15.5696 12.84 15.6956 12.6545 15.7894L12.7899 16.0571L12.9253 16.3248C13.1826 16.1947 13.4056 16.0186 13.5928 15.7982L13.3641 15.604ZM12.7899 16.0571L12.657 15.7882C12.4828 15.8743 12.285 15.9178 12.0574 15.9134L12.0516 16.2134L12.0459 16.5133C12.36 16.5194 12.6543 16.4588 12.9228 16.3261L12.7899 16.0571ZM12.0516 16.2134L12.0594 15.9135C11.8021 15.9068 11.6161 15.8446 11.4808 15.7473L11.3055 15.9907L11.1303 16.2342C11.3857 16.4181 11.697 16.5043 12.0439 16.5133L12.0516 16.2134ZM11.3055 15.9907L11.483 15.7488C11.3286 15.6356 11.2092 15.4912 11.1232 15.3108L10.8524 15.4399L10.5816 15.569C10.7092 15.8366 10.8919 16.0594 11.1281 16.2326L11.3055 15.9907ZM10.8524 15.4399L11.1238 15.3121C11.0311 15.1154 10.9691 14.9011 10.939 14.6673L10.6415 14.7056L10.3439 14.7439C10.3816 15.0361 10.4602 15.3113 10.581 15.5678L10.8524 15.4399ZM10.6415 14.7056L10.9394 14.6705C10.9106 14.4255 10.9085 14.1899 10.9321 13.9632L10.6337 13.9321L10.3353 13.901C10.3068 14.1744 10.3099 14.4544 10.3435 14.7406L10.6415 14.7056ZM10.6337 13.9321L10.9312 13.9703L10.9898 13.5132L10.6923 13.4751L10.3947 13.4369L10.3361 13.894L10.6337 13.9321ZM10.6923 13.4751L10.9899 13.5128C11.0362 13.1473 11.1275 12.7929 11.2641 12.4491L10.9852 12.3384L10.7064 12.2276C10.5513 12.6182 10.4473 13.0216 10.3946 13.4374L10.6923 13.4751ZM10.9852 12.3384L11.2643 12.4484C11.3996 12.1054 11.5761 11.7999 11.7931 11.5304L11.5595 11.3423L11.3258 11.1541C11.0689 11.4732 10.8625 11.8318 10.7062 12.2283L10.9852 12.3384ZM11.5595 11.3423L11.7929 11.5307C12.0071 11.2653 12.2616 11.0562 12.558 10.901L12.4188 10.6353L12.2797 10.3695C11.9094 10.5633 11.591 10.8255 11.326 11.1539L11.5595 11.3423ZM12.4188 10.6353L12.558 10.901C12.8427 10.752 13.1784 10.672 13.573 10.6696L13.5712 10.3696L13.5694 10.0696C13.0941 10.0725 12.6616 10.1696 12.2797 10.3695L12.4188 10.6353Z" fill="black" mask="url(#path-10-outside-3_275_680)"/>
<path d="M10.2235 16.9126V16.6126H9.92352V16.9126H10.2235ZM14.247 16.9126H14.547V16.6126H14.247V16.9126ZM14.247 17.3032V17.6032H14.547V17.3032H14.247ZM10.2235 17.3032H9.92352V17.6032H10.2235V17.3032ZM10.2235 16.9126V17.2126H14.247V16.9126V16.6126H10.2235V16.9126ZM14.247 16.9126H13.947V17.3032H14.247H14.547V16.9126H14.247ZM14.247 17.3032V17.0032H10.2235V17.3032V17.6032H14.247V17.3032ZM10.2235 17.3032H10.5235V16.9126H10.2235H9.92352V17.3032H10.2235Z" fill="black" mask="url(#path-10-outside-3_275_680)"/>
</g>
<rect x="0.941162" y="62.8467" width="2.82353" height="2.0438" fill="#FFB200"/>
<rect x="0.941162" y="71.022" width="2.82353" height="2.0438" fill="#FFB200"/>
<rect x="0.941162" y="74.0876" width="2.82353" height="2.0438" fill="#FFB200"/>
<rect x="0.941162" y="77.1533" width="2.82353" height="2.0438" fill="#FFB200"/>
<rect x="0.941162" y="59.781" width="2.82353" height="2.0438" fill="#FFB200"/>
<rect x="0.941162" y="65.9124" width="2.82353" height="2.0438" fill="#FFB200"/>
<rect x="76.2354" y="62.8467" width="2.82353" height="2.0438" fill="#FFB200"/>
<rect x="76.2354" y="71.022" width="2.82353" height="2.0438" fill="#FFB200"/>
<rect x="76.2354" y="74.0876" width="2.82353" height="2.0438" fill="#FFB200"/>
<rect x="76.2354" y="77.1533" width="2.82353" height="2.0438" fill="#FFB200"/>
<rect x="76.2354" y="59.781" width="2.82353" height="2.0438" fill="#FFB200"/>
<rect x="76.2354" y="65.9124" width="2.82353" height="2.0438" fill="#FFB200"/>
<rect x="46.5881" y="136.934" width="2.0438" height="1.88235" transform="rotate(90 46.5881 136.934)" fill="#FFB200"/>
<rect x="39.0588" y="136.934" width="2.0438" height="1.88235" transform="rotate(90 39.0588 136.934)" fill="#FFB200"/>
<rect x="36.2354" y="136.934" width="2.0438" height="1.88235" transform="rotate(90 36.2354 136.934)" fill="#FFB200"/>
<rect x="33.4119" y="136.934" width="2.0438" height="1.88235" transform="rotate(90 33.4119 136.934)" fill="#FFB200"/>
<rect x="49.4119" y="136.934" width="2.0438" height="1.88235" transform="rotate(90 49.4119 136.934)" fill="#FFB200"/>
<rect x="43.7646" y="136.934" width="2.0438" height="1.88235" transform="rotate(90 43.7646 136.934)" fill="#FFB200"/>
<rect x="46.5881" y="1.02197" width="2.0438" height="1.88235" transform="rotate(90 46.5881 1.02197)" fill="#FFB200"/>
<rect x="39.0588" y="1.02197" width="2.0438" height="1.88235" transform="rotate(90 39.0588 1.02197)" fill="#FFB200"/>
<rect x="36.2354" y="1.02197" width="2.0438" height="1.88235" transform="rotate(90 36.2354 1.02197)" fill="#FFB200"/>
<rect x="33.4119" y="1.02197" width="2.0438" height="1.88235" transform="rotate(90 33.4119 1.02197)" fill="#FFB200"/>
<rect x="49.4119" y="1.02197" width="2.0438" height="1.88235" transform="rotate(90 49.4119 1.02197)" fill="#FFB200"/>
<rect x="43.7646" y="1.02197" width="2.0438" height="1.88235" transform="rotate(90 43.7646 1.02197)" fill="#FFB200"/>
<defs>
<filter id="filter0_d_275_680" x="8.67651" y="25.0474" width="61.7058" height="101.993" filterUnits="userSpaceOnUse" color-interpolation-filters="sRGB">
<feFlood flood-opacity="0" result="BackgroundImageFix"/>
<feColorMatrix in="SourceAlpha" type="matrix" values="0 0 0 0 0 0 0 0 0 0 0 0 0 0 0 0 0 0 127 0" result="hardAlpha"/>
<feOffset dy="4"/>
<feGaussianBlur stdDeviation="2"/>
<feComposite in2="hardAlpha" operator="out"/>
<feColorMatrix type="matrix" values="0 0 0 0 0 0 0 0 0 0 0 0 0 0 0 0 0 0 0.25 0"/>
<feBlend mode="normal" in2="BackgroundImageFix" result="effect1_dropShadow_275_680"/>
<feBlend mode="normal" in="SourceGraphic" in2="effect1_dropShadow_275_680" result="shape"/>
</filter>
<filter id="filter1_d_275_680" x="23.3203" y="54.8826" width="33.3398" height="44.5898" filterUnits="userSpaceOnUse" color-interpolation-filters="sRGB">
<feFlood flood-opacity="0" result="BackgroundImageFix"/>
<feColorMatrix in="SourceAlpha" type="matrix" values="0 0 0 0 0 0 0 0 0 0 0 0 0 0 0 0 0 0 127 0" result="hardAlpha"/>
<feOffset dy="4"/>
<feGaussianBlur stdDeviation="2"/>
<feComposite in2="hardAlpha" operator="out"/>
<feColorMatrix type="matrix" values="0 0 0 0 0 0 0 0 0 0 0 0 0 0 0 0 0 0 0.25 0"/>
<feBlend mode="normal" in2="BackgroundImageFix" result="effect1_dropShadow_275_680"/>
<feBlend mode="normal" in="SourceGraphic" in2="effect1_dropShadow_275_680" result="shape"/>
</filter>
<linearGradient id="paint0_linear_275_680" x1="39.9999" y1="3.06567" x2="39.9999" y2="136.934" gradientUnits="userSpaceOnUse">
<stop stop-color="#E8A200" stop-opacity="0.95"/>
<stop offset="1" stop-color="#5B4001"/>
</linearGradient>
<linearGradient id="paint1_linear_275_680" x1="66.4435" y1="115.339" x2="63.7604" y2="132.922" gradientUnits="userSpaceOnUse">
<stop stop-color="#FFF3D6" stop-opacity="0.95"/>
<stop offset="1" stop-color="#C88C02"/>
</linearGradient>
<linearGradient id="paint2_linear_275_680" x1="39.5295" y1="25.5474" x2="39.5295" y2="118.54" gradientUnits="userSpaceOnUse">
<stop stop-color="#FFD678" stop-opacity="0.95"/>
<stop offset="1" stop-color="#865E00"/>
</linearGradient>
<linearGradient id="paint3_linear_275_680" x1="13.7375" y1="4.97369" x2="11.0544" y2="22.5567" gradientUnits="userSpaceOnUse">
<stop stop-color="#FFF3D6" stop-opacity="0.95"/>
<stop offset="1" stop-color="#C88C02"/>
</linearGradient>
</defs>
</svg>
