<svg width="85" height="137" viewBox="0 0 85 137" fill="none" xmlns="http://www.w3.org/2000/svg">
<rect x="0.5" y="0.5" width="84" height="136" rx="9.5" fill="white" stroke="black"/>
<rect x="4.5" y="3.5" width="76" height="130" rx="9.5" fill="url(#paint0_linear_275_938)" stroke="black"/>
<path d="M70.5617 113.115C72.1645 113.34 73.5108 114.456 74.3811 116.125C75.2512 117.793 75.6331 119.994 75.3045 122.332C74.9759 124.67 74.0019 126.682 72.7057 128.046C71.4093 129.409 69.8074 130.111 68.2047 129.885C66.6018 129.66 65.2546 128.544 64.3842 126.876C63.514 125.208 63.1323 123.006 63.4609 120.668C63.7895 118.33 64.7635 116.319 66.0596 114.955C67.3561 113.591 68.9587 112.889 70.5617 113.115Z" fill="url(#paint1_linear_275_938)" stroke="#696969" stroke-width="0.5"/>
<mask id="path-4-outside-1_275_938" maskUnits="userSpaceOnUse" x="66.4623" y="118" width="5" height="8" fill="black">
<rect fill="white" x="66.4623" y="118" width="5" height="8"/>
<path d="M69.74 122.371L69.2517 122.367C69.1007 122.37 68.9796 122.409 68.8884 122.484C68.7947 122.56 68.7244 122.658 68.6775 122.777C68.628 122.897 68.5968 123.023 68.5837 123.156C68.5733 123.242 68.5759 123.336 68.5915 123.438C68.6046 123.542 68.6384 123.63 68.6931 123.703C68.7452 123.776 68.8272 123.814 68.9392 123.816C69.0486 123.819 69.1384 123.789 69.2087 123.727C69.279 123.664 69.335 123.586 69.3767 123.492C69.4158 123.401 69.4444 123.312 69.4626 123.227L70.6228 123.219C70.6046 123.523 70.5173 123.793 70.3611 124.027C70.2022 124.264 69.9965 124.449 69.7439 124.582C69.4913 124.715 69.2113 124.779 68.904 124.773C68.5889 124.766 68.3168 124.695 68.0876 124.562C67.8559 124.43 67.6788 124.243 67.5564 124.004C67.434 123.767 67.3819 123.49 67.4001 123.172C67.4132 122.953 67.4665 122.754 67.5603 122.574C67.654 122.397 67.7777 122.245 67.9314 122.117C68.0824 121.992 68.2543 121.895 68.447 121.824C68.6397 121.757 68.8428 121.723 69.0564 121.723L69.8455 121.727L69.74 122.371ZM69.8923 121.438L69.7908 122.066L69.1189 122.062C68.9001 122.055 68.7035 122.018 68.529 121.953C68.3546 121.888 68.2061 121.794 68.0837 121.672C67.9587 121.549 67.8676 121.401 67.8103 121.227C67.7504 121.052 67.727 120.852 67.74 120.625C67.7556 120.37 67.8168 120.135 67.9236 119.922C68.0303 119.711 68.1723 119.53 68.3494 119.379C68.5238 119.228 68.7244 119.112 68.9509 119.031C69.1749 118.951 69.4145 118.913 69.6697 118.918C69.9093 118.926 70.1215 118.973 70.3064 119.059C70.4887 119.145 70.6423 119.262 70.7673 119.41C70.8897 119.561 70.9822 119.736 71.0447 119.934C71.1072 120.134 71.1358 120.348 71.1306 120.574H69.9744C69.9718 120.483 69.9613 120.384 69.9431 120.277C69.9249 120.173 69.8858 120.083 69.8259 120.008C69.766 119.932 69.6775 119.893 69.5603 119.891C69.4223 119.885 69.3064 119.922 69.2126 120C69.1163 120.078 69.0408 120.176 68.9861 120.293C68.9288 120.41 68.8923 120.529 68.8767 120.648C68.8637 120.768 68.8624 120.887 68.8728 121.004C68.8832 121.121 68.9197 121.22 68.9822 121.301C69.0447 121.382 69.1488 121.426 69.2947 121.434L69.8923 121.438Z"/>
</mask>
<path d="M69.74 122.371L69.2517 122.367C69.1007 122.37 68.9796 122.409 68.8884 122.484C68.7947 122.56 68.7244 122.658 68.6775 122.777C68.628 122.897 68.5968 123.023 68.5837 123.156C68.5733 123.242 68.5759 123.336 68.5915 123.438C68.6046 123.542 68.6384 123.63 68.6931 123.703C68.7452 123.776 68.8272 123.814 68.9392 123.816C69.0486 123.819 69.1384 123.789 69.2087 123.727C69.279 123.664 69.335 123.586 69.3767 123.492C69.4158 123.401 69.4444 123.312 69.4626 123.227L70.6228 123.219C70.6046 123.523 70.5173 123.793 70.3611 124.027C70.2022 124.264 69.9965 124.449 69.7439 124.582C69.4913 124.715 69.2113 124.779 68.904 124.773C68.5889 124.766 68.3168 124.695 68.0876 124.562C67.8559 124.43 67.6788 124.243 67.5564 124.004C67.434 123.767 67.3819 123.49 67.4001 123.172C67.4132 122.953 67.4665 122.754 67.5603 122.574C67.654 122.397 67.7777 122.245 67.9314 122.117C68.0824 121.992 68.2543 121.895 68.447 121.824C68.6397 121.757 68.8428 121.723 69.0564 121.723L69.8455 121.727L69.74 122.371ZM69.8923 121.438L69.7908 122.066L69.1189 122.062C68.9001 122.055 68.7035 122.018 68.529 121.953C68.3546 121.888 68.2061 121.794 68.0837 121.672C67.9587 121.549 67.8676 121.401 67.8103 121.227C67.7504 121.052 67.727 120.852 67.74 120.625C67.7556 120.37 67.8168 120.135 67.9236 119.922C68.0303 119.711 68.1723 119.53 68.3494 119.379C68.5238 119.228 68.7244 119.112 68.9509 119.031C69.1749 118.951 69.4145 118.913 69.6697 118.918C69.9093 118.926 70.1215 118.973 70.3064 119.059C70.4887 119.145 70.6423 119.262 70.7673 119.41C70.8897 119.561 70.9822 119.736 71.0447 119.934C71.1072 120.134 71.1358 120.348 71.1306 120.574H69.9744C69.9718 120.483 69.9613 120.384 69.9431 120.277C69.9249 120.173 69.8858 120.083 69.8259 120.008C69.766 119.932 69.6775 119.893 69.5603 119.891C69.4223 119.885 69.3064 119.922 69.2126 120C69.1163 120.078 69.0408 120.176 68.9861 120.293C68.9288 120.41 68.8923 120.529 68.8767 120.648C68.8637 120.768 68.8624 120.887 68.8728 121.004C68.8832 121.121 68.9197 121.22 68.9822 121.301C69.0447 121.382 69.1488 121.426 69.2947 121.434L69.8923 121.438Z" fill="url(#paint2_linear_275_938)"/>
<path d="M69.74 122.371L69.7376 122.671L69.9945 122.673L70.036 122.42L69.74 122.371ZM69.2517 122.367L69.2541 122.067L69.2465 122.067L69.2517 122.367ZM68.8884 122.484L69.0766 122.718L69.0798 122.715L68.8884 122.484ZM68.6775 122.777L68.9548 122.892L68.9569 122.887L68.6775 122.777ZM68.5837 123.156L68.8816 123.192L68.8823 123.186L68.5837 123.156ZM68.5915 123.438L68.8893 123.4L68.8881 123.392L68.5915 123.438ZM68.6931 123.703L68.9373 123.529L68.9331 123.523L68.6931 123.703ZM68.9392 123.816L68.9463 123.516L68.9462 123.516L68.9392 123.816ZM69.3767 123.492L69.6509 123.614L69.6524 123.61L69.3767 123.492ZM69.4626 123.227L69.4606 122.927L69.2193 122.928L69.1692 123.164L69.4626 123.227ZM70.6228 123.219L70.9223 123.237L70.9414 122.917L70.6208 122.919L70.6228 123.219ZM70.3611 124.027L70.6103 124.194L70.6107 124.194L70.3611 124.027ZM68.904 124.773L68.8966 125.073L68.899 125.073L68.904 124.773ZM68.0876 124.562L68.2381 124.303L68.2368 124.302L68.0876 124.562ZM67.5564 124.004L67.8235 123.867L67.8229 123.866L67.5564 124.004ZM67.4001 123.172L67.1007 123.154L67.1006 123.155L67.4001 123.172ZM67.5603 122.574L67.2952 122.434L67.2943 122.435L67.5603 122.574ZM67.9314 122.117L67.7401 121.886L67.7397 121.886L67.9314 122.117ZM68.447 121.824L68.3476 121.541L68.3442 121.542L68.447 121.824ZM69.0564 121.723L69.0579 121.423H69.0564V121.723ZM69.8455 121.727L70.1415 121.775L70.1982 121.428L69.8469 121.427L69.8455 121.727ZM69.8923 121.438L70.1885 121.485L70.2443 121.14L69.8943 121.138L69.8923 121.438ZM69.7908 122.066L69.789 122.366L70.046 122.368L70.0869 122.114L69.7908 122.066ZM69.1189 122.062L69.1082 122.362L69.1171 122.362L69.1189 122.062ZM68.0837 121.672L68.2959 121.46L68.2936 121.458L68.0837 121.672ZM67.8103 121.227L68.0953 121.133L68.094 121.129L67.8103 121.227ZM67.74 120.625L67.4405 120.607L67.4405 120.608L67.74 120.625ZM67.9236 119.922L67.6559 119.786L67.6552 119.788L67.9236 119.922ZM68.3494 119.379L68.544 119.607L68.5457 119.606L68.3494 119.379ZM68.9509 119.031L69.0516 119.314L69.0527 119.313L68.9509 119.031ZM69.6697 118.918L69.6794 118.618L69.6758 118.618L69.6697 118.918ZM70.3064 119.059L70.4343 118.787L70.4328 118.787L70.3064 119.059ZM70.7673 119.41L71.0004 119.221L70.9968 119.217L70.7673 119.41ZM71.0447 119.934L71.3311 119.844L71.3307 119.843L71.0447 119.934ZM71.1306 120.574V120.874H71.4238L71.4305 120.581L71.1306 120.574ZM69.9744 120.574L69.6745 120.583L69.6828 120.874H69.9744V120.574ZM69.9431 120.277L70.2388 120.227L70.2386 120.226L69.9431 120.277ZM69.8259 120.008L69.5909 120.194L69.8259 120.008ZM69.5603 119.891L69.549 120.19L69.5536 120.191L69.5603 119.891ZM69.2126 120L69.4016 120.233L69.4047 120.23L69.2126 120ZM68.9861 120.293L69.2556 120.425L69.2579 120.42L68.9861 120.293ZM68.8767 120.648L68.5792 120.61L68.5785 120.616L68.8767 120.648ZM69.2947 121.434L69.2786 121.733L69.2927 121.734L69.2947 121.434ZM69.74 122.371L69.7424 122.071L69.2541 122.067L69.2517 122.367L69.2493 122.667L69.7376 122.671L69.74 122.371ZM69.2517 122.367L69.2465 122.067C69.0465 122.071 68.8537 122.124 68.697 122.253L68.8884 122.484L69.0798 122.715C69.1055 122.694 69.1548 122.669 69.2569 122.667L69.2517 122.367ZM68.8884 122.484L68.7002 122.251C68.563 122.361 68.4627 122.503 68.3981 122.668L68.6775 122.777L68.9569 122.887C68.986 122.812 69.0264 122.758 69.0766 122.718L68.8884 122.484ZM68.6775 122.777L68.4002 122.663C68.3392 122.811 68.301 122.966 68.2852 123.127L68.5837 123.156L68.8823 123.186C68.8925 123.081 68.9169 122.984 68.9548 122.892L68.6775 122.777ZM68.5837 123.156L68.2859 123.12C68.2717 123.238 68.276 123.359 68.295 123.483L68.5915 123.438L68.8881 123.392C68.8758 123.312 68.875 123.247 68.8816 123.192L68.5837 123.156ZM68.5915 123.438L68.2939 123.475C68.3124 123.623 68.3626 123.762 68.4531 123.883L68.6931 123.703L68.9331 123.523C68.9142 123.498 68.8968 123.461 68.8892 123.4L68.5915 123.438ZM68.6931 123.703L68.449 123.877C68.5696 124.046 68.752 124.112 68.9322 124.116L68.9392 123.816L68.9462 123.516C68.9216 123.516 68.9152 123.512 68.9191 123.514C68.9212 123.515 68.9248 123.517 68.9287 123.52C68.9327 123.523 68.9355 123.526 68.9372 123.529L68.6931 123.703ZM68.9392 123.816L68.9321 124.116C69.1041 124.12 69.2718 124.072 69.408 123.951L69.2087 123.727L69.0094 123.502C69.005 123.506 68.993 123.518 68.9463 123.516L68.9392 123.816ZM69.2087 123.727L69.408 123.951C69.5131 123.857 69.5934 123.743 69.6508 123.614L69.3767 123.492L69.1026 123.37C69.0767 123.429 69.045 123.471 69.0094 123.502L69.2087 123.727ZM69.3767 123.492L69.6524 123.61C69.6983 123.503 69.7333 123.396 69.7561 123.289L69.4626 123.227L69.1692 123.164C69.1555 123.229 69.1333 123.299 69.101 123.374L69.3767 123.492ZM69.4626 123.227L69.4647 123.527L70.6248 123.519L70.6228 123.219L70.6208 122.919L69.4606 122.927L69.4626 123.227ZM70.6228 123.219L70.3233 123.201C70.308 123.457 70.2358 123.674 70.1115 123.861L70.3611 124.027L70.6107 124.194C70.7989 123.912 70.9011 123.59 70.9223 123.237L70.6228 123.219ZM70.3611 124.027L70.1119 123.86C69.9808 124.056 69.8128 124.207 69.6043 124.316L69.7439 124.582L69.8835 124.848C70.1802 124.692 70.4236 124.473 70.6103 124.194L70.3611 124.027ZM69.7439 124.582L69.6043 124.316C69.3997 124.424 69.17 124.478 68.9091 124.473L68.904 124.773L68.899 125.073C69.2526 125.079 69.5829 125.006 69.8835 124.848L69.7439 124.582ZM68.904 124.773L68.9115 124.474C68.6371 124.467 68.4161 124.406 68.2381 124.303L68.0876 124.562L67.9372 124.822C68.2175 124.984 68.5408 125.065 68.8966 125.073L68.904 124.773ZM68.0876 124.562L68.2368 124.302C68.0559 124.199 67.9197 124.056 67.8235 123.867L67.5564 124.004L67.2892 124.14C67.4379 124.431 67.6558 124.661 67.9385 124.823L68.0876 124.562ZM67.5564 124.004L67.8229 123.866C67.7296 123.685 67.6839 123.464 67.6996 123.189L67.4001 123.172L67.1006 123.155C67.0799 123.516 67.1384 123.848 67.2898 124.142L67.5564 124.004ZM67.4001 123.172L67.6996 123.19C67.7103 123.01 67.7536 122.852 67.8263 122.713L67.5603 122.574L67.2943 122.435C67.1795 122.656 67.116 122.897 67.1007 123.154L67.4001 123.172ZM67.5603 122.574L67.8254 122.715C67.9009 122.572 67.9997 122.45 68.1231 122.348L67.9314 122.117L67.7397 121.886C67.5558 122.039 67.4072 122.222 67.2952 122.434L67.5603 122.574ZM67.9314 122.117L68.1227 122.348C68.2461 122.246 68.3878 122.165 68.5498 122.106L68.447 121.824L68.3442 121.542C68.1208 121.624 67.9187 121.738 67.7401 121.886L67.9314 122.117ZM68.447 121.824L68.5465 122.107C68.7058 122.051 68.8752 122.023 69.0564 122.023V121.723V121.423C68.8105 121.423 68.5737 121.462 68.3476 121.541L68.447 121.824ZM69.0564 121.723L69.0549 122.023L69.844 122.027L69.8455 121.727L69.8469 121.427L69.0579 121.423L69.0564 121.723ZM69.8455 121.727L69.5494 121.678L69.4439 122.323L69.74 122.371L70.036 122.42L70.1415 121.775L69.8455 121.727ZM69.8923 121.438L69.5962 121.39L69.4946 122.019L69.7908 122.066L70.0869 122.114L70.1885 121.485L69.8923 121.438ZM69.7908 122.066L69.7925 121.766L69.1206 121.763L69.1189 122.062L69.1171 122.362L69.789 122.366L69.7908 122.066ZM69.1189 122.062L69.1296 121.763C68.9375 121.756 68.7735 121.724 68.6339 121.672L68.529 121.953L68.4242 122.234C68.6336 122.312 68.8627 122.354 69.1082 122.362L69.1189 122.062ZM68.529 121.953L68.6339 121.672C68.4966 121.621 68.3856 121.549 68.2959 121.46L68.0837 121.672L67.8716 121.884C68.0267 122.039 68.2125 122.155 68.4242 122.234L68.529 121.953ZM68.0837 121.672L68.2936 121.458C68.2047 121.37 68.1384 121.264 68.0953 121.133L67.8103 121.227L67.5253 121.32C67.5968 121.538 67.7128 121.728 67.8738 121.886L68.0837 121.672ZM67.8103 121.227L68.094 121.129C68.0493 120.999 68.0282 120.839 68.0395 120.642L67.74 120.625L67.4405 120.608C67.4257 120.865 67.4515 121.105 67.5265 121.324L67.8103 121.227ZM67.74 120.625L68.0394 120.643C68.0528 120.426 68.1045 120.231 68.1919 120.056L67.9236 119.922L67.6552 119.788C67.5292 120.04 67.4585 120.314 67.4405 120.607L67.74 120.625ZM67.9236 119.922L68.1912 120.057C68.2804 119.881 68.3977 119.732 68.544 119.607L68.3494 119.379L68.1547 119.151C67.9469 119.328 67.7803 119.541 67.6559 119.786L67.9236 119.922ZM68.3494 119.379L68.5457 119.606C68.6909 119.48 68.8586 119.383 69.0516 119.314L68.9509 119.031L68.8502 118.749C68.5901 118.841 68.3568 118.976 68.153 119.152L68.3494 119.379ZM68.9509 119.031L69.0527 119.313C69.2396 119.246 69.4424 119.213 69.6635 119.218L69.6697 118.918L69.6758 118.618C69.3865 118.612 69.1101 118.655 68.8492 118.749L68.9509 119.031ZM69.6697 118.918L69.6599 119.218C69.8661 119.225 70.0375 119.264 70.1799 119.331L70.3064 119.059L70.4328 118.787C70.2055 118.681 69.9524 118.627 69.6794 118.618L69.6697 118.918ZM70.3064 119.059L70.1785 119.33C70.3232 119.398 70.4418 119.489 70.5379 119.603L70.7673 119.41L70.9968 119.217C70.8429 119.034 70.6541 118.891 70.4343 118.787L70.3064 119.059ZM70.7673 119.41L70.5342 119.599C70.6314 119.719 70.7067 119.859 70.7586 120.024L71.0447 119.934L71.3307 119.843C71.2577 119.612 71.1481 119.403 71.0004 119.221L70.7673 119.41ZM71.0447 119.934L70.7583 120.023C70.8103 120.19 70.8352 120.371 70.8307 120.567L71.1306 120.574L71.4305 120.581C71.4364 120.325 71.404 120.078 71.3311 119.844L71.0447 119.934ZM71.1306 120.574V120.274H69.9744V120.574V120.874H71.1306V120.574ZM69.9744 120.574L70.2742 120.566C70.2712 120.458 70.259 120.345 70.2388 120.227L69.9431 120.277L69.6474 120.328C69.6637 120.423 69.6723 120.508 69.6745 120.583L69.9744 120.574ZM69.9431 120.277L70.2386 120.226C70.2126 120.077 70.1549 119.94 70.061 119.821L69.8259 120.008L69.5909 120.194C69.6168 120.227 69.6371 120.269 69.6476 120.329L69.9431 120.277ZM69.8259 120.008L70.061 119.821C69.9337 119.661 69.7522 119.595 69.567 119.591L69.5603 119.891L69.5536 120.191C69.5809 120.191 69.5921 120.196 69.5935 120.196C69.5942 120.197 69.5935 120.196 69.5923 120.195C69.5911 120.195 69.5906 120.194 69.5909 120.194L69.8259 120.008ZM69.5603 119.891L69.5716 119.591C69.37 119.583 69.1788 119.638 69.0206 119.77L69.2126 120L69.4047 120.23C69.434 120.206 69.4745 120.188 69.549 120.19L69.5603 119.891ZM69.2126 120L69.0237 119.767C68.8905 119.875 68.7873 120.01 68.7142 120.166L68.9861 120.293L69.2579 120.42C69.2942 120.342 69.3421 120.281 69.4016 120.233L69.2126 120ZM68.9861 120.293L68.7166 120.161C68.6461 120.305 68.5994 120.455 68.5792 120.61L68.8767 120.648L69.1742 120.687C69.1853 120.602 69.2115 120.515 69.2556 120.425L68.9861 120.293ZM68.8767 120.648L68.5785 120.616C68.5634 120.755 68.5618 120.893 68.574 121.03L68.8728 121.004L69.1716 120.977C69.163 120.88 69.164 120.782 69.1749 120.681L68.8767 120.648ZM68.8728 121.004L68.574 121.03C68.5887 121.196 68.6422 121.352 68.745 121.484L68.9822 121.301L69.2194 121.117C69.1971 121.088 69.1777 121.046 69.1716 120.977L68.8728 121.004ZM68.9822 121.301L68.745 121.484C68.8807 121.66 69.0844 121.723 69.2786 121.733L69.2947 121.434L69.3107 121.134C69.2631 121.131 69.2366 121.124 69.2245 121.118C69.2144 121.114 69.2159 121.113 69.2194 121.117L68.9822 121.301ZM69.2947 121.434L69.2927 121.734L69.8904 121.737L69.8923 121.438L69.8943 121.138L69.2966 121.134L69.2947 121.434Z" fill="#777511" mask="url(#path-4-outside-1_275_938)"/>
<g filter="url(#filter0_d_275_938)">
<ellipse cx="42" cy="70.5" rx="28" ry="45.5" fill="url(#paint3_linear_275_938)"/>
<ellipse cx="42" cy="70.5" rx="28" ry="45.5" stroke="#7C7A00"/>
</g>
<g filter="url(#filter1_d_275_938)">
<mask id="path-7-outside-2_275_938" maskUnits="userSpaceOnUse" x="31" y="53" width="23" height="32" fill="black">
<rect fill="white" x="31" y="53" width="23" height="32"/>
<path d="M38.7305 66.3398H41.7383C42.7018 66.3398 43.4961 66.1771 44.1211 65.8516C44.7461 65.513 45.2083 65.0443 45.5078 64.4453C45.8203 63.8333 45.9766 63.1237 45.9766 62.3164C45.9766 61.5872 45.8333 60.9427 45.5469 60.3828C45.2734 59.8099 44.8503 59.3672 44.2773 59.0547C43.7044 58.7292 42.9818 58.5664 42.1094 58.5664C41.4193 58.5664 40.7812 58.7031 40.1953 58.9766C39.6094 59.25 39.1406 59.6341 38.7891 60.1289C38.4375 60.6237 38.2617 61.2227 38.2617 61.9258H32.6172C32.6172 60.3633 33.0339 59.0026 33.8672 57.8438C34.7135 56.6849 35.8464 55.7799 37.2656 55.1289C38.6849 54.4779 40.2474 54.1523 41.9531 54.1523C43.8802 54.1523 45.5664 54.4648 47.0117 55.0898C48.457 55.7018 49.5833 56.6068 50.3906 57.8047C51.1979 59.0026 51.6016 60.487 51.6016 62.2578C51.6016 63.1562 51.3932 64.0286 50.9766 64.875C50.5599 65.7083 49.9609 66.4635 49.1797 67.1406C48.4115 67.8047 47.474 68.3385 46.3672 68.7422C45.2604 69.1328 44.0169 69.3281 42.6367 69.3281H38.7305V66.3398ZM38.7305 70.6172V67.707H42.6367C44.1862 67.707 45.5469 67.8828 46.7188 68.2344C47.8906 68.5859 48.8737 69.0938 49.668 69.7578C50.4622 70.4089 51.0612 71.1836 51.4648 72.082C51.8685 72.9674 52.0703 73.9505 52.0703 75.0312C52.0703 76.3594 51.8164 77.5443 51.3086 78.5859C50.8008 79.6146 50.0846 80.487 49.1602 81.2031C48.2487 81.9193 47.181 82.4661 45.957 82.8438C44.7331 83.2083 43.3984 83.3906 41.9531 83.3906C40.7552 83.3906 39.5768 83.2279 38.418 82.9023C37.2721 82.5638 36.2305 82.0625 35.293 81.3984C34.3685 80.7214 33.6263 79.875 33.0664 78.8594C32.5195 77.8307 32.2461 76.6133 32.2461 75.207H37.8906C37.8906 75.9362 38.0729 76.5872 38.4375 77.1602C38.8021 77.7331 39.3034 78.1823 39.9414 78.5078C40.5924 78.8333 41.3151 78.9961 42.1094 78.9961C43.0078 78.9961 43.776 78.8333 44.4141 78.5078C45.0651 78.1693 45.5599 77.7005 45.8984 77.1016C46.25 76.4896 46.4258 75.7799 46.4258 74.9727C46.4258 73.931 46.237 73.0977 45.8594 72.4727C45.4818 71.8346 44.9414 71.3659 44.2383 71.0664C43.5352 70.7669 42.7018 70.6172 41.7383 70.6172H38.7305Z"/>
</mask>
<path d="M38.7305 66.3398H41.7383C42.7018 66.3398 43.4961 66.1771 44.1211 65.8516C44.7461 65.513 45.2083 65.0443 45.5078 64.4453C45.8203 63.8333 45.9766 63.1237 45.9766 62.3164C45.9766 61.5872 45.8333 60.9427 45.5469 60.3828C45.2734 59.8099 44.8503 59.3672 44.2773 59.0547C43.7044 58.7292 42.9818 58.5664 42.1094 58.5664C41.4193 58.5664 40.7812 58.7031 40.1953 58.9766C39.6094 59.25 39.1406 59.6341 38.7891 60.1289C38.4375 60.6237 38.2617 61.2227 38.2617 61.9258H32.6172C32.6172 60.3633 33.0339 59.0026 33.8672 57.8438C34.7135 56.6849 35.8464 55.7799 37.2656 55.1289C38.6849 54.4779 40.2474 54.1523 41.9531 54.1523C43.8802 54.1523 45.5664 54.4648 47.0117 55.0898C48.457 55.7018 49.5833 56.6068 50.3906 57.8047C51.1979 59.0026 51.6016 60.487 51.6016 62.2578C51.6016 63.1562 51.3932 64.0286 50.9766 64.875C50.5599 65.7083 49.9609 66.4635 49.1797 67.1406C48.4115 67.8047 47.474 68.3385 46.3672 68.7422C45.2604 69.1328 44.0169 69.3281 42.6367 69.3281H38.7305V66.3398ZM38.7305 70.6172V67.707H42.6367C44.1862 67.707 45.5469 67.8828 46.7188 68.2344C47.8906 68.5859 48.8737 69.0938 49.668 69.7578C50.4622 70.4089 51.0612 71.1836 51.4648 72.082C51.8685 72.9674 52.0703 73.9505 52.0703 75.0312C52.0703 76.3594 51.8164 77.5443 51.3086 78.5859C50.8008 79.6146 50.0846 80.487 49.1602 81.2031C48.2487 81.9193 47.181 82.4661 45.957 82.8438C44.7331 83.2083 43.3984 83.3906 41.9531 83.3906C40.7552 83.3906 39.5768 83.2279 38.418 82.9023C37.2721 82.5638 36.2305 82.0625 35.293 81.3984C34.3685 80.7214 33.6263 79.875 33.0664 78.8594C32.5195 77.8307 32.2461 76.6133 32.2461 75.207H37.8906C37.8906 75.9362 38.0729 76.5872 38.4375 77.1602C38.8021 77.7331 39.3034 78.1823 39.9414 78.5078C40.5924 78.8333 41.3151 78.9961 42.1094 78.9961C43.0078 78.9961 43.776 78.8333 44.4141 78.5078C45.0651 78.1693 45.5599 77.7005 45.8984 77.1016C46.25 76.4896 46.4258 75.7799 46.4258 74.9727C46.4258 73.931 46.237 73.0977 45.8594 72.4727C45.4818 71.8346 44.9414 71.3659 44.2383 71.0664C43.5352 70.7669 42.7018 70.6172 41.7383 70.6172H38.7305Z" fill="#D4D014"/>
<path d="M38.7305 66.3398V65.3398H37.7305V66.3398H38.7305ZM44.1211 65.8516L44.583 66.7385L44.5902 66.7347L44.5974 66.7309L44.1211 65.8516ZM45.5078 64.4453L44.6172 63.9905L44.6134 63.9981L45.5078 64.4453ZM45.5469 60.3828L44.6444 60.8135L44.6503 60.826L44.6566 60.8383L45.5469 60.3828ZM44.2773 59.0547L43.7833 59.9241L43.7909 59.9284L43.7985 59.9326L44.2773 59.0547ZM38.2617 61.9258V62.9258H39.2617V61.9258H38.2617ZM32.6172 61.9258H31.6172V62.9258H32.6172V61.9258ZM33.8672 57.8438L33.0596 57.2539L33.0553 57.2599L33.8672 57.8438ZM47.0117 55.0898L46.6148 56.0077L46.6218 56.0107L47.0117 55.0898ZM50.3906 57.8047L51.2199 57.2458L50.3906 57.8047ZM50.9766 64.875L51.871 65.3222L51.8737 65.3167L50.9766 64.875ZM49.1797 67.1406L49.8336 67.8972L49.8346 67.8963L49.1797 67.1406ZM46.3672 68.7422L46.7 69.6852L46.7098 69.6817L46.3672 68.7422ZM38.7305 69.3281H37.7305V70.3281H38.7305V69.3281ZM38.7305 70.6172H37.7305V71.6172H38.7305V70.6172ZM38.7305 67.707V66.707H37.7305V67.707H38.7305ZM49.668 69.7578L49.0265 70.525L49.034 70.5312L49.668 69.7578ZM51.4648 72.082L50.5527 72.4919L50.5549 72.4968L51.4648 72.082ZM51.3086 78.5859L52.2053 79.0286L52.2075 79.0241L51.3086 78.5859ZM49.1602 81.2031L48.5477 80.4126L48.5423 80.4168L49.1602 81.2031ZM45.957 82.8438L46.2425 83.8022L46.2518 83.7993L45.957 82.8438ZM38.418 82.9023L38.1346 83.8614L38.1475 83.8651L38.418 82.9023ZM35.293 81.3984L34.7021 82.2052L34.7085 82.2099L34.715 82.2145L35.293 81.3984ZM33.0664 78.8594L32.1834 79.3288L32.187 79.3355L32.1907 79.3422L33.0664 78.8594ZM32.2461 75.207V74.207H31.2461V75.207H32.2461ZM37.8906 75.207H38.8906V74.207H37.8906V75.207ZM39.9414 78.5078L39.4869 79.3986L39.4942 79.4022L39.9414 78.5078ZM44.4141 78.5078L44.8685 79.3986L44.8754 79.395L44.4141 78.5078ZM45.8984 77.1016L45.0313 76.6034L45.0279 76.6095L45.8984 77.1016ZM45.8594 72.4727L44.9988 72.982L45.0035 72.9898L45.8594 72.4727ZM38.7305 66.3398V67.3398H41.7383V66.3398V65.3398H38.7305V66.3398ZM41.7383 66.3398V67.3398C42.8065 67.3398 43.7728 67.1605 44.583 66.7385L44.1211 65.8516L43.6592 64.9646C43.2194 65.1937 42.5971 65.3398 41.7383 65.3398V66.3398ZM44.1211 65.8516L44.5974 66.7309C45.3911 66.3009 46.0052 65.6866 46.4022 64.8925L45.5078 64.4453L44.6134 63.9981C44.4114 64.402 44.1011 64.7251 43.6448 64.9723L44.1211 65.8516ZM45.5078 64.4453L46.3984 64.9001C46.7944 64.1246 46.9766 63.2542 46.9766 62.3164H45.9766H44.9766C44.9766 62.9932 44.8462 63.542 44.6172 63.9905L45.5078 64.4453ZM45.9766 62.3164H46.9766C46.9766 61.4542 46.8064 60.6491 46.4371 59.9273L45.5469 60.3828L44.6566 60.8383C44.8603 61.2363 44.9766 61.7203 44.9766 62.3164H45.9766ZM45.5469 60.3828L46.4494 59.9521C46.0826 59.1836 45.5083 58.587 44.7562 58.1768L44.2773 59.0547L43.7985 59.9326C44.1922 60.1473 44.4643 60.4362 44.6444 60.8135L45.5469 60.3828ZM44.2773 59.0547L44.7714 58.1852C44.0068 57.7508 43.1007 57.5664 42.1094 57.5664V58.5664V59.5664C42.8629 59.5664 43.4021 59.7075 43.7833 59.9241L44.2773 59.0547ZM42.1094 58.5664V57.5664C41.2832 57.5664 40.4996 57.731 39.7724 58.0704L40.1953 58.9766L40.6182 59.8827C41.0629 59.6752 41.5554 59.5664 42.1094 59.5664V58.5664ZM40.1953 58.9766L39.7724 58.0704C39.0402 58.4121 38.4323 58.9046 37.9739 59.5497L38.7891 60.1289L39.6042 60.7081C39.849 60.3637 40.1785 60.0879 40.6182 59.8827L40.1953 58.9766ZM38.7891 60.1289L37.9739 59.5497C37.4838 60.2394 37.2617 61.0491 37.2617 61.9258H38.2617H39.2617C39.2617 61.3963 39.3912 61.008 39.6042 60.7081L38.7891 60.1289ZM38.2617 61.9258V60.9258H32.6172V61.9258V62.9258H38.2617V61.9258ZM32.6172 61.9258H33.6172C33.6172 60.5519 33.9797 59.4001 34.6791 58.4276L33.8672 57.8438L33.0553 57.2599C32.088 58.6051 31.6172 60.1746 31.6172 61.9258H32.6172ZM33.8672 57.8438L34.6747 58.4335C35.4116 57.4247 36.4046 56.6241 37.6826 56.0378L37.2656 55.1289L36.8487 54.22C35.2881 54.9358 34.0155 55.9451 33.0596 57.254L33.8672 57.8438ZM37.2656 55.1289L37.6826 56.0378C38.9593 55.4522 40.3779 55.1523 41.9531 55.1523V54.1523V53.1523C40.1169 53.1523 38.4105 53.5036 36.8487 54.22L37.2656 55.1289ZM41.9531 54.1523V55.1523C43.7735 55.1523 45.3195 55.4476 46.6148 56.0077L47.0117 55.0898L47.4086 54.172C45.8133 53.4821 43.987 53.1523 41.9531 53.1523V54.1523ZM47.0117 55.0898L46.6218 56.0107C47.9048 56.5539 48.8717 57.3402 49.5614 58.3635L50.3906 57.8047L51.2199 57.2458C50.2949 55.8733 49.0093 54.8497 47.4016 54.169L47.0117 55.0898ZM50.3906 57.8047L49.5614 58.3635C50.2344 59.3623 50.6016 60.6407 50.6016 62.2578H51.6016H52.6016C52.6016 60.3332 52.1614 58.6429 51.2199 57.2458L50.3906 57.8047ZM51.6016 62.2578H50.6016C50.6016 62.9954 50.4319 63.7173 50.0794 64.4333L50.9766 64.875L51.8737 65.3167C52.3546 64.34 52.6016 63.3171 52.6016 62.2578H51.6016ZM50.9766 64.875L50.0821 64.4278C49.7304 65.1313 49.2176 65.7845 48.5248 66.3849L49.1797 67.1406L49.8346 67.8963C50.7043 67.1426 51.3894 66.2854 51.871 65.3222L50.9766 64.875ZM49.1797 67.1406L48.5257 66.3841C47.8628 66.9572 47.0353 67.4341 46.0246 67.8027L46.3672 68.7422L46.7098 69.6817C47.9126 69.243 48.9602 68.6522 49.8336 67.8972L49.1797 67.1406ZM46.3672 68.7422L46.0344 67.7992C45.0515 68.1461 43.923 68.3281 42.6367 68.3281V69.3281V70.3281C44.1108 70.3281 45.4694 70.1195 46.7 69.6852L46.3672 68.7422ZM42.6367 69.3281V68.3281H38.7305V69.3281V70.3281H42.6367V69.3281ZM38.7305 69.3281H39.7305V66.3398H38.7305H37.7305V69.3281H38.7305ZM38.7305 70.6172H39.7305V67.707H38.7305H37.7305V70.6172H38.7305ZM38.7305 67.707V68.707H42.6367V67.707V66.707H38.7305V67.707ZM42.6367 67.707V68.707C44.1135 68.707 45.3737 68.8749 46.4314 69.1922L46.7188 68.2344L47.0061 67.2766C45.72 66.8907 44.2589 66.707 42.6367 66.707V67.707ZM46.7188 68.2344L46.4314 69.1922C47.4968 69.5118 48.3533 69.9621 49.0266 70.525L49.668 69.7578L50.3094 68.9906C49.3941 68.2254 48.2845 67.6601 47.0061 67.2766L46.7188 68.2344ZM49.668 69.7578L49.034 70.5312C49.714 71.0885 50.2151 71.7406 50.5527 72.4918L51.4648 72.082L52.377 71.6722C51.9073 70.6266 51.2105 69.7292 50.3019 68.9844L49.668 69.7578ZM51.4648 72.082L50.5549 72.4968C50.8929 73.2383 51.0703 74.0777 51.0703 75.0312H52.0703H53.0703C53.0703 73.8233 52.844 72.6966 52.3748 71.6672L51.4648 72.082ZM52.0703 75.0312H51.0703C51.0703 76.2297 50.8419 77.2612 50.4097 78.1477L51.3086 78.5859L52.2075 79.0241C52.7909 77.8273 53.0703 76.489 53.0703 75.0312H52.0703ZM51.3086 78.5859L50.4119 78.1433C49.9726 79.0332 49.3547 79.7875 48.5478 80.4126L49.1602 81.2031L49.7726 81.9937C50.8145 81.1865 51.629 80.196 52.2053 79.0286L51.3086 78.5859ZM49.1602 81.2031L48.5423 80.4168C47.7369 81.0497 46.7813 81.5429 45.6622 81.8882L45.957 82.8438L46.2518 83.7993C47.5806 83.3894 48.7605 82.7889 49.778 81.9894L49.1602 81.2031ZM45.957 82.8438L45.6716 81.8854C44.5515 82.219 43.3143 82.3906 41.9531 82.3906V83.3906V84.3906C43.4826 84.3906 44.9146 84.1977 46.2425 83.8021L45.957 82.8438ZM41.9531 83.3906V82.3906C40.8471 82.3906 39.7597 82.2405 38.6884 81.9396L38.418 82.9023L38.1475 83.8651C39.394 84.2152 40.6633 84.3906 41.9531 84.3906V83.3906ZM38.418 82.9023L38.7013 81.9433C37.6566 81.6347 36.7152 81.1804 35.871 80.5824L35.293 81.3984L34.715 82.2145C35.7457 82.9446 36.8876 83.4929 38.1346 83.8614L38.418 82.9023ZM35.293 81.3984L35.8838 80.5917C35.0782 80.0016 34.4327 79.2664 33.9421 78.3766L33.0664 78.8594L32.1907 79.3422C32.8199 80.4836 33.6588 81.4411 34.7021 82.2052L35.293 81.3984ZM33.0664 78.8594L33.9494 78.3899C33.4937 77.5329 33.2461 76.4832 33.2461 75.207H32.2461H31.2461C31.2461 76.7433 31.5453 78.1286 32.1834 79.3288L33.0664 78.8594ZM32.2461 75.207V76.207H37.8906V75.207V74.207H32.2461V75.207ZM37.8906 75.207H36.8906C36.8906 76.1117 37.1196 76.9517 37.5938 77.697L38.4375 77.1602L39.2812 76.6233C39.0263 76.2227 38.8906 75.7607 38.8906 75.207H37.8906ZM38.4375 77.1602L37.5938 77.697C38.0596 78.4289 38.699 78.9966 39.4869 79.3986L39.9414 78.5078L40.3959 77.6171C39.9078 77.368 39.5446 77.0373 39.2812 76.6233L38.4375 77.1602ZM39.9414 78.5078L39.4942 79.4022C40.2964 79.8034 41.1743 79.9961 42.1094 79.9961V78.9961V77.9961C41.4559 77.9961 40.8885 77.8633 40.3886 77.6134L39.9414 78.5078ZM42.1094 78.9961V79.9961C43.1265 79.9961 44.0585 79.8118 44.8685 79.3986L44.4141 78.5078L43.9596 77.6171C43.4935 77.8548 42.8891 77.9961 42.1094 77.9961V78.9961ZM44.4141 78.5078L44.8754 79.395C45.6863 78.9734 46.3288 78.3725 46.769 77.5936L45.8984 77.1016L45.0279 76.6095C44.791 77.0285 44.4439 77.3652 43.9527 77.6206L44.4141 78.5078ZM45.8984 77.1016L46.7655 77.5997C47.2161 76.8154 47.4258 75.9292 47.4258 74.9727H46.4258H45.4258C45.4258 75.6307 45.2839 76.1637 45.0313 76.6034L45.8984 77.1016ZM46.4258 74.9727H47.4258C47.4258 73.8224 47.2191 72.7894 46.7153 71.9555L45.8594 72.4727L45.0035 72.9898C45.2549 73.4059 45.4258 74.0396 45.4258 74.9727H46.4258ZM45.8594 72.4727L46.72 71.9633C46.2303 71.136 45.5228 70.5266 44.6301 70.1464L44.2383 71.0664L43.8464 71.9864C44.36 72.2052 44.7332 72.5333 44.9988 72.982L45.8594 72.4727ZM44.2383 71.0664L44.6301 70.1464C43.7753 69.7823 42.8026 69.6172 41.7383 69.6172V70.6172V71.6172C42.601 71.6172 43.295 71.7515 43.8464 71.9864L44.2383 71.0664ZM41.7383 70.6172V69.6172H38.7305V70.6172V71.6172H41.7383V70.6172Z" fill="black" mask="url(#path-7-outside-2_275_938)"/>
</g>
<path d="M14.5616 5.11468C16.1644 5.34009 17.5106 6.45647 18.381 8.12475C19.2511 9.79263 19.633 11.9941 19.3044 14.3322C18.9758 16.6705 18.0018 18.6822 16.7056 20.0457C15.4092 21.4091 13.8073 22.1105 12.2046 21.8854C10.6017 21.6601 9.25448 20.5443 8.38406 18.8762C7.51391 17.2083 7.13218 15.006 7.4608 12.6677C7.7894 10.3296 8.76336 8.31867 10.0594 6.95524C11.356 5.59138 12.9586 4.88939 14.5616 5.11468Z" fill="url(#paint4_linear_275_938)" stroke="#696969" stroke-width="0.5"/>
<mask id="path-10-outside-3_275_938" maskUnits="userSpaceOnUse" x="10.5" y="9" width="6" height="8" fill="black">
<rect fill="white" x="10.5" y="9" width="6" height="8"/>
<path d="M13.0078 12.6289L13.4961 12.6328C13.6471 12.6302 13.7682 12.5911 13.8594 12.5156C13.9531 12.4401 14.0234 12.3424 14.0703 12.2227C14.1198 12.1029 14.151 11.9766 14.1641 11.8438C14.1745 11.7578 14.1719 11.6641 14.1562 11.5625C14.1432 11.4583 14.1094 11.3698 14.0547 11.2969C14.0026 11.224 13.9206 11.1862 13.8086 11.1836C13.6992 11.181 13.6094 11.2109 13.5391 11.2734C13.4688 11.3359 13.4128 11.4141 13.3711 11.5078C13.332 11.599 13.3034 11.6875 13.2852 11.7734L12.125 11.7812C12.1432 11.4766 12.2305 11.207 12.3867 10.9727C12.5456 10.7357 12.7513 10.5508 13.0039 10.418C13.2565 10.2852 13.5365 10.2214 13.8438 10.2266C14.1589 10.2344 14.431 10.3047 14.6602 10.4375C14.8919 10.5703 15.069 10.7565 15.1914 10.9961C15.3138 11.2331 15.3659 11.5104 15.3477 11.8281C15.3346 12.0469 15.2812 12.2461 15.1875 12.4258C15.0938 12.6029 14.9701 12.7552 14.8164 12.8828C14.6654 13.0078 14.4935 13.1055 14.3008 13.1758C14.1081 13.2435 13.9049 13.2773 13.6914 13.2773L12.9023 13.2734L13.0078 12.6289ZM12.8555 13.5625L12.957 12.9336L13.6289 12.9375C13.8477 12.9453 14.0443 12.9818 14.2188 13.0469C14.3932 13.112 14.5417 13.2057 14.6641 13.3281C14.7891 13.4505 14.8802 13.599 14.9375 13.7734C14.9974 13.9479 15.0208 14.1484 15.0078 14.375C14.9922 14.6302 14.931 14.8646 14.8242 15.0781C14.7174 15.2891 14.5755 15.4701 14.3984 15.6211C14.224 15.7721 14.0234 15.888 13.7969 15.9688C13.5729 16.0495 13.3333 16.0872 13.0781 16.082C12.8385 16.0742 12.6263 16.0273 12.4414 15.9414C12.2591 15.8555 12.1055 15.7383 11.9805 15.5898C11.8581 15.4388 11.7656 15.2643 11.7031 15.0664C11.6406 14.8659 11.612 14.6523 11.6172 14.4258H12.7734C12.776 14.5169 12.7865 14.6159 12.8047 14.7227C12.8229 14.8268 12.862 14.9167 12.9219 14.9922C12.9818 15.0677 13.0703 15.1068 13.1875 15.1094C13.3255 15.1146 13.4414 15.0781 13.5352 15C13.6315 14.9219 13.707 14.8242 13.7617 14.707C13.819 14.5898 13.8555 14.4714 13.8711 14.3516C13.8841 14.2318 13.8854 14.1133 13.875 13.9961C13.8646 13.8789 13.8281 13.7799 13.7656 13.6992C13.7031 13.6185 13.599 13.5742 13.4531 13.5664L12.8555 13.5625Z"/>
</mask>
<path d="M13.0078 12.6289L13.4961 12.6328C13.6471 12.6302 13.7682 12.5911 13.8594 12.5156C13.9531 12.4401 14.0234 12.3424 14.0703 12.2227C14.1198 12.1029 14.151 11.9766 14.1641 11.8438C14.1745 11.7578 14.1719 11.6641 14.1562 11.5625C14.1432 11.4583 14.1094 11.3698 14.0547 11.2969C14.0026 11.224 13.9206 11.1862 13.8086 11.1836C13.6992 11.181 13.6094 11.2109 13.5391 11.2734C13.4688 11.3359 13.4128 11.4141 13.3711 11.5078C13.332 11.599 13.3034 11.6875 13.2852 11.7734L12.125 11.7812C12.1432 11.4766 12.2305 11.207 12.3867 10.9727C12.5456 10.7357 12.7513 10.5508 13.0039 10.418C13.2565 10.2852 13.5365 10.2214 13.8438 10.2266C14.1589 10.2344 14.431 10.3047 14.6602 10.4375C14.8919 10.5703 15.069 10.7565 15.1914 10.9961C15.3138 11.2331 15.3659 11.5104 15.3477 11.8281C15.3346 12.0469 15.2812 12.2461 15.1875 12.4258C15.0938 12.6029 14.9701 12.7552 14.8164 12.8828C14.6654 13.0078 14.4935 13.1055 14.3008 13.1758C14.1081 13.2435 13.9049 13.2773 13.6914 13.2773L12.9023 13.2734L13.0078 12.6289ZM12.8555 13.5625L12.957 12.9336L13.6289 12.9375C13.8477 12.9453 14.0443 12.9818 14.2188 13.0469C14.3932 13.112 14.5417 13.2057 14.6641 13.3281C14.7891 13.4505 14.8802 13.599 14.9375 13.7734C14.9974 13.9479 15.0208 14.1484 15.0078 14.375C14.9922 14.6302 14.931 14.8646 14.8242 15.0781C14.7174 15.2891 14.5755 15.4701 14.3984 15.6211C14.224 15.7721 14.0234 15.888 13.7969 15.9688C13.5729 16.0495 13.3333 16.0872 13.0781 16.082C12.8385 16.0742 12.6263 16.0273 12.4414 15.9414C12.2591 15.8555 12.1055 15.7383 11.9805 15.5898C11.8581 15.4388 11.7656 15.2643 11.7031 15.0664C11.6406 14.8659 11.612 14.6523 11.6172 14.4258H12.7734C12.776 14.5169 12.7865 14.6159 12.8047 14.7227C12.8229 14.8268 12.862 14.9167 12.9219 14.9922C12.9818 15.0677 13.0703 15.1068 13.1875 15.1094C13.3255 15.1146 13.4414 15.0781 13.5352 15C13.6315 14.9219 13.707 14.8242 13.7617 14.707C13.819 14.5898 13.8555 14.4714 13.8711 14.3516C13.8841 14.2318 13.8854 14.1133 13.875 13.9961C13.8646 13.8789 13.8281 13.7799 13.7656 13.6992C13.7031 13.6185 13.599 13.5742 13.4531 13.5664L12.8555 13.5625Z" fill="url(#paint5_linear_275_938)"/>
<path d="M13.0078 12.6289L13.0102 12.3289L12.7532 12.3269L12.7118 12.5805L13.0078 12.6289ZM13.4961 12.6328L13.4937 12.9329L13.5013 12.9328L13.4961 12.6328ZM13.8594 12.5156L13.6712 12.282L13.668 12.2846L13.8594 12.5156ZM14.0703 12.2227L13.793 12.1081L13.7909 12.1133L14.0703 12.2227ZM14.1641 11.8438L13.8662 11.8076L13.8655 11.8145L14.1641 11.8438ZM14.1562 11.5625L13.8584 11.5997L13.8597 11.6081L14.1562 11.5625ZM14.0547 11.2969L13.8105 11.4713L13.8147 11.4769L14.0547 11.2969ZM13.8086 11.1836L13.8015 11.4835L13.8016 11.4835L13.8086 11.1836ZM13.3711 11.5078L13.0969 11.386L13.0954 11.3896L13.3711 11.5078ZM13.2852 11.7734L13.2872 12.0734L13.5285 12.0718L13.5786 11.8357L13.2852 11.7734ZM12.125 11.7812L11.8255 11.7633L11.8064 12.0834L12.127 12.0812L12.125 11.7812ZM12.3867 10.9727L12.1375 10.8056L12.1371 10.8062L12.3867 10.9727ZM13.8438 10.2266L13.8512 9.92665L13.8488 9.92661L13.8438 10.2266ZM14.6602 10.4375L14.5097 10.6971L14.511 10.6978L14.6602 10.4375ZM15.1914 10.9961L14.9242 11.1326L14.9249 11.1338L15.1914 10.9961ZM15.3477 11.8281L15.6471 11.846L15.6472 11.8453L15.3477 11.8281ZM15.1875 12.4258L15.4526 12.5662L15.4535 12.5646L15.1875 12.4258ZM14.8164 12.8828L15.0077 13.1139L15.0081 13.1136L14.8164 12.8828ZM14.3008 13.1758L14.4002 13.4588L14.4036 13.4576L14.3008 13.1758ZM13.6914 13.2773L13.6899 13.5773H13.6914V13.2773ZM12.9023 13.2734L12.6063 13.225L12.5495 13.5717L12.9009 13.5734L12.9023 13.2734ZM12.8555 13.5625L12.5593 13.5147L12.5035 13.8602L12.8535 13.8625L12.8555 13.5625ZM12.957 12.9336L12.9588 12.6336L12.7018 12.6321L12.6609 12.8858L12.957 12.9336ZM13.6289 12.9375L13.6396 12.6376L13.6307 12.6375L13.6289 12.9375ZM14.6641 13.3281L14.4519 13.5403L14.4542 13.5425L14.6641 13.3281ZM14.9375 13.7734L14.6524 13.867L14.6538 13.8708L14.9375 13.7734ZM15.0078 14.375L15.3073 14.3933L15.3073 14.3922L15.0078 14.375ZM14.8242 15.0781L15.0919 15.2136L15.0925 15.2123L14.8242 15.0781ZM14.3984 15.6211L14.2037 15.3928L14.2021 15.3943L14.3984 15.6211ZM13.7969 15.9688L13.6962 15.6862L13.6951 15.6865L13.7969 15.9688ZM13.0781 16.082L13.0683 16.3819L13.072 16.382L13.0781 16.082ZM12.4414 15.9414L12.3135 16.2128L12.315 16.2135L12.4414 15.9414ZM11.9805 15.5898L11.7473 15.7788L11.751 15.7831L11.9805 15.5898ZM11.7031 15.0664L11.4167 15.1557L11.4171 15.1567L11.7031 15.0664ZM11.6172 14.4258V14.1258H11.324L11.3173 14.4189L11.6172 14.4258ZM12.7734 14.4258L13.0733 14.4172L13.065 14.1258H12.7734V14.4258ZM12.8047 14.7227L12.509 14.7731L12.5092 14.7744L12.8047 14.7227ZM12.9219 14.9922L13.1569 14.8058L12.9219 14.9922ZM13.1875 15.1094L13.1988 14.8096L13.1942 14.8094L13.1875 15.1094ZM13.5352 15L13.3462 14.767L13.3431 14.7695L13.5352 15ZM13.7617 14.707L13.4922 14.5752L13.4899 14.5802L13.7617 14.707ZM13.8711 14.3516L14.1686 14.3904L14.1693 14.384L13.8711 14.3516ZM13.4531 13.5664L13.4692 13.2665L13.4551 13.2664L13.4531 13.5664ZM13.0078 12.6289L13.0054 12.9289L13.4937 12.9328L13.4961 12.6328L13.4985 12.3328L13.0102 12.3289L13.0078 12.6289ZM13.4961 12.6328L13.5013 12.9328C13.7013 12.9293 13.8941 12.8764 14.0508 12.7466L13.8594 12.5156L13.668 12.2846C13.6423 12.3059 13.593 12.3311 13.4909 12.3329L13.4961 12.6328ZM13.8594 12.5156L14.0476 12.7493C14.1848 12.6387 14.2851 12.497 14.3497 12.332L14.0703 12.2227L13.7909 12.1133C13.7618 12.1879 13.7214 12.2415 13.6712 12.282L13.8594 12.5156ZM14.0703 12.2227L14.3476 12.3372C14.4086 12.1894 14.4468 12.0343 14.4626 11.873L14.1641 11.8438L13.8655 11.8145C13.8553 11.9189 13.8309 12.0164 13.793 12.1081L14.0703 12.2227ZM14.1641 11.8438L14.4619 11.8798C14.4761 11.7622 14.4718 11.6406 14.4528 11.5169L14.1562 11.5625L13.8597 11.6081C13.872 11.6875 13.8728 11.7534 13.8662 11.8077L14.1641 11.8438ZM14.1562 11.5625L14.4539 11.5253C14.4354 11.3773 14.3852 11.2375 14.2947 11.1169L14.0547 11.2969L13.8147 11.4769C13.8336 11.502 13.851 11.5394 13.8586 11.5997L14.1562 11.5625ZM14.0547 11.2969L14.2988 11.1225C14.1782 10.9537 13.9958 10.8879 13.8156 10.8837L13.8086 11.1836L13.8016 11.4835C13.8262 11.4841 13.8326 11.4882 13.8287 11.4864C13.8266 11.4854 13.823 11.4834 13.8191 11.4802C13.8151 11.4769 13.8122 11.4736 13.8106 11.4712L14.0547 11.2969ZM13.8086 11.1836L13.8157 10.8837C13.6437 10.8796 13.476 10.9281 13.3398 11.0492L13.5391 11.2734L13.7384 11.4977C13.7428 11.4938 13.7548 11.4824 13.8015 11.4835L13.8086 11.1836ZM13.5391 11.2734L13.3398 11.0492C13.2347 11.1426 13.1544 11.2567 13.097 11.386L13.3711 11.5078L13.6452 11.6297C13.6711 11.5714 13.7028 11.5293 13.7384 11.4977L13.5391 11.2734ZM13.3711 11.5078L13.0954 11.3896C13.0495 11.4965 13.0145 11.6038 12.9917 11.7112L13.2852 11.7734L13.5786 11.8357C13.5923 11.7712 13.6145 11.7014 13.6468 11.626L13.3711 11.5078ZM13.2852 11.7734L13.2831 11.4734L12.123 11.4813L12.125 11.7812L12.127 12.0812L13.2872 12.0734L13.2852 11.7734ZM12.125 11.7812L12.4245 11.7992C12.4398 11.5429 12.512 11.3256 12.6363 11.1391L12.3867 10.9727L12.1371 10.8062C11.9489 11.0885 11.8467 11.4102 11.8255 11.7633L12.125 11.7812ZM12.3867 10.9727L12.6359 11.1397C12.767 10.9442 12.935 10.7931 13.1435 10.6835L13.0039 10.418L12.8643 10.1524C12.5676 10.3084 12.3242 10.5272 12.1375 10.8056L12.3867 10.9727ZM13.0039 10.418L13.1435 10.6835C13.3481 10.5759 13.5777 10.5221 13.8387 10.5265L13.8438 10.2266L13.8488 9.92661C13.4952 9.92061 13.1649 9.9944 12.8643 10.1524L13.0039 10.418ZM13.8438 10.2266L13.8363 10.5265C14.1107 10.5333 14.3317 10.5939 14.5097 10.6971L14.6602 10.4375L14.8106 10.1779C14.5303 10.0155 14.207 9.93548 13.8512 9.92665L13.8438 10.2266ZM14.6602 10.4375L14.511 10.6978C14.6919 10.8014 14.8281 10.9444 14.9242 11.1326L15.1914 10.9961L15.4586 10.8596C15.3099 10.5686 15.092 10.3392 14.8093 10.1772L14.6602 10.4375ZM15.1914 10.9961L14.9249 11.1338C15.0182 11.3145 15.0639 11.5365 15.0481 11.8109L15.3477 11.8281L15.6472 11.8453C15.6679 11.4844 15.6094 11.1516 15.458 10.8584L15.1914 10.9961ZM15.3477 11.8281L15.0482 11.8103C15.0375 11.9903 14.9942 12.1478 14.9215 12.287L15.1875 12.4258L15.4535 12.5646C15.5683 12.3444 15.6318 12.1035 15.6471 11.846L15.3477 11.8281ZM15.1875 12.4258L14.9224 12.2854C14.8469 12.428 14.7481 12.5496 14.6247 12.652L14.8164 12.8828L15.0081 13.1136C15.192 12.9609 15.3406 12.7778 15.4526 12.5661L15.1875 12.4258ZM14.8164 12.8828L14.6251 12.6517C14.5017 12.7539 14.36 12.8348 14.198 12.894L14.3008 13.1758L14.4036 13.4576C14.627 13.3761 14.8291 13.2618 15.0077 13.1139L14.8164 12.8828ZM14.3008 13.1758L14.2013 12.8927C14.042 12.9487 13.8726 12.9773 13.6914 12.9773V13.2773V13.5773C13.9373 13.5773 14.1741 13.5383 14.4002 13.4588L14.3008 13.1758ZM13.6914 13.2773L13.6929 12.9773L12.9038 12.9734L12.9023 13.2734L12.9009 13.5734L13.6899 13.5773L13.6914 13.2773ZM12.9023 13.2734L13.1984 13.3219L13.3039 12.6774L13.0078 12.6289L12.7118 12.5805L12.6063 13.225L12.9023 13.2734ZM12.8555 13.5625L13.1516 13.6103L13.2532 12.9814L12.957 12.9336L12.6609 12.8858L12.5593 13.5147L12.8555 13.5625ZM12.957 12.9336L12.9553 13.2336L13.6272 13.2375L13.6289 12.9375L13.6307 12.6375L12.9588 12.6336L12.957 12.9336ZM13.6289 12.9375L13.6182 13.2373C13.8103 13.2442 13.9743 13.2759 14.1139 13.3279L14.2188 13.0469L14.3236 12.7658C14.1142 12.6877 13.8851 12.6465 13.6396 12.6377L13.6289 12.9375ZM14.2188 13.0469L14.1139 13.3279C14.2512 13.3792 14.3622 13.4505 14.4519 13.5403L14.6641 13.3281L14.8762 13.116C14.7211 12.9609 14.5353 12.8448 14.3236 12.7658L14.2188 13.0469ZM14.6641 13.3281L14.4542 13.5425C14.5431 13.6295 14.6094 13.7359 14.6525 13.867L14.9375 13.7734L15.2225 13.6798C15.151 13.462 15.035 13.2715 14.874 13.1138L14.6641 13.3281ZM14.9375 13.7734L14.6538 13.8708C14.6985 14.0011 14.7196 14.1614 14.7083 14.3578L15.0078 14.375L15.3073 14.3922C15.3221 14.1355 15.2963 13.8947 15.2212 13.676L14.9375 13.7734ZM15.0078 14.375L14.7084 14.3567C14.695 14.5745 14.6433 14.7691 14.5559 14.944L14.8242 15.0781L15.0925 15.2123C15.2186 14.9601 15.2893 14.686 15.3073 14.3933L15.0078 14.375ZM14.8242 15.0781L14.5566 14.9426C14.4674 15.1187 14.3501 15.268 14.2038 15.3928L14.3984 15.6211L14.5931 15.8493C14.8009 15.6721 14.9675 15.4594 15.0919 15.2136L14.8242 15.0781ZM14.3984 15.6211L14.2021 15.3943C14.0569 15.5199 13.8892 15.6174 13.6962 15.6862L13.7969 15.9688L13.8976 16.2513C14.1577 16.1587 14.391 16.0243 14.5948 15.8479L14.3984 15.6211ZM13.7969 15.9688L13.6951 15.6865C13.5082 15.7539 13.3054 15.7866 13.0842 15.7821L13.0781 16.082L13.072 16.382C13.3613 16.3879 13.6377 16.345 13.8986 16.251L13.7969 15.9688ZM13.0781 16.082L13.0879 15.7822C12.8817 15.7755 12.7103 15.7356 12.5679 15.6694L12.4414 15.9414L12.315 16.2135C12.5423 16.3191 12.7954 16.373 13.0683 16.3819L13.0781 16.082ZM12.4414 15.9414L12.5693 15.67C12.4246 15.6018 12.306 15.5107 12.2099 15.3966L11.9805 15.5898L11.751 15.7831C11.9049 15.9659 12.0937 16.1091 12.3135 16.2128L12.4414 15.9414ZM11.9805 15.5898L12.2135 15.401C12.1164 15.2811 12.0411 15.1406 11.9892 14.9761L11.7031 15.0664L11.4171 15.1567C11.4901 15.3881 11.5997 15.5965 11.7474 15.7787L11.9805 15.5898ZM11.7031 15.0664L11.9895 14.9771C11.9375 14.8101 11.9126 14.6292 11.9171 14.4327L11.6172 14.4258L11.3173 14.4189C11.3114 14.6755 11.3438 14.9217 11.4167 15.1557L11.7031 15.0664ZM11.6172 14.4258V14.7258H12.7734V14.4258V14.1258H11.6172V14.4258ZM12.7734 14.4258L12.4736 14.4343C12.4766 14.5419 12.4888 14.655 12.509 14.7731L12.8047 14.7227L13.1004 14.6722C13.0841 14.5768 13.0755 14.492 13.0733 14.4172L12.7734 14.4258ZM12.8047 14.7227L12.5092 14.7744C12.5352 14.9229 12.5929 15.0602 12.6868 15.1786L12.9219 14.9922L13.1569 14.8058C13.131 14.7731 13.1107 14.7308 13.1002 14.6709L12.8047 14.7227ZM12.9219 14.9922L12.6868 15.1786C12.8141 15.3391 12.9956 15.4052 13.1808 15.4093L13.1875 15.1094L13.1942 14.8094C13.1669 14.8088 13.1557 14.8043 13.1543 14.8036C13.1536 14.8033 13.1543 14.8036 13.1555 14.8045C13.1567 14.8055 13.1572 14.8061 13.1569 14.8058L12.9219 14.9922ZM13.1875 15.1094L13.1762 15.4092C13.3778 15.4168 13.569 15.3623 13.7272 15.2305L13.5352 15L13.3431 14.7695C13.3138 14.7939 13.2733 14.8124 13.1988 14.8096L13.1875 15.1094ZM13.5352 15L13.7241 15.233C13.8573 15.125 13.9605 14.9905 14.0336 14.8339L13.7617 14.707L13.4899 14.5802C13.4536 14.6579 13.4057 14.7187 13.3462 14.767L13.5352 15ZM13.7617 14.707L14.0312 14.8388C14.1017 14.6947 14.1484 14.5449 14.1686 14.3904L13.8711 14.3516L13.5736 14.3128C13.5625 14.3978 13.5363 14.485 13.4922 14.5753L13.7617 14.707ZM13.8711 14.3516L14.1693 14.384C14.1844 14.2451 14.186 14.1068 14.1738 13.9695L13.875 13.9961L13.5762 14.0227C13.5848 14.1197 13.5838 14.2185 13.5729 14.3191L13.8711 14.3516ZM13.875 13.9961L14.1738 13.9695C14.1591 13.8041 14.1056 13.6483 14.0028 13.5156L13.7656 13.6992L13.5284 13.8829C13.5507 13.9116 13.5701 13.9537 13.5762 14.0227L13.875 13.9961ZM13.7656 13.6992L14.0028 13.5156C13.8671 13.3403 13.6634 13.2772 13.4692 13.2668L13.4531 13.5664L13.4371 13.866C13.4847 13.8685 13.5111 13.8764 13.5233 13.8816C13.5334 13.8859 13.5319 13.8873 13.5284 13.8829L13.7656 13.6992ZM13.4531 13.5664L13.4551 13.2664L12.8574 13.2625L12.8555 13.5625L12.8535 13.8625L13.4512 13.8664L13.4531 13.5664Z" fill="#777511" mask="url(#path-10-outside-3_275_938)"/>
<rect x="1" y="67" width="3" height="2" fill="#D4D014"/>
<rect x="1" y="64" width="3" height="2" fill="#D4D014"/>
<rect x="1" y="70" width="3" height="2" fill="#D4D014"/>
<rect x="44" y="134" width="2" height="2" transform="rotate(90 44 134)" fill="#D4D014"/>
<rect x="47" y="134" width="2" height="2" transform="rotate(90 47 134)" fill="#D4D014"/>
<rect x="41" y="134" width="2" height="2" transform="rotate(90 41 134)" fill="#D4D014"/>
<rect x="44" y="1" width="2" height="2" transform="rotate(90 44 1)" fill="#D4D014"/>
<rect x="47" y="1" width="2" height="2" transform="rotate(90 47 1)" fill="#D4D014"/>
<rect x="41" y="1" width="2" height="2" transform="rotate(90 41 1)" fill="#D4D014"/>
<rect x="81" y="67" width="3" height="2" fill="#D4D014"/>
<rect x="81" y="64" width="3" height="2" fill="#D4D014"/>
<rect x="81" y="70" width="3" height="2" fill="#D4D014"/>
<defs>
<filter id="filter0_d_275_938" x="9.5" y="24.5" width="65" height="100" filterUnits="userSpaceOnUse" color-interpolation-filters="sRGB">
<feFlood flood-opacity="0" result="BackgroundImageFix"/>
<feColorMatrix in="SourceAlpha" type="matrix" values="0 0 0 0 0 0 0 0 0 0 0 0 0 0 0 0 0 0 127 0" result="hardAlpha"/>
<feOffset dy="4"/>
<feGaussianBlur stdDeviation="2"/>
<feComposite in2="hardAlpha" operator="out"/>
<feColorMatrix type="matrix" values="0 0 0 0 0 0 0 0 0 0 0 0 0 0 0 0 0 0 0.25 0"/>
<feBlend mode="normal" in2="BackgroundImageFix" result="effect1_dropShadow_275_938"/>
<feBlend mode="normal" in="SourceGraphic" in2="effect1_dropShadow_275_938" result="shape"/>
</filter>
<filter id="filter1_d_275_938" x="27.2461" y="53.1523" width="29.8242" height="39.2383" filterUnits="userSpaceOnUse" color-interpolation-filters="sRGB">
<feFlood flood-opacity="0" result="BackgroundImageFix"/>
<feColorMatrix in="SourceAlpha" type="matrix" values="0 0 0 0 0 0 0 0 0 0 0 0 0 0 0 0 0 0 127 0" result="hardAlpha"/>
<feOffset dy="4"/>
<feGaussianBlur stdDeviation="2"/>
<feComposite in2="hardAlpha" operator="out"/>
<feColorMatrix type="matrix" values="0 0 0 0 0 0 0 0 0 0 0 0 0 0 0 0 0 0 0.25 0"/>
<feBlend mode="normal" in2="BackgroundImageFix" result="effect1_dropShadow_275_938"/>
<feBlend mode="normal" in="SourceGraphic" in2="effect1_dropShadow_275_938" result="shape"/>
</filter>
<linearGradient id="paint0_linear_275_938" x1="42.5" y1="3" x2="42.5" y2="134" gradientUnits="userSpaceOnUse">
<stop stop-color="#BFBC34" stop-opacity="0.95"/>
<stop offset="1" stop-color="#55530E"/>
</linearGradient>
<linearGradient id="paint1_linear_275_938" x1="70.5961" y1="112.867" x2="68.1695" y2="130.133" gradientUnits="userSpaceOnUse">
<stop stop-color="#FFFEE0"/>
<stop offset="1" stop-color="#C3C026"/>
</linearGradient>
<linearGradient id="paint2_linear_275_938" x1="69.2478" y1="134" x2="69.2478" y2="112" gradientUnits="userSpaceOnUse">
<stop stop-color="#FFFEE0"/>
<stop offset="1" stop-color="#C3C026"/>
</linearGradient>
<linearGradient id="paint3_linear_275_938" x1="42" y1="25" x2="42" y2="116" gradientUnits="userSpaceOnUse">
<stop stop-color="#F6F313"/>
<stop offset="1" stop-color="#7C7A00"/>
</linearGradient>
<linearGradient id="paint4_linear_275_938" x1="14.596" y1="4.86706" x2="12.1694" y2="22.1329" gradientUnits="userSpaceOnUse">
<stop stop-color="#FFFEE0"/>
<stop offset="1" stop-color="#C3C026"/>
</linearGradient>
<linearGradient id="paint5_linear_275_938" x1="13.5" y1="6" x2="13.5" y2="21" gradientUnits="userSpaceOnUse">
<stop stop-color="#FFFEE0"/>
<stop offset="1" stop-color="#C3C026"/>
</linearGradient>
</defs>
</svg>
