<svg width="80" height="140" viewBox="0 0 80 140" fill="none" xmlns="http://www.w3.org/2000/svg">
<rect x="0.5" y="0.5" width="79" height="139" rx="9.5" fill="white" stroke="black"/>
<rect x="4.26465" y="3.56567" width="71.4706" height="132.869" rx="9.5" fill="url(#paint0_linear_275_1002)" stroke="black"/>
<path d="M66.4116 115.587C67.9054 115.815 69.1699 116.946 69.9907 118.654C70.8105 120.36 71.1704 122.614 70.8604 125.009C70.5505 127.403 69.6324 129.462 68.4112 130.857C67.1885 132.254 65.6858 132.962 64.1919 132.735C62.698 132.507 61.4327 131.375 60.6118 129.667C59.7921 127.961 59.4322 125.707 59.7421 123.312C60.052 120.918 60.9702 118.859 62.1913 117.464C63.4141 116.068 64.9176 115.359 66.4116 115.587Z" fill="url(#paint1_linear_275_1002)" stroke="#A71E1E" stroke-width="0.5"/>
<mask id="path-4-outside-1_275_1002" maskUnits="userSpaceOnUse" x="62.7292" y="120.934" width="5" height="8" fill="black">
<rect fill="white" x="62.7292" y="120.934" width="5" height="8"/>
<path d="M63.7291 122.899L63.8815 121.934H67.1705L67.0377 122.798L65.2877 124.696C65.1862 124.813 65.0833 124.941 64.9791 125.079C64.875 125.219 64.7838 125.367 64.7057 125.52C64.625 125.677 64.5742 125.834 64.5533 125.993C64.5429 126.079 64.5377 126.18 64.5377 126.298C64.5351 126.417 64.5559 126.522 64.6002 126.61C64.6445 126.701 64.7317 126.748 64.8619 126.751C65.0156 126.759 65.1354 126.708 65.2213 126.598C65.3046 126.489 65.3645 126.36 65.401 126.212C65.4375 126.063 65.4609 125.932 65.4713 125.817L66.6276 125.809C66.6093 126.148 66.5182 126.462 66.3541 126.751C66.1901 127.042 65.9713 127.275 65.6979 127.45C65.4218 127.627 65.1054 127.713 64.7487 127.708C64.4283 127.703 64.1601 127.631 63.944 127.493C63.7252 127.355 63.5651 127.165 63.4635 126.923C63.3593 126.683 63.3216 126.407 63.3502 126.094C63.3684 125.863 63.4231 125.644 63.5143 125.438C63.6054 125.235 63.7187 125.044 63.8541 124.864C63.9869 124.684 64.1315 124.51 64.2877 124.341C64.444 124.174 64.5963 124.01 64.7448 123.848L65.4908 122.903L63.7291 122.899Z"/>
</mask>
<path d="M63.7291 122.899L63.8815 121.934H67.1705L67.0377 122.798L65.2877 124.696C65.1862 124.813 65.0833 124.941 64.9791 125.079C64.875 125.219 64.7838 125.367 64.7057 125.52C64.625 125.677 64.5742 125.834 64.5533 125.993C64.5429 126.079 64.5377 126.18 64.5377 126.298C64.5351 126.417 64.5559 126.522 64.6002 126.61C64.6445 126.701 64.7317 126.748 64.8619 126.751C65.0156 126.759 65.1354 126.708 65.2213 126.598C65.3046 126.489 65.3645 126.36 65.401 126.212C65.4375 126.063 65.4609 125.932 65.4713 125.817L66.6276 125.809C66.6093 126.148 66.5182 126.462 66.3541 126.751C66.1901 127.042 65.9713 127.275 65.6979 127.45C65.4218 127.627 65.1054 127.713 64.7487 127.708C64.4283 127.703 64.1601 127.631 63.944 127.493C63.7252 127.355 63.5651 127.165 63.4635 126.923C63.3593 126.683 63.3216 126.407 63.3502 126.094C63.3684 125.863 63.4231 125.644 63.5143 125.438C63.6054 125.235 63.7187 125.044 63.8541 124.864C63.9869 124.684 64.1315 124.51 64.2877 124.341C64.444 124.174 64.5963 124.01 64.7448 123.848L65.4908 122.903L63.7291 122.899Z" fill="#DF0A0A"/>
<path d="M63.7291 122.899L63.4328 122.852L63.3782 123.198L63.7285 123.199L63.7291 122.899ZM63.8815 121.934V121.634H63.6251L63.5851 121.888L63.8815 121.934ZM67.1705 121.934L67.467 121.98L67.5202 121.634H67.1705V121.934ZM67.0377 122.798L67.2583 123.001L67.3203 122.934L67.3342 122.843L67.0377 122.798ZM65.2877 124.696L65.067 124.493L65.061 124.5L65.2877 124.696ZM64.9791 125.079L64.7397 124.898L64.7381 124.9L64.9791 125.079ZM64.7057 125.52L64.9722 125.658L64.9731 125.656L64.7057 125.52ZM64.5533 125.993L64.2559 125.954L64.2555 125.957L64.5533 125.993ZM64.5377 126.298L64.8377 126.304V126.298H64.5377ZM64.6002 126.61L64.8701 126.479L64.8685 126.476L64.6002 126.61ZM64.8619 126.751L64.8772 126.451L64.8679 126.451L64.8619 126.751ZM65.2213 126.598L65.4572 126.784L65.4599 126.78L65.2213 126.598ZM65.4713 125.817L65.4693 125.517L65.1972 125.519L65.1725 125.79L65.4713 125.817ZM66.6276 125.809L66.9271 125.825L66.9443 125.507L66.6255 125.509L66.6276 125.809ZM66.3541 126.751L66.0932 126.603L66.0927 126.604L66.3541 126.751ZM65.6979 127.45L65.5365 127.197L65.5359 127.197L65.6979 127.45ZM64.7487 127.708L64.7438 128.008L64.7443 128.008L64.7487 127.708ZM63.944 127.493L64.1054 127.24L64.1041 127.239L63.944 127.493ZM63.4635 126.923L63.7402 126.807L63.7386 126.803L63.4635 126.923ZM63.3502 126.094L63.649 126.122L63.6493 126.118L63.3502 126.094ZM63.5143 125.438L63.2406 125.315L63.24 125.317L63.5143 125.438ZM63.8541 124.864L64.0937 125.045L64.0954 125.042L63.8541 124.864ZM64.2877 124.341L64.0689 124.135L64.0673 124.137L64.2877 124.341ZM64.7448 123.848L64.9656 124.051L64.9732 124.043L64.9802 124.034L64.7448 123.848ZM65.4908 122.903L65.7263 123.089L66.1087 122.604L65.4915 122.603L65.4908 122.903ZM63.7291 122.899L64.0255 122.946L64.1778 121.981L63.8815 121.934L63.5851 121.888L63.4328 122.852L63.7291 122.899ZM63.8815 121.934V122.234H67.1705V121.934V121.634H63.8815V121.934ZM67.1705 121.934L66.874 121.889L66.7412 122.752L67.0377 122.798L67.3342 122.843L67.467 121.98L67.1705 121.934ZM67.0377 122.798L66.8171 122.594L65.0671 124.493L65.2877 124.696L65.5083 124.899L67.2583 123.001L67.0377 122.798ZM65.2877 124.696L65.061 124.5C64.9546 124.622 64.8475 124.755 64.7397 124.898L64.9791 125.079L65.2186 125.26C65.3191 125.126 65.4178 125.004 65.5144 124.893L65.2877 124.696ZM64.9791 125.079L64.7381 124.9C64.6241 125.054 64.5241 125.216 64.4383 125.384L64.7057 125.52L64.9731 125.656C65.0435 125.518 65.1258 125.385 65.2202 125.257L64.9791 125.079ZM64.7057 125.52L64.4392 125.383C64.344 125.567 64.2817 125.757 64.2559 125.954L64.5533 125.993L64.8508 126.032C64.8667 125.911 64.9059 125.786 64.9722 125.658L64.7057 125.52ZM64.5533 125.993L64.2555 125.957C64.2433 126.058 64.2377 126.172 64.2377 126.298H64.5377H64.8377C64.8377 126.189 64.8426 126.1 64.8512 126.029L64.5533 125.993ZM64.5377 126.298L64.2378 126.291C64.2343 126.449 64.2617 126.604 64.3319 126.744L64.6002 126.61L64.8685 126.476C64.8502 126.439 64.8359 126.385 64.8377 126.304L64.5377 126.298ZM64.6002 126.61L64.3304 126.741C64.4385 126.964 64.651 127.047 64.8559 127.051L64.8619 126.751L64.8679 126.451C64.8359 126.45 64.8315 126.444 64.8408 126.449C64.8459 126.452 64.8524 126.457 64.8587 126.463C64.8649 126.47 64.8685 126.476 64.8701 126.479L64.6002 126.61ZM64.8619 126.751L64.8467 127.05C65.0856 127.062 65.304 126.979 65.4572 126.784L65.2213 126.598L64.9854 126.413C64.9667 126.437 64.9455 126.455 64.8772 126.451L64.8619 126.751ZM65.2213 126.598L65.4599 126.78C65.5709 126.635 65.6472 126.467 65.6923 126.283L65.401 126.212L65.1097 126.14C65.0819 126.253 65.0384 126.343 64.9827 126.417L65.2213 126.598ZM65.401 126.212L65.6923 126.283C65.7313 126.125 65.7579 125.978 65.7701 125.844L65.4713 125.817L65.1725 125.79C65.1638 125.886 65.1436 126.002 65.1097 126.14L65.401 126.212ZM65.4713 125.817L65.4733 126.117L66.6296 126.109L66.6276 125.809L66.6255 125.509L65.4693 125.517L65.4713 125.817ZM66.6276 125.809L66.328 125.793C66.3122 126.086 66.2339 126.355 66.0932 126.603L66.3541 126.751L66.615 126.899C66.8025 126.569 66.9065 126.209 66.9271 125.825L66.6276 125.809ZM66.3541 126.751L66.0927 126.604C65.952 126.854 65.767 127.05 65.5365 127.197L65.6979 127.45L65.8593 127.703C66.1756 127.501 66.4282 127.231 66.6156 126.898L66.3541 126.751ZM65.6979 127.45L65.5359 127.197C65.3138 127.34 65.0563 127.412 64.753 127.408L64.7487 127.708L64.7443 128.008C65.1546 128.014 65.5299 127.914 65.8599 127.702L65.6979 127.45ZM64.7487 127.708L64.7535 127.408C64.475 127.403 64.2644 127.342 64.1054 127.24L63.944 127.493L63.7825 127.746C64.0559 127.92 64.3817 128.002 64.7438 128.008L64.7487 127.708ZM63.944 127.493L64.1041 127.239C63.9382 127.135 63.8183 126.993 63.7402 126.807L63.4635 126.923L63.1868 127.039C63.3118 127.337 63.5122 127.575 63.7839 127.747L63.944 127.493ZM63.4635 126.923L63.7386 126.803C63.6582 126.618 63.624 126.394 63.649 126.122L63.3502 126.094L63.0515 126.067C63.0191 126.42 63.0604 126.748 63.1884 127.042L63.4635 126.923ZM63.3502 126.094L63.6493 126.118C63.665 125.919 63.7116 125.733 63.7886 125.56L63.5143 125.438L63.24 125.317C63.1346 125.554 63.0719 125.806 63.0511 126.071L63.3502 126.094ZM63.5143 125.438L63.788 125.561C63.8699 125.379 63.9716 125.207 64.0937 125.045L63.8541 124.864L63.6145 124.683C63.4658 124.881 63.341 125.092 63.2406 125.315L63.5143 125.438ZM63.8541 124.864L64.0954 125.042C64.2215 124.872 64.3591 124.706 64.5082 124.544L64.2877 124.341L64.0673 124.137C63.9039 124.314 63.7524 124.497 63.6129 124.686L63.8541 124.864ZM64.2877 124.341L64.5066 124.546C64.6635 124.378 64.8165 124.214 64.9656 124.051L64.7448 123.848L64.5239 123.645C64.3762 123.806 64.2245 123.969 64.0689 124.135L64.2877 124.341ZM64.7448 123.848L64.9802 124.034L65.7263 123.089L65.4908 122.903L65.2554 122.717L64.5093 123.663L64.7448 123.848ZM65.4908 122.903L65.4915 122.603L63.7298 122.599L63.7291 122.899L63.7285 123.199L65.4902 123.203L65.4908 122.903Z" fill="#A71E1E" mask="url(#path-4-outside-1_275_1002)"/>
<g filter="url(#filter0_d_275_1002)">
<ellipse cx="39.5295" cy="72.0437" rx="26.3529" ry="46.4963" fill="url(#paint2_linear_275_1002)"/>
<ellipse cx="39.5295" cy="72.0437" rx="26.3529" ry="46.4963" stroke="#7E0000"/>
</g>
<g filter="url(#filter1_d_275_1002)">
<mask id="path-7-outside-2_275_1002" maskUnits="userSpaceOnUse" x="28" y="54.613" width="23" height="31" fill="black">
<rect fill="white" x="28" y="54.613" width="23" height="31"/>
<path d="M49.9219 80.2185V84.613H30.4688V80.863L39.668 70.9998C40.5924 69.9711 41.3216 69.0662 41.8555 68.2849C42.3893 67.4906 42.7734 66.781 43.0078 66.156C43.2552 65.518 43.3789 64.9125 43.3789 64.3396C43.3789 63.4802 43.2357 62.7445 42.9492 62.1326C42.6628 61.5076 42.2396 61.0258 41.6797 60.6873C41.1328 60.3487 40.4557 60.1794 39.6484 60.1794C38.7891 60.1794 38.0469 60.3878 37.4219 60.8044C36.8099 61.2211 36.3411 61.8005 36.0156 62.5427C35.7031 63.2849 35.5469 64.1248 35.5469 65.0623H29.9023C29.9023 63.3695 30.306 61.8201 31.1133 60.4138C31.9206 58.9945 33.0599 57.8682 34.5312 57.0349C36.0026 56.1886 37.7474 55.7654 39.7656 55.7654C41.7578 55.7654 43.4375 56.0909 44.8047 56.7419C46.1849 57.38 47.2266 58.3044 47.9297 59.5154C48.6458 60.7133 49.0039 62.1456 49.0039 63.8123C49.0039 64.7498 48.8542 65.6677 48.5547 66.5662C48.2552 67.4516 47.8255 68.337 47.2656 69.2224C46.7188 70.0948 46.0547 70.9802 45.2734 71.8787C44.4922 72.7771 43.6263 73.7081 42.6758 74.6716L37.7344 80.2185H49.9219Z"/>
</mask>
<path d="M49.9219 80.2185V84.613H30.4688V80.863L39.668 70.9998C40.5924 69.9711 41.3216 69.0662 41.8555 68.2849C42.3893 67.4906 42.7734 66.781 43.0078 66.156C43.2552 65.518 43.3789 64.9125 43.3789 64.3396C43.3789 63.4802 43.2357 62.7445 42.9492 62.1326C42.6628 61.5076 42.2396 61.0258 41.6797 60.6873C41.1328 60.3487 40.4557 60.1794 39.6484 60.1794C38.7891 60.1794 38.0469 60.3878 37.4219 60.8044C36.8099 61.2211 36.3411 61.8005 36.0156 62.5427C35.7031 63.2849 35.5469 64.1248 35.5469 65.0623H29.9023C29.9023 63.3695 30.306 61.8201 31.1133 60.4138C31.9206 58.9945 33.0599 57.8682 34.5312 57.0349C36.0026 56.1886 37.7474 55.7654 39.7656 55.7654C41.7578 55.7654 43.4375 56.0909 44.8047 56.7419C46.1849 57.38 47.2266 58.3044 47.9297 59.5154C48.6458 60.7133 49.0039 62.1456 49.0039 63.8123C49.0039 64.7498 48.8542 65.6677 48.5547 66.5662C48.2552 67.4516 47.8255 68.337 47.2656 69.2224C46.7188 70.0948 46.0547 70.9802 45.2734 71.8787C44.4922 72.7771 43.6263 73.7081 42.6758 74.6716L37.7344 80.2185H49.9219Z" fill="#DF0A0A"/>
<path d="M49.9219 80.2185H50.9219V79.2185H49.9219V80.2185ZM49.9219 84.613V85.613H50.9219V84.613H49.9219ZM30.4688 84.613H29.4688V85.613H30.4688V84.613ZM30.4688 80.863L29.7375 80.181L29.4688 80.4691V80.863H30.4688ZM39.668 70.9998L40.3993 71.6818L40.4056 71.6751L40.4117 71.6682L39.668 70.9998ZM41.8555 68.2849L42.6811 68.8491L42.6854 68.8427L41.8555 68.2849ZM43.0078 66.156L42.0754 65.7945L42.0715 65.8049L43.0078 66.156ZM42.9492 62.1326L42.0401 62.5492L42.0435 62.5565L42.9492 62.1326ZM41.6797 60.6873L41.1533 61.5376L41.1623 61.543L41.6797 60.6873ZM37.4219 60.8044L36.8671 59.9724L36.8591 59.9778L37.4219 60.8044ZM36.0156 62.5427L35.0998 62.1411L35.0969 62.1478L35.094 62.1547L36.0156 62.5427ZM35.5469 65.0623V66.0623H36.5469V65.0623H35.5469ZM29.9023 65.0623H28.9023V66.0623H29.9023V65.0623ZM31.1133 60.4138L31.9805 60.9117L31.9825 60.9082L31.1133 60.4138ZM34.5312 57.0349L35.0241 57.9051L35.0299 57.9017L34.5312 57.0349ZM44.8047 56.7419L44.3747 57.6449L44.3851 57.6497L44.8047 56.7419ZM47.9297 59.5154L47.0648 60.0176L47.0714 60.0285L47.9297 59.5154ZM48.5547 66.5662L49.502 66.8866L49.5034 66.8824L48.5547 66.5662ZM47.2656 69.2224L46.4204 68.6879L46.4183 68.6913L47.2656 69.2224ZM42.6758 74.6716L41.9639 73.9694L41.946 73.9875L41.9291 74.0065L42.6758 74.6716ZM37.7344 80.2185L36.9877 79.5533L35.5043 81.2185H37.7344V80.2185ZM49.9219 80.2185H48.9219V84.613H49.9219H50.9219V80.2185H49.9219ZM49.9219 84.613V83.613H30.4688V84.613V85.613H49.9219V84.613ZM30.4688 84.613H31.4688V80.863H30.4688H29.4688V84.613H30.4688ZM30.4688 80.863L31.2 81.5451L40.3993 71.6818L39.668 70.9998L38.9367 70.3177L29.7375 80.181L30.4688 80.863ZM39.668 70.9998L40.4117 71.6682C41.3536 70.6202 42.1138 69.6793 42.6811 68.8491L41.8555 68.2849L41.0298 67.7207C40.5294 68.453 39.8313 69.322 38.9242 70.3313L39.668 70.9998ZM41.8555 68.2849L42.6854 68.8427C43.2456 68.0092 43.6735 67.2288 43.9441 66.5071L43.0078 66.156L42.0715 65.8049C41.8734 66.3332 41.533 66.972 41.0255 67.7271L41.8555 68.2849ZM43.0078 66.156L43.9402 66.5175C44.2238 65.7861 44.3789 65.0577 44.3789 64.3396H43.3789H42.3789C42.3789 64.7674 42.2866 65.2499 42.0755 65.7945L43.0078 66.156ZM43.3789 64.3396H44.3789C44.3789 63.3722 44.218 62.4843 43.8549 61.7086L42.9492 62.1326L42.0435 62.5565C42.2534 63.0048 42.3789 63.5882 42.3789 64.3396H43.3789ZM42.9492 62.1326L43.8583 61.7159C43.4927 60.9184 42.9376 60.2793 42.1971 59.8315L41.6797 60.6873L41.1623 61.543C41.5415 61.7723 41.8328 62.0968 42.0402 62.5492L42.9492 62.1326ZM41.6797 60.6873L42.206 59.837C41.4653 59.3784 40.5946 59.1794 39.6484 59.1794V60.1794V61.1794C40.3169 61.1794 40.8003 61.319 41.1533 61.5375L41.6797 60.6873ZM39.6484 60.1794V59.1794C38.6209 59.1794 37.6792 59.431 36.8672 59.9724L37.4219 60.8044L37.9766 61.6365C38.4145 61.3445 38.9572 61.1794 39.6484 61.1794V60.1794ZM37.4219 60.8044L36.8591 59.9778C36.0773 60.5101 35.4934 61.2438 35.0998 62.1411L36.0156 62.5427L36.9314 62.9444C37.1889 62.3573 37.5425 61.9321 37.9847 61.631L37.4219 60.8044ZM36.0156 62.5427L35.094 62.1547C34.722 63.0382 34.5469 64.0131 34.5469 65.0623H35.5469H36.5469C36.5469 64.2364 36.6843 63.5317 36.9373 62.9308L36.0156 62.5427ZM35.5469 65.0623V64.0623H29.9023V65.0623V66.0623H35.5469V65.0623ZM29.9023 65.0623H30.9023C30.9023 63.5363 31.2641 62.1596 31.9805 60.9117L31.1133 60.4138L30.246 59.916C29.3479 61.4805 28.9023 63.2028 28.9023 65.0623H29.9023ZM31.1133 60.4138L31.9825 60.9082C32.6973 59.6516 33.7039 58.6527 35.0241 57.905L34.5312 57.0349L34.0384 56.1648C32.4159 57.0838 31.1439 58.3375 30.2441 59.9194L31.1133 60.4138ZM34.5312 57.0349L35.0299 57.9017C36.3231 57.1578 37.8892 56.7654 39.7656 56.7654V55.7654V54.7654C37.6056 54.7654 35.6821 55.2193 34.0326 56.1681L34.5312 57.0349ZM39.7656 55.7654V56.7654C41.654 56.7654 43.1773 57.0746 44.3748 57.6448L44.8047 56.7419L45.2346 55.8391C43.6977 55.1072 41.8616 54.7654 39.7656 54.7654V55.7654ZM44.8047 56.7419L44.3851 57.6497C45.5956 58.2092 46.4739 58.9997 47.0649 60.0175L47.9297 59.5154L48.7945 59.0132C47.9792 57.6092 46.7742 56.5507 45.2243 55.8342L44.8047 56.7419ZM47.9297 59.5154L47.0714 60.0285C47.6782 61.0436 48.0039 62.291 48.0039 63.8123H49.0039H50.0039C50.0039 62.0002 49.6134 60.383 48.788 59.0023L47.9297 59.5154ZM49.0039 63.8123H48.0039C48.0039 64.6412 47.8718 65.4524 47.606 66.2499L48.5547 66.5662L49.5034 66.8824C49.8365 65.883 50.0039 64.8583 50.0039 63.8123H49.0039ZM48.5547 66.5662L47.6074 66.2458C47.3362 67.0476 46.9429 67.8616 46.4204 68.688L47.2656 69.2224L48.1108 69.7569C48.7081 68.8123 49.1742 67.8555 49.502 66.8866L48.5547 66.5662ZM47.2656 69.2224L46.4183 68.6913C45.9029 69.5135 45.2711 70.3573 44.5188 71.2225L45.2734 71.8787L46.028 72.5348C46.8382 71.6031 47.5346 70.6761 48.1129 69.7535L47.2656 69.2224ZM45.2734 71.8787L44.5188 71.2225C43.753 72.1031 42.9016 73.0188 41.9639 73.9694L42.6758 74.6716L43.3877 75.3739C44.351 74.3974 45.2313 73.451 46.028 72.5348L45.2734 71.8787ZM42.6758 74.6716L41.9291 74.0065L36.9877 79.5533L37.7344 80.2185L38.4811 80.8837L43.4225 75.3368L42.6758 74.6716ZM37.7344 80.2185V81.2185H49.9219V80.2185V79.2185H37.7344V80.2185Z" fill="black" mask="url(#path-7-outside-2_275_1002)"/>
</g>
<path d="M13.7055 5.22167C15.1993 5.44972 16.4638 6.58097 17.2847 8.2892C18.1045 9.99542 18.4643 12.2494 18.1544 14.6439C17.8445 17.0384 16.9264 19.0973 15.7051 20.4921C14.4824 21.8885 12.9798 22.5975 11.4859 22.3696C9.9919 22.1417 8.72663 21.0103 7.90576 19.3019C7.086 17.5957 6.7261 15.3416 7.03602 12.9473C7.34596 10.5529 8.26412 8.49383 9.48529 7.09906C10.7081 5.70252 12.2115 4.99369 13.7055 5.22167Z" fill="url(#paint3_linear_275_1002)" stroke="#A71E1E" stroke-width="0.5"/>
<mask id="path-10-outside-3_275_1002" maskUnits="userSpaceOnUse" x="10.2354" y="9.13135" width="5" height="8" fill="black">
<rect fill="white" x="10.2354" y="9.13135" width="5" height="8"/>
<path d="M14.1513 15.1665L13.9989 16.1313H10.7098L10.8427 15.2681L12.5927 13.3696C12.6942 13.2524 12.7971 13.1248 12.9013 12.9868C13.0054 12.8462 13.0966 12.6991 13.1747 12.5454C13.2554 12.3892 13.3062 12.2316 13.327 12.0728C13.3375 11.9868 13.3427 11.8853 13.3427 11.7681C13.3453 11.6483 13.3244 11.5441 13.2802 11.4556C13.2359 11.3644 13.1486 11.3175 13.0184 11.3149C12.8648 11.3071 12.745 11.3579 12.6591 11.4673C12.5757 11.5767 12.5158 11.7056 12.4794 11.854C12.4429 12.0024 12.4195 12.134 12.4091 12.2485L11.2528 12.2563C11.271 11.9178 11.3622 11.604 11.5263 11.3149C11.6903 11.0233 11.9091 10.7902 12.1825 10.6157C12.4585 10.4386 12.775 10.3527 13.1317 10.3579C13.452 10.3631 13.7203 10.4347 13.9364 10.5728C14.1552 10.7108 14.3153 10.9009 14.4169 11.1431C14.521 11.3826 14.5588 11.6587 14.5302 11.9712C14.5119 12.203 14.4572 12.4217 14.3661 12.6274C14.275 12.8306 14.1617 13.022 14.0263 13.2017C13.8934 13.3813 13.7489 13.5558 13.5927 13.7251C13.4364 13.8918 13.2841 14.0558 13.1356 14.2173L12.3895 15.1626L14.1513 15.1665Z"/>
</mask>
<path d="M14.1513 15.1665L13.9989 16.1313H10.7098L10.8427 15.2681L12.5927 13.3696C12.6942 13.2524 12.7971 13.1248 12.9013 12.9868C13.0054 12.8462 13.0966 12.6991 13.1747 12.5454C13.2554 12.3892 13.3062 12.2316 13.327 12.0728C13.3375 11.9868 13.3427 11.8853 13.3427 11.7681C13.3453 11.6483 13.3244 11.5441 13.2802 11.4556C13.2359 11.3644 13.1486 11.3175 13.0184 11.3149C12.8648 11.3071 12.745 11.3579 12.6591 11.4673C12.5757 11.5767 12.5158 11.7056 12.4794 11.854C12.4429 12.0024 12.4195 12.134 12.4091 12.2485L11.2528 12.2563C11.271 11.9178 11.3622 11.604 11.5263 11.3149C11.6903 11.0233 11.9091 10.7902 12.1825 10.6157C12.4585 10.4386 12.775 10.3527 13.1317 10.3579C13.452 10.3631 13.7203 10.4347 13.9364 10.5728C14.1552 10.7108 14.3153 10.9009 14.4169 11.1431C14.521 11.3826 14.5588 11.6587 14.5302 11.9712C14.5119 12.203 14.4572 12.4217 14.3661 12.6274C14.275 12.8306 14.1617 13.022 14.0263 13.2017C13.8934 13.3813 13.7489 13.5558 13.5927 13.7251C13.4364 13.8918 13.2841 14.0558 13.1356 14.2173L12.3895 15.1626L14.1513 15.1665Z" fill="#DF0A0A"/>
<path d="M14.1513 15.1665L14.4476 15.2133L14.5022 14.8673L14.1519 14.8665L14.1513 15.1665ZM13.9989 16.1313V16.4313H14.2553L14.2952 16.1781L13.9989 16.1313ZM10.7098 16.1313L10.4133 16.0857L10.3602 16.4313H10.7098V16.1313ZM10.8427 15.2681L10.6221 15.0647L10.5601 15.132L10.5461 15.2224L10.8427 15.2681ZM12.5927 13.3696L12.8133 13.5731L12.8194 13.5661L12.5927 13.3696ZM12.9013 12.9868L13.1407 13.1675L13.1423 13.1654L12.9013 12.9868ZM13.1747 12.5454L12.9082 12.4077L12.9073 12.4094L13.1747 12.5454ZM13.327 12.0728L13.6245 12.1118L13.6249 12.1089L13.327 12.0728ZM13.3427 11.7681L13.0427 11.7615V11.7681H13.3427ZM13.2802 11.4556L13.0103 11.5866L13.0118 11.5897L13.2802 11.4556ZM13.0184 11.3149L13.0032 11.6147L13.0124 11.6149L13.0184 11.3149ZM12.6591 11.4673L12.4231 11.2819L12.4204 11.2855L12.6591 11.4673ZM12.4091 12.2485L12.4111 12.5485L12.6832 12.5467L12.7078 12.2757L12.4091 12.2485ZM11.2528 12.2563L10.9532 12.2402L10.9361 12.5585L11.2548 12.5563L11.2528 12.2563ZM11.5263 11.3149L11.7872 11.463L11.7877 11.462L11.5263 11.3149ZM12.1825 10.6157L12.3439 10.8686L12.3445 10.8682L12.1825 10.6157ZM13.1317 10.3579L13.1366 10.0579L13.1361 10.0579L13.1317 10.3579ZM13.9364 10.5728L13.775 10.8256L13.7763 10.8265L13.9364 10.5728ZM14.4169 11.1431L14.1402 11.2591L14.1418 11.2627L14.4169 11.1431ZM14.5302 11.9712L14.2314 11.9438L14.2311 11.9477L14.5302 11.9712ZM14.3661 12.6274L14.6398 12.7503L14.6404 12.749L14.3661 12.6274ZM14.0263 13.2017L13.7867 13.0211L13.785 13.0233L14.0263 13.2017ZM13.5927 13.7251L13.8115 13.9303L13.8131 13.9286L13.5927 13.7251ZM13.1356 14.2173L12.9148 14.0142L12.9071 14.0226L12.9001 14.0314L13.1356 14.2173ZM12.3895 15.1626L12.154 14.9767L11.7717 15.4612L12.3889 15.4626L12.3895 15.1626ZM14.1513 15.1665L13.8549 15.1197L13.7026 16.0846L13.9989 16.1313L14.2952 16.1781L14.4476 15.2133L14.1513 15.1665ZM13.9989 16.1313V15.8313H10.7098V16.1313V16.4313H13.9989V16.1313ZM10.7098 16.1313L11.0064 16.177L11.1392 15.3137L10.8427 15.2681L10.5461 15.2224L10.4133 16.0857L10.7098 16.1313ZM10.8427 15.2681L11.0632 15.4714L12.8132 13.573L12.5927 13.3696L12.3721 13.1663L10.6221 15.0647L10.8427 15.2681ZM12.5927 13.3696L12.8194 13.5661C12.9258 13.4433 13.0329 13.3104 13.1407 13.1675L12.9013 12.9868L12.6618 12.8061C12.5612 12.9393 12.4626 13.0616 12.366 13.1732L12.5927 13.3696ZM12.9013 12.9868L13.1423 13.1654C13.2563 13.0115 13.3563 12.8502 13.4421 12.6814L13.1747 12.5454L12.9073 12.4094C12.8368 12.5479 12.7545 12.6809 12.6602 12.8082L12.9013 12.9868ZM13.1747 12.5454L13.4412 12.6831C13.5363 12.499 13.5987 12.3083 13.6245 12.1118L13.327 12.0728L13.0296 12.0337C13.0137 12.155 12.9745 12.2793 12.9082 12.4077L13.1747 12.5454ZM13.327 12.0728L13.6249 12.1089C13.6371 12.0076 13.6427 11.8934 13.6427 11.7681H13.3427H13.0427C13.0427 11.8771 13.0378 11.966 13.0292 12.0367L13.327 12.0728ZM13.3427 11.7681L13.6426 11.7746C13.646 11.6162 13.6187 11.4618 13.5485 11.3214L13.2802 11.4556L13.0118 11.5897C13.0302 11.6264 13.0445 11.6804 13.0427 11.7615L13.3427 11.7681ZM13.2802 11.4556L13.55 11.3245C13.4419 11.1018 13.2294 11.0191 13.0244 11.015L13.0184 11.3149L13.0124 11.6149C13.0444 11.6155 13.0489 11.6213 13.0395 11.6163C13.0345 11.6136 13.028 11.6091 13.0217 11.6025C13.0155 11.5959 13.0119 11.59 13.0103 11.5866L13.2802 11.4556ZM13.0184 11.3149L13.0337 11.0153C12.7947 11.0032 12.5764 11.087 12.4232 11.2819L12.6591 11.4673L12.895 11.6526C12.9136 11.6289 12.9348 11.6111 13.0032 11.6146L13.0184 11.3149ZM12.6591 11.4673L12.4204 11.2855C12.3095 11.4311 12.2332 11.5985 12.188 11.7824L12.4794 11.854L12.7707 11.9256C12.7985 11.8126 12.842 11.7222 12.8977 11.6491L12.6591 11.4673ZM12.4794 11.854L12.188 11.7824C12.1491 11.9411 12.1224 12.0879 12.1103 12.2214L12.4091 12.2485L12.7078 12.2757C12.7165 12.18 12.7368 12.0638 12.7707 11.9256L12.4794 11.854ZM12.4091 12.2485L12.407 11.9485L11.2508 11.9564L11.2528 12.2563L11.2548 12.5563L12.4111 12.5485L12.4091 12.2485ZM11.2528 12.2563L11.5524 12.2725C11.5682 11.9794 11.6465 11.7109 11.7872 11.463L11.5263 11.3149L11.2653 11.1669C11.0779 11.4971 10.9739 11.8563 10.9532 12.2402L11.2528 12.2563ZM11.5263 11.3149L11.7877 11.462C11.9284 11.2119 12.1133 11.0157 12.3439 10.8686L12.1825 10.6157L12.0211 10.3628C11.7048 10.5647 11.4522 10.8346 11.2648 11.1679L11.5263 11.3149ZM12.1825 10.6157L12.3445 10.8682C12.5666 10.7258 12.8241 10.6535 13.1273 10.6579L13.1317 10.3579L13.1361 10.0579C12.7258 10.052 12.3505 10.1515 12.0205 10.3632L12.1825 10.6157ZM13.1317 10.3579L13.1268 10.6579C13.4054 10.6624 13.616 10.7241 13.775 10.8256L13.9364 10.5728L14.0979 10.3199C13.8245 10.1454 13.4987 10.0638 13.1366 10.058L13.1317 10.3579ZM13.9364 10.5728L13.7763 10.8265C13.9422 10.9311 14.0621 11.0727 14.1402 11.2591L14.4169 11.1431L14.6935 11.027C14.5686 10.729 14.3682 10.4904 14.0965 10.319L13.9364 10.5728ZM14.4169 11.1431L14.1418 11.2627C14.2221 11.4476 14.2564 11.6714 14.2314 11.9438L14.5302 11.9712L14.8289 11.9986C14.8612 11.6459 14.8199 11.3177 14.692 11.0234L14.4169 11.1431ZM14.5302 11.9712L14.2311 11.9477C14.2154 12.1467 14.1688 12.3322 14.0918 12.5059L14.3661 12.6274L14.6404 12.749C14.7457 12.5112 14.8084 12.2592 14.8292 11.9947L14.5302 11.9712ZM14.3661 12.6274L14.0924 12.5046C14.0105 12.6871 13.9087 12.8591 13.7867 13.0211L14.0263 13.2017L14.2658 13.3822C14.4146 13.1848 14.5394 12.9741 14.6398 12.7503L14.3661 12.6274ZM14.0263 13.2017L13.785 13.0233C13.6589 13.194 13.5213 13.3601 13.3722 13.5216L13.5927 13.7251L13.8131 13.9286C13.9765 13.7516 14.128 13.5687 14.2675 13.38L14.0263 13.2017ZM13.5927 13.7251L13.3738 13.5199C13.2169 13.6873 13.0639 13.852 12.9148 14.0142L13.1356 14.2173L13.3565 14.4203C13.5042 14.2596 13.6559 14.0963 13.8115 13.9303L13.5927 13.7251ZM13.1356 14.2173L12.9001 14.0314L12.154 14.9767L12.3895 15.1626L12.625 15.3485L13.3711 14.4031L13.1356 14.2173ZM12.3895 15.1626L12.3889 15.4626L14.1506 15.4665L14.1513 15.1665L14.1519 14.8665L12.3902 14.8626L12.3895 15.1626Z" fill="#A71E1E" mask="url(#path-10-outside-3_275_1002)"/>
<rect x="42.8235" y="136.934" width="2.0438" height="1.88235" transform="rotate(90 42.8235 136.934)" fill="#DF0A0A"/>
<rect x="40" y="136.934" width="2.0438" height="1.88235" transform="rotate(90 40 136.934)" fill="#DF0A0A"/>
<rect x="0.941162" y="70" width="2.82353" height="2.0438" fill="#DF0A0A"/>
<rect x="0.941162" y="66.9343" width="2.82353" height="2.0438" fill="#DF0A0A"/>
<rect x="76.2354" y="70" width="2.82353" height="2.0438" fill="#DF0A0A"/>
<rect x="76.2354" y="66.9343" width="2.82353" height="2.0438" fill="#DF0A0A"/>
<rect x="42.8235" y="1.02197" width="2.0438" height="1.88235" transform="rotate(90 42.8235 1.02197)" fill="#DF0A0A"/>
<rect x="40" y="1.02197" width="2.0438" height="1.88235" transform="rotate(90 40 1.02197)" fill="#DF0A0A"/>
<defs>
<filter id="filter0_d_275_1002" x="8.67651" y="25.0474" width="61.7059" height="101.993" filterUnits="userSpaceOnUse" color-interpolation-filters="sRGB">
<feFlood flood-opacity="0" result="BackgroundImageFix"/>
<feColorMatrix in="SourceAlpha" type="matrix" values="0 0 0 0 0 0 0 0 0 0 0 0 0 0 0 0 0 0 127 0" result="hardAlpha"/>
<feOffset dy="4"/>
<feGaussianBlur stdDeviation="2"/>
<feComposite in2="hardAlpha" operator="out"/>
<feColorMatrix type="matrix" values="0 0 0 0 0 0 0 0 0 0 0 0 0 0 0 0 0 0 0.25 0"/>
<feBlend mode="normal" in2="BackgroundImageFix" result="effect1_dropShadow_275_1002"/>
<feBlend mode="normal" in="SourceGraphic" in2="effect1_dropShadow_275_1002" result="shape"/>
</filter>
<filter id="filter1_d_275_1002" x="24.9023" y="54.7654" width="30.0195" height="38.8477" filterUnits="userSpaceOnUse" color-interpolation-filters="sRGB">
<feFlood flood-opacity="0" result="BackgroundImageFix"/>
<feColorMatrix in="SourceAlpha" type="matrix" values="0 0 0 0 0 0 0 0 0 0 0 0 0 0 0 0 0 0 127 0" result="hardAlpha"/>
<feOffset dy="4"/>
<feGaussianBlur stdDeviation="2"/>
<feComposite in2="hardAlpha" operator="out"/>
<feColorMatrix type="matrix" values="0 0 0 0 0 0 0 0 0 0 0 0 0 0 0 0 0 0 0.25 0"/>
<feBlend mode="normal" in2="BackgroundImageFix" result="effect1_dropShadow_275_1002"/>
<feBlend mode="normal" in="SourceGraphic" in2="effect1_dropShadow_275_1002" result="shape"/>
</filter>
<linearGradient id="paint0_linear_275_1002" x1="39.9999" y1="3.06567" x2="39.9999" y2="136.934" gradientUnits="userSpaceOnUse">
<stop stop-color="#ED2626" stop-opacity="0.95"/>
<stop offset="1" stop-color="#730F0F"/>
</linearGradient>
<linearGradient id="paint1_linear_275_1002" x1="66.4434" y1="115.339" x2="63.7603" y2="132.922" gradientUnits="userSpaceOnUse">
<stop stop-color="#FFB4B4"/>
<stop offset="1" stop-color="#C85656"/>
</linearGradient>
<linearGradient id="paint2_linear_275_1002" x1="39.5295" y1="25.5474" x2="39.5295" y2="118.54" gradientUnits="userSpaceOnUse">
<stop offset="0.266553" stop-color="#FF2F2F"/>
<stop offset="1" stop-color="#B10000"/>
</linearGradient>
<linearGradient id="paint3_linear_275_1002" x1="13.7373" y1="4.97369" x2="11.0543" y2="22.5567" gradientUnits="userSpaceOnUse">
<stop stop-color="#FFB4B4"/>
<stop offset="1" stop-color="#C85656"/>
</linearGradient>
</defs>
</svg>
