<svg width="80" height="140" viewBox="0 0 80 140" fill="none" xmlns="http://www.w3.org/2000/svg">
<rect x="0.5" y="0.5" width="79" height="139" rx="9.5" fill="white" stroke="black"/>
<rect x="4.26465" y="3.56567" width="71.4706" height="132.869" rx="9.5" fill="url(#paint0_linear_275_1194)" stroke="black"/>
<path d="M66.4117 115.587C67.9055 115.815 69.17 116.946 69.9908 118.654C70.8107 120.36 71.1705 122.614 70.8606 125.009C70.5506 127.403 69.6325 129.462 68.4113 130.857C67.1886 132.254 65.6859 132.962 64.1921 132.735C62.6981 132.507 61.4328 131.375 60.6119 129.667C59.7922 127.961 59.4323 125.707 59.7422 123.312C60.0521 120.918 60.9703 118.859 62.1915 117.464C63.4142 116.068 64.9177 115.359 66.4117 115.587Z" fill="url(#paint1_linear_275_1194)" stroke="#336B3F" stroke-width="0.5"/>
<mask id="path-4-outside-1_275_1194" maskUnits="userSpaceOnUse" x="63.1685" y="120.423" width="5" height="7" fill="black">
<rect fill="white" x="63.1685" y="120.423" width="5" height="7"/>
<path d="M63.9379 123.607L64.1058 122.642H67.473L67.3988 123.458L64.9574 127.111H63.9847L65.2621 125.306L66.2426 123.611L63.9379 123.607ZM63.7699 127.111L64.7543 121.423H65.9183L64.9301 127.111H63.7699Z"/>
</mask>
<path d="M63.9379 123.607L64.1058 122.642H67.473L67.3988 123.458L64.9574 127.111H63.9847L65.2621 125.306L66.2426 123.611L63.9379 123.607ZM63.7699 127.111L64.7543 121.423H65.9183L64.9301 127.111H63.7699Z" fill="url(#paint2_linear_275_1194)"/>
<path d="M63.9379 123.607L63.6423 123.555L63.5812 123.906L63.9374 123.907L63.9379 123.607ZM64.1058 122.642V122.342H63.8535L63.8103 122.591L64.1058 122.642ZM67.473 122.642L67.7718 122.669L67.8015 122.342H67.473V122.642ZM67.3988 123.458L67.6482 123.625L67.6907 123.562L67.6976 123.486L67.3988 123.458ZM64.9574 127.111V127.411H65.1177L65.2068 127.278L64.9574 127.111ZM63.9847 127.111L63.7399 126.938L63.4049 127.411H63.9847V127.111ZM65.2621 125.306L65.507 125.479L65.5149 125.468L65.5218 125.456L65.2621 125.306ZM66.2426 123.611L66.5023 123.761L66.7621 123.312L66.2431 123.311L66.2426 123.611ZM63.7699 127.111L63.4743 127.06L63.4135 127.411H63.7699V127.111ZM64.7543 121.423V121.123H64.5017L64.4587 121.372L64.7543 121.423ZM65.9183 121.423L66.2139 121.475L66.275 121.123H65.9183V121.423ZM64.9301 127.111V127.411H65.1824L65.2256 127.162L64.9301 127.111ZM63.9379 123.607L64.2334 123.658L64.4014 122.694L64.1058 122.642L63.8103 122.591L63.6423 123.555L63.9379 123.607ZM64.1058 122.642V122.942H67.473V122.642V122.342H64.1058V122.642ZM67.473 122.642L67.1743 122.615L67.1 123.431L67.3988 123.458L67.6976 123.486L67.7718 122.669L67.473 122.642ZM67.3988 123.458L67.1494 123.292L64.708 126.944L64.9574 127.111L65.2068 127.278L67.6482 123.625L67.3988 123.458ZM64.9574 127.111V126.811H63.9847V127.111V127.411H64.9574V127.111ZM63.9847 127.111L64.2296 127.284L65.507 125.479L65.2621 125.306L65.0172 125.133L63.7399 126.938L63.9847 127.111ZM65.2621 125.306L65.5218 125.456L66.5023 123.761L66.2426 123.611L65.9829 123.461L65.0024 125.156L65.2621 125.306ZM66.2426 123.611L66.2431 123.311L63.9384 123.307L63.9379 123.607L63.9374 123.907L66.242 123.911L66.2426 123.611ZM63.7699 127.111L64.0655 127.162L65.0499 121.475L64.7543 121.423L64.4587 121.372L63.4743 127.06L63.7699 127.111ZM64.7543 121.423V121.723H65.9183V121.423V121.123H64.7543V121.423ZM65.9183 121.423L65.6228 121.372L64.6345 127.059L64.9301 127.111L65.2256 127.162L66.2139 121.475L65.9183 121.423ZM64.9301 127.111V126.811H63.7699V127.111V127.411H64.9301V127.111Z" fill="#318643" mask="url(#path-4-outside-1_275_1194)"/>
<g filter="url(#filter0_d_275_1194)">
<path d="M66.8236 72.0437C66.8236 97.7229 55.0249 118.54 40.4706 118.54C25.9163 118.54 14.1177 97.7229 14.1177 72.0437C14.1177 46.3645 25.9163 25.5474 40.4706 25.5474C55.0249 25.5474 66.8236 46.3645 66.8236 72.0437Z" fill="url(#paint3_linear_275_1194)"/>
<path d="M66.8236 72.0437C66.8236 97.7229 55.0249 118.54 40.4706 118.54C25.9163 118.54 14.1177 97.7229 14.1177 72.0437C14.1177 46.3645 25.9163 25.5474 40.4706 25.5474C55.0249 25.5474 66.8236 46.3645 66.8236 72.0437Z" stroke="#4C7455"/>
</g>
<g filter="url(#filter1_d_275_1194)">
<mask id="path-7-outside-2_275_1194" maskUnits="userSpaceOnUse" x="28" y="54.613" width="24" height="31" fill="black">
<rect fill="white" x="28" y="54.613" width="24" height="31"/>
<path d="M50.3906 73.988V78.4021H29.9023L29.6289 74.9841L41.4844 56.1755H45.957L41.1133 64.281L35.2148 73.988H50.3906ZM47.168 56.1755V84.613H41.543V56.1755H47.168Z"/>
</mask>
<path d="M50.3906 73.988V78.4021H29.9023L29.6289 74.9841L41.4844 56.1755H45.957L41.1133 64.281L35.2148 73.988H50.3906ZM47.168 56.1755V84.613H41.543V56.1755H47.168Z" fill="#0CBA32"/>
<path d="M50.3906 73.988H51.3906V72.988H50.3906V73.988ZM50.3906 78.4021V79.4021H51.3906V78.4021H50.3906ZM29.9023 78.4021L28.9055 78.4818L28.9791 79.4021H29.9023V78.4021ZM29.6289 74.9841L28.7829 74.4509L28.6056 74.7323L28.6321 75.0639L29.6289 74.9841ZM41.4844 56.1755V55.1755H40.9326L40.6384 55.6423L41.4844 56.1755ZM45.957 56.1755L46.8154 56.6885L47.7196 55.1755H45.957V56.1755ZM41.1133 64.281L41.9679 64.8003L41.9717 64.794L41.1133 64.281ZM35.2148 73.988L34.3602 73.4687L33.4371 74.988H35.2148V73.988ZM47.168 56.1755H48.168V55.1755H47.168V56.1755ZM47.168 84.613V85.613H48.168V84.613H47.168ZM41.543 84.613H40.543V85.613H41.543V84.613ZM41.543 56.1755V55.1755H40.543V56.1755H41.543ZM50.3906 73.988H49.3906V78.4021H50.3906H51.3906V73.988H50.3906ZM50.3906 78.4021V77.4021H29.9023V78.4021V79.4021H50.3906V78.4021ZM29.9023 78.4021L30.8992 78.3224L30.6257 74.9044L29.6289 74.9841L28.6321 75.0639L28.9055 78.4818L29.9023 78.4021ZM29.6289 74.9841L30.4749 75.5174L42.3303 56.7088L41.4844 56.1755L40.6384 55.6423L28.7829 74.4509L29.6289 74.9841ZM41.4844 56.1755V57.1755H45.957V56.1755V55.1755H41.4844V56.1755ZM45.957 56.1755L45.0986 55.6626L40.2549 63.768L41.1133 64.281L41.9717 64.794L46.8154 56.6885L45.957 56.1755ZM41.1133 64.281L40.2587 63.7617L34.3602 73.4687L35.2148 73.988L36.0694 74.5073L41.9679 64.8003L41.1133 64.281ZM35.2148 73.988V74.988H50.3906V73.988V72.988H35.2148V73.988ZM47.168 56.1755H46.168V84.613H47.168H48.168V56.1755H47.168ZM47.168 84.613V83.613H41.543V84.613V85.613H47.168V84.613ZM41.543 84.613H42.543V56.1755H41.543H40.543V84.613H41.543ZM41.543 56.1755V57.1755H47.168V56.1755V55.1755H41.543V56.1755Z" fill="black" mask="url(#path-7-outside-2_275_1194)"/>
</g>
<path d="M13.7055 5.22167C15.1993 5.44972 16.4638 6.58097 17.2847 8.2892C18.1045 9.99542 18.4643 12.2494 18.1544 14.6439C17.8445 17.0384 16.9264 19.0973 15.7051 20.4921C14.4824 21.8885 12.9798 22.5975 11.4859 22.3696C9.9919 22.1417 8.72663 21.0103 7.90576 19.3019C7.086 17.5957 6.7261 15.3416 7.03602 12.9473C7.34596 10.5529 8.26412 8.49383 9.48529 7.09906C10.7081 5.70252 12.2115 4.99369 13.7055 5.22167Z" fill="url(#paint4_linear_275_1194)" stroke="#336B3F" stroke-width="0.5"/>
<mask id="path-10-outside-3_275_1194" maskUnits="userSpaceOnUse" x="9.76465" y="10.1313" width="5" height="7" fill="black">
<rect fill="white" x="9.76465" y="10.1313" width="5" height="7"/>
<path d="M13.911 13.9478L13.743 14.9126H10.3759L10.4501 14.0962L12.8915 10.4438H13.8641L12.5868 12.2485L11.6063 13.9438L13.911 13.9478ZM14.079 10.4438L13.0946 16.1313H11.9305L12.9188 10.4438H14.079Z"/>
</mask>
<path d="M13.911 13.9478L13.743 14.9126H10.3759L10.4501 14.0962L12.8915 10.4438H13.8641L12.5868 12.2485L11.6063 13.9438L13.911 13.9478ZM14.079 10.4438L13.0946 16.1313H11.9305L12.9188 10.4438H14.079Z" fill="url(#paint5_linear_275_1194)"/>
<path d="M13.911 13.9478L14.2066 13.9992L14.2677 13.6484L13.9115 13.6478L13.911 13.9478ZM13.743 14.9126V15.2126H13.9953L14.0386 14.9641L13.743 14.9126ZM10.3759 14.9126L10.0771 14.8854L10.0474 15.2126H10.3759V14.9126ZM10.4501 14.0962L10.2007 13.9295L10.1582 13.993L10.1513 14.069L10.4501 14.0962ZM12.8915 10.4438V10.1438H12.7312L12.6421 10.2771L12.8915 10.4438ZM13.8641 10.4438L14.109 10.6172L14.444 10.1438H13.8641V10.4438ZM12.5868 12.2485L12.3419 12.0752L12.334 12.0864L12.3271 12.0983L12.5868 12.2485ZM11.6063 13.9438L11.3466 13.7937L11.0868 14.243L11.6058 14.2438L11.6063 13.9438ZM14.079 10.4438L14.3746 10.495L14.4354 10.1438H14.079V10.4438ZM13.0946 16.1313V16.4313H13.3471L13.3902 16.1825L13.0946 16.1313ZM11.9305 16.1313L11.635 16.08L11.5739 16.4313H11.9305V16.1313ZM12.9188 10.4438V10.1438H12.6665L12.6233 10.3925L12.9188 10.4438ZM13.911 13.9478L13.6155 13.8963L13.4475 14.8611L13.743 14.9126L14.0386 14.9641L14.2066 13.9992L13.911 13.9478ZM13.743 14.9126V14.6126H10.3759V14.9126V15.2126H13.743V14.9126ZM10.3759 14.9126L10.6746 14.9398L10.7488 14.1234L10.4501 14.0962L10.1513 14.069L10.0771 14.8854L10.3759 14.9126ZM10.4501 14.0962L10.6995 14.2629L13.1409 10.6106L12.8915 10.4438L12.6421 10.2771L10.2007 13.9295L10.4501 14.0962ZM12.8915 10.4438V10.7438H13.8641V10.4438V10.1438H12.8915V10.4438ZM13.8641 10.4438L13.6193 10.2705L12.3419 12.0752L12.5868 12.2485L12.8317 12.4219L14.109 10.6172L13.8641 10.4438ZM12.5868 12.2485L12.3271 12.0983L11.3466 13.7937L11.6063 13.9438L11.866 14.094L12.8465 12.3987L12.5868 12.2485ZM11.6063 13.9438L11.6058 14.2438L13.9105 14.2478L13.911 13.9478L13.9115 13.6478L11.6068 13.6438L11.6063 13.9438ZM14.079 10.4438L13.7834 10.3927L12.799 16.0802L13.0946 16.1313L13.3902 16.1825L14.3746 10.495L14.079 10.4438ZM13.0946 16.1313V15.8313H11.9305V16.1313V16.4313H13.0946V16.1313ZM11.9305 16.1313L12.2261 16.1827L13.2144 10.4952L12.9188 10.4438L12.6233 10.3925L11.635 16.08L11.9305 16.1313ZM12.9188 10.4438V10.7438H14.079V10.4438V10.1438H12.9188V10.4438Z" fill="#318643" mask="url(#path-10-outside-3_275_1194)"/>
<rect x="0.941162" y="73.0657" width="2.82353" height="2.0438" fill="#0CBA32"/>
<rect x="0.941162" y="70" width="2.82353" height="2.0438" fill="#0CBA32"/>
<rect x="0.941162" y="63.8687" width="2.82353" height="2.0438" fill="#0CBA32"/>
<rect x="0.941162" y="66.9343" width="2.82353" height="2.0438" fill="#0CBA32"/>
<rect x="76.2354" y="73.0657" width="2.82353" height="2.0438" fill="#0CBA32"/>
<rect x="76.2354" y="70" width="2.82353" height="2.0438" fill="#0CBA32"/>
<rect x="76.2354" y="63.8687" width="2.82353" height="2.0438" fill="#0CBA32"/>
<rect x="76.2354" y="66.9343" width="2.82353" height="2.0438" fill="#0CBA32"/>
<rect x="37.1765" y="136.934" width="2.0438" height="1.88235" transform="rotate(90 37.1765 136.934)" fill="#0CBA32"/>
<rect x="40" y="136.934" width="2.0438" height="1.88235" transform="rotate(90 40 136.934)" fill="#0CBA32"/>
<rect x="45.6471" y="136.934" width="2.0438" height="1.88235" transform="rotate(90 45.6471 136.934)" fill="#0CBA32"/>
<rect x="42.8235" y="136.934" width="2.0438" height="1.88235" transform="rotate(90 42.8235 136.934)" fill="#0CBA32"/>
<rect x="37.1765" y="1.02197" width="2.0438" height="1.88235" transform="rotate(90 37.1765 1.02197)" fill="#0CBA32"/>
<rect x="40" y="1.02197" width="2.0438" height="1.88235" transform="rotate(90 40 1.02197)" fill="#0CBA32"/>
<rect x="45.6471" y="1.02197" width="2.0438" height="1.88235" transform="rotate(90 45.6471 1.02197)" fill="#0CBA32"/>
<rect x="42.8235" y="1.02197" width="2.0438" height="1.88235" transform="rotate(90 42.8235 1.02197)" fill="#0CBA32"/>
<defs>
<filter id="filter0_d_275_1194" x="9.61768" y="25.0474" width="61.7059" height="101.993" filterUnits="userSpaceOnUse" color-interpolation-filters="sRGB">
<feFlood flood-opacity="0" result="BackgroundImageFix"/>
<feColorMatrix in="SourceAlpha" type="matrix" values="0 0 0 0 0 0 0 0 0 0 0 0 0 0 0 0 0 0 127 0" result="hardAlpha"/>
<feOffset dy="4"/>
<feGaussianBlur stdDeviation="2"/>
<feComposite in2="hardAlpha" operator="out"/>
<feColorMatrix type="matrix" values="0 0 0 0 0 0 0 0 0 0 0 0 0 0 0 0 0 0 0.25 0"/>
<feBlend mode="normal" in2="BackgroundImageFix" result="effect1_dropShadow_275_1194"/>
<feBlend mode="normal" in="SourceGraphic" in2="effect1_dropShadow_275_1194" result="shape"/>
</filter>
<filter id="filter1_d_275_1194" x="24.6056" y="55.1755" width="30.785" height="38.4375" filterUnits="userSpaceOnUse" color-interpolation-filters="sRGB">
<feFlood flood-opacity="0" result="BackgroundImageFix"/>
<feColorMatrix in="SourceAlpha" type="matrix" values="0 0 0 0 0 0 0 0 0 0 0 0 0 0 0 0 0 0 127 0" result="hardAlpha"/>
<feOffset dy="4"/>
<feGaussianBlur stdDeviation="2"/>
<feComposite in2="hardAlpha" operator="out"/>
<feColorMatrix type="matrix" values="0 0 0 0 0 0 0 0 0 0 0 0 0 0 0 0 0 0 0.25 0"/>
<feBlend mode="normal" in2="BackgroundImageFix" result="effect1_dropShadow_275_1194"/>
<feBlend mode="normal" in="SourceGraphic" in2="effect1_dropShadow_275_1194" result="shape"/>
</filter>
<linearGradient id="paint0_linear_275_1194" x1="39.9999" y1="3.06567" x2="39.9999" y2="136.934" gradientUnits="userSpaceOnUse">
<stop stop-color="#17CF3F" stop-opacity="0.95"/>
<stop offset="1" stop-color="#065016"/>
</linearGradient>
<linearGradient id="paint1_linear_275_1194" x1="66.4435" y1="115.339" x2="63.7604" y2="132.922" gradientUnits="userSpaceOnUse">
<stop stop-color="#DAFFE2"/>
<stop offset="1" stop-color="#6FCA83"/>
</linearGradient>
<linearGradient id="paint2_linear_275_1194" x1="65.6136" y1="136.423" x2="65.6136" y2="113.942" gradientUnits="userSpaceOnUse">
<stop stop-color="#DAFFE2"/>
<stop offset="1" stop-color="#6FCA83"/>
</linearGradient>
<linearGradient id="paint3_linear_275_1194" x1="39.0589" y1="28.1021" x2="39.0589" y2="121.095" gradientUnits="userSpaceOnUse">
<stop stop-color="#8CF9A4"/>
<stop offset="1" stop-color="#01B227"/>
</linearGradient>
<linearGradient id="paint4_linear_275_1194" x1="13.7373" y1="4.97369" x2="11.0543" y2="22.5567" gradientUnits="userSpaceOnUse">
<stop stop-color="#DAFFE2"/>
<stop offset="1" stop-color="#6FCA83"/>
</linearGradient>
<linearGradient id="paint5_linear_275_1194" x1="12.2352" y1="6.13135" x2="12.2352" y2="21.4598" gradientUnits="userSpaceOnUse">
<stop stop-color="#DAFFE2"/>
<stop offset="1" stop-color="#6FCA83"/>
</linearGradient>
</defs>
</svg>
