<svg width="80" height="140" viewBox="0 0 80 140" fill="none" xmlns="http://www.w3.org/2000/svg">
<rect x="0.5" y="0.5" width="79" height="139" rx="9.5" fill="white" stroke="black"/>
<rect x="4.26465" y="3.56567" width="71.4706" height="132.869" rx="9.5" fill="url(#paint0_linear_275_874)" stroke="black"/>
<path d="M66.4117 115.587C67.9055 115.815 69.17 116.946 69.9908 118.654C70.8107 120.36 71.1705 122.614 70.8606 125.009C70.5506 127.403 69.6325 129.462 68.4113 130.857C67.1886 132.254 65.6859 132.962 64.1921 132.735C62.6981 132.507 61.4328 131.375 60.6119 129.667C59.7922 127.961 59.4323 125.707 59.7422 123.312C60.0521 120.918 60.9703 118.859 62.1915 117.464C63.4142 116.068 64.9177 115.359 66.4117 115.587Z" fill="url(#paint1_linear_275_874)" stroke="#540000" stroke-width="0.5"/>
<mask id="path-4-outside-1_275_874" maskUnits="userSpaceOnUse" x="63.1685" y="119.912" width="5" height="7" fill="black">
<rect fill="white" x="63.1685" y="119.912" width="5" height="7"/>
<path d="M66.1722 123.479L67.1097 123.717L66.3754 126.6H63.6332L63.7894 125.615H65.5629L65.8871 124.44C65.7985 124.502 65.7009 124.552 65.5941 124.588C65.4873 124.625 65.3793 124.645 65.2699 124.651C65.0095 124.648 64.7972 124.589 64.6332 124.475C64.4665 124.363 64.3389 124.213 64.2504 124.026C64.1592 123.841 64.0993 123.638 64.0707 123.416C64.042 123.195 64.0368 122.98 64.0551 122.772C64.0759 122.517 64.1345 122.272 64.2308 122.037C64.3246 121.803 64.4522 121.593 64.6136 121.408C64.7725 121.224 64.9626 121.079 65.184 120.975C65.4053 120.871 65.6514 120.823 65.9222 120.83C66.1566 120.836 66.3663 120.884 66.5511 120.975C66.736 121.069 66.8936 121.194 67.0238 121.35C67.1514 121.506 67.2478 121.684 67.3129 121.885C67.3754 122.086 67.404 122.296 67.3988 122.518H66.2465C66.2465 122.427 66.2386 122.326 66.223 122.217C66.2074 122.108 66.1722 122.013 66.1176 121.932C66.0603 121.851 65.9717 121.808 65.8519 121.803C65.7217 121.798 65.6163 121.83 65.5355 121.901C65.4548 121.974 65.3923 122.066 65.348 122.178C65.3038 122.29 65.2712 122.406 65.2504 122.526C65.2295 122.648 65.2165 122.755 65.2113 122.846C65.2035 122.932 65.1996 123.028 65.1996 123.135C65.197 123.242 65.2087 123.343 65.2347 123.44C65.2582 123.536 65.3025 123.615 65.3676 123.678C65.4327 123.74 65.5238 123.773 65.641 123.776C65.7556 123.773 65.8571 123.744 65.9457 123.69C66.0316 123.638 66.1071 123.567 66.1722 123.479Z"/>
</mask>
<path d="M66.1722 123.479L67.1097 123.717L66.3754 126.6H63.6332L63.7894 125.615H65.5629L65.8871 124.44C65.7985 124.502 65.7009 124.552 65.5941 124.588C65.4873 124.625 65.3793 124.645 65.2699 124.651C65.0095 124.648 64.7972 124.589 64.6332 124.475C64.4665 124.363 64.3389 124.213 64.2504 124.026C64.1592 123.841 64.0993 123.638 64.0707 123.416C64.042 123.195 64.0368 122.98 64.0551 122.772C64.0759 122.517 64.1345 122.272 64.2308 122.037C64.3246 121.803 64.4522 121.593 64.6136 121.408C64.7725 121.224 64.9626 121.079 65.184 120.975C65.4053 120.871 65.6514 120.823 65.9222 120.83C66.1566 120.836 66.3663 120.884 66.5511 120.975C66.736 121.069 66.8936 121.194 67.0238 121.35C67.1514 121.506 67.2478 121.684 67.3129 121.885C67.3754 122.086 67.404 122.296 67.3988 122.518H66.2465C66.2465 122.427 66.2386 122.326 66.223 122.217C66.2074 122.108 66.1722 122.013 66.1176 121.932C66.0603 121.851 65.9717 121.808 65.8519 121.803C65.7217 121.798 65.6163 121.83 65.5355 121.901C65.4548 121.974 65.3923 122.066 65.348 122.178C65.3038 122.29 65.2712 122.406 65.2504 122.526C65.2295 122.648 65.2165 122.755 65.2113 122.846C65.2035 122.932 65.1996 123.028 65.1996 123.135C65.197 123.242 65.2087 123.343 65.2347 123.44C65.2582 123.536 65.3025 123.615 65.3676 123.678C65.4327 123.74 65.5238 123.773 65.641 123.776C65.7556 123.773 65.8571 123.744 65.9457 123.69C66.0316 123.638 66.1071 123.567 66.1722 123.479Z" fill="#790000"/>
<path d="M66.1722 123.479L66.2461 123.188L66.0503 123.138L65.9305 123.301L66.1722 123.479ZM67.1097 123.717L67.4005 123.791L67.4746 123.5L67.1836 123.426L67.1097 123.717ZM66.3754 126.6V126.9H66.6085L66.6661 126.674L66.3754 126.6ZM63.6332 126.6L63.3369 126.553L63.2818 126.9H63.6332V126.6ZM63.7894 125.615V125.315H63.5333L63.4931 125.568L63.7894 125.615ZM65.5629 125.615V125.915H65.7913L65.8521 125.695L65.5629 125.615ZM65.8871 124.44L66.1763 124.519L66.3992 123.711L65.7141 124.195L65.8871 124.44ZM65.5941 124.588L65.6911 124.872L65.5941 124.588ZM65.2699 124.651L65.2669 124.951L65.2755 124.951L65.2842 124.95L65.2699 124.651ZM64.6332 124.475L64.805 124.229L64.8005 124.226L64.6332 124.475ZM64.2504 124.026L64.5217 123.898L64.5194 123.893L64.2504 124.026ZM64.0551 122.772L64.3539 122.798L64.3541 122.796L64.0551 122.772ZM64.2308 122.037L64.5083 122.151L64.5094 122.149L64.2308 122.037ZM64.6136 121.408L64.8396 121.606L64.8412 121.604L64.6136 121.408ZM65.9222 120.83L65.9136 121.13L65.9156 121.13L65.9222 120.83ZM66.5511 120.975L66.6868 120.707L66.6838 120.706L66.5511 120.975ZM67.0238 121.35L67.2562 121.16L67.2543 121.158L67.0238 121.35ZM67.3129 121.885L67.5993 121.796L67.5982 121.792L67.3129 121.885ZM67.3988 122.518V122.818H67.6918L67.6987 122.525L67.3988 122.518ZM66.2465 122.518H65.9465V122.818H66.2465V122.518ZM66.1176 121.932L66.366 121.764L66.3622 121.758L66.1176 121.932ZM65.8519 121.803L65.865 121.503L65.8639 121.503L65.8519 121.803ZM65.5355 121.901L65.3385 121.674L65.3344 121.678L65.5355 121.901ZM65.2504 122.526L64.9548 122.474L64.9546 122.475L65.2504 122.526ZM65.2113 122.846L65.5102 122.873L65.5108 122.863L65.2113 122.846ZM65.1996 123.135L65.4996 123.142V123.135H65.1996ZM65.2347 123.44L65.5263 123.369L65.5244 123.361L65.2347 123.44ZM65.641 123.776L65.6343 124.076L65.6478 124.076L65.641 123.776ZM65.9457 123.69L65.7902 123.433L65.788 123.434L65.9457 123.69ZM66.1722 123.479L66.0983 123.77L67.0358 124.008L67.1097 123.717L67.1836 123.426L66.2461 123.188L66.1722 123.479ZM67.1097 123.717L66.819 123.643L66.0847 126.526L66.3754 126.6L66.6661 126.674L67.4005 123.791L67.1097 123.717ZM66.3754 126.6V126.3H63.6332V126.6V126.9H66.3754V126.6ZM63.6332 126.6L63.9295 126.647L64.0857 125.663L63.7894 125.615L63.4931 125.568L63.3369 126.553L63.6332 126.6ZM63.7894 125.615V125.915H65.5629V125.615V125.315H63.7894V125.615ZM65.5629 125.615L65.8521 125.695L66.1763 124.519L65.8871 124.44L65.5979 124.36L65.2737 125.536L65.5629 125.615ZM65.8871 124.44L65.7141 124.195C65.6499 124.24 65.578 124.277 65.4972 124.304L65.5941 124.588L65.6911 124.872C65.8238 124.827 65.9472 124.764 66.0601 124.685L65.8871 124.44ZM65.5941 124.588L65.4972 124.304C65.4163 124.332 65.336 124.347 65.2556 124.351L65.2699 124.651L65.2842 124.95C65.4226 124.944 65.5584 124.917 65.6911 124.872L65.5941 124.588ZM65.2699 124.651L65.2729 124.351C65.0549 124.348 64.9065 124.3 64.805 124.229L64.6332 124.475L64.4614 124.721C64.688 124.879 64.9641 124.948 65.2669 124.951L65.2699 124.651ZM64.6332 124.475L64.8005 124.226C64.6803 124.145 64.5879 124.038 64.5216 123.898L64.2504 124.026L63.9791 124.154C64.09 124.389 64.2528 124.581 64.4659 124.724L64.6332 124.475ZM64.2504 124.026L64.5194 123.893C64.4441 123.74 64.393 123.569 64.3682 123.378L64.0707 123.416L63.7732 123.455C63.8057 123.706 63.8744 123.941 63.9813 124.158L64.2504 124.026ZM64.0707 123.416L64.3682 123.378C64.3421 123.176 64.3377 122.983 64.3539 122.798L64.0551 122.772L63.7562 122.746C63.736 122.977 63.7419 123.213 63.7732 123.455L64.0707 123.416ZM64.0551 122.772L64.3541 122.796C64.3724 122.571 64.4238 122.357 64.5083 122.151L64.2308 122.037L63.9534 121.923C63.8451 122.187 63.7794 122.462 63.756 122.747L64.0551 122.772ZM64.2308 122.037L64.5094 122.149C64.5909 121.945 64.701 121.764 64.8396 121.606L64.6136 121.408L64.3877 121.211C64.2033 121.422 64.0582 121.661 63.9523 121.926L64.2308 122.037ZM64.6136 121.408L64.8412 121.604C64.9724 121.451 65.1285 121.333 65.3117 121.246L65.184 120.975L65.0562 120.703C64.7968 120.826 64.5726 120.996 64.3861 121.213L64.6136 121.408ZM65.184 120.975L65.3117 121.246C65.486 121.164 65.6847 121.124 65.9136 121.13L65.9222 120.83L65.9309 120.53C65.6181 120.521 65.3246 120.577 65.0562 120.703L65.184 120.975ZM65.9222 120.83L65.9156 121.13C66.1122 121.135 66.2779 121.175 66.4185 121.244L66.5511 120.975L66.6838 120.706C66.4546 120.593 66.201 120.536 65.9289 120.53L65.9222 120.83ZM66.5511 120.975L66.4155 121.242C66.5647 121.318 66.6898 121.418 66.7933 121.542L67.0238 121.35L67.2543 121.158C67.0974 120.97 66.9074 120.819 66.6868 120.707L66.5511 120.975ZM67.0238 121.35L66.7914 121.54C66.8945 121.666 66.9734 121.811 67.0275 121.978L67.3129 121.885L67.5982 121.792C67.5221 121.558 67.4083 121.346 67.2562 121.16L67.0238 121.35ZM67.3129 121.885L67.0265 121.974C67.0787 122.142 67.1034 122.32 67.0989 122.511L67.3988 122.518L67.6987 122.525C67.7047 122.273 67.672 122.029 67.5993 121.796L67.3129 121.885ZM67.3988 122.518V122.218H66.2465V122.518V122.818H67.3988V122.518ZM66.2465 122.518H66.5465C66.5465 122.41 66.5372 122.295 66.52 122.175L66.223 122.217L65.926 122.259C65.9401 122.358 65.9465 122.443 65.9465 122.518H66.2465ZM66.223 122.217L66.52 122.175C66.4988 122.026 66.4494 121.887 66.3659 121.764L66.1176 121.932L65.8692 122.1C65.8951 122.138 65.916 122.189 65.926 122.259L66.223 122.217ZM66.1176 121.932L66.3622 121.758C66.2399 121.586 66.0555 121.512 65.865 121.503L65.8519 121.803L65.8389 122.103C65.8666 122.104 65.8769 122.109 65.8772 122.109C65.8773 122.109 65.8762 122.109 65.8747 122.107C65.8731 122.106 65.8726 122.105 65.8729 122.106L66.1176 121.932ZM65.8519 121.803L65.8639 121.503C65.6748 121.496 65.489 121.543 65.3385 121.674L65.5355 121.901L65.7326 122.127C65.7435 122.117 65.7687 122.1 65.8399 122.103L65.8519 121.803ZM65.5355 121.901L65.3344 121.678C65.2159 121.785 65.1284 121.917 65.069 122.068L65.348 122.178L65.627 122.288C65.6561 122.215 65.6937 122.162 65.7366 122.123L65.5355 121.901ZM65.348 122.178L65.069 122.068C65.0172 122.199 64.9791 122.334 64.9548 122.474L65.2504 122.526L65.5459 122.577C65.5633 122.477 65.5903 122.381 65.627 122.288L65.348 122.178ZM65.2504 122.526L64.9546 122.475C64.9325 122.605 64.9178 122.723 64.9118 122.829L65.2113 122.846L65.5108 122.863C65.5152 122.786 65.5265 122.691 65.5461 122.576L65.2504 122.526ZM65.2113 122.846L64.9125 122.819C64.9037 122.916 64.8996 123.021 64.8996 123.135H65.1996H65.4996C65.4996 123.035 65.5032 122.948 65.5101 122.873L65.2113 122.846ZM65.1996 123.135L64.8997 123.128C64.8964 123.261 64.911 123.392 64.9451 123.518L65.2347 123.44L65.5244 123.361C65.5064 123.295 65.4975 123.222 65.4995 123.142L65.1996 123.135ZM65.2347 123.44L64.9432 123.511C64.9788 123.657 65.0495 123.788 65.1598 123.894L65.3676 123.678L65.5753 123.462C65.5554 123.442 65.5376 123.415 65.5262 123.369L65.2347 123.44ZM65.3676 123.678L65.1598 123.894C65.2937 124.023 65.4651 124.072 65.6343 124.076L65.641 123.776L65.6477 123.476C65.6146 123.475 65.5953 123.47 65.5856 123.467C65.5809 123.465 65.5783 123.464 65.5772 123.463C65.5761 123.462 65.5756 123.462 65.5753 123.462L65.3676 123.678ZM65.641 123.776L65.6478 124.076C65.8102 124.072 65.9649 124.03 66.1033 123.945L65.9457 123.69L65.788 123.434C65.7494 123.458 65.701 123.474 65.6342 123.476L65.641 123.776ZM65.9457 123.69L66.1012 123.946C66.2238 123.872 66.3277 123.774 66.4139 123.656L66.1722 123.479L65.9305 123.301C65.8865 123.361 65.8395 123.403 65.7902 123.433L65.9457 123.69Z" fill="#4D0000" mask="url(#path-4-outside-1_275_874)"/>
<g filter="url(#filter0_d_275_874)">
<ellipse cx="39.5295" cy="72.0437" rx="26.3529" ry="46.4963" fill="url(#paint2_linear_275_874)" shape-rendering="crispEdges"/>
<ellipse cx="39.5295" cy="72.0437" rx="26.3529" ry="46.4963" stroke="#540000" shape-rendering="crispEdges"/>
</g>
<g filter="url(#filter1_d_275_874)">
<mask id="path-7-outside-2_275_874" maskUnits="userSpaceOnUse" x="29" y="54.613" width="22" height="32" fill="black">
<rect fill="white" x="29" y="54.613" width="22" height="32"/>
<path d="M35.7617 71.6638L31.2695 70.5896L32.8906 56.1755H48.8672V60.7263H37.5195L36.8164 67.0349C37.194 66.8136 37.7669 66.5792 38.5352 66.3318C39.3034 66.0714 40.1628 65.9412 41.1133 65.9412C42.4935 65.9412 43.7174 66.156 44.7852 66.5857C45.8529 67.0154 46.7578 67.6404 47.5 68.4607C48.2552 69.281 48.8281 70.2836 49.2188 71.4685C49.6094 72.6534 49.8047 73.9945 49.8047 75.4919C49.8047 76.755 49.6094 77.9594 49.2188 79.1052C48.8281 80.238 48.2357 81.2537 47.4414 82.1521C46.6471 83.0375 45.651 83.7341 44.4531 84.2419C43.2552 84.7498 41.8359 85.0037 40.1953 85.0037C38.9714 85.0037 37.7865 84.8214 36.6406 84.4568C35.5078 84.0922 34.4857 83.5518 33.5742 82.8357C32.6758 82.1195 31.9531 81.2537 31.4062 80.238C30.8724 79.2094 30.5924 78.0375 30.5664 76.7224H36.1523C36.2305 77.5297 36.4388 78.2263 36.7773 78.8123C37.1289 79.3852 37.5911 79.8279 38.1641 80.1404C38.737 80.4529 39.4076 80.6091 40.1758 80.6091C40.8919 80.6091 41.5039 80.4724 42.0117 80.199C42.5195 79.9255 42.9297 79.5479 43.2422 79.0662C43.5547 78.5714 43.7826 77.9985 43.9258 77.3474C44.082 76.6833 44.1602 75.9672 44.1602 75.199C44.1602 74.4307 44.069 73.7341 43.8867 73.1091C43.7044 72.4841 43.4245 71.9438 43.0469 71.488C42.6693 71.0323 42.1875 70.6807 41.6016 70.4333C41.0286 70.186 40.3581 70.0623 39.5898 70.0623C38.5482 70.0623 37.7409 70.225 37.168 70.5505C36.6081 70.8761 36.1393 71.2472 35.7617 71.6638Z"/>
</mask>
<path d="M35.7617 71.6638L31.2695 70.5896L32.8906 56.1755H48.8672V60.7263H37.5195L36.8164 67.0349C37.194 66.8136 37.7669 66.5792 38.5352 66.3318C39.3034 66.0714 40.1628 65.9412 41.1133 65.9412C42.4935 65.9412 43.7174 66.156 44.7852 66.5857C45.8529 67.0154 46.7578 67.6404 47.5 68.4607C48.2552 69.281 48.8281 70.2836 49.2188 71.4685C49.6094 72.6534 49.8047 73.9945 49.8047 75.4919C49.8047 76.755 49.6094 77.9594 49.2188 79.1052C48.8281 80.238 48.2357 81.2537 47.4414 82.1521C46.6471 83.0375 45.651 83.7341 44.4531 84.2419C43.2552 84.7498 41.8359 85.0037 40.1953 85.0037C38.9714 85.0037 37.7865 84.8214 36.6406 84.4568C35.5078 84.0922 34.4857 83.5518 33.5742 82.8357C32.6758 82.1195 31.9531 81.2537 31.4062 80.238C30.8724 79.2094 30.5924 78.0375 30.5664 76.7224H36.1523C36.2305 77.5297 36.4388 78.2263 36.7773 78.8123C37.1289 79.3852 37.5911 79.8279 38.1641 80.1404C38.737 80.4529 39.4076 80.6091 40.1758 80.6091C40.8919 80.6091 41.5039 80.4724 42.0117 80.199C42.5195 79.9255 42.9297 79.5479 43.2422 79.0662C43.5547 78.5714 43.7826 77.9985 43.9258 77.3474C44.082 76.6833 44.1602 75.9672 44.1602 75.199C44.1602 74.4307 44.069 73.7341 43.8867 73.1091C43.7044 72.4841 43.4245 71.9438 43.0469 71.488C42.6693 71.0323 42.1875 70.6807 41.6016 70.4333C41.0286 70.186 40.3581 70.0623 39.5898 70.0623C38.5482 70.0623 37.7409 70.225 37.168 70.5505C36.6081 70.8761 36.1393 71.2472 35.7617 71.6638Z" fill="#790000"/>
<path d="M35.7617 71.6638L35.5291 72.6364L36.1051 72.7741L36.5027 72.3353L35.7617 71.6638ZM31.2695 70.5896L30.2758 70.4778L30.177 71.3565L31.037 71.5622L31.2695 70.5896ZM32.8906 56.1755V55.1755H31.9968L31.8969 56.0638L32.8906 56.1755ZM48.8672 56.1755H49.8672V55.1755H48.8672V56.1755ZM48.8672 60.7263V61.7263H49.8672V60.7263H48.8672ZM37.5195 60.7263V59.7263H36.6248L36.5257 60.6155L37.5195 60.7263ZM36.8164 67.0349L35.8226 66.9241L35.6017 68.9062L37.3221 67.8976L36.8164 67.0349ZM38.5352 66.3318L38.8417 67.2836L38.849 67.2813L38.8562 67.2789L38.5352 66.3318ZM47.5 68.4607L46.7584 69.1316L46.7643 69.138L47.5 68.4607ZM49.2188 79.1052L50.1641 79.4312L50.1653 79.4279L49.2188 79.1052ZM47.4414 82.1521L48.1858 82.8199L48.1906 82.8144L47.4414 82.1521ZM36.6406 84.4568L36.3343 85.4087L36.3374 85.4097L36.6406 84.4568ZM33.5742 82.8357L32.9509 83.6177L32.9564 83.622L33.5742 82.8357ZM31.4062 80.238L30.5187 80.6987L30.5222 80.7054L30.5258 80.7121L31.4062 80.238ZM30.5664 76.7224V75.7224H29.5464L29.5666 76.7422L30.5664 76.7224ZM36.1523 76.7224L37.1477 76.6261L37.0602 75.7224H36.1523V76.7224ZM36.7773 78.8123L35.9115 79.3125L35.9181 79.324L35.925 79.3353L36.7773 78.8123ZM38.1641 80.1404L37.6852 81.0183L38.1641 80.1404ZM43.2422 79.0662L44.0812 79.6104L44.0877 79.6002L43.2422 79.0662ZM43.9258 77.3474L42.9524 77.1184L42.9507 77.1255L42.9491 77.1325L43.9258 77.3474ZM41.6016 70.4333L41.2051 71.3514L41.2126 71.3546L41.6016 70.4333ZM37.168 70.5505L36.6739 69.681L36.6653 69.686L37.168 70.5505ZM35.7617 71.6638L35.9943 70.6912L31.5021 69.617L31.2695 70.5896L31.037 71.5622L35.5291 72.6364L35.7617 71.6638ZM31.2695 70.5896L32.2633 70.7014L33.8844 56.2873L32.8906 56.1755L31.8969 56.0638L30.2758 70.4778L31.2695 70.5896ZM32.8906 56.1755V57.1755H48.8672V56.1755V55.1755H32.8906V56.1755ZM48.8672 56.1755H47.8672V60.7263H48.8672H49.8672V56.1755H48.8672ZM48.8672 60.7263V59.7263H37.5195V60.7263V61.7263H48.8672V60.7263ZM37.5195 60.7263L36.5257 60.6155L35.8226 66.9241L36.8164 67.0349L37.8103 67.1457L38.5134 60.8371L37.5195 60.7263ZM36.8164 67.0349L37.3221 67.8976C37.6047 67.732 38.0952 67.524 38.8417 67.2836L38.5352 66.3318L38.2286 65.3799C37.4387 65.6343 36.7833 65.8952 36.3107 66.1722L36.8164 67.0349ZM38.5352 66.3318L38.8562 67.2789C39.505 67.0589 40.2536 66.9412 41.1133 66.9412V65.9412V64.9412C40.0719 64.9412 39.1018 65.0838 38.2141 65.3847L38.5352 66.3318ZM41.1133 65.9412V66.9412C42.3905 66.9412 43.4839 67.14 44.4118 67.5134L44.7852 66.5857L45.1585 65.658C43.951 65.1721 42.5965 64.9412 41.1133 64.9412V65.9412ZM44.7852 66.5857L44.4118 67.5134C45.3448 67.8888 46.1221 68.4283 46.7585 69.1316L47.5 68.4607L48.2415 67.7898C47.3935 66.8525 46.361 66.1419 45.1585 65.658L44.7852 66.5857ZM47.5 68.4607L46.7643 69.138C47.4122 69.8417 47.9177 70.7158 48.269 71.7816L49.2188 71.4685L50.1685 71.1554C49.7386 69.8514 49.0983 68.7203 48.2357 67.7834L47.5 68.4607ZM49.2188 71.4685L48.269 71.7816C48.6205 72.8476 48.8047 74.0803 48.8047 75.4919H49.8047H50.8047C50.8047 73.9088 50.5983 72.4592 50.1685 71.1554L49.2188 71.4685ZM49.8047 75.4919H48.8047C48.8047 76.65 48.6259 77.7451 48.2722 78.7826L49.2188 79.1052L50.1653 79.4279C50.5928 78.1737 50.8047 76.8599 50.8047 75.4919H49.8047ZM49.2188 79.1052L48.2734 78.7792C47.9255 79.7881 47.3997 80.6894 46.6922 81.4898L47.4414 82.1521L48.1906 82.8144C49.0716 81.8179 49.7307 80.688 50.1641 79.4312L49.2188 79.1052ZM47.4414 82.1521L46.697 81.4843C46.0097 82.2505 45.1384 82.8653 44.0628 83.3213L44.4531 84.2419L44.8434 85.1626C46.1637 84.603 47.2846 83.8245 48.1858 82.8199L47.4414 82.1521ZM44.4531 84.2419L44.0628 83.3213C43.0161 83.765 41.7356 84.0037 40.1953 84.0037V85.0037V86.0037C41.9363 86.0037 43.4944 85.7345 44.8434 85.1626L44.4531 84.2419ZM40.1953 85.0037V84.0037C39.0724 84.0037 37.9899 83.8367 36.9438 83.5039L36.6406 84.4568L36.3374 85.4097C37.5831 85.8061 38.8703 86.0037 40.1953 86.0037V85.0037ZM36.6406 84.4568L36.947 83.5049C35.9239 83.1756 35.0078 82.6903 34.192 82.0494L33.5742 82.8357L32.9564 83.622C33.9635 84.4133 35.0917 85.0088 36.3343 85.4087L36.6406 84.4568ZM33.5742 82.8357L34.1975 82.0537C33.4052 81.4221 32.7698 80.6611 32.2867 79.7639L31.4062 80.238L30.5258 80.7121C31.1364 81.8462 31.9464 82.817 32.9509 83.6177L33.5742 82.8357ZM31.4062 80.238L32.2938 79.7774C31.8398 78.9025 31.5896 77.885 31.5662 76.7026L30.5664 76.7224L29.5666 76.7422C29.5953 78.1901 29.905 79.5163 30.5187 80.6987L31.4062 80.238ZM30.5664 76.7224V77.7224H36.1523V76.7224V75.7224H30.5664V76.7224ZM36.1523 76.7224L35.157 76.8187C35.2462 77.7406 35.4886 78.5807 35.9115 79.3125L36.7773 78.8123L37.6432 78.312C37.389 77.872 37.2147 77.3188 37.1477 76.6261L36.1523 76.7224ZM36.7773 78.8123L35.925 79.3353C36.3651 80.0524 36.9542 80.6195 37.6852 81.0183L38.1641 80.1404L38.6429 79.2625C38.2281 79.0362 37.8927 78.7179 37.6297 78.2892L36.7773 78.8123ZM38.1641 80.1404L37.6852 81.0183C38.4291 81.424 39.2699 81.6091 40.1758 81.6091V80.6091V79.6091C39.5452 79.6091 39.0449 79.4818 38.6429 79.2625L38.1641 80.1404ZM40.1758 80.6091V81.6091C41.018 81.6091 41.8012 81.4481 42.4858 81.0794L42.0117 80.199L41.5376 79.3185C41.2066 79.4967 40.7658 79.6091 40.1758 79.6091V80.6091ZM42.0117 80.199L42.4858 81.0794C43.1409 80.7267 43.6768 80.2337 44.0812 79.6104L43.2422 79.0662L42.4032 78.522C42.1826 78.8621 41.8982 79.1244 41.5376 79.3185L42.0117 80.199ZM43.2422 79.0662L44.0877 79.6002C44.47 78.9948 44.7377 78.3109 44.9024 77.5623L43.9258 77.3474L42.9491 77.1325C42.8274 77.686 42.6394 78.148 42.3967 78.5322L43.2422 79.0662ZM43.9258 77.3474L44.8992 77.5765C45.0752 76.8286 45.1602 76.0348 45.1602 75.199H44.1602H43.1602C43.1602 75.8996 43.0889 76.5381 42.9524 77.1184L43.9258 77.3474ZM44.1602 75.199H45.1602C45.1602 74.3525 45.0598 73.5597 44.8467 72.8291L43.8867 73.1091L42.9267 73.3891C43.0782 73.9085 43.1602 74.509 43.1602 75.199H44.1602ZM43.8867 73.1091L44.8467 72.8291C44.6301 72.0863 44.29 71.421 43.8169 70.85L43.0469 71.488L42.2769 72.1261C42.559 72.4666 42.7788 72.882 42.9267 73.3891L43.8867 73.1091ZM43.0469 71.488L43.8169 70.85C43.3293 70.2615 42.7131 69.8172 41.9905 69.5121L41.6016 70.4333L41.2126 71.3546C41.6619 71.5443 42.0092 71.8031 42.2769 72.1261L43.0469 71.488ZM41.6016 70.4333L41.998 69.5153C41.2745 69.2029 40.4638 69.0623 39.5898 69.0623V70.0623V71.0623C40.2524 71.0623 40.7827 71.169 41.2051 71.3514L41.6016 70.4333ZM39.5898 70.0623V69.0623C38.4661 69.0623 37.4606 69.2341 36.674 69.6811L37.168 70.5505L37.662 71.42C38.0211 71.2159 38.6303 71.0623 39.5898 71.0623V70.0623ZM37.168 70.5505L36.6653 69.686C36.0298 70.0556 35.477 70.4889 35.0207 70.9923L35.7617 71.6638L36.5027 72.3353C36.8017 72.0054 37.1864 71.6966 37.6706 71.415L37.168 70.5505Z" fill="black" mask="url(#path-7-outside-2_275_874)"/>
</g>
<path d="M13.7055 5.22167C15.1993 5.44972 16.4638 6.58097 17.2847 8.2892C18.1045 9.99542 18.4643 12.2494 18.1544 14.6439C17.8445 17.0384 16.9264 19.0973 15.7051 20.4921C14.4824 21.8885 12.9798 22.5975 11.4859 22.3696C9.9919 22.1417 8.72663 21.0103 7.90576 19.3019C7.086 17.5957 6.7261 15.3416 7.03602 12.9473C7.34596 10.5529 8.26412 8.49383 9.48529 7.09906C10.7081 5.70252 12.2115 4.99369 13.7055 5.22167Z" fill="url(#paint3_linear_275_874)" stroke="#540000" stroke-width="0.5"/>
<mask id="path-10-outside-3_275_874" maskUnits="userSpaceOnUse" x="9.76465" y="10.1313" width="5" height="7" fill="black">
<rect fill="white" x="9.76465" y="10.1313" width="5" height="7"/>
<path d="M11.6766 13.5649L10.7391 13.3267L11.4735 10.4438H14.2157L14.0595 11.4282H12.286L11.9618 12.604C12.0503 12.5415 12.148 12.492 12.2548 12.4556C12.3615 12.4191 12.4696 12.3983 12.579 12.3931C12.8394 12.3957 13.0516 12.4543 13.2157 12.5688C13.3824 12.6808 13.51 12.8306 13.5985 13.0181C13.6897 13.203 13.7496 13.4061 13.7782 13.6274C13.8069 13.8488 13.8121 14.0636 13.7938 14.272C13.773 14.5272 13.7144 14.772 13.618 15.0063C13.5243 15.2407 13.3967 15.4504 13.2352 15.6353C13.0764 15.8201 12.8863 15.9647 12.6649 16.0688C12.4436 16.173 12.1975 16.2212 11.9266 16.2134C11.6923 16.2082 11.4826 16.16 11.2977 16.0688C11.1128 15.9751 10.9553 15.8501 10.8251 15.6938C10.6975 15.5376 10.6011 15.3592 10.536 15.1587C10.4735 14.9582 10.4449 14.7472 10.4501 14.5259H11.6024C11.6024 14.617 11.6102 14.7173 11.6259 14.8267C11.6415 14.936 11.6766 15.0311 11.7313 15.1118C11.7886 15.1925 11.8772 15.2355 11.997 15.2407C12.1272 15.2459 12.2326 15.2134 12.3134 15.1431C12.3941 15.0701 12.4566 14.9777 12.5009 14.8657C12.5451 14.7537 12.5777 14.6379 12.5985 14.5181C12.6194 14.3957 12.6324 14.2889 12.6376 14.1978C12.6454 14.1118 12.6493 14.0155 12.6493 13.9087C12.6519 13.8019 12.6402 13.7004 12.6141 13.604C12.5907 13.5076 12.5464 13.4282 12.4813 13.3657C12.4162 13.3032 12.3251 13.2707 12.2079 13.2681C12.0933 13.2707 11.9917 13.2993 11.9032 13.354C11.8173 13.4061 11.7417 13.4764 11.6766 13.5649Z"/>
</mask>
<path d="M11.6766 13.5649L10.7391 13.3267L11.4735 10.4438H14.2157L14.0595 11.4282H12.286L11.9618 12.604C12.0503 12.5415 12.148 12.492 12.2548 12.4556C12.3615 12.4191 12.4696 12.3983 12.579 12.3931C12.8394 12.3957 13.0516 12.4543 13.2157 12.5688C13.3824 12.6808 13.51 12.8306 13.5985 13.0181C13.6897 13.203 13.7496 13.4061 13.7782 13.6274C13.8069 13.8488 13.8121 14.0636 13.7938 14.272C13.773 14.5272 13.7144 14.772 13.618 15.0063C13.5243 15.2407 13.3967 15.4504 13.2352 15.6353C13.0764 15.8201 12.8863 15.9647 12.6649 16.0688C12.4436 16.173 12.1975 16.2212 11.9266 16.2134C11.6923 16.2082 11.4826 16.16 11.2977 16.0688C11.1128 15.9751 10.9553 15.8501 10.8251 15.6938C10.6975 15.5376 10.6011 15.3592 10.536 15.1587C10.4735 14.9582 10.4449 14.7472 10.4501 14.5259H11.6024C11.6024 14.617 11.6102 14.7173 11.6259 14.8267C11.6415 14.936 11.6766 15.0311 11.7313 15.1118C11.7886 15.1925 11.8772 15.2355 11.997 15.2407C12.1272 15.2459 12.2326 15.2134 12.3134 15.1431C12.3941 15.0701 12.4566 14.9777 12.5009 14.8657C12.5451 14.7537 12.5777 14.6379 12.5985 14.5181C12.6194 14.3957 12.6324 14.2889 12.6376 14.1978C12.6454 14.1118 12.6493 14.0155 12.6493 13.9087C12.6519 13.8019 12.6402 13.7004 12.6141 13.604C12.5907 13.5076 12.5464 13.4282 12.4813 13.3657C12.4162 13.3032 12.3251 13.2707 12.2079 13.2681C12.0933 13.2707 11.9917 13.2993 11.9032 13.354C11.8173 13.4061 11.7417 13.4764 11.6766 13.5649Z" fill="#790000"/>
<path d="M11.6766 13.5649L11.6027 13.8557L11.7986 13.9055L11.9183 13.7427L11.6766 13.5649ZM10.7391 13.3267L10.4484 13.2526L10.3743 13.5435L10.6652 13.6174L10.7391 13.3267ZM11.4735 10.4438V10.1438H11.2404L11.1828 10.3698L11.4735 10.4438ZM14.2157 10.4438L14.512 10.4909L14.5671 10.1438H14.2157V10.4438ZM14.0595 11.4282V11.7282H14.3156L14.3557 11.4753L14.0595 11.4282ZM12.286 11.4282V11.1282H12.0575L11.9968 11.3485L12.286 11.4282ZM11.9618 12.604L11.6726 12.5243L11.4497 13.3327L12.1348 12.8491L11.9618 12.604ZM12.2548 12.4556L12.1578 12.1717L12.2548 12.4556ZM12.579 12.3931L12.582 12.0931L12.5733 12.093L12.5647 12.0934L12.579 12.3931ZM13.2157 12.5688L13.0439 12.8148L13.0484 12.8179L13.2157 12.5688ZM13.5985 13.0181L13.3272 13.1462L13.3294 13.1507L13.5985 13.0181ZM13.7938 14.272L13.495 14.2458L13.4948 14.2476L13.7938 14.272ZM13.618 15.0063L13.3406 14.8923L13.3395 14.8949L13.618 15.0063ZM13.2352 15.6353L13.0093 15.4379L13.0077 15.4398L13.2352 15.6353ZM11.9266 16.2134L11.9353 15.9135L11.9333 15.9135L11.9266 16.2134ZM11.2977 16.0688L11.1621 16.3364L11.1651 16.3379L11.2977 16.0688ZM10.8251 15.6938L10.5927 15.8836L10.5946 15.8859L10.8251 15.6938ZM10.536 15.1587L10.2496 15.248L10.2507 15.2513L10.536 15.1587ZM10.4501 14.5259V14.2259H10.1571L10.1502 14.5188L10.4501 14.5259ZM11.6024 14.5259H11.9024V14.2259H11.6024V14.5259ZM11.7313 15.1118L11.4829 15.2801L11.4867 15.2854L11.7313 15.1118ZM11.997 15.2407L11.9839 15.5404L11.985 15.5405L11.997 15.2407ZM12.3134 15.1431L12.5104 15.3693L12.5144 15.3657L12.3134 15.1431ZM12.5985 14.5181L12.8941 14.5695L12.8943 14.5684L12.5985 14.5181ZM12.6376 14.1978L12.3386 14.1706L12.3381 14.1806L12.6376 14.1978ZM12.6493 13.9087L12.3493 13.9014V13.9087H12.6493ZM12.6141 13.604L12.3225 13.6749L12.3245 13.6823L12.6141 13.604ZM12.2079 13.2681L12.2146 12.9678L12.2011 12.9681L12.2079 13.2681ZM11.9032 13.354L12.0587 13.6106L12.0609 13.6092L11.9032 13.354ZM11.6766 13.5649L11.7505 13.2742L10.813 13.0359L10.7391 13.3267L10.6652 13.6174L11.6027 13.8557L11.6766 13.5649ZM10.7391 13.3267L11.0299 13.4007L11.7642 10.5179L11.4735 10.4438L11.1828 10.3698L10.4484 13.2526L10.7391 13.3267ZM11.4735 10.4438V10.7438H14.2157V10.4438V10.1438H11.4735V10.4438ZM14.2157 10.4438L13.9194 10.3968L13.7632 11.3812L14.0595 11.4282L14.3557 11.4753L14.512 10.4909L14.2157 10.4438ZM14.0595 11.4282V11.1282H12.286V11.4282V11.7282H14.0595V11.4282ZM12.286 11.4282L11.9968 11.3485L11.6726 12.5243L11.9618 12.604L12.251 12.6838L12.5752 11.508L12.286 11.4282ZM11.9618 12.604L12.1348 12.8491C12.199 12.8038 12.2709 12.7671 12.3517 12.7395L12.2548 12.4556L12.1578 12.1717C12.0251 12.217 11.9017 12.2792 11.7888 12.3589L11.9618 12.604ZM12.2548 12.4556L12.3517 12.7395C12.4326 12.7118 12.5129 12.6966 12.5933 12.6927L12.579 12.3931L12.5647 12.0934C12.4263 12.1 12.2905 12.1264 12.1578 12.1717L12.2548 12.4556ZM12.579 12.3931L12.576 12.6931C12.794 12.6952 12.9424 12.7439 13.0439 12.8148L13.2157 12.5688L13.3875 12.3229C13.1609 12.1647 12.8848 12.0961 12.582 12.0931L12.579 12.3931ZM13.2157 12.5688L13.0484 12.8179C13.1686 12.8986 13.261 13.0059 13.3272 13.1462L13.5985 13.0181L13.8698 12.89C13.7589 12.6552 13.5961 12.463 13.383 12.3198L13.2157 12.5688ZM13.5985 13.0181L13.3294 13.1507C13.4048 13.3037 13.4559 13.4746 13.4807 13.6659L13.7782 13.6274L14.0757 13.5889C14.0432 13.3376 13.9745 13.1023 13.8676 12.8854L13.5985 13.0181ZM13.7782 13.6274L13.4807 13.6659C13.5067 13.8673 13.5112 14.0604 13.495 14.2458L13.7938 14.272L14.0927 14.2981C14.1129 14.0669 14.107 13.8303 14.0757 13.5889L13.7782 13.6274ZM13.7938 14.272L13.4948 14.2476C13.4765 14.4723 13.4251 14.6868 13.3406 14.8923L13.618 15.0063L13.8955 15.1204C14.0038 14.8571 14.0695 14.5821 14.0928 14.2964L13.7938 14.272ZM13.618 15.0063L13.3395 14.8949C13.258 15.0988 13.1479 15.2792 13.0093 15.4379L13.2352 15.6353L13.4612 15.8326C13.6455 15.6215 13.7906 15.3826 13.8966 15.1178L13.618 15.0063ZM13.2352 15.6353L13.0077 15.4398C12.8765 15.5925 12.7204 15.7112 12.5372 15.7974L12.6649 16.0688L12.7927 16.3403C13.0521 16.2182 13.2763 16.0478 13.4628 15.8308L13.2352 15.6353ZM12.6649 16.0688L12.5372 15.7974C12.3629 15.8794 12.1642 15.9201 11.9353 15.9135L11.9266 16.2134L11.918 16.5133C12.2308 16.5223 12.5243 16.4666 12.7927 16.3403L12.6649 16.0688ZM11.9266 16.2134L11.9333 15.9135C11.7367 15.9091 11.571 15.8691 11.4304 15.7998L11.2977 16.0688L11.1651 16.3379C11.3943 16.4509 11.6479 16.5073 11.92 16.5133L11.9266 16.2134ZM11.2977 16.0688L11.4334 15.8013C11.2842 15.7256 11.1591 15.6261 11.0555 15.5018L10.8251 15.6938L10.5946 15.8859C10.7515 16.0741 10.9415 16.2246 11.1621 16.3364L11.2977 16.0688ZM10.8251 15.6938L11.0574 15.5041C10.9544 15.3779 10.8755 15.2328 10.8214 15.066L10.536 15.1587L10.2507 15.2513C10.3267 15.4856 10.4405 15.6973 10.5927 15.8836L10.8251 15.6938ZM10.536 15.1587L10.8224 15.0694C10.7702 14.9017 10.7455 14.7234 10.75 14.5329L10.4501 14.5259L10.1502 14.5188C10.1442 14.771 10.1769 15.0146 10.2496 15.248L10.536 15.1587ZM10.4501 14.5259V14.8259H11.6024V14.5259V14.2259H10.4501V14.5259ZM11.6024 14.5259H11.3024C11.3024 14.6338 11.3116 14.7485 11.3289 14.8691L11.6259 14.8267L11.9228 14.7842C11.9088 14.6861 11.9024 14.6002 11.9024 14.5259H11.6024ZM11.6259 14.8267L11.3289 14.8691C11.3501 15.0175 11.3995 15.1569 11.483 15.2801L11.7313 15.1118L11.9797 14.9436C11.9538 14.9053 11.9329 14.8546 11.9228 14.7842L11.6259 14.8267ZM11.7313 15.1118L11.4867 15.2854C11.609 15.4579 11.7934 15.5322 11.9839 15.5404L11.997 15.2407L12.01 14.941C11.9823 14.9398 11.972 14.9348 11.9717 14.9347C11.9716 14.9346 11.9727 14.9352 11.9742 14.9365C11.9758 14.9378 11.9763 14.9387 11.976 14.9382L11.7313 15.1118ZM11.997 15.2407L11.985 15.5405C12.1741 15.548 12.3599 15.5004 12.5104 15.3693L12.3134 15.1431L12.1163 14.9168C12.1053 14.9264 12.0802 14.9438 12.0089 14.941L11.997 15.2407ZM12.3134 15.1431L12.5144 15.3657C12.633 15.2586 12.7204 15.1263 12.7799 14.976L12.5009 14.8657L12.2219 14.7554C12.1927 14.8291 12.1552 14.8817 12.1123 14.9204L12.3134 15.1431ZM12.5009 14.8657L12.7799 14.976C12.8317 14.8448 12.8698 14.7092 12.8941 14.5695L12.5985 14.5181L12.303 14.4667C12.2856 14.5665 12.2586 14.6626 12.2219 14.7554L12.5009 14.8657ZM12.5985 14.5181L12.8943 14.5684C12.9164 14.4386 12.9311 14.3203 12.9371 14.2149L12.6376 14.1978L12.3381 14.1806C12.3337 14.2575 12.3223 14.3527 12.3028 14.4677L12.5985 14.5181ZM12.6376 14.1978L12.9363 14.2249C12.9451 14.1281 12.9493 14.0225 12.9493 13.9087H12.6493H12.3493C12.3493 14.0084 12.3456 14.0955 12.3388 14.1706L12.6376 14.1978ZM12.6493 13.9087L12.9492 13.916C12.9525 13.7824 12.9378 13.6519 12.9038 13.5257L12.6141 13.604L12.3245 13.6823C12.3425 13.7489 12.3513 13.8215 12.3494 13.9014L12.6493 13.9087ZM12.6141 13.604L12.9056 13.5331C12.8701 13.3869 12.7994 13.2552 12.6891 13.1493L12.4813 13.3657L12.2736 13.5821C12.2935 13.6012 12.3113 13.6284 12.3226 13.6749L12.6141 13.604ZM12.4813 13.3657L12.6891 13.1493C12.5551 13.0207 12.3838 12.9719 12.2146 12.9681L12.2079 13.2681L12.2012 13.568C12.2342 13.5687 12.2536 13.5735 12.2632 13.577C12.268 13.5786 12.2706 13.5801 12.2717 13.5808C12.2728 13.5814 12.2733 13.5819 12.2736 13.5821L12.4813 13.3657ZM12.2079 13.2681L12.2011 12.9681C12.0387 12.9718 11.884 13.0132 11.7456 13.0988L11.9032 13.354L12.0609 13.6092C12.0995 13.5854 12.1479 13.5695 12.2147 13.568L12.2079 13.2681ZM11.9032 13.354L11.7477 13.0974C11.6251 13.1717 11.5211 13.27 11.4349 13.3872L11.6766 13.5649L11.9183 13.7427C11.9623 13.6828 12.0094 13.6404 12.0587 13.6106L11.9032 13.354Z" fill="#4D0000" mask="url(#path-10-outside-3_275_874)"/>
<rect x="0.941162" y="71.533" width="2.82353" height="2.0438" fill="#790000"/>
<rect x="0.941162" y="74.5986" width="2.82353" height="2.0438" fill="#790000"/>
<rect x="0.941162" y="68.467" width="2.82353" height="2.0438" fill="#790000"/>
<rect x="0.941162" y="65.4014" width="2.82353" height="2.0438" fill="#790000"/>
<rect x="0.941162" y="62.3357" width="2.82353" height="2.0438" fill="#790000"/>
<rect x="76.2354" y="71.533" width="2.82353" height="2.0438" fill="#790000"/>
<rect x="76.2354" y="74.5986" width="2.82353" height="2.0438" fill="#790000"/>
<rect x="76.2354" y="68.467" width="2.82353" height="2.0438" fill="#790000"/>
<rect x="76.2354" y="65.4014" width="2.82353" height="2.0438" fill="#790000"/>
<rect x="76.2354" y="62.3357" width="2.82353" height="2.0438" fill="#790000"/>
<rect x="38.5881" y="136.934" width="2.0438" height="1.88235" transform="rotate(90 38.5881 136.934)" fill="#790000"/>
<rect x="35.7646" y="136.934" width="2.0438" height="1.88235" transform="rotate(90 35.7646 136.934)" fill="#790000"/>
<rect x="41.4119" y="136.934" width="2.0438" height="1.88235" transform="rotate(90 41.4119 136.934)" fill="#790000"/>
<rect x="44.2354" y="136.934" width="2.0438" height="1.88235" transform="rotate(90 44.2354 136.934)" fill="#790000"/>
<rect x="47.0588" y="136.934" width="2.0438" height="1.88235" transform="rotate(90 47.0588 136.934)" fill="#790000"/>
<rect x="38.5881" y="1.02197" width="2.0438" height="1.88235" transform="rotate(90 38.5881 1.02197)" fill="#790000"/>
<rect x="35.7646" y="1.02197" width="2.0438" height="1.88235" transform="rotate(90 35.7646 1.02197)" fill="#790000"/>
<rect x="41.4119" y="1.02197" width="2.0438" height="1.88235" transform="rotate(90 41.4119 1.02197)" fill="#790000"/>
<rect x="44.2354" y="1.02197" width="2.0438" height="1.88235" transform="rotate(90 44.2354 1.02197)" fill="#790000"/>
<rect x="47.0588" y="1.02197" width="2.0438" height="1.88235" transform="rotate(90 47.0588 1.02197)" fill="#790000"/>
<defs>
<filter id="filter0_d_275_874" x="8.67651" y="25.0474" width="61.7058" height="101.993" filterUnits="userSpaceOnUse" color-interpolation-filters="sRGB">
<feFlood flood-opacity="0" result="BackgroundImageFix"/>
<feColorMatrix in="SourceAlpha" type="matrix" values="0 0 0 0 0 0 0 0 0 0 0 0 0 0 0 0 0 0 127 0" result="hardAlpha"/>
<feOffset dy="4"/>
<feGaussianBlur stdDeviation="2"/>
<feComposite in2="hardAlpha" operator="out"/>
<feColorMatrix type="matrix" values="0 0 0 0 0 0 0 0 0 0 0 0 0 0 0 0 0 0 0.25 0"/>
<feBlend mode="normal" in2="BackgroundImageFix" result="effect1_dropShadow_275_874"/>
<feBlend mode="normal" in="SourceGraphic" in2="effect1_dropShadow_275_874" result="shape"/>
</filter>
<filter id="filter1_d_275_874" x="25.5464" y="55.1755" width="29.2583" height="38.8281" filterUnits="userSpaceOnUse" color-interpolation-filters="sRGB">
<feFlood flood-opacity="0" result="BackgroundImageFix"/>
<feColorMatrix in="SourceAlpha" type="matrix" values="0 0 0 0 0 0 0 0 0 0 0 0 0 0 0 0 0 0 127 0" result="hardAlpha"/>
<feOffset dy="4"/>
<feGaussianBlur stdDeviation="2"/>
<feComposite in2="hardAlpha" operator="out"/>
<feColorMatrix type="matrix" values="0 0 0 0 0 0 0 0 0 0 0 0 0 0 0 0 0 0 0.25 0"/>
<feBlend mode="normal" in2="BackgroundImageFix" result="effect1_dropShadow_275_874"/>
<feBlend mode="normal" in="SourceGraphic" in2="effect1_dropShadow_275_874" result="shape"/>
</filter>
<linearGradient id="paint0_linear_275_874" x1="39.9999" y1="3.06567" x2="39.9999" y2="136.934" gradientUnits="userSpaceOnUse">
<stop stop-color="#7C0606" stop-opacity="0.95"/>
<stop offset="1" stop-color="#300000"/>
</linearGradient>
<linearGradient id="paint1_linear_275_874" x1="66.4435" y1="115.339" x2="63.7604" y2="132.922" gradientUnits="userSpaceOnUse">
<stop stop-color="#FFE8E8"/>
<stop offset="1" stop-color="#5A1212"/>
</linearGradient>
<linearGradient id="paint2_linear_275_874" x1="39.5295" y1="25.5474" x2="39.5295" y2="118.54" gradientUnits="userSpaceOnUse">
<stop stop-color="#DD4444" stop-opacity="0.95"/>
<stop offset="1" stop-color="#560000"/>
</linearGradient>
<linearGradient id="paint3_linear_275_874" x1="13.7373" y1="4.97369" x2="11.0543" y2="22.5567" gradientUnits="userSpaceOnUse">
<stop stop-color="#FFE8E8" stop-opacity="0.95"/>
<stop offset="1" stop-color="#5A1212"/>
</linearGradient>
</defs>
</svg>
