<svg width="80" height="140" viewBox="0 0 80 140" fill="none" xmlns="http://www.w3.org/2000/svg">
<rect x="0.5" y="0.5" width="79" height="139" rx="9.5" fill="white" stroke="black"/>
<rect x="4.26465" y="3.56567" width="71.4706" height="132.869" rx="9.5" fill="url(#paint0_linear_275_745)" stroke="black"/>
<path d="M66.4114 115.587C67.9053 115.815 69.1698 116.946 69.9906 118.654C70.8104 120.36 71.1702 122.614 70.8603 125.009C70.5504 127.403 69.6323 129.462 68.4111 130.857C67.1884 132.254 65.6857 132.962 64.1918 132.735C62.6978 132.507 61.4326 131.375 60.6117 129.667C59.7919 127.961 59.432 125.707 59.742 123.312C60.0519 120.918 60.97 118.859 62.1912 117.464C63.414 116.068 64.9175 115.359 66.4114 115.587Z" fill="url(#paint1_linear_275_745)" stroke="#0E3D84" stroke-width="0.5"/>
<mask id="path-4-outside-1_275_745" maskUnits="userSpaceOnUse" x="60.729" y="120.934" width="9" height="8" fill="black">
<rect fill="white" x="60.729" y="120.934" width="9" height="8"/>
<path d="M66.0148 127.63L66.9758 121.934H68.1359L67.3976 126.188L68.4953 125.794L68.3195 126.798L66.1515 127.626L66.0148 127.63ZM61.4508 125.286L61.607 124.278C61.6435 124.005 61.706 123.725 61.7945 123.438C61.883 123.152 62.0041 122.886 62.1578 122.641C62.3088 122.399 62.5002 122.205 62.732 122.059C62.9638 121.913 63.2463 121.846 63.5797 121.856C63.8323 121.861 64.0432 121.916 64.2125 122.02C64.3791 122.127 64.5133 122.265 64.6148 122.434C64.7138 122.606 64.7854 122.796 64.8297 123.005C64.8739 123.213 64.8974 123.427 64.9 123.645C64.9026 123.867 64.8922 124.076 64.8687 124.274L64.7125 125.286C64.6734 125.559 64.6109 125.838 64.525 126.122C64.4364 126.408 64.3153 126.673 64.1617 126.915C64.008 127.16 63.8153 127.354 63.5836 127.497C63.3518 127.643 63.0692 127.71 62.7359 127.7C62.4833 127.695 62.2737 127.639 62.107 127.532C61.9377 127.428 61.8036 127.29 61.7047 127.118C61.6057 126.949 61.5341 126.76 61.4898 126.552C61.4455 126.343 61.4221 126.13 61.4195 125.911C61.4169 125.692 61.4273 125.484 61.4508 125.286ZM62.7828 124.114L62.5875 125.454C62.5823 125.509 62.5732 125.585 62.5601 125.684C62.5445 125.783 62.5341 125.891 62.5289 126.009C62.5211 126.128 62.5237 126.243 62.5367 126.352C62.5471 126.462 62.5758 126.553 62.6226 126.626C62.6695 126.699 62.7411 126.738 62.8375 126.743C62.9807 126.753 63.0966 126.71 63.1851 126.614C63.2711 126.52 63.3375 126.399 63.3844 126.251C63.4312 126.105 63.4651 125.958 63.4859 125.809C63.5067 125.661 63.5224 125.542 63.5328 125.454L63.7281 124.114C63.7333 124.065 63.7437 123.989 63.7594 123.887C63.7724 123.788 63.7828 123.679 63.7906 123.559C63.7984 123.44 63.7971 123.324 63.7867 123.212C63.7737 123.102 63.7437 123.01 63.6969 122.934C63.65 122.861 63.5784 122.821 63.482 122.813C63.3388 122.803 63.2242 122.846 63.1383 122.942C63.0497 123.038 62.982 123.161 62.9351 123.309C62.8883 123.458 62.8544 123.606 62.8336 123.755C62.8127 123.906 62.7958 124.025 62.7828 124.114Z"/>
</mask>
<path d="M66.0148 127.63L66.9758 121.934H68.1359L67.3976 126.188L68.4953 125.794L68.3195 126.798L66.1515 127.626L66.0148 127.63ZM61.4508 125.286L61.607 124.278C61.6435 124.005 61.706 123.725 61.7945 123.438C61.883 123.152 62.0041 122.886 62.1578 122.641C62.3088 122.399 62.5002 122.205 62.732 122.059C62.9638 121.913 63.2463 121.846 63.5797 121.856C63.8323 121.861 64.0432 121.916 64.2125 122.02C64.3791 122.127 64.5133 122.265 64.6148 122.434C64.7138 122.606 64.7854 122.796 64.8297 123.005C64.8739 123.213 64.8974 123.427 64.9 123.645C64.9026 123.867 64.8922 124.076 64.8687 124.274L64.7125 125.286C64.6734 125.559 64.6109 125.838 64.525 126.122C64.4364 126.408 64.3153 126.673 64.1617 126.915C64.008 127.16 63.8153 127.354 63.5836 127.497C63.3518 127.643 63.0692 127.71 62.7359 127.7C62.4833 127.695 62.2737 127.639 62.107 127.532C61.9377 127.428 61.8036 127.29 61.7047 127.118C61.6057 126.949 61.5341 126.76 61.4898 126.552C61.4455 126.343 61.4221 126.13 61.4195 125.911C61.4169 125.692 61.4273 125.484 61.4508 125.286ZM62.7828 124.114L62.5875 125.454C62.5823 125.509 62.5732 125.585 62.5601 125.684C62.5445 125.783 62.5341 125.891 62.5289 126.009C62.5211 126.128 62.5237 126.243 62.5367 126.352C62.5471 126.462 62.5758 126.553 62.6226 126.626C62.6695 126.699 62.7411 126.738 62.8375 126.743C62.9807 126.753 63.0966 126.71 63.1851 126.614C63.2711 126.52 63.3375 126.399 63.3844 126.251C63.4312 126.105 63.4651 125.958 63.4859 125.809C63.5067 125.661 63.5224 125.542 63.5328 125.454L63.7281 124.114C63.7333 124.065 63.7437 123.989 63.7594 123.887C63.7724 123.788 63.7828 123.679 63.7906 123.559C63.7984 123.44 63.7971 123.324 63.7867 123.212C63.7737 123.102 63.7437 123.01 63.6969 122.934C63.65 122.861 63.5784 122.821 63.482 122.813C63.3388 122.803 63.2242 122.846 63.1383 122.942C63.0497 123.038 62.982 123.161 62.9351 123.309C62.8883 123.458 62.8544 123.606 62.8336 123.755C62.8127 123.906 62.7958 124.025 62.7828 124.114Z" fill="#0F4EAD"/>
<path d="M66.0148 127.63L65.719 127.58L65.6582 127.94L66.0234 127.93L66.0148 127.63ZM66.9758 121.934V121.634H66.7221L66.6799 121.884L66.9758 121.934ZM68.1359 121.934L68.4315 121.986L68.4925 121.634H68.1359V121.934ZM67.3976 126.188L67.1021 126.137L67.0139 126.645L67.4991 126.471L67.3976 126.188ZM68.4953 125.794L68.7908 125.845L68.8799 125.337L68.3938 125.511L68.4953 125.794ZM68.3195 126.798L68.4266 127.078L68.5856 127.017L68.615 126.849L68.3195 126.798ZM66.1515 127.626L66.1601 127.926L66.211 127.924L66.2586 127.906L66.1515 127.626ZM66.0148 127.63L66.3106 127.68L67.2716 121.984L66.9758 121.934L66.6799 121.884L65.719 127.58L66.0148 127.63ZM66.9758 121.934V122.234H68.1359V121.934V121.634H66.9758V121.934ZM68.1359 121.934L67.8403 121.883L67.1021 126.137L67.3976 126.188L67.6932 126.24L68.4315 121.986L68.1359 121.934ZM67.3976 126.188L67.4991 126.471L68.5968 126.076L68.4953 125.794L68.3938 125.511L67.2962 125.906L67.3976 126.188ZM68.4953 125.794L68.1998 125.742L68.024 126.746L68.3195 126.798L68.615 126.849L68.7908 125.845L68.4953 125.794ZM68.3195 126.798L68.2125 126.517L66.0445 127.345L66.1515 127.626L66.2586 127.906L68.4266 127.078L68.3195 126.798ZM66.1515 127.626L66.143 127.326L66.0063 127.33L66.0148 127.63L66.0234 127.93L66.1601 127.926L66.1515 127.626ZM61.4508 125.286L61.1541 125.24L61.1528 125.251L61.4508 125.286ZM61.607 124.278L61.9035 124.324L61.9044 124.318L61.607 124.278ZM62.1578 122.641L62.4119 122.801L62.4123 122.8L62.1578 122.641ZM63.5797 121.856L63.5703 122.156L63.5735 122.156L63.5797 121.856ZM64.2125 122.02L64.3743 121.768L64.3697 121.765L64.2125 122.02ZM64.6148 122.434L64.8748 122.285L64.8721 122.28L64.6148 122.434ZM64.8297 123.005L65.1231 122.942L64.8297 123.005ZM64.9 123.645L65.2 123.642V123.642L64.9 123.645ZM64.8687 124.274L65.1654 124.32L65.1666 124.309L64.8687 124.274ZM64.7125 125.286L64.416 125.24L64.4155 125.243L64.7125 125.286ZM64.525 126.122L64.8116 126.21L64.8121 126.209L64.525 126.122ZM64.1617 126.915L63.9084 126.754L63.9076 126.755L64.1617 126.915ZM63.5836 127.497L63.4259 127.242L63.4238 127.243L63.5836 127.497ZM62.7359 127.7L62.7453 127.4L62.7421 127.4L62.7359 127.7ZM62.107 127.532L62.2689 127.279L62.2642 127.276L62.107 127.532ZM61.7047 127.118L61.9647 126.968L61.9637 126.967L61.7047 127.118ZM62.7828 124.114L62.486 124.07L62.4859 124.071L62.7828 124.114ZM62.5875 125.454L62.2906 125.411L62.2895 125.418L62.2888 125.425L62.5875 125.454ZM62.5601 125.684L62.8566 125.731L62.8576 125.723L62.5601 125.684ZM62.5289 126.009L62.8283 126.028L62.8286 126.022L62.5289 126.009ZM62.5367 126.352L62.8354 126.324L62.8346 126.317L62.5367 126.352ZM62.8375 126.743L62.8592 126.444L62.8537 126.443L62.8375 126.743ZM63.1851 126.614L63.406 126.817L63.4063 126.817L63.1851 126.614ZM63.3844 126.251L63.0987 126.159L63.0983 126.16L63.3844 126.251ZM63.5328 125.454L63.2358 125.411L63.2348 125.419L63.5328 125.454ZM63.7281 124.114L64.0252 124.157L64.0265 124.145L63.7281 124.114ZM63.7594 123.887L64.0559 123.933L64.0568 123.927L63.7594 123.887ZM63.7867 123.212L64.0855 123.184L64.0846 123.176L63.7867 123.212ZM63.6969 122.934L63.9518 122.776L63.9492 122.772L63.6969 122.934ZM63.482 122.813L63.5063 122.514L63.5038 122.514L63.482 122.813ZM63.1383 122.942L63.3592 123.145L63.3621 123.142L63.1383 122.942ZM62.8336 123.755L62.5365 123.713L62.5364 123.714L62.8336 123.755ZM61.4508 125.286L61.7472 125.332L61.9035 124.324L61.607 124.278L61.3105 124.232L61.1543 125.24L61.4508 125.286ZM61.607 124.278L61.9044 124.318C61.9384 124.062 61.9971 123.799 62.0811 123.527L61.7945 123.438L61.5079 123.35C61.4148 123.651 61.3485 123.947 61.3096 124.238L61.607 124.278ZM61.7945 123.438L62.0811 123.527C62.1622 123.264 62.2726 123.023 62.4119 122.801L62.1578 122.641L61.9037 122.482C61.7357 122.75 61.6038 123.039 61.5079 123.35L61.7945 123.438ZM62.1578 122.641L62.4123 122.8C62.5404 122.595 62.7 122.434 62.8918 122.313L62.732 122.059L62.5722 121.805C62.3005 121.976 62.0772 122.204 61.9032 122.483L62.1578 122.641ZM62.732 122.059L62.8918 122.313C63.0629 122.206 63.2835 122.147 63.5703 122.156L63.5797 121.856L63.589 121.556C63.2092 121.544 62.8647 121.621 62.5722 121.805L62.732 122.059ZM63.5797 121.856L63.5735 122.156C63.7869 122.161 63.9422 122.206 64.0552 122.276L64.2125 122.02L64.3697 121.765C64.1442 121.626 63.8776 121.562 63.5858 121.556L63.5797 121.856ZM64.2125 122.02L64.0506 122.273C64.1785 122.355 64.2799 122.459 64.3576 122.589L64.6148 122.434L64.8721 122.28C64.7466 122.071 64.5798 121.899 64.3743 121.768L64.2125 122.02ZM64.6148 122.434L64.3548 122.584C64.437 122.727 64.498 122.887 64.5362 123.067L64.8297 123.005L65.1231 122.942C65.0728 122.706 64.9905 122.486 64.8748 122.285L64.6148 122.434ZM64.8297 123.005L64.5362 123.067C64.5763 123.255 64.5976 123.449 64.6 123.649L64.9 123.645L65.2 123.642C65.1971 123.404 65.1716 123.17 65.1231 122.942L64.8297 123.005ZM64.9 123.645L64.6 123.649C64.6025 123.859 64.5926 124.055 64.5708 124.239L64.8687 124.274L65.1666 124.309C65.1918 124.097 65.2027 123.875 65.2 123.642L64.9 123.645ZM64.8687 124.274L64.5722 124.228L64.416 125.24L64.7125 125.286L65.009 125.332L65.1652 124.32L64.8687 124.274ZM64.7125 125.286L64.4155 125.243C64.3787 125.501 64.3197 125.765 64.2378 126.035L64.525 126.122L64.8121 126.209C64.9021 125.911 64.9681 125.618 65.0095 125.328L64.7125 125.286ZM64.525 126.122L64.2384 126.033C64.1573 126.295 64.0471 126.535 63.9084 126.754L64.1617 126.915L64.415 127.076C64.5835 126.81 64.7156 126.521 64.8116 126.21L64.525 126.122ZM64.1617 126.915L63.9076 126.755C63.7768 126.964 63.6162 127.124 63.4259 127.242L63.5836 127.497L63.7413 127.752C64.0144 127.583 64.2393 127.356 64.4158 127.074L64.1617 126.915ZM63.5836 127.497L63.4238 127.243C63.2527 127.351 63.0321 127.409 62.7453 127.4L62.7359 127.7L62.7265 128C63.1064 128.012 63.4509 127.935 63.7433 127.751L63.5836 127.497ZM62.7359 127.7L62.7421 127.4C62.5297 127.396 62.3777 127.349 62.2688 127.279L62.107 127.532L61.9452 127.785C62.1696 127.928 62.4369 127.994 62.7297 128L62.7359 127.7ZM62.107 127.532L62.2642 127.276C62.1374 127.198 62.0386 127.097 61.9647 126.968L61.7047 127.118L61.4447 127.268C61.5686 127.483 61.7381 127.657 61.9498 127.787L62.107 127.532ZM61.7047 127.118L61.9637 126.967C61.8822 126.827 61.8215 126.669 61.7833 126.489L61.4898 126.552L61.1964 126.614C61.2467 126.851 61.3292 127.07 61.4457 127.269L61.7047 127.118ZM61.4898 126.552L61.7833 126.489C61.7432 126.301 61.7219 126.107 61.7195 125.907L61.4195 125.911L61.1195 125.914C61.1224 126.152 61.1479 126.386 61.1964 126.614L61.4898 126.552ZM61.4195 125.911L61.7195 125.907C61.717 125.7 61.7269 125.505 61.7487 125.321L61.4508 125.286L61.1528 125.251C61.1277 125.463 61.1168 125.684 61.1195 125.914L61.4195 125.911ZM62.7828 124.114L62.4859 124.071L62.2906 125.411L62.5875 125.454L62.8843 125.497L63.0797 124.157L62.7828 124.114ZM62.5875 125.454L62.2888 125.425C62.2841 125.475 62.2756 125.547 62.2627 125.645L62.5601 125.684L62.8576 125.723C62.8707 125.623 62.8804 125.542 62.8861 125.482L62.5875 125.454ZM62.5601 125.684L62.2638 125.638C62.2462 125.749 62.2348 125.869 62.2292 125.995L62.5289 126.009L62.8286 126.022C62.8334 125.914 62.8429 125.817 62.8565 125.731L62.5601 125.684ZM62.5289 126.009L62.2295 125.989C62.2206 126.126 62.2234 126.259 62.2388 126.388L62.5367 126.352L62.8346 126.317C62.8239 126.227 62.8215 126.131 62.8282 126.028L62.5289 126.009ZM62.5367 126.352L62.238 126.381C62.2518 126.525 62.2915 126.665 62.3703 126.788L62.6226 126.626L62.875 126.464C62.86 126.44 62.8424 126.398 62.8353 126.324L62.5367 126.352ZM62.6226 126.626L62.3703 126.788C62.4757 126.952 62.6413 127.033 62.8213 127.042L62.8375 126.743L62.8537 126.443C62.8421 126.443 62.8452 126.441 62.8552 126.446C62.8599 126.449 62.8645 126.452 62.8685 126.456C62.8724 126.46 62.8744 126.463 62.875 126.464L62.6226 126.626ZM62.8375 126.743L62.8157 127.042C63.0401 127.058 63.2489 126.988 63.406 126.817L63.1851 126.614L62.9642 126.411C62.9442 126.433 62.9213 126.448 62.8592 126.444L62.8375 126.743ZM63.1851 126.614L63.4063 126.817C63.5277 126.684 63.6133 126.522 63.6704 126.341L63.3844 126.251L63.0983 126.16C63.0617 126.276 63.0145 126.356 62.964 126.411L63.1851 126.614ZM63.3844 126.251L63.67 126.343C63.722 126.181 63.7597 126.017 63.783 125.851L63.4859 125.809L63.1888 125.768C63.1704 125.899 63.1405 126.029 63.0987 126.159L63.3844 126.251ZM63.4859 125.809L63.783 125.851C63.804 125.702 63.8199 125.581 63.8307 125.489L63.5328 125.454L63.2348 125.419C63.2248 125.504 63.2095 125.62 63.1888 125.768L63.4859 125.809ZM63.5328 125.454L63.8297 125.497L64.025 124.157L63.7281 124.114L63.4312 124.071L63.2359 125.411L63.5328 125.454ZM63.7281 124.114L64.0265 124.145C64.0309 124.103 64.0404 124.034 64.0559 123.933L63.7594 123.887L63.4628 123.842C63.4471 123.944 63.4357 124.026 63.4298 124.083L63.7281 124.114ZM63.7594 123.887L64.0568 123.927C64.0708 123.82 64.0818 123.704 64.09 123.579L63.7906 123.559L63.4912 123.54C63.4838 123.654 63.4739 123.757 63.4619 123.848L63.7594 123.887ZM63.7906 123.559L64.09 123.579C64.0987 123.444 64.0974 123.313 64.0854 123.184L63.7867 123.212L63.488 123.239C63.4968 123.335 63.4981 123.435 63.4912 123.54L63.7906 123.559ZM63.7867 123.212L64.0846 123.176C64.0676 123.033 64.0266 122.897 63.9517 122.776L63.6969 122.934L63.442 123.093C63.4608 123.123 63.4798 123.171 63.4888 123.247L63.7867 123.212ZM63.6969 122.934L63.9492 122.772C63.8454 122.611 63.6835 122.529 63.5063 122.514L63.482 122.813L63.4578 123.112C63.4702 123.113 63.4688 123.115 63.4607 123.111C63.4569 123.109 63.4531 123.106 63.4497 123.103C63.4465 123.099 63.4448 123.097 63.4445 123.097L63.6969 122.934ZM63.482 122.813L63.5038 122.514C63.2796 122.498 63.0699 122.568 62.9144 122.742L63.1383 122.942L63.3621 123.142C63.3785 123.123 63.398 123.108 63.4602 123.112L63.482 122.813ZM63.1383 122.942L62.9174 122.739C62.794 122.873 62.7067 123.037 62.6491 123.219L62.9351 123.309L63.2212 123.4C63.2573 123.285 63.3054 123.204 63.3592 123.145L63.1383 122.942ZM62.9351 123.309L62.6491 123.219C62.5974 123.383 62.5597 123.547 62.5365 123.713L62.8336 123.755L63.1307 123.796C63.1491 123.665 63.1792 123.533 63.2212 123.4L62.9351 123.309ZM62.8336 123.755L62.5364 123.714C62.5156 123.864 62.4988 123.983 62.486 124.07L62.7828 124.114L63.0796 124.158C63.0928 124.068 63.1099 123.947 63.1308 123.796L62.8336 123.755Z" fill="#00236D" mask="url(#path-4-outside-1_275_745)"/>
<g filter="url(#filter0_d_275_745)">
<ellipse cx="39.5295" cy="72.0437" rx="26.3529" ry="46.4963" fill="url(#paint2_linear_275_745)" shape-rendering="crispEdges"/>
<ellipse cx="39.5295" cy="72.0437" rx="26.3529" ry="46.4963" stroke="#0E3D84" shape-rendering="crispEdges"/>
</g>
<g filter="url(#filter1_d_275_745)">
<mask id="path-7-outside-2_275_745" maskUnits="userSpaceOnUse" x="19" y="54.613" width="42" height="32" fill="black">
<rect fill="white" x="19" y="54.613" width="42" height="32"/>
<path d="M32.7102 56.1169V84.613H27.0852V62.6013L20.3273 64.7498V60.3162L32.1047 56.1169H32.7102ZM59.4383 67.8943V72.8162C59.4383 74.9516 59.2104 76.794 58.7547 78.3435C58.299 79.88 57.6414 81.143 56.782 82.1326C55.9357 83.1091 54.9266 83.8318 53.7547 84.3005C52.5828 84.7693 51.2807 85.0037 49.8484 85.0037C48.7026 85.0037 47.6349 84.8604 46.6453 84.574C45.6557 84.2745 44.7638 83.8123 43.9695 83.1873C43.1883 82.5623 42.5112 81.7745 41.9383 80.824C41.3784 79.8604 40.9487 78.7146 40.6492 77.3865C40.3497 76.0583 40.2 74.5349 40.2 72.8162V67.8943C40.2 65.7589 40.4279 63.9294 40.8836 62.406C41.3523 60.8695 42.0099 59.613 42.8562 58.6365C43.7156 57.6599 44.7312 56.9438 45.9031 56.488C47.075 56.0193 48.3771 55.7849 49.8094 55.7849C50.9552 55.7849 52.0164 55.9347 52.993 56.2341C53.9825 56.5206 54.8745 56.9698 55.6687 57.5818C56.463 58.1938 57.1401 58.9815 57.7 59.9451C58.2599 60.8956 58.6896 62.0349 58.9891 63.363C59.2885 64.6781 59.4383 66.1886 59.4383 67.8943ZM53.7937 73.5583V67.1326C53.7937 66.1039 53.7352 65.2055 53.618 64.4373C53.5138 63.669 53.351 63.018 53.1297 62.4841C52.9083 61.9373 52.6349 61.4945 52.3094 61.156C51.9839 60.8175 51.6128 60.5701 51.1961 60.4138C50.7794 60.2576 50.3172 60.1794 49.8094 60.1794C49.1714 60.1794 48.6049 60.3031 48.1102 60.5505C47.6284 60.7979 47.2182 61.1951 46.8797 61.7419C46.5411 62.2758 46.2807 62.9919 46.0984 63.8904C45.9292 64.7758 45.8445 65.8565 45.8445 67.1326V73.5583C45.8445 74.587 45.8966 75.4919 46.0008 76.2732C46.118 77.0544 46.2872 77.725 46.5086 78.2849C46.743 78.8318 47.0164 79.281 47.3289 79.6326C47.6544 79.9711 48.0255 80.2185 48.4422 80.3748C48.8719 80.531 49.3406 80.6091 49.8484 80.6091C50.4734 80.6091 51.0268 80.4854 51.5086 80.238C52.0034 79.9776 52.42 79.574 52.7586 79.0271C53.1102 78.4672 53.3706 77.738 53.5398 76.8396C53.7091 75.9412 53.7937 74.8474 53.7937 73.5583Z"/>
</mask>
<path d="M32.7102 56.1169V84.613H27.0852V62.6013L20.3273 64.7498V60.3162L32.1047 56.1169H32.7102ZM59.4383 67.8943V72.8162C59.4383 74.9516 59.2104 76.794 58.7547 78.3435C58.299 79.88 57.6414 81.143 56.782 82.1326C55.9357 83.1091 54.9266 83.8318 53.7547 84.3005C52.5828 84.7693 51.2807 85.0037 49.8484 85.0037C48.7026 85.0037 47.6349 84.8604 46.6453 84.574C45.6557 84.2745 44.7638 83.8123 43.9695 83.1873C43.1883 82.5623 42.5112 81.7745 41.9383 80.824C41.3784 79.8604 40.9487 78.7146 40.6492 77.3865C40.3497 76.0583 40.2 74.5349 40.2 72.8162V67.8943C40.2 65.7589 40.4279 63.9294 40.8836 62.406C41.3523 60.8695 42.0099 59.613 42.8562 58.6365C43.7156 57.6599 44.7312 56.9438 45.9031 56.488C47.075 56.0193 48.3771 55.7849 49.8094 55.7849C50.9552 55.7849 52.0164 55.9347 52.993 56.2341C53.9825 56.5206 54.8745 56.9698 55.6687 57.5818C56.463 58.1938 57.1401 58.9815 57.7 59.9451C58.2599 60.8956 58.6896 62.0349 58.9891 63.363C59.2885 64.6781 59.4383 66.1886 59.4383 67.8943ZM53.7937 73.5583V67.1326C53.7937 66.1039 53.7352 65.2055 53.618 64.4373C53.5138 63.669 53.351 63.018 53.1297 62.4841C52.9083 61.9373 52.6349 61.4945 52.3094 61.156C51.9839 60.8175 51.6128 60.5701 51.1961 60.4138C50.7794 60.2576 50.3172 60.1794 49.8094 60.1794C49.1714 60.1794 48.6049 60.3031 48.1102 60.5505C47.6284 60.7979 47.2182 61.1951 46.8797 61.7419C46.5411 62.2758 46.2807 62.9919 46.0984 63.8904C45.9292 64.7758 45.8445 65.8565 45.8445 67.1326V73.5583C45.8445 74.587 45.8966 75.4919 46.0008 76.2732C46.118 77.0544 46.2872 77.725 46.5086 78.2849C46.743 78.8318 47.0164 79.281 47.3289 79.6326C47.6544 79.9711 48.0255 80.2185 48.4422 80.3748C48.8719 80.531 49.3406 80.6091 49.8484 80.6091C50.4734 80.6091 51.0268 80.4854 51.5086 80.238C52.0034 79.9776 52.42 79.574 52.7586 79.0271C53.1102 78.4672 53.3706 77.738 53.5398 76.8396C53.7091 75.9412 53.7937 74.8474 53.7937 73.5583Z" fill="#0F4EAD"/>
<path d="M32.7102 56.1169H33.7102V55.1169H32.7102V56.1169ZM32.7102 84.613V85.613H33.7102V84.613H32.7102ZM27.0852 84.613H26.0852V85.613H27.0852V84.613ZM27.0852 62.6013H28.0852V61.2341L26.7822 61.6483L27.0852 62.6013ZM20.3273 64.7498H19.3273V66.117L20.6303 65.7028L20.3273 64.7498ZM20.3273 60.3162L19.9915 59.3742L19.3273 59.611V60.3162H20.3273ZM32.1047 56.1169V55.1169H31.9317L31.7688 55.175L32.1047 56.1169ZM32.7102 56.1169H31.7102V84.613H32.7102H33.7102V56.1169H32.7102ZM32.7102 84.613V83.613H27.0852V84.613V85.613H32.7102V84.613ZM27.0852 84.613H28.0852V62.6013H27.0852H26.0852V84.613H27.0852ZM27.0852 62.6013L26.7822 61.6483L20.0244 63.7968L20.3273 64.7498L20.6303 65.7028L27.3881 63.5543L27.0852 62.6013ZM20.3273 64.7498H21.3273V60.3162H20.3273H19.3273V64.7498H20.3273ZM20.3273 60.3162L20.6632 61.2581L32.4405 57.0589L32.1047 56.1169L31.7688 55.175L19.9915 59.3742L20.3273 60.3162ZM32.1047 56.1169V57.1169H32.7102V56.1169V55.1169H32.1047V56.1169ZM58.7547 78.3435L59.7134 78.6279L59.7141 78.6257L58.7547 78.3435ZM56.782 82.1326L56.027 81.4769L56.0263 81.4776L56.782 82.1326ZM46.6453 84.574L46.3556 85.5312L46.3673 85.5345L46.6453 84.574ZM43.9695 83.1873L43.3448 83.9682L43.3511 83.9731L43.9695 83.1873ZM41.9383 80.824L41.0737 81.3264L41.0777 81.3333L41.0818 81.3402L41.9383 80.824ZM40.6492 77.3865L39.6737 77.6064L40.6492 77.3865ZM40.8836 62.406L39.9271 62.1142L39.9255 62.1194L40.8836 62.406ZM42.8562 58.6365L42.1055 57.9758L42.1006 57.9815L42.8562 58.6365ZM45.9031 56.488L46.2656 57.4201L46.2745 57.4165L45.9031 56.488ZM52.993 56.2341L52.6998 57.1902L52.7073 57.1925L52.7149 57.1947L52.993 56.2341ZM57.7 59.9451L56.8354 60.4475L56.8384 60.4526L57.7 59.9451ZM58.9891 63.363L58.0135 63.583L58.014 63.5851L58.9891 63.363ZM53.618 64.4373L52.627 64.5716L52.6282 64.5798L52.6294 64.5881L53.618 64.4373ZM53.1297 62.4841L52.2027 62.8593L52.2059 62.8671L53.1297 62.4841ZM48.1102 60.5505L47.6629 59.6561L47.6534 59.661L48.1102 60.5505ZM46.8797 61.7419L47.7242 62.2775L47.7299 62.2683L46.8797 61.7419ZM46.0984 63.8904L45.1183 63.6915L45.1162 63.7026L46.0984 63.8904ZM46.0008 76.2732L45.0096 76.4054L45.0106 76.4135L45.0118 76.4215L46.0008 76.2732ZM46.5086 78.2849L45.5786 78.6526L45.5839 78.6658L45.5894 78.6788L46.5086 78.2849ZM47.3289 79.6326L46.5815 80.2969L46.5945 80.3116L46.6081 80.3257L47.3289 79.6326ZM48.4422 80.3748L48.091 81.3111L48.1004 81.3145L48.4422 80.3748ZM51.5086 80.238L51.9654 81.1276L51.9743 81.123L51.5086 80.238ZM52.7586 79.0271L51.9117 78.4953L51.9083 78.5007L52.7586 79.0271ZM59.4383 67.8943H58.4383V72.8162H59.4383H60.4383V67.8943H59.4383ZM59.4383 72.8162H58.4383C58.4383 74.8848 58.217 76.6275 57.7953 78.0613L58.7547 78.3435L59.7141 78.6257C60.2038 76.9605 60.4383 75.0183 60.4383 72.8162H59.4383ZM58.7547 78.3435L57.796 78.0591C57.372 79.4885 56.7743 80.6164 56.027 81.4769L56.782 82.1326L57.5371 82.7883C58.5085 81.6696 59.2259 80.2714 59.7134 78.6279L58.7547 78.3435ZM56.782 82.1326L56.0263 81.4776C55.2819 82.3367 54.4035 82.964 53.3833 83.3721L53.7547 84.3005L54.1261 85.229C55.4497 84.6996 56.5895 83.8816 57.5377 82.7875L56.782 82.1326ZM53.7547 84.3005L53.3833 83.3721C52.3444 83.7876 51.1705 84.0037 49.8484 84.0037V85.0037V86.0037C51.3909 86.0037 52.8212 85.7509 54.1261 85.229L53.7547 84.3005ZM49.8484 85.0037V84.0037C48.7863 84.0037 47.8131 83.871 46.9234 83.6134L46.6453 84.574L46.3673 85.5345C47.4567 85.8499 48.6189 86.0037 49.8484 86.0037V85.0037ZM46.6453 84.574L46.935 83.6168C46.0619 83.3526 45.282 82.9475 44.5879 82.4014L43.9695 83.1873L43.3511 83.9731C44.2456 84.677 45.2496 85.1964 46.3557 85.5311L46.6453 84.574ZM43.9695 83.1873L44.5942 82.4064C43.9148 81.8628 43.3133 81.1681 42.7947 80.3078L41.9383 80.824L41.0818 81.3402C41.7091 82.3809 42.4618 83.2617 43.3448 83.9681L43.9695 83.1873ZM41.9383 80.824L42.8029 80.3216C42.304 79.4629 41.9066 78.4165 41.6247 77.1665L40.6492 77.3865L39.6737 77.6064C39.9908 79.0126 40.4528 80.2579 41.0737 81.3264L41.9383 80.824ZM40.6492 77.3865L41.6247 77.1665C41.3451 75.9265 41.2 74.4792 41.2 72.8162H40.2H39.2C39.2 74.5906 39.3544 76.1902 39.6737 77.6064L40.6492 77.3865ZM40.2 72.8162H41.2V67.8943H40.2H39.2V72.8162H40.2ZM40.2 67.8943H41.2C41.2 65.825 41.4214 64.0974 41.8416 62.6926L40.8836 62.406L39.9255 62.1194C39.4343 63.7615 39.2 65.6928 39.2 67.8943H40.2ZM40.8836 62.406L41.8401 62.6978C42.2776 61.2635 42.8766 60.1399 43.6119 59.2914L42.8562 58.6365L42.1006 57.9815C41.1432 59.0862 40.427 60.4756 39.9271 62.1142L40.8836 62.406ZM42.8562 58.6365L43.607 59.2971C44.3643 58.4365 45.2482 57.8157 46.2656 57.42L45.9031 56.488L45.5407 55.556C44.2143 56.0719 43.0669 56.8833 42.1055 57.9758L42.8562 58.6365ZM45.9031 56.488L46.2745 57.4165C47.3134 57.0009 48.4873 56.7849 49.8094 56.7849V55.7849V54.7849C48.2669 54.7849 46.8366 55.0376 45.5317 55.5596L45.9031 56.488ZM49.8094 55.7849V56.7849C50.8678 56.7849 51.829 56.9231 52.6998 57.1902L52.993 56.2341L53.2862 55.2781C52.2038 54.9462 51.0426 54.7849 49.8094 54.7849V55.7849ZM52.993 56.2341L52.7149 57.1947C53.5875 57.4473 54.3661 57.8405 55.0584 58.3739L55.6687 57.5818L56.2791 56.7896C55.3828 56.0991 54.3776 55.5939 53.271 55.2736L52.993 56.2341ZM55.6687 57.5818L55.0584 58.3739C55.7391 58.8984 56.3334 59.5836 56.8354 60.4475L57.7 59.9451L58.5646 59.4427C57.9468 58.3795 57.187 57.4892 56.2791 56.7896L55.6687 57.5818ZM57.7 59.9451L56.8384 60.4526C57.335 61.2957 57.7318 62.3333 58.0135 63.583L58.9891 63.363L59.9646 63.1431C59.6474 61.7365 59.1848 60.4955 58.5616 59.4375L57.7 59.9451ZM58.9891 63.363L58.014 63.5851C58.2932 64.8111 58.4383 66.2446 58.4383 67.8943H59.4383H60.4383C60.4383 66.1325 60.2839 64.5451 59.9641 63.141L58.9891 63.363ZM53.7937 73.5583H54.7937V67.1326H53.7937H52.7937V73.5583H53.7937ZM53.7937 67.1326H54.7937C54.7937 66.0685 54.7333 65.1176 54.6065 64.2865L53.618 64.4373L52.6294 64.5881C52.737 65.2934 52.7937 66.1393 52.7937 67.1326H53.7937ZM53.618 64.4373L54.6089 64.3029C54.4968 63.4763 54.3168 62.7364 54.0534 62.1011L53.1297 62.4841L52.2059 62.8671C52.3852 63.2996 52.5308 63.8618 52.627 64.5716L53.618 64.4373ZM53.1297 62.4841L54.0566 62.1089C53.7993 61.4731 53.4635 60.9135 53.0302 60.4629L52.3094 61.156L51.5885 61.8491C51.8063 62.0756 52.0174 62.4015 52.2027 62.8593L53.1297 62.4841ZM52.3094 61.156L53.0302 60.4629C52.607 60.0228 52.1115 59.6891 51.5472 59.4775L51.1961 60.4138L50.845 61.3501C51.1141 61.4511 51.3607 61.6121 51.5885 61.8491L52.3094 61.156ZM51.1961 60.4138L51.5472 59.4775C51.0036 59.2736 50.4204 59.1794 49.8094 59.1794V60.1794V61.1794C50.214 61.1794 50.5552 61.2415 50.845 61.3501L51.1961 60.4138ZM49.8094 60.1794V59.1794C49.04 59.1794 48.3164 59.3294 47.6629 59.6561L48.1102 60.5505L48.5574 61.445C48.8934 61.2769 49.3027 61.1794 49.8094 61.1794V60.1794ZM48.1102 60.5505L47.6534 59.661C46.9818 60.0058 46.4456 60.5434 46.0294 61.2156L46.8797 61.7419L47.7299 62.2683C47.9909 61.8468 48.275 61.59 48.567 61.4401L48.1102 60.5505ZM46.8797 61.7419L46.0352 61.2064C45.609 61.8785 45.315 62.7227 45.1184 63.6915L46.0984 63.8904L47.0785 64.0892C47.2465 63.2612 47.4733 62.6731 47.7242 62.2775L46.8797 61.7419ZM46.0984 63.8904L45.1162 63.7026C44.9314 64.6695 44.8445 65.8172 44.8445 67.1326H45.8445H46.8445C46.8445 65.8958 46.927 64.8821 47.0806 64.0782L46.0984 63.8904ZM45.8445 67.1326H44.8445V73.5583H45.8445H46.8445V67.1326H45.8445ZM45.8445 73.5583H44.8445C44.8445 74.6187 44.8981 75.5694 45.0096 76.4054L46.0008 76.2732L46.992 76.141C46.8951 75.4145 46.8445 74.5553 46.8445 73.5583H45.8445ZM46.0008 76.2732L45.0118 76.4215C45.137 77.256 45.3223 78.0041 45.5786 78.6526L46.5086 78.2849L47.4386 77.9173C47.2522 77.4459 47.0989 76.8529 46.9897 76.1249L46.0008 76.2732ZM46.5086 78.2849L45.5894 78.6788C45.8555 79.2996 46.1816 79.847 46.5815 80.2969L47.3289 79.6326L48.0763 78.9682C47.8513 78.715 47.6305 78.364 47.4277 77.891L46.5086 78.2849ZM47.3289 79.6326L46.6081 80.3257C47.0312 80.7658 47.5268 81.0995 48.0911 81.3111L48.4422 80.3748L48.7933 79.4384C48.5242 79.3375 48.2776 79.1764 48.0497 78.9395L47.3289 79.6326ZM48.4422 80.3748L48.1004 81.3145C48.6511 81.5148 49.2369 81.6091 49.8484 81.6091V80.6091V79.6091C49.4443 79.6091 49.0926 79.5472 48.7839 79.435L48.4422 80.3748ZM49.8484 80.6091V81.6091C50.6078 81.6091 51.322 81.458 51.9654 81.1276L51.5086 80.238L51.0518 79.3485C50.7317 79.5128 50.3391 79.6091 49.8484 79.6091V80.6091ZM51.5086 80.238L51.9743 81.123C52.6495 80.7676 53.1908 80.2289 53.6089 79.5535L52.7586 79.0271L51.9083 78.5007C51.6493 78.9191 51.3573 79.1876 51.0428 79.3531L51.5086 80.238ZM52.7586 79.0271L53.6055 79.5589C54.0438 78.8608 54.3384 78.0024 54.5226 77.0247L53.5398 76.8396L52.5571 76.6544C52.4028 77.4737 52.1765 78.0736 51.9117 78.4953L52.7586 79.0271ZM53.5398 76.8396L54.5226 77.0247C54.7069 76.0461 54.7937 74.8865 54.7937 73.5583H53.7937H52.7937C52.7937 74.8084 52.7113 75.8362 52.5571 76.6544L53.5398 76.8396Z" fill="black" mask="url(#path-7-outside-2_275_745)"/>
</g>
<path d="M13.7056 5.22167C15.1995 5.44972 16.464 6.58097 17.2848 8.2892C18.1046 9.99542 18.4644 12.2494 18.1545 14.6439C17.8446 17.0384 16.9265 19.0973 15.7052 20.4921C14.4825 21.8885 12.9799 22.5975 11.486 22.3696C9.99202 22.1417 8.72675 21.0103 7.90588 19.3019C7.08612 17.5957 6.72622 15.3416 7.03615 12.9473C7.34609 10.5529 8.26424 8.49383 9.48541 7.09906C10.7082 5.70252 12.2116 4.99369 13.7056 5.22167Z" fill="url(#paint3_linear_275_745)" stroke="#0E3D84" stroke-width="0.5"/>
<mask id="path-10-outside-3_275_745" maskUnits="userSpaceOnUse" x="7.76465" y="9.13135" width="9" height="8" fill="black">
<rect fill="white" x="7.76465" y="9.13135" width="9" height="8"/>
<path d="M11.3946 10.436L10.4337 16.1313H9.27352L10.0118 11.8774L8.91414 12.272L9.08992 11.2681L11.2579 10.4399L11.3946 10.436ZM15.9587 12.7798L15.8024 13.7876C15.766 14.061 15.7035 14.341 15.6149 14.6274C15.5264 14.9139 15.4053 15.1795 15.2516 15.4243C15.1006 15.6665 14.9092 15.8605 14.6774 16.0063C14.4457 16.1522 14.1631 16.2199 13.8298 16.2095C13.5772 16.2043 13.3662 16.1496 13.197 16.0454C13.0303 15.9386 12.8962 15.8006 12.7946 15.6313C12.6957 15.4595 12.624 15.2694 12.5798 15.061C12.5355 14.8527 12.5121 14.6392 12.5095 14.4204C12.5069 14.1991 12.5173 13.9894 12.5407 13.7915L12.697 12.7798C12.736 12.5063 12.7985 12.2277 12.8845 11.9438C12.973 11.6574 13.0941 11.3931 13.2477 11.1509C13.4014 10.9061 13.5941 10.7121 13.8259 10.5688C14.0576 10.423 14.3402 10.3553 14.6735 10.3657C14.9261 10.3709 15.1358 10.4269 15.3024 10.5337C15.4717 10.6379 15.6058 10.7759 15.7048 10.9478C15.8037 11.117 15.8753 11.3058 15.9196 11.5142C15.9639 11.7225 15.9873 11.936 15.9899 12.1548C15.9925 12.3735 15.9821 12.5819 15.9587 12.7798ZM14.6266 13.9517L14.822 12.6118C14.8272 12.5571 14.8363 12.4803 14.8493 12.3813C14.8649 12.2824 14.8753 12.1743 14.8806 12.0571C14.8884 11.9373 14.8858 11.8228 14.8727 11.7134C14.8623 11.604 14.8337 11.5129 14.7868 11.4399C14.7399 11.367 14.6683 11.328 14.572 11.3228C14.4287 11.3123 14.3128 11.3553 14.2243 11.4517C14.1384 11.5454 14.072 11.6665 14.0251 11.8149C13.9782 11.9608 13.9444 12.1079 13.9235 12.2563C13.9027 12.4048 13.8871 12.5233 13.8766 12.6118L13.6813 13.9517C13.6761 14.0011 13.6657 14.0767 13.6501 14.1782C13.6371 14.2772 13.6266 14.3866 13.6188 14.5063C13.611 14.6261 13.6123 14.742 13.6227 14.854C13.6358 14.9634 13.6657 15.0558 13.7126 15.1313C13.7595 15.2043 13.8311 15.2446 13.9274 15.2524C14.0707 15.2629 14.1852 15.2199 14.2712 15.1235C14.3597 15.0272 14.4274 14.9048 14.4743 14.7563C14.5212 14.6079 14.555 14.4595 14.5759 14.311C14.5967 14.16 14.6136 14.0402 14.6266 13.9517Z"/>
</mask>
<path d="M11.3946 10.436L10.4337 16.1313H9.27352L10.0118 11.8774L8.91414 12.272L9.08992 11.2681L11.2579 10.4399L11.3946 10.436ZM15.9587 12.7798L15.8024 13.7876C15.766 14.061 15.7035 14.341 15.6149 14.6274C15.5264 14.9139 15.4053 15.1795 15.2516 15.4243C15.1006 15.6665 14.9092 15.8605 14.6774 16.0063C14.4457 16.1522 14.1631 16.2199 13.8298 16.2095C13.5772 16.2043 13.3662 16.1496 13.197 16.0454C13.0303 15.9386 12.8962 15.8006 12.7946 15.6313C12.6957 15.4595 12.624 15.2694 12.5798 15.061C12.5355 14.8527 12.5121 14.6392 12.5095 14.4204C12.5069 14.1991 12.5173 13.9894 12.5407 13.7915L12.697 12.7798C12.736 12.5063 12.7985 12.2277 12.8845 11.9438C12.973 11.6574 13.0941 11.3931 13.2477 11.1509C13.4014 10.9061 13.5941 10.7121 13.8259 10.5688C14.0576 10.423 14.3402 10.3553 14.6735 10.3657C14.9261 10.3709 15.1358 10.4269 15.3024 10.5337C15.4717 10.6379 15.6058 10.7759 15.7048 10.9478C15.8037 11.117 15.8753 11.3058 15.9196 11.5142C15.9639 11.7225 15.9873 11.936 15.9899 12.1548C15.9925 12.3735 15.9821 12.5819 15.9587 12.7798ZM14.6266 13.9517L14.822 12.6118C14.8272 12.5571 14.8363 12.4803 14.8493 12.3813C14.8649 12.2824 14.8753 12.1743 14.8806 12.0571C14.8884 11.9373 14.8858 11.8228 14.8727 11.7134C14.8623 11.604 14.8337 11.5129 14.7868 11.4399C14.7399 11.367 14.6683 11.328 14.572 11.3228C14.4287 11.3123 14.3128 11.3553 14.2243 11.4517C14.1384 11.5454 14.072 11.6665 14.0251 11.8149C13.9782 11.9608 13.9444 12.1079 13.9235 12.2563C13.9027 12.4048 13.8871 12.5233 13.8766 12.6118L13.6813 13.9517C13.6761 14.0011 13.6657 14.0767 13.6501 14.1782C13.6371 14.2772 13.6266 14.3866 13.6188 14.5063C13.611 14.6261 13.6123 14.742 13.6227 14.854C13.6358 14.9634 13.6657 15.0558 13.7126 15.1313C13.7595 15.2043 13.8311 15.2446 13.9274 15.2524C14.0707 15.2629 14.1852 15.2199 14.2712 15.1235C14.3597 15.0272 14.4274 14.9048 14.4743 14.7563C14.5212 14.6079 14.555 14.4595 14.5759 14.311C14.5967 14.16 14.6136 14.0402 14.6266 13.9517Z" fill="#0F4EAD"/>
<path d="M11.3946 10.436L11.6904 10.4859L11.7512 10.1257L11.386 10.1362L11.3946 10.436ZM10.4337 16.1313V16.4313H10.6873L10.7295 16.1813L10.4337 16.1313ZM9.27352 16.1313L8.97794 16.08L8.91697 16.4313H9.27352V16.1313ZM10.0118 11.8774L10.3074 11.9287L10.3956 11.4207L9.91033 11.5951L10.0118 11.8774ZM8.91414 12.272L8.61864 12.2202L8.52956 12.729L9.01562 12.5543L8.91414 12.272ZM9.08992 11.2681L8.98287 10.9878L8.82379 11.0486L8.79442 11.2163L9.08992 11.2681ZM11.2579 10.4399L11.2493 10.1401L11.1984 10.1415L11.1508 10.1597L11.2579 10.4399ZM11.3946 10.436L11.0988 10.3861L10.1379 16.0814L10.4337 16.1313L10.7295 16.1813L11.6904 10.4859L11.3946 10.436ZM10.4337 16.1313V15.8313H9.27352V16.1313V16.4313H10.4337V16.1313ZM9.27352 16.1313L9.5691 16.1826L10.3074 11.9287L10.0118 11.8774L9.71622 11.8261L8.97794 16.08L9.27352 16.1313ZM10.0118 11.8774L9.91033 11.5951L8.81267 11.9897L8.91414 12.272L9.01562 12.5543L10.1133 12.1598L10.0118 11.8774ZM8.91414 12.272L9.20965 12.3237L9.38543 11.3198L9.08992 11.2681L8.79442 11.2163L8.61864 12.2202L8.91414 12.272ZM9.08992 11.2681L9.19698 11.5483L11.3649 10.7202L11.2579 10.4399L11.1508 10.1597L8.98287 10.9878L9.08992 11.2681ZM11.2579 10.4399L11.2665 10.7398L11.4032 10.7359L11.3946 10.436L11.386 10.1362L11.2493 10.1401L11.2579 10.4399ZM15.9587 12.7798L16.2553 12.8258L16.2566 12.8151L15.9587 12.7798ZM15.8024 13.7876L15.5059 13.7416L15.5051 13.7479L15.8024 13.7876ZM15.2516 15.4243L14.9975 15.2648L14.9971 15.2656L15.2516 15.4243ZM13.8298 16.2095L13.8391 15.9096L13.836 15.9095L13.8298 16.2095ZM13.197 16.0454L13.0351 16.2981L13.0397 16.3009L13.197 16.0454ZM12.7946 15.6313L12.5346 15.7811L12.5374 15.7857L12.7946 15.6313ZM12.5798 15.061L12.2863 15.1234L12.5798 15.061ZM12.5095 14.4204L12.2095 14.4239V14.424L12.5095 14.4204ZM12.5407 13.7915L12.244 13.7457L12.2428 13.7562L12.5407 13.7915ZM12.697 12.7798L12.9935 12.8256L12.9939 12.8222L12.697 12.7798ZM12.8845 11.9438L12.5978 11.8553L12.5973 11.8569L12.8845 11.9438ZM13.2477 11.1509L13.5011 11.3116L13.5018 11.3104L13.2477 11.1509ZM13.8259 10.5688L13.9836 10.8241L13.9856 10.8228L13.8259 10.5688ZM14.6735 10.3657L14.6641 10.6656L14.6673 10.6657L14.6735 10.3657ZM15.3024 10.5337L15.1406 10.7863L15.1452 10.7892L15.3024 10.5337ZM15.7048 10.9478L15.4448 11.0974L15.4458 11.0992L15.7048 10.9478ZM14.6266 13.9517L14.9235 13.9953L14.9235 13.9949L14.6266 13.9517ZM14.822 12.6118L15.1188 12.6551L15.1199 12.6477L15.1206 12.6403L14.822 12.6118ZM14.8493 12.3813L14.5529 12.3345L14.5519 12.3422L14.8493 12.3813ZM14.8806 12.0571L14.5811 12.0376L14.5808 12.0438L14.8806 12.0571ZM14.8727 11.7134L14.574 11.7418L14.5748 11.7488L14.8727 11.7134ZM14.572 11.3228L14.5502 11.622L14.5558 11.6223L14.572 11.3228ZM14.2243 11.4517L14.0034 11.2487L14.0032 11.2489L14.2243 11.4517ZM14.0251 11.8149L14.3107 11.9067L14.3112 11.9053L14.0251 11.8149ZM13.8766 12.6118L14.1736 12.6551L14.1746 12.6469L13.8766 12.6118ZM13.6813 13.9517L13.3842 13.9084L13.383 13.9203L13.6813 13.9517ZM13.6501 14.1782L13.3535 14.1326L13.3526 14.1391L13.6501 14.1782ZM13.6227 14.854L13.3239 14.8818L13.3248 14.8895L13.6227 14.854ZM13.7126 15.1313L13.4577 15.2896L13.4602 15.2936L13.7126 15.1313ZM13.9274 15.2524L13.9032 15.5515L13.9057 15.5517L13.9274 15.2524ZM14.2712 15.1235L14.0503 14.9205L14.0473 14.9239L14.2712 15.1235ZM14.5759 14.311L14.873 14.3527L14.873 14.352L14.5759 14.311ZM15.9587 12.7798L15.6622 12.7338L15.506 13.7416L15.8024 13.7876L16.0989 13.8336L16.2551 12.8257L15.9587 12.7798ZM15.8024 13.7876L15.5051 13.7479C15.471 14.0034 15.4123 14.267 15.3283 14.5388L15.6149 14.6274L15.9015 14.716C15.9946 14.415 16.0609 14.1186 16.0998 13.8272L15.8024 13.7876ZM15.6149 14.6274L15.3283 14.5388C15.2472 14.8013 15.1368 15.043 14.9975 15.2648L15.2516 15.4243L15.5057 15.5838C15.6738 15.3161 15.8056 15.0265 15.9015 14.716L15.6149 14.6274ZM15.2516 15.4243L14.9971 15.2656C14.869 15.4709 14.7094 15.6318 14.5177 15.7524L14.6774 16.0063L14.8372 16.2603C15.109 16.0893 15.3322 15.8621 15.5062 15.5831L15.2516 15.4243ZM14.6774 16.0063L14.5177 15.7524C14.3465 15.8601 14.1259 15.9186 13.8391 15.9096L13.8298 16.2095L13.8204 16.5093C14.2003 16.5212 14.5448 16.4443 14.8372 16.2603L14.6774 16.0063ZM13.8298 16.2095L13.836 15.9095C13.6225 15.9051 13.4672 15.8595 13.3542 15.7899L13.197 16.0454L13.0397 16.3009C13.2653 16.4397 13.5318 16.5034 13.8236 16.5094L13.8298 16.2095ZM13.197 16.0454L13.3588 15.7928C13.231 15.7109 13.1296 15.6065 13.0519 15.477L12.7946 15.6313L12.5374 15.7857C12.6628 15.9948 12.8296 16.1664 13.0351 16.298L13.197 16.0454ZM12.7946 15.6313L13.0546 15.4817C12.9724 15.3389 12.9114 15.1786 12.8732 14.9987L12.5798 15.061L12.2863 15.1234C12.3366 15.3601 12.4189 15.58 12.5346 15.781L12.7946 15.6313ZM12.5798 15.061L12.8732 14.9987C12.8332 14.8102 12.8118 14.6164 12.8094 14.4168L12.5095 14.4204L12.2095 14.424C12.2123 14.662 12.2378 14.8952 12.2863 15.1234L12.5798 15.061ZM12.5095 14.4204L12.8094 14.4169C12.807 14.2071 12.8169 14.0105 12.8386 13.8268L12.5407 13.7915L12.2428 13.7562C12.2177 13.9683 12.2067 14.191 12.2095 14.4239L12.5095 14.4204ZM12.5407 13.7915L12.8372 13.8373L12.9934 12.8256L12.697 12.7798L12.4005 12.734L12.2442 13.7457L12.5407 13.7915ZM12.697 12.7798L12.9939 12.8222C13.0307 12.5649 13.0897 12.3011 13.1716 12.0308L12.8845 11.9438L12.5973 11.8569C12.5073 12.1543 12.4413 12.4478 12.4 12.7374L12.697 12.7798ZM12.8845 11.9438L13.1711 12.0324C13.2521 11.7702 13.3623 11.5303 13.5011 11.3116L13.2477 11.1509L12.9944 10.9902C12.8259 11.2558 12.6939 11.5445 12.5978 11.8553L12.8845 11.9438ZM13.2477 11.1509L13.5018 11.3104C13.6326 11.102 13.7932 10.9417 13.9836 10.824L13.8259 10.5688L13.6682 10.3136C13.395 10.4824 13.1702 10.7102 12.9936 10.9914L13.2477 11.1509ZM13.8259 10.5688L13.9856 10.8228C14.1568 10.7151 14.3774 10.6566 14.6641 10.6656L14.6735 10.3657L14.6829 10.0659C14.303 10.054 13.9585 10.1309 13.6661 10.3149L13.8259 10.5688ZM14.6735 10.3657L14.6673 10.6657C14.8798 10.67 15.0317 10.7165 15.1406 10.7863L15.3024 10.5337L15.4643 10.2811C15.2398 10.1373 14.9725 10.0718 14.6797 10.0658L14.6735 10.3657ZM15.3024 10.5337L15.1452 10.7892C15.272 10.8672 15.3708 10.9689 15.4448 11.0974L15.7048 10.9478L15.9648 10.7981C15.8408 10.5828 15.6714 10.4085 15.4597 10.2782L15.3024 10.5337ZM15.7048 10.9478L15.4458 11.0992C15.5272 11.2385 15.588 11.3968 15.6262 11.5765L15.9196 11.5142L16.2131 11.4518C16.1627 11.2148 16.0802 10.9956 15.9638 10.7963L15.7048 10.9478ZM15.9196 11.5142L15.6262 11.5765C15.6662 11.765 15.6876 11.9588 15.6899 12.1584L15.9899 12.1548L16.2899 12.1512C16.2871 11.9132 16.2615 11.68 16.2131 11.4518L15.9196 11.5142ZM15.9899 12.1548L15.6899 12.1584C15.6924 12.3654 15.6825 12.5607 15.6608 12.7445L15.9587 12.7798L16.2566 12.8151C16.2817 12.6031 16.2926 12.3817 16.2899 12.1512L15.9899 12.1548ZM14.6266 13.9517L14.9235 13.9949L15.1188 12.6551L14.822 12.6118L14.5251 12.5685L14.3298 13.9084L14.6266 13.9517ZM14.822 12.6118L15.1206 12.6403C15.1253 12.5909 15.1339 12.5182 15.1467 12.4205L14.8493 12.3813L14.5519 12.3422C14.5387 12.4424 14.529 12.5233 14.5233 12.5834L14.822 12.6118ZM14.8493 12.3813L15.1456 12.4281C15.1633 12.3164 15.1746 12.197 15.1803 12.0704L14.8806 12.0571L14.5808 12.0438C14.5761 12.1516 14.5666 12.2484 14.553 12.3346L14.8493 12.3813ZM14.8806 12.0571L15.1799 12.0767C15.1888 11.9401 15.186 11.8071 15.1706 11.6779L14.8727 11.7134L14.5748 11.7488C14.5855 11.8384 14.5879 11.9345 14.5812 12.0376L14.8806 12.0571ZM14.8727 11.7134L15.1714 11.6849C15.1576 11.5403 15.1179 11.4002 15.0392 11.2777L14.7868 11.4399L14.5344 11.6022C14.5494 11.6255 14.567 11.6677 14.5741 11.7418L14.8727 11.7134ZM14.7868 11.4399L15.0392 11.2777C14.9337 11.1137 14.7681 11.0329 14.5881 11.0232L14.572 11.3228L14.5558 11.6223C14.5674 11.6229 14.5643 11.6248 14.5543 11.6193C14.5495 11.6167 14.5449 11.6134 14.5409 11.6096C14.537 11.606 14.535 11.6031 14.5344 11.6022L14.7868 11.4399ZM14.572 11.3228L14.5937 11.0235C14.3693 11.0072 14.1605 11.0777 14.0034 11.2487L14.2243 11.4517L14.4452 11.6546C14.4652 11.6329 14.4881 11.6174 14.5502 11.622L14.572 11.3228ZM14.2243 11.4517L14.0032 11.2489C13.8818 11.3814 13.7962 11.5436 13.739 11.7246L14.0251 11.8149L14.3112 11.9053C14.3477 11.7894 14.395 11.7095 14.4454 11.6544L14.2243 11.4517ZM14.0251 11.8149L13.7395 11.7231C13.6875 11.885 13.6497 12.0488 13.6264 12.2147L13.9235 12.2563L14.2206 12.298C14.239 12.167 14.269 12.0366 14.3107 11.9067L14.0251 11.8149ZM13.9235 12.2563L13.6264 12.2147C13.6055 12.364 13.5895 12.485 13.5787 12.5768L13.8766 12.6118L14.1746 12.6469C14.1846 12.5615 14.1999 12.4455 14.2206 12.298L13.9235 12.2563ZM13.8766 12.6118L13.5798 12.5685L13.3845 13.9084L13.6813 13.9517L13.9782 13.9949L14.1735 12.6551L13.8766 12.6118ZM13.6813 13.9517L13.383 13.9203C13.3786 13.9623 13.3691 14.0319 13.3536 14.1326L13.6501 14.1782L13.9466 14.2238C13.9624 14.1214 13.9737 14.04 13.9797 13.9831L13.6813 13.9517ZM13.6501 14.1782L13.3526 14.1391C13.3386 14.2457 13.3276 14.3617 13.3195 14.4868L13.6188 14.5063L13.9182 14.5259C13.9257 14.4114 13.9355 14.3087 13.9475 14.2174L13.6501 14.1782ZM13.6188 14.5063L13.3195 14.4868C13.3107 14.6213 13.3121 14.7531 13.324 14.8818L13.6227 14.854L13.9214 14.8262C13.9126 14.731 13.9113 14.6309 13.9182 14.5259L13.6188 14.5063ZM13.6227 14.854L13.3248 14.8895C13.3418 15.0322 13.3828 15.1689 13.4577 15.2896L13.7126 15.1313L13.9675 14.9731C13.9486 14.9427 13.9297 14.8945 13.9206 14.8185L13.6227 14.854ZM13.7126 15.1313L13.4602 15.2936C13.564 15.455 13.7259 15.5371 13.9032 15.5515L13.9274 15.2524L13.9517 14.9534C13.9392 14.9524 13.9407 14.9504 13.9488 14.955C13.9526 14.9571 13.9564 14.9599 13.9597 14.9631C13.9629 14.9662 13.9646 14.9686 13.9649 14.9691L13.7126 15.1313ZM13.9274 15.2524L13.9057 15.5517C14.1298 15.568 14.3396 15.4976 14.4951 15.3232L14.2712 15.1235L14.0473 14.9239C14.0309 14.9422 14.0115 14.9578 13.9492 14.9532L13.9274 15.2524ZM14.2712 15.1235L14.4921 15.3265C14.6154 15.1923 14.7028 15.0292 14.7604 14.8467L14.4743 14.7563L14.1882 14.666C14.1521 14.7804 14.104 14.8621 14.0503 14.9205L14.2712 15.1235ZM14.4743 14.7563L14.7604 14.8467C14.8121 14.683 14.8497 14.5183 14.873 14.3527L14.5759 14.311L14.2788 14.2693C14.2603 14.4007 14.2303 14.5328 14.1882 14.666L14.4743 14.7563ZM14.5759 14.311L14.873 14.352C14.8938 14.2013 14.9106 14.0826 14.9235 13.9953L14.6266 13.9517L14.3298 13.908C14.3166 13.9978 14.2996 14.1186 14.2787 14.27L14.5759 14.311Z" fill="#00236D" mask="url(#path-10-outside-3_275_745)"/>
<rect x="0.941162" y="65.9124" width="2.82353" height="2.0438" fill="#0F4EAD"/>
<rect x="0.941162" y="71.022" width="2.82353" height="2.0438" fill="#0F4EAD"/>
<rect x="0.941162" y="74.0876" width="2.82353" height="2.0438" fill="#0F4EAD"/>
<rect x="0.941162" y="77.1533" width="2.82353" height="2.0438" fill="#0F4EAD"/>
<rect x="0.941162" y="80.219" width="2.82353" height="2.0438" fill="#0F4EAD"/>
<rect x="0.941162" y="83.2847" width="2.82353" height="2.0438" fill="#0F4EAD"/>
<rect x="0.941162" y="62.8467" width="2.82353" height="2.0438" fill="#0F4EAD"/>
<rect x="0.941162" y="59.781" width="2.82353" height="2.0438" fill="#0F4EAD"/>
<rect x="0.941162" y="56.7153" width="2.82353" height="2.0438" fill="#0F4EAD"/>
<rect x="0.941162" y="53.6497" width="2.82353" height="2.0438" fill="#0F4EAD"/>
<rect x="76.2354" y="65.9124" width="2.82353" height="2.0438" fill="#0F4EAD"/>
<rect x="76.2354" y="71.022" width="2.82353" height="2.0438" fill="#0F4EAD"/>
<rect x="76.2354" y="74.0876" width="2.82353" height="2.0438" fill="#0F4EAD"/>
<rect x="76.2354" y="77.1533" width="2.82353" height="2.0438" fill="#0F4EAD"/>
<rect x="76.2354" y="80.219" width="2.82353" height="2.0438" fill="#0F4EAD"/>
<rect x="76.2354" y="83.2847" width="2.82353" height="2.0438" fill="#0F4EAD"/>
<rect x="76.2354" y="62.8467" width="2.82353" height="2.0438" fill="#0F4EAD"/>
<rect x="76.2354" y="59.781" width="2.82353" height="2.0438" fill="#0F4EAD"/>
<rect x="76.2354" y="56.7153" width="2.82353" height="2.0438" fill="#0F4EAD"/>
<rect x="76.2354" y="53.6497" width="2.82353" height="2.0438" fill="#0F4EAD"/>
<rect x="43.7646" y="1.02197" width="2.0438" height="1.88235" transform="rotate(90 43.7646 1.02197)" fill="#0F4EAD"/>
<rect x="39.0588" y="1.02197" width="2.0438" height="1.88235" transform="rotate(90 39.0588 1.02197)" fill="#0F4EAD"/>
<rect x="36.2354" y="1.02197" width="2.0438" height="1.88235" transform="rotate(90 36.2354 1.02197)" fill="#0F4EAD"/>
<rect x="33.4119" y="1.02197" width="2.0438" height="1.88235" transform="rotate(90 33.4119 1.02197)" fill="#0F4EAD"/>
<rect x="30.5881" y="1.02197" width="2.0438" height="1.88235" transform="rotate(90 30.5881 1.02197)" fill="#0F4EAD"/>
<rect x="27.7646" y="1.02197" width="2.0438" height="1.88235" transform="rotate(90 27.7646 1.02197)" fill="#0F4EAD"/>
<rect x="46.5881" y="1.02197" width="2.0438" height="1.88235" transform="rotate(90 46.5881 1.02197)" fill="#0F4EAD"/>
<rect x="49.4119" y="1.02197" width="2.0438" height="1.88235" transform="rotate(90 49.4119 1.02197)" fill="#0F4EAD"/>
<rect x="52.2354" y="1.02197" width="2.0438" height="1.88235" transform="rotate(90 52.2354 1.02197)" fill="#0F4EAD"/>
<rect x="55.0588" y="1.02197" width="2.0438" height="1.88235" transform="rotate(90 55.0588 1.02197)" fill="#0F4EAD"/>
<rect x="43.7646" y="136.934" width="2.0438" height="1.88235" transform="rotate(90 43.7646 136.934)" fill="#0F4EAD"/>
<rect x="39.0588" y="136.934" width="2.0438" height="1.88235" transform="rotate(90 39.0588 136.934)" fill="#0F4EAD"/>
<rect x="36.2354" y="136.934" width="2.0438" height="1.88235" transform="rotate(90 36.2354 136.934)" fill="#0F4EAD"/>
<rect x="33.4119" y="136.934" width="2.0438" height="1.88235" transform="rotate(90 33.4119 136.934)" fill="#0F4EAD"/>
<rect x="30.5881" y="136.934" width="2.0438" height="1.88235" transform="rotate(90 30.5881 136.934)" fill="#0F4EAD"/>
<rect x="27.7646" y="136.934" width="2.0438" height="1.88235" transform="rotate(90 27.7646 136.934)" fill="#0F4EAD"/>
<rect x="46.5881" y="136.934" width="2.0438" height="1.88235" transform="rotate(90 46.5881 136.934)" fill="#0F4EAD"/>
<rect x="49.4119" y="136.934" width="2.0438" height="1.88235" transform="rotate(90 49.4119 136.934)" fill="#0F4EAD"/>
<rect x="52.2354" y="136.934" width="2.0438" height="1.88235" transform="rotate(90 52.2354 136.934)" fill="#0F4EAD"/>
<rect x="55.0588" y="136.934" width="2.0438" height="1.88235" transform="rotate(90 55.0588 136.934)" fill="#0F4EAD"/>
<defs>
<filter id="filter0_d_275_745" x="8.67651" y="25.0474" width="61.7058" height="101.993" filterUnits="userSpaceOnUse" color-interpolation-filters="sRGB">
<feFlood flood-opacity="0" result="BackgroundImageFix"/>
<feColorMatrix in="SourceAlpha" type="matrix" values="0 0 0 0 0 0 0 0 0 0 0 0 0 0 0 0 0 0 127 0" result="hardAlpha"/>
<feOffset dy="4"/>
<feGaussianBlur stdDeviation="2"/>
<feComposite in2="hardAlpha" operator="out"/>
<feColorMatrix type="matrix" values="0 0 0 0 0 0 0 0 0 0 0 0 0 0 0 0 0 0 0.25 0"/>
<feBlend mode="normal" in2="BackgroundImageFix" result="effect1_dropShadow_275_745"/>
<feBlend mode="normal" in="SourceGraphic" in2="effect1_dropShadow_275_745" result="shape"/>
</filter>
<filter id="filter1_d_275_745" x="15.3274" y="54.7849" width="49.1108" height="39.2188" filterUnits="userSpaceOnUse" color-interpolation-filters="sRGB">
<feFlood flood-opacity="0" result="BackgroundImageFix"/>
<feColorMatrix in="SourceAlpha" type="matrix" values="0 0 0 0 0 0 0 0 0 0 0 0 0 0 0 0 0 0 127 0" result="hardAlpha"/>
<feOffset dy="4"/>
<feGaussianBlur stdDeviation="2"/>
<feComposite in2="hardAlpha" operator="out"/>
<feColorMatrix type="matrix" values="0 0 0 0 0 0 0 0 0 0 0 0 0 0 0 0 0 0 0.25 0"/>
<feBlend mode="normal" in2="BackgroundImageFix" result="effect1_dropShadow_275_745"/>
<feBlend mode="normal" in="SourceGraphic" in2="effect1_dropShadow_275_745" result="shape"/>
</filter>
<linearGradient id="paint0_linear_275_745" x1="40.4705" y1="3.06567" x2="39.9158" y2="136.934" gradientUnits="userSpaceOnUse">
<stop stop-color="#125AC5" stop-opacity="0.95"/>
<stop offset="1" stop-color="#0C1D71"/>
</linearGradient>
<linearGradient id="paint1_linear_275_745" x1="66.4433" y1="115.339" x2="63.7602" y2="132.922" gradientUnits="userSpaceOnUse">
<stop stop-color="#B5D4FF"/>
<stop offset="1" stop-color="#396FD6"/>
</linearGradient>
<linearGradient id="paint2_linear_275_745" x1="49.8824" y1="30.6569" x2="24.723" y2="109.24" gradientUnits="userSpaceOnUse">
<stop stop-color="#4894FF" stop-opacity="0.95"/>
<stop offset="1" stop-color="#1A3974"/>
</linearGradient>
<linearGradient id="paint3_linear_275_745" x1="13.7375" y1="4.97369" x2="11.0544" y2="22.5567" gradientUnits="userSpaceOnUse">
<stop stop-color="#B5D4FF" stop-opacity="0.95"/>
<stop offset="1" stop-color="#396FD6"/>
</linearGradient>
</defs>
</svg>
