<svg width="80" height="140" viewBox="0 0 80 140" fill="none" xmlns="http://www.w3.org/2000/svg">
<rect x="0.5" y="0.5" width="79" height="139" rx="9.5" fill="white" stroke="black"/>
<rect x="4.26465" y="3.56567" width="71.4706" height="132.869" rx="9.5" fill="url(#paint0_linear_275_938)" stroke="black"/>
<path d="M66.4116 115.587C67.9054 115.815 69.1699 116.946 69.9907 118.654C70.8105 120.36 71.1704 122.614 70.8604 125.009C70.5505 127.403 69.6324 129.462 68.4112 130.857C67.1885 132.254 65.6858 132.962 64.1919 132.735C62.698 132.507 61.4327 131.375 60.6118 129.667C59.7921 127.961 59.4322 125.707 59.7421 123.312C60.052 120.918 60.9702 118.859 62.1913 117.464C63.4141 116.068 64.9176 115.359 66.4116 115.587Z" fill="url(#paint1_linear_275_938)" stroke="#696969" stroke-width="0.5"/>
<mask id="path-4-outside-1_275_938" maskUnits="userSpaceOnUse" x="62.7292" y="120.934" width="5" height="8" fill="black">
<rect fill="white" x="62.7292" y="120.934" width="5" height="8"/>
<path d="M65.6666 125.305L65.1783 125.302C65.0273 125.304 64.9062 125.343 64.8151 125.419C64.7213 125.494 64.651 125.592 64.6041 125.712C64.5546 125.831 64.5234 125.958 64.5104 126.091C64.5 126.177 64.5026 126.27 64.5182 126.372C64.5312 126.476 64.5651 126.565 64.6198 126.637C64.6718 126.71 64.7539 126.748 64.8658 126.751C64.9752 126.753 65.0651 126.723 65.1354 126.661C65.2057 126.598 65.2617 126.52 65.3033 126.427C65.3424 126.335 65.3711 126.247 65.3893 126.161L66.5494 126.153C66.5312 126.458 66.444 126.727 66.2877 126.962C66.1289 127.199 65.9231 127.384 65.6705 127.516C65.4179 127.649 65.138 127.713 64.8307 127.708C64.5156 127.7 64.2434 127.63 64.0143 127.497C63.7825 127.364 63.6054 127.178 63.483 126.938C63.3606 126.701 63.3086 126.424 63.3268 126.106C63.3398 125.887 63.3932 125.688 63.4869 125.509C63.5807 125.331 63.7044 125.179 63.858 125.052C64.0091 124.927 64.1809 124.829 64.3737 124.759C64.5664 124.691 64.7695 124.657 64.983 124.657L65.7721 124.661L65.6666 125.305ZM65.819 124.372L65.7174 125.001L65.0455 124.997C64.8268 124.989 64.6302 124.953 64.4557 124.887C64.2812 124.822 64.1328 124.729 64.0104 124.606C63.8854 124.484 63.7942 124.335 63.7369 124.161C63.677 123.986 63.6536 123.786 63.6666 123.559C63.6823 123.304 63.7434 123.07 63.8502 122.856C63.957 122.645 64.0989 122.464 64.276 122.313C64.4505 122.162 64.651 122.046 64.8776 121.966C65.1015 121.885 65.3411 121.847 65.5963 121.852C65.8359 121.86 66.0481 121.907 66.233 121.993C66.4153 122.079 66.569 122.196 66.694 122.344C66.8164 122.496 66.9088 122.67 66.9713 122.868C67.0338 123.068 67.0625 123.282 67.0573 123.509H65.901C65.8984 123.417 65.888 123.318 65.8698 123.212C65.8515 123.108 65.8125 123.018 65.7526 122.942C65.6927 122.867 65.6041 122.828 65.4869 122.825C65.3489 122.82 65.233 122.856 65.1393 122.934C65.0429 123.012 64.9674 123.11 64.9127 123.227C64.8554 123.344 64.819 123.463 64.8033 123.583C64.7903 123.703 64.789 123.821 64.7994 123.938C64.8099 124.055 64.8463 124.154 64.9088 124.235C64.9713 124.316 65.0755 124.36 65.2213 124.368L65.819 124.372Z"/>
</mask>
<path d="M65.6666 125.305L65.1783 125.302C65.0273 125.304 64.9062 125.343 64.8151 125.419C64.7213 125.494 64.651 125.592 64.6041 125.712C64.5546 125.831 64.5234 125.958 64.5104 126.091C64.5 126.177 64.5026 126.27 64.5182 126.372C64.5312 126.476 64.5651 126.565 64.6198 126.637C64.6718 126.71 64.7539 126.748 64.8658 126.751C64.9752 126.753 65.0651 126.723 65.1354 126.661C65.2057 126.598 65.2617 126.52 65.3033 126.427C65.3424 126.335 65.3711 126.247 65.3893 126.161L66.5494 126.153C66.5312 126.458 66.444 126.727 66.2877 126.962C66.1289 127.199 65.9231 127.384 65.6705 127.516C65.4179 127.649 65.138 127.713 64.8307 127.708C64.5156 127.7 64.2434 127.63 64.0143 127.497C63.7825 127.364 63.6054 127.178 63.483 126.938C63.3606 126.701 63.3086 126.424 63.3268 126.106C63.3398 125.887 63.3932 125.688 63.4869 125.509C63.5807 125.331 63.7044 125.179 63.858 125.052C64.0091 124.927 64.1809 124.829 64.3737 124.759C64.5664 124.691 64.7695 124.657 64.983 124.657L65.7721 124.661L65.6666 125.305ZM65.819 124.372L65.7174 125.001L65.0455 124.997C64.8268 124.989 64.6302 124.953 64.4557 124.887C64.2812 124.822 64.1328 124.729 64.0104 124.606C63.8854 124.484 63.7942 124.335 63.7369 124.161C63.677 123.986 63.6536 123.786 63.6666 123.559C63.6823 123.304 63.7434 123.07 63.8502 122.856C63.957 122.645 64.0989 122.464 64.276 122.313C64.4505 122.162 64.651 122.046 64.8776 121.966C65.1015 121.885 65.3411 121.847 65.5963 121.852C65.8359 121.86 66.0481 121.907 66.233 121.993C66.4153 122.079 66.569 122.196 66.694 122.344C66.8164 122.496 66.9088 122.67 66.9713 122.868C67.0338 123.068 67.0625 123.282 67.0573 123.509H65.901C65.8984 123.417 65.888 123.318 65.8698 123.212C65.8515 123.108 65.8125 123.018 65.7526 122.942C65.6927 122.867 65.6041 122.828 65.4869 122.825C65.3489 122.82 65.233 122.856 65.1393 122.934C65.0429 123.012 64.9674 123.11 64.9127 123.227C64.8554 123.344 64.819 123.463 64.8033 123.583C64.7903 123.703 64.789 123.821 64.7994 123.938C64.8099 124.055 64.8463 124.154 64.9088 124.235C64.9713 124.316 65.0755 124.36 65.2213 124.368L65.819 124.372Z" fill="url(#paint2_linear_275_938)"/>
<path d="M65.6666 125.305L65.6642 125.605L65.9212 125.607L65.9627 125.354L65.6666 125.305ZM65.1783 125.302L65.1807 125.001L65.1732 125.002L65.1783 125.302ZM64.8151 125.419L65.0033 125.652L65.0065 125.65L64.8151 125.419ZM64.6041 125.712L64.8815 125.826L64.8835 125.821L64.6041 125.712ZM64.5104 126.091L64.8083 126.127L64.8089 126.12L64.5104 126.091ZM64.5182 126.372L64.816 126.335L64.8147 126.326L64.5182 126.372ZM64.6198 126.637L64.8639 126.463L64.8598 126.457L64.6198 126.637ZM64.8658 126.751L64.873 126.451L64.8728 126.451L64.8658 126.751ZM65.3033 126.427L65.5775 126.548L65.5791 126.545L65.3033 126.427ZM65.3893 126.161L65.3873 125.861L65.1459 125.863L65.0958 126.099L65.3893 126.161ZM66.5494 126.153L66.8489 126.171L66.8681 125.851L66.5474 125.853L66.5494 126.153ZM66.2877 126.962L66.5369 127.129L66.5373 127.128L66.2877 126.962ZM64.8307 127.708L64.8233 128.008L64.8256 128.008L64.8307 127.708ZM64.0143 127.497L64.1647 127.237L64.1634 127.237L64.0143 127.497ZM63.483 126.938L63.7502 126.802L63.7496 126.801L63.483 126.938ZM63.3268 126.106L63.0273 126.088L63.0273 126.089L63.3268 126.106ZM63.4869 125.509L63.2218 125.368L63.221 125.37L63.4869 125.509ZM63.858 125.052L63.6668 124.82L63.6664 124.821L63.858 125.052ZM64.3737 124.759L64.2742 124.475L64.2708 124.477L64.3737 124.759ZM64.983 124.657L64.9845 124.357H64.983V124.657ZM65.7721 124.661L66.0682 124.709L66.1249 124.363L65.7736 124.361L65.7721 124.661ZM65.819 124.372L66.1151 124.42L66.1709 124.074L65.8209 124.072L65.819 124.372ZM65.7174 125.001L65.7157 125.301L65.9726 125.302L66.0136 125.049L65.7174 125.001ZM65.0455 124.997L65.0348 125.297L65.0438 125.297L65.0455 124.997ZM64.0104 124.606L64.2225 124.394L64.2203 124.392L64.0104 124.606ZM63.7369 124.161L64.022 124.067L64.0207 124.063L63.7369 124.161ZM63.6666 123.559L63.3672 123.541L63.3671 123.542L63.6666 123.559ZM63.8502 122.856L63.5826 122.721L63.5819 122.722L63.8502 122.856ZM64.276 122.313L64.4707 122.541L64.4724 122.54L64.276 122.313ZM64.8776 121.966L64.9783 122.248L64.9793 122.248L64.8776 121.966ZM65.5963 121.852L65.6061 121.552L65.6024 121.552L65.5963 121.852ZM66.233 121.993L66.361 121.722L66.3595 121.721L66.233 121.993ZM66.694 122.344L66.9271 122.156L66.9234 122.151L66.694 122.344ZM66.9713 122.868L67.2577 122.779L67.2574 122.778L66.9713 122.868ZM67.0573 123.509V123.809H67.3504L67.3572 123.515L67.0573 123.509ZM65.901 123.509L65.6011 123.517L65.6095 123.809H65.901V123.509ZM65.8698 123.212L66.1655 123.161L66.1653 123.16L65.8698 123.212ZM65.7526 122.942L65.5175 123.129L65.7526 122.942ZM65.4869 122.825L65.4756 123.125L65.4803 123.125L65.4869 122.825ZM65.1393 122.934L65.3282 123.167L65.3313 123.165L65.1393 122.934ZM64.9127 123.227L65.1823 123.359L65.1846 123.354L64.9127 123.227ZM64.8033 123.583L64.5058 123.544L64.5051 123.55L64.8033 123.583ZM65.2213 124.368L65.2052 124.668L65.2194 124.668L65.2213 124.368ZM65.6666 125.305L65.669 125.005L65.1807 125.002L65.1783 125.302L65.1759 125.602L65.6642 125.605L65.6666 125.305ZM65.1783 125.302L65.1732 125.002C64.9731 125.005 64.7803 125.058 64.6237 125.188L64.8151 125.419L65.0065 125.65C65.0321 125.628 65.0815 125.603 65.1835 125.601L65.1783 125.302ZM64.8151 125.419L64.6269 125.185C64.4896 125.296 64.3893 125.437 64.3248 125.602L64.6041 125.712L64.8835 125.821C64.9127 125.746 64.953 125.693 65.0033 125.652L64.8151 125.419ZM64.6041 125.712L64.3268 125.597C64.2658 125.745 64.2276 125.9 64.2118 126.061L64.5104 126.091L64.8089 126.12C64.8192 126.015 64.8435 125.918 64.8814 125.826L64.6041 125.712ZM64.5104 126.091L64.2126 126.054C64.1983 126.172 64.2026 126.294 64.2217 126.417L64.5182 126.372L64.8147 126.326C64.8025 126.247 64.8016 126.181 64.8082 126.127L64.5104 126.091ZM64.5182 126.372L64.2205 126.409C64.239 126.557 64.2893 126.697 64.3798 126.817L64.6198 126.637L64.8598 126.457C64.8409 126.432 64.8234 126.395 64.8159 126.335L64.5182 126.372ZM64.6198 126.637L64.3756 126.812C64.4962 126.981 64.6787 127.046 64.8589 127.051L64.8658 126.751L64.8728 126.451C64.8482 126.45 64.8418 126.446 64.8458 126.448C64.8479 126.449 64.8514 126.451 64.8554 126.454C64.8594 126.457 64.8622 126.461 64.8639 126.463L64.6198 126.637ZM64.8658 126.751L64.8587 127.051C65.0308 127.055 65.1984 127.006 65.3347 126.885L65.1354 126.661L64.9361 126.437C64.9317 126.441 64.9197 126.452 64.873 126.451L64.8658 126.751ZM65.1354 126.661L65.3347 126.885C65.4398 126.792 65.52 126.678 65.5775 126.548L65.3033 126.427L65.0292 126.305C65.0033 126.363 64.9716 126.405 64.9361 126.437L65.1354 126.661ZM65.3033 126.427L65.5791 126.545C65.6249 126.438 65.66 126.331 65.6828 126.223L65.3893 126.161L65.0958 126.099C65.0821 126.163 65.0599 126.233 65.0276 126.308L65.3033 126.427ZM65.3893 126.161L65.3913 126.461L66.5515 126.453L66.5494 126.153L66.5474 125.853L65.3873 125.861L65.3893 126.161ZM66.5494 126.153L66.25 126.135C66.2346 126.391 66.1624 126.609 66.0381 126.795L66.2877 126.962L66.5373 127.128C66.7255 126.846 66.8278 126.524 66.8489 126.171L66.5494 126.153ZM66.2877 126.962L66.0385 126.795C65.9075 126.99 65.7394 127.141 65.5309 127.251L65.6705 127.516L65.8101 127.782C66.1069 127.626 66.3503 127.407 66.5369 127.129L66.2877 126.962ZM65.6705 127.516L65.5309 127.251C65.3263 127.358 65.0967 127.412 64.8358 127.408L64.8307 127.708L64.8256 128.008C65.1793 128.014 65.5096 127.94 65.8101 127.782L65.6705 127.516ZM64.8307 127.708L64.8381 127.408C64.5638 127.401 64.3428 127.34 64.1647 127.237L64.0143 127.497L63.8639 127.756C64.1441 127.919 64.4674 127.999 64.8233 128.008L64.8307 127.708ZM64.0143 127.497L64.1634 127.237C63.9826 127.133 63.8463 126.99 63.7502 126.802L63.483 126.938L63.2159 127.075C63.3646 127.366 63.5825 127.595 63.8651 127.757L64.0143 127.497ZM63.483 126.938L63.7496 126.801C63.6562 126.62 63.6105 126.398 63.6263 126.123L63.3268 126.106L63.0273 126.089C63.0066 126.45 63.0651 126.783 63.2165 127.076L63.483 126.938ZM63.3268 126.106L63.6263 126.124C63.637 125.944 63.6803 125.787 63.7529 125.647L63.4869 125.509L63.221 125.37C63.1061 125.59 63.0426 125.831 63.0273 126.088L63.3268 126.106ZM63.4869 125.509L63.7521 125.649C63.8275 125.506 63.9263 125.385 64.0497 125.282L63.858 125.052L63.6664 124.821C63.4825 124.973 63.3338 125.157 63.2218 125.368L63.4869 125.509ZM63.858 125.052L64.0493 125.283C64.1728 125.18 64.3144 125.099 64.4765 125.04L64.3737 124.759L64.2708 124.477C64.0475 124.558 63.8454 124.673 63.6668 124.82L63.858 125.052ZM64.3737 124.759L64.4731 125.042C64.6324 124.986 64.8018 124.957 64.983 124.957V124.657V124.357C64.7372 124.357 64.5003 124.396 64.2742 124.476L64.3737 124.759ZM64.983 124.657L64.9815 124.957L65.7706 124.961L65.7721 124.661L65.7736 124.361L64.9845 124.357L64.983 124.657ZM65.7721 124.661L65.476 124.612L65.3706 125.257L65.6666 125.305L65.9627 125.354L66.0682 124.709L65.7721 124.661ZM65.819 124.372L65.5228 124.324L65.4212 124.953L65.7174 125.001L66.0136 125.049L66.1151 124.42L65.819 124.372ZM65.7174 125.001L65.7192 124.701L65.0473 124.697L65.0455 124.997L65.0438 125.297L65.7157 125.301L65.7174 125.001ZM65.0455 124.997L65.0562 124.697C64.8642 124.69 64.7001 124.658 64.5606 124.606L64.4557 124.887L64.3508 125.169C64.5602 125.247 64.7894 125.288 65.0348 125.297L65.0455 124.997ZM64.4557 124.887L64.5606 124.606C64.4233 124.555 64.3122 124.484 64.2225 124.394L64.0104 124.606L63.7982 124.818C63.9533 124.973 64.1392 125.09 64.3508 125.169L64.4557 124.887ZM64.0104 124.606L64.2203 124.392C64.1313 124.305 64.065 124.198 64.022 124.067L63.7369 124.161L63.4519 124.254C63.5234 124.472 63.6394 124.663 63.8005 124.821L64.0104 124.606ZM63.7369 124.161L64.0207 124.063C63.976 123.933 63.9548 123.773 63.9661 123.577L63.6666 123.559L63.3671 123.542C63.3524 123.799 63.3781 124.04 63.4532 124.258L63.7369 124.161ZM63.6666 123.559L63.9661 123.578C63.9794 123.36 64.0311 123.165 64.1185 122.99L63.8502 122.856L63.5819 122.722C63.4558 122.974 63.3851 123.248 63.3672 123.541L63.6666 123.559ZM63.8502 122.856L64.1179 122.992C64.207 122.816 64.3243 122.666 64.4707 122.541L64.276 122.313L64.0813 122.085C63.8735 122.262 63.707 122.475 63.5826 122.721L63.8502 122.856ZM64.276 122.313L64.4724 122.54C64.6175 122.414 64.7853 122.317 64.9783 122.248L64.8776 121.966L64.7769 121.683C64.5167 121.776 64.2835 121.91 64.0797 122.086L64.276 122.313ZM64.8776 121.966L64.9793 122.248C65.1663 122.18 65.369 122.148 65.5902 122.152L65.5963 121.852L65.6024 121.552C65.3132 121.546 65.0368 121.589 64.7758 121.683L64.8776 121.966ZM65.5963 121.852L65.5865 122.152C65.7927 122.159 65.9642 122.199 66.1066 122.265L66.233 121.993L66.3595 121.721C66.1321 121.615 65.879 121.561 65.6061 121.552L65.5963 121.852ZM66.233 121.993L66.1051 122.264C66.2499 122.333 66.3684 122.424 66.4645 122.538L66.694 122.344L66.9234 122.151C66.7695 121.968 66.5808 121.825 66.361 121.722L66.233 121.993ZM66.694 122.344L66.4609 122.533C66.558 122.653 66.6333 122.794 66.6852 122.958L66.9713 122.868L67.2574 122.778C67.1843 122.546 67.0747 122.338 66.9271 122.156L66.694 122.344ZM66.9713 122.868L66.6849 122.957C66.737 123.124 66.7618 123.305 66.7573 123.502L67.0573 123.509L67.3572 123.515C67.3631 123.259 67.3307 123.013 67.2577 122.779L66.9713 122.868ZM67.0573 123.509V123.209H65.901V123.509V123.809H67.0573V123.509ZM65.901 123.509L66.2009 123.5C66.1978 123.392 66.1856 123.279 66.1655 123.161L65.8698 123.212L65.574 123.262C65.5903 123.358 65.599 123.442 65.6011 123.517L65.901 123.509ZM65.8698 123.212L66.1653 123.16C66.1393 123.011 66.0815 122.874 65.9876 122.756L65.7526 122.942L65.5175 123.129C65.5434 123.161 65.5638 123.204 65.5742 123.263L65.8698 123.212ZM65.7526 122.942L65.9876 122.756C65.8603 122.595 65.6788 122.529 65.4936 122.525L65.4869 122.825L65.4803 123.125C65.5076 123.125 65.5187 123.13 65.5201 123.131C65.5208 123.131 65.5202 123.131 65.519 123.13C65.5177 123.129 65.5172 123.128 65.5175 123.129L65.7526 122.942ZM65.4869 122.825L65.4983 122.525C65.2967 122.518 65.1054 122.572 64.9472 122.704L65.1393 122.934L65.3313 123.165C65.3606 123.14 65.4012 123.122 65.4756 123.125L65.4869 122.825ZM65.1393 122.934L64.9503 122.701C64.8171 122.809 64.7139 122.944 64.6409 123.1L64.9127 123.227L65.1846 123.354C65.2209 123.276 65.2687 123.216 65.3282 123.167L65.1393 122.934ZM64.9127 123.227L64.6432 123.096C64.5727 123.24 64.526 123.389 64.5059 123.544L64.8033 123.583L65.1008 123.622C65.1119 123.537 65.1381 123.449 65.1822 123.359L64.9127 123.227ZM64.8033 123.583L64.5051 123.55C64.49 123.689 64.4884 123.828 64.5006 123.965L64.7994 123.938L65.0983 123.912C65.0896 123.815 65.0906 123.716 65.1016 123.615L64.8033 123.583ZM64.7994 123.938L64.5006 123.965C64.5153 124.13 64.5689 124.286 64.6716 124.419L64.9088 124.235L65.146 124.051C65.1238 124.023 65.1044 123.981 65.0983 123.912L64.7994 123.938ZM64.9088 124.235L64.6716 124.419C64.8073 124.594 65.011 124.657 65.2053 124.667L65.2213 124.368L65.2374 124.068C65.1897 124.066 65.1633 124.058 65.1512 124.053C65.141 124.048 65.1426 124.047 65.146 124.051L64.9088 124.235ZM65.2213 124.368L65.2194 124.668L65.817 124.672L65.819 124.372L65.8209 124.072L65.2233 124.068L65.2213 124.368Z" fill="#777511" mask="url(#path-4-outside-1_275_938)"/>
<g filter="url(#filter0_d_275_938)">
<ellipse cx="39.5295" cy="72.0437" rx="26.3529" ry="46.4963" fill="url(#paint3_linear_275_938)"/>
<ellipse cx="39.5295" cy="72.0437" rx="26.3529" ry="46.4963" stroke="#7C7A00"/>
</g>
<g filter="url(#filter1_d_275_938)">
<mask id="path-7-outside-2_275_938" maskUnits="userSpaceOnUse" x="28" y="54.613" width="23" height="32" fill="black">
<rect fill="white" x="28" y="54.613" width="23" height="32"/>
<path d="M36.2305 67.9529H39.2383C40.2018 67.9529 40.9961 67.7901 41.6211 67.4646C42.2461 67.1261 42.7083 66.6573 43.0078 66.0583C43.3203 65.4464 43.4766 64.7367 43.4766 63.9294C43.4766 63.2003 43.3333 62.5557 43.0469 61.9958C42.7734 61.4229 42.3503 60.9802 41.7773 60.6677C41.2044 60.3422 40.4818 60.1794 39.6094 60.1794C38.9193 60.1794 38.2812 60.3162 37.6953 60.5896C37.1094 60.863 36.6406 61.2472 36.2891 61.7419C35.9375 62.2367 35.7617 62.8357 35.7617 63.5388H30.1172C30.1172 61.9763 30.5339 60.6156 31.3672 59.4568C32.2135 58.2979 33.3464 57.393 34.7656 56.7419C36.1849 56.0909 37.7474 55.7654 39.4531 55.7654C41.3802 55.7654 43.0664 56.0779 44.5117 56.7029C45.957 57.3149 47.0833 58.2198 47.8906 59.4177C48.6979 60.6156 49.1016 62.1 49.1016 63.8708C49.1016 64.7693 48.8932 65.6417 48.4766 66.488C48.0599 67.3214 47.4609 68.0766 46.6797 68.7537C45.9115 69.4177 44.974 69.9516 43.8672 70.3552C42.7604 70.7458 41.5169 70.9412 40.1367 70.9412H36.2305V67.9529ZM36.2305 72.2302V69.3201H40.1367C41.6862 69.3201 43.0469 69.4958 44.2188 69.8474C45.3906 70.199 46.3737 70.7068 47.168 71.3708C47.9622 72.0219 48.5612 72.7966 48.9648 73.6951C49.3685 74.5805 49.5703 75.5636 49.5703 76.6443C49.5703 77.9724 49.3164 79.1573 48.8086 80.199C48.3008 81.2276 47.5846 82.1 46.6602 82.8162C45.7487 83.5323 44.681 84.0792 43.457 84.4568C42.2331 84.8214 40.8984 85.0037 39.4531 85.0037C38.2552 85.0037 37.0768 84.8409 35.918 84.5154C34.7721 84.1768 33.7305 83.6755 32.793 83.0115C31.8685 82.3344 31.1263 81.488 30.5664 80.4724C30.0195 79.4438 29.7461 78.2263 29.7461 76.8201H35.3906C35.3906 77.5492 35.5729 78.2003 35.9375 78.7732C36.3021 79.3461 36.8034 79.7953 37.4414 80.1208C38.0924 80.4464 38.8151 80.6091 39.6094 80.6091C40.5078 80.6091 41.276 80.4464 41.9141 80.1208C42.5651 79.7823 43.0599 79.3136 43.3984 78.7146C43.75 78.1026 43.9258 77.393 43.9258 76.5857C43.9258 75.544 43.737 74.7107 43.3594 74.0857C42.9818 73.4477 42.4414 72.9789 41.7383 72.6794C41.0352 72.38 40.2018 72.2302 39.2383 72.2302H36.2305Z"/>
</mask>
<path d="M36.2305 67.9529H39.2383C40.2018 67.9529 40.9961 67.7901 41.6211 67.4646C42.2461 67.1261 42.7083 66.6573 43.0078 66.0583C43.3203 65.4464 43.4766 64.7367 43.4766 63.9294C43.4766 63.2003 43.3333 62.5557 43.0469 61.9958C42.7734 61.4229 42.3503 60.9802 41.7773 60.6677C41.2044 60.3422 40.4818 60.1794 39.6094 60.1794C38.9193 60.1794 38.2812 60.3162 37.6953 60.5896C37.1094 60.863 36.6406 61.2472 36.2891 61.7419C35.9375 62.2367 35.7617 62.8357 35.7617 63.5388H30.1172C30.1172 61.9763 30.5339 60.6156 31.3672 59.4568C32.2135 58.2979 33.3464 57.393 34.7656 56.7419C36.1849 56.0909 37.7474 55.7654 39.4531 55.7654C41.3802 55.7654 43.0664 56.0779 44.5117 56.7029C45.957 57.3149 47.0833 58.2198 47.8906 59.4177C48.6979 60.6156 49.1016 62.1 49.1016 63.8708C49.1016 64.7693 48.8932 65.6417 48.4766 66.488C48.0599 67.3214 47.4609 68.0766 46.6797 68.7537C45.9115 69.4177 44.974 69.9516 43.8672 70.3552C42.7604 70.7458 41.5169 70.9412 40.1367 70.9412H36.2305V67.9529ZM36.2305 72.2302V69.3201H40.1367C41.6862 69.3201 43.0469 69.4958 44.2188 69.8474C45.3906 70.199 46.3737 70.7068 47.168 71.3708C47.9622 72.0219 48.5612 72.7966 48.9648 73.6951C49.3685 74.5805 49.5703 75.5636 49.5703 76.6443C49.5703 77.9724 49.3164 79.1573 48.8086 80.199C48.3008 81.2276 47.5846 82.1 46.6602 82.8162C45.7487 83.5323 44.681 84.0792 43.457 84.4568C42.2331 84.8214 40.8984 85.0037 39.4531 85.0037C38.2552 85.0037 37.0768 84.8409 35.918 84.5154C34.7721 84.1768 33.7305 83.6755 32.793 83.0115C31.8685 82.3344 31.1263 81.488 30.5664 80.4724C30.0195 79.4438 29.7461 78.2263 29.7461 76.8201H35.3906C35.3906 77.5492 35.5729 78.2003 35.9375 78.7732C36.3021 79.3461 36.8034 79.7953 37.4414 80.1208C38.0924 80.4464 38.8151 80.6091 39.6094 80.6091C40.5078 80.6091 41.276 80.4464 41.9141 80.1208C42.5651 79.7823 43.0599 79.3136 43.3984 78.7146C43.75 78.1026 43.9258 77.393 43.9258 76.5857C43.9258 75.544 43.737 74.7107 43.3594 74.0857C42.9818 73.4477 42.4414 72.9789 41.7383 72.6794C41.0352 72.38 40.2018 72.2302 39.2383 72.2302H36.2305Z" fill="#D4D014"/>
<path d="M36.2305 67.9529V66.9529H35.2305V67.9529H36.2305ZM41.6211 67.4646L42.083 68.3515L42.0902 68.3478L42.0974 68.3439L41.6211 67.4646ZM43.0078 66.0583L42.1172 65.6036L42.1134 65.6111L43.0078 66.0583ZM43.0469 61.9958L42.1444 62.4266L42.1503 62.439L42.1566 62.4513L43.0469 61.9958ZM41.7773 60.6677L41.2833 61.5372L41.2909 61.5415L41.2985 61.5456L41.7773 60.6677ZM35.7617 63.5388V64.5388H36.7617V63.5388H35.7617ZM30.1172 63.5388H29.1172V64.5388H30.1172V63.5388ZM31.3672 59.4568L30.5596 58.867L30.5553 58.873L31.3672 59.4568ZM44.5117 56.7029L44.1148 57.6208L44.1218 57.6237L44.5117 56.7029ZM47.8906 59.4177L48.7199 58.8589L47.8906 59.4177ZM48.4766 66.488L49.371 66.9353L49.3737 66.9297L48.4766 66.488ZM46.6797 68.7537L47.3336 69.5102L47.3346 69.5093L46.6797 68.7537ZM43.8672 70.3552L44.2 71.2983L44.2098 71.2947L43.8672 70.3552ZM36.2305 70.9412H35.2305V71.9412H36.2305V70.9412ZM36.2305 72.2302H35.2305V73.2302H36.2305V72.2302ZM36.2305 69.3201V68.3201H35.2305V69.3201H36.2305ZM47.168 71.3708L46.5265 72.1381L46.534 72.1442L47.168 71.3708ZM48.9648 73.6951L48.0527 74.1049L48.0549 74.1099L48.9648 73.6951ZM48.8086 80.199L49.7053 80.6416L49.7075 80.6372L48.8086 80.199ZM46.6602 82.8162L46.0477 82.0256L46.0423 82.0298L46.6602 82.8162ZM43.457 84.4568L43.7425 85.4152L43.7518 85.4123L43.457 84.4568ZM35.918 84.5154L35.6346 85.4745L35.6475 85.4781L35.918 84.5154ZM32.793 83.0115L32.2021 83.8182L32.2085 83.8229L32.215 83.8275L32.793 83.0115ZM30.5664 80.4724L29.6834 80.9418L29.687 80.9485L29.6907 80.9552L30.5664 80.4724ZM29.7461 76.8201V75.8201H28.7461V76.8201H29.7461ZM35.3906 76.8201H36.3906V75.8201H35.3906V76.8201ZM37.4414 80.1208L36.9869 81.0116L36.9942 81.0153L37.4414 80.1208ZM41.9141 80.1208L42.3685 81.0116L42.3754 81.0081L41.9141 80.1208ZM43.3984 78.7146L42.5313 78.2165L42.5279 78.2225L43.3984 78.7146ZM43.3594 74.0857L42.4988 74.595L42.5035 74.6028L43.3594 74.0857ZM36.2305 67.9529V68.9529H39.2383V67.9529V66.9529H36.2305V67.9529ZM39.2383 67.9529V68.9529C40.3065 68.9529 41.2728 68.7735 42.083 68.3515L41.6211 67.4646L41.1592 66.5777C40.7194 66.8067 40.0971 66.9529 39.2383 66.9529V67.9529ZM41.6211 67.4646L42.0974 68.3439C42.8911 67.914 43.5052 67.2996 43.9022 66.5056L43.0078 66.0583L42.1134 65.6111C41.9114 66.015 41.6011 66.3381 41.1448 66.5853L41.6211 67.4646ZM43.0078 66.0583L43.8984 66.5131C44.2944 65.7377 44.4766 64.8673 44.4766 63.9294H43.4766H42.4766C42.4766 64.6062 42.3462 65.1551 42.1172 65.6036L43.0078 66.0583ZM43.4766 63.9294H44.4766C44.4766 63.0672 44.3064 62.2622 43.9371 61.5404L43.0469 61.9958L42.1566 62.4513C42.3603 62.8493 42.4766 63.3334 42.4766 63.9294H43.4766ZM43.0469 61.9958L43.9494 61.5651C43.5826 60.7967 43.0083 60.2001 42.2562 59.7898L41.7773 60.6677L41.2985 61.5456C41.6922 61.7604 41.9643 62.0492 42.1444 62.4266L43.0469 61.9958ZM41.7773 60.6677L42.2714 59.7983C41.5068 59.3639 40.6007 59.1794 39.6094 59.1794V60.1794V61.1794C40.3629 61.1794 40.9021 61.3206 41.2833 61.5372L41.7773 60.6677ZM39.6094 60.1794V59.1794C38.7832 59.1794 37.9996 59.3441 37.2724 59.6834L37.6953 60.5896L38.1182 61.4958C38.5629 61.2882 39.0554 61.1794 39.6094 61.1794V60.1794ZM37.6953 60.5896L37.2724 59.6834C36.5402 60.0251 35.9323 60.5176 35.4739 61.1627L36.2891 61.7419L37.1042 62.3212C37.349 61.9767 37.6785 61.701 38.1182 61.4958L37.6953 60.5896ZM36.2891 61.7419L35.4739 61.1627C34.9838 61.8525 34.7617 62.6621 34.7617 63.5388H35.7617H36.7617C36.7617 63.0093 36.8912 62.621 37.1042 62.3212L36.2891 61.7419ZM35.7617 63.5388V62.5388H30.1172V63.5388V64.5388H35.7617V63.5388ZM30.1172 63.5388H31.1172C31.1172 62.165 31.4797 61.0132 32.1791 60.0406L31.3672 59.4568L30.5553 58.873C29.588 60.2181 29.1172 61.7877 29.1172 63.5388H30.1172ZM31.3672 59.4568L32.1747 60.0466C32.9116 59.0377 33.9046 58.2371 35.1826 57.6509L34.7656 56.7419L34.3487 55.833C32.7881 56.5489 31.5155 57.5582 30.5596 58.867L31.3672 59.4568ZM34.7656 56.7419L35.1826 57.6509C36.4593 57.0652 37.8779 56.7654 39.4531 56.7654V55.7654V54.7654C37.6169 54.7654 35.9105 55.1166 34.3487 55.833L34.7656 56.7419ZM39.4531 55.7654V56.7654C41.2735 56.7654 42.8195 57.0606 44.1148 57.6207L44.5117 56.7029L44.9086 55.785C43.3133 55.0951 41.487 54.7654 39.4531 54.7654V55.7654ZM44.5117 56.7029L44.1218 57.6237C45.4048 58.167 46.3717 58.9533 47.0614 59.9766L47.8906 59.4177L48.7199 58.8589C47.7949 57.4864 46.5093 56.4627 44.9016 55.782L44.5117 56.7029ZM47.8906 59.4177L47.0614 59.9766C47.7344 60.9754 48.1016 62.2538 48.1016 63.8708H49.1016H50.1016C50.1016 61.9463 49.6614 60.2559 48.7199 58.8589L47.8906 59.4177ZM49.1016 63.8708H48.1016C48.1016 64.6084 47.9319 65.3304 47.5794 66.0464L48.4766 66.488L49.3737 66.9297C49.8546 65.953 50.1016 64.9301 50.1016 63.8708H49.1016ZM48.4766 66.488L47.5821 66.0408C47.2304 66.7443 46.7176 67.3975 46.0248 67.998L46.6797 68.7537L47.3346 69.5093C48.2043 68.7556 48.8894 67.8984 49.371 66.9352L48.4766 66.488ZM46.6797 68.7537L46.0257 67.9971C45.3628 68.5702 44.5353 69.0471 43.5246 69.4158L43.8672 70.3552L44.2098 71.2947C45.4126 70.856 46.4602 70.2652 47.3336 69.5102L46.6797 68.7537ZM43.8672 70.3552L43.5344 69.4122C42.5515 69.7591 41.423 69.9412 40.1367 69.9412V70.9412V71.9412C41.6108 71.9412 42.9694 71.7326 44.2 71.2982L43.8672 70.3552ZM40.1367 70.9412V69.9412H36.2305V70.9412V71.9412H40.1367V70.9412ZM36.2305 70.9412H37.2305V67.9529H36.2305H35.2305V70.9412H36.2305ZM36.2305 72.2302H37.2305V69.3201H36.2305H35.2305V72.2302H36.2305ZM36.2305 69.3201V70.3201H40.1367V69.3201V68.3201H36.2305V69.3201ZM40.1367 69.3201V70.3201C41.6135 70.3201 42.8737 70.4879 43.9314 70.8052L44.2188 69.8474L44.5061 68.8896C43.22 68.5038 41.7589 68.3201 40.1367 68.3201V69.3201ZM44.2188 69.8474L43.9314 70.8052C44.9968 71.1249 45.8533 71.5751 46.5266 72.138L47.168 71.3708L47.8094 70.6037C46.8941 69.8384 45.7845 69.2731 44.5061 68.8896L44.2188 69.8474ZM47.168 71.3708L46.534 72.1442C47.214 72.7015 47.7151 73.3536 48.0527 74.1049L48.9648 73.6951L49.877 73.2853C49.4073 72.2397 48.7105 71.3422 47.8019 70.5975L47.168 71.3708ZM48.9648 73.6951L48.0549 74.1099C48.3929 74.8513 48.5703 75.6907 48.5703 76.6443H49.5703H50.5703C50.5703 75.4364 50.344 74.3097 49.8748 73.2803L48.9648 73.6951ZM49.5703 76.6443H48.5703C48.5703 77.8428 48.3419 78.8743 47.9097 79.7608L48.8086 80.199L49.7075 80.6372C50.2909 79.4404 50.5703 78.102 50.5703 76.6443H49.5703ZM48.8086 80.199L47.9119 79.7563C47.4726 80.6462 46.8547 81.4005 46.0478 82.0256L46.6602 82.8162L47.2726 83.6067C48.3145 82.7995 49.129 81.809 49.7053 80.6416L48.8086 80.199ZM46.6602 82.8162L46.0423 82.0298C45.2369 82.6627 44.2813 83.156 43.1622 83.5012L43.457 84.4568L43.7518 85.4123C45.0806 85.0024 46.2605 84.4019 47.278 83.6025L46.6602 82.8162ZM43.457 84.4568L43.1716 83.4984C42.0515 83.832 40.8143 84.0037 39.4531 84.0037V85.0037V86.0037C40.9826 86.0037 42.4146 85.8107 43.7425 85.4152L43.457 84.4568ZM39.4531 85.0037V84.0037C38.3471 84.0037 37.2597 83.8536 36.1884 83.5526L35.918 84.5154L35.6475 85.4781C36.894 85.8282 38.1633 86.0037 39.4531 86.0037V85.0037ZM35.918 84.5154L36.2013 83.5564C35.1566 83.2477 34.2152 82.7935 33.371 82.1954L32.793 83.0115L32.215 83.8275C33.2457 84.5576 34.3876 85.106 35.6346 85.4744L35.918 84.5154ZM32.793 83.0115L33.3838 82.2047C32.5782 81.6147 31.9327 80.8794 31.4421 79.9896L30.5664 80.4724L29.6907 80.9552C30.3199 82.0967 31.1588 83.0541 32.2021 83.8182L32.793 83.0115ZM30.5664 80.4724L31.4494 80.003C30.9937 79.1459 30.7461 78.0963 30.7461 76.8201H29.7461H28.7461C28.7461 78.3564 29.0453 79.7416 29.6834 80.9418L30.5664 80.4724ZM29.7461 76.8201V77.8201H35.3906V76.8201V75.8201H29.7461V76.8201ZM35.3906 76.8201H34.3906C34.3906 77.7248 34.6196 78.5648 35.0938 79.3101L35.9375 78.7732L36.7812 78.2363C36.5263 77.8358 36.3906 77.3737 36.3906 76.8201H35.3906ZM35.9375 78.7732L35.0938 79.3101C35.5596 80.0419 36.199 80.6096 36.9869 81.0116L37.4414 80.1208L37.8959 79.2301C37.4078 78.9811 37.0446 78.6503 36.7812 78.2363L35.9375 78.7732ZM37.4414 80.1208L36.9942 81.0153C37.7964 81.4164 38.6743 81.6091 39.6094 81.6091V80.6091V79.6091C38.9559 79.6091 38.3885 79.4763 37.8886 79.2264L37.4414 80.1208ZM39.6094 80.6091V81.6091C40.6265 81.6091 41.5585 81.4249 42.3685 81.0116L41.9141 80.1208L41.4596 79.2301C40.9935 79.4679 40.3891 79.6091 39.6094 79.6091V80.6091ZM41.9141 80.1208L42.3754 81.0081C43.1863 80.5864 43.8288 79.9856 44.269 79.2067L43.3984 78.7146L42.5279 78.2225C42.291 78.6416 41.9439 78.9782 41.4527 79.2336L41.9141 80.1208ZM43.3984 78.7146L44.2655 79.2127C44.7161 78.4285 44.9258 77.5423 44.9258 76.5857H43.9258H42.9258C42.9258 77.2437 42.7839 77.7768 42.5313 78.2165L43.3984 78.7146ZM43.9258 76.5857H44.9258C44.9258 75.4354 44.7191 74.4025 44.2153 73.5686L43.3594 74.0857L42.5035 74.6028C42.7549 75.0189 42.9258 75.6527 42.9258 76.5857H43.9258ZM43.3594 74.0857L44.22 73.5764C43.7303 72.7491 43.0228 72.1396 42.1301 71.7594L41.7383 72.6794L41.3464 73.5995C41.86 73.8182 42.2332 74.1463 42.4988 74.595L43.3594 74.0857ZM41.7383 72.6794L42.1301 71.7594C41.2753 71.3953 40.3026 71.2302 39.2383 71.2302V72.2302V73.2302C40.101 73.2302 40.795 73.3646 41.3464 73.5995L41.7383 72.6794ZM39.2383 72.2302V71.2302H36.2305V72.2302V73.2302H39.2383V72.2302Z" fill="black" mask="url(#path-7-outside-2_275_938)"/>
</g>
<path d="M13.7055 5.22167C15.1993 5.44972 16.4638 6.58097 17.2847 8.2892C18.1045 9.99542 18.4643 12.2494 18.1544 14.6439C17.8445 17.0384 16.9264 19.0973 15.7051 20.4921C14.4824 21.8885 12.9798 22.5975 11.4859 22.3696C9.9919 22.1417 8.72663 21.0103 7.90576 19.3019C7.086 17.5957 6.7261 15.3416 7.03602 12.9473C7.34596 10.5529 8.26412 8.49383 9.48529 7.09906C10.7081 5.70252 12.2115 4.99369 13.7055 5.22167Z" fill="url(#paint4_linear_275_938)" stroke="#696969" stroke-width="0.5"/>
<mask id="path-10-outside-3_275_938" maskUnits="userSpaceOnUse" x="10.2354" y="9.13135" width="5" height="8" fill="black">
<rect fill="white" x="10.2354" y="9.13135" width="5" height="8"/>
<path d="M12.2138 12.7603L12.702 12.7642C12.8531 12.7616 12.9742 12.7225 13.0653 12.647C13.1591 12.5715 13.2294 12.4738 13.2763 12.354C13.3257 12.2342 13.357 12.1079 13.37 11.9751C13.3804 11.8892 13.3778 11.7954 13.3622 11.6938C13.3492 11.5897 13.3153 11.5011 13.2606 11.4282C13.2085 11.3553 13.1265 11.3175 13.0145 11.3149C12.9052 11.3123 12.8153 11.3423 12.745 11.4048C12.6747 11.4673 12.6187 11.5454 12.577 11.6392C12.538 11.7303 12.5093 11.8188 12.4911 11.9048L11.3309 11.9126C11.3492 11.6079 11.4364 11.3384 11.5927 11.104C11.7515 10.867 11.9572 10.6821 12.2098 10.5493C12.4625 10.4165 12.7424 10.3527 13.0497 10.3579C13.3648 10.3657 13.6369 10.436 13.8661 10.5688C14.0979 10.7017 14.275 10.8879 14.3973 11.1274C14.5197 11.3644 14.5718 11.6418 14.5536 11.9595C14.5406 12.1782 14.4872 12.3774 14.3934 12.5571C14.2997 12.7342 14.176 12.8866 14.0223 13.0142C13.8713 13.1392 13.6994 13.2368 13.5067 13.3071C13.314 13.3748 13.1109 13.4087 12.8973 13.4087L12.1083 13.4048L12.2138 12.7603ZM12.0614 13.6938L12.163 13.0649L12.8348 13.0688C13.0536 13.0767 13.2502 13.1131 13.4247 13.1782C13.5992 13.2433 13.7476 13.3371 13.87 13.4595C13.995 13.5819 14.0861 13.7303 14.1434 13.9048C14.2033 14.0793 14.2268 14.2798 14.2138 14.5063C14.1981 14.7616 14.1369 14.9959 14.0302 15.2095C13.9234 15.4204 13.7815 15.6014 13.6044 15.7524C13.4299 15.9035 13.2294 16.0194 13.0028 16.1001C12.7789 16.1808 12.5393 16.2186 12.2841 16.2134C12.0445 16.2056 11.8322 16.1587 11.6473 16.0728C11.4651 15.9868 11.3114 15.8696 11.1864 15.7212C11.064 15.5701 10.9716 15.3957 10.9091 15.1978C10.8466 14.9972 10.8179 14.7837 10.8231 14.5571H11.9794C11.982 14.6483 11.9924 14.7472 12.0106 14.854C12.0289 14.9582 12.0679 15.048 12.1278 15.1235C12.1877 15.1991 12.2763 15.2381 12.3934 15.2407C12.5315 15.2459 12.6473 15.2095 12.7411 15.1313C12.8375 15.0532 12.913 14.9556 12.9677 14.8384C13.025 14.7212 13.0614 14.6027 13.077 14.4829C13.0901 14.3631 13.0914 14.2446 13.0809 14.1274C13.0705 14.0103 13.0341 13.9113 12.9716 13.8306C12.9091 13.7498 12.8049 13.7056 12.6591 13.6978L12.0614 13.6938Z"/>
</mask>
<path d="M12.2138 12.7603L12.702 12.7642C12.8531 12.7616 12.9742 12.7225 13.0653 12.647C13.1591 12.5715 13.2294 12.4738 13.2763 12.354C13.3257 12.2342 13.357 12.1079 13.37 11.9751C13.3804 11.8892 13.3778 11.7954 13.3622 11.6938C13.3492 11.5897 13.3153 11.5011 13.2606 11.4282C13.2085 11.3553 13.1265 11.3175 13.0145 11.3149C12.9052 11.3123 12.8153 11.3423 12.745 11.4048C12.6747 11.4673 12.6187 11.5454 12.577 11.6392C12.538 11.7303 12.5093 11.8188 12.4911 11.9048L11.3309 11.9126C11.3492 11.6079 11.4364 11.3384 11.5927 11.104C11.7515 10.867 11.9572 10.6821 12.2098 10.5493C12.4625 10.4165 12.7424 10.3527 13.0497 10.3579C13.3648 10.3657 13.6369 10.436 13.8661 10.5688C14.0979 10.7017 14.275 10.8879 14.3973 11.1274C14.5197 11.3644 14.5718 11.6418 14.5536 11.9595C14.5406 12.1782 14.4872 12.3774 14.3934 12.5571C14.2997 12.7342 14.176 12.8866 14.0223 13.0142C13.8713 13.1392 13.6994 13.2368 13.5067 13.3071C13.314 13.3748 13.1109 13.4087 12.8973 13.4087L12.1083 13.4048L12.2138 12.7603ZM12.0614 13.6938L12.163 13.0649L12.8348 13.0688C13.0536 13.0767 13.2502 13.1131 13.4247 13.1782C13.5992 13.2433 13.7476 13.3371 13.87 13.4595C13.995 13.5819 14.0861 13.7303 14.1434 13.9048C14.2033 14.0793 14.2268 14.2798 14.2138 14.5063C14.1981 14.7616 14.1369 14.9959 14.0302 15.2095C13.9234 15.4204 13.7815 15.6014 13.6044 15.7524C13.4299 15.9035 13.2294 16.0194 13.0028 16.1001C12.7789 16.1808 12.5393 16.2186 12.2841 16.2134C12.0445 16.2056 11.8322 16.1587 11.6473 16.0728C11.4651 15.9868 11.3114 15.8696 11.1864 15.7212C11.064 15.5701 10.9716 15.3957 10.9091 15.1978C10.8466 14.9972 10.8179 14.7837 10.8231 14.5571H11.9794C11.982 14.6483 11.9924 14.7472 12.0106 14.854C12.0289 14.9582 12.0679 15.048 12.1278 15.1235C12.1877 15.1991 12.2763 15.2381 12.3934 15.2407C12.5315 15.2459 12.6473 15.2095 12.7411 15.1313C12.8375 15.0532 12.913 14.9556 12.9677 14.8384C13.025 14.7212 13.0614 14.6027 13.077 14.4829C13.0901 14.3631 13.0914 14.2446 13.0809 14.1274C13.0705 14.0103 13.0341 13.9113 12.9716 13.8306C12.9091 13.7498 12.8049 13.7056 12.6591 13.6978L12.0614 13.6938Z" fill="url(#paint5_linear_275_938)"/>
<path d="M12.2138 12.7603L12.2162 12.4603L11.9592 12.4582L11.9177 12.7118L12.2138 12.7603ZM12.702 12.7642L12.6996 13.0642L12.7072 13.0641L12.702 12.7642ZM13.0653 12.647L12.8771 12.4133L12.8739 12.416L13.0653 12.647ZM13.2763 12.354L12.9989 12.2395L12.9969 12.2447L13.2763 12.354ZM13.37 11.9751L13.0721 11.939L13.0714 11.9458L13.37 11.9751ZM13.3622 11.6938L13.0644 11.7311L13.0657 11.7395L13.3622 11.6938ZM13.2606 11.4282L13.0164 11.6026L13.0206 11.6082L13.2606 11.4282ZM13.0145 11.3149L13.0074 11.6149L13.0076 11.6149L13.0145 11.3149ZM12.577 11.6392L12.3029 11.5173L12.3013 11.521L12.577 11.6392ZM12.4911 11.9048L12.4931 12.2048L12.7345 12.2032L12.7846 11.967L12.4911 11.9048ZM11.3309 11.9126L11.0315 11.8947L11.0123 12.2148L11.333 12.2126L11.3309 11.9126ZM11.5927 11.104L11.3435 10.937L11.343 10.9376L11.5927 11.104ZM13.0497 10.3579L13.0571 10.058L13.0548 10.058L13.0497 10.3579ZM13.8661 10.5688L13.7157 10.8284L13.7169 10.8291L13.8661 10.5688ZM14.3973 11.1274L14.1302 11.2639L14.1308 11.2651L14.3973 11.1274ZM14.5536 11.9595L14.8531 11.9773L14.8531 11.9767L14.5536 11.9595ZM14.3934 12.5571L14.6586 12.6975L14.6594 12.6959L14.3934 12.5571ZM14.0223 13.0142L14.2136 13.2453L14.214 13.2449L14.0223 13.0142ZM13.5067 13.3071L13.6062 13.5902L13.6096 13.589L13.5067 13.3071ZM12.8973 13.4087L12.8959 13.7087H12.8973V13.4087ZM12.1083 13.4048L11.8122 13.3563L11.7555 13.703L12.1068 13.7048L12.1083 13.4048ZM12.0614 13.6938L11.7652 13.646L11.7094 13.9916L12.0594 13.9938L12.0614 13.6938ZM12.163 13.0649L12.1647 12.7649L11.9078 12.7635L11.8668 13.0171L12.163 13.0649ZM12.8348 13.0688L12.8456 12.7689L12.8366 12.7689L12.8348 13.0688ZM13.87 13.4595L13.6579 13.6716L13.6601 13.6738L13.87 13.4595ZM14.1434 13.9048L13.8584 13.9984L13.8597 14.0022L14.1434 13.9048ZM14.2138 14.5063L14.5132 14.5247L14.5133 14.5236L14.2138 14.5063ZM14.0302 15.2095L14.2978 15.345L14.2985 15.3436L14.0302 15.2095ZM13.6044 15.7524L13.4097 15.5242L13.408 15.5256L13.6044 15.7524ZM13.0028 16.1001L12.9021 15.8175L12.9011 15.8179L13.0028 16.1001ZM12.2841 16.2134L12.2743 16.5132L12.2779 16.5133L12.2841 16.2134ZM11.6473 16.0728L11.5194 16.3441L11.5209 16.3448L11.6473 16.0728ZM11.1864 15.7212L10.9533 15.9101L10.9569 15.9144L11.1864 15.7212ZM10.9091 15.1978L10.6227 15.287L10.623 15.2881L10.9091 15.1978ZM10.8231 14.5571V14.2571H10.5299L10.5232 14.5502L10.8231 14.5571ZM11.9794 14.5571L12.2793 14.5486L12.2709 14.2571H11.9794V14.5571ZM12.0106 14.854L11.7149 14.9045L11.7151 14.9057L12.0106 14.854ZM12.1278 15.1235L12.3629 14.9371L12.1278 15.1235ZM12.3934 15.2407L12.4048 14.9409L12.4001 14.9408L12.3934 15.2407ZM12.7411 15.1313L12.5521 14.8983L12.549 14.9009L12.7411 15.1313ZM12.9677 14.8384L12.6981 14.7066L12.6958 14.7115L12.9677 14.8384ZM13.077 14.4829L13.3746 14.5217L13.3753 14.5153L13.077 14.4829ZM12.6591 13.6978L12.6751 13.3979L12.661 13.3978L12.6591 13.6978ZM12.2138 12.7603L12.2114 13.0602L12.6996 13.0642L12.702 12.7642L12.7044 12.4642L12.2162 12.4603L12.2138 12.7603ZM12.702 12.7642L12.7072 13.0641C12.9072 13.0607 13.1001 13.0078 13.2567 12.878L13.0653 12.647L12.8739 12.416C12.8483 12.4372 12.7989 12.4624 12.6969 12.4642L12.702 12.7642ZM13.0653 12.647L13.2535 12.8806C13.3908 12.77 13.4911 12.6283 13.5556 12.4633L13.2763 12.354L12.9969 12.2447C12.9677 12.3193 12.9274 12.3729 12.8771 12.4133L13.0653 12.647ZM13.2763 12.354L13.5535 12.4685C13.6146 12.3207 13.6528 12.1656 13.6686 12.0044L13.37 11.9751L13.0714 11.9458C13.0612 12.0502 13.0369 12.1477 12.999 12.2395L13.2763 12.354ZM13.37 11.9751L13.6678 12.0112C13.6821 11.8936 13.6777 11.772 13.6587 11.6482L13.3622 11.6938L13.0657 11.7395C13.0779 11.8189 13.0788 11.8847 13.0722 11.939L13.37 11.9751ZM13.3622 11.6938L13.6599 11.6566C13.6414 11.5086 13.5911 11.3689 13.5006 11.2482L13.2606 11.4282L13.0206 11.6082C13.0395 11.6334 13.057 11.6707 13.0645 11.7311L13.3622 11.6938ZM13.2606 11.4282L13.5047 11.2539C13.3842 11.085 13.2017 11.0192 13.0215 11.015L13.0145 11.3149L13.0076 11.6149C13.0322 11.6154 13.0386 11.6196 13.0346 11.6177C13.0325 11.6168 13.029 11.6148 13.025 11.6115C13.021 11.6082 13.0182 11.6049 13.0165 11.6026L13.2606 11.4282ZM13.0145 11.3149L13.0217 11.015C12.8496 11.0109 12.6819 11.0595 12.5457 11.1806L12.745 11.4048L12.9443 11.629C12.9487 11.6251 12.9607 11.6137 13.0074 11.6149L13.0145 11.3149ZM12.745 11.4048L12.5457 11.1806C12.4406 11.274 12.3603 11.3881 12.3029 11.5173L12.577 11.6392L12.8512 11.761C12.8771 11.7027 12.9088 11.6606 12.9443 11.629L12.745 11.4048ZM12.577 11.6392L12.3013 11.521C12.2555 11.6279 12.2204 11.7352 12.1976 11.8425L12.4911 11.9048L12.7846 11.967C12.7982 11.9025 12.8205 11.8327 12.8528 11.7573L12.577 11.6392ZM12.4911 11.9048L12.4891 11.6048L11.3289 11.6126L11.3309 11.9126L11.333 12.2126L12.4931 12.2048L12.4911 11.9048ZM11.3309 11.9126L11.6304 11.9305C11.6457 11.6743 11.7179 11.4569 11.8423 11.2704L11.5927 11.104L11.343 10.9376C11.1549 11.2198 11.0526 11.5415 11.0315 11.8947L11.3309 11.9126ZM11.5927 11.104L11.8419 11.271C11.9729 11.0755 12.141 10.9245 12.3495 10.8149L12.2098 10.5493L12.0702 10.2838C11.7735 10.4398 11.5301 10.6585 11.3435 10.937L11.5927 11.104ZM12.2098 10.5493L12.3495 10.8149C12.5541 10.7073 12.7837 10.6534 13.0446 10.6579L13.0497 10.3579L13.0548 10.058C12.7011 10.052 12.3708 10.1257 12.0702 10.2838L12.2098 10.5493ZM13.0497 10.3579L13.0423 10.6578C13.3166 10.6646 13.5376 10.7252 13.7157 10.8284L13.8661 10.5688L14.0165 10.3093C13.7363 10.1469 13.413 10.0668 13.0571 10.058L13.0497 10.3579ZM13.8661 10.5688L13.7169 10.8291C13.8978 10.9328 14.0341 11.0758 14.1302 11.2639L14.3973 11.1274L14.6645 10.991C14.5158 10.6999 14.2979 10.4705 14.0153 10.3086L13.8661 10.5688ZM14.3973 11.1274L14.1308 11.2651C14.2242 11.4459 14.2698 11.6678 14.2541 11.9423L14.5536 11.9595L14.8531 11.9767C14.8738 11.6157 14.8153 11.283 14.6639 10.9898L14.3973 11.1274ZM14.5536 11.9595L14.2541 11.9416C14.2434 12.1216 14.2001 12.2791 14.1275 12.4184L14.3934 12.5571L14.6594 12.6959C14.7743 12.4757 14.8377 12.2348 14.8531 11.9773L14.5536 11.9595ZM14.3934 12.5571L14.1283 12.4168C14.0528 12.5593 13.9541 12.6809 13.8307 12.7834L14.0223 13.0142L14.214 13.2449C14.3979 13.0922 14.5465 12.9091 14.6586 12.6975L14.3934 12.5571ZM14.0223 13.0142L13.8311 12.783C13.7076 12.8852 13.5659 12.9662 13.4039 13.0253L13.5067 13.3071L13.6096 13.589C13.8329 13.5075 14.035 13.3931 14.2136 13.2453L14.0223 13.0142ZM13.5067 13.3071L13.4073 13.0241C13.248 13.0801 13.0786 13.1087 12.8973 13.1087V13.4087V13.7087C13.1432 13.7087 13.3801 13.6696 13.6062 13.5902L13.5067 13.3071ZM12.8973 13.4087L12.8988 13.1087L12.1098 13.1048L12.1083 13.4048L12.1068 13.7048L12.8959 13.7087L12.8973 13.4087ZM12.1083 13.4048L12.4043 13.4532L12.5098 12.8087L12.2138 12.7603L11.9177 12.7118L11.8122 13.3563L12.1083 13.4048ZM12.0614 13.6938L12.3576 13.7417L12.4591 13.1128L12.163 13.0649L11.8668 13.0171L11.7652 13.646L12.0614 13.6938ZM12.163 13.0649L12.1612 13.3649L12.8331 13.3688L12.8348 13.0688L12.8366 12.7689L12.1647 12.7649L12.163 13.0649ZM12.8348 13.0688L12.8241 13.3687C13.0162 13.3755 13.1803 13.4072 13.3198 13.4593L13.4247 13.1782L13.5296 12.8972C13.3201 12.819 13.091 12.7778 12.8456 12.769L12.8348 13.0688ZM13.4247 13.1782L13.3198 13.4593C13.4571 13.5105 13.5681 13.5819 13.6579 13.6716L13.87 13.4595L14.0821 13.2473C13.9271 13.0923 13.7412 12.9761 13.5296 12.8972L13.4247 13.1782ZM13.87 13.4595L13.6601 13.6738C13.749 13.7609 13.8154 13.8672 13.8584 13.9984L14.1434 13.9048L14.4285 13.8112C14.3569 13.5934 14.241 13.4028 14.0799 13.2451L13.87 13.4595ZM14.1434 13.9048L13.8597 14.0022C13.9044 14.1324 13.9255 14.2928 13.9142 14.4891L14.2138 14.5063L14.5133 14.5236C14.528 14.2668 14.5023 14.0261 14.4272 13.8074L14.1434 13.9048ZM14.2138 14.5063L13.9143 14.488C13.901 14.7058 13.8493 14.9004 13.7618 15.0753L14.0302 15.2095L14.2985 15.3436C14.4246 15.0915 14.4953 14.8173 14.5132 14.5247L14.2138 14.5063ZM14.0302 15.2095L13.7625 15.074C13.6734 15.25 13.5561 15.3993 13.4097 15.5242L13.6044 15.7524L13.7991 15.9807C14.0069 15.8035 14.1734 15.5908 14.2978 15.345L14.0302 15.2095ZM13.6044 15.7524L13.408 15.5256C13.2629 15.6513 13.0951 15.7487 12.9021 15.8175L13.0028 16.1001L13.1035 16.3827C13.3636 16.29 13.5969 16.1557 13.8007 15.9793L13.6044 15.7524ZM13.0028 16.1001L12.9011 15.8179C12.7141 15.8853 12.5113 15.918 12.2902 15.9134L12.2841 16.2134L12.2779 16.5133C12.5672 16.5192 12.8436 16.4764 13.1045 16.3823L13.0028 16.1001ZM12.2841 16.2134L12.2938 15.9135C12.0876 15.9068 11.9162 15.8669 11.7738 15.8007L11.6473 16.0728L11.5209 16.3448C11.7483 16.4505 12.0013 16.5043 12.2743 16.5132L12.2841 16.2134ZM11.6473 16.0728L11.7753 15.8014C11.6305 15.7332 11.512 15.6421 11.4159 15.528L11.1864 15.7212L10.9569 15.9144C11.1108 16.0972 11.2996 16.2405 11.5194 16.3441L11.6473 16.0728ZM11.1864 15.7212L11.4195 15.5323C11.3223 15.4124 11.2471 15.2719 11.1951 15.1074L10.9091 15.1978L10.623 15.2881C10.696 15.5194 10.8057 15.7279 10.9533 15.9101L11.1864 15.7212ZM10.9091 15.1978L11.1955 15.1085C11.1434 14.9414 11.1185 14.7606 11.123 14.564L10.8231 14.5571L10.5232 14.5502C10.5173 14.8068 10.5497 15.053 10.6227 15.287L10.9091 15.1978ZM10.8231 14.5571V14.8571H11.9794V14.5571V14.2571H10.8231V14.5571ZM11.9794 14.5571L11.6795 14.5657C11.6826 14.6732 11.6947 14.7864 11.7149 14.9045L12.0106 14.854L12.3063 14.8035C12.2901 14.7081 12.2814 14.6233 12.2793 14.5486L11.9794 14.5571ZM12.0106 14.854L11.7151 14.9057C11.7411 15.0542 11.7989 15.1916 11.8928 15.31L12.1278 15.1235L12.3629 14.9371C12.337 14.9045 12.3166 14.8621 12.3061 14.8023L12.0106 14.854ZM12.1278 15.1235L11.8928 15.31C12.0201 15.4705 12.2016 15.5365 12.3868 15.5406L12.3934 15.2407L12.4001 14.9408C12.3728 14.9402 12.3616 14.9356 12.3602 14.935C12.3595 14.9347 12.3602 14.9349 12.3614 14.9359C12.3627 14.9368 12.3632 14.9375 12.3629 14.9371L12.1278 15.1235ZM12.3934 15.2407L12.3821 15.5405C12.5837 15.5481 12.7749 15.4937 12.9332 15.3618L12.7411 15.1313L12.549 14.9009C12.5198 14.9253 12.4792 14.9437 12.4048 14.9409L12.3934 15.2407ZM12.7411 15.1313L12.93 15.3644C13.0632 15.2564 13.1664 15.1218 13.2395 14.9652L12.9677 14.8384L12.6958 14.7115C12.6595 14.7893 12.6117 14.8501 12.5522 14.8983L12.7411 15.1313ZM12.9677 14.8384L13.2372 14.9701C13.3076 14.826 13.3544 14.6763 13.3745 14.5217L13.077 14.4829L12.7796 14.4441C12.7685 14.5291 12.7423 14.6164 12.6981 14.7066L12.9677 14.8384ZM13.077 14.4829L13.3753 14.5153C13.3904 14.3764 13.392 14.2382 13.3798 14.1009L13.0809 14.1274L12.7821 14.154C12.7907 14.2511 12.7897 14.3498 12.7788 14.4505L13.077 14.4829ZM13.0809 14.1274L13.3798 14.1009C13.3651 13.9354 13.3115 13.7796 13.2088 13.6469L12.9716 13.8306L12.7343 14.0142C12.7566 14.043 12.776 14.0851 12.7821 14.154L13.0809 14.1274ZM12.9716 13.8306L13.2088 13.6469C13.0731 13.4716 12.8694 13.4086 12.6751 13.3982L12.6591 13.6978L12.643 13.9973C12.6907 13.9999 12.7171 14.0078 12.7292 14.0129C12.7393 14.0172 12.7378 14.0187 12.7343 14.0142L12.9716 13.8306ZM12.6591 13.6978L12.661 13.3978L12.0634 13.3939L12.0614 13.6938L12.0594 13.9938L12.6571 13.9977L12.6591 13.6978Z" fill="#777511" mask="url(#path-10-outside-3_275_938)"/>
<rect x="0.941162" y="68.467" width="2.82353" height="2.0438" fill="#D4D014"/>
<rect x="0.941162" y="65.4014" width="2.82353" height="2.0438" fill="#D4D014"/>
<rect x="0.941162" y="71.533" width="2.82353" height="2.0438" fill="#D4D014"/>
<rect x="41.4117" y="136.934" width="2.0438" height="1.88235" transform="rotate(90 41.4117 136.934)" fill="#D4D014"/>
<rect x="44.2354" y="136.934" width="2.0438" height="1.88235" transform="rotate(90 44.2354 136.934)" fill="#D4D014"/>
<rect x="38.5883" y="136.934" width="2.0438" height="1.88235" transform="rotate(90 38.5883 136.934)" fill="#D4D014"/>
<rect x="41.4117" y="1.02197" width="2.0438" height="1.88235" transform="rotate(90 41.4117 1.02197)" fill="#D4D014"/>
<rect x="44.2354" y="1.02197" width="2.0438" height="1.88235" transform="rotate(90 44.2354 1.02197)" fill="#D4D014"/>
<rect x="38.5883" y="1.02197" width="2.0438" height="1.88235" transform="rotate(90 38.5883 1.02197)" fill="#D4D014"/>
<rect x="76.2354" y="68.467" width="2.82353" height="2.0438" fill="#D4D014"/>
<rect x="76.2354" y="65.4014" width="2.82353" height="2.0438" fill="#D4D014"/>
<rect x="76.2354" y="71.533" width="2.82353" height="2.0438" fill="#D4D014"/>
<defs>
<filter id="filter0_d_275_938" x="8.67651" y="25.0474" width="61.7059" height="101.993" filterUnits="userSpaceOnUse" color-interpolation-filters="sRGB">
<feFlood flood-opacity="0" result="BackgroundImageFix"/>
<feColorMatrix in="SourceAlpha" type="matrix" values="0 0 0 0 0 0 0 0 0 0 0 0 0 0 0 0 0 0 127 0" result="hardAlpha"/>
<feOffset dy="4"/>
<feGaussianBlur stdDeviation="2"/>
<feComposite in2="hardAlpha" operator="out"/>
<feColorMatrix type="matrix" values="0 0 0 0 0 0 0 0 0 0 0 0 0 0 0 0 0 0 0.25 0"/>
<feBlend mode="normal" in2="BackgroundImageFix" result="effect1_dropShadow_275_938"/>
<feBlend mode="normal" in="SourceGraphic" in2="effect1_dropShadow_275_938" result="shape"/>
</filter>
<filter id="filter1_d_275_938" x="24.7461" y="54.7654" width="29.8242" height="39.2383" filterUnits="userSpaceOnUse" color-interpolation-filters="sRGB">
<feFlood flood-opacity="0" result="BackgroundImageFix"/>
<feColorMatrix in="SourceAlpha" type="matrix" values="0 0 0 0 0 0 0 0 0 0 0 0 0 0 0 0 0 0 127 0" result="hardAlpha"/>
<feOffset dy="4"/>
<feGaussianBlur stdDeviation="2"/>
<feComposite in2="hardAlpha" operator="out"/>
<feColorMatrix type="matrix" values="0 0 0 0 0 0 0 0 0 0 0 0 0 0 0 0 0 0 0.25 0"/>
<feBlend mode="normal" in2="BackgroundImageFix" result="effect1_dropShadow_275_938"/>
<feBlend mode="normal" in="SourceGraphic" in2="effect1_dropShadow_275_938" result="shape"/>
</filter>
<linearGradient id="paint0_linear_275_938" x1="39.9999" y1="3.06567" x2="39.9999" y2="136.934" gradientUnits="userSpaceOnUse">
<stop stop-color="#BFBC34" stop-opacity="0.95"/>
<stop offset="1" stop-color="#55530E"/>
</linearGradient>
<linearGradient id="paint1_linear_275_938" x1="66.4434" y1="115.339" x2="63.7603" y2="132.922" gradientUnits="userSpaceOnUse">
<stop stop-color="#FFFEE0"/>
<stop offset="1" stop-color="#C3C026"/>
</linearGradient>
<linearGradient id="paint2_linear_275_938" x1="65.1744" y1="136.934" x2="65.1744" y2="114.453" gradientUnits="userSpaceOnUse">
<stop stop-color="#FFFEE0"/>
<stop offset="1" stop-color="#C3C026"/>
</linearGradient>
<linearGradient id="paint3_linear_275_938" x1="39.5295" y1="25.5474" x2="39.5295" y2="118.54" gradientUnits="userSpaceOnUse">
<stop stop-color="#F6F313"/>
<stop offset="1" stop-color="#7C7A00"/>
</linearGradient>
<linearGradient id="paint4_linear_275_938" x1="13.7373" y1="4.97369" x2="11.0543" y2="22.5567" gradientUnits="userSpaceOnUse">
<stop stop-color="#FFFEE0"/>
<stop offset="1" stop-color="#C3C026"/>
</linearGradient>
<linearGradient id="paint5_linear_275_938" x1="12.7059" y1="6.13135" x2="12.7059" y2="21.4598" gradientUnits="userSpaceOnUse">
<stop stop-color="#FFFEE0"/>
<stop offset="1" stop-color="#C3C026"/>
</linearGradient>
</defs>
</svg>
