<svg width="80" height="140" viewBox="0 0 80 140" fill="none" xmlns="http://www.w3.org/2000/svg">
<rect x="0.5" y="0.5" width="79" height="139" rx="9.5" fill="white" stroke="black"/>
<rect x="4.26465" y="3.56567" width="71.4706" height="132.869" rx="9.5" fill="url(#paint0_linear_275_615)" stroke="black"/>
<path d="M66.4114 115.587C67.9053 115.815 69.1698 116.946 69.9906 118.654C70.8104 120.36 71.1702 122.614 70.8603 125.009C70.5504 127.403 69.6323 129.462 68.4111 130.857C67.1884 132.254 65.6857 132.962 64.1918 132.735C62.6978 132.507 61.4326 131.375 60.6117 129.667C59.7919 127.961 59.432 125.707 59.742 123.312C60.0519 120.918 60.97 118.859 62.1912 117.464C63.414 116.068 64.9175 115.359 66.4114 115.587Z" fill="url(#paint1_linear_275_615)" stroke="#00749A" stroke-width="0.5"/>
<mask id="path-4-outside-1_275_615" maskUnits="userSpaceOnUse" x="61.729" y="120.934" width="6" height="7" fill="black">
<rect fill="white" x="61.729" y="120.934" width="6" height="7"/>
<path d="M63.014 127.622L63.1429 126.895L65.6078 121.934H66.8148L64.3461 126.653L66.3617 126.657L66.1937 127.622H63.014Z"/>
</mask>
<path d="M63.014 127.622L63.1429 126.895L65.6078 121.934H66.8148L64.3461 126.653L66.3617 126.657L66.1937 127.622H63.014Z" fill="#00EEFF"/>
<path d="M63.014 127.622L62.7187 127.569L62.6561 127.922H63.014V127.622ZM63.1429 126.895L62.8743 126.762L62.8551 126.8L62.8476 126.843L63.1429 126.895ZM65.6078 121.934V121.634H65.4219L65.3391 121.801L65.6078 121.934ZM66.8148 121.934L67.0806 122.073L67.3104 121.634H66.8148V121.934ZM64.3461 126.653L64.0803 126.514L63.851 126.952L64.3455 126.953L64.3461 126.653ZM66.3617 126.657L66.6573 126.708L66.7183 126.358L66.3623 126.357L66.3617 126.657ZM66.1937 127.622V127.922H66.446L66.4893 127.673L66.1937 127.622ZM63.014 127.622L63.3094 127.674L63.4383 126.948L63.1429 126.895L62.8476 126.843L62.7187 127.569L63.014 127.622ZM63.1429 126.895L63.4116 127.029L65.8765 122.068L65.6078 121.934L65.3391 121.801L62.8743 126.762L63.1429 126.895ZM65.6078 121.934V122.234H66.8148V121.934V121.634H65.6078V121.934ZM66.8148 121.934L66.549 121.795L64.0803 126.514L64.3461 126.653L64.6119 126.792L67.0806 122.073L66.8148 121.934ZM64.3461 126.653L64.3455 126.953L66.3611 126.957L66.3617 126.657L66.3623 126.357L64.3467 126.353L64.3461 126.653ZM66.3617 126.657L66.0661 126.606L65.8982 127.57L66.1937 127.622L66.4893 127.673L66.6573 126.708L66.3617 126.657ZM66.1937 127.622V127.322H63.014V127.622V127.922H66.1937V127.622Z" fill="#00646B" mask="url(#path-4-outside-1_275_615)"/>
<g filter="url(#filter0_d_275_615)">
<ellipse cx="39.5295" cy="72.0437" rx="26.3529" ry="46.4963" fill="url(#paint2_linear_275_615)" shape-rendering="crispEdges"/>
<ellipse cx="39.5295" cy="72.0437" rx="26.3529" ry="46.4963" stroke="#00749A" shape-rendering="crispEdges"/>
</g>
<g filter="url(#filter1_d_275_615)">
<mask id="path-7-outside-2_275_615" maskUnits="userSpaceOnUse" x="29" y="54.613" width="22" height="31" fill="black">
<rect fill="white" x="29" y="54.613" width="22" height="31"/>
<path d="M49.3359 56.1755V59.2029L38.8281 84.613H33.1836L43.7305 60.5701H30.4883V56.1755H49.3359Z"/>
</mask>
<path d="M49.3359 56.1755V59.2029L38.8281 84.613H33.1836L43.7305 60.5701H30.4883V56.1755H49.3359Z" fill="#00EEFF"/>
<path d="M49.3359 56.1755H50.3359V55.1755H49.3359V56.1755ZM49.3359 59.2029L50.26 59.585L50.3359 59.4015V59.2029H49.3359ZM38.8281 84.613V85.613H39.4967L39.7522 84.9952L38.8281 84.613ZM33.1836 84.613L32.2678 84.2113L31.6529 85.613H33.1836V84.613ZM43.7305 60.5701L44.6462 60.9718L45.2611 59.5701H43.7305V60.5701ZM30.4883 60.5701H29.4883V61.5701H30.4883V60.5701ZM30.4883 56.1755V55.1755H29.4883V56.1755H30.4883ZM49.3359 56.1755H48.3359V59.2029H49.3359H50.3359V56.1755H49.3359ZM49.3359 59.2029L48.4118 58.8207L37.904 84.2309L38.8281 84.613L39.7522 84.9952L50.26 59.585L49.3359 59.2029ZM38.8281 84.613V83.613H33.1836V84.613V85.613H38.8281V84.613ZM33.1836 84.613L34.0994 85.0148L44.6462 60.9718L43.7305 60.5701L42.8147 60.1684L32.2678 84.2113L33.1836 84.613ZM43.7305 60.5701V59.5701H30.4883V60.5701V61.5701H43.7305V60.5701ZM30.4883 60.5701H31.4883V56.1755H30.4883H29.4883V60.5701H30.4883ZM30.4883 56.1755V57.1755H49.3359V56.1755V55.1755H30.4883V56.1755Z" fill="black" mask="url(#path-7-outside-2_275_615)"/>
</g>
<path d="M13.7056 5.22167C15.1995 5.44972 16.464 6.58097 17.2848 8.2892C18.1046 9.99542 18.4644 12.2494 18.1545 14.6439C17.8446 17.0384 16.9265 19.0973 15.7052 20.4921C14.4825 21.8885 12.9799 22.5975 11.486 22.3696C9.99202 22.1417 8.72675 21.0103 7.90588 19.3019C7.08612 17.5957 6.72622 15.3416 7.03615 12.9473C7.34609 10.5529 8.26424 8.49383 9.48541 7.09906C10.7082 5.70252 12.2116 4.99369 13.7056 5.22167Z" fill="url(#paint3_linear_275_615)" stroke="#00749A" stroke-width="0.5"/>
<mask id="path-10-outside-3_275_615" maskUnits="userSpaceOnUse" x="9.76465" y="10.1313" width="5" height="7" fill="black">
<rect fill="white" x="9.76465" y="10.1313" width="5" height="7"/>
<path d="M14.3954 10.4438L14.2665 11.1704L11.8016 16.1313H10.5946L13.0634 11.4126L11.0477 11.4087L11.2157 10.4438H14.3954Z"/>
</mask>
<path d="M14.3954 10.4438L14.2665 11.1704L11.8016 16.1313H10.5946L13.0634 11.4126L11.0477 11.4087L11.2157 10.4438H14.3954Z" fill="#00EEFF"/>
<path d="M14.3954 10.4438L14.6908 10.4963L14.7533 10.1438H14.3954V10.4438ZM14.2665 11.1704L14.5352 11.3039L14.5543 11.2653L14.5619 11.2228L14.2665 11.1704ZM11.8016 16.1313V16.4313H11.9876L12.0703 16.2648L11.8016 16.1313ZM10.5946 16.1313L10.3288 15.9923L10.0991 16.4313H10.5946V16.1313ZM13.0634 11.4126L13.3292 11.5517L13.5584 11.1136L13.0639 11.1126L13.0634 11.4126ZM11.0477 11.4087L10.7522 11.3572L10.6911 11.708L11.0472 11.7087L11.0477 11.4087ZM11.2157 10.4438V10.1438H10.9634L10.9202 10.3924L11.2157 10.4438ZM14.3954 10.4438L14.1 10.3914L13.9711 11.118L14.2665 11.1704L14.5619 11.2228L14.6908 10.4963L14.3954 10.4438ZM14.2665 11.1704L13.9978 11.0369L11.533 15.9979L11.8016 16.1313L12.0703 16.2648L14.5352 11.3039L14.2665 11.1704ZM11.8016 16.1313V15.8313H10.5946V16.1313V16.4313H11.8016V16.1313ZM10.5946 16.1313L10.8604 16.2704L13.3292 11.5517L13.0634 11.4126L12.7975 11.2735L10.3288 15.9923L10.5946 16.1313ZM13.0634 11.4126L13.0639 11.1126L11.0483 11.1087L11.0477 11.4087L11.0472 11.7087L13.0628 11.7126L13.0634 11.4126ZM11.0477 11.4087L11.3433 11.4601L11.5113 10.4953L11.2157 10.4438L10.9202 10.3924L10.7522 11.3572L11.0477 11.4087ZM11.2157 10.4438V10.7438H14.3954V10.4438V10.1438H11.2157V10.4438Z" fill="#00646B" mask="url(#path-10-outside-3_275_615)"/>
<rect x="0.941162" y="63.3577" width="2.82353" height="2.0438" fill="#00EEFF"/>
<rect x="0.941162" y="68.467" width="2.82353" height="2.0438" fill="#00EEFF"/>
<rect x="0.941162" y="73.5767" width="2.82353" height="2.0438" fill="#00EEFF"/>
<rect x="0.941162" y="76.6423" width="2.82353" height="2.0438" fill="#00EEFF"/>
<rect x="0.941162" y="79.708" width="2.82353" height="2.0438" fill="#00EEFF"/>
<rect x="0.941162" y="60.292" width="2.82353" height="2.0438" fill="#00EEFF"/>
<rect x="0.941162" y="57.2263" width="2.82353" height="2.0438" fill="#00EEFF"/>
<rect x="46.1177" y="136.934" width="2.0438" height="1.88235" transform="rotate(90 46.1177 136.934)" fill="#00EEFF"/>
<rect x="41.4119" y="136.934" width="2.0438" height="1.88235" transform="rotate(90 41.4119 136.934)" fill="#00EEFF"/>
<rect x="36.7058" y="136.934" width="2.0438" height="1.88235" transform="rotate(90 36.7058 136.934)" fill="#00EEFF"/>
<rect x="33.8823" y="136.934" width="2.0438" height="1.88235" transform="rotate(90 33.8823 136.934)" fill="#00EEFF"/>
<rect x="31.0588" y="136.934" width="2.0438" height="1.88235" transform="rotate(90 31.0588 136.934)" fill="#00EEFF"/>
<rect x="48.9412" y="136.934" width="2.0438" height="1.88235" transform="rotate(90 48.9412 136.934)" fill="#00EEFF"/>
<rect x="51.7646" y="136.934" width="2.0438" height="1.88235" transform="rotate(90 51.7646 136.934)" fill="#00EEFF"/>
<rect x="46.1177" y="1.02197" width="2.0438" height="1.88235" transform="rotate(90 46.1177 1.02197)" fill="#00EEFF"/>
<rect x="41.4119" y="1.02197" width="2.0438" height="1.88235" transform="rotate(90 41.4119 1.02197)" fill="#00EEFF"/>
<rect x="36.7058" y="1.02197" width="2.0438" height="1.88235" transform="rotate(90 36.7058 1.02197)" fill="#00EEFF"/>
<rect x="33.8823" y="1.02197" width="2.0438" height="1.88235" transform="rotate(90 33.8823 1.02197)" fill="#00EEFF"/>
<rect x="31.0588" y="1.02197" width="2.0438" height="1.88235" transform="rotate(90 31.0588 1.02197)" fill="#00EEFF"/>
<rect x="48.9412" y="1.02197" width="2.0438" height="1.88235" transform="rotate(90 48.9412 1.02197)" fill="#00EEFF"/>
<rect x="51.7646" y="1.02197" width="2.0438" height="1.88235" transform="rotate(90 51.7646 1.02197)" fill="#00EEFF"/>
<rect x="76.2354" y="63.3577" width="2.82353" height="2.0438" fill="#00EEFF"/>
<rect x="76.2354" y="68.467" width="2.82353" height="2.0438" fill="#00EEFF"/>
<rect x="76.2354" y="73.5767" width="2.82353" height="2.0438" fill="#00EEFF"/>
<rect x="76.2354" y="76.6423" width="2.82353" height="2.0438" fill="#00EEFF"/>
<rect x="76.2354" y="79.708" width="2.82353" height="2.0438" fill="#00EEFF"/>
<rect x="76.2354" y="60.292" width="2.82353" height="2.0438" fill="#00EEFF"/>
<rect x="76.2354" y="57.2263" width="2.82353" height="2.0438" fill="#00EEFF"/>
<defs>
<filter id="filter0_d_275_615" x="8.67651" y="25.0474" width="61.7058" height="101.993" filterUnits="userSpaceOnUse" color-interpolation-filters="sRGB">
<feFlood flood-opacity="0" result="BackgroundImageFix"/>
<feColorMatrix in="SourceAlpha" type="matrix" values="0 0 0 0 0 0 0 0 0 0 0 0 0 0 0 0 0 0 127 0" result="hardAlpha"/>
<feOffset dy="4"/>
<feGaussianBlur stdDeviation="2"/>
<feComposite in2="hardAlpha" operator="out"/>
<feColorMatrix type="matrix" values="0 0 0 0 0 0 0 0 0 0 0 0 0 0 0 0 0 0 0.25 0"/>
<feBlend mode="normal" in2="BackgroundImageFix" result="effect1_dropShadow_275_615"/>
<feBlend mode="normal" in="SourceGraphic" in2="effect1_dropShadow_275_615" result="shape"/>
</filter>
<filter id="filter1_d_275_615" x="25.4883" y="55.1755" width="28.8477" height="38.4375" filterUnits="userSpaceOnUse" color-interpolation-filters="sRGB">
<feFlood flood-opacity="0" result="BackgroundImageFix"/>
<feColorMatrix in="SourceAlpha" type="matrix" values="0 0 0 0 0 0 0 0 0 0 0 0 0 0 0 0 0 0 127 0" result="hardAlpha"/>
<feOffset dy="4"/>
<feGaussianBlur stdDeviation="2"/>
<feComposite in2="hardAlpha" operator="out"/>
<feColorMatrix type="matrix" values="0 0 0 0 0 0 0 0 0 0 0 0 0 0 0 0 0 0 0.25 0"/>
<feBlend mode="normal" in2="BackgroundImageFix" result="effect1_dropShadow_275_615"/>
<feBlend mode="normal" in="SourceGraphic" in2="effect1_dropShadow_275_615" result="shape"/>
</filter>
<linearGradient id="paint0_linear_275_615" x1="39.9999" y1="3.06567" x2="39.9999" y2="136.934" gradientUnits="userSpaceOnUse">
<stop stop-color="#00EBFC" stop-opacity="0.95"/>
<stop offset="1" stop-color="#043D40"/>
</linearGradient>
<linearGradient id="paint1_linear_275_615" x1="66.4433" y1="115.339" x2="63.7602" y2="132.922" gradientUnits="userSpaceOnUse">
<stop stop-color="#CAFBFF"/>
<stop offset="1" stop-color="#31B9C2"/>
</linearGradient>
<linearGradient id="paint2_linear_275_615" x1="39.5295" y1="25.5474" x2="39.5295" y2="118.54" gradientUnits="userSpaceOnUse">
<stop stop-color="#56F4FF" stop-opacity="0.95"/>
<stop offset="1" stop-color="#03858C"/>
</linearGradient>
<linearGradient id="paint3_linear_275_615" x1="13.7375" y1="4.97369" x2="11.0544" y2="22.5567" gradientUnits="userSpaceOnUse">
<stop stop-color="#CAFBFF" stop-opacity="0.95"/>
<stop offset="1" stop-color="#31B9C2"/>
</linearGradient>
</defs>
</svg>
