<svg width="85" height="137" viewBox="0 0 85 137" fill="none" xmlns="http://www.w3.org/2000/svg">
<rect x="0.5" y="0.5" width="84" height="136" rx="9.5" fill="white" stroke="black"/>
<rect x="4.5" y="3.5" width="76" height="130" rx="9.5" fill="url(#paint0_linear_275_874)" stroke="black"/>
<path d="M70.5618 113.115C72.1646 113.34 73.5109 114.456 74.3812 116.125C75.2513 117.793 75.6332 119.994 75.3046 122.332C74.976 124.67 74.002 126.682 72.7058 128.046C71.4094 129.409 69.8075 130.111 68.2048 129.885C66.602 129.66 65.2547 128.544 64.3843 126.876C63.5142 125.208 63.1324 123.006 63.461 120.668C63.7896 118.33 64.7636 116.319 66.0597 114.955C67.3563 113.591 68.9588 112.889 70.5618 113.115Z" fill="url(#paint1_linear_275_874)" stroke="#540000" stroke-width="0.5"/>
<mask id="path-4-outside-1_275_874" maskUnits="userSpaceOnUse" x="66.929" y="117" width="5" height="7" fill="black">
<rect fill="white" x="66.929" y="117" width="5" height="7"/>
<path d="M70.2731 120.566L71.2106 120.805L70.4762 123.688H67.734L67.8903 122.703H69.6637L69.9879 121.527C69.8994 121.59 69.8017 121.639 69.6949 121.676C69.5882 121.712 69.4801 121.733 69.3707 121.738C69.1103 121.736 68.8981 121.677 68.734 121.562C68.5673 121.451 68.4397 121.301 68.3512 121.113C68.26 120.928 68.2001 120.725 68.1715 120.504C68.1429 120.283 68.1376 120.068 68.1559 119.859C68.1767 119.604 68.2353 119.359 68.3317 119.125C68.4254 118.891 68.553 118.681 68.7145 118.496C68.8733 118.311 69.0634 118.167 69.2848 118.062C69.5061 117.958 69.7522 117.91 70.0231 117.918C70.2574 117.923 70.4671 117.971 70.652 118.062C70.8369 118.156 70.9944 118.281 71.1246 118.438C71.2522 118.594 71.3486 118.772 71.4137 118.973C71.4762 119.173 71.5048 119.384 71.4996 119.605H70.3473C70.3473 119.514 70.3395 119.414 70.3238 119.305C70.3082 119.195 70.2731 119.1 70.2184 119.02C70.1611 118.939 70.0725 118.896 69.9528 118.891C69.8225 118.885 69.7171 118.918 69.6363 118.988C69.5556 119.061 69.4931 119.154 69.4488 119.266C69.4046 119.378 69.372 119.493 69.3512 119.613C69.3304 119.736 69.3173 119.842 69.3121 119.934C69.3043 120.02 69.3004 120.116 69.3004 120.223C69.2978 120.329 69.3095 120.431 69.3356 120.527C69.359 120.624 69.4033 120.703 69.4684 120.766C69.5335 120.828 69.6246 120.861 69.7418 120.863C69.8564 120.861 69.958 120.832 70.0465 120.777C70.1324 120.725 70.208 120.655 70.2731 120.566Z"/>
</mask>
<path d="M70.2731 120.566L71.2106 120.805L70.4762 123.688H67.734L67.8903 122.703H69.6637L69.9879 121.527C69.8994 121.59 69.8017 121.639 69.6949 121.676C69.5882 121.712 69.4801 121.733 69.3707 121.738C69.1103 121.736 68.8981 121.677 68.734 121.562C68.5673 121.451 68.4397 121.301 68.3512 121.113C68.26 120.928 68.2001 120.725 68.1715 120.504C68.1429 120.283 68.1376 120.068 68.1559 119.859C68.1767 119.604 68.2353 119.359 68.3317 119.125C68.4254 118.891 68.553 118.681 68.7145 118.496C68.8733 118.311 69.0634 118.167 69.2848 118.062C69.5061 117.958 69.7522 117.91 70.0231 117.918C70.2574 117.923 70.4671 117.971 70.652 118.062C70.8369 118.156 70.9944 118.281 71.1246 118.438C71.2522 118.594 71.3486 118.772 71.4137 118.973C71.4762 119.173 71.5048 119.384 71.4996 119.605H70.3473C70.3473 119.514 70.3395 119.414 70.3238 119.305C70.3082 119.195 70.2731 119.1 70.2184 119.02C70.1611 118.939 70.0725 118.896 69.9528 118.891C69.8225 118.885 69.7171 118.918 69.6363 118.988C69.5556 119.061 69.4931 119.154 69.4488 119.266C69.4046 119.378 69.372 119.493 69.3512 119.613C69.3304 119.736 69.3173 119.842 69.3121 119.934C69.3043 120.02 69.3004 120.116 69.3004 120.223C69.2978 120.329 69.3095 120.431 69.3356 120.527C69.359 120.624 69.4033 120.703 69.4684 120.766C69.5335 120.828 69.6246 120.861 69.7418 120.863C69.8564 120.861 69.958 120.832 70.0465 120.777C70.1324 120.725 70.208 120.655 70.2731 120.566Z" fill="#790000"/>
<path d="M70.2731 120.566L70.347 120.276L70.1511 120.226L70.0314 120.389L70.2731 120.566ZM71.2106 120.805L71.5013 120.879L71.5754 120.588L71.2845 120.514L71.2106 120.805ZM70.4762 123.688V123.988H70.7093L70.7669 123.762L70.4762 123.688ZM67.734 123.688L67.4377 123.64L67.3826 123.988H67.734V123.688ZM67.8903 122.703V122.403H67.6341L67.594 122.656L67.8903 122.703ZM69.6637 122.703V123.003H69.8922L69.9529 122.783L69.6637 122.703ZM69.9879 121.527L70.2771 121.607L70.5 120.799L69.8149 121.282L69.9879 121.527ZM69.6949 121.676L69.7919 121.96L69.6949 121.676ZM69.3707 121.738L69.3677 122.038L69.3764 122.038L69.385 122.038L69.3707 121.738ZM68.734 121.562L68.9058 121.317L68.9013 121.313L68.734 121.562ZM68.3512 121.113L68.6225 120.985L68.6203 120.981L68.3512 121.113ZM68.1559 119.859L68.4547 119.886L68.4549 119.884L68.1559 119.859ZM68.3317 119.125L68.6091 119.239L68.6102 119.236L68.3317 119.125ZM68.7145 118.496L68.9404 118.693L68.942 118.692L68.7145 118.496ZM70.0231 117.918L70.0144 118.218L70.0164 118.218L70.0231 117.918ZM70.652 118.062L70.7876 117.795L70.7846 117.793L70.652 118.062ZM71.1246 118.438L71.357 118.248L71.3551 118.245L71.1246 118.438ZM71.4137 118.973L71.7001 118.883L71.699 118.88L71.4137 118.973ZM71.4996 119.605V119.905H71.7927L71.7995 119.613L71.4996 119.605ZM70.3473 119.605H70.0473V119.905H70.3473V119.605ZM70.2184 119.02L70.4668 118.851L70.463 118.846L70.2184 119.02ZM69.9528 118.891L69.9658 118.591L69.9647 118.591L69.9528 118.891ZM69.6363 118.988L69.4393 118.762L69.4353 118.766L69.6363 118.988ZM69.3512 119.613L69.0556 119.562L69.0554 119.563L69.3512 119.613ZM69.3121 119.934L69.6111 119.961L69.6116 119.951L69.3121 119.934ZM69.3004 120.223L69.6004 120.23V120.223H69.3004ZM69.3356 120.527L69.6272 120.456L69.6252 120.449L69.3356 120.527ZM69.7418 120.863L69.7351 121.164L69.7486 121.163L69.7418 120.863ZM70.0465 120.777L69.891 120.521L69.8889 120.522L70.0465 120.777ZM70.2731 120.566L70.1992 120.857L71.1367 121.095L71.2106 120.805L71.2845 120.514L70.347 120.276L70.2731 120.566ZM71.2106 120.805L70.9198 120.731L70.1855 123.613L70.4762 123.688L70.7669 123.762L71.5013 120.879L71.2106 120.805ZM70.4762 123.688V123.387H67.734V123.688V123.988H70.4762V123.688ZM67.734 123.688L68.0303 123.735L68.1865 122.75L67.8903 122.703L67.594 122.656L67.4377 123.64L67.734 123.688ZM67.8903 122.703V123.003H69.6637V122.703V122.403H67.8903V122.703ZM69.6637 122.703L69.9529 122.783L70.2771 121.607L69.9879 121.527L69.6987 121.448L69.3745 122.623L69.6637 122.703ZM69.9879 121.527L69.8149 121.282C69.7507 121.328 69.6788 121.364 69.598 121.392L69.6949 121.676L69.7919 121.96C69.9246 121.914 70.0481 121.852 70.1609 121.772L69.9879 121.527ZM69.6949 121.676L69.598 121.392C69.5171 121.42 69.4368 121.435 69.3565 121.439L69.3707 121.738L69.385 122.038C69.5234 122.031 69.6592 122.005 69.7919 121.96L69.6949 121.676ZM69.3707 121.738L69.3737 121.438C69.1557 121.436 69.0073 121.387 68.9058 121.317L68.734 121.562L68.5622 121.808C68.7888 121.967 69.0649 122.035 69.3677 122.038L69.3707 121.738ZM68.734 121.562L68.9013 121.313C68.7811 121.233 68.6887 121.125 68.6225 120.985L68.3512 121.113L68.0799 121.241C68.1908 121.476 68.3536 121.668 68.5667 121.812L68.734 121.562ZM68.3512 121.113L68.6203 120.981C68.5449 120.828 68.4938 120.657 68.469 120.465L68.1715 120.504L67.874 120.542C67.9065 120.794 67.9752 121.029 68.0821 121.246L68.3512 121.113ZM68.1715 120.504L68.469 120.465C68.443 120.264 68.4385 120.071 68.4547 119.886L68.1559 119.859L67.857 119.833C67.8368 120.064 67.8427 120.301 67.874 120.542L68.1715 120.504ZM68.1559 119.859L68.4549 119.884C68.4732 119.659 68.5247 119.445 68.6091 119.239L68.3317 119.125L68.0542 119.011C67.946 119.274 67.8802 119.549 67.8569 119.835L68.1559 119.859ZM68.3317 119.125L68.6102 119.236C68.6918 119.033 68.8019 118.852 68.9404 118.693L68.7145 118.496L68.4885 118.299C68.3042 118.51 68.1591 118.749 68.0531 119.014L68.3317 119.125ZM68.7145 118.496L68.942 118.692C69.0732 118.539 69.2293 118.42 69.4125 118.334L69.2848 118.062L69.157 117.791C68.8976 117.913 68.6734 118.084 68.4869 118.301L68.7145 118.496ZM69.2848 118.062L69.4125 118.334C69.5869 118.252 69.7855 118.211 70.0144 118.218L70.0231 117.918L70.0317 117.618C69.719 117.609 69.4254 117.665 69.157 117.791L69.2848 118.062ZM70.0231 117.918L70.0164 118.218C70.213 118.222 70.3787 118.262 70.5193 118.332L70.652 118.062L70.7846 117.793C70.5554 117.68 70.3018 117.624 70.0297 117.618L70.0231 117.918ZM70.652 118.062L70.5163 118.33C70.6655 118.406 70.7906 118.505 70.8942 118.63L71.1246 118.438L71.3551 118.245C71.1982 118.057 71.0082 117.907 70.7876 117.795L70.652 118.062ZM71.1246 118.438L70.8923 118.627C70.9953 118.753 71.0742 118.899 71.1284 119.065L71.4137 118.973L71.699 118.88C71.623 118.646 71.5092 118.434 71.357 118.248L71.1246 118.438ZM71.4137 118.973L71.1273 119.062C71.1796 119.23 71.2042 119.408 71.1997 119.598L71.4996 119.605L71.7995 119.613C71.8055 119.36 71.7728 119.117 71.7001 118.883L71.4137 118.973ZM71.4996 119.605V119.305H70.3473V119.605V119.905H71.4996V119.605ZM70.3473 119.605H70.6473C70.6473 119.498 70.6381 119.383 70.6208 119.262L70.3238 119.305L70.0269 119.347C70.0409 119.445 70.0473 119.531 70.0473 119.605H70.3473ZM70.3238 119.305L70.6208 119.262C70.5996 119.114 70.5502 118.974 70.4668 118.851L70.2184 119.02L69.97 119.188C69.9959 119.226 70.0168 119.277 70.0269 119.347L70.3238 119.305ZM70.2184 119.02L70.463 118.846C70.3407 118.673 70.1563 118.599 69.9658 118.591L69.9528 118.891L69.9397 119.19C69.9674 119.192 69.9777 119.197 69.978 119.197C69.9782 119.197 69.977 119.196 69.9755 119.195C69.974 119.194 69.9734 119.193 69.9737 119.193L70.2184 119.02ZM69.9528 118.891L69.9647 118.591C69.7756 118.583 69.5898 118.631 69.4393 118.762L69.6363 118.988L69.8334 119.215C69.8444 119.205 69.8695 119.188 69.9408 119.19L69.9528 118.891ZM69.6363 118.988L69.4353 118.766C69.3167 118.873 69.2293 119.005 69.1699 119.155L69.4488 119.266L69.7278 119.376C69.757 119.302 69.7945 119.25 69.8374 119.211L69.6363 118.988ZM69.4488 119.266L69.1699 119.155C69.118 119.287 69.0799 119.422 69.0556 119.562L69.3512 119.613L69.6468 119.665C69.6641 119.565 69.6912 119.469 69.7278 119.376L69.4488 119.266ZM69.3512 119.613L69.0554 119.563C69.0334 119.693 69.0186 119.811 69.0126 119.916L69.3121 119.934L69.6116 119.951C69.616 119.874 69.6274 119.779 69.6469 119.664L69.3512 119.613ZM69.3121 119.934L69.0134 119.906C69.0046 120.003 69.0004 120.109 69.0004 120.223H69.3004H69.6004C69.6004 120.123 69.6041 120.036 69.6109 119.961L69.3121 119.934ZM69.3004 120.223L69.0005 120.215C68.9972 120.349 69.0119 120.479 69.046 120.606L69.3356 120.527L69.6252 120.449C69.6072 120.382 69.5984 120.31 69.6003 120.23L69.3004 120.223ZM69.3356 120.527L69.0441 120.598C69.0796 120.744 69.1503 120.876 69.2606 120.982L69.4684 120.766L69.6761 120.549C69.6563 120.53 69.6384 120.503 69.6271 120.456L69.3356 120.527ZM69.4684 120.766L69.2606 120.982C69.3946 121.111 69.5659 121.159 69.7351 121.163L69.7418 120.863L69.7485 120.563C69.7155 120.563 69.6961 120.558 69.6865 120.554C69.6817 120.553 69.6792 120.551 69.678 120.551C69.6769 120.55 69.6764 120.549 69.6761 120.549L69.4684 120.766ZM69.7418 120.863L69.7486 121.163C69.911 121.16 70.0657 121.118 70.2042 121.033L70.0465 120.777L69.8889 120.522C69.8502 120.546 69.8018 120.562 69.735 120.563L69.7418 120.863ZM70.0465 120.777L70.202 121.034C70.3246 120.96 70.4286 120.861 70.5148 120.744L70.2731 120.566L70.0314 120.389C69.9874 120.449 69.9403 120.491 69.891 120.521L70.0465 120.777Z" fill="#4D0000" mask="url(#path-4-outside-1_275_874)"/>
<g filter="url(#filter0_d_275_874)">
<ellipse cx="42" cy="70.5" rx="28" ry="45.5" fill="url(#paint2_linear_275_874)" shape-rendering="crispEdges"/>
<ellipse cx="42" cy="70.5" rx="28" ry="45.5" stroke="#540000" shape-rendering="crispEdges"/>
</g>
<g filter="url(#filter1_d_275_874)">
<mask id="path-7-outside-2_275_874" maskUnits="userSpaceOnUse" x="32" y="53" width="22" height="32" fill="black">
<rect fill="white" x="32" y="53" width="22" height="32"/>
<path d="M38.2617 70.0508L33.7695 68.9766L35.3906 54.5625H51.3672V59.1133H40.0195L39.3164 65.4219C39.694 65.2005 40.2669 64.9661 41.0352 64.7188C41.8034 64.4583 42.6628 64.3281 43.6133 64.3281C44.9935 64.3281 46.2174 64.543 47.2852 64.9727C48.3529 65.4023 49.2578 66.0273 50 66.8477C50.7552 67.668 51.3281 68.6706 51.7188 69.8555C52.1094 71.0404 52.3047 72.3815 52.3047 73.8789C52.3047 75.1419 52.1094 76.3464 51.7188 77.4922C51.3281 78.625 50.7357 79.6406 49.9414 80.5391C49.1471 81.4245 48.151 82.1211 46.9531 82.6289C45.7552 83.1367 44.3359 83.3906 42.6953 83.3906C41.4714 83.3906 40.2865 83.2083 39.1406 82.8438C38.0078 82.4792 36.9857 81.9388 36.0742 81.2227C35.1758 80.5065 34.4531 79.6406 33.9062 78.625C33.3724 77.5964 33.0924 76.4245 33.0664 75.1094H38.6523C38.7305 75.9167 38.9388 76.6133 39.2773 77.1992C39.6289 77.7721 40.0911 78.2148 40.6641 78.5273C41.237 78.8398 41.9076 78.9961 42.6758 78.9961C43.3919 78.9961 44.0039 78.8594 44.5117 78.5859C45.0195 78.3125 45.4297 77.9349 45.7422 77.4531C46.0547 76.9583 46.2826 76.3854 46.4258 75.7344C46.582 75.0703 46.6602 74.3542 46.6602 73.5859C46.6602 72.8177 46.569 72.1211 46.3867 71.4961C46.2044 70.8711 45.9245 70.3307 45.5469 69.875C45.1693 69.4193 44.6875 69.0677 44.1016 68.8203C43.5286 68.5729 42.8581 68.4492 42.0898 68.4492C41.0482 68.4492 40.2409 68.612 39.668 68.9375C39.1081 69.263 38.6393 69.6341 38.2617 70.0508Z"/>
</mask>
<path d="M38.2617 70.0508L33.7695 68.9766L35.3906 54.5625H51.3672V59.1133H40.0195L39.3164 65.4219C39.694 65.2005 40.2669 64.9661 41.0352 64.7188C41.8034 64.4583 42.6628 64.3281 43.6133 64.3281C44.9935 64.3281 46.2174 64.543 47.2852 64.9727C48.3529 65.4023 49.2578 66.0273 50 66.8477C50.7552 67.668 51.3281 68.6706 51.7188 69.8555C52.1094 71.0404 52.3047 72.3815 52.3047 73.8789C52.3047 75.1419 52.1094 76.3464 51.7188 77.4922C51.3281 78.625 50.7357 79.6406 49.9414 80.5391C49.1471 81.4245 48.151 82.1211 46.9531 82.6289C45.7552 83.1367 44.3359 83.3906 42.6953 83.3906C41.4714 83.3906 40.2865 83.2083 39.1406 82.8438C38.0078 82.4792 36.9857 81.9388 36.0742 81.2227C35.1758 80.5065 34.4531 79.6406 33.9062 78.625C33.3724 77.5964 33.0924 76.4245 33.0664 75.1094H38.6523C38.7305 75.9167 38.9388 76.6133 39.2773 77.1992C39.6289 77.7721 40.0911 78.2148 40.6641 78.5273C41.237 78.8398 41.9076 78.9961 42.6758 78.9961C43.3919 78.9961 44.0039 78.8594 44.5117 78.5859C45.0195 78.3125 45.4297 77.9349 45.7422 77.4531C46.0547 76.9583 46.2826 76.3854 46.4258 75.7344C46.582 75.0703 46.6602 74.3542 46.6602 73.5859C46.6602 72.8177 46.569 72.1211 46.3867 71.4961C46.2044 70.8711 45.9245 70.3307 45.5469 69.875C45.1693 69.4193 44.6875 69.0677 44.1016 68.8203C43.5286 68.5729 42.8581 68.4492 42.0898 68.4492C41.0482 68.4492 40.2409 68.612 39.668 68.9375C39.1081 69.263 38.6393 69.6341 38.2617 70.0508Z" fill="#790000"/>
<path d="M38.2617 70.0508L38.0291 71.0234L38.6051 71.1611L39.0027 70.7223L38.2617 70.0508ZM33.7695 68.9766L32.7758 68.8648L32.677 69.7435L33.537 69.9491L33.7695 68.9766ZM35.3906 54.5625V53.5625H34.4968L34.3969 54.4507L35.3906 54.5625ZM51.3672 54.5625H52.3672V53.5625H51.3672V54.5625ZM51.3672 59.1133V60.1133H52.3672V59.1133H51.3672ZM40.0195 59.1133V58.1133H39.1248L39.0257 59.0025L40.0195 59.1133ZM39.3164 65.4219L38.3226 65.3111L38.1017 67.2931L39.8221 66.2846L39.3164 65.4219ZM41.0352 64.7188L41.3417 65.6706L41.349 65.6683L41.3562 65.6658L41.0352 64.7188ZM50 66.8477L49.2584 67.5186L49.2643 67.525L50 66.8477ZM51.7188 77.4922L52.6641 77.8182L52.6653 77.8149L51.7188 77.4922ZM49.9414 80.5391L50.6858 81.2068L50.6906 81.2014L49.9414 80.5391ZM39.1406 82.8438L38.8343 83.7957L38.8374 83.7967L39.1406 82.8438ZM36.0742 81.2227L35.4509 82.0047L35.4564 82.009L36.0742 81.2227ZM33.9062 78.625L33.0187 79.0856L33.0222 79.0924L33.0258 79.0991L33.9062 78.625ZM33.0664 75.1094V74.1094H32.0464L32.0666 75.1292L33.0664 75.1094ZM38.6523 75.1094L39.6477 75.0131L39.5602 74.1094H38.6523V75.1094ZM39.2773 77.1992L38.4115 77.6995L38.4181 77.711L38.425 77.7222L39.2773 77.1992ZM40.6641 78.5273L40.1852 79.4052L40.6641 78.5273ZM45.7422 77.4531L46.5812 77.9974L46.5877 77.9871L45.7422 77.4531ZM46.4258 75.7344L45.4524 75.5053L45.4507 75.5124L45.4491 75.5195L46.4258 75.7344ZM44.1016 68.8203L43.7051 69.7384L43.7126 69.7416L44.1016 68.8203ZM39.668 68.9375L39.1739 68.068L39.1653 68.073L39.668 68.9375ZM38.2617 70.0508L38.4943 69.0782L34.0021 68.004L33.7695 68.9766L33.537 69.9491L38.0291 71.0234L38.2617 70.0508ZM33.7695 68.9766L34.7633 69.0883L36.3844 54.6743L35.3906 54.5625L34.3969 54.4507L32.7758 68.8648L33.7695 68.9766ZM35.3906 54.5625V55.5625H51.3672V54.5625V53.5625H35.3906V54.5625ZM51.3672 54.5625H50.3672V59.1133H51.3672H52.3672V54.5625H51.3672ZM51.3672 59.1133V58.1133H40.0195V59.1133V60.1133H51.3672V59.1133ZM40.0195 59.1133L39.0257 59.0025L38.3226 65.3111L39.3164 65.4219L40.3103 65.5326L41.0134 59.2241L40.0195 59.1133ZM39.3164 65.4219L39.8221 66.2846C40.1047 66.1189 40.5952 65.911 41.3417 65.6706L41.0352 64.7188L40.7286 63.7669C39.9387 64.0213 39.2833 64.2821 38.8107 64.5592L39.3164 65.4219ZM41.0352 64.7188L41.3562 65.6658C42.005 65.4459 42.7536 65.3281 43.6133 65.3281V64.3281V63.3281C42.5719 63.3281 41.6018 63.4708 40.7141 63.7717L41.0352 64.7188ZM43.6133 64.3281V65.3281C44.8905 65.3281 45.9839 65.5269 46.9118 65.9004L47.2852 64.9727L47.6585 64.045C46.451 63.559 45.0965 63.3281 43.6133 63.3281V64.3281ZM47.2852 64.9727L46.9118 65.9004C47.8448 66.2758 48.6221 66.8152 49.2585 67.5186L50 66.8477L50.7415 66.1767C49.8935 65.2395 48.861 64.5289 47.6585 64.045L47.2852 64.9727ZM50 66.8477L49.2643 67.525C49.9122 68.2287 50.4177 69.1028 50.769 70.1686L51.7188 69.8555L52.6685 69.5424C52.2386 68.2384 51.5983 67.1073 50.7357 66.1703L50 66.8477ZM51.7188 69.8555L50.769 70.1686C51.1205 71.2345 51.3047 72.4673 51.3047 73.8789H52.3047H53.3047C53.3047 72.2958 53.0983 70.8462 52.6685 69.5424L51.7188 69.8555ZM52.3047 73.8789H51.3047C51.3047 75.037 51.1259 76.132 50.7722 77.1695L51.7188 77.4922L52.6653 77.8149C53.0928 76.5607 53.3047 75.2469 53.3047 73.8789H52.3047ZM51.7188 77.4922L50.7734 77.1662C50.4255 78.175 49.8997 79.0764 49.1922 79.8767L49.9414 80.5391L50.6906 81.2014C51.5716 80.2049 52.2307 79.075 52.6641 77.8182L51.7188 77.4922ZM49.9414 80.5391L49.197 79.8713C48.5097 80.6375 47.6384 81.2523 46.5628 81.7082L46.9531 82.6289L47.3434 83.5496C48.6637 82.9899 49.7846 82.2114 50.6858 81.2068L49.9414 80.5391ZM46.9531 82.6289L46.5628 81.7082C45.5161 82.152 44.2356 82.3906 42.6953 82.3906V83.3906V84.3906C44.4363 84.3906 45.9944 84.1215 47.3434 83.5496L46.9531 82.6289ZM42.6953 83.3906V82.3906C41.5724 82.3906 40.4899 82.2237 39.4438 81.8908L39.1406 82.8438L38.8374 83.7967C40.0831 84.193 41.3703 84.3906 42.6953 84.3906V83.3906ZM39.1406 82.8438L39.447 81.8918C38.4239 81.5626 37.5078 81.0773 36.692 80.4363L36.0742 81.2227L35.4564 82.009C36.4635 82.8003 37.5917 83.3958 38.8343 83.7957L39.1406 82.8438ZM36.0742 81.2227L36.6975 80.4407C35.9052 79.8091 35.2698 79.0481 34.7867 78.1509L33.9062 78.625L33.0258 79.0991C33.6364 80.2332 34.4464 81.2039 35.4509 82.0046L36.0742 81.2227ZM33.9062 78.625L34.7938 78.1644C34.3398 77.2895 34.0896 76.2719 34.0662 75.0896L33.0664 75.1094L32.0666 75.1292C32.0953 76.577 32.405 77.9032 33.0187 79.0856L33.9062 78.625ZM33.0664 75.1094V76.1094H38.6523V75.1094V74.1094H33.0664V75.1094ZM38.6523 75.1094L37.657 75.2057C37.7462 76.1275 37.9886 76.9676 38.4115 77.6995L39.2773 77.1992L40.1432 76.6989C39.889 76.2589 39.7147 75.7058 39.6477 75.0131L38.6523 75.1094ZM39.2773 77.1992L38.425 77.7222C38.8651 78.4394 39.4542 79.0065 40.1852 79.4052L40.6641 78.5273L41.1429 77.6494C40.7281 77.4232 40.3927 77.1049 40.1297 76.6762L39.2773 77.1992ZM40.6641 78.5273L40.1852 79.4052C40.9291 79.811 41.7699 79.9961 42.6758 79.9961V78.9961V77.9961C42.0452 77.9961 41.5449 77.8687 41.1429 77.6494L40.6641 78.5273ZM42.6758 78.9961V79.9961C43.518 79.9961 44.3012 79.8351 44.9858 79.4664L44.5117 78.5859L44.0376 77.7055C43.7066 77.8837 43.2658 77.9961 42.6758 77.9961V78.9961ZM44.5117 78.5859L44.9858 79.4664C45.6409 79.1137 46.1768 78.6207 46.5812 77.9973L45.7422 77.4531L44.9032 76.9089C44.6826 77.2491 44.3982 77.5113 44.0376 77.7055L44.5117 78.5859ZM45.7422 77.4531L46.5877 77.9871C46.97 77.3817 47.2377 76.6979 47.4024 75.9492L46.4258 75.7344L45.4491 75.5195C45.3274 76.0729 45.1394 76.5349 44.8967 76.9191L45.7422 77.4531ZM46.4258 75.7344L47.3992 75.9634C47.5752 75.2156 47.6602 74.4218 47.6602 73.5859H46.6602H45.6602C45.6602 74.2866 45.5889 74.9251 45.4524 75.5053L46.4258 75.7344ZM46.6602 73.5859H47.6602C47.6602 72.7395 47.5598 71.9467 47.3467 71.2161L46.3867 71.4961L45.4267 71.7761C45.5782 72.2955 45.6602 72.8959 45.6602 73.5859H46.6602ZM46.3867 71.4961L47.3467 71.2161C47.1301 70.4732 46.79 69.8079 46.3169 69.237L45.5469 69.875L44.7769 70.513C45.059 70.8535 45.2788 71.269 45.4267 71.7761L46.3867 71.4961ZM45.5469 69.875L46.3169 69.237C45.8293 68.6485 45.2131 68.2041 44.4905 67.8991L44.1016 68.8203L43.7126 69.7416C44.1619 69.9313 44.5092 70.19 44.7769 70.513L45.5469 69.875ZM44.1016 68.8203L44.498 67.9023C43.7745 67.5898 42.9638 67.4492 42.0898 67.4492V68.4492V69.4492C42.7524 69.4492 43.2827 69.556 43.7051 69.7384L44.1016 68.8203ZM42.0898 68.4492V67.4492C40.9661 67.4492 39.9606 67.6211 39.174 68.068L39.668 68.9375L40.162 69.807C40.5211 69.6029 41.1303 69.4492 42.0898 69.4492V68.4492ZM39.668 68.9375L39.1653 68.073C38.5298 68.4425 37.977 68.8758 37.5207 69.3793L38.2617 70.0508L39.0027 70.7223C39.3017 70.3924 39.6864 70.0835 40.1706 69.802L39.668 68.9375Z" fill="black" mask="url(#path-7-outside-2_275_874)"/>
</g>
<path d="M14.5616 5.11468C16.1644 5.34009 17.5106 6.45647 18.381 8.12475C19.2511 9.79263 19.633 11.9941 19.3044 14.3322C18.9758 16.6705 18.0018 18.6822 16.7056 20.0457C15.4092 21.4091 13.8073 22.1105 12.2046 21.8854C10.6017 21.6601 9.25448 20.5443 8.38406 18.8762C7.51391 17.2083 7.13218 15.006 7.4608 12.6677C7.7894 10.3296 8.76336 8.31867 10.0594 6.95524C11.356 5.59138 12.9586 4.88939 14.5616 5.11468Z" fill="url(#paint3_linear_275_874)" stroke="#540000" stroke-width="0.5"/>
<mask id="path-10-outside-3_275_874" maskUnits="userSpaceOnUse" x="10" y="10" width="6" height="7" fill="black">
<rect fill="white" x="10" y="10" width="6" height="7"/>
<path d="M12.4414 13.4336L11.5039 13.1953L12.2383 10.3125H14.9805L14.8242 11.2969H13.0508L12.7266 12.4727C12.8151 12.4102 12.9128 12.3607 13.0195 12.3242C13.1263 12.2878 13.2344 12.2669 13.3438 12.2617C13.6042 12.2643 13.8164 12.3229 13.9805 12.4375C14.1471 12.5495 14.2747 12.6992 14.3633 12.8867C14.4544 13.0716 14.5143 13.2747 14.543 13.4961C14.5716 13.7174 14.5768 13.9323 14.5586 14.1406C14.5378 14.3958 14.4792 14.6406 14.3828 14.875C14.2891 15.1094 14.1615 15.319 14 15.5039C13.8411 15.6888 13.651 15.8333 13.4297 15.9375C13.2083 16.0417 12.9622 16.0898 12.6914 16.082C12.457 16.0768 12.2474 16.0286 12.0625 15.9375C11.8776 15.8438 11.7201 15.7188 11.5898 15.5625C11.4622 15.4062 11.3659 15.2279 11.3008 15.0273C11.2383 14.8268 11.2096 14.6159 11.2148 14.3945H12.3672C12.3672 14.4857 12.375 14.5859 12.3906 14.6953C12.4062 14.8047 12.4414 14.8997 12.4961 14.9805C12.5534 15.0612 12.6419 15.1042 12.7617 15.1094C12.8919 15.1146 12.9974 15.082 13.0781 15.0117C13.1589 14.9388 13.2214 14.8464 13.2656 14.7344C13.3099 14.6224 13.3424 14.5065 13.3633 14.3867C13.3841 14.2643 13.3971 14.1576 13.4023 14.0664C13.4102 13.9805 13.4141 13.8841 13.4141 13.7773C13.4167 13.6706 13.4049 13.569 13.3789 13.4727C13.3555 13.3763 13.3112 13.2969 13.2461 13.2344C13.181 13.1719 13.0898 13.1393 12.9727 13.1367C12.8581 13.1393 12.7565 13.168 12.668 13.2227C12.582 13.2747 12.5065 13.3451 12.4414 13.4336Z"/>
</mask>
<path d="M12.4414 13.4336L11.5039 13.1953L12.2383 10.3125H14.9805L14.8242 11.2969H13.0508L12.7266 12.4727C12.8151 12.4102 12.9128 12.3607 13.0195 12.3242C13.1263 12.2878 13.2344 12.2669 13.3438 12.2617C13.6042 12.2643 13.8164 12.3229 13.9805 12.4375C14.1471 12.5495 14.2747 12.6992 14.3633 12.8867C14.4544 13.0716 14.5143 13.2747 14.543 13.4961C14.5716 13.7174 14.5768 13.9323 14.5586 14.1406C14.5378 14.3958 14.4792 14.6406 14.3828 14.875C14.2891 15.1094 14.1615 15.319 14 15.5039C13.8411 15.6888 13.651 15.8333 13.4297 15.9375C13.2083 16.0417 12.9622 16.0898 12.6914 16.082C12.457 16.0768 12.2474 16.0286 12.0625 15.9375C11.8776 15.8438 11.7201 15.7188 11.5898 15.5625C11.4622 15.4062 11.3659 15.2279 11.3008 15.0273C11.2383 14.8268 11.2096 14.6159 11.2148 14.3945H12.3672C12.3672 14.4857 12.375 14.5859 12.3906 14.6953C12.4062 14.8047 12.4414 14.8997 12.4961 14.9805C12.5534 15.0612 12.6419 15.1042 12.7617 15.1094C12.8919 15.1146 12.9974 15.082 13.0781 15.0117C13.1589 14.9388 13.2214 14.8464 13.2656 14.7344C13.3099 14.6224 13.3424 14.5065 13.3633 14.3867C13.3841 14.2643 13.3971 14.1576 13.4023 14.0664C13.4102 13.9805 13.4141 13.8841 13.4141 13.7773C13.4167 13.6706 13.4049 13.569 13.3789 13.4727C13.3555 13.3763 13.3112 13.2969 13.2461 13.2344C13.181 13.1719 13.0898 13.1393 12.9727 13.1367C12.8581 13.1393 12.7565 13.168 12.668 13.2227C12.582 13.2747 12.5065 13.3451 12.4414 13.4336Z" fill="#790000"/>
<path d="M12.4414 13.4336L12.3675 13.7243L12.5634 13.7741L12.6831 13.6113L12.4414 13.4336ZM11.5039 13.1953L11.2132 13.1213L11.1391 13.4121L11.43 13.4861L11.5039 13.1953ZM12.2383 10.3125V10.0125H12.0051L11.9476 10.2384L12.2383 10.3125ZM14.9805 10.3125L15.2768 10.3595L15.3318 10.0125H14.9805V10.3125ZM14.8242 11.2969V11.5969H15.0804L15.1205 11.3439L14.8242 11.2969ZM13.0508 11.2969V10.9969H12.8223L12.7616 11.2171L13.0508 11.2969ZM12.7266 12.4727L12.4374 12.3929L12.2144 13.2014L12.8996 12.7177L12.7266 12.4727ZM13.0195 12.3242L12.9226 12.0403L13.0195 12.3242ZM13.3438 12.2617L13.3468 11.9617L13.3381 11.9616L13.3295 11.9621L13.3438 12.2617ZM13.9805 12.4375L13.8087 12.6835L13.8132 12.6865L13.9805 12.4375ZM14.3633 12.8867L14.092 13.0148L14.0942 13.0194L14.3633 12.8867ZM14.5586 14.1406L14.2597 14.1145L14.2596 14.1162L14.5586 14.1406ZM14.3828 14.875L14.1053 14.7609L14.1043 14.7636L14.3828 14.875ZM14 15.5039L13.774 15.3066L13.7724 15.3084L14 15.5039ZM12.6914 16.082L12.7001 15.7821L12.6981 15.7821L12.6914 16.082ZM12.0625 15.9375L11.9268 16.2051L11.9299 16.2066L12.0625 15.9375ZM11.5898 15.5625L11.3575 15.7523L11.3594 15.7546L11.5898 15.5625ZM11.3008 15.0273L11.0144 15.1166L11.0154 15.12L11.3008 15.0273ZM11.2148 14.3945V14.0945H10.9218L10.9149 14.3875L11.2148 14.3945ZM12.3672 14.3945H12.6672V14.0945H12.3672V14.3945ZM12.4961 14.9805L12.2477 15.1488L12.2514 15.1541L12.4961 14.9805ZM12.7617 15.1094L12.7487 15.4091L12.7497 15.4091L12.7617 15.1094ZM13.0781 15.0117L13.2752 15.238L13.2792 15.2343L13.0781 15.0117ZM13.3633 14.3867L13.6588 14.4381L13.659 14.4371L13.3633 14.3867ZM13.4023 14.0664L13.1034 14.0392L13.1028 14.0493L13.4023 14.0664ZM13.4141 13.7773L13.1141 13.77V13.7773H13.4141ZM13.3789 13.4727L13.0873 13.5436L13.0893 13.5509L13.3789 13.4727ZM12.9727 13.1367L12.9793 12.8365L12.9658 12.8368L12.9727 13.1367ZM12.668 13.2227L12.8235 13.4792L12.8256 13.4779L12.668 13.2227ZM12.4414 13.4336L12.5153 13.1428L11.5778 12.9046L11.5039 13.1953L11.43 13.4861L12.3675 13.7243L12.4414 13.4336ZM11.5039 13.1953L11.7946 13.2694L12.529 10.3866L12.2383 10.3125L11.9476 10.2384L11.2132 13.1213L11.5039 13.1953ZM12.2383 10.3125V10.6125H14.9805V10.3125V10.0125H12.2383V10.3125ZM14.9805 10.3125L14.6842 10.2655L14.5279 11.2498L14.8242 11.2969L15.1205 11.3439L15.2768 10.3595L14.9805 10.3125ZM14.8242 11.2969V10.9969H13.0508V11.2969V11.5969H14.8242V11.2969ZM13.0508 11.2969L12.7616 11.2171L12.4374 12.3929L12.7266 12.4727L13.0158 12.5524L13.34 11.3766L13.0508 11.2969ZM12.7266 12.4727L12.8996 12.7177C12.9638 12.6724 13.0357 12.6357 13.1165 12.6081L13.0195 12.3242L12.9226 12.0403C12.7899 12.0856 12.6664 12.1479 12.5536 12.2276L12.7266 12.4727ZM13.0195 12.3242L13.1165 12.6081C13.1974 12.5805 13.2777 12.5652 13.358 12.5614L13.3438 12.2617L13.3295 11.9621C13.1911 11.9686 13.0552 11.995 12.9226 12.0403L13.0195 12.3242ZM13.3438 12.2617L13.3407 12.5617C13.5588 12.5639 13.7071 12.6125 13.8087 12.6835L13.9805 12.4375L14.1522 12.1915C13.9257 12.0333 13.6495 11.9648 13.3468 11.9617L13.3438 12.2617ZM13.9805 12.4375L13.8132 12.6865C13.9334 12.7673 14.0258 12.8746 14.092 13.0148L14.3633 12.8867L14.6346 12.7586C14.5237 12.5238 14.3609 12.3317 14.1478 12.1885L13.9805 12.4375ZM14.3633 12.8867L14.0942 13.0194C14.1696 13.1723 14.2207 13.3433 14.2455 13.5346L14.543 13.4961L14.8405 13.4576C14.808 13.2062 14.7393 12.9709 14.6324 12.7541L14.3633 12.8867ZM14.543 13.4961L14.2455 13.5346C14.2715 13.7359 14.276 13.9291 14.2597 14.1145L14.5586 14.1406L14.8575 14.1668C14.8777 13.9355 14.8717 13.699 14.8405 13.4576L14.543 13.4961ZM14.5586 14.1406L14.2596 14.1162C14.2412 14.3409 14.1898 14.5555 14.1053 14.7609L14.3828 14.875L14.6603 14.9891C14.7685 14.7258 14.8343 14.4507 14.8576 14.165L14.5586 14.1406ZM14.3828 14.875L14.1043 14.7636C14.0227 14.9675 13.9126 15.1479 13.774 15.3066L14 15.5039L14.226 15.7012C14.4103 15.4901 14.5554 15.2513 14.6614 14.9864L14.3828 14.875ZM14 15.5039L13.7724 15.3084C13.6412 15.4611 13.4852 15.5798 13.3019 15.6661L13.4297 15.9375L13.5574 16.2089C13.8169 16.0868 14.041 15.9165 14.2276 15.6994L14 15.5039ZM13.4297 15.9375L13.3019 15.6661C13.1276 15.7481 12.929 15.7888 12.7001 15.7822L12.6914 16.082L12.6828 16.3819C12.9955 16.3909 13.2891 16.3352 13.5574 16.2089L13.4297 15.9375ZM12.6914 16.082L12.6981 15.7821C12.5014 15.7777 12.3357 15.7377 12.1951 15.6684L12.0625 15.9375L11.9299 16.2066C12.159 16.3196 12.4126 16.3759 12.6847 16.382L12.6914 16.082ZM12.0625 15.9375L12.1982 15.6699C12.049 15.5943 11.9239 15.4947 11.8203 15.3704L11.5898 15.5625L11.3594 15.7546C11.5162 15.9428 11.7062 16.0932 11.9268 16.2051L12.0625 15.9375ZM11.5898 15.5625L11.8222 15.3727C11.7192 15.2466 11.6403 15.1015 11.5861 14.9347L11.3008 15.0273L11.0154 15.12C11.0915 15.3543 11.2053 15.5659 11.3575 15.7523L11.5898 15.5625ZM11.3008 15.0273L11.5872 14.9381C11.5349 14.7704 11.5103 14.5921 11.5148 14.4016L11.2148 14.3945L10.9149 14.3875C10.909 14.6397 10.9416 14.8833 11.0144 15.1166L11.3008 15.0273ZM11.2148 14.3945V14.6945H12.3672V14.3945V14.0945H11.2148V14.3945ZM12.3672 14.3945H12.0672C12.0672 14.5025 12.0764 14.6171 12.0936 14.7377L12.3906 14.6953L12.6876 14.6529C12.6736 14.5547 12.6672 14.4689 12.6672 14.3945H12.3672ZM12.3906 14.6953L12.0936 14.7377C12.1148 14.8862 12.1643 15.0255 12.2477 15.1487L12.4961 14.9805L12.7445 14.8122C12.7185 14.7739 12.6977 14.7232 12.6876 14.6529L12.3906 14.6953ZM12.4961 14.9805L12.2514 15.1541C12.3738 15.3265 12.5581 15.4008 12.7487 15.4091L12.7617 15.1094L12.7747 14.8097C12.7471 14.8085 12.7367 14.8035 12.7364 14.8033C12.7363 14.8033 12.7374 14.8038 12.739 14.8052C12.7405 14.8065 12.7411 14.8073 12.7407 14.8068L12.4961 14.9805ZM12.7617 15.1094L12.7497 15.4091C12.9389 15.4167 13.1247 15.369 13.2752 15.2379L13.0781 15.0117L12.8811 14.7855C12.8701 14.7951 12.845 14.8125 12.7737 14.8096L12.7617 15.1094ZM13.0781 15.0117L13.2792 15.2343C13.3977 15.1273 13.4852 14.9949 13.5446 14.8447L13.2656 14.7344L12.9866 14.6241C12.9575 14.6978 12.92 14.7503 12.877 14.7891L13.0781 15.0117ZM13.2656 14.7344L13.5446 14.8447C13.5965 14.7135 13.6345 14.5779 13.6588 14.4381L13.3633 14.3867L13.0677 14.3353C13.0504 14.4352 13.0233 14.5313 12.9866 14.6241L13.2656 14.7344ZM13.3633 14.3867L13.659 14.4371C13.6811 14.3073 13.6958 14.1889 13.7019 14.0835L13.4023 14.0664L13.1028 14.0493C13.0984 14.1262 13.0871 14.2214 13.0675 14.3364L13.3633 14.3867ZM13.4023 14.0664L13.7011 14.0936C13.7099 13.9968 13.7141 13.8912 13.7141 13.7773H13.4141H13.1141C13.1141 13.8771 13.1104 13.9642 13.1036 14.0392L13.4023 14.0664ZM13.4141 13.7773L13.714 13.7847C13.7172 13.651 13.7026 13.5205 13.6685 13.3944L13.3789 13.4727L13.0893 13.5509C13.1073 13.6175 13.1161 13.6901 13.1142 13.77L13.4141 13.7773ZM13.3789 13.4727L13.6704 13.4018C13.6349 13.2556 13.5642 13.1239 13.4539 13.018L13.2461 13.2344L13.0383 13.4508C13.0582 13.4699 13.0761 13.497 13.0874 13.5436L13.3789 13.4727ZM13.2461 13.2344L13.4539 13.018C13.3199 12.8894 13.1485 12.8406 12.9793 12.8368L12.9727 13.1367L12.966 13.4366C12.999 13.4374 13.0183 13.4422 13.028 13.4456C13.0327 13.4473 13.0353 13.4487 13.0365 13.4494C13.0376 13.4501 13.038 13.4505 13.0383 13.4508L13.2461 13.2344ZM12.9727 13.1367L12.9658 12.8368C12.8035 12.8405 12.6488 12.8819 12.5103 12.9674L12.668 13.2227L12.8256 13.4779C12.8642 13.454 12.9127 13.4382 12.9795 13.4366L12.9727 13.1367ZM12.668 13.2227L12.5125 12.9661C12.3899 13.0404 12.2859 13.1386 12.1997 13.2559L12.4414 13.4336L12.6831 13.6113C12.7271 13.5515 12.7742 13.5091 12.8235 13.4792L12.668 13.2227Z" fill="#4D0000" mask="url(#path-10-outside-3_275_874)"/>
<rect x="1" y="70" width="3" height="2" fill="#790000"/>
<rect x="1" y="73" width="3" height="2" fill="#790000"/>
<rect x="1" y="67" width="3" height="2" fill="#790000"/>
<rect x="1" y="64" width="3" height="2" fill="#790000"/>
<rect x="1" y="61" width="3" height="2" fill="#790000"/>
<rect x="81" y="70" width="3" height="2" fill="#790000"/>
<rect x="81" y="73" width="3" height="2" fill="#790000"/>
<rect x="81" y="67" width="3" height="2" fill="#790000"/>
<rect x="81" y="64" width="3" height="2" fill="#790000"/>
<rect x="81" y="61" width="3" height="2" fill="#790000"/>
<rect x="41" y="134" width="2" height="2" transform="rotate(90 41 134)" fill="#790000"/>
<rect x="38" y="134" width="2" height="2" transform="rotate(90 38 134)" fill="#790000"/>
<rect x="44" y="134" width="2" height="2" transform="rotate(90 44 134)" fill="#790000"/>
<rect x="47" y="134" width="2" height="2" transform="rotate(90 47 134)" fill="#790000"/>
<rect x="50" y="134" width="2" height="2" transform="rotate(90 50 134)" fill="#790000"/>
<rect x="41" y="1" width="2" height="2" transform="rotate(90 41 1)" fill="#790000"/>
<rect x="38" y="1" width="2" height="2" transform="rotate(90 38 1)" fill="#790000"/>
<rect x="44" y="1" width="2" height="2" transform="rotate(90 44 1)" fill="#790000"/>
<rect x="47" y="1" width="2" height="2" transform="rotate(90 47 1)" fill="#790000"/>
<rect x="50" y="1" width="2" height="2" transform="rotate(90 50 1)" fill="#790000"/>
<defs>
<filter id="filter0_d_275_874" x="9.5" y="24.5" width="65" height="100" filterUnits="userSpaceOnUse" color-interpolation-filters="sRGB">
<feFlood flood-opacity="0" result="BackgroundImageFix"/>
<feColorMatrix in="SourceAlpha" type="matrix" values="0 0 0 0 0 0 0 0 0 0 0 0 0 0 0 0 0 0 127 0" result="hardAlpha"/>
<feOffset dy="4"/>
<feGaussianBlur stdDeviation="2"/>
<feComposite in2="hardAlpha" operator="out"/>
<feColorMatrix type="matrix" values="0 0 0 0 0 0 0 0 0 0 0 0 0 0 0 0 0 0 0.25 0"/>
<feBlend mode="normal" in2="BackgroundImageFix" result="effect1_dropShadow_275_874"/>
<feBlend mode="normal" in="SourceGraphic" in2="effect1_dropShadow_275_874" result="shape"/>
</filter>
<filter id="filter1_d_275_874" x="28.0464" y="53.5625" width="29.2583" height="38.8281" filterUnits="userSpaceOnUse" color-interpolation-filters="sRGB">
<feFlood flood-opacity="0" result="BackgroundImageFix"/>
<feColorMatrix in="SourceAlpha" type="matrix" values="0 0 0 0 0 0 0 0 0 0 0 0 0 0 0 0 0 0 127 0" result="hardAlpha"/>
<feOffset dy="4"/>
<feGaussianBlur stdDeviation="2"/>
<feComposite in2="hardAlpha" operator="out"/>
<feColorMatrix type="matrix" values="0 0 0 0 0 0 0 0 0 0 0 0 0 0 0 0 0 0 0.25 0"/>
<feBlend mode="normal" in2="BackgroundImageFix" result="effect1_dropShadow_275_874"/>
<feBlend mode="normal" in="SourceGraphic" in2="effect1_dropShadow_275_874" result="shape"/>
</filter>
<linearGradient id="paint0_linear_275_874" x1="42.5" y1="3" x2="42.5" y2="134" gradientUnits="userSpaceOnUse">
<stop stop-color="#7C0606" stop-opacity="0.95"/>
<stop offset="1" stop-color="#300000"/>
</linearGradient>
<linearGradient id="paint1_linear_275_874" x1="70.5962" y1="112.867" x2="68.1697" y2="130.133" gradientUnits="userSpaceOnUse">
<stop stop-color="#FFE8E8"/>
<stop offset="1" stop-color="#5A1212"/>
</linearGradient>
<linearGradient id="paint2_linear_275_874" x1="42" y1="25" x2="42" y2="116" gradientUnits="userSpaceOnUse">
<stop stop-color="#DD4444" stop-opacity="0.95"/>
<stop offset="1" stop-color="#560000"/>
</linearGradient>
<linearGradient id="paint3_linear_275_874" x1="14.596" y1="4.86706" x2="12.1694" y2="22.1329" gradientUnits="userSpaceOnUse">
<stop stop-color="#FFE8E8" stop-opacity="0.95"/>
<stop offset="1" stop-color="#5A1212"/>
</linearGradient>
</defs>
</svg>
