<svg width="85" height="137" viewBox="0 0 85 137" fill="none" xmlns="http://www.w3.org/2000/svg">
<rect x="0.5" y="0.5" width="84" height="136" rx="9.5" fill="white" stroke="black"/>
<rect x="4.5" y="3.5" width="76" height="130" rx="9.5" fill="url(#paint0_linear_275_745)" stroke="black"/>
<path d="M70.5616 113.115C72.1644 113.34 73.5106 114.456 74.381 116.125C75.2511 117.793 75.633 119.994 75.3044 122.332C74.9758 124.67 74.0018 126.682 72.7056 128.046C71.4092 129.409 69.8073 130.111 68.2046 129.885C66.6017 129.66 65.2545 128.544 64.3841 126.876C63.5139 125.208 63.1322 123.006 63.4608 120.668C63.7894 118.33 64.7634 116.319 66.0594 114.955C67.356 113.591 68.9586 112.889 70.5616 113.115Z" fill="url(#paint1_linear_275_745)" stroke="#0E3D84" stroke-width="0.5"/>
<mask id="path-4-outside-1_275_745" maskUnits="userSpaceOnUse" x="64.4622" y="118" width="9" height="8" fill="black">
<rect fill="white" x="64.4622" y="118" width="9" height="8"/>
<path d="M70.0883 124.695L71.0492 119H72.2094L71.4711 123.254L72.5688 122.859L72.393 123.863L70.225 124.691L70.0883 124.695ZM65.5242 122.352L65.6805 121.344C65.7169 121.07 65.7794 120.79 65.868 120.504C65.9565 120.217 66.0776 119.952 66.2313 119.707C66.3823 119.465 66.5737 119.271 66.8055 119.125C67.0373 118.979 67.3198 118.911 67.6531 118.922C67.9057 118.927 68.1167 118.982 68.286 119.086C68.4526 119.193 68.5867 119.331 68.6883 119.5C68.7873 119.672 68.8589 119.862 68.9031 120.07C68.9474 120.279 68.9709 120.492 68.9735 120.711C68.9761 120.932 68.9656 121.142 68.9422 121.34L68.786 122.352C68.7469 122.625 68.6844 122.904 68.5985 123.188C68.5099 123.474 68.3888 123.738 68.2352 123.98C68.0815 124.225 67.8888 124.419 67.657 124.562C67.4253 124.708 67.1427 124.776 66.8094 124.766C66.5568 124.76 66.3472 124.704 66.1805 124.598C66.0112 124.493 65.8771 124.355 65.7781 124.184C65.6792 124.014 65.6076 123.826 65.5633 123.617C65.519 123.409 65.4956 123.195 65.493 122.977C65.4904 122.758 65.5008 122.549 65.5242 122.352ZM66.8563 121.18L66.661 122.52C66.6557 122.574 66.6466 122.651 66.6336 122.75C66.618 122.849 66.6076 122.957 66.6024 123.074C66.5945 123.194 66.5972 123.309 66.6102 123.418C66.6206 123.527 66.6492 123.618 66.6961 123.691C66.743 123.764 66.8146 123.803 66.911 123.809C67.0542 123.819 67.1701 123.776 67.2586 123.68C67.3445 123.586 67.411 123.465 67.4578 123.316C67.5047 123.171 67.5386 123.023 67.5594 122.875C67.5802 122.727 67.5959 122.608 67.6063 122.52L67.8016 121.18C67.8068 121.13 67.8172 121.055 67.8328 120.953C67.8459 120.854 67.8563 120.745 67.8641 120.625C67.8719 120.505 67.8706 120.389 67.8602 120.277C67.8472 120.168 67.8172 120.076 67.7703 120C67.7235 119.927 67.6518 119.887 67.5555 119.879C67.4123 119.868 67.2977 119.911 67.2117 120.008C67.1232 120.104 67.0555 120.227 67.0086 120.375C66.9617 120.523 66.9279 120.672 66.907 120.82C66.8862 120.971 66.8693 121.091 66.8563 121.18Z"/>
</mask>
<path d="M70.0883 124.695L71.0492 119H72.2094L71.4711 123.254L72.5688 122.859L72.393 123.863L70.225 124.691L70.0883 124.695ZM65.5242 122.352L65.6805 121.344C65.7169 121.07 65.7794 120.79 65.868 120.504C65.9565 120.217 66.0776 119.952 66.2313 119.707C66.3823 119.465 66.5737 119.271 66.8055 119.125C67.0373 118.979 67.3198 118.911 67.6531 118.922C67.9057 118.927 68.1167 118.982 68.286 119.086C68.4526 119.193 68.5867 119.331 68.6883 119.5C68.7873 119.672 68.8589 119.862 68.9031 120.07C68.9474 120.279 68.9709 120.492 68.9735 120.711C68.9761 120.932 68.9656 121.142 68.9422 121.34L68.786 122.352C68.7469 122.625 68.6844 122.904 68.5985 123.188C68.5099 123.474 68.3888 123.738 68.2352 123.98C68.0815 124.225 67.8888 124.419 67.657 124.562C67.4253 124.708 67.1427 124.776 66.8094 124.766C66.5568 124.76 66.3472 124.704 66.1805 124.598C66.0112 124.493 65.8771 124.355 65.7781 124.184C65.6792 124.014 65.6076 123.826 65.5633 123.617C65.519 123.409 65.4956 123.195 65.493 122.977C65.4904 122.758 65.5008 122.549 65.5242 122.352ZM66.8563 121.18L66.661 122.52C66.6557 122.574 66.6466 122.651 66.6336 122.75C66.618 122.849 66.6076 122.957 66.6024 123.074C66.5945 123.194 66.5972 123.309 66.6102 123.418C66.6206 123.527 66.6492 123.618 66.6961 123.691C66.743 123.764 66.8146 123.803 66.911 123.809C67.0542 123.819 67.1701 123.776 67.2586 123.68C67.3445 123.586 67.411 123.465 67.4578 123.316C67.5047 123.171 67.5386 123.023 67.5594 122.875C67.5802 122.727 67.5959 122.608 67.6063 122.52L67.8016 121.18C67.8068 121.13 67.8172 121.055 67.8328 120.953C67.8459 120.854 67.8563 120.745 67.8641 120.625C67.8719 120.505 67.8706 120.389 67.8602 120.277C67.8472 120.168 67.8172 120.076 67.7703 120C67.7235 119.927 67.6518 119.887 67.5555 119.879C67.4123 119.868 67.2977 119.911 67.2117 120.008C67.1232 120.104 67.0555 120.227 67.0086 120.375C66.9617 120.523 66.9279 120.672 66.907 120.82C66.8862 120.971 66.8693 121.091 66.8563 121.18Z" fill="#0F4EAD"/>
<path d="M70.0883 124.695L69.7925 124.645L69.7317 125.006L70.0969 124.995L70.0883 124.695ZM71.0492 119V118.7H70.7956L70.7534 118.95L71.0492 119ZM72.2094 119L72.505 119.051L72.5659 118.7H72.2094V119ZM71.4711 123.254L71.1755 123.203L71.0874 123.711L71.5726 123.536L71.4711 123.254ZM72.5688 122.859L72.8643 122.911L72.9534 122.402L72.4673 122.577L72.5688 122.859ZM72.393 123.863L72.5 124.144L72.6591 124.083L72.6885 123.915L72.393 123.863ZM70.225 124.691L70.2336 124.991L70.2845 124.99L70.3321 124.972L70.225 124.691ZM70.0883 124.695L70.3841 124.745L71.3451 119.05L71.0492 119L70.7534 118.95L69.7925 124.645L70.0883 124.695ZM71.0492 119V119.3H72.2094V119V118.7H71.0492V119ZM72.2094 119L71.9138 118.949L71.1755 123.203L71.4711 123.254L71.7667 123.305L72.505 119.051L72.2094 119ZM71.4711 123.254L71.5726 123.536L72.6702 123.142L72.5688 122.859L72.4673 122.577L71.3696 122.972L71.4711 123.254ZM72.5688 122.859L72.2733 122.808L72.0975 123.812L72.393 123.863L72.6885 123.915L72.8643 122.911L72.5688 122.859ZM72.393 123.863L72.2859 123.583L70.118 124.411L70.225 124.691L70.3321 124.972L72.5 124.144L72.393 123.863ZM70.225 124.691L70.2164 124.392L70.0797 124.395L70.0883 124.695L70.0969 124.995L70.2336 124.991L70.225 124.691ZM65.5242 122.352L65.2276 122.306L65.2263 122.316L65.5242 122.352ZM65.6805 121.344L65.977 121.39L65.9779 121.383L65.6805 121.344ZM66.2313 119.707L66.4854 119.867L66.4858 119.866L66.2313 119.707ZM67.6531 118.922L67.6438 119.222L67.647 119.222L67.6531 118.922ZM68.286 119.086L68.4478 118.833L68.4432 118.83L68.286 119.086ZM68.6883 119.5L68.9483 119.35L68.9455 119.346L68.6883 119.5ZM68.9031 120.07L69.1966 120.008L68.9031 120.07ZM68.9735 120.711L69.2734 120.707V120.707L68.9735 120.711ZM68.9422 121.34L69.2389 121.386L69.2401 121.375L68.9422 121.34ZM68.786 122.352L68.4895 122.306L68.489 122.309L68.786 122.352ZM68.5985 123.188L68.8851 123.276L68.8856 123.274L68.5985 123.188ZM68.2352 123.98L67.9818 123.82L67.9811 123.821L68.2352 123.98ZM67.657 124.562L67.4993 124.307L67.4973 124.309L67.657 124.562ZM66.8094 124.766L66.8188 124.466L66.8156 124.466L66.8094 124.766ZM66.1805 124.598L66.3423 124.345L66.3377 124.342L66.1805 124.598ZM65.7781 124.184L66.0381 124.034L66.0371 124.032L65.7781 124.184ZM66.8563 121.18L66.5595 121.136L66.5594 121.136L66.8563 121.18ZM66.661 122.52L66.3641 122.476L66.363 122.484L66.3623 122.491L66.661 122.52ZM66.6336 122.75L66.93 122.797L66.931 122.789L66.6336 122.75ZM66.6024 123.074L66.9018 123.094L66.9021 123.088L66.6024 123.074ZM66.6102 123.418L66.9089 123.39L66.9081 123.383L66.6102 123.418ZM66.911 123.809L66.9327 123.509L66.9271 123.509L66.911 123.809ZM67.2586 123.68L67.4795 123.883L67.4798 123.882L67.2586 123.68ZM67.4578 123.316L67.1722 123.225L67.1718 123.226L67.4578 123.316ZM67.6063 122.52L67.3093 122.476L67.3083 122.484L67.6063 122.52ZM67.8016 121.18L68.0987 121.223L68.0999 121.211L67.8016 121.18ZM67.8328 120.953L68.1294 120.999L68.1303 120.992L67.8328 120.953ZM67.8602 120.277L68.159 120.25L68.1581 120.242L67.8602 120.277ZM67.7703 120L68.0253 119.842L68.0227 119.838L67.7703 120ZM67.5555 119.879L67.5797 119.58L67.5772 119.58L67.5555 119.879ZM67.2117 120.008L67.4327 120.211L67.4356 120.207L67.2117 120.008ZM66.907 120.82L66.61 120.779L66.6099 120.779L66.907 120.82ZM65.5242 122.352L65.8207 122.398L65.9769 121.39L65.6805 121.344L65.384 121.298L65.2278 122.306L65.5242 122.352ZM65.6805 121.344L65.9779 121.383C66.0119 121.128 66.0706 120.864 66.1546 120.592L65.868 120.504L65.5814 120.415C65.4883 120.716 65.422 121.013 65.3831 121.304L65.6805 121.344ZM65.868 120.504L66.1546 120.592C66.2357 120.33 66.3461 120.088 66.4854 119.867L66.2313 119.707L65.9772 119.548C65.8091 119.815 65.6773 120.105 65.5814 120.415L65.868 120.504ZM66.2313 119.707L66.4858 119.866C66.6139 119.66 66.7735 119.5 66.9653 119.379L66.8055 119.125L66.6457 118.871C66.3739 119.042 66.1507 119.269 65.9767 119.548L66.2313 119.707ZM66.8055 119.125L66.9653 119.379C67.1364 119.271 67.357 119.213 67.6438 119.222L67.6531 118.922L67.6625 118.622C67.2826 118.61 66.9381 118.687 66.6457 118.871L66.8055 119.125ZM67.6531 118.922L67.647 119.222C67.8604 119.226 68.0157 119.272 68.1287 119.341L68.286 119.086L68.4432 118.83C68.2176 118.692 67.9511 118.628 67.6593 118.622L67.6531 118.922ZM68.286 119.086L68.1241 119.339C68.2519 119.42 68.3534 119.525 68.4311 119.654L68.6883 119.5L68.9455 119.346C68.8201 119.137 68.6533 118.965 68.4478 118.833L68.286 119.086ZM68.6883 119.5L68.4283 119.65C68.5105 119.792 68.5715 119.953 68.6097 120.133L68.9031 120.07L69.1966 120.008C69.1463 119.771 69.064 119.551 68.9483 119.35L68.6883 119.5ZM68.9031 120.07L68.6097 120.133C68.6497 120.321 68.6711 120.515 68.6735 120.715L68.9735 120.711L69.2734 120.707C69.2706 120.469 69.2451 120.236 69.1966 120.008L68.9031 120.07ZM68.9735 120.711L68.6735 120.714C68.6759 120.924 68.666 121.121 68.6443 121.305L68.9422 121.34L69.2401 121.375C69.2652 121.163 69.2762 120.94 69.2734 120.707L68.9735 120.711ZM68.9422 121.34L68.6457 121.294L68.4895 122.306L68.786 122.352L69.0824 122.397L69.2387 121.386L68.9422 121.34ZM68.786 122.352L68.489 122.309C68.4522 122.566 68.3932 122.83 68.3113 123.101L68.5985 123.188L68.8856 123.274C68.9756 122.977 69.0416 122.684 69.0829 122.394L68.786 122.352ZM68.5985 123.188L68.3118 123.099C68.2308 123.361 68.1206 123.601 67.9819 123.82L68.2352 123.98L68.4885 124.141C68.657 123.876 68.789 123.587 68.8851 123.276L68.5985 123.188ZM68.2352 123.98L67.9811 123.821C67.8503 124.029 67.6897 124.19 67.4993 124.307L67.657 124.562L67.8148 124.818C68.0879 124.649 68.3128 124.421 68.4893 124.14L68.2352 123.98ZM67.657 124.562L67.4973 124.309C67.3262 124.416 67.1056 124.475 66.8188 124.466L66.8094 124.766L66.8 125.065C67.1799 125.077 67.5244 125 67.8168 124.816L67.657 124.562ZM66.8094 124.766L66.8156 124.466C66.6032 124.461 66.4512 124.415 66.3423 124.345L66.1805 124.598L66.0187 124.85C66.2431 124.994 66.5104 125.06 66.8032 125.066L66.8094 124.766ZM66.1805 124.598L66.3377 124.342C66.2109 124.264 66.1121 124.162 66.0381 124.034L65.7781 124.184L65.5182 124.333C65.6421 124.549 65.8116 124.723 66.0233 124.853L66.1805 124.598ZM65.7781 124.184L66.0371 124.032C65.9557 123.893 65.8949 123.735 65.8567 123.555L65.5633 123.617L65.2699 123.68C65.3202 123.917 65.4027 124.136 65.5192 124.335L65.7781 124.184ZM65.5633 123.617L65.8567 123.555C65.8167 123.366 65.7953 123.173 65.793 122.973L65.493 122.977L65.193 122.98C65.1958 123.218 65.2214 123.451 65.2699 123.68L65.5633 123.617ZM65.493 122.977L65.793 122.973C65.7905 122.766 65.8004 122.571 65.8222 122.387L65.5242 122.352L65.2263 122.316C65.2012 122.528 65.1903 122.75 65.193 122.98L65.493 122.977ZM66.8563 121.18L66.5594 121.136L66.3641 122.476L66.661 122.52L66.9578 122.563L67.1531 121.223L66.8563 121.18ZM66.661 122.52L66.3623 122.491C66.3576 122.54 66.349 122.613 66.3362 122.711L66.6336 122.75L66.931 122.789C66.9442 122.689 66.9539 122.608 66.9596 122.548L66.661 122.52ZM66.6336 122.75L66.3373 122.703C66.3196 122.815 66.3083 122.934 66.3027 123.061L66.6024 123.074L66.9021 123.088C66.9069 122.98 66.9163 122.883 66.9299 122.797L66.6336 122.75ZM66.6024 123.074L66.303 123.055C66.2941 123.191 66.2969 123.324 66.3123 123.453L66.6102 123.418L66.9081 123.383C66.8974 123.293 66.895 123.197 66.9017 123.094L66.6024 123.074ZM66.6102 123.418L66.3115 123.446C66.3253 123.591 66.365 123.731 66.4438 123.854L66.6961 123.691L66.9485 123.529C66.9335 123.506 66.9159 123.464 66.9088 123.39L66.6102 123.418ZM66.6961 123.691L66.4438 123.854C66.5492 124.018 66.7148 124.098 66.8948 124.108L66.911 123.809L66.9271 123.509C66.9155 123.508 66.9186 123.507 66.9286 123.512C66.9334 123.515 66.938 123.518 66.942 123.522C66.9459 123.525 66.9479 123.528 66.9485 123.529L66.6961 123.691ZM66.911 123.809L66.8892 124.108C67.1136 124.124 67.3224 124.054 67.4795 123.883L67.2586 123.68L67.0377 123.477C67.0177 123.498 66.9948 123.514 66.9327 123.509L66.911 123.809ZM67.2586 123.68L67.4798 123.882C67.6011 123.75 67.6867 123.588 67.7439 123.407L67.4578 123.316L67.1718 123.226C67.1352 123.342 67.088 123.422 67.0375 123.477L67.2586 123.68ZM67.4578 123.316L67.7434 123.408C67.7955 123.246 67.8332 123.083 67.8565 122.917L67.5594 122.875L67.2623 122.833C67.2439 122.964 67.214 123.095 67.1722 123.225L67.4578 123.316ZM67.5594 122.875L67.8565 122.917C67.8774 122.767 67.8934 122.646 67.9042 122.555L67.6063 122.52L67.3083 122.484C67.2983 122.57 67.283 122.686 67.2623 122.833L67.5594 122.875ZM67.6063 122.52L67.9031 122.563L68.0984 121.223L67.8016 121.18L67.5047 121.136L67.3094 122.476L67.6063 122.52ZM67.8016 121.18L68.0999 121.211C68.1044 121.169 68.1139 121.099 68.1293 120.999L67.8328 120.953L67.5363 120.908C67.5206 121.01 67.5092 121.091 67.5032 121.148L67.8016 121.18ZM67.8328 120.953L68.1303 120.992C68.1443 120.886 68.1553 120.77 68.1634 120.645L67.8641 120.625L67.5647 120.605C67.5572 120.72 67.5474 120.823 67.5354 120.914L67.8328 120.953ZM67.8641 120.625L68.1634 120.645C68.1722 120.51 68.1709 120.378 68.1589 120.25L67.8602 120.277L67.5615 120.305C67.5703 120.4 67.5716 120.5 67.5647 120.605L67.8641 120.625ZM67.8602 120.277L68.1581 120.242C68.1411 120.099 68.1001 119.962 68.0252 119.842L67.7703 120L67.5154 120.158C67.5343 120.189 67.5532 120.237 67.5623 120.313L67.8602 120.277ZM67.7703 120L68.0227 119.838C67.9189 119.676 67.757 119.594 67.5797 119.58L67.5555 119.879L67.5312 120.178C67.5437 120.179 67.5422 120.181 67.5342 120.176C67.5303 120.174 67.5265 120.171 67.5232 120.168C67.52 120.165 67.5183 120.163 67.518 120.162L67.7703 120ZM67.5555 119.879L67.5772 119.58C67.3531 119.563 67.1433 119.634 66.9878 119.808L67.2117 120.008L67.4356 120.207C67.452 120.189 67.4714 120.174 67.5337 120.178L67.5555 119.879ZM67.2117 120.008L66.9908 119.805C66.8675 119.939 66.7802 120.102 66.7225 120.285L67.0086 120.375L67.2947 120.465C67.3308 120.351 67.3789 120.269 67.4326 120.211L67.2117 120.008ZM67.0086 120.375L66.7225 120.285C66.6708 120.448 66.6332 120.613 66.61 120.779L66.907 120.82L67.2041 120.862C67.2226 120.731 67.2526 120.599 67.2947 120.465L67.0086 120.375ZM66.907 120.82L66.6099 120.779C66.5891 120.93 66.5723 121.049 66.5595 121.136L66.8563 121.18L67.1531 121.223C67.1663 121.134 67.1834 121.013 67.2042 120.861L66.907 120.82Z" fill="#00236D" mask="url(#path-4-outside-1_275_745)"/>
<g filter="url(#filter0_d_275_745)">
<ellipse cx="42" cy="70.5" rx="28" ry="45.5" fill="url(#paint2_linear_275_745)" shape-rendering="crispEdges"/>
<ellipse cx="42" cy="70.5" rx="28" ry="45.5" stroke="#0E3D84" shape-rendering="crispEdges"/>
</g>
<g filter="url(#filter1_d_275_745)">
<mask id="path-7-outside-2_275_745" maskUnits="userSpaceOnUse" x="21" y="53" width="42" height="32" fill="black">
<rect fill="white" x="21" y="53" width="42" height="32"/>
<path d="M35.2102 54.5039V83H29.5852V60.9883L22.8273 63.1367V58.7031L34.6047 54.5039H35.2102ZM61.9383 66.2812V71.2031C61.9383 73.3385 61.7104 75.181 61.2547 76.7305C60.799 78.2669 60.1414 79.5299 59.282 80.5195C58.4357 81.4961 57.4266 82.2188 56.2547 82.6875C55.0828 83.1562 53.7807 83.3906 52.3484 83.3906C51.2026 83.3906 50.1349 83.2474 49.1453 82.9609C48.1557 82.6615 47.2638 82.1992 46.4695 81.5742C45.6883 80.9492 45.0112 80.1615 44.4383 79.2109C43.8784 78.2474 43.4487 77.1016 43.1492 75.7734C42.8497 74.4453 42.7 72.9219 42.7 71.2031V66.2812C42.7 64.1458 42.9279 62.3164 43.3836 60.793C43.8523 59.2565 44.5099 58 45.3562 57.0234C46.2156 56.0469 47.2312 55.3307 48.4031 54.875C49.575 54.4062 50.8771 54.1719 52.3094 54.1719C53.4552 54.1719 54.5164 54.3216 55.493 54.6211C56.4825 54.9076 57.3745 55.3568 58.1687 55.9688C58.963 56.5807 59.6401 57.3685 60.2 58.332C60.7599 59.2826 61.1896 60.4219 61.4891 61.75C61.7885 63.0651 61.9383 64.5755 61.9383 66.2812ZM56.2937 71.9453V65.5195C56.2937 64.4909 56.2352 63.5924 56.118 62.8242C56.0138 62.056 55.851 61.4049 55.6297 60.8711C55.4083 60.3242 55.1349 59.8815 54.8094 59.543C54.4839 59.2044 54.1128 58.957 53.6961 58.8008C53.2794 58.6445 52.8172 58.5664 52.3094 58.5664C51.6714 58.5664 51.1049 58.6901 50.6102 58.9375C50.1284 59.1849 49.7182 59.582 49.3797 60.1289C49.0411 60.6628 48.7807 61.3789 48.5984 62.2773C48.4292 63.1628 48.3445 64.2435 48.3445 65.5195V71.9453C48.3445 72.974 48.3966 73.8789 48.5008 74.6602C48.618 75.4414 48.7872 76.112 49.0086 76.6719C49.243 77.2188 49.5164 77.668 49.8289 78.0195C50.1544 78.3581 50.5255 78.6055 50.9422 78.7617C51.3719 78.918 51.8406 78.9961 52.3484 78.9961C52.9734 78.9961 53.5268 78.8724 54.0086 78.625C54.5034 78.3646 54.92 77.9609 55.2586 77.4141C55.6102 76.8542 55.8706 76.125 56.0398 75.2266C56.2091 74.3281 56.2937 73.2344 56.2937 71.9453Z"/>
</mask>
<path d="M35.2102 54.5039V83H29.5852V60.9883L22.8273 63.1367V58.7031L34.6047 54.5039H35.2102ZM61.9383 66.2812V71.2031C61.9383 73.3385 61.7104 75.181 61.2547 76.7305C60.799 78.2669 60.1414 79.5299 59.282 80.5195C58.4357 81.4961 57.4266 82.2188 56.2547 82.6875C55.0828 83.1562 53.7807 83.3906 52.3484 83.3906C51.2026 83.3906 50.1349 83.2474 49.1453 82.9609C48.1557 82.6615 47.2638 82.1992 46.4695 81.5742C45.6883 80.9492 45.0112 80.1615 44.4383 79.2109C43.8784 78.2474 43.4487 77.1016 43.1492 75.7734C42.8497 74.4453 42.7 72.9219 42.7 71.2031V66.2812C42.7 64.1458 42.9279 62.3164 43.3836 60.793C43.8523 59.2565 44.5099 58 45.3562 57.0234C46.2156 56.0469 47.2312 55.3307 48.4031 54.875C49.575 54.4062 50.8771 54.1719 52.3094 54.1719C53.4552 54.1719 54.5164 54.3216 55.493 54.6211C56.4825 54.9076 57.3745 55.3568 58.1687 55.9688C58.963 56.5807 59.6401 57.3685 60.2 58.332C60.7599 59.2826 61.1896 60.4219 61.4891 61.75C61.7885 63.0651 61.9383 64.5755 61.9383 66.2812ZM56.2937 71.9453V65.5195C56.2937 64.4909 56.2352 63.5924 56.118 62.8242C56.0138 62.056 55.851 61.4049 55.6297 60.8711C55.4083 60.3242 55.1349 59.8815 54.8094 59.543C54.4839 59.2044 54.1128 58.957 53.6961 58.8008C53.2794 58.6445 52.8172 58.5664 52.3094 58.5664C51.6714 58.5664 51.1049 58.6901 50.6102 58.9375C50.1284 59.1849 49.7182 59.582 49.3797 60.1289C49.0411 60.6628 48.7807 61.3789 48.5984 62.2773C48.4292 63.1628 48.3445 64.2435 48.3445 65.5195V71.9453C48.3445 72.974 48.3966 73.8789 48.5008 74.6602C48.618 75.4414 48.7872 76.112 49.0086 76.6719C49.243 77.2188 49.5164 77.668 49.8289 78.0195C50.1544 78.3581 50.5255 78.6055 50.9422 78.7617C51.3719 78.918 51.8406 78.9961 52.3484 78.9961C52.9734 78.9961 53.5268 78.8724 54.0086 78.625C54.5034 78.3646 54.92 77.9609 55.2586 77.4141C55.6102 76.8542 55.8706 76.125 56.0398 75.2266C56.2091 74.3281 56.2937 73.2344 56.2937 71.9453Z" fill="#0F4EAD"/>
<path d="M35.2102 54.5039H36.2102V53.5039H35.2102V54.5039ZM35.2102 83V84H36.2102V83H35.2102ZM29.5852 83H28.5852V84H29.5852V83ZM29.5852 60.9883H30.5852V59.621L29.2822 60.0353L29.5852 60.9883ZM22.8273 63.1367H21.8273V64.504L23.1303 64.0897L22.8273 63.1367ZM22.8273 58.7031L22.4915 57.7612L21.8273 57.998V58.7031H22.8273ZM34.6047 54.5039V53.5039H34.4317L34.2688 53.562L34.6047 54.5039ZM35.2102 54.5039H34.2102V83H35.2102H36.2102V54.5039H35.2102ZM35.2102 83V82H29.5852V83V84H35.2102V83ZM29.5852 83H30.5852V60.9883H29.5852H28.5852V83H29.5852ZM29.5852 60.9883L29.2822 60.0353L22.5244 62.1837L22.8273 63.1367L23.1303 64.0897L29.8881 61.9413L29.5852 60.9883ZM22.8273 63.1367H23.8273V58.7031H22.8273H21.8273V63.1367H22.8273ZM22.8273 58.7031L23.1632 59.645L34.9405 55.4458L34.6047 54.5039L34.2688 53.562L22.4915 57.7612L22.8273 58.7031ZM34.6047 54.5039V55.5039H35.2102V54.5039V53.5039H34.6047V54.5039ZM61.2547 76.7305L62.2134 77.0148L62.2141 77.0126L61.2547 76.7305ZM59.282 80.5195L58.527 79.8638L58.5263 79.8646L59.282 80.5195ZM49.1453 82.9609L48.8556 83.9181L48.8673 83.9215L49.1453 82.9609ZM46.4695 81.5742L45.8448 82.3551L45.8511 82.3601L46.4695 81.5742ZM44.4383 79.2109L43.5737 79.7134L43.5777 79.7203L43.5818 79.7272L44.4383 79.2109ZM43.1492 75.7734L42.1737 75.9934L43.1492 75.7734ZM43.3836 60.793L42.4271 60.5012L42.4255 60.5064L43.3836 60.793ZM45.3562 57.0234L44.6055 56.3628L44.6006 56.3685L45.3562 57.0234ZM48.4031 54.875L48.7656 55.807L48.7745 55.8035L48.4031 54.875ZM55.493 54.6211L55.1998 55.5771L55.2073 55.5795L55.2149 55.5817L55.493 54.6211ZM60.2 58.332L59.3354 58.8345L59.3384 58.8396L60.2 58.332ZM61.4891 61.75L60.5135 61.97L60.514 61.972L61.4891 61.75ZM56.118 62.8242L55.127 62.9586L55.1282 62.9668L55.1294 62.975L56.118 62.8242ZM55.6297 60.8711L54.7027 61.2463L54.7059 61.2541L55.6297 60.8711ZM50.6102 58.9375L50.1629 58.043L50.1534 58.0479L50.6102 58.9375ZM49.3797 60.1289L50.2242 60.6645L50.2299 60.6553L49.3797 60.1289ZM48.5984 62.2773L47.6183 62.0785L47.6162 62.0896L48.5984 62.2773ZM48.5008 74.6602L47.5096 74.7923L47.5106 74.8004L47.5118 74.8085L48.5008 74.6602ZM49.0086 76.6719L48.0786 77.0395L48.0839 77.0527L48.0894 77.0658L49.0086 76.6719ZM49.8289 78.0195L49.0815 78.6839L49.0945 78.6985L49.1081 78.7126L49.8289 78.0195ZM50.9422 78.7617L50.591 79.6981L50.6004 79.7015L50.9422 78.7617ZM54.0086 78.625L54.4654 79.5146L54.4743 79.5099L54.0086 78.625ZM55.2586 77.4141L54.4117 76.8823L54.4083 76.8877L55.2586 77.4141ZM61.9383 66.2812H60.9383V71.2031H61.9383H62.9383V66.2812H61.9383ZM61.9383 71.2031H60.9383C60.9383 73.2718 60.717 75.0145 60.2953 76.4483L61.2547 76.7305L62.2141 77.0126C62.7038 75.3475 62.9383 73.4053 62.9383 71.2031H61.9383ZM61.2547 76.7305L60.296 76.4461C59.872 77.8755 59.2743 79.0033 58.527 79.8638L59.282 80.5195L60.0371 81.1752C61.0085 80.0566 61.7259 78.6584 62.2134 77.0148L61.2547 76.7305ZM59.282 80.5195L58.5263 79.8646C57.7819 80.7236 56.9035 81.351 55.8833 81.759L56.2547 82.6875L56.6261 83.616C57.9497 83.0865 59.0895 82.2686 60.0377 81.1745L59.282 80.5195ZM56.2547 82.6875L55.8833 81.759C54.8444 82.1746 53.6705 82.3906 52.3484 82.3906V83.3906V84.3906C53.8909 84.3906 55.3212 84.1379 56.6261 83.616L56.2547 82.6875ZM52.3484 83.3906V82.3906C51.2863 82.3906 50.3131 82.2579 49.4234 82.0004L49.1453 82.9609L48.8673 83.9215C49.9567 84.2369 51.1189 84.3906 52.3484 84.3906V83.3906ZM49.1453 82.9609L49.435 82.0038C48.5619 81.7396 47.782 81.3345 47.0879 80.7883L46.4695 81.5742L45.8511 82.3601C46.7456 83.0639 47.7496 83.5833 48.8557 83.9181L49.1453 82.9609ZM46.4695 81.5742L47.0942 80.7934C46.4148 80.2498 45.8133 79.555 45.2947 78.6947L44.4383 79.2109L43.5818 79.7272C44.2091 80.7679 44.9618 81.6486 45.8448 82.3551L46.4695 81.5742ZM44.4383 79.2109L45.3029 78.7085C44.804 77.8499 44.4066 76.8035 44.1247 75.5535L43.1492 75.7734L42.1737 75.9934C42.4908 77.3996 42.9528 78.6449 43.5737 79.7134L44.4383 79.2109ZM43.1492 75.7734L44.1247 75.5535C43.8451 74.3135 43.7 72.8662 43.7 71.2031H42.7H41.7C41.7 72.9775 41.8544 74.5772 42.1737 75.9934L43.1492 75.7734ZM42.7 71.2031H43.7V66.2812H42.7H41.7V71.2031H42.7ZM42.7 66.2812H43.7C43.7 64.2119 43.9214 62.4844 44.3416 61.0796L43.3836 60.793L42.4255 60.5064C41.9343 62.1484 41.7 64.0797 41.7 66.2812H42.7ZM43.3836 60.793L44.3401 61.0848C44.7776 59.6505 45.3766 58.5269 46.1119 57.6784L45.3562 57.0234L44.6006 56.3685C43.6432 57.4731 42.927 58.8625 42.4271 60.5012L43.3836 60.793ZM45.3562 57.0234L46.107 57.6841C46.8643 56.8234 47.7482 56.2026 48.7656 55.807L48.4031 54.875L48.0407 53.943C46.7143 54.4588 45.5669 55.2703 44.6055 56.3628L45.3562 57.0234ZM48.4031 54.875L48.7745 55.8035C49.8134 55.3879 50.9873 55.1719 52.3094 55.1719V54.1719V53.1719C50.7669 53.1719 49.3366 53.4246 48.0317 53.9465L48.4031 54.875ZM52.3094 54.1719V55.1719C53.3678 55.1719 54.329 55.3101 55.1998 55.5771L55.493 54.6211L55.7862 53.665C54.7038 53.3331 53.5426 53.1719 52.3094 53.1719V54.1719ZM55.493 54.6211L55.2149 55.5817C56.0875 55.8343 56.8661 56.2275 57.5584 56.7609L58.1687 55.9688L58.7791 55.1766C57.8828 54.4861 56.8776 53.9808 55.771 53.6605L55.493 54.6211ZM58.1687 55.9688L57.5584 56.7609C58.2391 57.2853 58.8334 57.9706 59.3354 58.8344L60.2 58.332L61.0646 57.8296C60.4468 56.7664 59.687 55.8761 58.7791 55.1766L58.1687 55.9688ZM60.2 58.332L59.3384 58.8396C59.835 59.6826 60.2318 60.7203 60.5135 61.97L61.4891 61.75L62.4646 61.53C62.1474 60.1235 61.6848 58.8825 61.0616 57.8245L60.2 58.332ZM61.4891 61.75L60.514 61.972C60.7932 63.1981 60.9383 64.6316 60.9383 66.2812H61.9383H62.9383C62.9383 64.5195 62.7839 62.9321 62.4641 61.528L61.4891 61.75ZM56.2937 71.9453H57.2937V65.5195H56.2937H55.2937V71.9453H56.2937ZM56.2937 65.5195H57.2937C57.2937 64.4555 57.2333 63.5045 57.1065 62.6734L56.118 62.8242L55.1294 62.975C55.237 63.6804 55.2937 64.5263 55.2937 65.5195H56.2937ZM56.118 62.8242L57.1089 62.6899C56.9968 61.8633 56.8168 61.1234 56.5534 60.4881L55.6297 60.8711L54.7059 61.2541C54.8852 61.6865 55.0308 62.2487 55.127 62.9586L56.118 62.8242ZM55.6297 60.8711L56.5566 60.4959C56.2993 59.86 55.9635 59.3005 55.5302 58.8499L54.8094 59.543L54.0885 60.2361C54.3063 60.4625 54.5174 60.7884 54.7027 61.2463L55.6297 60.8711ZM54.8094 59.543L55.5302 58.8499C55.107 58.4098 54.6115 58.076 54.0472 57.8645L53.6961 58.8008L53.345 59.7371C53.6141 59.838 53.8607 59.9991 54.0885 60.2361L54.8094 59.543ZM53.6961 58.8008L54.0472 57.8645C53.5036 57.6606 52.9204 57.5664 52.3094 57.5664V58.5664V59.5664C52.714 59.5664 53.0552 59.6285 53.345 59.7371L53.6961 58.8008ZM52.3094 58.5664V57.5664C51.54 57.5664 50.8164 57.7163 50.1629 58.0431L50.6102 58.9375L51.0574 59.8319C51.3934 59.6639 51.8027 59.5664 52.3094 59.5664V58.5664ZM50.6102 58.9375L50.1534 58.0479C49.4818 58.3928 48.9456 58.9303 48.5294 59.6026L49.3797 60.1289L50.2299 60.6553C50.4909 60.2337 50.775 59.977 51.067 59.8271L50.6102 58.9375ZM49.3797 60.1289L48.5352 59.5934C48.109 60.2655 47.815 61.1097 47.6184 62.0785L48.5984 62.2773L49.5785 62.4762C49.7465 61.6481 49.9733 61.06 50.2242 60.6644L49.3797 60.1289ZM48.5984 62.2773L47.6162 62.0896C47.4314 63.0565 47.3445 64.2042 47.3445 65.5195H48.3445H49.3445C49.3445 64.2828 49.427 63.2691 49.5806 62.4651L48.5984 62.2773ZM48.3445 65.5195H47.3445V71.9453H48.3445H49.3445V65.5195H48.3445ZM48.3445 71.9453H47.3445C47.3445 73.0056 47.3981 73.9564 47.5096 74.7923L48.5008 74.6602L49.492 74.528C49.3951 73.8014 49.3445 72.9423 49.3445 71.9453H48.3445ZM48.5008 74.6602L47.5118 74.8085C47.637 75.643 47.8223 76.3911 48.0786 77.0395L49.0086 76.6719L49.9386 76.3042C49.7522 75.8329 49.5989 75.2398 49.4897 74.5118L48.5008 74.6602ZM49.0086 76.6719L48.0894 77.0658C48.3555 77.6865 48.6816 78.234 49.0815 78.6839L49.8289 78.0195L50.5763 77.3552C50.3513 77.102 50.1305 76.751 49.9277 76.278L49.0086 76.6719ZM49.8289 78.0195L49.1081 78.7126C49.5312 79.1527 50.0268 79.4865 50.5911 79.698L50.9422 78.7617L51.2933 77.8254C51.0242 77.7245 50.7776 77.5634 50.5497 77.3264L49.8289 78.0195ZM50.9422 78.7617L50.6004 79.7015C51.1511 79.9018 51.7369 79.9961 52.3484 79.9961V78.9961V77.9961C51.9443 77.9961 51.5926 77.9342 51.2839 77.8219L50.9422 78.7617ZM52.3484 78.9961V79.9961C53.1078 79.9961 53.822 79.845 54.4654 79.5146L54.0086 78.625L53.5518 77.7354C53.2317 77.8998 52.8391 77.9961 52.3484 77.9961V78.9961ZM54.0086 78.625L54.4743 79.5099C55.1495 79.1546 55.6908 78.6158 56.1089 77.9404L55.2586 77.4141L54.4083 76.8877C54.1493 77.3061 53.8573 77.5746 53.5428 77.7401L54.0086 78.625ZM55.2586 77.4141L56.1055 77.9458C56.5438 77.2478 56.8384 76.3893 57.0226 75.4117L56.0398 75.2266L55.0571 75.0414C54.9028 75.8607 54.6765 76.4606 54.4117 76.8823L55.2586 77.4141ZM56.0398 75.2266L57.0226 75.4117C57.2069 74.4331 57.2937 73.2734 57.2937 71.9453H56.2937H55.2937C55.2937 73.1953 55.2113 74.2231 55.0571 75.0414L56.0398 75.2266Z" fill="black" mask="url(#path-7-outside-2_275_745)"/>
</g>
<path d="M14.5616 5.11468C16.1644 5.34009 17.5106 6.45647 18.381 8.12475C19.2511 9.79263 19.633 11.9941 19.3044 14.3322C18.9758 16.6705 18.0018 18.6822 16.7056 20.0457C15.4092 21.4091 13.8073 22.1105 12.2046 21.8854C10.6017 21.6601 9.25448 20.5443 8.38406 18.8762C7.51391 17.2083 7.13218 15.006 7.4608 12.6677C7.7894 10.3296 8.76336 8.31867 10.0594 6.95524C11.356 5.59138 12.9586 4.88939 14.5616 5.11468Z" fill="url(#paint3_linear_275_745)" stroke="#0E3D84" stroke-width="0.5"/>
<mask id="path-10-outside-3_275_745" maskUnits="userSpaceOnUse" x="9" y="9" width="9" height="8" fill="black">
<rect fill="white" x="9" y="9" width="9" height="8"/>
<path d="M12.1594 10.3047L11.1984 16H10.0383L10.7766 11.7461L9.67891 12.1406L9.85469 11.1367L12.0227 10.3086L12.1594 10.3047ZM16.7234 12.6484L16.5672 13.6562C16.5307 13.9297 16.4682 14.2096 16.3797 14.4961C16.2911 14.7826 16.1701 15.0482 16.0164 15.293C15.8654 15.5352 15.674 15.7292 15.4422 15.875C15.2104 16.0208 14.9279 16.0885 14.5945 16.0781C14.3419 16.0729 14.131 16.0182 13.9617 15.9141C13.7951 15.8073 13.6609 15.6693 13.5594 15.5C13.4604 15.3281 13.3888 15.138 13.3445 14.9297C13.3003 14.7214 13.2768 14.5078 13.2742 14.2891C13.2716 14.0677 13.282 13.8581 13.3055 13.6602L13.4617 12.6484C13.5008 12.375 13.5633 12.0964 13.6492 11.8125C13.7378 11.526 13.8589 11.2617 14.0125 11.0195C14.1661 10.7747 14.3589 10.5807 14.5906 10.4375C14.8224 10.2917 15.1049 10.224 15.4383 10.2344C15.6909 10.2396 15.9005 10.2956 16.0672 10.4023C16.2365 10.5065 16.3706 10.6445 16.4695 10.8164C16.5685 10.9857 16.6401 11.1745 16.6844 11.3828C16.7286 11.5911 16.7521 11.8047 16.7547 12.0234C16.7573 12.2422 16.7469 12.4505 16.7234 12.6484ZM15.3914 13.8203L15.5867 12.4805C15.5919 12.4258 15.601 12.349 15.6141 12.25C15.6297 12.151 15.6401 12.043 15.6453 11.9258C15.6531 11.806 15.6505 11.6914 15.6375 11.582C15.6271 11.4727 15.5984 11.3815 15.5516 11.3086C15.5047 11.2357 15.4331 11.1966 15.3367 11.1914C15.1935 11.181 15.0776 11.224 14.9891 11.3203C14.9031 11.4141 14.8367 11.5352 14.7898 11.6836C14.743 11.8294 14.7091 11.9766 14.6883 12.125C14.6674 12.2734 14.6518 12.3919 14.6414 12.4805L14.4461 13.8203C14.4409 13.8698 14.4305 13.9453 14.4148 14.0469C14.4018 14.1458 14.3914 14.2552 14.3836 14.375C14.3758 14.4948 14.3771 14.6107 14.3875 14.7227C14.4005 14.832 14.4305 14.9245 14.4773 15C14.5242 15.0729 14.5958 15.1133 14.6922 15.1211C14.8354 15.1315 14.95 15.0885 15.0359 14.9922C15.1245 14.8958 15.1922 14.7734 15.2391 14.625C15.2859 14.4766 15.3198 14.3281 15.3406 14.1797C15.3615 14.0286 15.3784 13.9089 15.3914 13.8203Z"/>
</mask>
<path d="M12.1594 10.3047L11.1984 16H10.0383L10.7766 11.7461L9.67891 12.1406L9.85469 11.1367L12.0227 10.3086L12.1594 10.3047ZM16.7234 12.6484L16.5672 13.6562C16.5307 13.9297 16.4682 14.2096 16.3797 14.4961C16.2911 14.7826 16.1701 15.0482 16.0164 15.293C15.8654 15.5352 15.674 15.7292 15.4422 15.875C15.2104 16.0208 14.9279 16.0885 14.5945 16.0781C14.3419 16.0729 14.131 16.0182 13.9617 15.9141C13.7951 15.8073 13.6609 15.6693 13.5594 15.5C13.4604 15.3281 13.3888 15.138 13.3445 14.9297C13.3003 14.7214 13.2768 14.5078 13.2742 14.2891C13.2716 14.0677 13.282 13.8581 13.3055 13.6602L13.4617 12.6484C13.5008 12.375 13.5633 12.0964 13.6492 11.8125C13.7378 11.526 13.8589 11.2617 14.0125 11.0195C14.1661 10.7747 14.3589 10.5807 14.5906 10.4375C14.8224 10.2917 15.1049 10.224 15.4383 10.2344C15.6909 10.2396 15.9005 10.2956 16.0672 10.4023C16.2365 10.5065 16.3706 10.6445 16.4695 10.8164C16.5685 10.9857 16.6401 11.1745 16.6844 11.3828C16.7286 11.5911 16.7521 11.8047 16.7547 12.0234C16.7573 12.2422 16.7469 12.4505 16.7234 12.6484ZM15.3914 13.8203L15.5867 12.4805C15.5919 12.4258 15.601 12.349 15.6141 12.25C15.6297 12.151 15.6401 12.043 15.6453 11.9258C15.6531 11.806 15.6505 11.6914 15.6375 11.582C15.6271 11.4727 15.5984 11.3815 15.5516 11.3086C15.5047 11.2357 15.4331 11.1966 15.3367 11.1914C15.1935 11.181 15.0776 11.224 14.9891 11.3203C14.9031 11.4141 14.8367 11.5352 14.7898 11.6836C14.743 11.8294 14.7091 11.9766 14.6883 12.125C14.6674 12.2734 14.6518 12.3919 14.6414 12.4805L14.4461 13.8203C14.4409 13.8698 14.4305 13.9453 14.4148 14.0469C14.4018 14.1458 14.3914 14.2552 14.3836 14.375C14.3758 14.4948 14.3771 14.6107 14.3875 14.7227C14.4005 14.832 14.4305 14.9245 14.4773 15C14.5242 15.0729 14.5958 15.1133 14.6922 15.1211C14.8354 15.1315 14.95 15.0885 15.0359 14.9922C15.1245 14.8958 15.1922 14.7734 15.2391 14.625C15.2859 14.4766 15.3198 14.3281 15.3406 14.1797C15.3615 14.0286 15.3784 13.9089 15.3914 13.8203Z" fill="#0F4EAD"/>
<path d="M12.1594 10.3047L12.4552 10.3546L12.516 9.99438L12.1508 10.0048L12.1594 10.3047ZM11.1984 16V16.3H11.4521L11.4943 16.0499L11.1984 16ZM10.0383 16L9.7427 15.9487L9.68173 16.3H10.0383V16ZM10.7766 11.7461L11.0721 11.7974L11.1603 11.2894L10.6751 11.4638L10.7766 11.7461ZM9.67891 12.1406L9.3834 12.0889L9.29432 12.5976L9.78038 12.4229L9.67891 12.1406ZM9.85469 11.1367L9.74764 10.8565L9.58855 10.9172L9.55918 11.085L9.85469 11.1367ZM12.0227 10.3086L12.0141 10.0087L11.9632 10.0102L11.9156 10.0283L12.0227 10.3086ZM12.1594 10.3047L11.8636 10.2548L10.9026 15.9501L11.1984 16L11.4943 16.0499L12.4552 10.3546L12.1594 10.3047ZM11.1984 16V15.7H10.0383V16V16.3H11.1984V16ZM10.0383 16L10.3339 16.0513L11.0721 11.7974L10.7766 11.7461L10.481 11.6948L9.7427 15.9487L10.0383 16ZM10.7766 11.7461L10.6751 11.4638L9.57743 11.8583L9.67891 12.1406L9.78038 12.4229L10.878 12.0284L10.7766 11.7461ZM9.67891 12.1406L9.97441 12.1924L10.1502 11.1885L9.85469 11.1367L9.55918 11.085L9.3834 12.0889L9.67891 12.1406ZM9.85469 11.1367L9.96174 11.417L12.1297 10.5888L12.0227 10.3086L11.9156 10.0283L9.74764 10.8565L9.85469 11.1367ZM12.0227 10.3086L12.0312 10.6085L12.1679 10.6046L12.1594 10.3047L12.1508 10.0048L12.0141 10.0087L12.0227 10.3086ZM16.7234 12.6484L17.0201 12.6944L17.0214 12.6837L16.7234 12.6484ZM16.5672 13.6562L16.2707 13.6103L16.2698 13.6166L16.5672 13.6562ZM16.0164 15.293L15.7623 15.1335L15.7619 15.1342L16.0164 15.293ZM14.5945 16.0781L14.6039 15.7783L14.6007 15.7782L14.5945 16.0781ZM13.9617 15.9141L13.7999 16.1667L13.8045 16.1696L13.9617 15.9141ZM13.5594 15.5L13.2993 15.6497L13.3021 15.6543L13.5594 15.5ZM13.3445 14.9297L13.0511 14.992L13.3445 14.9297ZM13.2742 14.2891L12.9742 14.2926V14.2926L13.2742 14.2891ZM13.3055 13.6602L13.0088 13.6143L13.0076 13.6249L13.3055 13.6602ZM13.4617 12.6484L13.7582 12.6942L13.7587 12.6909L13.4617 12.6484ZM13.6492 11.8125L13.3626 11.7239L13.3621 11.7256L13.6492 11.8125ZM14.0125 11.0195L14.2658 11.1802L14.2666 11.179L14.0125 11.0195ZM14.5906 10.4375L14.7483 10.6927L14.7504 10.6914L14.5906 10.4375ZM15.4383 10.2344L15.4289 10.5342L15.4321 10.5343L15.4383 10.2344ZM16.0672 10.4023L15.9053 10.655L15.91 10.6578L16.0672 10.4023ZM16.4695 10.8164L16.2095 10.9661L16.2105 10.9678L16.4695 10.8164ZM15.3914 13.8203L15.6882 13.864L15.6883 13.8636L15.3914 13.8203ZM15.5867 12.4805L15.8836 12.5237L15.8847 12.5163L15.8854 12.5089L15.5867 12.4805ZM15.6141 12.25L15.3176 12.2032L15.3166 12.2109L15.6141 12.25ZM15.6453 11.9258L15.3459 11.9063L15.3456 11.9125L15.6453 11.9258ZM15.6375 11.582L15.3388 11.6105L15.3396 11.6175L15.6375 11.582ZM15.3367 11.1914L15.315 11.4907L15.3205 11.491L15.3367 11.1914ZM14.9891 11.3203L14.7682 11.1173L14.7679 11.1176L14.9891 11.3203ZM14.7898 11.6836L15.0755 11.7754L15.0759 11.7739L14.7898 11.6836ZM14.6414 12.4805L14.9384 12.5238L14.9394 12.5155L14.6414 12.4805ZM14.4461 13.8203L14.149 13.777L14.1477 13.7889L14.4461 13.8203ZM14.4148 14.0469L14.1183 14.0012L14.1174 14.0077L14.4148 14.0469ZM14.3875 14.7227L14.0887 14.7505L14.0896 14.7581L14.3875 14.7227ZM14.4773 15L14.2224 15.1582L14.225 15.1622L14.4773 15ZM14.6922 15.1211L14.6679 15.4201L14.6704 15.4203L14.6922 15.1211ZM15.0359 14.9922L14.815 14.7892L14.812 14.7925L15.0359 14.9922ZM15.3406 14.1797L15.6377 14.2214L15.6378 14.2207L15.3406 14.1797ZM16.7234 12.6484L16.427 12.6025L16.2707 13.6103L16.5672 13.6562L16.8636 13.7022L17.0199 12.6944L16.7234 12.6484ZM16.5672 13.6562L16.2698 13.6166C16.2358 13.8721 16.1771 14.1357 16.0931 14.4075L16.3797 14.4961L16.6663 14.5847C16.7594 14.2836 16.8257 13.9873 16.8646 13.6959L16.5672 13.6562ZM16.3797 14.4961L16.0931 14.4075C16.0119 14.67 15.9016 14.9116 15.7623 15.1335L16.0164 15.293L16.2705 15.4525C16.4385 15.1847 16.5703 14.8952 16.6663 14.5847L16.3797 14.4961ZM16.0164 15.293L15.7619 15.1342C15.6338 15.3396 15.4742 15.5004 15.2824 15.6211L15.4422 15.875L15.602 16.1289C15.8737 15.9579 16.097 15.7307 16.271 15.4517L16.0164 15.293ZM15.4422 15.875L15.2824 15.6211C15.1113 15.7288 14.8907 15.7872 14.6039 15.7783L14.5945 16.0781L14.5852 16.378C14.965 16.3898 15.3095 16.3129 15.602 16.1289L15.4422 15.875ZM14.5945 16.0781L14.6007 15.7782C14.3873 15.7738 14.232 15.7281 14.1189 15.6586L13.9617 15.9141L13.8045 16.1696C14.03 16.3084 14.2966 16.372 14.5883 16.3781L14.5945 16.0781ZM13.9617 15.9141L14.1235 15.6615C13.9957 15.5796 13.8943 15.4751 13.8166 15.3457L13.5594 15.5L13.3021 15.6543C13.4276 15.8634 13.5944 16.035 13.7999 16.1667L13.9617 15.9141ZM13.5594 15.5L13.8194 15.3503C13.7372 15.2076 13.6762 15.0472 13.638 14.8673L13.3445 14.9297L13.0511 14.992C13.1014 15.2288 13.1837 15.4487 13.2994 15.6497L13.5594 15.5ZM13.3445 14.9297L13.638 14.8673C13.5979 14.6788 13.5766 14.485 13.5742 14.2855L13.2742 14.2891L12.9742 14.2926C12.9771 14.5306 13.0026 14.7639 13.0511 14.992L13.3445 14.9297ZM13.2742 14.2891L13.5742 14.2855C13.5717 14.0757 13.5816 13.8792 13.6034 13.6954L13.3055 13.6602L13.0076 13.6249C12.9824 13.837 12.9715 14.0597 12.9742 14.2926L13.2742 14.2891ZM13.3055 13.6602L13.602 13.7059L13.7582 12.6942L13.4617 12.6484L13.1652 12.6026L13.009 13.6144L13.3055 13.6602ZM13.4617 12.6484L13.7587 12.6909C13.7955 12.4335 13.8545 12.1698 13.9363 11.8994L13.6492 11.8125L13.3621 11.7256C13.2721 12.0229 13.2061 12.3165 13.1647 12.606L13.4617 12.6484ZM13.6492 11.8125L13.9358 11.9011C14.0169 11.6389 14.1271 11.399 14.2658 11.1802L14.0125 11.0195L13.7592 10.8588C13.5907 11.1245 13.4586 11.4132 13.3626 11.7239L13.6492 11.8125ZM14.0125 11.0195L14.2666 11.179C14.3974 10.9707 14.5579 10.8104 14.7483 10.6927L14.5906 10.4375L14.4329 10.1823C14.1598 10.3511 13.9349 10.5788 13.7584 10.86L14.0125 11.0195ZM14.5906 10.4375L14.7504 10.6914C14.9215 10.5837 15.1421 10.5253 15.4289 10.5342L15.4383 10.2344L15.4477 9.93452C15.0678 9.92265 14.7233 9.99959 14.4309 10.1836L14.5906 10.4375ZM15.4383 10.2344L15.4321 10.5343C15.6445 10.5387 15.7965 10.5852 15.9054 10.655L16.0672 10.4023L16.229 10.1497C16.0046 10.006 15.7373 9.94048 15.4445 9.93444L15.4383 10.2344ZM16.0672 10.4023L15.91 10.6578C16.0368 10.7359 16.1356 10.8376 16.2095 10.9661L16.4695 10.8164L16.7295 10.6667C16.6056 10.4515 16.4361 10.2771 16.2244 10.1468L16.0672 10.4023ZM16.4695 10.8164L16.2105 10.9678C16.292 11.1071 16.3527 11.2655 16.3909 11.4452L16.6844 11.3828L16.9778 11.3205C16.9275 11.0835 16.845 10.8642 16.7285 10.665L16.4695 10.8164ZM16.6844 11.3828L16.3909 11.4452C16.431 11.6337 16.4523 11.8275 16.4547 12.027L16.7547 12.0234L17.0547 12.0199C17.0518 11.7819 17.0263 11.5486 16.9778 11.3205L16.6844 11.3828ZM16.7547 12.0234L16.4547 12.027C16.4572 12.234 16.4473 12.4293 16.4255 12.6132L16.7234 12.6484L17.0214 12.6837C17.0465 12.4717 17.0574 12.2504 17.0547 12.0199L16.7547 12.0234ZM15.3914 13.8203L15.6883 13.8636L15.8836 12.5237L15.5867 12.4805L15.2899 12.4372L15.0945 13.777L15.3914 13.8203ZM15.5867 12.4805L15.8854 12.5089C15.8901 12.4596 15.8986 12.3869 15.9115 12.2891L15.6141 12.25L15.3166 12.2109C15.3034 12.311 15.2938 12.392 15.2881 12.452L15.5867 12.4805ZM15.6141 12.25L15.9104 12.2968C15.928 12.1851 15.9394 12.0657 15.945 11.9391L15.6453 11.9258L15.3456 11.9125C15.3408 12.0203 15.3313 12.117 15.3177 12.2032L15.6141 12.25ZM15.6453 11.9258L15.9447 11.9453C15.9536 11.8088 15.9508 11.6757 15.9354 11.5466L15.6375 11.582L15.3396 11.6175C15.3503 11.7071 15.3527 11.8032 15.3459 11.9063L15.6453 11.9258ZM15.6375 11.582L15.9361 11.5536C15.9224 11.409 15.8827 11.2689 15.8039 11.1464L15.5516 11.3086L15.2992 11.4708C15.3142 11.4941 15.3318 11.5363 15.3389 11.6105L15.6375 11.582ZM15.5516 11.3086L15.8039 11.1464C15.6985 10.9823 15.5329 10.9016 15.3529 10.8918L15.3367 11.1914L15.3205 11.491C15.3321 11.4916 15.329 11.4934 15.319 11.488C15.3143 11.4854 15.3097 11.482 15.3057 11.4783C15.3018 11.4746 15.2998 11.4717 15.2992 11.4708L15.5516 11.3086ZM15.3367 11.1914L15.3585 10.8922C15.1341 10.8759 14.9253 10.9464 14.7682 11.1173L14.9891 11.3203L15.21 11.5233C15.23 11.5015 15.2529 11.4861 15.315 11.4906L15.3367 11.1914ZM14.9891 11.3203L14.7679 11.1176C14.6465 11.25 14.5609 11.4122 14.5038 11.5933L14.7898 11.6836L15.0759 11.7739C15.1125 11.6581 15.1597 11.5781 15.2102 11.523L14.9891 11.3203ZM14.7898 11.6836L14.5042 11.5918C14.4522 11.7536 14.4145 11.9175 14.3912 12.0833L14.6883 12.125L14.9854 12.1667C15.0038 12.0356 15.0337 11.9052 15.0755 11.7754L14.7898 11.6836ZM14.6883 12.125L14.3912 12.0833C14.3702 12.2327 14.3543 12.3537 14.3435 12.4454L14.6414 12.4805L14.9394 12.5155C14.9494 12.4302 14.9647 12.3142 14.9854 12.1667L14.6883 12.125ZM14.6414 12.4805L14.3445 12.4372L14.1492 13.777L14.4461 13.8203L14.743 13.8636L14.9383 12.5237L14.6414 12.4805ZM14.4461 13.8203L14.1477 13.7889C14.1433 13.8309 14.1338 13.9006 14.1183 14.0013L14.4148 14.0469L14.7114 14.0925C14.7271 13.9901 14.7385 13.9087 14.7444 13.8517L14.4461 13.8203ZM14.4148 14.0469L14.1174 14.0077C14.1034 14.1144 14.0924 14.2304 14.0842 14.3555L14.3836 14.375L14.683 14.3945C14.6904 14.28 14.7003 14.1773 14.7123 14.086L14.4148 14.0469ZM14.3836 14.375L14.0842 14.3555C14.0755 14.49 14.0768 14.6217 14.0888 14.7504L14.3875 14.7227L14.6862 14.6949C14.6774 14.5996 14.6761 14.4996 14.683 14.3945L14.3836 14.375ZM14.3875 14.7227L14.0896 14.7581C14.1066 14.9009 14.1476 15.0376 14.2225 15.1582L14.4773 15L14.7322 14.8418C14.7134 14.8114 14.6944 14.7632 14.6854 14.6872L14.3875 14.7227ZM14.4773 15L14.225 15.1622C14.3287 15.3236 14.4907 15.4057 14.6679 15.4201L14.6922 15.1211L14.7164 14.8221C14.704 14.8211 14.7054 14.8191 14.7135 14.8236C14.7173 14.8258 14.7211 14.8286 14.7245 14.8317C14.7277 14.8349 14.7293 14.8372 14.7297 14.8378L14.4773 15ZM14.6922 15.1211L14.6704 15.4203C14.8946 15.4366 15.1043 15.3662 15.2598 15.1919L15.0359 14.9922L14.812 14.7925C14.7957 14.8109 14.7762 14.8264 14.7139 14.8219L14.6922 15.1211ZM15.0359 14.9922L15.2568 15.1952C15.3802 15.0609 15.4675 14.8978 15.5251 14.7153L15.2391 14.625L14.953 14.5347C14.9169 14.6491 14.8688 14.7307 14.815 14.7892L15.0359 14.9922ZM15.2391 14.625L15.5251 14.7153C15.5768 14.5516 15.6145 14.3869 15.6377 14.2214L15.3406 14.1797L15.0435 14.138C15.0251 14.2693 14.995 14.4015 14.953 14.5347L15.2391 14.625ZM15.3406 14.1797L15.6378 14.2207C15.6586 14.07 15.6754 13.9512 15.6882 13.864L15.3914 13.8203L15.0946 13.7767C15.0814 13.8665 15.0643 13.9873 15.0434 14.1387L15.3406 14.1797Z" fill="#00236D" mask="url(#path-10-outside-3_275_745)"/>
<rect x="1" y="64.5" width="3" height="2" fill="#0F4EAD"/>
<rect x="1" y="69.5" width="3" height="2" fill="#0F4EAD"/>
<rect x="1" y="72.5" width="3" height="2" fill="#0F4EAD"/>
<rect x="1" y="75.5" width="3" height="2" fill="#0F4EAD"/>
<rect x="1" y="78.5" width="3" height="2" fill="#0F4EAD"/>
<rect x="1" y="81.5" width="3" height="2" fill="#0F4EAD"/>
<rect x="1" y="61.5" width="3" height="2" fill="#0F4EAD"/>
<rect x="1" y="58.5" width="3" height="2" fill="#0F4EAD"/>
<rect x="1" y="55.5" width="3" height="2" fill="#0F4EAD"/>
<rect x="1" y="52.5" width="3" height="2" fill="#0F4EAD"/>
<rect x="81" y="64.5" width="3" height="2" fill="#0F4EAD"/>
<rect x="81" y="69.5" width="3" height="2" fill="#0F4EAD"/>
<rect x="81" y="72.5" width="3" height="2" fill="#0F4EAD"/>
<rect x="81" y="75.5" width="3" height="2" fill="#0F4EAD"/>
<rect x="81" y="78.5" width="3" height="2" fill="#0F4EAD"/>
<rect x="81" y="81.5" width="3" height="2" fill="#0F4EAD"/>
<rect x="81" y="61.5" width="3" height="2" fill="#0F4EAD"/>
<rect x="81" y="58.5" width="3" height="2" fill="#0F4EAD"/>
<rect x="81" y="55.5" width="3" height="2" fill="#0F4EAD"/>
<rect x="81" y="52.5" width="3" height="2" fill="#0F4EAD"/>
<rect x="46.5" y="1" width="2" height="2" transform="rotate(90 46.5 1)" fill="#0F4EAD"/>
<rect x="41.5" y="1" width="2" height="2" transform="rotate(90 41.5 1)" fill="#0F4EAD"/>
<rect x="38.5" y="1" width="2" height="2" transform="rotate(90 38.5 1)" fill="#0F4EAD"/>
<rect x="35.5" y="1" width="2" height="2" transform="rotate(90 35.5 1)" fill="#0F4EAD"/>
<rect x="32.5" y="1" width="2" height="2" transform="rotate(90 32.5 1)" fill="#0F4EAD"/>
<rect x="29.5" y="1" width="2" height="2" transform="rotate(90 29.5 1)" fill="#0F4EAD"/>
<rect x="49.5" y="1" width="2" height="2" transform="rotate(90 49.5 1)" fill="#0F4EAD"/>
<rect x="52.5" y="1" width="2" height="2" transform="rotate(90 52.5 1)" fill="#0F4EAD"/>
<rect x="55.5" y="1" width="2" height="2" transform="rotate(90 55.5 1)" fill="#0F4EAD"/>
<rect x="58.5" y="1" width="2" height="2" transform="rotate(90 58.5 1)" fill="#0F4EAD"/>
<rect x="46.5" y="134" width="2" height="2" transform="rotate(90 46.5 134)" fill="#0F4EAD"/>
<rect x="41.5" y="134" width="2" height="2" transform="rotate(90 41.5 134)" fill="#0F4EAD"/>
<rect x="38.5" y="134" width="2" height="2" transform="rotate(90 38.5 134)" fill="#0F4EAD"/>
<rect x="35.5" y="134" width="2" height="2" transform="rotate(90 35.5 134)" fill="#0F4EAD"/>
<rect x="32.5" y="134" width="2" height="2" transform="rotate(90 32.5 134)" fill="#0F4EAD"/>
<rect x="29.5" y="134" width="2" height="2" transform="rotate(90 29.5 134)" fill="#0F4EAD"/>
<rect x="49.5" y="134" width="2" height="2" transform="rotate(90 49.5 134)" fill="#0F4EAD"/>
<rect x="52.5" y="134" width="2" height="2" transform="rotate(90 52.5 134)" fill="#0F4EAD"/>
<rect x="55.5" y="134" width="2" height="2" transform="rotate(90 55.5 134)" fill="#0F4EAD"/>
<rect x="58.5" y="134" width="2" height="2" transform="rotate(90 58.5 134)" fill="#0F4EAD"/>
<defs>
<filter id="filter0_d_275_745" x="9.5" y="24.5" width="65" height="100" filterUnits="userSpaceOnUse" color-interpolation-filters="sRGB">
<feFlood flood-opacity="0" result="BackgroundImageFix"/>
<feColorMatrix in="SourceAlpha" type="matrix" values="0 0 0 0 0 0 0 0 0 0 0 0 0 0 0 0 0 0 127 0" result="hardAlpha"/>
<feOffset dy="4"/>
<feGaussianBlur stdDeviation="2"/>
<feComposite in2="hardAlpha" operator="out"/>
<feColorMatrix type="matrix" values="0 0 0 0 0 0 0 0 0 0 0 0 0 0 0 0 0 0 0.25 0"/>
<feBlend mode="normal" in2="BackgroundImageFix" result="effect1_dropShadow_275_745"/>
<feBlend mode="normal" in="SourceGraphic" in2="effect1_dropShadow_275_745" result="shape"/>
</filter>
<filter id="filter1_d_275_745" x="17.8274" y="53.1719" width="49.1108" height="39.2188" filterUnits="userSpaceOnUse" color-interpolation-filters="sRGB">
<feFlood flood-opacity="0" result="BackgroundImageFix"/>
<feColorMatrix in="SourceAlpha" type="matrix" values="0 0 0 0 0 0 0 0 0 0 0 0 0 0 0 0 0 0 127 0" result="hardAlpha"/>
<feOffset dy="4"/>
<feGaussianBlur stdDeviation="2"/>
<feComposite in2="hardAlpha" operator="out"/>
<feColorMatrix type="matrix" values="0 0 0 0 0 0 0 0 0 0 0 0 0 0 0 0 0 0 0.25 0"/>
<feBlend mode="normal" in2="BackgroundImageFix" result="effect1_dropShadow_275_745"/>
<feBlend mode="normal" in="SourceGraphic" in2="effect1_dropShadow_275_745" result="shape"/>
</filter>
<linearGradient id="paint0_linear_275_745" x1="43" y1="3" x2="42.5" y2="134" gradientUnits="userSpaceOnUse">
<stop stop-color="#125AC5" stop-opacity="0.95"/>
<stop offset="1" stop-color="#0C1D71"/>
</linearGradient>
<linearGradient id="paint1_linear_275_745" x1="70.596" y1="112.867" x2="68.1694" y2="130.133" gradientUnits="userSpaceOnUse">
<stop stop-color="#B5D4FF"/>
<stop offset="1" stop-color="#396FD6"/>
</linearGradient>
<linearGradient id="paint2_linear_275_745" x1="53" y1="30" x2="30" y2="108" gradientUnits="userSpaceOnUse">
<stop stop-color="#4894FF" stop-opacity="0.95"/>
<stop offset="1" stop-color="#1A3974"/>
</linearGradient>
<linearGradient id="paint3_linear_275_745" x1="14.596" y1="4.86706" x2="12.1694" y2="22.1329" gradientUnits="userSpaceOnUse">
<stop stop-color="#B5D4FF" stop-opacity="0.95"/>
<stop offset="1" stop-color="#396FD6"/>
</linearGradient>
</defs>
</svg>
