<svg width="85" height="137" viewBox="0 0 85 137" fill="none" xmlns="http://www.w3.org/2000/svg">
<rect x="0.5" y="0.5" width="84" height="136" rx="9.5" fill="white" stroke="black"/>
<rect x="4.5" y="3.5" width="76" height="130" rx="9.5" fill="url(#paint0_linear_275_485)" stroke="black"/>
<path d="M70.5618 113.115C72.1646 113.34 73.5109 114.456 74.3812 116.125C75.2513 117.793 75.6332 119.994 75.3046 122.332C74.976 124.67 74.002 126.682 72.7058 128.046C71.4094 129.409 69.8075 130.111 68.2048 129.885C66.602 129.66 65.2547 128.544 64.3843 126.876C63.5142 125.208 63.1324 123.006 63.461 120.668C63.7896 118.33 64.7636 116.319 66.0597 114.955C67.3563 113.591 68.9588 112.889 70.5618 113.115Z" fill="url(#paint1_linear_275_485)" stroke="#9A0000" stroke-width="0.5"/>
<mask id="path-4-outside-1_275_485" maskUnits="userSpaceOnUse" x="66.46" y="116.44" width="6" height="9" fill="black">
<rect fill="white" x="66.46" y="116.44" width="6" height="9"/>
<path d="M70.4448 119.37H70.4057C70.1583 119.364 69.9409 119.401 69.7534 119.479C69.5659 119.56 69.4057 119.673 69.2729 119.819C69.1401 119.965 69.0346 120.135 68.9565 120.331C68.8758 120.528 68.8185 120.742 68.7846 120.971L68.6323 122.112C68.6271 122.174 68.6193 122.265 68.6089 122.385C68.5958 122.508 68.5945 122.634 68.605 122.764C68.6128 122.897 68.6414 123.01 68.6909 123.104C68.7404 123.198 68.8198 123.246 68.9292 123.249C69.0438 123.254 69.1388 123.216 69.2143 123.135C69.2873 123.055 69.3458 122.953 69.3901 122.831C69.4344 122.708 69.4669 122.586 69.4878 122.463C69.5086 122.341 69.5229 122.241 69.5307 122.163C69.536 122.095 69.5412 122.006 69.5464 121.897C69.549 121.788 69.5425 121.677 69.5268 121.565C69.5086 121.456 69.4721 121.362 69.4175 121.284C69.3628 121.208 69.2807 121.17 69.1714 121.17C69.075 121.168 68.993 121.191 68.9253 121.241C68.8576 121.293 68.8003 121.359 68.7534 121.44C68.7065 121.523 68.6701 121.609 68.644 121.698C68.6154 121.789 68.5958 121.872 68.5854 121.948L68.2651 121.686C68.2807 121.527 68.3224 121.363 68.3901 121.194C68.4552 121.027 68.5438 120.872 68.6557 120.729C68.7651 120.588 68.894 120.475 69.0425 120.389C69.1909 120.303 69.3563 120.262 69.5386 120.264C69.786 120.267 69.9904 120.328 70.1518 120.448C70.3107 120.568 70.4331 120.722 70.519 120.913C70.6024 121.105 70.657 121.311 70.6831 121.53C70.7091 121.749 70.7143 121.958 70.6987 122.159C70.6753 122.406 70.618 122.652 70.5268 122.897C70.4331 123.142 70.3055 123.364 70.144 123.565C69.9826 123.765 69.7925 123.924 69.5737 124.042C69.3524 124.161 69.105 124.217 68.8315 124.209C68.532 124.204 68.2899 124.125 68.105 123.971C67.9175 123.82 67.7755 123.626 67.6792 123.389C67.5828 123.155 67.5216 122.903 67.4956 122.635C67.4695 122.367 67.4695 122.114 67.4956 121.877L67.5503 121.459C67.5945 121.139 67.6675 120.828 67.769 120.526C67.868 120.226 67.9969 119.945 68.1557 119.682C68.3146 119.422 68.5047 119.194 68.7261 118.999C68.9474 118.803 69.2013 118.65 69.4878 118.538C69.7716 118.426 70.0919 118.368 70.4487 118.366H70.5425L70.4448 119.37Z"/>
<path d="M71.2417 117.659H67.2182V117.268H71.2417V117.659Z"/>
</mask>
<path d="M70.4448 119.37H70.4057C70.1583 119.364 69.9409 119.401 69.7534 119.479C69.5659 119.56 69.4057 119.673 69.2729 119.819C69.1401 119.965 69.0346 120.135 68.9565 120.331C68.8758 120.528 68.8185 120.742 68.7846 120.971L68.6323 122.112C68.6271 122.174 68.6193 122.265 68.6089 122.385C68.5958 122.508 68.5945 122.634 68.605 122.764C68.6128 122.897 68.6414 123.01 68.6909 123.104C68.7404 123.198 68.8198 123.246 68.9292 123.249C69.0438 123.254 69.1388 123.216 69.2143 123.135C69.2873 123.055 69.3458 122.953 69.3901 122.831C69.4344 122.708 69.4669 122.586 69.4878 122.463C69.5086 122.341 69.5229 122.241 69.5307 122.163C69.536 122.095 69.5412 122.006 69.5464 121.897C69.549 121.788 69.5425 121.677 69.5268 121.565C69.5086 121.456 69.4721 121.362 69.4175 121.284C69.3628 121.208 69.2807 121.17 69.1714 121.17C69.075 121.168 68.993 121.191 68.9253 121.241C68.8576 121.293 68.8003 121.359 68.7534 121.44C68.7065 121.523 68.6701 121.609 68.644 121.698C68.6154 121.789 68.5958 121.872 68.5854 121.948L68.2651 121.686C68.2807 121.527 68.3224 121.363 68.3901 121.194C68.4552 121.027 68.5438 120.872 68.6557 120.729C68.7651 120.588 68.894 120.475 69.0425 120.389C69.1909 120.303 69.3563 120.262 69.5386 120.264C69.786 120.267 69.9904 120.328 70.1518 120.448C70.3107 120.568 70.4331 120.722 70.519 120.913C70.6024 121.105 70.657 121.311 70.6831 121.53C70.7091 121.749 70.7143 121.958 70.6987 122.159C70.6753 122.406 70.618 122.652 70.5268 122.897C70.4331 123.142 70.3055 123.364 70.144 123.565C69.9826 123.765 69.7925 123.924 69.5737 124.042C69.3524 124.161 69.105 124.217 68.8315 124.209C68.532 124.204 68.2899 124.125 68.105 123.971C67.9175 123.82 67.7755 123.626 67.6792 123.389C67.5828 123.155 67.5216 122.903 67.4956 122.635C67.4695 122.367 67.4695 122.114 67.4956 121.877L67.5503 121.459C67.5945 121.139 67.6675 120.828 67.769 120.526C67.868 120.226 67.9969 119.945 68.1557 119.682C68.3146 119.422 68.5047 119.194 68.7261 118.999C68.9474 118.803 69.2013 118.65 69.4878 118.538C69.7716 118.426 70.0919 118.368 70.4487 118.366H70.5425L70.4448 119.37Z" fill="#9A0000"/>
<path d="M71.2417 117.659H67.2182V117.268H71.2417V117.659Z" fill="#9A0000"/>
<path d="M70.4448 119.37V119.67H70.717L70.7434 119.399L70.4448 119.37ZM70.4057 119.37L70.3994 119.67H70.4057V119.37ZM69.7534 119.479L69.638 119.202L69.6348 119.203L69.7534 119.479ZM68.9565 120.331L69.2343 120.444L69.2351 120.442L68.9565 120.331ZM68.7846 120.971L68.4878 120.927L68.4873 120.931L68.7846 120.971ZM68.6323 122.112L68.3349 122.072L68.334 122.079L68.3333 122.087L68.6323 122.112ZM68.6089 122.385L68.9072 122.417L68.9077 122.411L68.6089 122.385ZM68.605 122.764L68.9045 122.747L68.904 122.74L68.605 122.764ZM68.9292 123.249L68.9428 122.949L68.9363 122.949L68.9292 123.249ZM69.2143 123.135L69.4335 123.34L69.437 123.336L69.2143 123.135ZM69.4878 122.463L69.7835 122.514L69.4878 122.463ZM69.5307 122.163L69.8293 122.192L69.8299 122.186L69.5307 122.163ZM69.5464 121.897L69.8461 121.911L69.8463 121.904L69.5464 121.897ZM69.5268 121.565L69.8241 121.523L69.8228 121.516L69.5268 121.565ZM69.4175 121.284L69.6633 121.112L69.6604 121.108L69.4175 121.284ZM69.1714 121.17L69.1633 121.47H69.1714V121.17ZM68.9253 121.241L68.7482 120.998L68.7424 121.003L68.9253 121.241ZM68.7534 121.44L68.4939 121.289L68.4919 121.293L68.7534 121.44ZM68.644 121.698L68.9303 121.788L68.9318 121.782L68.644 121.698ZM68.5854 121.948L68.3956 122.18L68.8096 122.518L68.8826 121.989L68.5854 121.948ZM68.2651 121.686L67.9666 121.657L67.9508 121.817L68.0753 121.918L68.2651 121.686ZM68.3901 121.194L68.6687 121.305L68.6696 121.303L68.3901 121.194ZM68.6557 120.729L68.8921 120.914L68.8925 120.913L68.6557 120.729ZM69.5386 120.264L69.5343 120.564L69.5354 120.564L69.5386 120.264ZM70.1518 120.448L70.3325 120.208L70.3306 120.207L70.1518 120.448ZM70.519 120.913L70.7944 120.794L70.7924 120.789L70.519 120.913ZM70.6987 122.159L70.9974 122.187L70.9978 122.182L70.6987 122.159ZM70.5268 122.897L70.807 123.004L70.808 123.002L70.5268 122.897ZM69.5737 124.042L69.432 123.777L69.4309 123.778L69.5737 124.042ZM68.8315 124.209L68.8401 123.91L68.8367 123.91L68.8315 124.209ZM68.105 123.971L68.2967 123.74L68.2932 123.738L68.105 123.971ZM67.6792 123.389L67.9571 123.276L67.9566 123.275L67.6792 123.389ZM67.4956 121.877L67.1981 121.839L67.1974 121.845L67.4956 121.877ZM67.5503 121.459L67.2531 121.418L67.2528 121.421L67.5503 121.459ZM67.769 120.526L68.0534 120.621L68.0539 120.62L67.769 120.526ZM68.1557 119.682L67.8996 119.526L67.8989 119.527L68.1557 119.682ZM69.4878 118.538L69.597 118.817L69.5979 118.817L69.4878 118.538ZM70.4487 118.366V118.066L70.4465 118.066L70.4487 118.366ZM70.5425 118.366L70.8411 118.395L70.8731 118.066H70.5425V118.366ZM70.4448 119.37V119.07H70.4057V119.37V119.67H70.4448V119.37ZM70.4057 119.37L70.4121 119.07C70.1318 119.064 69.8715 119.105 69.638 119.202L69.7534 119.479L69.8688 119.756C70.0103 119.697 70.1849 119.665 70.3994 119.67L70.4057 119.37ZM69.7534 119.479L69.6348 119.203C69.4094 119.3 69.2137 119.438 69.0511 119.617L69.2729 119.819L69.4947 120.021C69.5978 119.908 69.7224 119.819 69.872 119.755L69.7534 119.479ZM69.2729 119.819L69.0511 119.617C68.8926 119.791 68.7686 119.993 68.678 120.219L68.9565 120.331L69.2351 120.442C69.3007 120.278 69.3877 120.138 69.4947 120.021L69.2729 119.819ZM68.9565 120.331L68.6787 120.217C68.5882 120.439 68.525 120.676 68.4879 120.927L68.7846 120.971L69.0814 121.015C69.1121 120.808 69.1634 120.618 69.2343 120.444L68.9565 120.331ZM68.7846 120.971L68.4873 120.931L68.3349 122.072L68.6323 122.112L68.9297 122.152L69.082 121.011L68.7846 120.971ZM68.6323 122.112L68.3333 122.087C68.3282 122.149 68.3204 122.24 68.31 122.359L68.6089 122.385L68.9077 122.411C68.9182 122.291 68.926 122.2 68.9313 122.137L68.6323 122.112ZM68.6089 122.385L68.3106 122.354C68.2954 122.495 68.2941 122.64 68.3059 122.788L68.605 122.764L68.904 122.74C68.895 122.627 68.8962 122.52 68.9072 122.417L68.6089 122.385ZM68.605 122.764L68.3055 122.782C68.3152 122.947 68.3517 123.104 68.4256 123.244L68.6909 123.104L68.9562 122.964C68.9312 122.916 68.9104 122.847 68.9044 122.747L68.605 122.764ZM68.6909 123.104L68.4256 123.244C68.472 123.332 68.5396 123.411 68.632 123.467C68.7239 123.523 68.8243 123.546 68.922 123.548L68.9292 123.249L68.9363 122.949C68.9301 122.948 68.9286 122.948 68.9307 122.948C68.933 122.949 68.9376 122.951 68.9432 122.954C68.9488 122.957 68.953 122.961 68.9557 122.964C68.9582 122.967 68.958 122.967 68.9562 122.964L68.6909 123.104ZM68.9292 123.249L68.9156 123.548C69.1141 123.557 69.2954 123.488 69.4334 123.34L69.2143 123.135L68.9953 122.93C68.9852 122.941 68.9788 122.944 68.9756 122.945C68.9722 122.947 68.9628 122.95 68.9428 122.949L68.9292 123.249ZM69.2143 123.135L69.437 123.336C69.5405 123.222 69.6173 123.085 69.6722 122.933L69.3901 122.831L69.108 122.729C69.0744 122.821 69.034 122.887 68.9917 122.934L69.2143 123.135ZM69.3901 122.831L69.6722 122.933C69.7223 122.794 69.7595 122.655 69.7835 122.514L69.4878 122.463L69.192 122.413C69.1743 122.517 69.1465 122.622 69.108 122.729L69.3901 122.831ZM69.4878 122.463L69.7835 122.514C69.8049 122.388 69.8205 122.28 69.8293 122.192L69.5307 122.163L69.2322 122.133C69.2254 122.201 69.2123 122.294 69.192 122.413L69.4878 122.463ZM69.5307 122.163L69.8299 122.186C69.8354 122.114 69.8408 122.022 69.846 121.911L69.5464 121.897L69.2467 121.883C69.2416 121.991 69.2365 122.076 69.2316 122.14L69.5307 122.163ZM69.5464 121.897L69.8463 121.904C69.8493 121.778 69.8418 121.651 69.824 121.523L69.5268 121.565L69.2297 121.606C69.2432 121.703 69.2487 121.797 69.2465 121.89L69.5464 121.897ZM69.5268 121.565L69.8228 121.516C69.7984 121.369 69.7474 121.232 69.6632 121.112L69.4175 121.284L69.1717 121.456C69.1969 121.492 69.2189 121.542 69.2309 121.614L69.5268 121.565ZM69.4175 121.284L69.6604 121.108C69.5391 120.94 69.358 120.87 69.1714 120.87V121.17V121.47C69.1917 121.47 69.1952 121.474 69.1895 121.471C69.1867 121.47 69.1833 121.468 69.1799 121.465C69.1766 121.462 69.1749 121.46 69.1745 121.46L69.4175 121.284ZM69.1714 121.17L69.1795 120.871C69.0271 120.866 68.8774 120.904 68.7483 120.999L68.9253 121.241L69.1023 121.483C69.1086 121.478 69.1229 121.469 69.1633 121.47L69.1714 121.17ZM68.9253 121.241L68.7424 121.003C68.641 121.081 68.5586 121.178 68.494 121.289L68.7534 121.44L69.0128 121.591C69.0419 121.54 69.0742 121.505 69.1082 121.479L68.9253 121.241ZM68.7534 121.44L68.4919 121.293C68.4343 121.395 68.3889 121.502 68.3562 121.613L68.644 121.698L68.9318 121.782C68.9513 121.716 68.9787 121.651 69.0149 121.587L68.7534 121.44ZM68.644 121.698L68.3578 121.608C68.3254 121.711 68.3014 121.811 68.2882 121.907L68.5854 121.948L68.8826 121.989C68.8903 121.933 68.9054 121.867 68.9302 121.788L68.644 121.698ZM68.5854 121.948L68.7752 121.715L68.4549 121.454L68.2651 121.686L68.0753 121.918L68.3956 122.18L68.5854 121.948ZM68.2651 121.686L68.5637 121.715C68.5762 121.588 68.61 121.452 68.6687 121.305L68.3901 121.194L68.1116 121.082C68.0348 121.274 67.9853 121.466 67.9666 121.657L68.2651 121.686ZM68.3901 121.194L68.6696 121.303C68.7239 121.164 68.7978 121.034 68.8921 120.914L68.6557 120.729L68.4194 120.544C68.2897 120.71 68.1866 120.89 68.1107 121.085L68.3901 121.194ZM68.6557 120.729L68.8925 120.913C68.9791 120.802 69.079 120.715 69.1928 120.649L69.0425 120.389L68.8921 120.13C68.709 120.236 68.5511 120.375 68.4189 120.545L68.6557 120.729ZM69.0425 120.389L69.1928 120.649C69.2913 120.592 69.4027 120.562 69.5343 120.564L69.5386 120.264L69.5428 119.964C69.3099 119.961 69.0905 120.015 68.8921 120.13L69.0425 120.389ZM69.5386 120.264L69.5354 120.564C69.7343 120.566 69.8732 120.615 69.9731 120.689L70.1518 120.448L70.3306 120.207C70.1076 120.041 69.8376 119.967 69.5417 119.964L69.5386 120.264ZM70.1518 120.448L69.9712 120.687C70.0879 120.775 70.1794 120.89 70.2457 121.036L70.519 120.913L70.7924 120.789C70.6868 120.555 70.5334 120.36 70.3325 120.208L70.1518 120.448ZM70.519 120.913L70.2437 121.032C70.3149 121.196 70.3624 121.374 70.3852 121.565L70.6831 121.53L70.981 121.494C70.9517 121.248 70.8898 121.014 70.7944 120.794L70.519 120.913ZM70.6831 121.53L70.3852 121.565C70.4091 121.766 70.4136 121.956 70.3996 122.135L70.6987 122.159L70.9978 122.182C71.0151 121.96 71.0091 121.731 70.981 121.494L70.6831 121.53ZM70.6987 122.159L70.4 122.13C70.3792 122.35 70.3282 122.571 70.2457 122.792L70.5268 122.897L70.808 123.002C70.9078 122.734 70.9713 122.462 70.9974 122.187L70.6987 122.159ZM70.5268 122.897L70.2467 122.79C70.1639 123.006 70.0518 123.201 69.9104 123.377L70.144 123.565L70.3777 123.753C70.5591 123.528 70.7023 123.278 70.807 123.004L70.5268 122.897ZM70.144 123.565L69.9104 123.377C69.7732 123.547 69.614 123.68 69.432 123.777L69.5737 124.042L69.7154 124.306C69.9709 124.169 70.192 123.984 70.3777 123.753L70.144 123.565ZM69.5737 124.042L69.4309 123.778C69.26 123.87 69.0655 123.916 68.8401 123.91L68.8315 124.209L68.823 124.509C69.1444 124.519 69.4448 124.452 69.7165 124.305L69.5737 124.042ZM68.8315 124.209L68.8367 123.91C68.5883 123.905 68.4172 123.841 68.2967 123.74L68.105 123.971L67.9132 124.202C68.1625 124.409 68.4758 124.503 68.8263 124.509L68.8315 124.209ZM68.105 123.971L68.2932 123.738C68.1478 123.62 68.0355 123.469 67.9571 123.276L67.6792 123.389L67.4013 123.502C67.5156 123.783 67.6871 124.02 67.9168 124.205L68.105 123.971ZM67.6792 123.389L67.9566 123.275C67.8722 123.07 67.8176 122.847 67.7942 122.606L67.4956 122.635L67.197 122.664C67.2257 122.96 67.2935 123.24 67.4017 123.503L67.6792 123.389ZM67.4956 122.635L67.7942 122.606C67.7699 122.356 67.7703 122.124 67.7938 121.91L67.4956 121.877L67.1974 121.845C67.1688 122.105 67.1692 122.378 67.197 122.664L67.4956 122.635ZM67.4956 121.877L67.7931 121.916L67.8477 121.498L67.5503 121.459L67.2528 121.421L67.1981 121.839L67.4956 121.877ZM67.5503 121.459L67.8474 121.501C67.8892 121.198 67.9579 120.906 68.0534 120.621L67.769 120.526L67.4847 120.43C67.3771 120.75 67.2999 121.08 67.2531 121.418L67.5503 121.459ZM67.769 120.526L68.0539 120.62C68.146 120.341 68.2656 120.081 68.4125 119.837L68.1557 119.682L67.8989 119.527C67.7282 119.81 67.59 120.112 67.4842 120.432L67.769 120.526ZM68.1557 119.682L68.4119 119.838C68.5556 119.603 68.7265 119.398 68.9245 119.223L68.7261 118.999L68.5276 118.774C68.2829 118.989 68.0736 119.241 67.8996 119.526L68.1557 119.682ZM68.7261 118.999L68.9245 119.223C69.1185 119.052 69.3419 118.917 69.597 118.817L69.4878 118.538L69.3785 118.258C69.0608 118.382 68.7764 118.554 68.5276 118.774L68.7261 118.999ZM69.4878 118.538L69.5979 118.817C69.8421 118.72 70.1249 118.668 70.4509 118.666L70.4487 118.366L70.4465 118.066C70.0589 118.069 69.7012 118.131 69.3777 118.259L69.4878 118.538ZM70.4487 118.366V118.666H70.5425V118.366V118.066H70.4487V118.366ZM70.5425 118.366L70.2439 118.337L70.1462 119.341L70.4448 119.37L70.7434 119.399L70.8411 118.395L70.5425 118.366Z" fill="#620202" mask="url(#path-4-outside-1_275_485)"/>
<path d="M71.2417 117.659V117.959H71.5417V117.659H71.2417ZM67.2182 117.659H66.9182V117.959H67.2182V117.659ZM67.2182 117.268V116.968H66.9182V117.268H67.2182ZM71.2417 117.268H71.5417V116.968H71.2417V117.268ZM71.2417 117.659V117.359H67.2182V117.659V117.959H71.2417V117.659ZM67.2182 117.659H67.5182V117.268H67.2182H66.9182V117.659H67.2182ZM67.2182 117.268V117.568H71.2417V117.268V116.968H67.2182V117.268ZM71.2417 117.268H70.9417V117.659H71.2417H71.5417V117.268H71.2417Z" fill="#620202" mask="url(#path-4-outside-1_275_485)"/>
<g filter="url(#filter0_d_275_485)">
<ellipse cx="42" cy="70.5" rx="28" ry="45.5" fill="url(#paint2_linear_275_485)"/>
<ellipse cx="42" cy="70.5" rx="28" ry="45.5" stroke="#9A0000"/>
</g>
<g filter="url(#filter1_d_275_485)">
<mask id="path-7-outside-2_275_485" maskUnits="userSpaceOnUse" x="29" y="53" width="27" height="37" fill="black">
<rect fill="white" x="29" y="53" width="27" height="37"/>
<path d="M36.7578 78.7227H37.1289C38.6914 78.7227 40.0326 78.5339 41.1523 78.1562C42.2852 77.7656 43.2161 77.2057 43.9453 76.4766C44.6745 75.7474 45.2148 74.8555 45.5664 73.8008C45.918 72.7331 46.0938 71.5221 46.0938 70.168V64.7773C46.0938 63.7487 45.9896 62.8438 45.7812 62.0625C45.5859 61.2812 45.2995 60.6367 44.9219 60.1289C44.5573 59.6081 44.1276 59.2174 43.6328 58.957C43.151 58.6966 42.6172 58.5664 42.0312 58.5664C41.4062 58.5664 40.8529 58.7227 40.3711 59.0352C39.8893 59.3346 39.4792 59.7448 39.1406 60.2656C38.8151 60.7865 38.5612 61.3854 38.3789 62.0625C38.2096 62.7266 38.125 63.4232 38.125 64.1523C38.125 64.8815 38.2096 65.5781 38.3789 66.2422C38.5482 66.8932 38.8021 67.4727 39.1406 67.9805C39.4792 68.4753 39.9023 68.8724 40.4102 69.1719C40.918 69.4583 41.5169 69.6016 42.207 69.6016C42.8711 69.6016 43.4635 69.4779 43.9844 69.2305C44.5182 68.9701 44.9674 68.6315 45.332 68.2148C45.7096 67.7982 45.9961 67.3359 46.1914 66.8281C46.3997 66.3203 46.5039 65.806 46.5039 65.2852L48.3594 66.3008C48.3594 67.2122 48.1641 68.1107 47.7734 68.9961C47.3828 69.8815 46.8359 70.6888 46.1328 71.418C45.4427 72.1341 44.6419 72.707 43.7305 73.1367C42.819 73.5664 41.8424 73.7812 40.8008 73.7812C39.4727 73.7812 38.2943 73.5404 37.2656 73.0586C36.237 72.5638 35.3646 71.8867 34.6484 71.0273C33.9453 70.1549 33.4115 69.1393 33.0469 67.9805C32.6823 66.8216 32.5 65.5651 32.5 64.2109C32.5 62.8307 32.7214 61.5352 33.1641 60.3242C33.6198 59.1133 34.2643 58.0456 35.0977 57.1211C35.944 56.1966 36.9531 55.474 38.125 54.9531C39.3099 54.4193 40.625 54.1523 42.0703 54.1523C43.5156 54.1523 44.8307 54.4323 46.0156 54.9922C47.2005 55.5521 48.2161 56.3464 49.0625 57.375C49.9089 58.3906 50.5599 59.6081 51.0156 61.0273C51.4844 62.4466 51.7188 64.0221 51.7188 65.7539V67.707C51.7188 69.556 51.5169 71.2747 51.1133 72.8633C50.7227 74.4518 50.1302 75.8906 49.3359 77.1797C48.5547 78.4557 47.5781 79.5495 46.4062 80.4609C45.2474 81.3724 43.8997 82.069 42.3633 82.5508C40.8268 83.0326 39.1081 83.2734 37.207 83.2734H36.7578V78.7227Z"/>
<path d="M30.8203 86.9062H54.1602V88.8594H30.8203V86.9062Z"/>
</mask>
<path d="M36.7578 78.7227H37.1289C38.6914 78.7227 40.0326 78.5339 41.1523 78.1562C42.2852 77.7656 43.2161 77.2057 43.9453 76.4766C44.6745 75.7474 45.2148 74.8555 45.5664 73.8008C45.918 72.7331 46.0938 71.5221 46.0938 70.168V64.7773C46.0938 63.7487 45.9896 62.8438 45.7812 62.0625C45.5859 61.2812 45.2995 60.6367 44.9219 60.1289C44.5573 59.6081 44.1276 59.2174 43.6328 58.957C43.151 58.6966 42.6172 58.5664 42.0312 58.5664C41.4062 58.5664 40.8529 58.7227 40.3711 59.0352C39.8893 59.3346 39.4792 59.7448 39.1406 60.2656C38.8151 60.7865 38.5612 61.3854 38.3789 62.0625C38.2096 62.7266 38.125 63.4232 38.125 64.1523C38.125 64.8815 38.2096 65.5781 38.3789 66.2422C38.5482 66.8932 38.8021 67.4727 39.1406 67.9805C39.4792 68.4753 39.9023 68.8724 40.4102 69.1719C40.918 69.4583 41.5169 69.6016 42.207 69.6016C42.8711 69.6016 43.4635 69.4779 43.9844 69.2305C44.5182 68.9701 44.9674 68.6315 45.332 68.2148C45.7096 67.7982 45.9961 67.3359 46.1914 66.8281C46.3997 66.3203 46.5039 65.806 46.5039 65.2852L48.3594 66.3008C48.3594 67.2122 48.1641 68.1107 47.7734 68.9961C47.3828 69.8815 46.8359 70.6888 46.1328 71.418C45.4427 72.1341 44.6419 72.707 43.7305 73.1367C42.819 73.5664 41.8424 73.7812 40.8008 73.7812C39.4727 73.7812 38.2943 73.5404 37.2656 73.0586C36.237 72.5638 35.3646 71.8867 34.6484 71.0273C33.9453 70.1549 33.4115 69.1393 33.0469 67.9805C32.6823 66.8216 32.5 65.5651 32.5 64.2109C32.5 62.8307 32.7214 61.5352 33.1641 60.3242C33.6198 59.1133 34.2643 58.0456 35.0977 57.1211C35.944 56.1966 36.9531 55.474 38.125 54.9531C39.3099 54.4193 40.625 54.1523 42.0703 54.1523C43.5156 54.1523 44.8307 54.4323 46.0156 54.9922C47.2005 55.5521 48.2161 56.3464 49.0625 57.375C49.9089 58.3906 50.5599 59.6081 51.0156 61.0273C51.4844 62.4466 51.7188 64.0221 51.7188 65.7539V67.707C51.7188 69.556 51.5169 71.2747 51.1133 72.8633C50.7227 74.4518 50.1302 75.8906 49.3359 77.1797C48.5547 78.4557 47.5781 79.5495 46.4062 80.4609C45.2474 81.3724 43.8997 82.069 42.3633 82.5508C40.8268 83.0326 39.1081 83.2734 37.207 83.2734H36.7578V78.7227Z" fill="#9A0000"/>
<path d="M30.8203 86.9062H54.1602V88.8594H30.8203V86.9062Z" fill="#9A0000"/>
<path d="M36.7578 78.7227V77.7227H35.7578V78.7227H36.7578ZM41.1523 78.1562L41.4719 79.1038L41.4783 79.1016L41.1523 78.1562ZM45.5664 73.8008L46.5151 74.117L46.5162 74.1135L45.5664 73.8008ZM45.7812 62.0625L44.8111 62.305L44.813 62.3126L44.815 62.3202L45.7812 62.0625ZM44.9219 60.1289L44.1026 60.7024L44.1109 60.7141L44.1194 60.7256L44.9219 60.1289ZM43.6328 58.957L43.1573 59.8368L43.1671 59.8419L43.6328 58.957ZM40.3711 59.0352L40.899 59.8844L40.9072 59.8794L40.9153 59.8741L40.3711 59.0352ZM39.1406 60.2656L38.3022 59.7206L38.2973 59.7281L38.2926 59.7356L39.1406 60.2656ZM38.3789 62.0625L37.4132 61.8025L37.4099 61.8155L38.3789 62.0625ZM38.3789 66.2422L37.4099 66.4892L37.4111 66.4938L38.3789 66.2422ZM39.1406 67.9805L38.3085 68.5352L38.3153 68.5452L39.1406 67.9805ZM40.4102 69.1719L39.9022 70.0332L39.9105 70.0381L39.9188 70.0429L40.4102 69.1719ZM43.9844 69.2305L44.4135 70.1338L44.4228 70.1292L43.9844 69.2305ZM45.332 68.2148L44.591 67.5433L44.5852 67.5498L44.5795 67.5563L45.332 68.2148ZM46.1914 66.8281L45.2662 66.4486L45.262 66.4588L45.2581 66.4691L46.1914 66.8281ZM46.5039 65.2852L46.9841 64.408L45.5039 63.5978V65.2852H46.5039ZM48.3594 66.3008H49.3594V65.7081L48.8395 65.4236L48.3594 66.3008ZM46.1328 71.418L45.413 70.7238L45.4127 70.7241L46.1328 71.418ZM37.2656 73.0586L36.8321 73.9598L36.8415 73.9642L37.2656 73.0586ZM34.6484 71.0273L33.8698 71.6549L33.875 71.6612L33.8802 71.6675L34.6484 71.0273ZM33.1641 60.3242L32.2281 59.972L32.2249 59.9809L33.1641 60.3242ZM35.0977 57.1211L34.3601 56.4458L34.3549 56.4516L35.0977 57.1211ZM38.125 54.9531L38.5311 55.8669L38.5358 55.8649L38.125 54.9531ZM49.0625 57.375L48.2903 58.0104L48.2943 58.0152L49.0625 57.375ZM51.0156 61.0273L50.0635 61.3331L50.0661 61.341L51.0156 61.0273ZM51.1133 72.8633L50.1441 72.617L50.1422 72.6245L51.1133 72.8633ZM49.3359 77.1797L48.4846 76.6551L48.4831 76.6575L49.3359 77.1797ZM46.4062 80.4609L45.7923 79.6716L45.788 79.6749L46.4062 80.4609ZM36.7578 83.2734H35.7578V84.2734H36.7578V83.2734ZM36.7578 78.7227V79.7227H37.1289V78.7227V77.7227H36.7578V78.7227ZM37.1289 78.7227V79.7227C38.7672 79.7227 40.222 79.5253 41.4719 79.1038L41.1523 78.1562L40.8328 77.2087C39.8431 77.5424 38.6156 77.7227 37.1289 77.7227V78.7227ZM41.1523 78.1562L41.4783 79.1016C42.7314 78.6695 43.7998 78.0362 44.6524 77.1837L43.9453 76.4766L43.2382 75.7695C42.6324 76.3752 41.8389 76.8617 40.8264 77.2109L41.1523 78.1562ZM43.9453 76.4766L44.6524 77.1837C45.4998 76.3363 46.1184 75.3072 46.5151 74.117L45.5664 73.8008L44.6177 73.4846C44.3113 74.4037 43.8492 75.1585 43.2382 75.7695L43.9453 76.4766ZM45.5664 73.8008L46.5162 74.1135C46.907 72.9267 47.0938 71.6073 47.0938 70.168H46.0938H45.0938C45.0938 71.4369 44.9289 72.5395 44.6166 73.488L45.5664 73.8008ZM46.0938 70.168H47.0938V64.7773H46.0938H45.0938V70.168H46.0938ZM46.0938 64.7773H47.0938C47.0938 63.6841 46.9833 62.6893 46.7475 61.8048L45.7812 62.0625L44.815 62.3202C44.9958 62.9982 45.0938 63.8133 45.0938 64.7773H46.0938ZM45.7812 62.0625L46.7514 61.82C46.5325 60.9443 46.1989 60.1704 45.7243 59.5322L44.9219 60.1289L44.1194 60.7256C44.4 61.103 44.6394 61.6182 44.8111 62.305L45.7812 62.0625ZM44.9219 60.1289L45.7411 59.5554C45.2978 58.9221 44.7526 58.4163 44.0986 58.0721L43.6328 58.957L43.1671 59.8419C43.5026 60.0186 43.8168 60.294 44.1026 60.7024L44.9219 60.1289ZM43.6328 58.957L44.1083 58.0773C43.4703 57.7325 42.7713 57.5664 42.0312 57.5664V58.5664V59.5664C42.4631 59.5664 42.8317 59.6608 43.1573 59.8367L43.6328 58.957ZM42.0312 58.5664V57.5664C41.2309 57.5664 40.485 57.7693 39.8269 58.1962L40.3711 59.0352L40.9153 59.8741C41.2207 59.676 41.5816 59.5664 42.0312 59.5664V58.5664ZM40.3711 59.0352L39.8432 58.1859C39.2254 58.5699 38.713 59.0887 38.3022 59.7206L39.1406 60.2656L39.9791 60.8106C40.2454 60.4009 40.5533 60.0994 40.899 59.8844L40.3711 59.0352ZM39.1406 60.2656L38.2926 59.7356C37.908 60.3511 37.6177 61.0434 37.4133 61.8025L38.3789 62.0625L39.3445 62.3225C39.5047 61.7275 39.7222 61.2219 39.9886 60.7956L39.1406 60.2656ZM38.3789 62.0625L37.4099 61.8155C37.2188 62.5653 37.125 63.3452 37.125 64.1523H38.125H39.125C39.125 63.5012 39.2005 62.8879 39.3479 62.3095L38.3789 62.0625ZM38.125 64.1523H37.125C37.125 64.9595 37.2188 65.7394 37.4099 66.4892L38.3789 66.2422L39.3479 65.9952C39.2005 65.4168 39.125 64.8035 39.125 64.1523H38.125ZM38.3789 66.2422L37.4111 66.4938C37.6056 67.2418 37.9022 67.9256 38.3086 68.5352L39.1406 67.9805L39.9727 67.4258C39.702 67.0197 39.4908 66.5447 39.3467 65.9906L38.3789 66.2422ZM39.1406 67.9805L38.3153 68.5452C38.7352 69.1588 39.2659 69.658 39.9022 70.0332L40.4102 69.1719L40.9181 68.3105C40.5388 68.0868 40.2232 67.7917 39.9659 67.4158L39.1406 67.9805ZM40.4102 69.1719L39.9188 70.0429C40.602 70.4282 41.3765 70.6016 42.207 70.6016V69.6016V68.6016C41.6574 68.6016 41.234 68.4884 40.9015 68.3009L40.4102 69.1719ZM42.207 69.6016V70.6016C42.997 70.6016 43.7396 70.4538 44.4134 70.1337L43.9844 69.2305L43.5553 68.3272C43.1875 68.5019 42.7452 68.6016 42.207 68.6016V69.6016ZM43.9844 69.2305L44.4228 70.1292C45.0675 69.8147 45.6261 69.3973 46.0846 68.8733L45.332 68.2148L44.5795 67.5563C44.3088 67.8657 43.969 68.1254 43.546 68.3317L43.9844 69.2305ZM45.332 68.2148L46.073 68.8864C46.5306 68.3814 46.8837 67.8139 47.1248 67.1871L46.1914 66.8281L45.2581 66.4691C45.1085 66.8579 44.8886 67.215 44.591 67.5433L45.332 68.2148ZM46.1914 66.8281L47.1166 67.2077C47.3716 66.586 47.5039 65.9431 47.5039 65.2852H46.5039H45.5039C45.5039 65.6689 45.4279 66.0546 45.2662 66.4486L46.1914 66.8281ZM46.5039 65.2852L46.0238 66.1623L47.8792 67.178L48.3594 66.3008L48.8395 65.4236L46.9841 64.408L46.5039 65.2852ZM48.3594 66.3008H47.3594C47.3594 67.0648 47.1966 67.8262 46.8585 68.5925L47.7734 68.9961L48.6884 69.3997C49.1316 68.3951 49.3594 67.3597 49.3594 66.3008H48.3594ZM47.7734 68.9961L46.8585 68.5925C46.5175 69.3654 46.0384 70.0753 45.413 70.7238L46.1328 71.418L46.8527 72.1121C47.6335 71.3023 48.2481 70.3977 48.6884 69.3997L47.7734 68.9961ZM46.1328 71.418L45.4127 70.7241C44.808 71.3516 44.1071 71.8536 43.3041 72.2322L43.7305 73.1367L44.1569 74.0412C45.1767 73.5605 46.0774 72.9166 46.8529 72.1119L46.1328 71.418ZM43.7305 73.1367L43.3041 72.2322C42.5305 72.5969 41.7001 72.7812 40.8008 72.7812V73.7812V74.7812C41.9848 74.7812 43.1075 74.5359 44.1569 74.0412L43.7305 73.1367ZM40.8008 73.7812V72.7812C39.5946 72.7812 38.565 72.5629 37.6898 72.153L37.2656 73.0586L36.8415 73.9642C38.0235 74.5178 39.3507 74.7812 40.8008 74.7812V73.7812ZM37.2656 73.0586L37.6991 72.1574C36.7967 71.7234 36.0393 71.1343 35.4167 70.3872L34.6484 71.0273L33.8802 71.6675C34.6899 72.6391 35.6772 73.4042 36.8322 73.9598L37.2656 73.0586ZM34.6484 71.0273L35.427 70.3998C34.8087 69.6326 34.3311 68.7302 34.0008 67.6804L33.0469 67.9805L32.093 68.2806C32.4919 69.5485 33.082 70.6773 33.8698 71.6549L34.6484 71.0273ZM33.0469 67.9805L34.0008 67.6804C33.67 66.629 33.5 65.4748 33.5 64.2109H32.5H31.5C31.5 65.6554 31.6946 67.0142 32.093 68.2806L33.0469 67.9805ZM32.5 64.2109H33.5C33.5 62.9396 33.7035 61.761 34.1033 60.6676L33.1641 60.3242L32.2249 59.9809C31.7392 61.3093 31.5 62.7219 31.5 64.2109H32.5ZM33.1641 60.3242L34.1 60.6764C34.5135 59.5777 35.094 58.6187 35.8404 57.7906L35.0977 57.1211L34.3549 56.4516C33.4346 57.4725 32.7261 58.6488 32.2281 59.972L33.1641 60.3242ZM35.0977 57.1211L35.8352 57.7963C36.5865 56.9757 37.482 56.3332 38.5311 55.8669L38.125 54.9531L37.7189 54.0393C36.4243 54.6147 35.3015 55.4175 34.3601 56.4458L35.0977 57.1211ZM38.125 54.9531L38.5358 55.8649C39.5777 55.3954 40.7507 55.1523 42.0703 55.1523V54.1523V53.1523C40.4993 53.1523 39.042 53.4431 37.7142 54.0414L38.125 54.9531ZM42.0703 54.1523V55.1523C43.3832 55.1523 44.5503 55.4058 45.5884 55.8963L46.0156 54.9922L46.4429 54.088C45.1112 53.4588 43.648 53.1523 42.0703 53.1523V54.1523ZM46.0156 54.9922L45.5884 55.8963C46.6376 56.3921 47.5361 57.0937 48.2903 58.0104L49.0625 57.375L49.8347 56.7396C48.8962 55.599 47.7634 54.712 46.4429 54.088L46.0156 54.9922ZM49.0625 57.375L48.2943 58.0152C49.0486 58.9204 49.6421 60.0205 50.0635 61.3331L51.0156 61.0273L51.9677 60.7216C51.4777 59.1956 50.7691 57.8609 49.8307 56.7348L49.0625 57.375ZM51.0156 61.0273L50.0661 61.341C50.4966 62.6444 50.7188 64.1121 50.7188 65.7539H51.7188H52.7188C52.7188 63.9321 52.4722 62.2488 51.9652 60.7137L51.0156 61.0273ZM51.7188 65.7539H50.7188V67.707H51.7188H52.7188V65.7539H51.7188ZM51.7188 67.707H50.7188C50.7188 69.4834 50.5249 71.1185 50.1441 72.617L51.1133 72.8633L52.0825 73.1096C52.509 71.431 52.7188 69.6286 52.7188 67.707H51.7188ZM51.1133 72.8633L50.1422 72.6245C49.7744 74.1202 49.2201 75.4613 48.4846 76.6551L49.3359 77.1797L50.1873 77.7043C51.0403 76.3199 51.6709 74.7834 52.0844 73.1021L51.1133 72.8633ZM49.3359 77.1797L48.4831 76.6575C47.7642 77.8317 46.8683 78.8347 45.7923 79.6716L46.4062 80.4609L47.0202 81.2503C48.2879 80.2643 49.3451 79.0798 50.1888 77.7018L49.3359 77.1797ZM46.4062 80.4609L45.788 79.6749C44.7329 80.5048 43.4956 81.1477 42.0641 81.5966L42.3633 82.5508L42.6625 83.505C44.3039 82.9903 45.7619 82.24 47.0245 81.2469L46.4062 80.4609ZM42.3633 82.5508L42.0641 81.5966C40.6401 82.0431 39.0244 82.2734 37.207 82.2734V83.2734V84.2734C39.1917 84.2734 41.0135 84.022 42.6625 83.505L42.3633 82.5508ZM37.207 83.2734V82.2734H36.7578V83.2734V84.2734H37.207V83.2734ZM36.7578 83.2734H37.7578V78.7227H36.7578H35.7578V83.2734H36.7578Z" fill="black" mask="url(#path-7-outside-2_275_485)"/>
<path d="M30.8203 86.9062V85.9062H29.8203V86.9062H30.8203ZM54.1602 86.9062H55.1602V85.9062H54.1602V86.9062ZM54.1602 88.8594V89.8594H55.1602V88.8594H54.1602ZM30.8203 88.8594H29.8203V89.8594H30.8203V88.8594ZM30.8203 86.9062V87.9062H54.1602V86.9062V85.9062H30.8203V86.9062ZM54.1602 86.9062H53.1602V88.8594H54.1602H55.1602V86.9062H54.1602ZM54.1602 88.8594V87.8594H30.8203V88.8594V89.8594H54.1602V88.8594ZM30.8203 88.8594H31.8203V86.9062H30.8203H29.8203V88.8594H30.8203Z" fill="black" mask="url(#path-7-outside-2_275_485)"/>
</g>
<path d="M14.5616 5.11468C16.1644 5.34009 17.5106 6.45647 18.381 8.12475C19.2511 9.79263 19.633 11.9941 19.3044 14.3322C18.9758 16.6705 18.0018 18.6822 16.7056 20.0457C15.4092 21.4091 13.8073 22.1105 12.2046 21.8854C10.6017 21.6601 9.25448 20.5443 8.38406 18.8762C7.51391 17.2083 7.13218 15.006 7.4608 12.6677C7.7894 10.3296 8.76336 8.31867 10.0594 6.95524C11.356 5.59138 12.9586 4.88939 14.5616 5.11468Z" fill="url(#paint3_linear_275_485)" stroke="#9A0000" stroke-width="0.5"/>
<mask id="path-10-outside-3_275_485" maskUnits="userSpaceOnUse" x="10" y="9" width="6" height="9" fill="black">
<rect fill="white" x="10" y="9" width="6" height="9"/>
<path d="M11.7852 15.0703H11.8242C12.0716 15.0755 12.2891 15.0391 12.4766 14.9609C12.6641 14.8802 12.8242 14.7669 12.957 14.6211C13.0898 14.4753 13.1953 14.3047 13.2734 14.1094C13.3542 13.9115 13.4115 13.6979 13.4453 13.4688L13.5977 12.3281C13.6029 12.2656 13.6107 12.1745 13.6211 12.0547C13.6341 11.9323 13.6354 11.806 13.625 11.6758C13.6172 11.543 13.5885 11.4297 13.5391 11.3359C13.4896 11.2422 13.4102 11.194 13.3008 11.1914C13.1862 11.1862 13.0911 11.224 13.0156 11.3047C12.9427 11.3854 12.8841 11.487 12.8398 11.6094C12.7956 11.7318 12.763 11.8542 12.7422 11.9766C12.7214 12.099 12.707 12.1992 12.6992 12.2773C12.694 12.3451 12.6888 12.4336 12.6836 12.543C12.681 12.6523 12.6875 12.763 12.7031 12.875C12.7214 12.9844 12.7578 13.0781 12.8125 13.1562C12.8672 13.2318 12.9492 13.2695 13.0586 13.2695C13.1549 13.2721 13.237 13.2487 13.3047 13.1992C13.3724 13.1471 13.4297 13.0807 13.4766 13C13.5234 12.9167 13.5599 12.8307 13.5859 12.7422C13.6146 12.651 13.6341 12.5677 13.6445 12.4922L13.9648 12.7539C13.9492 12.9128 13.9076 13.0768 13.8398 13.2461C13.7747 13.4128 13.6862 13.5677 13.5742 13.7109C13.4648 13.8516 13.3359 13.9648 13.1875 14.0508C13.0391 14.1367 12.8737 14.1784 12.6914 14.1758C12.444 14.1732 12.2396 14.112 12.0781 13.9922C11.9193 13.8724 11.7969 13.7174 11.7109 13.5273C11.6276 13.3346 11.5729 13.1289 11.5469 12.9102C11.5208 12.6914 11.5156 12.4818 11.5312 12.2812C11.5547 12.0339 11.612 11.7878 11.7031 11.543C11.7969 11.2982 11.9245 11.0755 12.0859 10.875C12.2474 10.6745 12.4375 10.5156 12.6562 10.3984C12.8776 10.2786 13.125 10.2227 13.3984 10.2305C13.6979 10.2357 13.9401 10.3151 14.125 10.4688C14.3125 10.6198 14.4544 10.8138 14.5508 11.0508C14.6471 11.2852 14.7083 11.5365 14.7344 11.8047C14.7604 12.0729 14.7604 12.3255 14.7344 12.5625L14.6797 12.9805C14.6354 13.3008 14.5625 13.612 14.4609 13.9141C14.362 14.2135 14.2331 14.4948 14.0742 14.7578C13.9154 15.0182 13.7253 15.2461 13.5039 15.4414C13.2826 15.6367 13.0286 15.7904 12.7422 15.9023C12.4583 16.0143 12.138 16.0716 11.7812 16.0742H11.6875L11.7852 15.0703Z"/>
<path d="M10.9883 16.7812H15.0117V17.1719H10.9883V16.7812Z"/>
</mask>
<path d="M11.7852 15.0703H11.8242C12.0716 15.0755 12.2891 15.0391 12.4766 14.9609C12.6641 14.8802 12.8242 14.7669 12.957 14.6211C13.0898 14.4753 13.1953 14.3047 13.2734 14.1094C13.3542 13.9115 13.4115 13.6979 13.4453 13.4688L13.5977 12.3281C13.6029 12.2656 13.6107 12.1745 13.6211 12.0547C13.6341 11.9323 13.6354 11.806 13.625 11.6758C13.6172 11.543 13.5885 11.4297 13.5391 11.3359C13.4896 11.2422 13.4102 11.194 13.3008 11.1914C13.1862 11.1862 13.0911 11.224 13.0156 11.3047C12.9427 11.3854 12.8841 11.487 12.8398 11.6094C12.7956 11.7318 12.763 11.8542 12.7422 11.9766C12.7214 12.099 12.707 12.1992 12.6992 12.2773C12.694 12.3451 12.6888 12.4336 12.6836 12.543C12.681 12.6523 12.6875 12.763 12.7031 12.875C12.7214 12.9844 12.7578 13.0781 12.8125 13.1562C12.8672 13.2318 12.9492 13.2695 13.0586 13.2695C13.1549 13.2721 13.237 13.2487 13.3047 13.1992C13.3724 13.1471 13.4297 13.0807 13.4766 13C13.5234 12.9167 13.5599 12.8307 13.5859 12.7422C13.6146 12.651 13.6341 12.5677 13.6445 12.4922L13.9648 12.7539C13.9492 12.9128 13.9076 13.0768 13.8398 13.2461C13.7747 13.4128 13.6862 13.5677 13.5742 13.7109C13.4648 13.8516 13.3359 13.9648 13.1875 14.0508C13.0391 14.1367 12.8737 14.1784 12.6914 14.1758C12.444 14.1732 12.2396 14.112 12.0781 13.9922C11.9193 13.8724 11.7969 13.7174 11.7109 13.5273C11.6276 13.3346 11.5729 13.1289 11.5469 12.9102C11.5208 12.6914 11.5156 12.4818 11.5312 12.2812C11.5547 12.0339 11.612 11.7878 11.7031 11.543C11.7969 11.2982 11.9245 11.0755 12.0859 10.875C12.2474 10.6745 12.4375 10.5156 12.6562 10.3984C12.8776 10.2786 13.125 10.2227 13.3984 10.2305C13.6979 10.2357 13.9401 10.3151 14.125 10.4688C14.3125 10.6198 14.4544 10.8138 14.5508 11.0508C14.6471 11.2852 14.7083 11.5365 14.7344 11.8047C14.7604 12.0729 14.7604 12.3255 14.7344 12.5625L14.6797 12.9805C14.6354 13.3008 14.5625 13.612 14.4609 13.9141C14.362 14.2135 14.2331 14.4948 14.0742 14.7578C13.9154 15.0182 13.7253 15.2461 13.5039 15.4414C13.2826 15.6367 13.0286 15.7904 12.7422 15.9023C12.4583 16.0143 12.138 16.0716 11.7812 16.0742H11.6875L11.7852 15.0703Z" fill="#9A0000"/>
<path d="M10.9883 16.7812H15.0117V17.1719H10.9883V16.7812Z" fill="#9A0000"/>
<path d="M11.7852 15.0703V14.7703H11.5129L11.4866 15.0413L11.7852 15.0703ZM11.8242 15.0703L11.8305 14.7703H11.8242V15.0703ZM12.4766 14.9609L12.592 15.2379L12.5952 15.2365L12.4766 14.9609ZM13.2734 14.1094L12.9957 13.9961L12.9949 13.998L13.2734 14.1094ZM13.4453 13.4688L13.7421 13.5126L13.7427 13.5085L13.4453 13.4688ZM13.5977 12.3281L13.895 12.3678L13.896 12.3605L13.8966 12.353L13.5977 12.3281ZM13.6211 12.0547L13.3227 12.0229L13.3222 12.0287L13.6211 12.0547ZM13.625 11.6758L13.3255 11.6934L13.326 11.6997L13.625 11.6758ZM13.3008 11.1914L13.2872 11.4912L13.2936 11.4913L13.3008 11.1914ZM13.0156 11.3047L12.7965 11.0997L12.793 11.1036L13.0156 11.3047ZM12.7422 11.9766L12.4464 11.9262L12.7422 11.9766ZM12.6992 12.2773L12.4006 12.2475L12.4001 12.2543L12.6992 12.2773ZM12.6836 12.543L12.3838 12.5287L12.3837 12.5358L12.6836 12.543ZM12.7031 12.875L12.4059 12.9165L12.4072 12.9243L12.7031 12.875ZM12.8125 13.1562L12.5667 13.3283L12.5695 13.3322L12.8125 13.1562ZM13.0586 13.2695L13.0667 12.9695H13.0586V13.2695ZM13.3047 13.1992L13.4817 13.4415L13.4876 13.437L13.3047 13.1992ZM13.4766 13L13.736 13.1507L13.738 13.1471L13.4766 13ZM13.5859 12.7422L13.2997 12.6522L13.2981 12.6575L13.5859 12.7422ZM13.6445 12.4922L13.8343 12.2599L13.4204 11.9216L13.3473 12.4512L13.6445 12.4922ZM13.9648 12.7539L14.2634 12.7833L14.2791 12.6233L14.1547 12.5216L13.9648 12.7539ZM13.8398 13.2461L13.5613 13.1347L13.5604 13.1369L13.8398 13.2461ZM13.5742 13.7109L13.3379 13.5262L13.3374 13.5268L13.5742 13.7109ZM12.6914 14.1758L12.6957 13.8758L12.6946 13.8758L12.6914 14.1758ZM12.0781 13.9922L11.8975 14.2317L11.8994 14.2331L12.0781 13.9922ZM11.7109 13.5273L11.4355 13.6464L11.4376 13.6509L11.7109 13.5273ZM11.5312 12.2812L11.2325 12.253L11.2322 12.2579L11.5312 12.2812ZM11.7031 11.543L11.423 11.4357L11.422 11.4383L11.7031 11.543ZM12.6562 10.3984L12.7979 10.6629L12.799 10.6623L12.6562 10.3984ZM13.3984 10.2305L13.3899 10.5304L13.3932 10.5304L13.3984 10.2305ZM14.125 10.4688L13.9332 10.6995L13.9368 10.7024L14.125 10.4688ZM14.5508 11.0508L14.2729 11.1638L14.2733 11.1649L14.5508 11.0508ZM14.7344 12.5625L15.0319 12.6014L15.0326 12.5953L14.7344 12.5625ZM14.6797 12.9805L14.9769 13.0215L14.9772 13.0194L14.6797 12.9805ZM14.4609 13.9141L14.1766 13.8185L14.1761 13.8199L14.4609 13.9141ZM14.0742 14.7578L14.3303 14.914L14.331 14.9129L14.0742 14.7578ZM12.7422 15.9023L12.633 15.6229L12.6321 15.6233L12.7422 15.9023ZM11.7812 16.0742V16.3742L11.7834 16.3742L11.7812 16.0742ZM11.6875 16.0742L11.3889 16.0452L11.3569 16.3742H11.6875V16.0742ZM11.7852 15.0703V15.3703H11.8242V15.0703V14.7703H11.7852V15.0703ZM11.8242 15.0703L11.8179 15.3702C12.0981 15.3761 12.3585 15.3351 12.5919 15.2379L12.4766 14.9609L12.3612 14.684C12.2196 14.743 12.0451 14.7749 11.8305 14.7704L11.8242 15.0703ZM12.4766 14.9609L12.5952 15.2365C12.8205 15.1395 13.0162 15.0016 13.1788 14.8231L12.957 14.6211L12.7352 14.4191C12.6322 14.5322 12.5076 14.6209 12.3579 14.6854L12.4766 14.9609ZM12.957 14.6211L13.1788 14.8231C13.3374 14.649 13.4614 14.4472 13.552 14.2208L13.2734 14.1094L12.9949 13.998C12.9292 14.1622 12.8423 14.3015 12.7352 14.4191L12.957 14.6211ZM13.2734 14.1094L13.5512 14.2227C13.6418 14.0007 13.705 13.7636 13.7421 13.5126L13.4453 13.4688L13.1485 13.4249C13.1179 13.6322 13.0666 13.8222 12.9957 13.9961L13.2734 14.1094ZM13.4453 13.4688L13.7427 13.5085L13.895 12.3678L13.5977 12.3281L13.3003 12.2884L13.148 13.429L13.4453 13.4688ZM13.5977 12.3281L13.8966 12.353C13.9018 12.2911 13.9096 12.2004 13.92 12.0807L13.6211 12.0547L13.3222 12.0287C13.3118 12.1486 13.3039 12.2402 13.2987 12.3032L13.5977 12.3281ZM13.6211 12.0547L13.9194 12.0864C13.9345 11.9444 13.9359 11.7995 13.924 11.6519L13.625 11.6758L13.326 11.6997C13.335 11.8125 13.3337 11.9201 13.3228 12.023L13.6211 12.0547ZM13.625 11.6758L13.9245 11.6582C13.9148 11.4932 13.8783 11.3359 13.8044 11.1959L13.5391 11.3359L13.2737 11.476C13.2988 11.5235 13.3196 11.5928 13.3255 11.6934L13.625 11.6758ZM13.5391 11.3359L13.8044 11.1959C13.7579 11.1079 13.6904 11.029 13.598 10.973C13.506 10.9172 13.4057 10.8938 13.3079 10.8915L13.3008 11.1914L13.2936 11.4913C13.2999 11.4915 13.3013 11.4922 13.2993 11.4916C13.297 11.491 13.2924 11.4894 13.2868 11.486C13.2812 11.4826 13.2769 11.4788 13.2743 11.4759C13.2717 11.4731 13.2719 11.4725 13.2737 11.476L13.5391 11.3359ZM13.3008 11.1914L13.3144 10.8917C13.1159 10.8827 12.9346 10.9522 12.7965 11.0997L13.0156 11.3047L13.2347 11.5096C13.2447 11.4989 13.2511 11.4959 13.2543 11.4946C13.2578 11.4932 13.2672 11.4902 13.2872 11.4911L13.3008 11.1914ZM13.0156 11.3047L12.793 11.1036C12.6894 11.2183 12.6127 11.3554 12.5577 11.5073L12.8398 11.6094L13.122 11.7114C13.1555 11.6185 13.196 11.5526 13.2383 11.5058L13.0156 11.3047ZM12.8398 11.6094L12.5577 11.5073C12.5077 11.6457 12.4704 11.7854 12.4464 11.9262L12.7422 11.9766L13.0379 12.0269C13.0556 11.9229 13.0835 11.8178 13.122 11.7114L12.8398 11.6094ZM12.7422 11.9766L12.4464 11.9262C12.425 12.052 12.4095 12.1598 12.4007 12.2475L12.6992 12.2773L12.9977 12.3072C13.0046 12.2387 13.0177 12.1459 13.0379 12.0269L12.7422 11.9766ZM12.6992 12.2773L12.4001 12.2543C12.3946 12.3262 12.3892 12.4179 12.3839 12.5287L12.6836 12.543L12.9833 12.5572C12.9884 12.4493 12.9934 12.3639 12.9983 12.3004L12.6992 12.2773ZM12.6836 12.543L12.3837 12.5358C12.3807 12.662 12.3882 12.7889 12.406 12.9165L12.7031 12.875L13.0002 12.8335C12.9868 12.7371 12.9813 12.6427 12.9835 12.5501L12.6836 12.543ZM12.7031 12.875L12.4072 12.9243C12.4316 13.0707 12.4825 13.208 12.5667 13.3283L12.8125 13.1562L13.0583 12.9842C13.0331 12.9483 13.0111 12.8981 12.999 12.8257L12.7031 12.875ZM12.8125 13.1562L12.5695 13.3322C12.6909 13.4998 12.872 13.5695 13.0586 13.5695V13.2695V12.9695C13.0382 12.9695 13.0347 12.9661 13.0405 12.9687C13.0433 12.97 13.0467 12.972 13.05 12.9748C13.0534 12.9775 13.0551 12.9798 13.0555 12.9803L12.8125 13.1562ZM13.0586 13.2695L13.0505 13.5694C13.2029 13.5735 13.3525 13.5358 13.4817 13.4414L13.3047 13.1992L13.1277 12.957C13.1214 12.9616 13.107 12.9707 13.0667 12.9696L13.0586 13.2695ZM13.3047 13.1992L13.4876 13.437C13.589 13.359 13.6714 13.262 13.736 13.1506L13.4766 13L13.2171 12.8494C13.188 12.8995 13.1558 12.9353 13.1218 12.9614L13.3047 13.1992ZM13.4766 13L13.738 13.1471C13.7956 13.0447 13.8411 12.9379 13.8737 12.8268L13.5859 12.7422L13.2981 12.6575C13.2787 12.7236 13.2513 12.7886 13.2151 12.8529L13.4766 13ZM13.5859 12.7422L13.8721 12.8321C13.9046 12.7288 13.9285 12.6288 13.9417 12.5332L13.6445 12.4922L13.3473 12.4512C13.3397 12.5066 13.3246 12.5733 13.2997 12.6522L13.5859 12.7422ZM13.6445 12.4922L13.4547 12.7245L13.775 12.9862L13.9648 12.7539L14.1547 12.5216L13.8343 12.2599L13.6445 12.4922ZM13.9648 12.7539L13.6663 12.7245C13.6538 12.8516 13.62 12.988 13.5613 13.1347L13.8398 13.2461L14.1184 13.3575C14.1951 13.1656 14.2446 12.974 14.2634 12.7833L13.9648 12.7539ZM13.8398 13.2461L13.5604 13.1369C13.5061 13.276 13.4322 13.4055 13.3379 13.5262L13.5742 13.7109L13.8106 13.8957C13.9402 13.7299 14.0434 13.5495 14.1193 13.3552L13.8398 13.2461ZM13.5742 13.7109L13.3374 13.5268C13.2508 13.6381 13.1509 13.7253 13.0372 13.7912L13.1875 14.0508L13.3378 14.3104C13.521 14.2044 13.6789 14.065 13.811 13.8951L13.5742 13.7109ZM13.1875 14.0508L13.0372 13.7912C12.9387 13.8482 12.8273 13.8777 12.6957 13.8758L12.6914 14.1758L12.6871 14.4758C12.9201 14.4791 13.1395 14.4252 13.3378 14.3104L13.1875 14.0508ZM12.6914 14.1758L12.6946 13.8758C12.4956 13.8737 12.3568 13.8254 12.2569 13.7513L12.0781 13.9922L11.8994 14.2331C12.1224 14.3986 12.3924 14.4727 12.6882 14.4758L12.6914 14.1758ZM12.0781 13.9922L12.2588 13.7527C12.142 13.6646 12.0506 13.5504 11.9843 13.4038L11.7109 13.5273L11.4376 13.6509C11.5432 13.8845 11.6965 14.0802 11.8975 14.2317L12.0781 13.9922ZM11.7109 13.5273L11.9863 13.4083C11.915 13.2435 11.8676 13.0661 11.8448 12.8747L11.5469 12.9102L11.249 12.9456C11.2783 13.1918 11.3402 13.4258 11.4356 13.6464L11.7109 13.5273ZM11.5469 12.9102L11.8448 12.8747C11.8208 12.6736 11.8164 12.4837 11.8303 12.3046L11.5312 12.2812L11.2322 12.2579C11.2149 12.4798 11.2208 12.7092 11.249 12.9456L11.5469 12.9102ZM11.5312 12.2812L11.8299 12.3095C11.8508 12.0896 11.9018 11.8691 11.9843 11.6476L11.7031 11.543L11.422 11.4383C11.3221 11.7064 11.2586 11.9781 11.2326 12.253L11.5312 12.2812ZM11.7031 11.543L11.9833 11.6503C12.0661 11.4341 12.1781 11.2389 12.3196 11.0631L12.0859 10.875L11.8523 10.6869C11.6708 10.9122 11.5277 11.1622 11.423 11.4357L11.7031 11.543ZM12.0859 10.875L12.3196 11.0631C12.4568 10.8928 12.616 10.7604 12.7979 10.6629L12.6562 10.3984L12.5146 10.134C12.259 10.2709 12.038 10.4562 11.8523 10.6869L12.0859 10.875ZM12.6562 10.3984L12.799 10.6623C12.97 10.5698 13.1645 10.5239 13.3899 10.5303L13.3984 10.2305L13.407 9.93059C13.0855 9.92141 12.7852 9.98753 12.5135 10.1346L12.6562 10.3984ZM13.3984 10.2305L13.3932 10.5304C13.6417 10.5347 13.8127 10.5993 13.9333 10.6995L14.125 10.4688L14.3167 10.238C14.0675 10.0309 13.7542 9.93661 13.4037 9.93051L13.3984 10.2305ZM14.125 10.4688L13.9368 10.7024C14.0822 10.8195 14.1945 10.9709 14.2729 11.1638L14.5508 11.0508L14.8287 10.9378C14.7144 10.6567 14.5428 10.4201 14.3132 10.2351L14.125 10.4688ZM14.5508 11.0508L14.2733 11.1649C14.3578 11.3704 14.4124 11.5928 14.4358 11.8337L14.7344 11.8047L15.033 11.7757C15.0043 11.4801 14.9365 11.1999 14.8282 10.9367L14.5508 11.0508ZM14.7344 11.8047L14.4358 11.8337C14.4601 12.084 14.4597 12.3157 14.4362 12.5297L14.7344 12.5625L15.0326 12.5953C15.0611 12.3353 15.0608 12.0619 15.033 11.7757L14.7344 11.8047ZM14.7344 12.5625L14.4369 12.5236L14.3822 12.9415L14.6797 12.9805L14.9772 13.0194L15.0318 12.6014L14.7344 12.5625ZM14.6797 12.9805L14.3825 12.9394C14.3408 13.2414 14.2721 13.5344 14.1766 13.8185L14.4609 13.9141L14.7453 14.0097C14.8529 13.6896 14.9301 13.3601 14.9769 13.0215L14.6797 12.9805ZM14.4609 13.9141L14.1761 13.8199C14.084 14.0987 13.9644 14.3594 13.8174 14.6027L14.0742 14.7578L14.331 14.9129C14.5018 14.6302 14.64 14.3284 14.7458 14.0082L14.4609 13.9141ZM14.0742 14.7578L13.8181 14.6016C13.6744 14.8372 13.5035 15.0417 13.3054 15.2165L13.5039 15.4414L13.7024 15.6664C13.947 15.4505 14.1563 15.1993 14.3303 14.914L14.0742 14.7578ZM13.5039 15.4414L13.3054 15.2165C13.1115 15.3876 12.8881 15.5232 12.633 15.6229L12.7422 15.9023L12.8514 16.1818C13.1692 16.0575 13.4536 15.8859 13.7024 15.6664L13.5039 15.4414ZM12.7422 15.9023L12.6321 15.6233C12.3879 15.7196 12.105 15.7718 11.7791 15.7742L11.7812 16.0742L11.7834 16.3742C12.171 16.3714 12.5288 16.309 12.8523 16.1814L12.7422 15.9023ZM11.7812 16.0742V15.7742H11.6875V16.0742V16.3742H11.7812V16.0742ZM11.6875 16.0742L11.9861 16.1033L12.0837 15.0994L11.7852 15.0703L11.4866 15.0413L11.3889 16.0452L11.6875 16.0742Z" fill="#620202" mask="url(#path-10-outside-3_275_485)"/>
<path d="M10.9883 16.7812V16.4812H10.6883V16.7812H10.9883ZM15.0117 16.7812H15.3117V16.4812H15.0117V16.7812ZM15.0117 17.1719V17.4719H15.3117V17.1719H15.0117ZM10.9883 17.1719H10.6883V17.4719H10.9883V17.1719ZM10.9883 16.7812V17.0813H15.0117V16.7812V16.4812H10.9883V16.7812ZM15.0117 16.7812H14.7117V17.1719H15.0117H15.3117V16.7812H15.0117ZM15.0117 17.1719V16.8719H10.9883V17.1719V17.4719H15.0117V17.1719ZM10.9883 17.1719H11.2883V16.7812H10.9883H10.6883V17.1719H10.9883Z" fill="#620202" mask="url(#path-10-outside-3_275_485)"/>
<rect x="1" y="66" width="3" height="2" fill="#9A0000"/>
<rect x="1" y="69" width="3" height="2" fill="#9A0000"/>
<rect x="1" y="74" width="3" height="2" fill="#9A0000"/>
<rect x="1" y="77" width="3" height="2" fill="#9A0000"/>
<rect x="1" y="80" width="3" height="2" fill="#9A0000"/>
<rect x="1" y="63" width="3" height="2" fill="#9A0000"/>
<rect x="1" y="58" width="3" height="2" fill="#9A0000"/>
<rect x="1" y="55" width="3" height="2" fill="#9A0000"/>
<rect x="1" y="52" width="3" height="2" fill="#9A0000"/>
<rect x="44" y="134" width="2" height="2" transform="rotate(90 44 134)" fill="#9A0000"/>
<rect x="41" y="134" width="2" height="2" transform="rotate(90 41 134)" fill="#9A0000"/>
<rect x="36" y="134" width="2" height="2" transform="rotate(90 36 134)" fill="#9A0000"/>
<rect x="33" y="134" width="2" height="2" transform="rotate(90 33 134)" fill="#9A0000"/>
<rect x="30" y="134" width="2" height="2" transform="rotate(90 30 134)" fill="#9A0000"/>
<rect x="47" y="134" width="2" height="2" transform="rotate(90 47 134)" fill="#9A0000"/>
<rect x="52" y="134" width="2" height="2" transform="rotate(90 52 134)" fill="#9A0000"/>
<rect x="55" y="134" width="2" height="2" transform="rotate(90 55 134)" fill="#9A0000"/>
<rect x="58" y="134" width="2" height="2" transform="rotate(90 58 134)" fill="#9A0000"/>
<rect x="44" y="1" width="2" height="2" transform="rotate(90 44 1)" fill="#9A0000"/>
<rect x="41" y="1" width="2" height="2" transform="rotate(90 41 1)" fill="#9A0000"/>
<rect x="36" y="1" width="2" height="2" transform="rotate(90 36 1)" fill="#9A0000"/>
<rect x="33" y="1" width="2" height="2" transform="rotate(90 33 1)" fill="#9A0000"/>
<rect x="30" y="1" width="2" height="2" transform="rotate(90 30 1)" fill="#9A0000"/>
<rect x="47" y="1" width="2" height="2" transform="rotate(90 47 1)" fill="#9A0000"/>
<rect x="52" y="1" width="2" height="2" transform="rotate(90 52 1)" fill="#9A0000"/>
<rect x="55" y="1" width="2" height="2" transform="rotate(90 55 1)" fill="#9A0000"/>
<rect x="58" y="1" width="2" height="2" transform="rotate(90 58 1)" fill="#9A0000"/>
<rect x="81" y="66" width="3" height="2" fill="#9A0000"/>
<rect x="81" y="69" width="3" height="2" fill="#9A0000"/>
<rect x="81" y="74" width="3" height="2" fill="#9A0000"/>
<rect x="81" y="77" width="3" height="2" fill="#9A0000"/>
<rect x="81" y="80" width="3" height="2" fill="#9A0000"/>
<rect x="81" y="63" width="3" height="2" fill="#9A0000"/>
<rect x="81" y="58" width="3" height="2" fill="#9A0000"/>
<rect x="81" y="55" width="3" height="2" fill="#9A0000"/>
<rect x="81" y="52" width="3" height="2" fill="#9A0000"/>
<defs>
<filter id="filter0_d_275_485" x="9.5" y="24.5" width="65" height="100" filterUnits="userSpaceOnUse" color-interpolation-filters="sRGB">
<feFlood flood-opacity="0" result="BackgroundImageFix"/>
<feColorMatrix in="SourceAlpha" type="matrix" values="0 0 0 0 0 0 0 0 0 0 0 0 0 0 0 0 0 0 127 0" result="hardAlpha"/>
<feOffset dy="4"/>
<feGaussianBlur stdDeviation="2"/>
<feComposite in2="hardAlpha" operator="out"/>
<feColorMatrix type="matrix" values="0 0 0 0 0 0 0 0 0 0 0 0 0 0 0 0 0 0 0.25 0"/>
<feBlend mode="normal" in2="BackgroundImageFix" result="effect1_dropShadow_275_485"/>
<feBlend mode="normal" in="SourceGraphic" in2="effect1_dropShadow_275_485" result="shape"/>
</filter>
<filter id="filter1_d_275_485" x="25.8203" y="53.1523" width="33.3398" height="44.707" filterUnits="userSpaceOnUse" color-interpolation-filters="sRGB">
<feFlood flood-opacity="0" result="BackgroundImageFix"/>
<feColorMatrix in="SourceAlpha" type="matrix" values="0 0 0 0 0 0 0 0 0 0 0 0 0 0 0 0 0 0 127 0" result="hardAlpha"/>
<feOffset dy="4"/>
<feGaussianBlur stdDeviation="2"/>
<feComposite in2="hardAlpha" operator="out"/>
<feColorMatrix type="matrix" values="0 0 0 0 0 0 0 0 0 0 0 0 0 0 0 0 0 0 0.25 0"/>
<feBlend mode="normal" in2="BackgroundImageFix" result="effect1_dropShadow_275_485"/>
<feBlend mode="normal" in="SourceGraphic" in2="effect1_dropShadow_275_485" result="shape"/>
</filter>
<linearGradient id="paint0_linear_275_485" x1="42.5" y1="3" x2="42.5" y2="134" gradientUnits="userSpaceOnUse">
<stop stop-color="#C70000" stop-opacity="0.95"/>
<stop offset="1" stop-color="#520000"/>
</linearGradient>
<linearGradient id="paint1_linear_275_485" x1="70.5962" y1="112.867" x2="68.1697" y2="130.133" gradientUnits="userSpaceOnUse">
<stop stop-color="#FFB2B2" stop-opacity="0.95"/>
<stop offset="1" stop-color="#900000"/>
</linearGradient>
<linearGradient id="paint2_linear_275_485" x1="42" y1="25" x2="42" y2="116" gradientUnits="userSpaceOnUse">
<stop stop-color="#FF5959"/>
<stop offset="1" stop-color="#7F0C0C"/>
</linearGradient>
<linearGradient id="paint3_linear_275_485" x1="14.596" y1="4.86706" x2="12.1694" y2="22.1329" gradientUnits="userSpaceOnUse">
<stop stop-color="#FFB2B2" stop-opacity="0.95"/>
<stop offset="1" stop-color="#900000"/>
</linearGradient>
</defs>
</svg>
