<svg width="80" height="140" viewBox="0 0 80 140" fill="none" xmlns="http://www.w3.org/2000/svg">
<rect x="0.5" y="0.5" width="79" height="139" rx="9.5" fill="white" stroke="black"/>
<rect x="4.26465" y="3.56567" width="71.4706" height="132.869" rx="9.5" fill="url(#paint0_linear_275_485)" stroke="black"/>
<path d="M66.4117 115.587C67.9055 115.815 69.17 116.946 69.9908 118.654C70.8107 120.36 71.1705 122.614 70.8606 125.009C70.5506 127.403 69.6325 129.462 68.4113 130.857C67.1886 132.254 65.6859 132.962 64.1921 132.735C62.6981 132.507 61.4328 131.375 60.6119 129.667C59.7922 127.961 59.4323 125.707 59.7422 123.312C60.0521 120.918 60.9703 118.859 62.1915 117.464C63.4142 116.068 64.9177 115.359 66.4117 115.587Z" fill="url(#paint1_linear_275_485)" stroke="#9A0000" stroke-width="0.5"/>
<mask id="path-4-outside-1_275_485" maskUnits="userSpaceOnUse" x="62.0212" y="118.252" width="6" height="9" fill="black">
<rect fill="white" x="62.0212" y="118.252" width="6" height="9"/>
<path d="M66.3726 121.182H66.3335C66.0861 121.177 65.8686 121.213 65.6811 121.292C65.4936 121.372 65.3335 121.486 65.2007 121.631C65.0679 121.777 64.9624 121.948 64.8843 122.143C64.8035 122.341 64.7463 122.555 64.7124 122.784L64.5601 123.924C64.5548 123.987 64.547 124.078 64.5366 124.198C64.5236 124.32 64.5223 124.446 64.5327 124.577C64.5405 124.709 64.5692 124.823 64.6186 124.917C64.6681 125.01 64.7476 125.058 64.8569 125.061C64.9715 125.066 65.0666 125.028 65.1421 124.948C65.215 124.867 65.2736 124.765 65.3179 124.643C65.3621 124.521 65.3947 124.398 65.4155 124.276C65.4364 124.153 65.4507 124.053 65.4585 123.975C65.4637 123.907 65.4689 123.819 65.4741 123.709C65.4767 123.6 65.4702 123.489 65.4546 123.377C65.4364 123.268 65.3999 123.174 65.3452 123.096C65.2905 123.021 65.2085 122.983 65.0991 122.983C65.0028 122.98 64.9207 123.004 64.853 123.053C64.7853 123.105 64.728 123.172 64.6811 123.252C64.6343 123.336 64.5978 123.422 64.5718 123.51C64.5431 123.601 64.5236 123.685 64.5132 123.76L64.1929 123.499C64.2085 123.34 64.2502 123.176 64.3179 123.006C64.383 122.84 64.4715 122.685 64.5835 122.542C64.6929 122.401 64.8218 122.288 64.9702 122.202C65.1186 122.116 65.284 122.074 65.4663 122.077C65.7137 122.079 65.9181 122.14 66.0796 122.26C66.2384 122.38 66.3608 122.535 66.4468 122.725C66.5301 122.918 66.5848 123.124 66.6108 123.342C66.6369 123.561 66.6421 123.771 66.6265 123.971C66.603 124.219 66.5457 124.465 66.4546 124.709C66.3608 124.954 66.2332 125.177 66.0718 125.377C65.9103 125.578 65.7202 125.737 65.5015 125.854C65.2801 125.974 65.0327 126.03 64.7593 126.022C64.4598 126.017 64.2176 125.937 64.0327 125.784C63.8452 125.633 63.7033 125.439 63.6069 125.202C63.5106 124.967 63.4494 124.716 63.4233 124.448C63.3973 124.18 63.3973 123.927 63.4233 123.69L63.478 123.272C63.5223 122.952 63.5952 122.64 63.6968 122.338C63.7957 122.039 63.9246 121.758 64.0835 121.495C64.2423 121.234 64.4325 121.006 64.6538 120.811C64.8752 120.616 65.1291 120.462 65.4155 120.35C65.6994 120.238 66.0197 120.181 66.3765 120.178H66.4702L66.3726 121.182Z"/>
<path d="M67.1694 119.471H63.146V119.081H67.1694V119.471Z"/>
</mask>
<path d="M66.3726 121.182H66.3335C66.0861 121.177 65.8686 121.213 65.6811 121.292C65.4936 121.372 65.3335 121.486 65.2007 121.631C65.0679 121.777 64.9624 121.948 64.8843 122.143C64.8035 122.341 64.7463 122.555 64.7124 122.784L64.5601 123.924C64.5548 123.987 64.547 124.078 64.5366 124.198C64.5236 124.32 64.5223 124.446 64.5327 124.577C64.5405 124.709 64.5692 124.823 64.6186 124.917C64.6681 125.01 64.7476 125.058 64.8569 125.061C64.9715 125.066 65.0666 125.028 65.1421 124.948C65.215 124.867 65.2736 124.765 65.3179 124.643C65.3621 124.521 65.3947 124.398 65.4155 124.276C65.4364 124.153 65.4507 124.053 65.4585 123.975C65.4637 123.907 65.4689 123.819 65.4741 123.709C65.4767 123.6 65.4702 123.489 65.4546 123.377C65.4364 123.268 65.3999 123.174 65.3452 123.096C65.2905 123.021 65.2085 122.983 65.0991 122.983C65.0028 122.98 64.9207 123.004 64.853 123.053C64.7853 123.105 64.728 123.172 64.6811 123.252C64.6343 123.336 64.5978 123.422 64.5718 123.51C64.5431 123.601 64.5236 123.685 64.5132 123.76L64.1929 123.499C64.2085 123.34 64.2502 123.176 64.3179 123.006C64.383 122.84 64.4715 122.685 64.5835 122.542C64.6929 122.401 64.8218 122.288 64.9702 122.202C65.1186 122.116 65.284 122.074 65.4663 122.077C65.7137 122.079 65.9181 122.14 66.0796 122.26C66.2384 122.38 66.3608 122.535 66.4468 122.725C66.5301 122.918 66.5848 123.124 66.6108 123.342C66.6369 123.561 66.6421 123.771 66.6265 123.971C66.603 124.219 66.5457 124.465 66.4546 124.709C66.3608 124.954 66.2332 125.177 66.0718 125.377C65.9103 125.578 65.7202 125.737 65.5015 125.854C65.2801 125.974 65.0327 126.03 64.7593 126.022C64.4598 126.017 64.2176 125.937 64.0327 125.784C63.8452 125.633 63.7033 125.439 63.6069 125.202C63.5106 124.967 63.4494 124.716 63.4233 124.448C63.3973 124.18 63.3973 123.927 63.4233 123.69L63.478 123.272C63.5223 122.952 63.5952 122.64 63.6968 122.338C63.7957 122.039 63.9246 121.758 64.0835 121.495C64.2423 121.234 64.4325 121.006 64.6538 120.811C64.8752 120.616 65.1291 120.462 65.4155 120.35C65.6994 120.238 66.0197 120.181 66.3765 120.178H66.4702L66.3726 121.182Z" fill="#9A0000"/>
<path d="M67.1694 119.471H63.146V119.081H67.1694V119.471Z" fill="#9A0000"/>
<path d="M66.3726 121.182V121.482H66.6448L66.6711 121.211L66.3726 121.182ZM66.3335 121.182L66.3272 121.482H66.3335V121.182ZM65.6811 121.292L65.5658 121.015L65.5625 121.016L65.6811 121.292ZM64.8843 122.143L65.1621 122.256L65.1628 122.254L64.8843 122.143ZM64.7124 122.784L64.4156 122.74L64.415 122.744L64.7124 122.784ZM64.5601 123.924L64.2627 123.885L64.2617 123.892L64.2611 123.899L64.5601 123.924ZM64.5366 124.198L64.835 124.229L64.8355 124.224L64.5366 124.198ZM64.5327 124.577L64.8323 124.559L64.8318 124.553L64.5327 124.577ZM64.8569 125.061L64.8706 124.761L64.8641 124.761L64.8569 125.061ZM65.1421 124.948L65.3612 125.153L65.3647 125.149L65.1421 124.948ZM65.4155 124.276L65.7113 124.326L65.4155 124.276ZM65.4585 123.975L65.7571 124.005L65.7576 123.998L65.4585 123.975ZM65.4741 123.709L65.7739 123.724L65.774 123.717L65.4741 123.709ZM65.4546 123.377L65.7518 123.336L65.7505 123.328L65.4546 123.377ZM65.3452 123.096L65.591 122.924L65.5882 122.92L65.3452 123.096ZM65.0991 122.983L65.091 123.283H65.0991V122.983ZM64.853 123.053L64.676 122.811L64.6701 122.815L64.853 123.053ZM64.6811 123.252L64.4217 123.102L64.4197 123.105L64.6811 123.252ZM64.5718 123.51L64.858 123.6L64.8596 123.595L64.5718 123.51ZM64.5132 123.76L64.3234 123.993L64.7373 124.331L64.8104 123.801L64.5132 123.76ZM64.1929 123.499L63.8943 123.469L63.8786 123.629L64.0031 123.731L64.1929 123.499ZM64.3179 123.006L64.5964 123.118L64.5973 123.116L64.3179 123.006ZM64.5835 122.542L64.8198 122.726L64.8203 122.726L64.5835 122.542ZM65.4663 122.077L65.462 122.377L65.4631 122.377L65.4663 122.077ZM66.0796 122.26L66.2602 122.021L66.2583 122.019L66.0796 122.26ZM66.4468 122.725L66.7222 122.606L66.7201 122.602L66.4468 122.725ZM66.6265 123.971L66.9252 123.999L66.9256 123.994L66.6265 123.971ZM66.4546 124.709L66.7348 124.817L66.7357 124.814L66.4546 124.709ZM65.5015 125.854L65.3598 125.59L65.3587 125.59L65.5015 125.854ZM64.7593 126.022L64.7678 125.722L64.7645 125.722L64.7593 126.022ZM64.0327 125.784L64.2245 125.553L64.2209 125.55L64.0327 125.784ZM63.6069 125.202L63.8848 125.089L63.8844 125.088L63.6069 125.202ZM63.4233 123.69L63.1258 123.651L63.1251 123.657L63.4233 123.69ZM63.478 123.272L63.1808 123.231L63.1806 123.233L63.478 123.272ZM63.6968 122.338L63.9811 122.434L63.9816 122.433L63.6968 122.338ZM64.0835 121.495L63.8274 121.338L63.8267 121.34L64.0835 121.495ZM65.4155 120.35L65.5247 120.63L65.5256 120.629L65.4155 120.35ZM66.3765 120.178V119.878L66.3743 119.878L66.3765 120.178ZM66.4702 120.178L66.7688 120.207L66.8008 119.878H66.4702V120.178ZM66.3726 121.182V120.882H66.3335V121.182V121.482H66.3726V121.182ZM66.3335 121.182L66.3398 120.882C66.0596 120.876 65.7992 120.917 65.5658 121.015L65.6811 121.292L65.7965 121.568C65.9381 121.509 66.1126 121.478 66.3272 121.482L66.3335 121.182ZM65.6811 121.292L65.5625 121.016C65.3372 121.113 65.1415 121.251 64.9789 121.429L65.2007 121.631L65.4225 121.833C65.5255 121.72 65.6501 121.631 65.7998 121.567L65.6811 121.292ZM65.2007 121.631L64.9789 121.429C64.8203 121.603 64.6963 121.805 64.6057 122.032L64.8843 122.143L65.1628 122.254C65.2285 122.09 65.3154 121.951 65.4225 121.833L65.2007 121.631ZM64.8843 122.143L64.6065 122.03C64.5159 122.252 64.4527 122.489 64.4156 122.74L64.7124 122.784L65.0092 122.828C65.0398 122.62 65.0911 122.43 65.1621 122.256L64.8843 122.143ZM64.7124 122.784L64.415 122.744L64.2627 123.885L64.5601 123.924L64.8574 123.964L65.0098 122.823L64.7124 122.784ZM64.5601 123.924L64.2611 123.899C64.2559 123.961 64.2482 124.052 64.2377 124.172L64.5366 124.198L64.8355 124.224C64.8459 124.104 64.8538 124.012 64.859 123.949L64.5601 123.924ZM64.5366 124.198L64.2383 124.166C64.2232 124.308 64.2219 124.453 64.2337 124.601L64.5327 124.577L64.8318 124.553C64.8227 124.44 64.824 124.332 64.8349 124.229L64.5366 124.198ZM64.5327 124.577L64.2332 124.594C64.2429 124.759 64.2794 124.917 64.3533 125.057L64.6186 124.917L64.884 124.776C64.8589 124.729 64.8381 124.66 64.8322 124.559L64.5327 124.577ZM64.6186 124.917L64.3533 125.057C64.3998 125.145 64.4673 125.223 64.5597 125.279C64.6517 125.335 64.7521 125.359 64.8498 125.361L64.8569 125.061L64.8641 124.761C64.8578 124.761 64.8564 124.76 64.8584 124.761C64.8607 124.761 64.8653 124.763 64.8709 124.766C64.8765 124.77 64.8808 124.774 64.8834 124.777C64.886 124.779 64.8858 124.78 64.884 124.776L64.6186 124.917ZM64.8569 125.061L64.8433 125.361C65.0418 125.37 65.2231 125.3 65.3612 125.153L65.1421 124.948L64.923 124.743C64.913 124.754 64.9066 124.757 64.9034 124.758C64.8999 124.759 64.8905 124.762 64.8706 124.761L64.8569 125.061ZM65.1421 124.948L65.3647 125.149C65.4683 125.034 65.545 124.897 65.6 124.745L65.3179 124.643L65.0358 124.541C65.0022 124.634 64.9617 124.7 64.9195 124.747L65.1421 124.948ZM65.3179 124.643L65.6 124.745C65.65 124.607 65.6873 124.467 65.7113 124.326L65.4155 124.276L65.1198 124.226C65.1021 124.33 65.0742 124.435 65.0358 124.541L65.3179 124.643ZM65.4155 124.276L65.7113 124.326C65.7327 124.2 65.7482 124.093 65.757 124.005L65.4585 123.975L65.16 123.945C65.1531 124.014 65.14 124.107 65.1198 124.226L65.4155 124.276ZM65.4585 123.975L65.7576 123.998C65.7631 123.926 65.7685 123.835 65.7738 123.724L65.4741 123.709L65.1745 123.695C65.1693 123.803 65.1643 123.888 65.1594 123.952L65.4585 123.975ZM65.4741 123.709L65.774 123.717C65.777 123.59 65.7695 123.464 65.7517 123.336L65.4546 123.377L65.1575 123.419C65.1709 123.515 65.1764 123.61 65.1742 123.702L65.4741 123.709ZM65.4546 123.377L65.7505 123.328C65.7261 123.182 65.6752 123.044 65.591 122.924L65.3452 123.096L65.0994 123.268C65.1246 123.304 65.1466 123.354 65.1587 123.427L65.4546 123.377ZM65.3452 123.096L65.5882 122.92C65.4668 122.753 65.2857 122.683 65.0991 122.683V122.983V123.283C65.1195 123.283 65.123 123.286 65.1172 123.284C65.1144 123.282 65.111 123.28 65.1077 123.278C65.1044 123.275 65.1026 123.273 65.1022 123.272L65.3452 123.096ZM65.0991 122.983L65.1072 122.683C64.9549 122.679 64.8052 122.717 64.676 122.811L64.853 123.053L65.03 123.295C65.0363 123.291 65.0507 123.282 65.091 123.283L65.0991 122.983ZM64.853 123.053L64.6701 122.815C64.5687 122.893 64.4864 122.99 64.4217 123.102L64.6811 123.252L64.9406 123.403C64.9697 123.353 65.0019 123.317 65.0359 123.291L64.853 123.053ZM64.6811 123.252L64.4197 123.105C64.3621 123.208 64.3166 123.315 64.284 123.426L64.5718 123.51L64.8596 123.595C64.879 123.529 64.9065 123.464 64.9426 123.4L64.6811 123.252ZM64.5718 123.51L64.2856 123.42C64.2531 123.524 64.2292 123.624 64.216 123.719L64.5132 123.76L64.8104 123.801C64.818 123.746 64.8332 123.679 64.858 123.6L64.5718 123.51ZM64.5132 123.76L64.703 123.528L64.3827 123.266L64.1929 123.499L64.0031 123.731L64.3234 123.993L64.5132 123.76ZM64.1929 123.499L64.4914 123.528C64.5039 123.401 64.5377 123.264 64.5964 123.118L64.3179 123.006L64.0393 122.895C63.9626 123.087 63.9131 123.278 63.8943 123.469L64.1929 123.499ZM64.3179 123.006L64.5973 123.116C64.6516 122.976 64.7255 122.847 64.8198 122.726L64.5835 122.542L64.3471 122.357C64.2175 122.523 64.1143 122.703 64.0384 122.897L64.3179 123.006ZM64.5835 122.542L64.8203 122.726C64.9069 122.614 65.0068 122.527 65.1205 122.461L64.9702 122.202L64.8199 121.942C64.6368 122.048 64.4788 122.187 64.3467 122.357L64.5835 122.542ZM64.9702 122.202L65.1205 122.461C65.219 122.404 65.3304 122.375 65.462 122.377L65.4663 122.077L65.4706 121.777C65.2376 121.773 65.0183 121.827 64.8199 121.942L64.9702 122.202ZM65.4663 122.077L65.4631 122.377C65.6621 122.379 65.801 122.427 65.9008 122.501L66.0796 122.26L66.2583 122.019C66.0353 121.854 65.7653 121.78 65.4695 121.777L65.4663 122.077ZM66.0796 122.26L65.899 122.5C66.0157 122.588 66.1071 122.702 66.1734 122.849L66.4468 122.725L66.7201 122.602C66.6145 122.368 66.4612 122.172 66.2602 122.021L66.0796 122.26ZM66.4468 122.725L66.1714 122.844C66.2427 123.009 66.2902 123.186 66.3129 123.378L66.6108 123.342L66.9087 123.307C66.8794 123.061 66.8175 122.827 66.7221 122.606L66.4468 122.725ZM66.6108 123.342L66.3129 123.378C66.3369 123.579 66.3413 123.769 66.3274 123.948L66.6265 123.971L66.9256 123.994C66.9428 123.773 66.9369 123.543 66.9087 123.307L66.6108 123.342ZM66.6265 123.971L66.3278 123.943C66.307 124.163 66.2559 124.383 66.1734 124.605L66.4546 124.709L66.7357 124.814C66.8356 124.546 66.8991 124.274 66.9251 123.999L66.6265 123.971ZM66.4546 124.709L66.1744 124.602C66.0917 124.818 65.9796 125.014 65.8381 125.189L66.0718 125.377L66.3054 125.566C66.4869 125.34 66.63 125.09 66.7347 124.817L66.4546 124.709ZM66.0718 125.377L65.8381 125.189C65.7009 125.36 65.5417 125.492 65.3598 125.59L65.5015 125.854L65.6431 126.118C65.8987 125.982 66.1197 125.796 66.3054 125.566L66.0718 125.377ZM65.5015 125.854L65.3587 125.59C65.1877 125.683 64.9933 125.729 64.7678 125.722L64.7593 126.022L64.7507 126.322C65.0722 126.331 65.3725 126.265 65.6442 126.118L65.5015 125.854ZM64.7593 126.022L64.7645 125.722C64.5161 125.718 64.345 125.653 64.2244 125.553L64.0327 125.784L63.841 126.014C64.0902 126.222 64.4035 126.316 64.7541 126.322L64.7593 126.022ZM64.0327 125.784L64.2209 125.55C64.0756 125.433 63.9632 125.282 63.8848 125.089L63.6069 125.202L63.329 125.315C63.4433 125.596 63.6149 125.832 63.8445 126.017L64.0327 125.784ZM63.6069 125.202L63.8844 125.088C63.7999 124.882 63.7453 124.66 63.7219 124.419L63.4233 124.448L63.1247 124.477C63.1534 124.772 63.2212 125.053 63.3295 125.316L63.6069 125.202ZM63.4233 124.448L63.7219 124.419C63.6976 124.168 63.698 123.937 63.7215 123.723L63.4233 123.69L63.1251 123.657C63.0966 123.917 63.097 124.191 63.1247 124.477L63.4233 124.448ZM63.4233 123.69L63.7208 123.729L63.7755 123.311L63.478 123.272L63.1806 123.233L63.1259 123.651L63.4233 123.69ZM63.478 123.272L63.7752 123.313C63.8169 123.011 63.8856 122.718 63.9811 122.434L63.6968 122.338L63.4124 122.243C63.3048 122.563 63.2276 122.892 63.1808 123.231L63.478 123.272ZM63.6968 122.338L63.9816 122.433C64.0737 122.154 64.1933 121.893 64.3403 121.65L64.0835 121.495L63.8267 121.34C63.6559 121.622 63.5177 121.924 63.4119 122.244L63.6968 122.338ZM64.0835 121.495L64.3396 121.651C64.4833 121.415 64.6542 121.211 64.8523 121.036L64.6538 120.811L64.4553 120.586C64.2107 120.802 64.0014 121.053 63.8274 121.338L64.0835 121.495ZM64.6538 120.811L64.8523 121.036C65.0462 120.865 65.2696 120.729 65.5247 120.63L65.4155 120.35L65.3063 120.071C64.9885 120.195 64.7041 120.367 64.4553 120.586L64.6538 120.811ZM65.4155 120.35L65.5256 120.629C65.7698 120.533 66.0527 120.481 66.3787 120.478L66.3765 120.178L66.3743 119.878C65.9867 119.881 65.6289 119.943 65.3054 120.071L65.4155 120.35ZM66.3765 120.178V120.478H66.4702V120.178V119.878H66.3765V120.178ZM66.4702 120.178L66.1716 120.149L66.074 121.153L66.3726 121.182L66.6711 121.211L66.7688 120.207L66.4702 120.178Z" fill="#620202" mask="url(#path-4-outside-1_275_485)"/>
<path d="M67.1694 119.471V119.771H67.4694V119.471H67.1694ZM63.146 119.471H62.846V119.771H63.146V119.471ZM63.146 119.081V118.781H62.846V119.081H63.146ZM67.1694 119.081H67.4694V118.781H67.1694V119.081ZM67.1694 119.471V119.171H63.146V119.471V119.771H67.1694V119.471ZM63.146 119.471H63.446V119.081H63.146H62.846V119.471H63.146ZM63.146 119.081V119.381H67.1694V119.081V118.781H63.146V119.081ZM67.1694 119.081H66.8694V119.471H67.1694H67.4694V119.081H67.1694Z" fill="#620202" mask="url(#path-4-outside-1_275_485)"/>
<g filter="url(#filter0_d_275_485)">
<ellipse cx="39.5295" cy="72.0437" rx="26.3529" ry="46.4963" fill="url(#paint2_linear_275_485)"/>
<ellipse cx="39.5295" cy="72.0437" rx="26.3529" ry="46.4963" stroke="#9A0000"/>
</g>
<g filter="url(#filter1_d_275_485)">
<mask id="path-7-outside-2_275_485" maskUnits="userSpaceOnUse" x="27" y="54.613" width="26" height="37" fill="black">
<rect fill="white" x="27" y="54.613" width="26" height="37"/>
<path d="M34.2578 80.3357H34.6289C36.1914 80.3357 37.5326 80.1469 38.6523 79.7693C39.7852 79.3787 40.7161 78.8188 41.4453 78.0896C42.1745 77.3604 42.7148 76.4685 43.0664 75.4138C43.418 74.3461 43.5938 73.1352 43.5938 71.781V66.3904C43.5938 65.3617 43.4896 64.4568 43.2812 63.6755C43.0859 62.8943 42.7995 62.2498 42.4219 61.7419C42.0573 61.2211 41.6276 60.8305 41.1328 60.5701C40.651 60.3097 40.1172 60.1794 39.5312 60.1794C38.9062 60.1794 38.3529 60.3357 37.8711 60.6482C37.3893 60.9477 36.9792 61.3578 36.6406 61.8787C36.3151 62.3995 36.0612 62.9985 35.8789 63.6755C35.7096 64.3396 35.625 65.0362 35.625 65.7654C35.625 66.4945 35.7096 67.1912 35.8789 67.8552C36.0482 68.5063 36.3021 69.0857 36.6406 69.5935C36.9792 70.0883 37.4023 70.4854 37.9102 70.7849C38.418 71.0714 39.0169 71.2146 39.707 71.2146C40.3711 71.2146 40.9635 71.0909 41.4844 70.8435C42.0182 70.5831 42.4674 70.2445 42.832 69.8279C43.2096 69.4112 43.4961 68.949 43.6914 68.4412C43.8997 67.9333 44.0039 67.419 44.0039 66.8982L45.8594 67.9138C45.8594 68.8253 45.6641 69.7237 45.2734 70.6091C44.8828 71.4945 44.3359 72.3018 43.6328 73.031C42.9427 73.7472 42.1419 74.3201 41.2305 74.7498C40.319 75.1794 39.3424 75.3943 38.3008 75.3943C36.9727 75.3943 35.7943 75.1534 34.7656 74.6716C33.737 74.1768 32.8646 73.4998 32.1484 72.6404C31.4453 71.768 30.9115 70.7524 30.5469 69.5935C30.1823 68.4347 30 67.1781 30 65.824C30 64.4438 30.2214 63.1482 30.6641 61.9373C31.1198 60.7263 31.7643 59.6586 32.5977 58.7341C33.444 57.8097 34.4531 57.087 35.625 56.5662C36.8099 56.0323 38.125 55.7654 39.5703 55.7654C41.0156 55.7654 42.3307 56.0453 43.5156 56.6052C44.7005 57.1651 45.7161 57.9594 46.5625 58.988C47.4089 60.0037 48.0599 61.2211 48.5156 62.6404C48.9844 64.0597 49.2188 65.6352 49.2188 67.3669V69.3201C49.2188 71.169 49.0169 72.8878 48.6133 74.4763C48.2227 76.0649 47.6302 77.5037 46.8359 78.7927C46.0547 80.0688 45.0781 81.1625 43.9062 82.074C42.7474 82.9854 41.3997 83.682 39.8633 84.1638C38.3268 84.6456 36.6081 84.8865 34.707 84.8865H34.2578V80.3357Z"/>
<path d="M28.3203 88.5193H51.6602V90.4724H28.3203V88.5193Z"/>
</mask>
<path d="M34.2578 80.3357H34.6289C36.1914 80.3357 37.5326 80.1469 38.6523 79.7693C39.7852 79.3787 40.7161 78.8188 41.4453 78.0896C42.1745 77.3604 42.7148 76.4685 43.0664 75.4138C43.418 74.3461 43.5938 73.1352 43.5938 71.781V66.3904C43.5938 65.3617 43.4896 64.4568 43.2812 63.6755C43.0859 62.8943 42.7995 62.2498 42.4219 61.7419C42.0573 61.2211 41.6276 60.8305 41.1328 60.5701C40.651 60.3097 40.1172 60.1794 39.5312 60.1794C38.9062 60.1794 38.3529 60.3357 37.8711 60.6482C37.3893 60.9477 36.9792 61.3578 36.6406 61.8787C36.3151 62.3995 36.0612 62.9985 35.8789 63.6755C35.7096 64.3396 35.625 65.0362 35.625 65.7654C35.625 66.4945 35.7096 67.1912 35.8789 67.8552C36.0482 68.5063 36.3021 69.0857 36.6406 69.5935C36.9792 70.0883 37.4023 70.4854 37.9102 70.7849C38.418 71.0714 39.0169 71.2146 39.707 71.2146C40.3711 71.2146 40.9635 71.0909 41.4844 70.8435C42.0182 70.5831 42.4674 70.2445 42.832 69.8279C43.2096 69.4112 43.4961 68.949 43.6914 68.4412C43.8997 67.9333 44.0039 67.419 44.0039 66.8982L45.8594 67.9138C45.8594 68.8253 45.6641 69.7237 45.2734 70.6091C44.8828 71.4945 44.3359 72.3018 43.6328 73.031C42.9427 73.7472 42.1419 74.3201 41.2305 74.7498C40.319 75.1794 39.3424 75.3943 38.3008 75.3943C36.9727 75.3943 35.7943 75.1534 34.7656 74.6716C33.737 74.1768 32.8646 73.4998 32.1484 72.6404C31.4453 71.768 30.9115 70.7524 30.5469 69.5935C30.1823 68.4347 30 67.1781 30 65.824C30 64.4438 30.2214 63.1482 30.6641 61.9373C31.1198 60.7263 31.7643 59.6586 32.5977 58.7341C33.444 57.8097 34.4531 57.087 35.625 56.5662C36.8099 56.0323 38.125 55.7654 39.5703 55.7654C41.0156 55.7654 42.3307 56.0453 43.5156 56.6052C44.7005 57.1651 45.7161 57.9594 46.5625 58.988C47.4089 60.0037 48.0599 61.2211 48.5156 62.6404C48.9844 64.0597 49.2188 65.6352 49.2188 67.3669V69.3201C49.2188 71.169 49.0169 72.8878 48.6133 74.4763C48.2227 76.0649 47.6302 77.5037 46.8359 78.7927C46.0547 80.0688 45.0781 81.1625 43.9062 82.074C42.7474 82.9854 41.3997 83.682 39.8633 84.1638C38.3268 84.6456 36.6081 84.8865 34.707 84.8865H34.2578V80.3357Z" fill="#9A0000"/>
<path d="M28.3203 88.5193H51.6602V90.4724H28.3203V88.5193Z" fill="#9A0000"/>
<path d="M34.2578 80.3357V79.3357H33.2578V80.3357H34.2578ZM38.6523 79.7693L38.9719 80.7169L38.9783 80.7147L38.6523 79.7693ZM43.0664 75.4138L44.0151 75.73L44.0162 75.7266L43.0664 75.4138ZM43.2812 63.6755L42.3111 63.9181L42.313 63.9257L42.315 63.9332L43.2812 63.6755ZM42.4219 61.7419L41.6026 62.3154L41.6109 62.3271L41.6194 62.3386L42.4219 61.7419ZM41.1328 60.5701L40.6573 61.4498L40.6671 61.455L41.1328 60.5701ZM37.8711 60.6482L38.399 61.4975L38.4072 61.4924L38.4153 61.4872L37.8711 60.6482ZM36.6406 61.8787L35.8022 61.3337L35.7973 61.3411L35.7926 61.3487L36.6406 61.8787ZM35.8789 63.6755L34.9132 63.4155L34.9099 63.4285L35.8789 63.6755ZM35.8789 67.8552L34.9099 68.1022L34.9111 68.1069L35.8789 67.8552ZM36.6406 69.5935L35.8085 70.1482L35.8153 70.1582L36.6406 69.5935ZM37.9102 70.7849L37.4022 71.6463L37.4105 71.6512L37.4188 71.6559L37.9102 70.7849ZM41.4844 70.8435L41.9135 71.7468L41.9228 71.7423L41.4844 70.8435ZM42.832 69.8279L42.091 69.1564L42.0852 69.1628L42.0795 69.1694L42.832 69.8279ZM43.6914 68.4412L42.7662 68.0616L42.762 68.0718L42.7581 68.0822L43.6914 68.4412ZM44.0039 66.8982L44.4841 66.021L43.0039 65.2108V66.8982H44.0039ZM45.8594 67.9138H46.8594V67.3212L46.3395 67.0366L45.8594 67.9138ZM43.6328 73.031L42.913 72.3369L42.9127 72.3371L43.6328 73.031ZM34.7656 74.6716L34.3321 75.5728L34.3415 75.5772L34.7656 74.6716ZM32.1484 72.6404L31.3698 73.2679L31.375 73.2743L31.3802 73.2806L32.1484 72.6404ZM30.6641 61.9373L29.7281 61.585L29.7249 61.5939L30.6641 61.9373ZM32.5977 58.7341L31.86 58.0589L31.8549 58.0646L32.5977 58.7341ZM35.625 56.5662L36.0311 57.48L36.0358 57.4779L35.625 56.5662ZM46.5625 58.988L45.7903 59.6234L45.7943 59.6282L46.5625 58.988ZM48.5156 62.6404L47.5635 62.9461L47.5661 62.954L48.5156 62.6404ZM48.6133 74.4763L47.6441 74.23L47.6422 74.2375L48.6133 74.4763ZM46.8359 78.7927L45.9846 78.2681L45.9831 78.2706L46.8359 78.7927ZM43.9062 82.074L43.2923 81.2846L43.288 81.288L43.9062 82.074ZM34.2578 84.8865H33.2578V85.8865H34.2578V84.8865ZM34.2578 80.3357V81.3357H34.6289V80.3357V79.3357H34.2578V80.3357ZM34.6289 80.3357V81.3357C36.2672 81.3357 37.722 81.1383 38.9719 80.7169L38.6523 79.7693L38.3328 78.8217C37.3431 79.1555 36.1156 79.3357 34.6289 79.3357V80.3357ZM38.6523 79.7693L38.9783 80.7147C40.2314 80.2826 41.2998 79.6493 42.1524 78.7967L41.4453 78.0896L40.7382 77.3825C40.1324 77.9883 39.3389 78.4748 38.3264 78.8239L38.6523 79.7693ZM41.4453 78.0896L42.1524 78.7967C42.9998 77.9493 43.6184 76.9203 44.0151 75.73L43.0664 75.4138L42.1177 75.0976C41.8113 76.0167 41.3492 76.7715 40.7382 77.3825L41.4453 78.0896ZM43.0664 75.4138L44.0162 75.7266C44.407 74.5397 44.5938 73.2204 44.5938 71.781H43.5938H42.5938C42.5938 73.05 42.4289 74.1525 42.1166 75.1011L43.0664 75.4138ZM43.5938 71.781H44.5938V66.3904H43.5938H42.5938V71.781H43.5938ZM43.5938 66.3904H44.5938C44.5938 65.2971 44.4833 64.3024 44.2475 63.4179L43.2812 63.6755L42.315 63.9332C42.4958 64.6112 42.5938 65.4264 42.5938 66.3904H43.5938ZM43.2812 63.6755L44.2514 63.433C44.0325 62.5573 43.6989 61.7835 43.2243 61.1452L42.4219 61.7419L41.6194 62.3386C41.9 62.716 42.1394 63.2313 42.3111 63.9181L43.2812 63.6755ZM42.4219 61.7419L43.2411 61.1685C42.7978 60.5352 42.2526 60.0294 41.5986 59.6852L41.1328 60.5701L40.6671 61.455C41.0026 61.6316 41.3168 61.907 41.6026 62.3154L42.4219 61.7419ZM41.1328 60.5701L41.6083 59.6904C40.9703 59.3455 40.2713 59.1794 39.5312 59.1794V60.1794V61.1794C39.9631 61.1794 40.3317 61.2738 40.6573 61.4498L41.1328 60.5701ZM39.5312 60.1794V59.1794C38.7309 59.1794 37.985 59.3824 37.3269 59.8092L37.8711 60.6482L38.4153 61.4872C38.7207 61.289 39.0816 61.1794 39.5312 61.1794V60.1794ZM37.8711 60.6482L37.3432 59.7989C36.7254 60.1829 36.213 60.7017 35.8022 61.3337L36.6406 61.8787L37.4791 62.4237C37.7454 62.014 38.0533 61.7124 38.399 61.4975L37.8711 60.6482ZM36.6406 61.8787L35.7926 61.3487C35.408 61.9641 35.1177 62.6564 34.9133 63.4156L35.8789 63.6755L36.8445 63.9355C37.0047 63.3405 37.2222 62.8349 37.4886 62.4087L36.6406 61.8787ZM35.8789 63.6755L34.9099 63.4285C34.7188 64.1783 34.625 64.9582 34.625 65.7654H35.625H36.625C36.625 65.1142 36.7005 64.5009 36.8479 63.9225L35.8789 63.6755ZM35.625 65.7654H34.625C34.625 66.5725 34.7188 67.3525 34.9099 68.1022L35.8789 67.8552L36.8479 67.6082C36.7005 67.0299 36.625 66.4166 36.625 65.7654H35.625ZM35.8789 67.8552L34.9111 68.1069C35.1056 68.8548 35.4022 69.5387 35.8086 70.1482L36.6406 69.5935L37.4727 69.0388C37.202 68.6327 36.9908 68.1577 36.8467 67.6036L35.8789 67.8552ZM36.6406 69.5935L35.8153 70.1582C36.2352 70.7718 36.7659 71.2711 37.4022 71.6463L37.9102 70.7849L38.4181 69.9235C38.0388 69.6998 37.7232 69.4048 37.4659 69.0288L36.6406 69.5935ZM37.9102 70.7849L37.4188 71.6559C38.102 72.0413 38.8765 72.2146 39.707 72.2146V71.2146V70.2146C39.1574 70.2146 38.734 70.1015 38.4015 69.9139L37.9102 70.7849ZM39.707 71.2146V72.2146C40.497 72.2146 41.2396 72.0669 41.9134 71.7468L41.4844 70.8435L41.0553 69.9402C40.6875 70.115 40.2452 70.2146 39.707 70.2146V71.2146ZM41.4844 70.8435L41.9228 71.7423C42.5675 71.4278 43.1261 71.0104 43.5846 70.4864L42.832 69.8279L42.0795 69.1694C41.8088 69.4787 41.469 69.7384 41.046 69.9447L41.4844 70.8435ZM42.832 69.8279L43.573 70.4994C44.0306 69.9944 44.3837 69.427 44.6248 68.8001L43.6914 68.4412L42.7581 68.0822C42.6085 68.471 42.3886 68.828 42.091 69.1564L42.832 69.8279ZM43.6914 68.4412L44.6166 68.8207C44.8716 68.1991 45.0039 67.5561 45.0039 66.8982H44.0039H43.0039C43.0039 67.2819 42.9279 67.6676 42.7662 68.0616L43.6914 68.4412ZM44.0039 66.8982L43.5238 67.7754L45.3792 68.791L45.8594 67.9138L46.3395 67.0366L44.4841 66.021L44.0039 66.8982ZM45.8594 67.9138H44.8594C44.8594 68.6778 44.6966 69.4393 44.3585 70.2055L45.2734 70.6091L46.1884 71.0128C46.6316 70.0082 46.8594 68.9727 46.8594 67.9138H45.8594ZM45.2734 70.6091L44.3585 70.2055C44.0175 70.9784 43.5384 71.6883 42.913 72.3369L43.6328 73.031L44.3527 73.7251C45.1335 72.9154 45.7481 72.0107 46.1884 71.0128L45.2734 70.6091ZM43.6328 73.031L42.9127 72.3371C42.308 72.9646 41.6071 73.4666 40.8041 73.8452L41.2305 74.7498L41.6569 75.6543C42.6767 75.1735 43.5774 74.5297 44.3529 73.7249L43.6328 73.031ZM41.2305 74.7498L40.8041 73.8452C40.0305 74.2099 39.2001 74.3943 38.3008 74.3943V75.3943V76.3943C39.4848 76.3943 40.6075 76.149 41.6569 75.6543L41.2305 74.7498ZM38.3008 75.3943V74.3943C37.0946 74.3943 36.065 74.176 35.1898 73.766L34.7656 74.6716L34.3415 75.5772C35.5235 76.1308 36.8507 76.3943 38.3008 76.3943V75.3943ZM34.7656 74.6716L35.1991 73.7705C34.2967 73.3364 33.5393 72.7473 32.9167 72.0002L32.1484 72.6404L31.3802 73.2806C32.1899 74.2522 33.1772 75.0173 34.3322 75.5728L34.7656 74.6716ZM32.1484 72.6404L32.927 72.0129C32.3087 71.2456 31.8311 70.3432 31.5008 69.2934L30.5469 69.5935L29.593 69.8936C29.9919 71.1615 30.582 72.2904 31.3698 73.2679L32.1484 72.6404ZM30.5469 69.5935L31.5008 69.2934C31.17 68.2421 31 67.0879 31 65.824H30H29C29 67.2684 29.1946 68.6272 29.593 69.8936L30.5469 69.5935ZM30 65.824H31C31 64.5526 31.2035 63.374 31.6033 62.2806L30.6641 61.9373L29.7249 61.5939C29.2392 62.9224 29 64.3349 29 65.824H30ZM30.6641 61.9373L31.6 62.2895C32.0135 61.1908 32.594 60.2317 33.3404 59.4037L32.5977 58.7341L31.8549 58.0646C30.9346 59.0855 30.2261 60.2619 29.7281 61.585L30.6641 61.9373ZM32.5977 58.7341L33.3352 59.4094C34.0865 58.5888 34.982 57.9463 36.0311 57.48L35.625 56.5662L35.2189 55.6524C33.9243 56.2277 32.8015 57.0305 31.8601 58.0589L32.5977 58.7341ZM35.625 56.5662L36.0358 57.4779C37.0777 57.0084 38.2507 56.7654 39.5703 56.7654V55.7654V54.7654C37.9993 54.7654 36.542 55.0562 35.2142 55.6544L35.625 56.5662ZM39.5703 55.7654V56.7654C40.8832 56.7654 42.0503 57.0188 43.0884 57.5094L43.5156 56.6052L43.9429 55.7011C42.6112 55.0718 41.148 54.7654 39.5703 54.7654V55.7654ZM43.5156 56.6052L43.0884 57.5094C44.1376 58.0052 45.0361 58.7068 45.7903 59.6234L46.5625 58.988L47.3347 58.3527C46.3962 57.212 45.2634 56.3251 43.9429 55.7011L43.5156 56.6052ZM46.5625 58.988L45.7943 59.6282C46.5486 60.5334 47.1421 61.6336 47.5635 62.9461L48.5156 62.6404L49.4677 62.3347C48.9777 60.8086 48.2691 59.4739 47.3307 58.3479L46.5625 58.988ZM48.5156 62.6404L47.5661 62.954C47.9966 64.2575 48.2188 65.7252 48.2188 67.3669H49.2188H50.2188C50.2188 65.5452 49.9722 63.8618 49.4652 62.3268L48.5156 62.6404ZM49.2188 67.3669H48.2188V69.3201H49.2188H50.2188V67.3669H49.2188ZM49.2188 69.3201H48.2188C48.2188 71.0964 48.0249 72.7315 47.6441 74.23L48.6133 74.4763L49.5825 74.7226C50.009 73.044 50.2188 71.2417 50.2188 69.3201H49.2188ZM48.6133 74.4763L47.6422 74.2375C47.2744 75.7333 46.7201 77.0744 45.9846 78.2681L46.8359 78.7927L47.6873 79.3173C48.5403 77.9329 49.1709 76.3965 49.5844 74.7151L48.6133 74.4763ZM46.8359 78.7927L45.9831 78.2706C45.2642 79.4447 44.3683 80.4477 43.2923 81.2846L43.9062 82.074L44.5202 82.8633C45.7879 81.8773 46.8451 80.6928 47.6888 79.3149L46.8359 78.7927ZM43.9062 82.074L43.288 81.288C42.2329 82.1179 40.9956 82.7608 39.5641 83.2096L39.8633 84.1638L40.1625 85.118C41.8039 84.6033 43.2619 83.853 44.5245 82.86L43.9062 82.074ZM39.8633 84.1638L39.5641 83.2096C38.1401 83.6561 36.5244 83.8865 34.707 83.8865V84.8865V85.8865C36.6917 85.8865 38.5135 85.635 40.1625 85.118L39.8633 84.1638ZM34.707 84.8865V83.8865H34.2578V84.8865V85.8865H34.707V84.8865ZM34.2578 84.8865H35.2578V80.3357H34.2578H33.2578V84.8865H34.2578Z" fill="black" mask="url(#path-7-outside-2_275_485)"/>
<path d="M28.3203 88.5193V87.5193H27.3203V88.5193H28.3203ZM51.6602 88.5193H52.6602V87.5193H51.6602V88.5193ZM51.6602 90.4724V91.4724H52.6602V90.4724H51.6602ZM28.3203 90.4724H27.3203V91.4724H28.3203V90.4724ZM28.3203 88.5193V89.5193H51.6602V88.5193V87.5193H28.3203V88.5193ZM51.6602 88.5193H50.6602V90.4724H51.6602H52.6602V88.5193H51.6602ZM51.6602 90.4724V89.4724H28.3203V90.4724V91.4724H51.6602V90.4724ZM28.3203 90.4724H29.3203V88.5193H28.3203H27.3203V90.4724H28.3203Z" fill="black" mask="url(#path-7-outside-2_275_485)"/>
</g>
<path d="M13.7056 5.22167C15.1995 5.44972 16.464 6.58097 17.2848 8.2892C18.1046 9.99542 18.4644 12.2494 18.1545 14.6439C17.8446 17.0384 16.9265 19.0973 15.7052 20.4921C14.4825 21.8885 12.9799 22.5975 11.486 22.3696C9.99202 22.1417 8.72675 21.0103 7.90588 19.3019C7.08612 17.5957 6.72622 15.3416 7.03615 12.9473C7.34609 10.5529 8.26424 8.49383 9.48541 7.09906C10.7082 5.70252 12.2116 4.99369 13.7056 5.22167Z" fill="url(#paint3_linear_275_485)" stroke="#9A0000" stroke-width="0.5"/>
<mask id="path-10-outside-3_275_485" maskUnits="userSpaceOnUse" x="9.76465" y="9.13135" width="5" height="9" fill="black">
<rect fill="white" x="9.76465" y="9.13135" width="5" height="9"/>
<path d="M11.0204 15.2017H11.0595C11.3069 15.2069 11.5243 15.1704 11.7118 15.0923C11.8993 15.0116 12.0595 14.8983 12.1923 14.7524C12.3251 14.6066 12.4305 14.436 12.5087 14.2407C12.5894 14.0428 12.6467 13.8293 12.6805 13.6001L12.8329 12.4595C12.8381 12.397 12.8459 12.3058 12.8563 12.186C12.8694 12.0636 12.8707 11.9373 12.8602 11.8071C12.8524 11.6743 12.8238 11.561 12.7743 11.4673C12.7248 11.3735 12.6454 11.3254 12.536 11.3228C12.4214 11.3175 12.3264 11.3553 12.2509 11.436C12.1779 11.5168 12.1194 11.6183 12.0751 11.7407C12.0308 11.8631 11.9983 11.9855 11.9774 12.1079C11.9566 12.2303 11.9423 12.3306 11.9345 12.4087C11.9292 12.4764 11.924 12.5649 11.9188 12.6743C11.9162 12.7837 11.9227 12.8944 11.9384 13.0063C11.9566 13.1157 11.993 13.2095 12.0477 13.2876C12.1024 13.3631 12.1845 13.4009 12.2938 13.4009C12.3902 13.4035 12.4722 13.38 12.5399 13.3306C12.6076 13.2785 12.6649 13.2121 12.7118 13.1313C12.7587 13.048 12.7951 12.9621 12.8212 12.8735C12.8498 12.7824 12.8694 12.6991 12.8798 12.6235L13.2001 12.8853C13.1845 13.0441 13.1428 13.2082 13.0751 13.3774C13.01 13.5441 12.9214 13.6991 12.8095 13.8423C12.7001 13.9829 12.5712 14.0962 12.4227 14.1821C12.2743 14.2681 12.1089 14.3097 11.9266 14.3071C11.6792 14.3045 11.4748 14.2433 11.3134 14.1235C11.1545 14.0037 11.0321 13.8488 10.9462 13.6587C10.8628 13.466 10.8082 13.2603 10.7821 13.0415C10.7561 12.8228 10.7509 12.6131 10.7665 12.4126C10.7899 12.1652 10.8472 11.9191 10.9384 11.6743C11.0321 11.4295 11.1597 11.2069 11.3212 11.0063C11.4826 10.8058 11.6727 10.647 11.8915 10.5298C12.1128 10.41 12.3602 10.354 12.6337 10.3618C12.9332 10.367 13.1753 10.4465 13.3602 10.6001C13.5477 10.7511 13.6897 10.9451 13.786 11.1821C13.8824 11.4165 13.9436 11.6678 13.9696 11.936C13.9957 12.2043 13.9957 12.4569 13.9696 12.6938L13.9149 13.1118C13.8707 13.4321 13.7977 13.7433 13.6962 14.0454C13.5972 14.3449 13.4683 14.6261 13.3095 14.8892C13.1506 15.1496 12.9605 15.3774 12.7391 15.5728C12.5178 15.7681 12.2639 15.9217 11.9774 16.0337C11.6936 16.1457 11.3733 16.203 11.0165 16.2056H10.9227L11.0204 15.2017Z"/>
<path d="M10.2235 16.9126H14.247V17.3032H10.2235V16.9126Z"/>
</mask>
<path d="M11.0204 15.2017H11.0595C11.3069 15.2069 11.5243 15.1704 11.7118 15.0923C11.8993 15.0116 12.0595 14.8983 12.1923 14.7524C12.3251 14.6066 12.4305 14.436 12.5087 14.2407C12.5894 14.0428 12.6467 13.8293 12.6805 13.6001L12.8329 12.4595C12.8381 12.397 12.8459 12.3058 12.8563 12.186C12.8694 12.0636 12.8707 11.9373 12.8602 11.8071C12.8524 11.6743 12.8238 11.561 12.7743 11.4673C12.7248 11.3735 12.6454 11.3254 12.536 11.3228C12.4214 11.3175 12.3264 11.3553 12.2509 11.436C12.1779 11.5168 12.1194 11.6183 12.0751 11.7407C12.0308 11.8631 11.9983 11.9855 11.9774 12.1079C11.9566 12.2303 11.9423 12.3306 11.9345 12.4087C11.9292 12.4764 11.924 12.5649 11.9188 12.6743C11.9162 12.7837 11.9227 12.8944 11.9384 13.0063C11.9566 13.1157 11.993 13.2095 12.0477 13.2876C12.1024 13.3631 12.1845 13.4009 12.2938 13.4009C12.3902 13.4035 12.4722 13.38 12.5399 13.3306C12.6076 13.2785 12.6649 13.2121 12.7118 13.1313C12.7587 13.048 12.7951 12.9621 12.8212 12.8735C12.8498 12.7824 12.8694 12.6991 12.8798 12.6235L13.2001 12.8853C13.1845 13.0441 13.1428 13.2082 13.0751 13.3774C13.01 13.5441 12.9214 13.6991 12.8095 13.8423C12.7001 13.9829 12.5712 14.0962 12.4227 14.1821C12.2743 14.2681 12.1089 14.3097 11.9266 14.3071C11.6792 14.3045 11.4748 14.2433 11.3134 14.1235C11.1545 14.0037 11.0321 13.8488 10.9462 13.6587C10.8628 13.466 10.8082 13.2603 10.7821 13.0415C10.7561 12.8228 10.7509 12.6131 10.7665 12.4126C10.7899 12.1652 10.8472 11.9191 10.9384 11.6743C11.0321 11.4295 11.1597 11.2069 11.3212 11.0063C11.4826 10.8058 11.6727 10.647 11.8915 10.5298C12.1128 10.41 12.3602 10.354 12.6337 10.3618C12.9332 10.367 13.1753 10.4465 13.3602 10.6001C13.5477 10.7511 13.6897 10.9451 13.786 11.1821C13.8824 11.4165 13.9436 11.6678 13.9696 11.936C13.9957 12.2043 13.9957 12.4569 13.9696 12.6938L13.9149 13.1118C13.8707 13.4321 13.7977 13.7433 13.6962 14.0454C13.5972 14.3449 13.4683 14.6261 13.3095 14.8892C13.1506 15.1496 12.9605 15.3774 12.7391 15.5728C12.5178 15.7681 12.2639 15.9217 11.9774 16.0337C11.6936 16.1457 11.3733 16.203 11.0165 16.2056H10.9227L11.0204 15.2017Z" fill="#9A0000"/>
<path d="M10.2235 16.9126H14.247V17.3032H10.2235V16.9126Z" fill="#9A0000"/>
<path d="M11.0204 15.2017V14.9017H10.7482L10.7218 15.1726L11.0204 15.2017ZM11.0595 15.2017L11.0658 14.9017H11.0595V15.2017ZM11.7118 15.0923L11.8272 15.3692L11.8304 15.3678L11.7118 15.0923ZM12.5087 14.2407L12.2309 14.1274L12.2301 14.1293L12.5087 14.2407ZM12.6805 13.6001L12.9774 13.6439L12.9779 13.6398L12.6805 13.6001ZM12.8329 12.4595L13.1303 12.4992L13.1312 12.4918L13.1319 12.4844L12.8329 12.4595ZM12.8563 12.186L12.558 12.1543L12.5575 12.16L12.8563 12.186ZM12.8602 11.8071L12.5607 11.8247L12.5612 11.8311L12.8602 11.8071ZM12.536 11.3228L12.5224 11.6225L12.5289 11.6227L12.536 11.3228ZM12.2509 11.436L12.0317 11.2311L12.0282 11.2349L12.2509 11.436ZM11.9774 12.1079L11.6817 12.0576L11.9774 12.1079ZM11.9345 12.4087L11.6359 12.3788L11.6353 12.3857L11.9345 12.4087ZM11.9188 12.6743L11.6191 12.66L11.6189 12.6672L11.9188 12.6743ZM11.9384 13.0063L11.6411 13.0478L11.6424 13.0557L11.9384 13.0063ZM12.0477 13.2876L11.8019 13.4597L11.8048 13.4636L12.0477 13.2876ZM12.2938 13.4009L12.3019 13.1009H12.2938V13.4009ZM12.5399 13.3306L12.717 13.5729L12.7228 13.5684L12.5399 13.3306ZM12.7118 13.1313L12.9713 13.282L12.9733 13.2784L12.7118 13.1313ZM12.8212 12.8735L12.5349 12.7836L12.5334 12.7889L12.8212 12.8735ZM12.8798 12.6235L13.0696 12.3912L12.6556 12.053L12.5826 12.5825L12.8798 12.6235ZM13.2001 12.8853L13.4986 12.9146L13.5144 12.7546L13.3899 12.6529L13.2001 12.8853ZM13.0751 13.3774L12.7965 13.266L12.7956 13.2683L13.0751 13.3774ZM12.8095 13.8423L12.5731 13.6575L12.5726 13.6581L12.8095 13.8423ZM11.9266 14.3071L11.9309 14.0072L11.9298 14.0071L11.9266 14.3071ZM11.3134 14.1235L11.1327 14.3631L11.1346 14.3645L11.3134 14.1235ZM10.9462 13.6587L10.6708 13.7778L10.6728 13.7823L10.9462 13.6587ZM10.7665 12.4126L10.4678 12.3843L10.4674 12.3893L10.7665 12.4126ZM10.9384 11.6743L10.6582 11.567L10.6572 11.5696L10.9384 11.6743ZM11.8915 10.5298L12.0332 10.7942L12.0343 10.7936L11.8915 10.5298ZM12.6337 10.3618L12.6251 10.6617L12.6285 10.6618L12.6337 10.3618ZM13.3602 10.6001L13.1685 10.8309L13.172 10.8337L13.3602 10.6001ZM13.786 11.1821L13.5081 11.2951L13.5086 11.2962L13.786 11.1821ZM13.9696 12.6938L14.2671 12.7328L14.2678 12.7266L13.9696 12.6938ZM13.9149 13.1118L14.2121 13.1529L14.2124 13.1507L13.9149 13.1118ZM13.6962 14.0454L13.4118 13.9498L13.4113 13.9513L13.6962 14.0454ZM13.3095 14.8892L13.5656 15.0454L13.5663 15.0443L13.3095 14.8892ZM11.9774 16.0337L11.8682 15.7543L11.8673 15.7546L11.9774 16.0337ZM11.0165 16.2056V16.5056L11.0187 16.5056L11.0165 16.2056ZM10.9227 16.2056L10.6241 16.1765L10.5921 16.5056H10.9227V16.2056ZM11.0204 15.2017V15.5017H11.0595V15.2017V14.9017H11.0204V15.2017ZM11.0595 15.2017L11.0531 15.5016C11.3334 15.5075 11.5937 15.4665 11.8272 15.3692L11.7118 15.0923L11.5964 14.8154C11.4549 14.8743 11.2803 14.9062 11.0658 14.9017L11.0595 15.2017ZM11.7118 15.0923L11.8304 15.3678C12.0558 15.2708 12.2515 15.133 12.4141 14.9544L12.1923 14.7524L11.9705 14.5504C11.8674 14.6636 11.7428 14.7523 11.5932 14.8167L11.7118 15.0923ZM12.1923 14.7524L12.4141 14.9544C12.5726 14.7803 12.6966 14.5786 12.7872 14.3521L12.5087 14.2407L12.2301 14.1293C12.1645 14.2935 12.0775 14.4329 11.9705 14.5504L12.1923 14.7524ZM12.5087 14.2407L12.7865 14.354C12.877 14.132 12.9402 13.895 12.9773 13.6439L12.6805 13.6001L12.3838 13.5563C12.3531 13.7636 12.3018 13.9536 12.2309 14.1274L12.5087 14.2407ZM12.6805 13.6001L12.9779 13.6398L13.1303 12.4992L12.8329 12.4595L12.5355 12.4198L12.3832 13.5604L12.6805 13.6001ZM12.8329 12.4595L13.1319 12.4844C13.137 12.4224 13.1448 12.3317 13.1552 12.212L12.8563 12.186L12.5575 12.16C12.547 12.2799 12.5392 12.3715 12.5339 12.4346L12.8329 12.4595ZM12.8563 12.186L13.1546 12.2178C13.1698 12.0758 13.1711 11.9308 13.1593 11.7832L12.8602 11.8071L12.5612 11.8311C12.5702 11.9439 12.569 12.0515 12.558 12.1543L12.8563 12.186ZM12.8602 11.8071L13.1597 11.7895C13.15 11.6245 13.1135 11.4673 13.0396 11.3273L12.7743 11.4673L12.509 11.6073C12.534 11.6548 12.5548 11.7241 12.5608 11.8247L12.8602 11.8071ZM12.7743 11.4673L13.0396 11.3273C12.9932 11.2393 12.9256 11.1604 12.8332 11.1043C12.7413 11.0486 12.6409 11.0252 12.5432 11.0228L12.536 11.3228L12.5289 11.6227C12.5351 11.6228 12.5366 11.6235 12.5345 11.623C12.5322 11.6223 12.5276 11.6207 12.522 11.6173C12.5164 11.6139 12.5122 11.6102 12.5095 11.6072C12.507 11.6045 12.5072 11.6038 12.509 11.6073L12.7743 11.4673ZM12.536 11.3228L12.5496 11.0231C12.3511 11.014 12.1698 11.0835 12.0318 11.2311L12.2509 11.436L12.4699 11.641C12.48 11.6303 12.4864 11.6272 12.4895 11.626C12.493 11.6246 12.5024 11.6215 12.5224 11.6224L12.536 11.3228ZM12.2509 11.436L12.0282 11.2349C11.9247 11.3496 11.8479 11.4868 11.793 11.6387L12.0751 11.7407L12.3572 11.8428C12.3908 11.7499 12.4312 11.6839 12.4735 11.6371L12.2509 11.436ZM12.0751 11.7407L11.793 11.6387C11.7429 11.7771 11.7056 11.9167 11.6817 12.0576L11.9774 12.1079L12.2732 12.1582C12.2909 12.0543 12.3187 11.9492 12.3572 11.8428L12.0751 11.7407ZM11.9774 12.1079L11.6817 12.0576C11.6603 12.1834 11.6447 12.2911 11.6359 12.3788L11.9345 12.4087L12.233 12.4385C12.2398 12.37 12.2529 12.2773 12.2732 12.1582L11.9774 12.1079ZM11.9345 12.4087L11.6353 12.3857C11.6298 12.4575 11.6244 12.5493 11.6192 12.66L11.9188 12.6743L12.2185 12.6886C12.2236 12.5806 12.2287 12.4953 12.2336 12.4317L11.9345 12.4087ZM11.9188 12.6743L11.6189 12.6672C11.6159 12.7933 11.6234 12.9203 11.6412 13.0478L11.9384 13.0063L12.2355 12.9649C12.222 12.8685 12.2165 12.7741 12.2187 12.6815L11.9188 12.6743ZM11.9384 13.0063L11.6424 13.0557C11.6668 13.202 11.7178 13.3393 11.802 13.4596L12.0477 13.2876L12.2935 13.1156C12.2683 13.0796 12.2463 13.0294 12.2343 12.957L11.9384 13.0063ZM12.0477 13.2876L11.8048 13.4636C11.9261 13.6312 12.1072 13.7009 12.2938 13.7009V13.4009V13.1009C12.2735 13.1009 12.27 13.0974 12.2757 13.1C12.2785 13.1013 12.2819 13.1034 12.2853 13.1062C12.2886 13.1089 12.2903 13.1111 12.2907 13.1116L12.0477 13.2876ZM12.2938 13.4009L12.2857 13.7008C12.4381 13.7049 12.5878 13.6672 12.7169 13.5728L12.5399 13.3306L12.3629 13.0883C12.3566 13.0929 12.3423 13.1021 12.3019 13.101L12.2938 13.4009ZM12.5399 13.3306L12.7228 13.5684C12.8242 13.4904 12.9066 13.3933 12.9712 13.282L12.7118 13.1313L12.4524 12.9807C12.4233 13.0308 12.391 13.0666 12.357 13.0928L12.5399 13.3306ZM12.7118 13.1313L12.9733 13.2784C13.0309 13.1761 13.0763 13.0692 13.109 12.9582L12.8212 12.8735L12.5334 12.7889C12.5139 12.8549 12.4865 12.92 12.4503 12.9843L12.7118 13.1313ZM12.8212 12.8735L13.1074 12.9635C13.1398 12.8602 13.1638 12.7602 13.177 12.6645L12.8798 12.6235L12.5826 12.5825C12.5749 12.6379 12.5598 12.7046 12.535 12.7836L12.8212 12.8735ZM12.8798 12.6235L12.69 12.8558L13.0103 13.1176L13.2001 12.8853L13.3899 12.6529L13.0696 12.3912L12.8798 12.6235ZM13.2001 12.8853L12.9015 12.8559C12.889 12.9829 12.8552 13.1194 12.7965 13.266L13.0751 13.3774L13.3536 13.4889C13.4304 13.297 13.4799 13.1053 13.4986 12.9146L13.2001 12.8853ZM13.0751 13.3774L12.7956 13.2683C12.7413 13.4073 12.6674 13.5369 12.5731 13.6575L12.8095 13.8423L13.0458 14.0271C13.1754 13.8612 13.2786 13.6809 13.3545 13.4866L13.0751 13.3774ZM12.8095 13.8423L12.5726 13.6581C12.486 13.7694 12.3862 13.8567 12.2724 13.9225L12.4227 14.1821L12.573 14.4418C12.7562 14.3357 12.9141 14.1964 13.0463 14.0265L12.8095 13.8423ZM12.4227 14.1821L12.2724 13.9225C12.1739 13.9795 12.0625 14.009 11.9309 14.0072L11.9266 14.3071L11.9224 14.6071C12.1553 14.6104 12.3747 14.5566 12.573 14.4418L12.4227 14.1821ZM11.9266 14.3071L11.9298 14.0071C11.7309 14.0051 11.592 13.9567 11.4921 13.8826L11.3134 14.1235L11.1346 14.3645C11.3576 14.5299 11.6276 14.604 11.9235 14.6071L11.9266 14.3071ZM11.3134 14.1235L11.494 13.884C11.3772 13.796 11.2858 13.6817 11.2195 13.5351L10.9462 13.6587L10.6728 13.7823C10.7784 14.0159 10.9318 14.2115 11.1327 14.3631L11.3134 14.1235ZM10.9462 13.6587L11.2215 13.5396C11.1503 13.3748 11.1028 13.1974 11.08 13.006L10.7821 13.0415L10.4842 13.077C10.5135 13.3231 10.5754 13.5571 10.6708 13.7778L10.9462 13.6587ZM10.7821 13.0415L11.08 13.006C11.0561 12.805 11.0516 12.6151 11.0656 12.4359L10.7665 12.4126L10.4674 12.3893C10.4501 12.6111 10.4561 12.8405 10.4842 13.077L10.7821 13.0415ZM10.7665 12.4126L11.0651 12.4409C11.086 12.2209 11.137 12.0005 11.2195 11.779L10.9384 11.6743L10.6572 11.5696C10.5574 11.8378 10.4939 12.1095 10.4678 12.3843L10.7665 12.4126ZM10.9384 11.6743L11.2185 11.7816C11.3013 11.5655 11.4134 11.3702 11.5548 11.1945L11.3212 11.0063L11.0875 10.8182C10.9061 11.0435 10.7629 11.2936 10.6582 11.567L10.9384 11.6743ZM11.3212 11.0063L11.5548 11.1945C11.692 11.0241 11.8512 10.8917 12.0332 10.7942L11.8915 10.5298L11.7498 10.2653C11.4943 10.4022 11.2732 10.5875 11.0875 10.8182L11.3212 11.0063ZM11.8915 10.5298L12.0343 10.7936C12.2052 10.7011 12.3997 10.6553 12.6251 10.6617L12.6337 10.3618L12.6422 10.0619C12.3208 10.0528 12.0204 10.1189 11.7487 10.2659L11.8915 10.5298ZM12.6337 10.3618L12.6285 10.6618C12.8769 10.6661 13.0479 10.7307 13.1685 10.8308L13.3602 10.6001L13.552 10.3694C13.3027 10.1623 12.9894 10.068 12.6389 10.0619L12.6337 10.3618ZM13.3602 10.6001L13.172 10.8337C13.3174 10.9508 13.4297 11.1023 13.5081 11.2951L13.786 11.1821L14.0639 11.0691C13.9496 10.788 13.7781 10.5515 13.5484 10.3665L13.3602 10.6001ZM13.786 11.1821L13.5086 11.2962C13.593 11.5017 13.6476 11.7242 13.671 11.965L13.9696 11.936L14.2682 11.907C14.2395 11.6114 14.1717 11.3313 14.0635 11.0681L13.786 11.1821ZM13.9696 11.936L13.671 11.965C13.6953 12.2153 13.6949 12.4471 13.6714 12.6611L13.9696 12.6938L14.2678 12.7266C14.2964 12.4667 14.296 12.1932 14.2682 11.907L13.9696 11.936ZM13.9696 12.6938L13.6721 12.6549L13.6175 13.0729L13.9149 13.1118L14.2124 13.1507L14.2671 12.7328L13.9696 12.6938ZM13.9149 13.1118L13.6177 13.0707C13.576 13.3728 13.5073 13.6657 13.4118 13.9498L13.6962 14.0454L13.9805 14.141C14.0881 13.8209 14.1653 13.4915 14.2121 13.1529L13.9149 13.1118ZM13.6962 14.0454L13.4113 13.9513C13.3192 14.23 13.1996 14.4908 13.0527 14.7341L13.3095 14.8892L13.5663 15.0443C13.737 14.7615 13.8752 14.4598 13.981 14.1395L13.6962 14.0454ZM13.3095 14.8892L13.0533 14.7329C12.9096 14.9685 12.7387 15.173 12.5407 15.3478L12.7391 15.5728L12.9376 15.7977C13.1823 15.5818 13.3916 15.3306 13.5656 15.0454L13.3095 14.8892ZM12.7391 15.5728L12.5407 15.3478C12.3467 15.5189 12.1233 15.6545 11.8682 15.7543L11.9774 16.0337L12.0866 16.3131C12.4044 16.1889 12.6888 16.0172 12.9376 15.7977L12.7391 15.5728ZM11.9774 16.0337L11.8673 15.7546C11.6231 15.851 11.3403 15.9032 11.0143 15.9056L11.0165 16.2056L11.0187 16.5056C11.4063 16.5027 11.764 16.4404 12.0875 16.3128L11.9774 16.0337ZM11.0165 16.2056V15.9056H10.9227V16.2056V16.5056H11.0165V16.2056ZM10.9227 16.2056L11.2213 16.2346L11.319 15.2307L11.0204 15.2017L10.7218 15.1726L10.6241 16.1765L10.9227 16.2056Z" fill="#620202" mask="url(#path-10-outside-3_275_485)"/>
<path d="M10.2235 16.9126V16.6126H9.92352V16.9126H10.2235ZM14.247 16.9126H14.547V16.6126H14.247V16.9126ZM14.247 17.3032V17.6032H14.547V17.3032H14.247ZM10.2235 17.3032H9.92352V17.6032H10.2235V17.3032ZM10.2235 16.9126V17.2126H14.247V16.9126V16.6126H10.2235V16.9126ZM14.247 16.9126H13.947V17.3032H14.247H14.547V16.9126H14.247ZM14.247 17.3032V17.0032H10.2235V17.3032V17.6032H14.247V17.3032ZM10.2235 17.3032H10.5235V16.9126H10.2235H9.92352V17.3032H10.2235Z" fill="#620202" mask="url(#path-10-outside-3_275_485)"/>
<rect x="0.941162" y="67.4453" width="2.82353" height="2.0438" fill="#9A0000"/>
<rect x="0.941162" y="70.511" width="2.82353" height="2.0438" fill="#9A0000"/>
<rect x="0.941162" y="75.6204" width="2.82353" height="2.0438" fill="#9A0000"/>
<rect x="0.941162" y="78.686" width="2.82353" height="2.0438" fill="#9A0000"/>
<rect x="0.941162" y="81.7517" width="2.82353" height="2.0438" fill="#9A0000"/>
<rect x="0.941162" y="64.3796" width="2.82353" height="2.0438" fill="#9A0000"/>
<rect x="0.941162" y="59.27" width="2.82353" height="2.0438" fill="#9A0000"/>
<rect x="0.941162" y="56.2043" width="2.82353" height="2.0438" fill="#9A0000"/>
<rect x="0.941162" y="53.1387" width="2.82353" height="2.0438" fill="#9A0000"/>
<rect x="41.4119" y="136.934" width="2.0438" height="1.88235" transform="rotate(90 41.4119 136.934)" fill="#9A0000"/>
<rect x="38.5881" y="136.934" width="2.0438" height="1.88235" transform="rotate(90 38.5881 136.934)" fill="#9A0000"/>
<rect x="33.8823" y="136.934" width="2.0438" height="1.88235" transform="rotate(90 33.8823 136.934)" fill="#9A0000"/>
<rect x="31.0588" y="136.934" width="2.0438" height="1.88235" transform="rotate(90 31.0588 136.934)" fill="#9A0000"/>
<rect x="28.2354" y="136.934" width="2.0438" height="1.88235" transform="rotate(90 28.2354 136.934)" fill="#9A0000"/>
<rect x="44.2354" y="136.934" width="2.0438" height="1.88235" transform="rotate(90 44.2354 136.934)" fill="#9A0000"/>
<rect x="48.9412" y="136.934" width="2.0438" height="1.88235" transform="rotate(90 48.9412 136.934)" fill="#9A0000"/>
<rect x="51.7646" y="136.934" width="2.0438" height="1.88235" transform="rotate(90 51.7646 136.934)" fill="#9A0000"/>
<rect x="54.5881" y="136.934" width="2.0438" height="1.88235" transform="rotate(90 54.5881 136.934)" fill="#9A0000"/>
<rect x="41.4119" y="1.02197" width="2.0438" height="1.88235" transform="rotate(90 41.4119 1.02197)" fill="#9A0000"/>
<rect x="38.5881" y="1.02197" width="2.0438" height="1.88235" transform="rotate(90 38.5881 1.02197)" fill="#9A0000"/>
<rect x="33.8823" y="1.02197" width="2.0438" height="1.88235" transform="rotate(90 33.8823 1.02197)" fill="#9A0000"/>
<rect x="31.0588" y="1.02197" width="2.0438" height="1.88235" transform="rotate(90 31.0588 1.02197)" fill="#9A0000"/>
<rect x="28.2354" y="1.02197" width="2.0438" height="1.88235" transform="rotate(90 28.2354 1.02197)" fill="#9A0000"/>
<rect x="44.2354" y="1.02197" width="2.0438" height="1.88235" transform="rotate(90 44.2354 1.02197)" fill="#9A0000"/>
<rect x="48.9412" y="1.02197" width="2.0438" height="1.88235" transform="rotate(90 48.9412 1.02197)" fill="#9A0000"/>
<rect x="51.7646" y="1.02197" width="2.0438" height="1.88235" transform="rotate(90 51.7646 1.02197)" fill="#9A0000"/>
<rect x="54.5881" y="1.02197" width="2.0438" height="1.88235" transform="rotate(90 54.5881 1.02197)" fill="#9A0000"/>
<rect x="76.2354" y="67.4453" width="2.82353" height="2.0438" fill="#9A0000"/>
<rect x="76.2354" y="70.511" width="2.82353" height="2.0438" fill="#9A0000"/>
<rect x="76.2354" y="75.6204" width="2.82353" height="2.0438" fill="#9A0000"/>
<rect x="76.2354" y="78.686" width="2.82353" height="2.0438" fill="#9A0000"/>
<rect x="76.2354" y="81.7517" width="2.82353" height="2.0438" fill="#9A0000"/>
<rect x="76.2354" y="64.3796" width="2.82353" height="2.0438" fill="#9A0000"/>
<rect x="76.2354" y="59.27" width="2.82353" height="2.0438" fill="#9A0000"/>
<rect x="76.2354" y="56.2043" width="2.82353" height="2.0438" fill="#9A0000"/>
<rect x="76.2354" y="53.1387" width="2.82353" height="2.0438" fill="#9A0000"/>
<defs>
<filter id="filter0_d_275_485" x="8.67651" y="25.0474" width="61.7058" height="101.993" filterUnits="userSpaceOnUse" color-interpolation-filters="sRGB">
<feFlood flood-opacity="0" result="BackgroundImageFix"/>
<feColorMatrix in="SourceAlpha" type="matrix" values="0 0 0 0 0 0 0 0 0 0 0 0 0 0 0 0 0 0 127 0" result="hardAlpha"/>
<feOffset dy="4"/>
<feGaussianBlur stdDeviation="2"/>
<feComposite in2="hardAlpha" operator="out"/>
<feColorMatrix type="matrix" values="0 0 0 0 0 0 0 0 0 0 0 0 0 0 0 0 0 0 0.25 0"/>
<feBlend mode="normal" in2="BackgroundImageFix" result="effect1_dropShadow_275_485"/>
<feBlend mode="normal" in="SourceGraphic" in2="effect1_dropShadow_275_485" result="shape"/>
</filter>
<filter id="filter1_d_275_485" x="23.3203" y="54.7654" width="33.3398" height="44.707" filterUnits="userSpaceOnUse" color-interpolation-filters="sRGB">
<feFlood flood-opacity="0" result="BackgroundImageFix"/>
<feColorMatrix in="SourceAlpha" type="matrix" values="0 0 0 0 0 0 0 0 0 0 0 0 0 0 0 0 0 0 127 0" result="hardAlpha"/>
<feOffset dy="4"/>
<feGaussianBlur stdDeviation="2"/>
<feComposite in2="hardAlpha" operator="out"/>
<feColorMatrix type="matrix" values="0 0 0 0 0 0 0 0 0 0 0 0 0 0 0 0 0 0 0.25 0"/>
<feBlend mode="normal" in2="BackgroundImageFix" result="effect1_dropShadow_275_485"/>
<feBlend mode="normal" in="SourceGraphic" in2="effect1_dropShadow_275_485" result="shape"/>
</filter>
<linearGradient id="paint0_linear_275_485" x1="39.9999" y1="3.06567" x2="39.9999" y2="136.934" gradientUnits="userSpaceOnUse">
<stop stop-color="#C70000" stop-opacity="0.95"/>
<stop offset="1" stop-color="#520000"/>
</linearGradient>
<linearGradient id="paint1_linear_275_485" x1="66.4435" y1="115.339" x2="63.7604" y2="132.922" gradientUnits="userSpaceOnUse">
<stop stop-color="#FFB2B2" stop-opacity="0.95"/>
<stop offset="1" stop-color="#900000"/>
</linearGradient>
<linearGradient id="paint2_linear_275_485" x1="39.5295" y1="25.5474" x2="39.5295" y2="118.54" gradientUnits="userSpaceOnUse">
<stop stop-color="#FF5959"/>
<stop offset="1" stop-color="#7F0C0C"/>
</linearGradient>
<linearGradient id="paint3_linear_275_485" x1="13.7375" y1="4.97369" x2="11.0544" y2="22.5567" gradientUnits="userSpaceOnUse">
<stop stop-color="#FFB2B2" stop-opacity="0.95"/>
<stop offset="1" stop-color="#900000"/>
</linearGradient>
</defs>
</svg>
