<svg width="85" height="137" viewBox="0 0 85 137" fill="none" xmlns="http://www.w3.org/2000/svg">
<rect x="0.5" y="0.5" width="84" height="136" rx="9.5" fill="white" stroke="black"/>
<rect x="4.5" y="3.5" width="76" height="130" rx="9.5" fill="url(#paint0_linear_268_285)" stroke="black"/>
<path d="M70.5616 113.115C72.1644 113.34 73.5106 114.456 74.381 116.125C75.2511 117.793 75.633 119.994 75.3044 122.332C74.9758 124.67 74.0018 126.682 72.7056 128.046C71.4092 129.409 69.8073 130.111 68.2046 129.885C66.6017 129.66 65.2545 128.544 64.3841 126.876C63.5139 125.208 63.1322 123.006 63.4608 120.668C63.7894 118.33 64.7634 116.319 66.0594 114.955C67.356 113.591 68.9586 112.889 70.5616 113.115Z" fill="url(#paint1_linear_268_285)" stroke="#40795C" stroke-width="0.5"/>
<mask id="path-4-outside-1_268_285" maskUnits="userSpaceOnUse" x="64.4622" y="118" width="9" height="8" fill="black">
<rect fill="white" x="64.4622" y="118" width="9" height="8"/>
<path d="M70.0102 124.695L70.9711 119H72.1313L71.393 123.254L72.4906 122.859L72.3149 123.863L70.1469 124.691L70.0102 124.695ZM67.8133 122.371L67.325 122.367C67.174 122.37 67.0529 122.409 66.9617 122.484C66.868 122.56 66.7977 122.658 66.7508 122.777C66.7013 122.897 66.6701 123.023 66.657 123.156C66.6466 123.242 66.6492 123.336 66.6649 123.438C66.6779 123.542 66.7117 123.63 66.7664 123.703C66.8185 123.776 66.9005 123.814 67.0125 123.816C67.1219 123.819 67.2117 123.789 67.282 123.727C67.3524 123.664 67.4084 123.586 67.45 123.492C67.4891 123.401 67.5177 123.312 67.536 123.227L68.6961 123.219C68.6779 123.523 68.5906 123.793 68.4344 124.027C68.2755 124.264 68.0698 124.449 67.8172 124.582C67.5646 124.715 67.2847 124.779 66.9774 124.773C66.6623 124.766 66.3901 124.695 66.161 124.562C65.9292 124.43 65.7521 124.243 65.6297 124.004C65.5073 123.767 65.4552 123.49 65.4735 123.172C65.4865 122.953 65.5399 122.754 65.6336 122.574C65.7274 122.397 65.8511 122.245 66.0047 122.117C66.1557 121.992 66.3276 121.895 66.5203 121.824C66.713 121.757 66.9162 121.723 67.1297 121.723L67.9188 121.727L67.8133 122.371ZM67.9656 121.438L67.8641 122.066L67.1922 122.062C66.9735 122.055 66.7768 122.018 66.6024 121.953C66.4279 121.888 66.2794 121.794 66.157 121.672C66.032 121.549 65.9409 121.401 65.8836 121.227C65.8237 121.052 65.8003 120.852 65.8133 120.625C65.8289 120.37 65.8901 120.135 65.9969 119.922C66.1037 119.711 66.2456 119.53 66.4227 119.379C66.5972 119.228 66.7977 119.112 67.0242 119.031C67.2482 118.951 67.4878 118.913 67.743 118.918C67.9826 118.926 68.1948 118.973 68.3797 119.059C68.562 119.145 68.7156 119.262 68.8406 119.41C68.963 119.561 69.0555 119.736 69.118 119.934C69.1805 120.134 69.2091 120.348 69.2039 120.574H68.0477C68.0451 120.483 68.0347 120.384 68.0164 120.277C67.9982 120.173 67.9591 120.083 67.8992 120.008C67.8393 119.932 67.7508 119.893 67.6336 119.891C67.4956 119.885 67.3797 119.922 67.286 120C67.1896 120.078 67.1141 120.176 67.0594 120.293C67.0021 120.41 66.9656 120.529 66.95 120.648C66.937 120.768 66.9357 120.887 66.9461 121.004C66.9565 121.121 66.993 121.22 67.0555 121.301C67.118 121.382 67.2222 121.426 67.368 121.434L67.9656 121.438Z"/>
</mask>
<path d="M70.0102 124.695L70.9711 119H72.1313L71.393 123.254L72.4906 122.859L72.3149 123.863L70.1469 124.691L70.0102 124.695ZM67.8133 122.371L67.325 122.367C67.174 122.37 67.0529 122.409 66.9617 122.484C66.868 122.56 66.7977 122.658 66.7508 122.777C66.7013 122.897 66.6701 123.023 66.657 123.156C66.6466 123.242 66.6492 123.336 66.6649 123.438C66.6779 123.542 66.7117 123.63 66.7664 123.703C66.8185 123.776 66.9005 123.814 67.0125 123.816C67.1219 123.819 67.2117 123.789 67.282 123.727C67.3524 123.664 67.4084 123.586 67.45 123.492C67.4891 123.401 67.5177 123.312 67.536 123.227L68.6961 123.219C68.6779 123.523 68.5906 123.793 68.4344 124.027C68.2755 124.264 68.0698 124.449 67.8172 124.582C67.5646 124.715 67.2847 124.779 66.9774 124.773C66.6623 124.766 66.3901 124.695 66.161 124.562C65.9292 124.43 65.7521 124.243 65.6297 124.004C65.5073 123.767 65.4552 123.49 65.4735 123.172C65.4865 122.953 65.5399 122.754 65.6336 122.574C65.7274 122.397 65.8511 122.245 66.0047 122.117C66.1557 121.992 66.3276 121.895 66.5203 121.824C66.713 121.757 66.9162 121.723 67.1297 121.723L67.9188 121.727L67.8133 122.371ZM67.9656 121.438L67.8641 122.066L67.1922 122.062C66.9735 122.055 66.7768 122.018 66.6024 121.953C66.4279 121.888 66.2794 121.794 66.157 121.672C66.032 121.549 65.9409 121.401 65.8836 121.227C65.8237 121.052 65.8003 120.852 65.8133 120.625C65.8289 120.37 65.8901 120.135 65.9969 119.922C66.1037 119.711 66.2456 119.53 66.4227 119.379C66.5972 119.228 66.7977 119.112 67.0242 119.031C67.2482 118.951 67.4878 118.913 67.743 118.918C67.9826 118.926 68.1948 118.973 68.3797 119.059C68.562 119.145 68.7156 119.262 68.8406 119.41C68.963 119.561 69.0555 119.736 69.118 119.934C69.1805 120.134 69.2091 120.348 69.2039 120.574H68.0477C68.0451 120.483 68.0347 120.384 68.0164 120.277C67.9982 120.173 67.9591 120.083 67.8992 120.008C67.8393 119.932 67.7508 119.893 67.6336 119.891C67.4956 119.885 67.3797 119.922 67.286 120C67.1896 120.078 67.1141 120.176 67.0594 120.293C67.0021 120.41 66.9656 120.529 66.95 120.648C66.937 120.768 66.9357 120.887 66.9461 121.004C66.9565 121.121 66.993 121.22 67.0555 121.301C67.118 121.382 67.2222 121.426 67.368 121.434L67.9656 121.438Z" fill="#1DBA96"/>
<path d="M70.0102 124.695L69.7144 124.645L69.6536 125.006L70.0187 124.995L70.0102 124.695ZM70.9711 119V118.7H70.7175L70.6753 118.95L70.9711 119ZM72.1313 119L72.4268 119.051L72.4878 118.7H72.1313V119ZM71.393 123.254L71.0974 123.203L71.0092 123.711L71.4945 123.536L71.393 123.254ZM72.4906 122.859L72.7861 122.911L72.8752 122.402L72.3892 122.577L72.4906 122.859ZM72.3149 123.863L72.4219 124.144L72.581 124.083L72.6104 123.915L72.3149 123.863ZM70.1469 124.691L70.1555 124.991L70.2064 124.99L70.2539 124.972L70.1469 124.691ZM70.0102 124.695L70.306 124.745L71.2669 119.05L70.9711 119L70.6753 118.95L69.7144 124.645L70.0102 124.695ZM70.9711 119V119.3H72.1313V119V118.7H70.9711V119ZM72.1313 119L71.8357 118.949L71.0974 123.203L71.393 123.254L71.6886 123.305L72.4268 119.051L72.1313 119ZM71.393 123.254L71.4945 123.536L72.5921 123.142L72.4906 122.859L72.3892 122.577L71.2915 122.972L71.393 123.254ZM72.4906 122.859L72.1951 122.808L72.0194 123.812L72.3149 123.863L72.6104 123.915L72.7861 122.911L72.4906 122.859ZM72.3149 123.863L72.2078 123.583L70.0398 124.411L70.1469 124.691L70.2539 124.972L72.4219 124.144L72.3149 123.863ZM70.1469 124.691L70.1383 124.392L70.0016 124.395L70.0102 124.695L70.0187 124.995L70.1555 124.991L70.1469 124.691ZM67.8133 122.371L67.8109 122.671L68.0679 122.673L68.1094 122.42L67.8133 122.371ZM67.325 122.367L67.3274 122.067L67.3198 122.067L67.325 122.367ZM66.9617 122.484L67.15 122.718L67.1531 122.715L66.9617 122.484ZM66.7508 122.777L67.0281 122.892L67.0302 122.887L66.7508 122.777ZM66.657 123.156L66.9549 123.192L66.9556 123.186L66.657 123.156ZM66.6649 123.438L66.9627 123.4L66.9614 123.392L66.6649 123.438ZM66.7664 123.703L67.0106 123.529L67.0064 123.523L66.7664 123.703ZM67.0125 123.816L67.0197 123.516L67.0195 123.516L67.0125 123.816ZM67.45 123.492L67.7242 123.614L67.7258 123.61L67.45 123.492ZM67.536 123.227L67.5339 122.927L67.2926 122.928L67.2425 123.164L67.536 123.227ZM68.6961 123.219L68.9956 123.237L69.0147 122.917L68.6941 122.919L68.6961 123.219ZM68.4344 124.027L68.6836 124.194L68.684 124.194L68.4344 124.027ZM66.9774 124.773L66.9699 125.073L66.9723 125.073L66.9774 124.773ZM66.161 124.562L66.3114 124.303L66.3101 124.302L66.161 124.562ZM65.6297 124.004L65.8969 123.867L65.8963 123.866L65.6297 124.004ZM65.4735 123.172L65.174 123.154L65.1739 123.155L65.4735 123.172ZM65.6336 122.574L65.3685 122.434L65.3676 122.435L65.6336 122.574ZM66.0047 122.117L65.8134 121.886L65.813 121.886L66.0047 122.117ZM66.5203 121.824L66.4209 121.541L66.4175 121.542L66.5203 121.824ZM67.1297 121.723L67.1312 121.423H67.1297V121.723ZM67.9188 121.727L68.2148 121.775L68.2716 121.428L67.9203 121.427L67.9188 121.727ZM67.9656 121.438L68.2618 121.485L68.3176 121.14L67.9676 121.138L67.9656 121.438ZM67.8641 122.066L67.8623 122.366L68.1193 122.368L68.1602 122.114L67.8641 122.066ZM67.1922 122.062L67.1815 122.362L67.1905 122.362L67.1922 122.062ZM66.157 121.672L66.3692 121.46L66.3669 121.458L66.157 121.672ZM65.8836 121.227L66.1687 121.133L66.1674 121.129L65.8836 121.227ZM65.8133 120.625L65.5139 120.607L65.5138 120.608L65.8133 120.625ZM65.9969 119.922L65.7292 119.786L65.7286 119.788L65.9969 119.922ZM66.4227 119.379L66.6174 119.607L66.619 119.606L66.4227 119.379ZM67.0242 119.031L67.1249 119.314L67.126 119.313L67.0242 119.031ZM67.743 118.918L67.7528 118.618L67.7491 118.618L67.743 118.918ZM68.3797 119.059L68.5076 118.787L68.5062 118.787L68.3797 119.059ZM68.8406 119.41L69.0738 119.221L69.0701 119.217L68.8406 119.41ZM69.118 119.934L69.4044 119.844L69.4041 119.843L69.118 119.934ZM69.2039 120.574V120.874H69.4971L69.5038 120.581L69.2039 120.574ZM68.0477 120.574L67.7478 120.583L67.7561 120.874H68.0477V120.574ZM68.0164 120.277L68.3121 120.227L68.3119 120.226L68.0164 120.277ZM67.8992 120.008L67.6642 120.194L67.8992 120.008ZM67.6336 119.891L67.6223 120.19L67.6269 120.191L67.6336 119.891ZM67.286 120L67.4749 120.233L67.478 120.23L67.286 120ZM67.0594 120.293L67.329 120.425L67.3312 120.42L67.0594 120.293ZM66.95 120.648L66.6525 120.61L66.6518 120.616L66.95 120.648ZM67.368 121.434L67.3519 121.733L67.366 121.734L67.368 121.434ZM67.8133 122.371L67.8157 122.071L67.3274 122.067L67.325 122.367L67.3226 122.667L67.8109 122.671L67.8133 122.371ZM67.325 122.367L67.3198 122.067C67.1198 122.071 66.927 122.124 66.7703 122.253L66.9617 122.484L67.1531 122.715C67.1788 122.694 67.2281 122.669 67.3302 122.667L67.325 122.367ZM66.9617 122.484L66.7735 122.251C66.6363 122.361 66.536 122.503 66.4714 122.668L66.7508 122.777L67.0302 122.887C67.0594 122.812 67.0997 122.758 67.1499 122.718L66.9617 122.484ZM66.7508 122.777L66.4735 122.663C66.4125 122.811 66.3743 122.966 66.3585 123.127L66.657 123.156L66.9556 123.186C66.9659 123.081 66.9902 122.984 67.0281 122.892L66.7508 122.777ZM66.657 123.156L66.3592 123.12C66.345 123.238 66.3493 123.359 66.3684 123.483L66.6649 123.438L66.9614 123.392C66.9492 123.312 66.9483 123.247 66.9549 123.192L66.657 123.156ZM66.6649 123.438L66.3672 123.475C66.3857 123.623 66.4359 123.762 66.5264 123.883L66.7664 123.703L67.0064 123.523C66.9875 123.498 66.9701 123.461 66.9625 123.4L66.6649 123.438ZM66.7664 123.703L66.5223 123.877C66.6429 124.046 66.8253 124.112 67.0055 124.116L67.0125 123.816L67.0195 123.516C66.9949 123.516 66.9885 123.512 66.9925 123.514C66.9946 123.515 66.9981 123.517 67.0021 123.52C67.006 123.523 67.0089 123.526 67.0105 123.529L66.7664 123.703ZM67.0125 123.816L67.0054 124.116C67.1774 124.12 67.3451 124.072 67.4814 123.951L67.282 123.727L67.0827 123.502C67.0784 123.506 67.0663 123.518 67.0197 123.516L67.0125 123.816ZM67.282 123.727L67.4814 123.951C67.5864 123.857 67.6667 123.743 67.7242 123.614L67.45 123.492L67.1759 123.37C67.15 123.429 67.1183 123.471 67.0827 123.502L67.282 123.727ZM67.45 123.492L67.7258 123.61C67.7716 123.503 67.8066 123.396 67.8294 123.289L67.536 123.227L67.2425 123.164C67.2288 123.229 67.2066 123.299 67.1743 123.374L67.45 123.492ZM67.536 123.227L67.538 123.527L68.6981 123.519L68.6961 123.219L68.6941 122.919L67.5339 122.927L67.536 123.227ZM68.6961 123.219L68.3966 123.201C68.3813 123.457 68.3091 123.674 68.1848 123.861L68.4344 124.027L68.684 124.194C68.8722 123.912 68.9744 123.59 68.9956 123.237L68.6961 123.219ZM68.4344 124.027L68.1852 123.86C68.0541 124.056 67.8861 124.207 67.6776 124.316L67.8172 124.582L67.9568 124.848C68.2536 124.692 68.497 124.473 68.6836 124.194L68.4344 124.027ZM67.8172 124.582L67.6776 124.316C67.473 124.424 67.2434 124.478 66.9824 124.473L66.9774 124.773L66.9723 125.073C67.3259 125.079 67.6562 125.006 67.9568 124.848L67.8172 124.582ZM66.9774 124.773L66.9848 124.474C66.7104 124.467 66.4894 124.406 66.3114 124.303L66.161 124.562L66.0105 124.822C66.2908 124.984 66.6141 125.065 66.9699 125.073L66.9774 124.773ZM66.161 124.562L66.3101 124.302C66.1292 124.199 65.993 124.056 65.8969 123.867L65.6297 124.004L65.3625 124.14C65.5112 124.431 65.7291 124.661 66.0118 124.823L66.161 124.562ZM65.6297 124.004L65.8963 123.866C65.8029 123.685 65.7572 123.464 65.773 123.189L65.4735 123.172L65.1739 123.155C65.1532 123.516 65.2117 123.848 65.3632 124.142L65.6297 124.004ZM65.4735 123.172L65.7729 123.19C65.7836 123.01 65.827 122.852 65.8996 122.713L65.6336 122.574L65.3676 122.435C65.2528 122.656 65.1893 122.897 65.174 123.154L65.4735 123.172ZM65.6336 122.574L65.8987 122.715C65.9742 122.572 66.073 122.45 66.1964 122.348L66.0047 122.117L65.813 121.886C65.6291 122.039 65.4805 122.222 65.3685 122.434L65.6336 122.574ZM66.0047 122.117L66.196 122.348C66.3194 122.246 66.4611 122.165 66.6232 122.106L66.5203 121.824L66.4175 121.542C66.1941 121.624 65.9921 121.738 65.8134 121.886L66.0047 122.117ZM66.5203 121.824L66.6198 122.107C66.7791 122.051 66.9485 122.023 67.1297 122.023V121.723V121.423C66.8839 121.423 66.647 121.462 66.4209 121.541L66.5203 121.824ZM67.1297 121.723L67.1282 122.023L67.9173 122.027L67.9188 121.727L67.9203 121.427L67.1312 121.423L67.1297 121.723ZM67.9188 121.727L67.6227 121.678L67.5172 122.323L67.8133 122.371L68.1094 122.42L68.2148 121.775L67.9188 121.727ZM67.9656 121.438L67.6695 121.39L67.5679 122.019L67.8641 122.066L68.1602 122.114L68.2618 121.485L67.9656 121.438ZM67.8641 122.066L67.8658 121.766L67.1939 121.763L67.1922 122.062L67.1905 122.362L67.8623 122.366L67.8641 122.066ZM67.1922 122.062L67.2029 121.763C67.0108 121.756 66.8468 121.724 66.7072 121.672L66.6024 121.953L66.4975 122.234C66.7069 122.312 66.9361 122.354 67.1815 122.362L67.1922 122.062ZM66.6024 121.953L66.7072 121.672C66.5699 121.621 66.4589 121.549 66.3692 121.46L66.157 121.672L65.9449 121.884C66.1 122.039 66.2858 122.155 66.4975 122.234L66.6024 121.953ZM66.157 121.672L66.3669 121.458C66.278 121.37 66.2117 121.264 66.1686 121.133L65.8836 121.227L65.5986 121.32C65.6701 121.538 65.7861 121.728 65.9472 121.886L66.157 121.672ZM65.8836 121.227L66.1674 121.129C66.1226 120.999 66.1015 120.839 66.1128 120.642L65.8133 120.625L65.5138 120.608C65.499 120.865 65.5248 121.105 65.5999 121.324L65.8836 121.227ZM65.8133 120.625L66.1127 120.643C66.1261 120.426 66.1778 120.231 66.2652 120.056L65.9969 119.922L65.7286 119.788C65.6025 120.04 65.5318 120.314 65.5139 120.607L65.8133 120.625ZM65.9969 119.922L66.2646 120.057C66.3537 119.881 66.471 119.732 66.6174 119.607L66.4227 119.379L66.228 119.151C66.0202 119.328 65.8537 119.541 65.7292 119.786L65.9969 119.922ZM66.4227 119.379L66.619 119.606C66.7642 119.48 66.9319 119.383 67.1249 119.314L67.0242 119.031L66.9235 118.749C66.6634 118.841 66.4301 118.976 66.2263 119.152L66.4227 119.379ZM67.0242 119.031L67.126 119.313C67.3129 119.246 67.5157 119.213 67.7369 119.218L67.743 118.918L67.7491 118.618C67.4598 118.612 67.1835 118.655 66.9225 118.749L67.0242 119.031ZM67.743 118.918L67.7332 119.218C67.9394 119.225 68.1108 119.264 68.2533 119.331L68.3797 119.059L68.5062 118.787C68.2788 118.681 68.0257 118.627 67.7528 118.618L67.743 118.918ZM68.3797 119.059L68.2518 119.33C68.3965 119.398 68.5151 119.489 68.6112 119.603L68.8406 119.41L69.0701 119.217C68.9162 119.034 68.7275 118.891 68.5076 118.787L68.3797 119.059ZM68.8406 119.41L68.6076 119.599C68.7047 119.719 68.78 119.859 68.8319 120.024L69.118 119.934L69.4041 119.843C69.331 119.612 69.2214 119.403 69.0737 119.221L68.8406 119.41ZM69.118 119.934L68.8316 120.023C68.8836 120.19 68.9085 120.371 68.904 120.567L69.2039 120.574L69.5038 120.581C69.5097 120.325 69.4773 120.078 69.4044 119.844L69.118 119.934ZM69.2039 120.574V120.274H68.0477V120.574V120.874H69.2039V120.574ZM68.0477 120.574L68.3476 120.566C68.3445 120.458 68.3323 120.345 68.3121 120.227L68.0164 120.277L67.7207 120.328C67.737 120.423 67.7457 120.508 67.7478 120.583L68.0477 120.574ZM68.0164 120.277L68.3119 120.226C68.2859 120.077 68.2282 119.94 68.1343 119.821L67.8992 120.008L67.6642 120.194C67.6901 120.227 67.7104 120.269 67.7209 120.329L68.0164 120.277ZM67.8992 120.008L68.1343 119.821C68.007 119.661 67.8255 119.595 67.6403 119.591L67.6336 119.891L67.6269 120.191C67.6542 120.191 67.6654 120.196 67.6668 120.196C67.6675 120.197 67.6669 120.196 67.6656 120.195C67.6644 120.195 67.6639 120.194 67.6642 120.194L67.8992 120.008ZM67.6336 119.891L67.6449 119.591C67.4433 119.583 67.2521 119.638 67.0939 119.77L67.286 120L67.478 120.23C67.5073 120.206 67.5478 120.188 67.6223 120.19L67.6336 119.891ZM67.286 120L67.097 119.767C66.9638 119.875 66.8606 120.01 66.7875 120.166L67.0594 120.293L67.3312 120.42C67.3675 120.342 67.4154 120.281 67.4749 120.233L67.286 120ZM67.0594 120.293L66.7899 120.161C66.7194 120.305 66.6727 120.455 66.6525 120.61L66.95 120.648L67.2475 120.687C67.2586 120.602 67.2848 120.515 67.3289 120.425L67.0594 120.293ZM66.95 120.648L66.6518 120.616C66.6367 120.755 66.6351 120.893 66.6473 121.03L66.9461 121.004L67.2449 120.977C67.2363 120.88 67.2373 120.782 67.2483 120.681L66.95 120.648ZM66.9461 121.004L66.6473 121.03C66.662 121.196 66.7155 121.352 66.8183 121.484L67.0555 121.301L67.2927 121.117C67.2704 121.088 67.2511 121.046 67.2449 120.977L66.9461 121.004ZM67.0555 121.301L66.8183 121.484C66.954 121.66 67.1577 121.723 67.3519 121.733L67.368 121.434L67.384 121.134C67.3364 121.131 67.31 121.124 67.2978 121.118C67.2877 121.114 67.2892 121.113 67.2927 121.117L67.0555 121.301ZM67.368 121.434L67.366 121.734L67.9637 121.737L67.9656 121.438L67.9676 121.138L67.3699 121.134L67.368 121.434Z" fill="#125A4D" mask="url(#path-4-outside-1_268_285)"/>
<g opacity="0.6" filter="url(#filter0_d_268_285)">
<ellipse cx="42" cy="70.5" rx="28" ry="45.5" fill="url(#paint2_linear_268_285)" shape-rendering="crispEdges"/>
<ellipse cx="42" cy="70.5" rx="28" ry="45.5" stroke="#40795C" shape-rendering="crispEdges"/>
</g>
<g filter="url(#filter1_d_268_285)">
<mask id="path-7-outside-2_268_285" maskUnits="userSpaceOnUse" x="22" y="53" width="41" height="32" fill="black">
<rect fill="white" x="22" y="53" width="41" height="32"/>
<path d="M35.6008 54.5039V83H29.9758V60.9883L23.218 63.1367V58.7031L34.9953 54.5039H35.6008ZM48.5594 66.3398H51.5672C52.5307 66.3398 53.325 66.1771 53.95 65.8516C54.575 65.513 55.0372 65.0443 55.3367 64.4453C55.6492 63.8333 55.8055 63.1237 55.8055 62.3164C55.8055 61.5872 55.6622 60.9427 55.3758 60.3828C55.1023 59.8099 54.6792 59.3672 54.1062 59.0547C53.5333 58.7292 52.8107 58.5664 51.9383 58.5664C51.2482 58.5664 50.6102 58.7031 50.0242 58.9766C49.4383 59.25 48.9695 59.6341 48.618 60.1289C48.2664 60.6237 48.0906 61.2227 48.0906 61.9258H42.4461C42.4461 60.3633 42.8628 59.0026 43.6961 57.8438C44.5424 56.6849 45.6753 55.7799 47.0945 55.1289C48.5138 54.4779 50.0763 54.1523 51.782 54.1523C53.7091 54.1523 55.3953 54.4648 56.8406 55.0898C58.2859 55.7018 59.4122 56.6068 60.2195 57.8047C61.0268 59.0026 61.4305 60.487 61.4305 62.2578C61.4305 63.1562 61.2221 64.0286 60.8055 64.875C60.3888 65.7083 59.7898 66.4635 59.0086 67.1406C58.2404 67.8047 57.3029 68.3385 56.1961 68.7422C55.0893 69.1328 53.8458 69.3281 52.4656 69.3281H48.5594V66.3398ZM48.5594 70.6172V67.707H52.4656C54.0151 67.707 55.3758 67.8828 56.5477 68.2344C57.7195 68.5859 58.7026 69.0938 59.4969 69.7578C60.2911 70.4089 60.8901 71.1836 61.2937 72.082C61.6974 72.9674 61.8992 73.9505 61.8992 75.0312C61.8992 76.3594 61.6453 77.5443 61.1375 78.5859C60.6297 79.6146 59.9135 80.487 58.9891 81.2031C58.0776 81.9193 57.0099 82.4661 55.7859 82.8438C54.562 83.2083 53.2273 83.3906 51.782 83.3906C50.5841 83.3906 49.4057 83.2279 48.2469 82.9023C47.101 82.5638 46.0594 82.0625 45.1219 81.3984C44.1974 80.7214 43.4552 79.875 42.8953 78.8594C42.3484 77.8307 42.075 76.6133 42.075 75.207H47.7195C47.7195 75.9362 47.9018 76.5872 48.2664 77.1602C48.631 77.7331 49.1323 78.1823 49.7703 78.5078C50.4214 78.8333 51.144 78.9961 51.9383 78.9961C52.8367 78.9961 53.6049 78.8333 54.243 78.5078C54.894 78.1693 55.3888 77.7005 55.7273 77.1016C56.0789 76.4896 56.2547 75.7799 56.2547 74.9727C56.2547 73.931 56.0659 73.0977 55.6883 72.4727C55.3107 71.8346 54.7703 71.3659 54.0672 71.0664C53.3641 70.7669 52.5307 70.6172 51.5672 70.6172H48.5594Z"/>
</mask>
<path d="M35.6008 54.5039V83H29.9758V60.9883L23.218 63.1367V58.7031L34.9953 54.5039H35.6008ZM48.5594 66.3398H51.5672C52.5307 66.3398 53.325 66.1771 53.95 65.8516C54.575 65.513 55.0372 65.0443 55.3367 64.4453C55.6492 63.8333 55.8055 63.1237 55.8055 62.3164C55.8055 61.5872 55.6622 60.9427 55.3758 60.3828C55.1023 59.8099 54.6792 59.3672 54.1062 59.0547C53.5333 58.7292 52.8107 58.5664 51.9383 58.5664C51.2482 58.5664 50.6102 58.7031 50.0242 58.9766C49.4383 59.25 48.9695 59.6341 48.618 60.1289C48.2664 60.6237 48.0906 61.2227 48.0906 61.9258H42.4461C42.4461 60.3633 42.8628 59.0026 43.6961 57.8438C44.5424 56.6849 45.6753 55.7799 47.0945 55.1289C48.5138 54.4779 50.0763 54.1523 51.782 54.1523C53.7091 54.1523 55.3953 54.4648 56.8406 55.0898C58.2859 55.7018 59.4122 56.6068 60.2195 57.8047C61.0268 59.0026 61.4305 60.487 61.4305 62.2578C61.4305 63.1562 61.2221 64.0286 60.8055 64.875C60.3888 65.7083 59.7898 66.4635 59.0086 67.1406C58.2404 67.8047 57.3029 68.3385 56.1961 68.7422C55.0893 69.1328 53.8458 69.3281 52.4656 69.3281H48.5594V66.3398ZM48.5594 70.6172V67.707H52.4656C54.0151 67.707 55.3758 67.8828 56.5477 68.2344C57.7195 68.5859 58.7026 69.0938 59.4969 69.7578C60.2911 70.4089 60.8901 71.1836 61.2937 72.082C61.6974 72.9674 61.8992 73.9505 61.8992 75.0312C61.8992 76.3594 61.6453 77.5443 61.1375 78.5859C60.6297 79.6146 59.9135 80.487 58.9891 81.2031C58.0776 81.9193 57.0099 82.4661 55.7859 82.8438C54.562 83.2083 53.2273 83.3906 51.782 83.3906C50.5841 83.3906 49.4057 83.2279 48.2469 82.9023C47.101 82.5638 46.0594 82.0625 45.1219 81.3984C44.1974 80.7214 43.4552 79.875 42.8953 78.8594C42.3484 77.8307 42.075 76.6133 42.075 75.207H47.7195C47.7195 75.9362 47.9018 76.5872 48.2664 77.1602C48.631 77.7331 49.1323 78.1823 49.7703 78.5078C50.4214 78.8333 51.144 78.9961 51.9383 78.9961C52.8367 78.9961 53.6049 78.8333 54.243 78.5078C54.894 78.1693 55.3888 77.7005 55.7273 77.1016C56.0789 76.4896 56.2547 75.7799 56.2547 74.9727C56.2547 73.931 56.0659 73.0977 55.6883 72.4727C55.3107 71.8346 54.7703 71.3659 54.0672 71.0664C53.3641 70.7669 52.5307 70.6172 51.5672 70.6172H48.5594Z" fill="#1DBA96"/>
<path d="M35.6008 54.5039H36.6008V53.5039H35.6008V54.5039ZM35.6008 83V84H36.6008V83H35.6008ZM29.9758 83H28.9758V84H29.9758V83ZM29.9758 60.9883H30.9758V59.621L29.6728 60.0353L29.9758 60.9883ZM23.218 63.1367H22.218V64.504L23.5209 64.0897L23.218 63.1367ZM23.218 58.7031L22.8821 57.7612L22.218 57.998V58.7031H23.218ZM34.9953 54.5039V53.5039H34.8224L34.6595 53.562L34.9953 54.5039ZM35.6008 54.5039H34.6008V83H35.6008H36.6008V54.5039H35.6008ZM35.6008 83V82H29.9758V83V84H35.6008V83ZM29.9758 83H30.9758V60.9883H29.9758H28.9758V83H29.9758ZM29.9758 60.9883L29.6728 60.0353L22.915 62.1837L23.218 63.1367L23.5209 64.0897L30.2788 61.9413L29.9758 60.9883ZM23.218 63.1367H24.218V58.7031H23.218H22.218V63.1367H23.218ZM23.218 58.7031L23.5538 59.645L35.3312 55.4458L34.9953 54.5039L34.6595 53.562L22.8821 57.7612L23.218 58.7031ZM34.9953 54.5039V55.5039H35.6008V54.5039V53.5039H34.9953V54.5039ZM48.5594 66.3398V65.3398H47.5594V66.3398H48.5594ZM53.95 65.8516L54.4119 66.7385L54.4191 66.7347L54.4263 66.7309L53.95 65.8516ZM55.3367 64.4453L54.4461 63.9905L54.4423 63.9981L55.3367 64.4453ZM55.3758 60.3828L54.4733 60.8135L54.4792 60.826L54.4855 60.8383L55.3758 60.3828ZM54.1062 59.0547L53.6122 59.9241L53.6198 59.9284L53.6274 59.9326L54.1062 59.0547ZM48.0906 61.9258V62.9258H49.0906V61.9258H48.0906ZM42.4461 61.9258H41.4461V62.9258H42.4461V61.9258ZM43.6961 57.8438L42.8885 57.2539L42.8842 57.2599L43.6961 57.8438ZM56.8406 55.0898L56.4437 56.0077L56.4507 56.0107L56.8406 55.0898ZM60.2195 57.8047L61.0488 57.2458L60.2195 57.8047ZM60.8055 64.875L61.6999 65.3222L61.7026 65.3167L60.8055 64.875ZM59.0086 67.1406L59.6625 67.8972L59.6635 67.8963L59.0086 67.1406ZM56.1961 68.7422L56.5289 69.6852L56.5387 69.6817L56.1961 68.7422ZM48.5594 69.3281H47.5594V70.3281H48.5594V69.3281ZM48.5594 70.6172H47.5594V71.6172H48.5594V70.6172ZM48.5594 67.707V66.707H47.5594V67.707H48.5594ZM59.4969 69.7578L58.8554 70.525L58.8629 70.5312L59.4969 69.7578ZM61.2937 72.082L60.3816 72.4919L60.3838 72.4968L61.2937 72.082ZM61.1375 78.5859L62.0342 79.0286L62.0364 79.0241L61.1375 78.5859ZM58.9891 81.2031L58.3766 80.4126L58.3712 80.4168L58.9891 81.2031ZM55.7859 82.8438L56.0714 83.8022L56.0807 83.7993L55.7859 82.8438ZM48.2469 82.9023L47.9635 83.8614L47.9764 83.8651L48.2469 82.9023ZM45.1219 81.3984L44.531 82.2052L44.5374 82.2099L44.5439 82.2145L45.1219 81.3984ZM42.8953 78.8594L42.0123 79.3288L42.0159 79.3355L42.0196 79.3422L42.8953 78.8594ZM42.075 75.207V74.207H41.075V75.207H42.075ZM47.7195 75.207H48.7195V74.207H47.7195V75.207ZM49.7703 78.5078L49.3158 79.3986L49.3231 79.4022L49.7703 78.5078ZM54.243 78.5078L54.6974 79.3986L54.7043 79.395L54.243 78.5078ZM55.7273 77.1016L54.8602 76.6034L54.8568 76.6095L55.7273 77.1016ZM55.6883 72.4727L54.8277 72.982L54.8324 72.9898L55.6883 72.4727ZM48.5594 66.3398V67.3398H51.5672V66.3398V65.3398H48.5594V66.3398ZM51.5672 66.3398V67.3398C52.6354 67.3398 53.6017 67.1605 54.4119 66.7385L53.95 65.8516L53.4881 64.9646C53.0483 65.1937 52.426 65.3398 51.5672 65.3398V66.3398ZM53.95 65.8516L54.4263 66.7309C55.22 66.3009 55.8341 65.6866 56.2311 64.8925L55.3367 64.4453L54.4423 63.9981C54.2403 64.402 53.93 64.7251 53.4737 64.9723L53.95 65.8516ZM55.3367 64.4453L56.2273 64.9001C56.6233 64.1246 56.8055 63.2542 56.8055 62.3164H55.8055H54.8055C54.8055 62.9932 54.6751 63.542 54.4461 63.9905L55.3367 64.4453ZM55.8055 62.3164H56.8055C56.8055 61.4542 56.6353 60.6491 56.266 59.9273L55.3758 60.3828L54.4855 60.8383C54.6892 61.2363 54.8055 61.7203 54.8055 62.3164H55.8055ZM55.3758 60.3828L56.2783 59.9521C55.9115 59.1836 55.3372 58.587 54.5851 58.1768L54.1062 59.0547L53.6274 59.9326C54.0211 60.1473 54.2932 60.4362 54.4733 60.8135L55.3758 60.3828ZM54.1062 59.0547L54.6003 58.1852C53.8357 57.7508 52.9296 57.5664 51.9383 57.5664V58.5664V59.5664C52.6918 59.5664 53.231 59.7075 53.6122 59.9241L54.1062 59.0547ZM51.9383 58.5664V57.5664C51.1121 57.5664 50.3285 57.731 49.6013 58.0704L50.0242 58.9766L50.4471 59.8827C50.8918 59.6752 51.3843 59.5664 51.9383 59.5664V58.5664ZM50.0242 58.9766L49.6013 58.0704C48.8691 58.4121 48.2612 58.9046 47.8028 59.5497L48.618 60.1289L49.4331 60.7081C49.6779 60.3637 50.0074 60.0879 50.4471 59.8827L50.0242 58.9766ZM48.618 60.1289L47.8028 59.5497C47.3127 60.2394 47.0906 61.0491 47.0906 61.9258H48.0906H49.0906C49.0906 61.3963 49.2201 61.008 49.4331 60.7081L48.618 60.1289ZM48.0906 61.9258V60.9258H42.4461V61.9258V62.9258H48.0906V61.9258ZM42.4461 61.9258H43.4461C43.4461 60.5519 43.8086 59.4001 44.508 58.4276L43.6961 57.8438L42.8842 57.2599C41.9169 58.6051 41.4461 60.1746 41.4461 61.9258H42.4461ZM43.6961 57.8438L44.5036 58.4335C45.2405 57.4247 46.2335 56.6241 47.5115 56.0378L47.0945 55.1289L46.6776 54.22C45.117 54.9358 43.8444 55.9451 42.8885 57.254L43.6961 57.8438ZM47.0945 55.1289L47.5115 56.0378C48.7882 55.4522 50.2068 55.1523 51.782 55.1523V54.1523V53.1523C49.9458 53.1523 48.2394 53.5036 46.6776 54.22L47.0945 55.1289ZM51.782 54.1523V55.1523C53.6024 55.1523 55.1484 55.4476 56.4437 56.0077L56.8406 55.0898L57.2375 54.172C55.6422 53.4821 53.8159 53.1523 51.782 53.1523V54.1523ZM56.8406 55.0898L56.4507 56.0107C57.7337 56.5539 58.7006 57.3402 59.3903 58.3635L60.2195 57.8047L61.0488 57.2458C60.1238 55.8733 58.8382 54.8497 57.2305 54.169L56.8406 55.0898ZM60.2195 57.8047L59.3903 58.3635C60.0634 59.3623 60.4305 60.6407 60.4305 62.2578H61.4305H62.4305C62.4305 60.3332 61.9903 58.6429 61.0488 57.2458L60.2195 57.8047ZM61.4305 62.2578H60.4305C60.4305 62.9954 60.2608 63.7173 59.9083 64.4333L60.8055 64.875L61.7026 65.3167C62.1835 64.34 62.4305 63.3171 62.4305 62.2578H61.4305ZM60.8055 64.875L59.911 64.4278C59.5593 65.1313 59.0465 65.7845 58.3537 66.3849L59.0086 67.1406L59.6635 67.8963C60.5332 67.1426 61.2183 66.2854 61.6999 65.3222L60.8055 64.875ZM59.0086 67.1406L58.3546 66.3841C57.6917 66.9572 56.8642 67.4341 55.8535 67.8027L56.1961 68.7422L56.5387 69.6817C57.7415 69.243 58.7891 68.6522 59.6625 67.8972L59.0086 67.1406ZM56.1961 68.7422L55.8633 67.7992C54.8804 68.1461 53.752 68.3281 52.4656 68.3281V69.3281V70.3281C53.9397 70.3281 55.2983 70.1195 56.5289 69.6852L56.1961 68.7422ZM52.4656 69.3281V68.3281H48.5594V69.3281V70.3281H52.4656V69.3281ZM48.5594 69.3281H49.5594V66.3398H48.5594H47.5594V69.3281H48.5594ZM48.5594 70.6172H49.5594V67.707H48.5594H47.5594V70.6172H48.5594ZM48.5594 67.707V68.707H52.4656V67.707V66.707H48.5594V67.707ZM52.4656 67.707V68.707C53.9424 68.707 55.2026 68.8749 56.2603 69.1922L56.5477 68.2344L56.835 67.2766C55.5489 66.8907 54.0878 66.707 52.4656 66.707V67.707ZM56.5477 68.2344L56.2603 69.1922C57.3257 69.5118 58.1822 69.9621 58.8555 70.525L59.4969 69.7578L60.1383 68.9906C59.223 68.2254 58.1134 67.6601 56.835 67.2766L56.5477 68.2344ZM59.4969 69.7578L58.8629 70.5312C59.5429 71.0885 60.044 71.7406 60.3816 72.4918L61.2937 72.082L62.2059 71.6722C61.7362 70.6266 61.0394 69.7292 60.1308 68.9844L59.4969 69.7578ZM61.2937 72.082L60.3838 72.4968C60.7218 73.2383 60.8992 74.0777 60.8992 75.0312H61.8992H62.8992C62.8992 73.8233 62.6729 72.6966 62.2037 71.6672L61.2937 72.082ZM61.8992 75.0312H60.8992C60.8992 76.2297 60.6708 77.2612 60.2386 78.1477L61.1375 78.5859L62.0364 79.0241C62.6198 77.8273 62.8992 76.489 62.8992 75.0312H61.8992ZM61.1375 78.5859L60.2408 78.1433C59.8015 79.0332 59.1836 79.7875 58.3767 80.4126L58.9891 81.2031L59.6015 81.9937C60.6435 81.1865 61.4579 80.196 62.0342 79.0286L61.1375 78.5859ZM58.9891 81.2031L58.3712 80.4168C57.5658 81.0497 56.6102 81.5429 55.4911 81.8882L55.7859 82.8438L56.0807 83.7993C57.4095 83.3894 58.5894 82.7889 59.6069 81.9894L58.9891 81.2031ZM55.7859 82.8438L55.5005 81.8854C54.3804 82.219 53.1432 82.3906 51.782 82.3906V83.3906V84.3906C53.3115 84.3906 54.7435 84.1977 56.0714 83.8021L55.7859 82.8438ZM51.782 83.3906V82.3906C50.676 82.3906 49.5886 82.2405 48.5173 81.9396L48.2469 82.9023L47.9764 83.8651C49.2229 84.2152 50.4922 84.3906 51.782 84.3906V83.3906ZM48.2469 82.9023L48.5302 81.9433C47.4855 81.6347 46.5441 81.1804 45.6999 80.5824L45.1219 81.3984L44.5439 82.2145C45.5746 82.9446 46.7165 83.4929 47.9635 83.8614L48.2469 82.9023ZM45.1219 81.3984L45.7127 80.5917C44.9071 80.0016 44.2616 79.2664 43.771 78.3766L42.8953 78.8594L42.0196 79.3422C42.6488 80.4836 43.4877 81.4411 44.531 82.2052L45.1219 81.3984ZM42.8953 78.8594L43.7783 78.3899C43.3226 77.5329 43.075 76.4832 43.075 75.207H42.075H41.075C41.075 76.7433 41.3742 78.1286 42.0123 79.3288L42.8953 78.8594ZM42.075 75.207V76.207H47.7195V75.207V74.207H42.075V75.207ZM47.7195 75.207H46.7195C46.7195 76.1117 46.9485 76.9517 47.4227 77.697L48.2664 77.1602L49.1101 76.6233C48.8552 76.2227 48.7195 75.7607 48.7195 75.207H47.7195ZM48.2664 77.1602L47.4227 77.697C47.8885 78.4289 48.5279 78.9966 49.3158 79.3986L49.7703 78.5078L50.2248 77.6171C49.7367 77.368 49.3735 77.0373 49.1101 76.6233L48.2664 77.1602ZM49.7703 78.5078L49.3231 79.4022C50.1253 79.8034 51.0032 79.9961 51.9383 79.9961V78.9961V77.9961C51.2848 77.9961 50.7174 77.8633 50.2175 77.6134L49.7703 78.5078ZM51.9383 78.9961V79.9961C52.9554 79.9961 53.8874 79.8118 54.6974 79.3986L54.243 78.5078L53.7885 77.6171C53.3225 77.8548 52.718 77.9961 51.9383 77.9961V78.9961ZM54.243 78.5078L54.7043 79.395C55.5152 78.9734 56.1577 78.3725 56.5979 77.5936L55.7273 77.1016L54.8568 76.6095C54.6199 77.0285 54.2729 77.3652 53.7816 77.6206L54.243 78.5078ZM55.7273 77.1016L56.5944 77.5997C57.045 76.8154 57.2547 75.9292 57.2547 74.9727H56.2547H55.2547C55.2547 75.6307 55.1128 76.1637 54.8602 76.6034L55.7273 77.1016ZM56.2547 74.9727H57.2547C57.2547 73.8224 57.048 72.7894 56.5442 71.9555L55.6883 72.4727L54.8324 72.9898C55.0838 73.4059 55.2547 74.0396 55.2547 74.9727H56.2547ZM55.6883 72.4727L56.5489 71.9633C56.0592 71.136 55.3517 70.5266 54.459 70.1464L54.0672 71.0664L53.6753 71.9864C54.1889 72.2052 54.5621 72.5333 54.8277 72.982L55.6883 72.4727ZM54.0672 71.0664L54.459 70.1464C53.6043 69.7823 52.6315 69.6172 51.5672 69.6172V70.6172V71.6172C52.4299 71.6172 53.1239 71.7515 53.6753 71.9864L54.0672 71.0664ZM51.5672 70.6172V69.6172H48.5594V70.6172V71.6172H51.5672V70.6172Z" fill="black" mask="url(#path-7-outside-2_268_285)"/>
</g>
<path d="M14.5616 5.11468C16.1644 5.34009 17.5106 6.45647 18.381 8.12475C19.2511 9.79263 19.633 11.9941 19.3044 14.3322C18.9758 16.6705 18.0018 18.6822 16.7056 20.0457C15.4092 21.4091 13.8073 22.1105 12.2046 21.8854C10.6017 21.6601 9.25448 20.5443 8.38406 18.8762C7.51391 17.2083 7.13218 15.006 7.4608 12.6677C7.7894 10.3296 8.76336 8.31867 10.0594 6.95524C11.356 5.59138 12.9586 4.88939 14.5616 5.11468Z" fill="url(#paint3_linear_268_285)" stroke="#40795C" stroke-width="0.5"/>
<mask id="path-10-outside-3_268_285" maskUnits="userSpaceOnUse" x="9" y="9" width="9" height="8" fill="black">
<rect fill="white" x="9" y="9" width="9" height="8"/>
<path d="M12.2375 10.3047L11.2766 16H10.1164L10.8547 11.7461L9.75703 12.1406L9.93281 11.1367L12.1008 10.3086L12.2375 10.3047ZM14.4344 12.6289L14.9227 12.6328C15.0737 12.6302 15.1948 12.5911 15.2859 12.5156C15.3797 12.4401 15.45 12.3424 15.4969 12.2227C15.5464 12.1029 15.5776 11.9766 15.5906 11.8438C15.601 11.7578 15.5984 11.6641 15.5828 11.5625C15.5698 11.4583 15.5359 11.3698 15.4813 11.2969C15.4292 11.224 15.3471 11.1862 15.2352 11.1836C15.1258 11.181 15.0359 11.2109 14.9656 11.2734C14.8953 11.3359 14.8393 11.4141 14.7977 11.5078C14.7586 11.599 14.7299 11.6875 14.7117 11.7734L13.5516 11.7812C13.5698 11.4766 13.657 11.207 13.8133 10.9727C13.9721 10.7357 14.1779 10.5508 14.4305 10.418C14.6831 10.2852 14.963 10.2214 15.2703 10.2266C15.5854 10.2344 15.8576 10.3047 16.0867 10.4375C16.3185 10.5703 16.4956 10.7565 16.618 10.9961C16.7404 11.2331 16.7924 11.5104 16.7742 11.8281C16.7612 12.0469 16.7078 12.2461 16.6141 12.4258C16.5203 12.6029 16.3966 12.7552 16.243 12.8828C16.0919 13.0078 15.9201 13.1055 15.7273 13.1758C15.5346 13.2435 15.3315 13.2773 15.118 13.2773L14.3289 13.2734L14.4344 12.6289ZM14.282 13.5625L14.3836 12.9336L15.0555 12.9375C15.2742 12.9453 15.4708 12.9818 15.6453 13.0469C15.8198 13.112 15.9682 13.2057 16.0906 13.3281C16.2156 13.4505 16.3068 13.599 16.3641 13.7734C16.424 13.9479 16.4474 14.1484 16.4344 14.375C16.4188 14.6302 16.3576 14.8646 16.2508 15.0781C16.144 15.2891 16.0021 15.4701 15.825 15.6211C15.6505 15.7721 15.45 15.888 15.2234 15.9688C14.9995 16.0495 14.7599 16.0872 14.5047 16.082C14.2651 16.0742 14.0529 16.0273 13.868 15.9414C13.6857 15.8555 13.532 15.7383 13.407 15.5898C13.2846 15.4388 13.1922 15.2643 13.1297 15.0664C13.0672 14.8659 13.0385 14.6523 13.0438 14.4258H14.2C14.2026 14.5169 14.213 14.6159 14.2313 14.7227C14.2495 14.8268 14.2885 14.9167 14.3484 14.9922C14.4083 15.0677 14.4969 15.1068 14.6141 15.1094C14.7521 15.1146 14.868 15.0781 14.9617 15C15.0581 14.9219 15.1336 14.8242 15.1883 14.707C15.2456 14.5898 15.282 14.4714 15.2977 14.3516C15.3107 14.2318 15.312 14.1133 15.3016 13.9961C15.2911 13.8789 15.2547 13.7799 15.1922 13.6992C15.1297 13.6185 15.0255 13.5742 14.8797 13.5664L14.282 13.5625Z"/>
</mask>
<path d="M12.2375 10.3047L11.2766 16H10.1164L10.8547 11.7461L9.75703 12.1406L9.93281 11.1367L12.1008 10.3086L12.2375 10.3047ZM14.4344 12.6289L14.9227 12.6328C15.0737 12.6302 15.1948 12.5911 15.2859 12.5156C15.3797 12.4401 15.45 12.3424 15.4969 12.2227C15.5464 12.1029 15.5776 11.9766 15.5906 11.8438C15.601 11.7578 15.5984 11.6641 15.5828 11.5625C15.5698 11.4583 15.5359 11.3698 15.4813 11.2969C15.4292 11.224 15.3471 11.1862 15.2352 11.1836C15.1258 11.181 15.0359 11.2109 14.9656 11.2734C14.8953 11.3359 14.8393 11.4141 14.7977 11.5078C14.7586 11.599 14.7299 11.6875 14.7117 11.7734L13.5516 11.7812C13.5698 11.4766 13.657 11.207 13.8133 10.9727C13.9721 10.7357 14.1779 10.5508 14.4305 10.418C14.6831 10.2852 14.963 10.2214 15.2703 10.2266C15.5854 10.2344 15.8576 10.3047 16.0867 10.4375C16.3185 10.5703 16.4956 10.7565 16.618 10.9961C16.7404 11.2331 16.7924 11.5104 16.7742 11.8281C16.7612 12.0469 16.7078 12.2461 16.6141 12.4258C16.5203 12.6029 16.3966 12.7552 16.243 12.8828C16.0919 13.0078 15.9201 13.1055 15.7273 13.1758C15.5346 13.2435 15.3315 13.2773 15.118 13.2773L14.3289 13.2734L14.4344 12.6289ZM14.282 13.5625L14.3836 12.9336L15.0555 12.9375C15.2742 12.9453 15.4708 12.9818 15.6453 13.0469C15.8198 13.112 15.9682 13.2057 16.0906 13.3281C16.2156 13.4505 16.3068 13.599 16.3641 13.7734C16.424 13.9479 16.4474 14.1484 16.4344 14.375C16.4188 14.6302 16.3576 14.8646 16.2508 15.0781C16.144 15.2891 16.0021 15.4701 15.825 15.6211C15.6505 15.7721 15.45 15.888 15.2234 15.9688C14.9995 16.0495 14.7599 16.0872 14.5047 16.082C14.2651 16.0742 14.0529 16.0273 13.868 15.9414C13.6857 15.8555 13.532 15.7383 13.407 15.5898C13.2846 15.4388 13.1922 15.2643 13.1297 15.0664C13.0672 14.8659 13.0385 14.6523 13.0438 14.4258H14.2C14.2026 14.5169 14.213 14.6159 14.2313 14.7227C14.2495 14.8268 14.2885 14.9167 14.3484 14.9922C14.4083 15.0677 14.4969 15.1068 14.6141 15.1094C14.7521 15.1146 14.868 15.0781 14.9617 15C15.0581 14.9219 15.1336 14.8242 15.1883 14.707C15.2456 14.5898 15.282 14.4714 15.2977 14.3516C15.3107 14.2318 15.312 14.1133 15.3016 13.9961C15.2911 13.8789 15.2547 13.7799 15.1922 13.6992C15.1297 13.6185 15.0255 13.5742 14.8797 13.5664L14.282 13.5625Z" fill="#1DBA96"/>
<path d="M12.2375 10.3047L12.5333 10.3546L12.5941 9.99438L12.2289 10.0048L12.2375 10.3047ZM11.2766 16V16.3H11.5302L11.5724 16.0499L11.2766 16ZM10.1164 16L9.82083 15.9487L9.75986 16.3H10.1164V16ZM10.8547 11.7461L11.1503 11.7974L11.2384 11.2894L10.7532 11.4638L10.8547 11.7461ZM9.75703 12.1406L9.46153 12.0889L9.37244 12.5976L9.8585 12.4229L9.75703 12.1406ZM9.93281 11.1367L9.82576 10.8565L9.66668 10.9172L9.63731 11.085L9.93281 11.1367ZM12.1008 10.3086L12.0922 10.0087L12.0413 10.0102L11.9937 10.0283L12.1008 10.3086ZM12.2375 10.3047L11.9417 10.2548L10.9807 15.9501L11.2766 16L11.5724 16.0499L12.5333 10.3546L12.2375 10.3047ZM11.2766 16V15.7H10.1164V16V16.3H11.2766V16ZM10.1164 16L10.412 16.0513L11.1503 11.7974L10.8547 11.7461L10.5591 11.6948L9.82083 15.9487L10.1164 16ZM10.8547 11.7461L10.7532 11.4638L9.65556 11.8583L9.75703 12.1406L9.8585 12.4229L10.9562 12.0284L10.8547 11.7461ZM9.75703 12.1406L10.0525 12.1924L10.2283 11.1885L9.93281 11.1367L9.63731 11.085L9.46153 12.0889L9.75703 12.1406ZM9.93281 11.1367L10.0399 11.417L12.2078 10.5888L12.1008 10.3086L11.9937 10.0283L9.82576 10.8565L9.93281 11.1367ZM12.1008 10.3086L12.1093 10.6085L12.2461 10.6046L12.2375 10.3047L12.2289 10.0048L12.0922 10.0087L12.1008 10.3086ZM14.4344 12.6289L14.4368 12.3289L14.1798 12.3269L14.1383 12.5805L14.4344 12.6289ZM14.9227 12.6328L14.9203 12.9329L14.9278 12.9328L14.9227 12.6328ZM15.2859 12.5156L15.0977 12.282L15.0945 12.2846L15.2859 12.5156ZM15.4969 12.2227L15.2195 12.1081L15.2175 12.1133L15.4969 12.2227ZM15.5906 11.8438L15.2927 11.8076L15.2921 11.8145L15.5906 11.8438ZM15.5828 11.5625L15.285 11.5997L15.2863 11.6081L15.5828 11.5625ZM15.4813 11.2969L15.2371 11.4713L15.2413 11.4769L15.4813 11.2969ZM15.2352 11.1836L15.228 11.4835L15.2282 11.4835L15.2352 11.1836ZM14.7977 11.5078L14.5235 11.386L14.5219 11.3896L14.7977 11.5078ZM14.7117 11.7734L14.7137 12.0734L14.9551 12.0718L15.0052 11.8357L14.7117 11.7734ZM13.5516 11.7812L13.2521 11.7633L13.2329 12.0834L13.5536 12.0812L13.5516 11.7812ZM13.8133 10.9727L13.5641 10.8056L13.5637 10.8062L13.8133 10.9727ZM15.2703 10.2266L15.2777 9.92665L15.2754 9.92661L15.2703 10.2266ZM16.0867 10.4375L15.9363 10.6971L15.9376 10.6978L16.0867 10.4375ZM16.618 10.9961L16.3508 11.1326L16.3514 11.1338L16.618 10.9961ZM16.7742 11.8281L17.0737 11.846L17.0737 11.8453L16.7742 11.8281ZM16.6141 12.4258L16.8792 12.5662L16.88 12.5646L16.6141 12.4258ZM16.243 12.8828L16.4342 13.1139L16.4346 13.1136L16.243 12.8828ZM15.7273 13.1758L15.8268 13.4588L15.8302 13.4576L15.7273 13.1758ZM15.118 13.2773L15.1165 13.5773H15.118V13.2773ZM14.3289 13.2734L14.0328 13.225L13.9761 13.5717L14.3274 13.5734L14.3289 13.2734ZM14.282 13.5625L13.9859 13.5147L13.9301 13.8602L14.2801 13.8625L14.282 13.5625ZM14.3836 12.9336L14.3853 12.6336L14.1284 12.6321L14.0874 12.8858L14.3836 12.9336ZM15.0555 12.9375L15.0662 12.6376L15.0572 12.6375L15.0555 12.9375ZM16.0906 13.3281L15.8785 13.5403L15.8807 13.5425L16.0906 13.3281ZM16.3641 13.7734L16.079 13.867L16.0803 13.8708L16.3641 13.7734ZM16.4344 14.375L16.7338 14.3933L16.7339 14.3922L16.4344 14.375ZM16.2508 15.0781L16.5184 15.2136L16.5191 15.2123L16.2508 15.0781ZM15.825 15.6211L15.6303 15.3928L15.6287 15.3943L15.825 15.6211ZM15.2234 15.9688L15.1227 15.6862L15.1217 15.6865L15.2234 15.9688ZM14.5047 16.082L14.4949 16.3819L14.4986 16.382L14.5047 16.082ZM13.868 15.9414L13.74 16.2128L13.7415 16.2135L13.868 15.9414ZM13.407 15.5898L13.1739 15.7788L13.1776 15.7831L13.407 15.5898ZM13.1297 15.0664L12.8433 15.1557L12.8436 15.1567L13.1297 15.0664ZM13.0438 14.4258V14.1258H12.7506L12.7438 14.4189L13.0438 14.4258ZM14.2 14.4258L14.4999 14.4172L14.4916 14.1258H14.2V14.4258ZM14.2313 14.7227L13.9355 14.7731L13.9357 14.7744L14.2313 14.7227ZM14.3484 14.9922L14.5835 14.8058L14.3484 14.9922ZM14.6141 15.1094L14.6254 14.8096L14.6207 14.8094L14.6141 15.1094ZM14.9617 15L14.7728 14.767L14.7697 14.7695L14.9617 15ZM15.1883 14.707L14.9187 14.5752L14.9164 14.5802L15.1883 14.707ZM15.2977 14.3516L15.5952 14.3904L15.5959 14.384L15.2977 14.3516ZM14.8797 13.5664L14.8958 13.2665L14.8816 13.2664L14.8797 13.5664ZM14.4344 12.6289L14.432 12.9289L14.9203 12.9328L14.9227 12.6328L14.9251 12.3328L14.4368 12.3289L14.4344 12.6289ZM14.9227 12.6328L14.9278 12.9328C15.1279 12.9293 15.3207 12.8764 15.4773 12.7466L15.2859 12.5156L15.0945 12.2846C15.0689 12.3059 15.0195 12.3311 14.9175 12.3329L14.9227 12.6328ZM15.2859 12.5156L15.4741 12.7493C15.6114 12.6387 15.7117 12.497 15.7762 12.332L15.4969 12.2227L15.2175 12.1133C15.1883 12.1879 15.148 12.2415 15.0977 12.282L15.2859 12.5156ZM15.4969 12.2227L15.7742 12.3372C15.8352 12.1894 15.8734 12.0343 15.8892 11.873L15.5906 11.8438L15.2921 11.8145C15.2818 11.9189 15.2575 12.0164 15.2196 12.1081L15.4969 12.2227ZM15.5906 11.8438L15.8884 11.8798C15.9027 11.7622 15.8984 11.6406 15.8793 11.5169L15.5828 11.5625L15.2863 11.6081C15.2985 11.6875 15.2994 11.7534 15.2928 11.8077L15.5906 11.8438ZM15.5828 11.5625L15.8805 11.5253C15.862 11.3773 15.8117 11.2375 15.7213 11.1169L15.4813 11.2969L15.2413 11.4769C15.2601 11.502 15.2776 11.5394 15.2851 11.5997L15.5828 11.5625ZM15.4813 11.2969L15.7254 11.1225C15.6048 10.9537 15.4223 10.8879 15.2421 10.8837L15.2352 11.1836L15.2282 11.4835C15.2528 11.4841 15.2592 11.4882 15.2552 11.4864C15.2531 11.4854 15.2496 11.4834 15.2456 11.4802C15.2416 11.4769 15.2388 11.4736 15.2371 11.4712L15.4813 11.2969ZM15.2352 11.1836L15.2423 10.8837C15.0702 10.8796 14.9026 10.9281 14.7663 11.0492L14.9656 11.2734L15.1649 11.4977C15.1693 11.4938 15.1813 11.4824 15.228 11.4835L15.2352 11.1836ZM14.9656 11.2734L14.7663 11.0492C14.6612 11.1426 14.581 11.2567 14.5235 11.386L14.7977 11.5078L15.0718 11.6297C15.0977 11.5714 15.1294 11.5293 15.1649 11.4977L14.9656 11.2734ZM14.7977 11.5078L14.5219 11.3896C14.4761 11.4965 14.441 11.6038 14.4182 11.7112L14.7117 11.7734L15.0052 11.8357C15.0189 11.7712 15.0411 11.7014 15.0734 11.626L14.7977 11.5078ZM14.7117 11.7734L14.7097 11.4734L13.5495 11.4813L13.5516 11.7812L13.5536 12.0812L14.7137 12.0734L14.7117 11.7734ZM13.5516 11.7812L13.851 11.7992C13.8664 11.5429 13.9386 11.3256 14.0629 11.1391L13.8133 10.9727L13.5637 10.8062C13.3755 11.0885 13.2732 11.4102 13.2521 11.7633L13.5516 11.7812ZM13.8133 10.9727L14.0625 11.1397C14.1935 10.9442 14.3616 10.7931 14.5701 10.6835L14.4305 10.418L14.2909 10.1524C13.9941 10.3084 13.7507 10.5272 13.5641 10.8056L13.8133 10.9727ZM14.4305 10.418L14.5701 10.6835C14.7747 10.5759 15.0043 10.5221 15.2652 10.5265L15.2703 10.2266L15.2754 9.92661C14.9217 9.92061 14.5914 9.9944 14.2909 10.1524L14.4305 10.418ZM15.2703 10.2266L15.2629 10.5265C15.5372 10.5333 15.7582 10.5939 15.9363 10.6971L16.0867 10.4375L16.2371 10.1779C15.9569 10.0155 15.6336 9.93548 15.2777 9.92665L15.2703 10.2266ZM16.0867 10.4375L15.9376 10.6978C16.1184 10.8014 16.2547 10.9444 16.3508 11.1326L16.618 10.9961L16.8851 10.8596C16.7364 10.5686 16.5185 10.3392 16.2359 10.1772L16.0867 10.4375ZM16.618 10.9961L16.3514 11.1338C16.4448 11.3145 16.4905 11.5365 16.4747 11.8109L16.7742 11.8281L17.0737 11.8453C17.0944 11.4844 17.0359 11.1516 16.8845 10.8584L16.618 10.9961ZM16.7742 11.8281L16.4747 11.8103C16.464 11.9903 16.4207 12.1478 16.3481 12.287L16.6141 12.4258L16.88 12.5646C16.9949 12.3444 17.0584 12.1035 17.0737 11.846L16.7742 11.8281ZM16.6141 12.4258L16.3489 12.2854C16.2735 12.428 16.1747 12.5496 16.0513 12.652L16.243 12.8828L16.4346 13.1136C16.6185 12.9609 16.7672 12.7778 16.8792 12.5661L16.6141 12.4258ZM16.243 12.8828L16.0517 12.6517C15.9282 12.7539 15.7866 12.8348 15.6245 12.894L15.7273 13.1758L15.8302 13.4576C16.0535 13.3761 16.2556 13.2618 16.4342 13.1139L16.243 12.8828ZM15.7273 13.1758L15.6279 12.8927C15.4686 12.9487 15.2992 12.9773 15.118 12.9773V13.2773V13.5773C15.3638 13.5773 15.6007 13.5383 15.8268 13.4588L15.7273 13.1758ZM15.118 13.2773L15.1195 12.9773L14.3304 12.9734L14.3289 13.2734L14.3274 13.5734L15.1165 13.5773L15.118 13.2773ZM14.3289 13.2734L14.625 13.3219L14.7304 12.6774L14.4344 12.6289L14.1383 12.5805L14.0328 13.225L14.3289 13.2734ZM14.282 13.5625L14.5782 13.6103L14.6798 12.9814L14.3836 12.9336L14.0874 12.8858L13.9859 13.5147L14.282 13.5625ZM14.3836 12.9336L14.3819 13.2336L15.0537 13.2375L15.0555 12.9375L15.0572 12.6375L14.3853 12.6336L14.3836 12.9336ZM15.0555 12.9375L15.0448 13.2373C15.2368 13.2442 15.4009 13.2759 15.5404 13.3279L15.6453 13.0469L15.7502 12.7658C15.5408 12.6877 15.3116 12.6465 15.0662 12.6377L15.0555 12.9375ZM15.6453 13.0469L15.5404 13.3279C15.6777 13.3792 15.7888 13.4505 15.8785 13.5403L16.0906 13.3281L16.3028 13.116C16.1477 12.9609 15.9618 12.8448 15.7502 12.7658L15.6453 13.0469ZM16.0906 13.3281L15.8807 13.5425C15.9697 13.6295 16.036 13.7359 16.079 13.867L16.3641 13.7734L16.6491 13.6798C16.5776 13.462 16.4616 13.2715 16.3005 13.1138L16.0906 13.3281ZM16.3641 13.7734L16.0803 13.8708C16.125 14.0011 16.1462 14.1614 16.1349 14.3578L16.4344 14.375L16.7339 14.3922C16.7486 14.1355 16.7229 13.8947 16.6478 13.676L16.3641 13.7734ZM16.4344 14.375L16.1349 14.3567C16.1216 14.5745 16.0699 14.7691 15.9825 14.944L16.2508 15.0781L16.5191 15.2123C16.6452 14.9601 16.7159 14.686 16.7338 14.3933L16.4344 14.375ZM16.2508 15.0781L15.9831 14.9426C15.894 15.1187 15.7767 15.268 15.6303 15.3928L15.825 15.6211L16.0197 15.8493C16.2275 15.6721 16.394 15.4594 16.5184 15.2136L16.2508 15.0781ZM15.825 15.6211L15.6287 15.3943C15.4835 15.5199 15.3157 15.6174 15.1227 15.6862L15.2234 15.9688L15.3241 16.2513C15.5843 16.1587 15.8175 16.0243 16.0214 15.8479L15.825 15.6211ZM15.2234 15.9688L15.1217 15.6865C14.9347 15.7539 14.732 15.7866 14.5108 15.7821L14.5047 16.082L14.4986 16.382C14.7878 16.3879 15.0642 16.345 15.3252 16.251L15.2234 15.9688ZM14.5047 16.082L14.5145 15.7822C14.3083 15.7755 14.1368 15.7356 13.9944 15.6694L13.868 15.9414L13.7415 16.2135C13.9689 16.3191 14.222 16.373 14.4949 16.3819L14.5047 16.082ZM13.868 15.9414L13.9959 15.67C13.8511 15.6018 13.7326 15.5107 13.6365 15.3966L13.407 15.5898L13.1776 15.7831C13.3315 15.9659 13.5202 16.1091 13.74 16.2128L13.868 15.9414ZM13.407 15.5898L13.6401 15.401C13.543 15.2811 13.4677 15.1406 13.4158 14.9761L13.1297 15.0664L12.8436 15.1567C12.9167 15.3881 13.0263 15.5965 13.174 15.7787L13.407 15.5898ZM13.1297 15.0664L13.4161 14.9771C13.364 14.8101 13.3392 14.6292 13.3437 14.4327L13.0438 14.4258L12.7438 14.4189C12.7379 14.6755 12.7703 14.9217 12.8433 15.1557L13.1297 15.0664ZM13.0438 14.4258V14.7258H14.2V14.4258V14.1258H13.0438V14.4258ZM14.2 14.4258L13.9001 14.4343C13.9032 14.5419 13.9154 14.655 13.9355 14.7731L14.2313 14.7227L14.527 14.6722C14.5107 14.5768 14.502 14.492 14.4999 14.4172L14.2 14.4258ZM14.2313 14.7227L13.9357 14.7744C13.9617 14.9229 14.0195 15.0602 14.1134 15.1786L14.3484 14.9922L14.5835 14.8058C14.5576 14.7731 14.5372 14.7308 14.5268 14.6709L14.2313 14.7227ZM14.3484 14.9922L14.1134 15.1786C14.2407 15.3391 14.4222 15.4052 14.6074 15.4093L14.6141 15.1094L14.6207 14.8094C14.5935 14.8088 14.5823 14.8043 14.5809 14.8036C14.5802 14.8033 14.5808 14.8036 14.582 14.8045C14.5833 14.8055 14.5838 14.8061 14.5835 14.8058L14.3484 14.9922ZM14.6141 15.1094L14.6028 15.4092C14.8043 15.4168 14.9956 15.3623 15.1538 15.2305L14.9617 15L14.7697 14.7695C14.7404 14.7939 14.6998 14.8124 14.6254 14.8096L14.6141 15.1094ZM14.9617 15L15.1507 15.233C15.2839 15.125 15.3871 14.9905 15.4601 14.8339L15.1883 14.707L14.9164 14.5802C14.8801 14.6579 14.8323 14.7187 14.7728 14.767L14.9617 15ZM15.1883 14.707L15.4578 14.8388C15.5283 14.6947 15.575 14.5449 15.5951 14.3904L15.2977 14.3516L15.0002 14.3128C14.9891 14.3978 14.9629 14.485 14.9188 14.5753L15.1883 14.707ZM15.2977 14.3516L15.5959 14.384C15.611 14.2451 15.6126 14.1068 15.6004 13.9695L15.3016 13.9961L15.0027 14.0227C15.0114 14.1197 15.0104 14.2185 14.9994 14.3191L15.2977 14.3516ZM15.3016 13.9961L15.6004 13.9695C15.5857 13.8041 15.5322 13.6483 15.4294 13.5156L15.1922 13.6992L14.955 13.8829C14.9772 13.9116 14.9966 13.9537 15.0027 14.0227L15.3016 13.9961ZM15.1922 13.6992L15.4294 13.5156C15.2937 13.3403 15.09 13.2772 14.8957 13.2668L14.8797 13.5664L14.8636 13.866C14.9113 13.8685 14.9377 13.8764 14.9498 13.8816C14.96 13.8859 14.9584 13.8873 14.955 13.8829L15.1922 13.6992ZM14.8797 13.5664L14.8816 13.2664L14.284 13.2625L14.282 13.5625L14.2801 13.8625L14.8777 13.8664L14.8797 13.5664Z" fill="#125A4D" mask="url(#path-10-outside-3_268_285)"/>
<rect x="1" y="81" width="3" height="2" fill="#1DBA96"/>
<rect x="1" y="84" width="3" height="2" fill="#1DBA96"/>
<rect x="1" y="87" width="3" height="2" fill="#1DBA96"/>
<rect x="1" y="47" width="3" height="2" fill="#1DBA96"/>
<rect x="1" y="50" width="3" height="2" fill="#1DBA96"/>
<rect x="1" y="53" width="3" height="2" fill="#1DBA96"/>
<rect x="1" y="56" width="3" height="2" fill="#1DBA96"/>
<rect x="1" y="59" width="3" height="2" fill="#1DBA96"/>
<rect x="1" y="78" width="3" height="2" fill="#1DBA96"/>
<rect x="1" y="75" width="3" height="2" fill="#1DBA96"/>
<rect x="1" y="70" width="3" height="2" fill="#1DBA96"/>
<rect x="1" y="64" width="3" height="2" fill="#1DBA96"/>
<rect x="1" y="67" width="3" height="2" fill="#1DBA96"/>
<rect x="81" y="81" width="3" height="2" fill="#1DBA96"/>
<rect x="81" y="84" width="3" height="2" fill="#1DBA96"/>
<rect x="81" y="87" width="3" height="2" fill="#1DBA96"/>
<rect x="81" y="47" width="3" height="2" fill="#1DBA96"/>
<rect x="81" y="50" width="3" height="2" fill="#1DBA96"/>
<rect x="81" y="53" width="3" height="2" fill="#1DBA96"/>
<rect x="81" y="56" width="3" height="2" fill="#1DBA96"/>
<rect x="81" y="59" width="3" height="2" fill="#1DBA96"/>
<rect x="81" y="78" width="3" height="2" fill="#1DBA96"/>
<rect x="81" y="75" width="3" height="2" fill="#1DBA96"/>
<rect x="81" y="70" width="3" height="2" fill="#1DBA96"/>
<rect x="81" y="64" width="3" height="2" fill="#1DBA96"/>
<rect x="81" y="67" width="3" height="2" fill="#1DBA96"/>
<rect x="30" y="134" width="2" height="2" transform="rotate(90 30 134)" fill="#1DBA96"/>
<rect x="27" y="134" width="2" height="2" transform="rotate(90 27 134)" fill="#1DBA96"/>
<rect x="24" y="134" width="2" height="2" transform="rotate(90 24 134)" fill="#1DBA96"/>
<rect x="64" y="134" width="2" height="2" transform="rotate(90 64 134)" fill="#1DBA96"/>
<rect x="61" y="134" width="2" height="2" transform="rotate(90 61 134)" fill="#1DBA96"/>
<rect x="58" y="134" width="2" height="2" transform="rotate(90 58 134)" fill="#1DBA96"/>
<rect x="55" y="134" width="2" height="2" transform="rotate(90 55 134)" fill="#1DBA96"/>
<rect x="52" y="134" width="2" height="2" transform="rotate(90 52 134)" fill="#1DBA96"/>
<rect x="33" y="134" width="2" height="2" transform="rotate(90 33 134)" fill="#1DBA96"/>
<rect x="36" y="134" width="2" height="2" transform="rotate(90 36 134)" fill="#1DBA96"/>
<rect x="41" y="134" width="2" height="2" transform="rotate(90 41 134)" fill="#1DBA96"/>
<rect x="47" y="134" width="2" height="2" transform="rotate(90 47 134)" fill="#1DBA96"/>
<rect x="44" y="134" width="2" height="2" transform="rotate(90 44 134)" fill="#1DBA96"/>
<rect x="30" y="1" width="2" height="2" transform="rotate(90 30 1)" fill="#1DBA96"/>
<rect x="27" y="1" width="2" height="2" transform="rotate(90 27 1)" fill="#1DBA96"/>
<rect x="24" y="1" width="2" height="2" transform="rotate(90 24 1)" fill="#1DBA96"/>
<rect x="64" y="1" width="2" height="2" transform="rotate(90 64 1)" fill="#1DBA96"/>
<rect x="61" y="1" width="2" height="2" transform="rotate(90 61 1)" fill="#1DBA96"/>
<rect x="58" y="1" width="2" height="2" transform="rotate(90 58 1)" fill="#1DBA96"/>
<rect x="55" y="1" width="2" height="2" transform="rotate(90 55 1)" fill="#1DBA96"/>
<rect x="52" y="1" width="2" height="2" transform="rotate(90 52 1)" fill="#1DBA96"/>
<rect x="33" y="1" width="2" height="2" transform="rotate(90 33 1)" fill="#1DBA96"/>
<rect x="36" y="1" width="2" height="2" transform="rotate(90 36 1)" fill="#1DBA96"/>
<rect x="41" y="1" width="2" height="2" transform="rotate(90 41 1)" fill="#1DBA96"/>
<rect x="47" y="1" width="2" height="2" transform="rotate(90 47 1)" fill="#1DBA96"/>
<rect x="44" y="1" width="2" height="2" transform="rotate(90 44 1)" fill="#1DBA96"/>
<defs>
<filter id="filter0_d_268_285" x="9.5" y="24.5" width="65" height="100" filterUnits="userSpaceOnUse" color-interpolation-filters="sRGB">
<feFlood flood-opacity="0" result="BackgroundImageFix"/>
<feColorMatrix in="SourceAlpha" type="matrix" values="0 0 0 0 0 0 0 0 0 0 0 0 0 0 0 0 0 0 127 0" result="hardAlpha"/>
<feOffset dy="4"/>
<feGaussianBlur stdDeviation="2"/>
<feComposite in2="hardAlpha" operator="out"/>
<feColorMatrix type="matrix" values="0 0 0 0 0 0 0 0 0 0 0 0 0 0 0 0 0 0 0.25 0"/>
<feBlend mode="normal" in2="BackgroundImageFix" result="effect1_dropShadow_268_285"/>
<feBlend mode="normal" in="SourceGraphic" in2="effect1_dropShadow_268_285" result="shape"/>
</filter>
<filter id="filter1_d_268_285" x="18.218" y="53.1523" width="48.6812" height="39.2383" filterUnits="userSpaceOnUse" color-interpolation-filters="sRGB">
<feFlood flood-opacity="0" result="BackgroundImageFix"/>
<feColorMatrix in="SourceAlpha" type="matrix" values="0 0 0 0 0 0 0 0 0 0 0 0 0 0 0 0 0 0 127 0" result="hardAlpha"/>
<feOffset dy="4"/>
<feGaussianBlur stdDeviation="2"/>
<feComposite in2="hardAlpha" operator="out"/>
<feColorMatrix type="matrix" values="0 0 0 0 0 0 0 0 0 0 0 0 0 0 0 0 0 0 0.25 0"/>
<feBlend mode="normal" in2="BackgroundImageFix" result="effect1_dropShadow_268_285"/>
<feBlend mode="normal" in="SourceGraphic" in2="effect1_dropShadow_268_285" result="shape"/>
</filter>
<linearGradient id="paint0_linear_268_285" x1="42.5" y1="3" x2="42.5" y2="134" gradientUnits="userSpaceOnUse">
<stop stop-color="#1DBA96" stop-opacity="0.95"/>
<stop offset="1" stop-color="#0D5444"/>
</linearGradient>
<linearGradient id="paint1_linear_268_285" x1="70.596" y1="112.867" x2="68.1694" y2="130.133" gradientUnits="userSpaceOnUse">
<stop stop-color="#DBFFEB" stop-opacity="0.9"/>
<stop offset="1" stop-color="#47E08C"/>
</linearGradient>
<linearGradient id="paint2_linear_268_285" x1="59.5" y1="36.5" x2="21" y2="99.5" gradientUnits="userSpaceOnUse">
<stop stop-color="#94FFC4" stop-opacity="0.9"/>
<stop offset="1" stop-color="#448762"/>
</linearGradient>
<linearGradient id="paint3_linear_268_285" x1="14.596" y1="4.86706" x2="12.1694" y2="22.1329" gradientUnits="userSpaceOnUse">
<stop stop-color="#DBFFEB" stop-opacity="0.9"/>
<stop offset="1" stop-color="#47E08C"/>
</linearGradient>
</defs>
</svg>
