<svg width="80" height="140" viewBox="0 0 80 140" fill="none" xmlns="http://www.w3.org/2000/svg">
<rect width="80" height="140" rx="10" fill="#72E55A"/>
<rect x="0.5" y="-0.5" width="64" height="55" rx="2.5" transform="matrix(1 0 0 -1 7 131)" fill="white" stroke="#694E4E"/>
<path d="M22.0348 83.9701H20.4406V82.9646H22.0348C22.2811 82.9646 22.4816 82.9245 22.6363 82.8443C22.791 82.7613 22.9042 82.6467 22.9758 82.5006C23.0474 82.3545 23.0832 82.1898 23.0832 82.0064C23.0832 81.8202 23.0474 81.6469 22.9758 81.4865C22.9042 81.3261 22.791 81.1972 22.6363 81.0998C22.4816 81.0024 22.2811 80.9537 22.0348 80.9537H20.8875V86.2002H19.5984V79.9439H22.0348C22.5246 79.9439 22.9443 80.0327 23.2937 80.2104C23.6461 80.3851 23.9154 80.6271 24.1016 80.9365C24.2878 81.2459 24.3809 81.5997 24.3809 81.9979C24.3809 82.4018 24.2878 82.7512 24.1016 83.0463C23.9154 83.3413 23.6461 83.5691 23.2937 83.7295C22.9443 83.8899 22.5246 83.9701 22.0348 83.9701ZM26.4992 79.6002V86.2002H25.2574V79.6002H26.4992ZM30.2719 85.0873V81.551H31.5094V86.2002H30.3449L30.2719 85.0873ZM30.4094 84.1334L30.7746 84.1248C30.7746 84.4342 30.7388 84.7221 30.6672 84.9885C30.5956 85.252 30.4881 85.4812 30.3449 85.676C30.2017 85.8679 30.0212 86.0183 29.8035 86.1271C29.5858 86.2331 29.3294 86.2861 29.0344 86.2861C28.8081 86.2861 28.599 86.2546 28.407 86.1916C28.218 86.1257 28.0547 86.024 27.9172 85.8865C27.7825 85.7462 27.6766 85.5671 27.5992 85.3494C27.5247 85.1288 27.4875 84.8639 27.4875 84.5545V81.551H28.725V84.5631C28.725 84.7006 28.7408 84.8166 28.7723 84.9111C28.8066 85.0057 28.8539 85.083 28.9141 85.1432C28.9742 85.2033 29.0444 85.2463 29.1246 85.2721C29.2077 85.2979 29.2993 85.3107 29.3996 85.3107C29.6546 85.3107 29.8551 85.2592 30.0012 85.1561C30.1501 85.0529 30.2547 84.9126 30.3148 84.735C30.3779 84.5545 30.4094 84.354 30.4094 84.1334ZM34.9684 84.9154C34.9684 84.8266 34.9426 84.7464 34.891 84.6748C34.8395 84.6032 34.7435 84.5373 34.6031 84.4771C34.4656 84.4141 34.2665 84.3568 34.0059 84.3053C33.771 84.2537 33.5518 84.1893 33.3484 84.1119C33.1479 84.0317 32.9732 83.9357 32.8242 83.824C32.6781 83.7123 32.5635 83.5805 32.4805 83.4287C32.3974 83.274 32.3559 83.0979 32.3559 82.9002C32.3559 82.7054 32.3974 82.5221 32.4805 82.3502C32.5664 82.1783 32.6881 82.0265 32.8457 81.8947C33.0061 81.7601 33.2009 81.6555 33.4301 81.5811C33.6621 81.5037 33.9228 81.465 34.2121 81.465C34.616 81.465 34.9626 81.5295 35.252 81.6584C35.5441 81.7873 35.7676 81.9649 35.9223 82.1912C36.0798 82.4146 36.1586 82.6696 36.1586 82.9561H34.9211C34.9211 82.8357 34.8953 82.7283 34.8437 82.6338C34.7951 82.5364 34.7177 82.4605 34.6117 82.4061C34.5086 82.3488 34.374 82.3201 34.2078 82.3201C34.0703 82.3201 33.9514 82.3445 33.8512 82.3932C33.7509 82.439 33.6736 82.502 33.6191 82.5822C33.5676 82.6596 33.5418 82.7455 33.5418 82.84C33.5418 82.9117 33.5561 82.9761 33.5848 83.0334C33.6163 83.0878 33.6664 83.138 33.7352 83.1838C33.8039 83.2296 33.8927 83.2726 34.0016 83.3127C34.1133 83.3499 34.2508 83.3843 34.4141 83.4158C34.7492 83.4846 35.0486 83.5748 35.3121 83.6865C35.5756 83.7954 35.7848 83.9443 35.9395 84.1334C36.0941 84.3196 36.1715 84.5645 36.1715 84.8682C36.1715 85.0744 36.1256 85.2635 36.034 85.4354C35.9423 85.6072 35.8105 85.7576 35.6387 85.8865C35.4668 86.0126 35.2605 86.1114 35.0199 86.183C34.7822 86.2518 34.5143 86.2861 34.2164 86.2861C33.7839 86.2861 33.4172 86.2088 33.1164 86.0541C32.8185 85.8994 32.5922 85.7032 32.4375 85.4654C32.2857 85.2248 32.2098 84.9785 32.2098 84.7264H33.3828C33.3885 84.8954 33.4315 85.0314 33.5117 85.1346C33.5948 85.2377 33.6993 85.3122 33.8254 85.358C33.9543 85.4038 34.0932 85.4268 34.2422 85.4268C34.4026 85.4268 34.5358 85.4053 34.6418 85.3623C34.7478 85.3165 34.828 85.2563 34.8824 85.1818C34.9397 85.1045 34.9684 85.0157 34.9684 84.9154ZM41.4996 84.8939L42.9734 79.9439H44.4086L42.2301 86.2002H41.2848L41.4996 84.8939ZM40.1418 79.9439L41.6113 84.8939L41.8348 86.2002H40.8809L38.7152 79.9439H40.1418ZM47.2273 85.1518V83.0807C47.2273 82.9317 47.203 82.8042 47.1543 82.6982C47.1056 82.5894 47.0297 82.5049 46.9266 82.4447C46.8263 82.3846 46.696 82.3545 46.5355 82.3545C46.398 82.3545 46.2792 82.3788 46.1789 82.4275C46.0786 82.4734 46.0013 82.5407 45.9469 82.6295C45.8924 82.7154 45.8652 82.8171 45.8652 82.9346H44.6277C44.6277 82.7369 44.6736 82.5493 44.7652 82.3717C44.8569 82.1941 44.9901 82.038 45.1648 81.9033C45.3396 81.7658 45.5473 81.6584 45.7879 81.5811C46.0314 81.5037 46.3035 81.465 46.6043 81.465C46.9652 81.465 47.2861 81.5252 47.5668 81.6455C47.8475 81.7658 48.0681 81.9463 48.2285 82.1869C48.3918 82.4275 48.4734 82.7283 48.4734 83.0893V85.0787C48.4734 85.3337 48.4892 85.5428 48.5207 85.7061C48.5522 85.8665 48.598 86.0068 48.6582 86.1271V86.2002H47.4078C47.3477 86.0742 47.3018 85.9166 47.2703 85.7275C47.2417 85.5356 47.2273 85.3437 47.2273 85.1518ZM47.3906 83.3686L47.3992 84.0689H46.7074C46.5441 84.0689 46.4023 84.0876 46.282 84.1248C46.1617 84.162 46.0629 84.215 45.9855 84.2838C45.9082 84.3497 45.8509 84.427 45.8137 84.5158C45.7793 84.6046 45.7621 84.702 45.7621 84.808C45.7621 84.914 45.7865 85.01 45.8352 85.0959C45.8839 85.179 45.954 85.2449 46.0457 85.2936C46.1374 85.3394 46.2448 85.3623 46.368 85.3623C46.5542 85.3623 46.716 85.3251 46.8535 85.2506C46.991 85.1761 47.097 85.0844 47.1715 84.9756C47.2488 84.8667 47.2889 84.7636 47.2918 84.6662L47.6184 85.1904C47.5725 85.3079 47.5095 85.4296 47.4293 85.5557C47.352 85.6817 47.2531 85.8006 47.1328 85.9123C47.0125 86.0212 46.8678 86.1114 46.6988 86.183C46.5298 86.2518 46.3293 86.2861 46.0973 86.2861C45.8022 86.2861 45.5344 86.2274 45.2937 86.11C45.056 85.9896 44.8669 85.8249 44.7266 85.6158C44.5891 85.4038 44.5203 85.1632 44.5203 84.8939C44.5203 84.6505 44.5661 84.4342 44.6578 84.2451C44.7495 84.0561 44.8841 83.8971 45.0617 83.7682C45.2422 83.6364 45.4671 83.5376 45.7363 83.4717C46.0056 83.4029 46.3178 83.3686 46.673 83.3686H47.3906ZM50.7336 79.6002V86.2002H49.4918V79.6002H50.7336ZM54.5063 85.0873V81.551H55.7438V86.2002H54.5793L54.5063 85.0873ZM54.6438 84.1334L55.009 84.1248C55.009 84.4342 54.9732 84.7221 54.9016 84.9885C54.8299 85.252 54.7225 85.4812 54.5793 85.676C54.4361 85.8679 54.2556 86.0183 54.0379 86.1271C53.8202 86.2331 53.5638 86.2861 53.2688 86.2861C53.0424 86.2861 52.8333 86.2546 52.6414 86.1916C52.4523 86.1257 52.2891 86.024 52.1516 85.8865C52.0169 85.7462 51.9109 85.5671 51.8336 85.3494C51.7591 85.1288 51.7219 84.8639 51.7219 84.5545V81.551H52.9594V84.5631C52.9594 84.7006 52.9751 84.8166 53.0066 84.9111C53.041 85.0057 53.0883 85.083 53.1484 85.1432C53.2086 85.2033 53.2788 85.2463 53.359 85.2721C53.4421 85.2979 53.5337 85.3107 53.634 85.3107C53.8889 85.3107 54.0895 85.2592 54.2355 85.1561C54.3845 85.0529 54.4891 84.9126 54.5492 84.735C54.6122 84.5545 54.6438 84.354 54.6438 84.1334ZM58.8289 86.2861C58.468 86.2861 58.1443 86.2288 57.8578 86.1143C57.5714 85.9968 57.3279 85.835 57.1273 85.6287C56.9297 85.4225 56.7779 85.1833 56.6719 84.9111C56.5659 84.6361 56.5129 84.3439 56.5129 84.0346V83.8627C56.5129 83.5104 56.563 83.1881 56.6633 82.8959C56.7635 82.6037 56.9068 82.3502 57.093 82.1354C57.282 81.9205 57.5112 81.7558 57.7805 81.6412C58.0497 81.5238 58.3534 81.465 58.6914 81.465C59.0208 81.465 59.313 81.5195 59.568 81.6283C59.8229 81.7372 60.0363 81.8919 60.2082 82.0924C60.3829 82.2929 60.5147 82.5335 60.6035 82.8143C60.6923 83.0921 60.7367 83.4015 60.7367 83.7424V84.258H57.0414V83.433H59.5207V83.3385C59.5207 83.1666 59.4892 83.0133 59.4262 82.8787C59.366 82.7412 59.2743 82.6324 59.1512 82.5521C59.028 82.4719 58.8704 82.4318 58.6785 82.4318C58.5152 82.4318 58.3749 82.4676 58.2574 82.5393C58.14 82.6109 58.044 82.7111 57.9695 82.84C57.8979 82.9689 57.8435 83.1208 57.8062 83.2955C57.7719 83.4674 57.7547 83.6564 57.7547 83.8627V84.0346C57.7547 84.2208 57.7805 84.3926 57.832 84.5502C57.8865 84.7077 57.9624 84.8438 58.0598 84.9584C58.16 85.073 58.2803 85.1618 58.4207 85.2248C58.5639 85.2878 58.7258 85.3193 58.9062 85.3193C59.1297 85.3193 59.3374 85.2764 59.5293 85.1904C59.7241 85.1016 59.8917 84.9684 60.032 84.7908L60.6336 85.4439C60.5362 85.5843 60.403 85.7189 60.234 85.8479C60.0678 85.9768 59.8673 86.0827 59.6324 86.1658C59.3975 86.246 59.1297 86.2861 58.8289 86.2861Z" fill="black"/>
<path d="M15.7461 94.3345L16.8535 96.4761L17.9639 94.3345H18.6055L17.1348 97.0063V98.6001H16.5693V97.0063L15.0986 94.3345H15.7461ZM18.7344 97.0503V96.9829C18.7344 96.7544 18.7676 96.5425 18.834 96.3472C18.9004 96.1499 18.9961 95.979 19.1211 95.8345C19.2461 95.688 19.3975 95.5747 19.5752 95.4946C19.7529 95.4126 19.9521 95.3716 20.1729 95.3716C20.3955 95.3716 20.5957 95.4126 20.7734 95.4946C20.9531 95.5747 21.1055 95.688 21.2305 95.8345C21.3574 95.979 21.4541 96.1499 21.5205 96.3472C21.5869 96.5425 21.6201 96.7544 21.6201 96.9829V97.0503C21.6201 97.2788 21.5869 97.4907 21.5205 97.686C21.4541 97.8813 21.3574 98.0522 21.2305 98.1987C21.1055 98.3433 20.9541 98.4565 20.7764 98.5386C20.6006 98.6187 20.4014 98.6587 20.1787 98.6587C19.9561 98.6587 19.7559 98.6187 19.5781 98.5386C19.4004 98.4565 19.248 98.3433 19.1211 98.1987C18.9961 98.0522 18.9004 97.8813 18.834 97.686C18.7676 97.4907 18.7344 97.2788 18.7344 97.0503ZM19.2764 96.9829V97.0503C19.2764 97.2085 19.2949 97.3579 19.332 97.4985C19.3691 97.6372 19.4248 97.7603 19.499 97.8677C19.5752 97.9751 19.6699 98.0601 19.7832 98.1226C19.8965 98.1831 20.0283 98.2134 20.1787 98.2134C20.3271 98.2134 20.457 98.1831 20.5684 98.1226C20.6816 98.0601 20.7754 97.9751 20.8496 97.8677C20.9238 97.7603 20.9795 97.6372 21.0166 97.4985C21.0557 97.3579 21.0752 97.2085 21.0752 97.0503V96.9829C21.0752 96.8267 21.0557 96.6792 21.0166 96.5405C20.9795 96.3999 20.9229 96.2759 20.8467 96.1685C20.7725 96.0591 20.6787 95.9731 20.5654 95.9106C20.4541 95.8481 20.3232 95.8169 20.1729 95.8169C20.0244 95.8169 19.8936 95.8481 19.7803 95.9106C19.6689 95.9731 19.5752 96.0591 19.499 96.1685C19.4248 96.2759 19.3691 96.3999 19.332 96.5405C19.2949 96.6792 19.2764 96.8267 19.2764 96.9829ZM24.2393 97.8677V95.4302H24.7842V98.6001H24.2656L24.2393 97.8677ZM24.3418 97.1997L24.5674 97.1938C24.5674 97.4048 24.5449 97.6001 24.5 97.7798C24.457 97.9575 24.3867 98.1118 24.2891 98.2427C24.1914 98.3735 24.0635 98.4761 23.9053 98.5503C23.7471 98.6226 23.5547 98.6587 23.3281 98.6587C23.1738 98.6587 23.0322 98.6362 22.9033 98.5913C22.7764 98.5464 22.667 98.4771 22.5752 98.3833C22.4834 98.2896 22.4121 98.1675 22.3613 98.0171C22.3125 97.8667 22.2881 97.686 22.2881 97.4751V95.4302H22.8301V97.481C22.8301 97.6235 22.8457 97.7417 22.877 97.8354C22.9102 97.9272 22.9541 98.0005 23.0088 98.0552C23.0654 98.1079 23.1279 98.145 23.1963 98.1665C23.2666 98.188 23.3389 98.1987 23.4131 98.1987C23.6436 98.1987 23.8262 98.1548 23.9609 98.0669C24.0957 97.9771 24.1924 97.8569 24.251 97.7065C24.3115 97.5542 24.3418 97.3853 24.3418 97.1997ZM26.1523 95.9282V98.6001H25.6104V95.4302H26.1377L26.1523 95.9282ZM27.1426 95.4126L27.1396 95.9165C27.0947 95.9067 27.0518 95.9009 27.0107 95.8989C26.9717 95.895 26.9268 95.8931 26.876 95.8931C26.751 95.8931 26.6406 95.9126 26.5449 95.9517C26.4492 95.9907 26.3682 96.0454 26.3018 96.1157C26.2354 96.186 26.1826 96.27 26.1436 96.3677C26.1064 96.4634 26.082 96.5688 26.0703 96.6841L25.918 96.772C25.918 96.5806 25.9365 96.4009 25.9736 96.2329C26.0127 96.0649 26.0723 95.9165 26.1523 95.7876C26.2324 95.6567 26.334 95.5552 26.457 95.4829C26.582 95.4087 26.7305 95.3716 26.9023 95.3716C26.9414 95.3716 26.9863 95.3765 27.0371 95.3862C27.0879 95.394 27.123 95.4028 27.1426 95.4126ZM30.4004 98.2134C30.5293 98.2134 30.6484 98.187 30.7578 98.1343C30.8672 98.0815 30.957 98.0093 31.0273 97.9175C31.0977 97.8237 31.1377 97.7173 31.1475 97.5981H31.6631C31.6533 97.7856 31.5898 97.9604 31.4727 98.1226C31.3574 98.2827 31.2061 98.4126 31.0186 98.5122C30.8311 98.6099 30.625 98.6587 30.4004 98.6587C30.1621 98.6587 29.9541 98.6167 29.7764 98.5327C29.6006 98.4487 29.4541 98.3335 29.3369 98.187C29.2217 98.0405 29.1348 97.8726 29.0762 97.6831C29.0195 97.4917 28.9912 97.2896 28.9912 97.0767V96.9536C28.9912 96.7407 29.0195 96.5396 29.0762 96.3501C29.1348 96.1587 29.2217 95.9897 29.3369 95.8433C29.4541 95.6968 29.6006 95.5815 29.7764 95.4976C29.9541 95.4136 30.1621 95.3716 30.4004 95.3716C30.6484 95.3716 30.8652 95.4224 31.0508 95.5239C31.2363 95.6235 31.3818 95.7603 31.4873 95.9341C31.5947 96.106 31.6533 96.3013 31.6631 96.52H31.1475C31.1377 96.3892 31.1006 96.271 31.0361 96.1655C30.9736 96.0601 30.8877 95.9761 30.7783 95.9136C30.6709 95.8491 30.5449 95.8169 30.4004 95.8169C30.2344 95.8169 30.0947 95.8501 29.9814 95.9165C29.8701 95.981 29.7812 96.0688 29.7148 96.1802C29.6504 96.2896 29.6035 96.4116 29.5742 96.5464C29.5469 96.6792 29.5332 96.8149 29.5332 96.9536V97.0767C29.5332 97.2153 29.5469 97.3521 29.5742 97.4868C29.6016 97.6216 29.6475 97.7437 29.7119 97.853C29.7783 97.9624 29.8672 98.0503 29.9785 98.1167C30.0918 98.1812 30.2324 98.2134 30.4004 98.2134ZM34.2119 97.8677V95.4302H34.7568V98.6001H34.2383L34.2119 97.8677ZM34.3145 97.1997L34.54 97.1938C34.54 97.4048 34.5176 97.6001 34.4727 97.7798C34.4297 97.9575 34.3594 98.1118 34.2617 98.2427C34.1641 98.3735 34.0361 98.4761 33.8779 98.5503C33.7197 98.6226 33.5273 98.6587 33.3008 98.6587C33.1465 98.6587 33.0049 98.6362 32.876 98.5913C32.749 98.5464 32.6396 98.4771 32.5479 98.3833C32.4561 98.2896 32.3848 98.1675 32.334 98.0171C32.2852 97.8667 32.2607 97.686 32.2607 97.4751V95.4302H32.8027V97.481C32.8027 97.6235 32.8184 97.7417 32.8496 97.8354C32.8828 97.9272 32.9268 98.0005 32.9814 98.0552C33.0381 98.1079 33.1006 98.145 33.1689 98.1665C33.2393 98.188 33.3115 98.1987 33.3857 98.1987C33.6162 98.1987 33.7988 98.1548 33.9336 98.0669C34.0684 97.9771 34.165 97.8569 34.2236 97.7065C34.2842 97.5542 34.3145 97.3853 34.3145 97.1997ZM36.125 95.9282V98.6001H35.583V95.4302H36.1104L36.125 95.9282ZM37.1152 95.4126L37.1123 95.9165C37.0674 95.9067 37.0244 95.9009 36.9834 95.8989C36.9443 95.895 36.8994 95.8931 36.8486 95.8931C36.7236 95.8931 36.6133 95.9126 36.5176 95.9517C36.4219 95.9907 36.3408 96.0454 36.2744 96.1157C36.208 96.186 36.1553 96.27 36.1162 96.3677C36.0791 96.4634 36.0547 96.5688 36.043 96.6841L35.8906 96.772C35.8906 96.5806 35.9092 96.4009 35.9463 96.2329C35.9854 96.0649 36.0449 95.9165 36.125 95.7876C36.2051 95.6567 36.3066 95.5552 36.4297 95.4829C36.5547 95.4087 36.7031 95.3716 36.875 95.3716C36.9141 95.3716 36.959 95.3765 37.0098 95.3862C37.0605 95.394 37.0957 95.4028 37.1152 95.4126ZM38.1582 95.9282V98.6001H37.6162V95.4302H38.1436L38.1582 95.9282ZM39.1484 95.4126L39.1455 95.9165C39.1006 95.9067 39.0576 95.9009 39.0166 95.8989C38.9775 95.895 38.9326 95.8931 38.8818 95.8931C38.7568 95.8931 38.6465 95.9126 38.5508 95.9517C38.4551 95.9907 38.374 96.0454 38.3076 96.1157C38.2412 96.186 38.1885 96.27 38.1494 96.3677C38.1123 96.4634 38.0879 96.5688 38.0762 96.6841L37.9238 96.772C37.9238 96.5806 37.9424 96.4009 37.9795 96.2329C38.0186 96.0649 38.0781 95.9165 38.1582 95.7876C38.2383 95.6567 38.3398 95.5552 38.4629 95.4829C38.5879 95.4087 38.7363 95.3716 38.9082 95.3716C38.9473 95.3716 38.9922 95.3765 39.043 95.3862C39.0938 95.394 39.1289 95.4028 39.1484 95.4126ZM40.9062 98.6587C40.6855 98.6587 40.4854 98.6216 40.3057 98.5474C40.1279 98.4712 39.9746 98.3647 39.8457 98.228C39.7188 98.0913 39.6211 97.9292 39.5527 97.7417C39.4844 97.5542 39.4502 97.3491 39.4502 97.1265V97.0034C39.4502 96.7456 39.4883 96.5161 39.5645 96.3149C39.6406 96.1118 39.7441 95.9399 39.875 95.7993C40.0059 95.6587 40.1543 95.5522 40.3203 95.48C40.4863 95.4077 40.6582 95.3716 40.8359 95.3716C41.0625 95.3716 41.2578 95.4106 41.4219 95.4888C41.5879 95.5669 41.7236 95.6763 41.8291 95.8169C41.9346 95.9556 42.0127 96.1196 42.0635 96.3091C42.1143 96.4966 42.1396 96.7017 42.1396 96.9243V97.1675H39.7725V96.7251H41.5977V96.6841C41.5898 96.5435 41.5605 96.4067 41.5098 96.2739C41.4609 96.1411 41.3828 96.0317 41.2754 95.9458C41.168 95.8599 41.0215 95.8169 40.8359 95.8169C40.7129 95.8169 40.5996 95.8433 40.4961 95.896C40.3926 95.9468 40.3037 96.0229 40.2295 96.1245C40.1553 96.2261 40.0977 96.3501 40.0566 96.4966C40.0156 96.6431 39.9951 96.812 39.9951 97.0034V97.1265C39.9951 97.2769 40.0156 97.4185 40.0566 97.5513C40.0996 97.6821 40.1611 97.7974 40.2412 97.897C40.3232 97.9966 40.4219 98.0747 40.5371 98.1313C40.6543 98.188 40.7871 98.2163 40.9355 98.2163C41.127 98.2163 41.2891 98.1772 41.4219 98.0991C41.5547 98.021 41.6709 97.9165 41.7705 97.7856L42.0986 98.0464C42.0303 98.1499 41.9434 98.2485 41.8379 98.3423C41.7324 98.436 41.6025 98.5122 41.4482 98.5708C41.2959 98.6294 41.1152 98.6587 40.9062 98.6587ZM43.3145 96.1069V98.6001H42.7725V95.4302H43.2852L43.3145 96.1069ZM43.1855 96.895L42.96 96.8862C42.9619 96.6694 42.9941 96.4692 43.0566 96.2856C43.1191 96.1001 43.207 95.939 43.3203 95.8022C43.4336 95.6655 43.5684 95.5601 43.7246 95.4858C43.8828 95.4097 44.0576 95.3716 44.249 95.3716C44.4053 95.3716 44.5459 95.3931 44.6709 95.436C44.7959 95.4771 44.9023 95.5435 44.9902 95.6353C45.0801 95.7271 45.1484 95.8462 45.1953 95.9927C45.2422 96.1372 45.2656 96.314 45.2656 96.5229V98.6001H44.7207V96.5171C44.7207 96.3511 44.6963 96.2183 44.6475 96.1187C44.5986 96.0171 44.5273 95.9438 44.4336 95.8989C44.3398 95.8521 44.2246 95.8286 44.0879 95.8286C43.9531 95.8286 43.8301 95.8569 43.7188 95.9136C43.6094 95.9702 43.5146 96.0483 43.4346 96.1479C43.3564 96.2476 43.2949 96.3618 43.25 96.4907C43.207 96.6177 43.1855 96.7524 43.1855 96.895ZM47.416 95.4302V95.8462H45.7021V95.4302H47.416ZM46.2822 94.6597H46.8242V97.8149C46.8242 97.9224 46.8408 98.0034 46.874 98.0581C46.9072 98.1128 46.9502 98.1489 47.0029 98.1665C47.0557 98.1841 47.1123 98.1929 47.1729 98.1929C47.2178 98.1929 47.2646 98.189 47.3135 98.1812C47.3643 98.1714 47.4023 98.1636 47.4277 98.1577L47.4307 98.6001C47.3877 98.6138 47.3311 98.6265 47.2607 98.6382C47.1924 98.6519 47.1094 98.6587 47.0117 98.6587C46.8789 98.6587 46.7568 98.6323 46.6455 98.5796C46.5342 98.5269 46.4453 98.439 46.3789 98.3159C46.3145 98.1909 46.2822 98.0229 46.2822 97.812V94.6597ZM51.3857 97.7593C51.3857 97.6812 51.3682 97.6089 51.333 97.5425C51.2998 97.4741 51.2305 97.4126 51.125 97.3579C51.0215 97.3013 50.8652 97.2524 50.6562 97.2114C50.4805 97.1743 50.3213 97.1304 50.1787 97.0796C50.0381 97.0288 49.918 96.9673 49.8184 96.895C49.7207 96.8228 49.6455 96.7378 49.5928 96.6401C49.54 96.5425 49.5137 96.4282 49.5137 96.2974C49.5137 96.1724 49.541 96.0542 49.5957 95.9429C49.6523 95.8315 49.7314 95.7329 49.833 95.647C49.9365 95.561 50.0605 95.4937 50.2051 95.4448C50.3496 95.396 50.5107 95.3716 50.6885 95.3716C50.9424 95.3716 51.1592 95.4165 51.3389 95.5063C51.5186 95.5962 51.6562 95.7163 51.752 95.8667C51.8477 96.0151 51.8955 96.1802 51.8955 96.3618H51.3535C51.3535 96.2739 51.3271 96.189 51.2744 96.1069C51.2236 96.0229 51.1484 95.9536 51.0488 95.8989C50.9512 95.8442 50.8311 95.8169 50.6885 95.8169C50.5381 95.8169 50.416 95.8403 50.3223 95.8872C50.2305 95.9321 50.1631 95.9897 50.1201 96.0601C50.0791 96.1304 50.0586 96.2046 50.0586 96.2827C50.0586 96.3413 50.0684 96.394 50.0879 96.4409C50.1094 96.4858 50.1465 96.5278 50.1992 96.5669C50.252 96.604 50.3262 96.6392 50.4219 96.6724C50.5176 96.7056 50.6396 96.7388 50.7881 96.772C51.0479 96.8306 51.2617 96.9009 51.4297 96.9829C51.5977 97.0649 51.7227 97.1655 51.8047 97.2847C51.8867 97.4038 51.9277 97.5483 51.9277 97.7183C51.9277 97.8569 51.8984 97.9839 51.8398 98.0991C51.7832 98.2144 51.7002 98.314 51.5908 98.3979C51.4834 98.48 51.3545 98.5444 51.2041 98.5913C51.0557 98.6362 50.8887 98.6587 50.7031 98.6587C50.4238 98.6587 50.1875 98.6089 49.9941 98.5093C49.8008 98.4097 49.6543 98.2808 49.5547 98.1226C49.4551 97.9644 49.4053 97.7974 49.4053 97.6216H49.9502C49.958 97.77 50.001 97.8882 50.0791 97.9761C50.1572 98.062 50.2529 98.1235 50.3662 98.1606C50.4795 98.1958 50.5918 98.2134 50.7031 98.2134C50.8516 98.2134 50.9756 98.1938 51.0752 98.1548C51.1768 98.1157 51.2539 98.062 51.3066 97.9937C51.3594 97.9253 51.3857 97.8472 51.3857 97.7593ZM53.9082 98.2134C54.0371 98.2134 54.1562 98.187 54.2656 98.1343C54.375 98.0815 54.4648 98.0093 54.5352 97.9175C54.6055 97.8237 54.6455 97.7173 54.6553 97.5981H55.1709C55.1611 97.7856 55.0977 97.9604 54.9805 98.1226C54.8652 98.2827 54.7139 98.4126 54.5264 98.5122C54.3389 98.6099 54.1328 98.6587 53.9082 98.6587C53.6699 98.6587 53.4619 98.6167 53.2842 98.5327C53.1084 98.4487 52.9619 98.3335 52.8447 98.187C52.7295 98.0405 52.6426 97.8726 52.584 97.6831C52.5273 97.4917 52.499 97.2896 52.499 97.0767V96.9536C52.499 96.7407 52.5273 96.5396 52.584 96.3501C52.6426 96.1587 52.7295 95.9897 52.8447 95.8433C52.9619 95.6968 53.1084 95.5815 53.2842 95.4976C53.4619 95.4136 53.6699 95.3716 53.9082 95.3716C54.1562 95.3716 54.373 95.4224 54.5586 95.5239C54.7441 95.6235 54.8896 95.7603 54.9951 95.9341C55.1025 96.106 55.1611 96.3013 55.1709 96.52H54.6553C54.6455 96.3892 54.6084 96.271 54.5439 96.1655C54.4814 96.0601 54.3955 95.9761 54.2861 95.9136C54.1787 95.8491 54.0527 95.8169 53.9082 95.8169C53.7422 95.8169 53.6025 95.8501 53.4893 95.9165C53.3779 95.981 53.2891 96.0688 53.2227 96.1802C53.1582 96.2896 53.1113 96.4116 53.082 96.5464C53.0547 96.6792 53.041 96.8149 53.041 96.9536V97.0767C53.041 97.2153 53.0547 97.3521 53.082 97.4868C53.1094 97.6216 53.1553 97.7437 53.2197 97.853C53.2861 97.9624 53.375 98.0503 53.4863 98.1167C53.5996 98.1812 53.7402 98.2134 53.9082 98.2134ZM55.6367 97.0503V96.9829C55.6367 96.7544 55.6699 96.5425 55.7363 96.3472C55.8027 96.1499 55.8984 95.979 56.0234 95.8345C56.1484 95.688 56.2998 95.5747 56.4775 95.4946C56.6553 95.4126 56.8545 95.3716 57.0752 95.3716C57.2979 95.3716 57.498 95.4126 57.6758 95.4946C57.8555 95.5747 58.0078 95.688 58.1328 95.8345C58.2598 95.979 58.3564 96.1499 58.4229 96.3472C58.4893 96.5425 58.5225 96.7544 58.5225 96.9829V97.0503C58.5225 97.2788 58.4893 97.4907 58.4229 97.686C58.3564 97.8813 58.2598 98.0522 58.1328 98.1987C58.0078 98.3433 57.8564 98.4565 57.6787 98.5386C57.5029 98.6187 57.3037 98.6587 57.0811 98.6587C56.8584 98.6587 56.6582 98.6187 56.4805 98.5386C56.3027 98.4565 56.1504 98.3433 56.0234 98.1987C55.8984 98.0522 55.8027 97.8813 55.7363 97.686C55.6699 97.4907 55.6367 97.2788 55.6367 97.0503ZM56.1787 96.9829V97.0503C56.1787 97.2085 56.1973 97.3579 56.2344 97.4985C56.2715 97.6372 56.3271 97.7603 56.4014 97.8677C56.4775 97.9751 56.5723 98.0601 56.6855 98.1226C56.7988 98.1831 56.9307 98.2134 57.0811 98.2134C57.2295 98.2134 57.3594 98.1831 57.4707 98.1226C57.584 98.0601 57.6777 97.9751 57.752 97.8677C57.8262 97.7603 57.8818 97.6372 57.9189 97.4985C57.958 97.3579 57.9775 97.2085 57.9775 97.0503V96.9829C57.9775 96.8267 57.958 96.6792 57.9189 96.5405C57.8818 96.3999 57.8252 96.2759 57.749 96.1685C57.6748 96.0591 57.5811 95.9731 57.4678 95.9106C57.3564 95.8481 57.2256 95.8169 57.0752 95.8169C56.9268 95.8169 56.7959 95.8481 56.6826 95.9106C56.5713 95.9731 56.4775 96.0591 56.4014 96.1685C56.3271 96.2759 56.2715 96.3999 56.2344 96.5405C56.1973 96.6792 56.1787 96.8267 56.1787 96.9829ZM59.7441 95.9282V98.6001H59.2021V95.4302H59.7295L59.7441 95.9282ZM60.7344 95.4126L60.7314 95.9165C60.6865 95.9067 60.6436 95.9009 60.6025 95.8989C60.5635 95.895 60.5186 95.8931 60.4678 95.8931C60.3428 95.8931 60.2324 95.9126 60.1367 95.9517C60.041 95.9907 59.96 96.0454 59.8936 96.1157C59.8271 96.186 59.7744 96.27 59.7354 96.3677C59.6982 96.4634 59.6738 96.5688 59.6621 96.6841L59.5098 96.772C59.5098 96.5806 59.5283 96.4009 59.5654 96.2329C59.6045 96.0649 59.6641 95.9165 59.7441 95.7876C59.8242 95.6567 59.9258 95.5552 60.0488 95.4829C60.1738 95.4087 60.3223 95.3716 60.4941 95.3716C60.5332 95.3716 60.5781 95.3765 60.6289 95.3862C60.6797 95.394 60.7148 95.4028 60.7344 95.4126ZM62.4922 98.6587C62.2715 98.6587 62.0713 98.6216 61.8916 98.5474C61.7139 98.4712 61.5605 98.3647 61.4316 98.228C61.3047 98.0913 61.207 97.9292 61.1387 97.7417C61.0703 97.5542 61.0361 97.3491 61.0361 97.1265V97.0034C61.0361 96.7456 61.0742 96.5161 61.1504 96.3149C61.2266 96.1118 61.3301 95.9399 61.4609 95.7993C61.5918 95.6587 61.7402 95.5522 61.9062 95.48C62.0723 95.4077 62.2441 95.3716 62.4219 95.3716C62.6484 95.3716 62.8438 95.4106 63.0078 95.4888C63.1738 95.5669 63.3096 95.6763 63.415 95.8169C63.5205 95.9556 63.5986 96.1196 63.6494 96.3091C63.7002 96.4966 63.7256 96.7017 63.7256 96.9243V97.1675H61.3584V96.7251H63.1836V96.6841C63.1758 96.5435 63.1465 96.4067 63.0957 96.2739C63.0469 96.1411 62.9688 96.0317 62.8613 95.9458C62.7539 95.8599 62.6074 95.8169 62.4219 95.8169C62.2988 95.8169 62.1855 95.8433 62.082 95.896C61.9785 95.9468 61.8896 96.0229 61.8154 96.1245C61.7412 96.2261 61.6836 96.3501 61.6426 96.4966C61.6016 96.6431 61.5811 96.812 61.5811 97.0034V97.1265C61.5811 97.2769 61.6016 97.4185 61.6426 97.5513C61.6855 97.6821 61.7471 97.7974 61.8271 97.897C61.9092 97.9966 62.0078 98.0747 62.123 98.1313C62.2402 98.188 62.373 98.2163 62.5215 98.2163C62.7129 98.2163 62.875 98.1772 63.0078 98.0991C63.1406 98.021 63.2568 97.9165 63.3564 97.7856L63.6846 98.0464C63.6162 98.1499 63.5293 98.2485 63.4238 98.3423C63.3184 98.436 63.1885 98.5122 63.0342 98.5708C62.8818 98.6294 62.7012 98.6587 62.4922 98.6587ZM14.9023 101.43H15.3945V104.533C15.3945 104.812 15.3379 105.05 15.2246 105.248C15.1113 105.445 14.9531 105.594 14.75 105.696C14.5488 105.799 14.3164 105.851 14.0527 105.851C13.9434 105.851 13.8145 105.833 13.666 105.798C13.5195 105.765 13.375 105.708 13.2324 105.625C13.0918 105.545 12.9736 105.437 12.8779 105.3L13.1621 104.978C13.2949 105.138 13.4336 105.25 13.5781 105.312C13.7246 105.375 13.8691 105.406 14.0117 105.406C14.1836 105.406 14.332 105.374 14.457 105.309C14.582 105.245 14.6787 105.149 14.7471 105.022C14.8174 104.897 14.8525 104.743 14.8525 104.559V102.127L14.9023 101.43ZM12.7197 103.05V102.989C12.7197 102.747 12.748 102.527 12.8047 102.33C12.8633 102.13 12.9463 101.959 13.0537 101.817C13.1631 101.674 13.2949 101.565 13.4492 101.489C13.6035 101.411 13.7773 101.372 13.9707 101.372C14.1699 101.372 14.3438 101.407 14.4922 101.477C14.6426 101.545 14.7695 101.646 14.873 101.779C14.9785 101.91 15.0615 102.068 15.1221 102.253C15.1826 102.439 15.2246 102.649 15.248 102.883V103.153C15.2266 103.385 15.1846 103.594 15.1221 103.78C15.0615 103.965 14.9785 104.124 14.873 104.254C14.7695 104.385 14.6426 104.486 14.4922 104.556C14.3418 104.625 14.166 104.659 13.9648 104.659C13.7754 104.659 13.6035 104.619 13.4492 104.539C13.2969 104.458 13.166 104.346 13.0566 104.202C12.9473 104.057 12.8633 103.887 12.8047 103.692C12.748 103.495 12.7197 103.281 12.7197 103.05ZM13.2617 102.989V103.05C13.2617 103.208 13.2773 103.357 13.3086 103.496C13.3418 103.634 13.3916 103.756 13.458 103.862C13.5264 103.967 13.6133 104.05 13.7188 104.111C13.8242 104.169 13.9502 104.199 14.0967 104.199C14.2764 104.199 14.4248 104.161 14.542 104.084C14.6592 104.008 14.752 103.908 14.8203 103.783C14.8906 103.658 14.9453 103.522 14.9844 103.375V102.669C14.9629 102.562 14.9297 102.458 14.8848 102.359C14.8418 102.257 14.7852 102.167 14.7148 102.089C14.6465 102.009 14.5615 101.946 14.46 101.899C14.3584 101.852 14.2393 101.829 14.1025 101.829C13.9541 101.829 13.8262 101.86 13.7188 101.922C13.6133 101.983 13.5264 102.067 13.458 102.174C13.3916 102.28 13.3418 102.403 13.3086 102.543C13.2773 102.682 13.2617 102.831 13.2617 102.989ZM17.5332 104.659C17.3125 104.659 17.1123 104.622 16.9326 104.547C16.7549 104.471 16.6016 104.365 16.4727 104.228C16.3457 104.091 16.248 103.929 16.1797 103.742C16.1113 103.554 16.0771 103.349 16.0771 103.126V103.003C16.0771 102.746 16.1152 102.516 16.1914 102.315C16.2676 102.112 16.3711 101.94 16.502 101.799C16.6328 101.659 16.7812 101.552 16.9473 101.48C17.1133 101.408 17.2852 101.372 17.4629 101.372C17.6895 101.372 17.8848 101.411 18.0488 101.489C18.2148 101.567 18.3506 101.676 18.4561 101.817C18.5615 101.956 18.6396 102.12 18.6904 102.309C18.7412 102.497 18.7666 102.702 18.7666 102.924V103.167H16.3994V102.725H18.2246V102.684C18.2168 102.543 18.1875 102.407 18.1367 102.274C18.0879 102.141 18.0098 102.032 17.9023 101.946C17.7949 101.86 17.6484 101.817 17.4629 101.817C17.3398 101.817 17.2266 101.843 17.123 101.896C17.0195 101.947 16.9307 102.023 16.8564 102.125C16.7822 102.226 16.7246 102.35 16.6836 102.497C16.6426 102.643 16.6221 102.812 16.6221 103.003V103.126C16.6221 103.277 16.6426 103.418 16.6836 103.551C16.7266 103.682 16.7881 103.797 16.8682 103.897C16.9502 103.997 17.0488 104.075 17.1641 104.131C17.2812 104.188 17.4141 104.216 17.5625 104.216C17.7539 104.216 17.916 104.177 18.0488 104.099C18.1816 104.021 18.2979 103.917 18.3975 103.786L18.7256 104.046C18.6572 104.15 18.5703 104.249 18.4648 104.342C18.3594 104.436 18.2295 104.512 18.0752 104.571C17.9229 104.629 17.7422 104.659 17.5332 104.659ZM20.7266 101.43V101.846H19.0127V101.43H20.7266ZM19.5928 100.66H20.1348V103.815C20.1348 103.922 20.1514 104.003 20.1846 104.058C20.2178 104.113 20.2607 104.149 20.3135 104.167C20.3662 104.184 20.4229 104.193 20.4834 104.193C20.5283 104.193 20.5752 104.189 20.624 104.181C20.6748 104.171 20.7129 104.164 20.7383 104.158L20.7412 104.6C20.6982 104.614 20.6416 104.626 20.5713 104.638C20.5029 104.652 20.4199 104.659 20.3223 104.659C20.1895 104.659 20.0674 104.632 19.9561 104.58C19.8447 104.527 19.7559 104.439 19.6895 104.316C19.625 104.191 19.5928 104.023 19.5928 103.812V100.66ZM23.208 103.759C23.208 103.681 23.1904 103.609 23.1553 103.542C23.1221 103.474 23.0527 103.413 22.9473 103.358C22.8438 103.301 22.6875 103.252 22.4785 103.211C22.3027 103.174 22.1436 103.13 22.001 103.08C21.8604 103.029 21.7402 102.967 21.6406 102.895C21.543 102.823 21.4678 102.738 21.415 102.64C21.3623 102.542 21.3359 102.428 21.3359 102.297C21.3359 102.172 21.3633 102.054 21.418 101.943C21.4746 101.832 21.5537 101.733 21.6553 101.647C21.7588 101.561 21.8828 101.494 22.0273 101.445C22.1719 101.396 22.333 101.372 22.5107 101.372C22.7646 101.372 22.9814 101.417 23.1611 101.506C23.3408 101.596 23.4785 101.716 23.5742 101.867C23.6699 102.015 23.7178 102.18 23.7178 102.362H23.1758C23.1758 102.274 23.1494 102.189 23.0967 102.107C23.0459 102.023 22.9707 101.954 22.8711 101.899C22.7734 101.844 22.6533 101.817 22.5107 101.817C22.3604 101.817 22.2383 101.84 22.1445 101.887C22.0527 101.932 21.9854 101.99 21.9424 102.06C21.9014 102.13 21.8809 102.205 21.8809 102.283C21.8809 102.341 21.8906 102.394 21.9102 102.441C21.9316 102.486 21.9688 102.528 22.0215 102.567C22.0742 102.604 22.1484 102.639 22.2441 102.672C22.3398 102.706 22.4619 102.739 22.6104 102.772C22.8701 102.831 23.084 102.901 23.252 102.983C23.4199 103.065 23.5449 103.166 23.627 103.285C23.709 103.404 23.75 103.548 23.75 103.718C23.75 103.857 23.7207 103.984 23.6621 104.099C23.6055 104.214 23.5225 104.314 23.4131 104.398C23.3057 104.48 23.1768 104.544 23.0264 104.591C22.8779 104.636 22.7109 104.659 22.5254 104.659C22.2461 104.659 22.0098 104.609 21.8164 104.509C21.623 104.41 21.4766 104.281 21.377 104.123C21.2773 103.964 21.2275 103.797 21.2275 103.622H21.7725C21.7803 103.77 21.8232 103.888 21.9014 103.976C21.9795 104.062 22.0752 104.124 22.1885 104.161C22.3018 104.196 22.4141 104.213 22.5254 104.213C22.6738 104.213 22.7979 104.194 22.8975 104.155C22.999 104.116 23.0762 104.062 23.1289 103.994C23.1816 103.925 23.208 103.847 23.208 103.759ZM26.5391 101.43V104.6H25.9941V101.43H26.5391ZM25.9531 100.589C25.9531 100.501 25.9795 100.427 26.0322 100.367C26.0869 100.306 26.167 100.276 26.2725 100.276C26.376 100.276 26.4551 100.306 26.5098 100.367C26.5664 100.427 26.5947 100.501 26.5947 100.589C26.5947 100.673 26.5664 100.746 26.5098 100.806C26.4551 100.865 26.376 100.894 26.2725 100.894C26.167 100.894 26.0869 100.865 26.0322 100.806C25.9795 100.746 25.9531 100.673 25.9531 100.589ZM27.9512 102.107V104.6H27.4092V101.43H27.9219L27.9512 102.107ZM27.8223 102.895L27.5967 102.886C27.5986 102.669 27.6309 102.469 27.6934 102.286C27.7559 102.1 27.8438 101.939 27.957 101.802C28.0703 101.666 28.2051 101.56 28.3613 101.486C28.5195 101.41 28.6943 101.372 28.8857 101.372C29.042 101.372 29.1826 101.393 29.3076 101.436C29.4326 101.477 29.5391 101.543 29.627 101.635C29.7168 101.727 29.7852 101.846 29.832 101.993C29.8789 102.137 29.9023 102.314 29.9023 102.523V104.6H29.3574V102.517C29.3574 102.351 29.333 102.218 29.2842 102.119C29.2354 102.017 29.1641 101.944 29.0703 101.899C28.9766 101.852 28.8613 101.829 28.7246 101.829C28.5898 101.829 28.4668 101.857 28.3555 101.914C28.2461 101.97 28.1514 102.048 28.0713 102.148C27.9932 102.248 27.9316 102.362 27.8867 102.491C27.8438 102.618 27.8223 102.752 27.8223 102.895ZM31.9941 104.213C32.123 104.213 32.2422 104.187 32.3516 104.134C32.4609 104.082 32.5508 104.009 32.6211 103.917C32.6914 103.824 32.7314 103.717 32.7412 103.598H33.2568C33.2471 103.786 33.1836 103.96 33.0664 104.123C32.9512 104.283 32.7998 104.413 32.6123 104.512C32.4248 104.61 32.2188 104.659 31.9941 104.659C31.7559 104.659 31.5479 104.617 31.3701 104.533C31.1943 104.449 31.0479 104.333 30.9307 104.187C30.8154 104.041 30.7285 103.873 30.6699 103.683C30.6133 103.492 30.585 103.29 30.585 103.077V102.954C30.585 102.741 30.6133 102.54 30.6699 102.35C30.7285 102.159 30.8154 101.99 30.9307 101.843C31.0479 101.697 31.1943 101.582 31.3701 101.498C31.5479 101.414 31.7559 101.372 31.9941 101.372C32.2422 101.372 32.459 101.422 32.6445 101.524C32.8301 101.624 32.9756 101.76 33.0811 101.934C33.1885 102.106 33.2471 102.301 33.2568 102.52H32.7412C32.7314 102.389 32.6943 102.271 32.6299 102.166C32.5674 102.06 32.4814 101.976 32.3721 101.914C32.2646 101.849 32.1387 101.817 31.9941 101.817C31.8281 101.817 31.6885 101.85 31.5752 101.917C31.4639 101.981 31.375 102.069 31.3086 102.18C31.2441 102.29 31.1973 102.412 31.168 102.546C31.1406 102.679 31.127 102.815 31.127 102.954V103.077C31.127 103.215 31.1406 103.352 31.168 103.487C31.1953 103.622 31.2412 103.744 31.3057 103.853C31.3721 103.962 31.4609 104.05 31.5723 104.117C31.6855 104.181 31.8262 104.213 31.9941 104.213ZM34.4082 101.928V104.6H33.8662V101.43H34.3936L34.4082 101.928ZM35.3984 101.413L35.3955 101.917C35.3506 101.907 35.3076 101.901 35.2666 101.899C35.2275 101.895 35.1826 101.893 35.1318 101.893C35.0068 101.893 34.8965 101.913 34.8008 101.952C34.7051 101.991 34.624 102.045 34.5576 102.116C34.4912 102.186 34.4385 102.27 34.3994 102.368C34.3623 102.463 34.3379 102.569 34.3262 102.684L34.1738 102.772C34.1738 102.581 34.1924 102.401 34.2295 102.233C34.2686 102.065 34.3281 101.917 34.4082 101.788C34.4883 101.657 34.5898 101.555 34.7129 101.483C34.8379 101.409 34.9863 101.372 35.1582 101.372C35.1973 101.372 35.2422 101.376 35.293 101.386C35.3438 101.394 35.3789 101.403 35.3984 101.413ZM37.1562 104.659C36.9355 104.659 36.7354 104.622 36.5557 104.547C36.3779 104.471 36.2246 104.365 36.0957 104.228C35.9688 104.091 35.8711 103.929 35.8027 103.742C35.7344 103.554 35.7002 103.349 35.7002 103.126V103.003C35.7002 102.746 35.7383 102.516 35.8145 102.315C35.8906 102.112 35.9941 101.94 36.125 101.799C36.2559 101.659 36.4043 101.552 36.5703 101.48C36.7363 101.408 36.9082 101.372 37.0859 101.372C37.3125 101.372 37.5078 101.411 37.6719 101.489C37.8379 101.567 37.9736 101.676 38.0791 101.817C38.1846 101.956 38.2627 102.12 38.3135 102.309C38.3643 102.497 38.3896 102.702 38.3896 102.924V103.167H36.0225V102.725H37.8477V102.684C37.8398 102.543 37.8105 102.407 37.7598 102.274C37.7109 102.141 37.6328 102.032 37.5254 101.946C37.418 101.86 37.2715 101.817 37.0859 101.817C36.9629 101.817 36.8496 101.843 36.7461 101.896C36.6426 101.947 36.5537 102.023 36.4795 102.125C36.4053 102.226 36.3477 102.35 36.3066 102.497C36.2656 102.643 36.2451 102.812 36.2451 103.003V103.126C36.2451 103.277 36.2656 103.418 36.3066 103.551C36.3496 103.682 36.4111 103.797 36.4912 103.897C36.5732 103.997 36.6719 104.075 36.7871 104.131C36.9043 104.188 37.0371 104.216 37.1855 104.216C37.377 104.216 37.5391 104.177 37.6719 104.099C37.8047 104.021 37.9209 103.917 38.0205 103.786L38.3486 104.046C38.2803 104.15 38.1934 104.249 38.0879 104.342C37.9824 104.436 37.8525 104.512 37.6982 104.571C37.5459 104.629 37.3652 104.659 37.1562 104.659ZM39.5615 102.06V104.6H39.0166V101.43H39.5322L39.5615 102.06ZM39.4502 102.895L39.1982 102.886C39.2002 102.669 39.2285 102.469 39.2832 102.286C39.3379 102.1 39.4189 101.939 39.5264 101.802C39.6338 101.666 39.7676 101.56 39.9277 101.486C40.0879 101.41 40.2734 101.372 40.4844 101.372C40.6328 101.372 40.7695 101.393 40.8945 101.436C41.0195 101.477 41.1279 101.542 41.2197 101.632C41.3115 101.722 41.3828 101.837 41.4336 101.978C41.4844 102.119 41.5098 102.289 41.5098 102.488V104.6H40.9678V102.514C40.9678 102.348 40.9395 102.215 40.8828 102.116C40.8281 102.016 40.75 101.944 40.6484 101.899C40.5469 101.852 40.4277 101.829 40.291 101.829C40.1309 101.829 39.9971 101.857 39.8896 101.914C39.7822 101.97 39.6963 102.048 39.6318 102.148C39.5674 102.248 39.5205 102.362 39.4912 102.491C39.4639 102.618 39.4502 102.752 39.4502 102.895ZM41.5039 102.596L41.1406 102.708C41.1426 102.534 41.1709 102.367 41.2256 102.207C41.2822 102.046 41.3633 101.904 41.4688 101.779C41.5762 101.654 41.708 101.555 41.8643 101.483C42.0205 101.409 42.1992 101.372 42.4004 101.372C42.5703 101.372 42.7207 101.394 42.8516 101.439C42.9844 101.484 43.0957 101.553 43.1855 101.647C43.2773 101.739 43.3467 101.857 43.3936 102.001C43.4404 102.146 43.4639 102.318 43.4639 102.517V104.6H42.9189V102.511C42.9189 102.333 42.8906 102.196 42.834 102.098C42.7793 101.999 42.7012 101.929 42.5996 101.89C42.5 101.849 42.3809 101.829 42.2422 101.829C42.123 101.829 42.0176 101.849 41.9258 101.89C41.834 101.931 41.7568 101.988 41.6943 102.06C41.6318 102.13 41.584 102.211 41.5508 102.303C41.5195 102.395 41.5039 102.493 41.5039 102.596ZM45.5996 104.659C45.3789 104.659 45.1787 104.622 44.999 104.547C44.8213 104.471 44.668 104.365 44.5391 104.228C44.4121 104.091 44.3145 103.929 44.2461 103.742C44.1777 103.554 44.1436 103.349 44.1436 103.126V103.003C44.1436 102.746 44.1816 102.516 44.2578 102.315C44.334 102.112 44.4375 101.94 44.5684 101.799C44.6992 101.659 44.8477 101.552 45.0137 101.48C45.1797 101.408 45.3516 101.372 45.5293 101.372C45.7559 101.372 45.9512 101.411 46.1152 101.489C46.2812 101.567 46.417 101.676 46.5225 101.817C46.6279 101.956 46.7061 102.12 46.7568 102.309C46.8076 102.497 46.833 102.702 46.833 102.924V103.167H44.4658V102.725H46.291V102.684C46.2832 102.543 46.2539 102.407 46.2031 102.274C46.1543 102.141 46.0762 102.032 45.9688 101.946C45.8613 101.86 45.7148 101.817 45.5293 101.817C45.4062 101.817 45.293 101.843 45.1895 101.896C45.0859 101.947 44.9971 102.023 44.9229 102.125C44.8486 102.226 44.791 102.35 44.75 102.497C44.709 102.643 44.6885 102.812 44.6885 103.003V103.126C44.6885 103.277 44.709 103.418 44.75 103.551C44.793 103.682 44.8545 103.797 44.9346 103.897C45.0166 103.997 45.1152 104.075 45.2305 104.131C45.3477 104.188 45.4805 104.216 45.6289 104.216C45.8203 104.216 45.9824 104.177 46.1152 104.099C46.248 104.021 46.3643 103.917 46.4639 103.786L46.792 104.046C46.7236 104.15 46.6367 104.249 46.5312 104.342C46.4258 104.436 46.2959 104.512 46.1416 104.571C45.9893 104.629 45.8086 104.659 45.5996 104.659ZM48.0078 102.107V104.6H47.4658V101.43H47.9785L48.0078 102.107ZM47.8789 102.895L47.6533 102.886C47.6553 102.669 47.6875 102.469 47.75 102.286C47.8125 102.1 47.9004 101.939 48.0137 101.802C48.127 101.666 48.2617 101.56 48.418 101.486C48.5762 101.41 48.751 101.372 48.9424 101.372C49.0986 101.372 49.2393 101.393 49.3643 101.436C49.4893 101.477 49.5957 101.543 49.6836 101.635C49.7734 101.727 49.8418 101.846 49.8887 101.993C49.9355 102.137 49.959 102.314 49.959 102.523V104.6H49.4141V102.517C49.4141 102.351 49.3896 102.218 49.3408 102.119C49.292 102.017 49.2207 101.944 49.127 101.899C49.0332 101.852 48.918 101.829 48.7812 101.829C48.6465 101.829 48.5234 101.857 48.4121 101.914C48.3027 101.97 48.208 102.048 48.1279 102.148C48.0498 102.248 47.9883 102.362 47.9434 102.491C47.9004 102.618 47.8789 102.752 47.8789 102.895ZM52.1094 101.43V101.846H50.3955V101.43H52.1094ZM50.9756 100.66H51.5176V103.815C51.5176 103.922 51.5342 104.003 51.5674 104.058C51.6006 104.113 51.6436 104.149 51.6963 104.167C51.749 104.184 51.8057 104.193 51.8662 104.193C51.9111 104.193 51.958 104.189 52.0068 104.181C52.0576 104.171 52.0957 104.164 52.1211 104.158L52.124 104.6C52.0811 104.614 52.0244 104.626 51.9541 104.638C51.8857 104.652 51.8027 104.659 51.7051 104.659C51.5723 104.659 51.4502 104.632 51.3389 104.58C51.2275 104.527 51.1387 104.439 51.0723 104.316C51.0078 104.191 50.9756 104.023 50.9756 103.812V100.66ZM54.0605 104.659C53.8398 104.659 53.6396 104.622 53.46 104.547C53.2822 104.471 53.1289 104.365 53 104.228C52.873 104.091 52.7754 103.929 52.707 103.742C52.6387 103.554 52.6045 103.349 52.6045 103.126V103.003C52.6045 102.746 52.6426 102.516 52.7188 102.315C52.7949 102.112 52.8984 101.94 53.0293 101.799C53.1602 101.659 53.3086 101.552 53.4746 101.48C53.6406 101.408 53.8125 101.372 53.9902 101.372C54.2168 101.372 54.4121 101.411 54.5762 101.489C54.7422 101.567 54.8779 101.676 54.9834 101.817C55.0889 101.956 55.167 102.12 55.2178 102.309C55.2686 102.497 55.2939 102.702 55.2939 102.924V103.167H52.9268V102.725H54.752V102.684C54.7441 102.543 54.7148 102.407 54.6641 102.274C54.6152 102.141 54.5371 102.032 54.4297 101.946C54.3223 101.86 54.1758 101.817 53.9902 101.817C53.8672 101.817 53.7539 101.843 53.6504 101.896C53.5469 101.947 53.458 102.023 53.3838 102.125C53.3096 102.226 53.252 102.35 53.2109 102.497C53.1699 102.643 53.1494 102.812 53.1494 103.003V103.126C53.1494 103.277 53.1699 103.418 53.2109 103.551C53.2539 103.682 53.3154 103.797 53.3955 103.897C53.4775 103.997 53.5762 104.075 53.6914 104.131C53.8086 104.188 53.9414 104.216 54.0898 104.216C54.2812 104.216 54.4434 104.177 54.5762 104.099C54.709 104.021 54.8252 103.917 54.9248 103.786L55.2529 104.046C55.1846 104.15 55.0977 104.249 54.9922 104.342C54.8867 104.436 54.7568 104.512 54.6025 104.571C54.4502 104.629 54.2695 104.659 54.0605 104.659ZM57.9248 103.985V100.1H58.4697V104.6H57.9717L57.9248 103.985ZM55.792 103.05V102.989C55.792 102.747 55.8213 102.527 55.8799 102.33C55.9404 102.13 56.0254 101.959 56.1348 101.817C56.2461 101.674 56.3779 101.565 56.5303 101.489C56.6846 101.411 56.8564 101.372 57.0459 101.372C57.2451 101.372 57.4189 101.407 57.5674 101.477C57.7178 101.545 57.8447 101.646 57.9482 101.779C58.0537 101.91 58.1367 102.068 58.1973 102.253C58.2578 102.439 58.2998 102.649 58.3232 102.883V103.153C58.3018 103.385 58.2598 103.594 58.1973 103.78C58.1367 103.965 58.0537 104.124 57.9482 104.254C57.8447 104.385 57.7178 104.486 57.5674 104.556C57.417 104.625 57.2412 104.659 57.04 104.659C56.8545 104.659 56.6846 104.619 56.5303 104.539C56.3779 104.458 56.2461 104.346 56.1348 104.202C56.0254 104.057 55.9404 103.887 55.8799 103.692C55.8213 103.495 55.792 103.281 55.792 103.05ZM56.3369 102.989V103.05C56.3369 103.208 56.3525 103.357 56.3838 103.496C56.417 103.634 56.4678 103.756 56.5361 103.862C56.6045 103.967 56.6914 104.05 56.7969 104.111C56.9023 104.169 57.0283 104.199 57.1748 104.199C57.3545 104.199 57.502 104.161 57.6172 104.084C57.7344 104.008 57.8281 103.908 57.8984 103.783C57.9688 103.658 58.0234 103.522 58.0625 103.375V102.669C58.0391 102.562 58.0049 102.458 57.96 102.359C57.917 102.257 57.8604 102.167 57.79 102.089C57.7217 102.009 57.6367 101.946 57.5352 101.899C57.4355 101.852 57.3174 101.829 57.1807 101.829C57.0322 101.829 56.9043 101.86 56.7969 101.922C56.6914 101.983 56.6045 102.067 56.5361 102.174C56.4678 102.28 56.417 102.403 56.3838 102.543C56.3525 102.682 56.3369 102.831 56.3369 102.989ZM60.7988 100.1H61.3438V103.985L61.2969 104.6H60.7988V100.1ZM63.4854 102.989V103.05C63.4854 103.281 63.458 103.495 63.4033 103.692C63.3486 103.887 63.2686 104.057 63.1631 104.202C63.0576 104.346 62.9287 104.458 62.7764 104.539C62.624 104.619 62.4492 104.659 62.252 104.659C62.0508 104.659 61.874 104.625 61.7217 104.556C61.5713 104.486 61.4443 104.385 61.3408 104.254C61.2373 104.124 61.1543 103.965 61.0918 103.78C61.0312 103.594 60.9893 103.385 60.9658 103.153V102.883C60.9893 102.649 61.0312 102.439 61.0918 102.253C61.1543 102.068 61.2373 101.91 61.3408 101.779C61.4443 101.646 61.5713 101.545 61.7217 101.477C61.8721 101.407 62.0469 101.372 62.2461 101.372C62.4453 101.372 62.6221 101.411 62.7764 101.489C62.9307 101.565 63.0596 101.674 63.1631 101.817C63.2686 101.959 63.3486 102.13 63.4033 102.33C63.458 102.527 63.4854 102.747 63.4854 102.989ZM62.9404 103.05V102.989C62.9404 102.831 62.9258 102.682 62.8965 102.543C62.8672 102.403 62.8203 102.28 62.7559 102.174C62.6914 102.067 62.6064 101.983 62.501 101.922C62.3955 101.86 62.2656 101.829 62.1113 101.829C61.9746 101.829 61.8555 101.852 61.7539 101.899C61.6543 101.946 61.5693 102.009 61.499 102.089C61.4287 102.167 61.3711 102.257 61.3262 102.359C61.2832 102.458 61.251 102.562 61.2295 102.669V103.375C61.2607 103.512 61.3115 103.644 61.3818 103.771C61.4541 103.896 61.5498 103.999 61.6689 104.079C61.79 104.159 61.9395 104.199 62.1172 104.199C62.2637 104.199 62.3887 104.169 62.4922 104.111C62.5977 104.05 62.6826 103.967 62.7471 103.862C62.8135 103.756 62.8623 103.634 62.8936 103.496C62.9248 103.357 62.9404 103.208 62.9404 103.05ZM65.0264 104.272L65.9082 101.43H66.4883L65.2168 105.089C65.1875 105.167 65.1484 105.251 65.0996 105.341C65.0527 105.433 64.9922 105.52 64.918 105.602C64.8438 105.684 64.7539 105.75 64.6484 105.801C64.5449 105.854 64.4209 105.88 64.2764 105.88C64.2334 105.88 64.1787 105.875 64.1123 105.863C64.0459 105.851 63.999 105.841 63.9717 105.833L63.9688 105.394C63.9844 105.396 64.0088 105.398 64.042 105.4C64.0771 105.404 64.1016 105.406 64.1152 105.406C64.2383 105.406 64.3428 105.389 64.4287 105.356C64.5146 105.325 64.5869 105.271 64.6455 105.195C64.7061 105.121 64.7578 105.018 64.8008 104.887L65.0264 104.272ZM64.3789 101.43L65.2021 103.891L65.3428 104.462L64.9531 104.662L63.7871 101.43H64.3789ZM39.1719 108.224V108.959H36.248V108.224H39.1719ZM38.1113 107.067V110.172H37.3115V107.067H38.1113ZM42.5791 109.431C42.5791 109.699 42.5166 109.924 42.3916 110.108C42.2666 110.29 42.0947 110.427 41.876 110.521C41.6592 110.613 41.4131 110.659 41.1377 110.659C40.8623 110.659 40.6152 110.613 40.3965 110.521C40.1777 110.427 40.0049 110.29 39.8779 110.108C39.751 109.924 39.6875 109.699 39.6875 109.431C39.6875 109.251 39.7236 109.089 39.7959 108.945C39.8682 108.798 39.9688 108.673 40.0977 108.57C40.2285 108.464 40.3818 108.384 40.5576 108.33C40.7334 108.273 40.9248 108.245 41.1318 108.245C41.4092 108.245 41.6572 108.293 41.876 108.391C42.0947 108.489 42.2666 108.626 42.3916 108.804C42.5166 108.982 42.5791 109.191 42.5791 109.431ZM41.7295 109.375C41.7295 109.245 41.7041 109.132 41.6533 109.039C41.6045 108.943 41.5352 108.87 41.4453 108.819C41.3555 108.768 41.251 108.743 41.1318 108.743C41.0127 108.743 40.9082 108.768 40.8184 108.819C40.7285 108.87 40.6582 108.943 40.6074 109.039C40.5586 109.132 40.5342 109.245 40.5342 109.375C40.5342 109.504 40.5586 109.616 40.6074 109.709C40.6582 109.803 40.7285 109.875 40.8184 109.926C40.9102 109.975 41.0166 110 41.1377 110C41.2588 110 41.3633 109.975 41.4512 109.926C41.541 109.875 41.6094 109.803 41.6562 109.709C41.7051 109.616 41.7295 109.504 41.7295 109.375ZM42.4883 107.465C42.4883 107.682 42.4307 107.875 42.3154 108.042C42.2002 108.208 42.04 108.338 41.835 108.432C41.6318 108.526 41.3994 108.573 41.1377 108.573C40.874 108.573 40.6396 108.526 40.4346 108.432C40.2295 108.338 40.0693 108.208 39.9541 108.042C39.8389 107.875 39.7812 107.682 39.7812 107.465C39.7812 107.208 39.8389 106.991 39.9541 106.815C40.0713 106.637 40.2314 106.502 40.4346 106.411C40.6396 106.319 40.8721 106.273 41.1318 106.273C41.3955 106.273 41.6289 106.319 41.832 106.411C42.0371 106.502 42.1973 106.637 42.3125 106.815C42.4297 106.991 42.4883 107.208 42.4883 107.465ZM41.6445 107.503C41.6445 107.388 41.624 107.289 41.583 107.205C41.542 107.119 41.4834 107.052 41.4072 107.005C41.333 106.958 41.2412 106.935 41.1318 106.935C41.0264 106.935 40.9355 106.958 40.8594 107.002C40.7852 107.047 40.7275 107.113 40.6865 107.199C40.6475 107.283 40.6279 107.384 40.6279 107.503C40.6279 107.619 40.6475 107.72 40.6865 107.808C40.7275 107.894 40.7861 107.961 40.8623 108.01C40.9385 108.059 41.0303 108.083 41.1377 108.083C41.2451 108.083 41.3359 108.059 41.4102 108.01C41.4863 107.961 41.5439 107.894 41.583 107.808C41.624 107.72 41.6445 107.619 41.6445 107.503Z" fill="black"/>
<g filter="url(#filter0_d_335_445)">
<circle cx="40" cy="33" r="25" fill="white"/>
<circle cx="40" cy="33" r="24.25" stroke="#694E4E" stroke-width="1.5"/>
</g>
<mask id="path-7-outside-1_335_445" maskUnits="userSpaceOnUse" x="25" y="22" width="29" height="21" fill="black">
<rect fill="white" x="25" y="22" width="29" height="21"/>
<path d="M38.0875 31.4961V34.4375H26.3922V31.4961H38.0875ZM33.8453 26.8672V39.2891H30.6461V26.8672H33.8453ZM52.9164 36.3242C52.9164 37.3945 52.6664 38.2969 52.1664 39.0312C51.6664 39.7578 50.9789 40.3086 50.1039 40.6836C49.2367 41.0508 48.2523 41.2344 47.1508 41.2344C46.0492 41.2344 45.0609 41.0508 44.1859 40.6836C43.3109 40.3086 42.6195 39.7578 42.1117 39.0312C41.6039 38.2969 41.35 37.3945 41.35 36.3242C41.35 35.6055 41.4945 34.957 41.7836 34.3789C42.0727 33.793 42.475 33.293 42.9906 32.8789C43.5141 32.457 44.1273 32.1367 44.8305 31.918C45.5336 31.6914 46.2992 31.5781 47.1273 31.5781C48.2367 31.5781 49.2289 31.7734 50.1039 32.1641C50.9789 32.5547 51.6664 33.1055 52.1664 33.8164C52.6664 34.5273 52.9164 35.3633 52.9164 36.3242ZM49.518 36.1016C49.518 35.5781 49.4164 35.1289 49.2133 34.7539C49.018 34.3711 48.7406 34.0781 48.3812 33.875C48.0219 33.6719 47.6039 33.5703 47.1273 33.5703C46.6508 33.5703 46.2328 33.6719 45.8734 33.875C45.5141 34.0781 45.2328 34.3711 45.0297 34.7539C44.8344 35.1289 44.7367 35.5781 44.7367 36.1016C44.7367 36.6172 44.8344 37.0625 45.0297 37.4375C45.2328 37.8125 45.5141 38.1016 45.8734 38.3047C46.2406 38.5 46.6664 38.5977 47.1508 38.5977C47.6352 38.5977 48.0531 38.5 48.4047 38.3047C48.7641 38.1016 49.0375 37.8125 49.225 37.4375C49.4203 37.0625 49.518 36.6172 49.518 36.1016ZM52.5531 28.4609C52.5531 29.3281 52.3227 30.0977 51.8617 30.7695C51.4008 31.4336 50.7602 31.9531 49.9398 32.3281C49.1273 32.7031 48.1977 32.8906 47.1508 32.8906C46.0961 32.8906 45.1586 32.7031 44.3383 32.3281C43.518 31.9531 42.8773 31.4336 42.4164 30.7695C41.9555 30.0977 41.725 29.3281 41.725 28.4609C41.725 27.4297 41.9555 26.5625 42.4164 25.8594C42.8852 25.1484 43.5258 24.6094 44.3383 24.2422C45.1586 23.875 46.0883 23.6914 47.1273 23.6914C48.182 23.6914 49.1156 23.875 49.9281 24.2422C50.7484 24.6094 51.3891 25.1484 51.85 25.8594C52.3187 26.5625 52.5531 27.4297 52.5531 28.4609ZM49.1781 28.6133C49.1781 28.1523 49.0961 27.7539 48.932 27.418C48.768 27.0742 48.5336 26.8086 48.2289 26.6211C47.932 26.4336 47.5648 26.3398 47.1273 26.3398C46.7055 26.3398 46.3422 26.4297 46.0375 26.6094C45.7406 26.7891 45.5102 27.0508 45.3461 27.3945C45.1898 27.7305 45.1117 28.1367 45.1117 28.6133C45.1117 29.0742 45.1898 29.4805 45.3461 29.832C45.5102 30.1758 45.7445 30.4453 46.0492 30.6406C46.3539 30.8359 46.7211 30.9336 47.1508 30.9336C47.5805 30.9336 47.9437 30.8359 48.2406 30.6406C48.5453 30.4453 48.7758 30.1758 48.932 29.832C49.0961 29.4805 49.1781 29.0742 49.1781 28.6133Z"/>
</mask>
<path d="M38.0875 31.4961V34.4375H26.3922V31.4961H38.0875ZM33.8453 26.8672V39.2891H30.6461V26.8672H33.8453ZM52.9164 36.3242C52.9164 37.3945 52.6664 38.2969 52.1664 39.0312C51.6664 39.7578 50.9789 40.3086 50.1039 40.6836C49.2367 41.0508 48.2523 41.2344 47.1508 41.2344C46.0492 41.2344 45.0609 41.0508 44.1859 40.6836C43.3109 40.3086 42.6195 39.7578 42.1117 39.0312C41.6039 38.2969 41.35 37.3945 41.35 36.3242C41.35 35.6055 41.4945 34.957 41.7836 34.3789C42.0727 33.793 42.475 33.293 42.9906 32.8789C43.5141 32.457 44.1273 32.1367 44.8305 31.918C45.5336 31.6914 46.2992 31.5781 47.1273 31.5781C48.2367 31.5781 49.2289 31.7734 50.1039 32.1641C50.9789 32.5547 51.6664 33.1055 52.1664 33.8164C52.6664 34.5273 52.9164 35.3633 52.9164 36.3242ZM49.518 36.1016C49.518 35.5781 49.4164 35.1289 49.2133 34.7539C49.018 34.3711 48.7406 34.0781 48.3812 33.875C48.0219 33.6719 47.6039 33.5703 47.1273 33.5703C46.6508 33.5703 46.2328 33.6719 45.8734 33.875C45.5141 34.0781 45.2328 34.3711 45.0297 34.7539C44.8344 35.1289 44.7367 35.5781 44.7367 36.1016C44.7367 36.6172 44.8344 37.0625 45.0297 37.4375C45.2328 37.8125 45.5141 38.1016 45.8734 38.3047C46.2406 38.5 46.6664 38.5977 47.1508 38.5977C47.6352 38.5977 48.0531 38.5 48.4047 38.3047C48.7641 38.1016 49.0375 37.8125 49.225 37.4375C49.4203 37.0625 49.518 36.6172 49.518 36.1016ZM52.5531 28.4609C52.5531 29.3281 52.3227 30.0977 51.8617 30.7695C51.4008 31.4336 50.7602 31.9531 49.9398 32.3281C49.1273 32.7031 48.1977 32.8906 47.1508 32.8906C46.0961 32.8906 45.1586 32.7031 44.3383 32.3281C43.518 31.9531 42.8773 31.4336 42.4164 30.7695C41.9555 30.0977 41.725 29.3281 41.725 28.4609C41.725 27.4297 41.9555 26.5625 42.4164 25.8594C42.8852 25.1484 43.5258 24.6094 44.3383 24.2422C45.1586 23.875 46.0883 23.6914 47.1273 23.6914C48.182 23.6914 49.1156 23.875 49.9281 24.2422C50.7484 24.6094 51.3891 25.1484 51.85 25.8594C52.3187 26.5625 52.5531 27.4297 52.5531 28.4609ZM49.1781 28.6133C49.1781 28.1523 49.0961 27.7539 48.932 27.418C48.768 27.0742 48.5336 26.8086 48.2289 26.6211C47.932 26.4336 47.5648 26.3398 47.1273 26.3398C46.7055 26.3398 46.3422 26.4297 46.0375 26.6094C45.7406 26.7891 45.5102 27.0508 45.3461 27.3945C45.1898 27.7305 45.1117 28.1367 45.1117 28.6133C45.1117 29.0742 45.1898 29.4805 45.3461 29.832C45.5102 30.1758 45.7445 30.4453 46.0492 30.6406C46.3539 30.8359 46.7211 30.9336 47.1508 30.9336C47.5805 30.9336 47.9437 30.8359 48.2406 30.6406C48.5453 30.4453 48.7758 30.1758 48.932 29.832C49.0961 29.4805 49.1781 29.0742 49.1781 28.6133Z" fill="#694E4E"/>
<path d="M38.0875 31.4961H39.0875V30.4961H38.0875V31.4961ZM38.0875 34.4375V35.4375H39.0875V34.4375H38.0875ZM26.3922 34.4375H25.3922V35.4375H26.3922V34.4375ZM26.3922 31.4961V30.4961H25.3922V31.4961H26.3922ZM33.8453 26.8672H34.8453V25.8672H33.8453V26.8672ZM33.8453 39.2891V40.2891H34.8453V39.2891H33.8453ZM30.6461 39.2891H29.6461V40.2891H30.6461V39.2891ZM30.6461 26.8672V25.8672H29.6461V26.8672H30.6461ZM38.0875 31.4961H37.0875V34.4375H38.0875H39.0875V31.4961H38.0875ZM38.0875 34.4375V33.4375H26.3922V34.4375V35.4375H38.0875V34.4375ZM26.3922 34.4375H27.3922V31.4961H26.3922H25.3922V34.4375H26.3922ZM26.3922 31.4961V32.4961H38.0875V31.4961V30.4961H26.3922V31.4961ZM33.8453 26.8672H32.8453V39.2891H33.8453H34.8453V26.8672H33.8453ZM33.8453 39.2891V38.2891H30.6461V39.2891V40.2891H33.8453V39.2891ZM30.6461 39.2891H31.6461V26.8672H30.6461H29.6461V39.2891H30.6461ZM30.6461 26.8672V27.8672H33.8453V26.8672V25.8672H30.6461V26.8672ZM52.1664 39.0312L52.9902 39.5982L52.993 39.594L52.1664 39.0312ZM50.1039 40.6836L50.4938 41.6045L50.4978 41.6027L50.1039 40.6836ZM44.1859 40.6836L43.792 41.6028L43.799 41.6057L44.1859 40.6836ZM42.1117 39.0312L41.2892 39.6L41.2921 39.6041L42.1117 39.0312ZM41.7836 34.3789L42.678 34.8261L42.6804 34.8213L41.7836 34.3789ZM42.9906 32.8789L43.6168 33.6586L43.6181 33.6575L42.9906 32.8789ZM44.8305 31.918L45.1275 32.8729L45.1372 32.8698L44.8305 31.918ZM49.2133 34.7539L48.3225 35.2084L48.3281 35.2194L48.334 35.2302L49.2133 34.7539ZM45.0297 34.7539L44.1463 34.2852L44.1428 34.292L45.0297 34.7539ZM45.0297 37.4375L44.1428 37.8994L44.1465 37.9066L44.1504 37.9138L45.0297 37.4375ZM45.8734 38.3047L45.3814 39.1753L45.3925 39.1815L45.4038 39.1876L45.8734 38.3047ZM48.4047 38.3047L48.8903 39.1789L48.8967 39.1753L48.4047 38.3047ZM49.225 37.4375L48.3381 36.9756L48.3343 36.9829L48.3306 36.9903L49.225 37.4375ZM51.8617 30.7695L52.6832 31.3398L52.6863 31.3352L51.8617 30.7695ZM49.9398 32.3281L49.5241 31.4186L49.5208 31.4202L49.9398 32.3281ZM42.4164 30.7695L41.5918 31.3353L41.5949 31.3397L42.4164 30.7695ZM42.4164 25.8594L41.5815 25.3089L41.5801 25.3111L42.4164 25.8594ZM44.3383 24.2422L43.9297 23.3294L43.9265 23.3309L44.3383 24.2422ZM49.9281 24.2422L49.5163 25.1535L49.5196 25.1549L49.9281 24.2422ZM51.85 25.8594L51.0109 26.4034L51.0179 26.4141L51.85 25.8594ZM48.932 27.418L48.0295 27.8487L48.0335 27.8568L48.932 27.418ZM48.2289 26.6211L47.6949 27.4666L47.7048 27.4728L48.2289 26.6211ZM46.0375 26.6094L45.5295 25.748L45.5197 25.7539L46.0375 26.6094ZM45.3461 27.3945L44.4436 26.9638L44.4394 26.9728L45.3461 27.3945ZM45.3461 29.832L44.4323 30.2382L44.4378 30.2505L44.4436 30.2628L45.3461 29.832ZM48.2406 30.6406L47.7009 29.7987L47.691 29.8052L48.2406 30.6406ZM48.932 29.832L48.0258 29.4091L48.0217 29.4182L48.932 29.832ZM52.9164 36.3242H51.9164C51.9164 37.2355 51.7054 37.9315 51.3398 38.4685L52.1664 39.0312L52.993 39.594C53.6274 38.6623 53.9164 37.5535 53.9164 36.3242H52.9164ZM52.1664 39.0312L51.3426 38.4643C50.9583 39.0229 50.4256 39.4577 49.71 39.7644L50.1039 40.6836L50.4978 41.6027C51.5322 41.1595 52.3745 40.4928 52.9902 39.5982L52.1664 39.0312ZM50.1039 40.6836L49.714 39.7627C48.9893 40.0696 48.1408 40.2344 47.1508 40.2344V41.2344V42.2344C48.3639 42.2344 49.4842 42.032 50.4938 41.6044L50.1039 40.6836ZM47.1508 41.2344V40.2344C46.161 40.2344 45.3073 40.0697 44.5729 39.7615L44.1859 40.6836L43.799 41.6057C44.8146 42.0319 45.9375 42.2344 47.1508 42.2344V41.2344ZM44.1859 40.6836L44.5799 39.7644C43.8631 39.4573 43.3244 39.0207 42.9314 38.4584L42.1117 39.0312L41.2921 39.6041C41.9147 40.4949 42.7588 41.1599 43.792 41.6027L44.1859 40.6836ZM42.1117 39.0312L42.9342 38.4625C42.5634 37.9262 42.35 37.2325 42.35 36.3242H41.35H40.35C40.35 37.5566 40.6444 38.6676 41.2892 39.6L42.1117 39.0312ZM41.35 36.3242H42.35C42.35 35.7431 42.4659 35.2505 42.678 34.8261L41.7836 34.3789L40.8892 33.9317C40.5232 34.6636 40.35 35.4678 40.35 36.3242H41.35ZM41.7836 34.3789L42.6804 34.8213C42.9041 34.3679 43.2135 33.9825 43.6168 33.6586L42.9906 32.8789L42.3645 32.0992C41.7365 32.6034 41.2412 33.2181 40.8868 33.9365L41.7836 34.3789ZM42.9906 32.8789L43.6181 33.6575C44.0346 33.3219 44.5332 33.0577 45.1275 32.8728L44.8305 31.918L44.5334 30.9631C43.7215 31.2157 42.9936 31.5922 42.3631 32.1003L42.9906 32.8789ZM44.8305 31.918L45.1372 32.8698C45.73 32.6788 46.3909 32.5781 47.1273 32.5781V31.5781V30.5781C46.2075 30.5781 45.3372 30.7041 44.5238 30.9662L44.8305 31.918ZM47.1273 31.5781V32.5781C48.1182 32.5781 48.9682 32.7522 49.6963 33.0772L50.1039 32.1641L50.5116 31.2509C49.4896 30.7947 48.3552 30.5781 47.1273 30.5781V31.5781ZM50.1039 32.1641L49.6963 33.0772C50.4239 33.402 50.9627 33.8431 51.3484 34.3917L52.1664 33.8164L52.9844 33.2411C52.3701 32.3678 51.5339 31.7073 50.5116 31.2509L50.1039 32.1641ZM52.1664 33.8164L51.3484 34.3917C51.7175 34.9165 51.9164 35.5465 51.9164 36.3242H52.9164H53.9164C53.9164 35.1801 53.6153 34.1382 52.9844 33.2411L52.1664 33.8164ZM49.518 36.1016H50.518C50.518 35.4492 50.391 34.8286 50.0926 34.2776L49.2133 34.7539L48.334 35.2302C48.4418 35.4293 48.518 35.7071 48.518 36.1016H49.518ZM49.2133 34.7539L50.104 34.2994C49.8234 33.7494 49.4108 33.3082 48.8733 33.0044L48.3812 33.875L47.8892 34.7456C48.0704 34.848 48.2125 34.9928 48.3225 35.2084L49.2133 34.7539ZM48.3812 33.875L48.8733 33.0044C48.342 32.7041 47.7494 32.5703 47.1273 32.5703V33.5703V34.5703C47.4584 34.5703 47.7018 34.6396 47.8892 34.7456L48.3812 33.875ZM47.1273 33.5703V32.5703C46.5053 32.5703 45.9127 32.7041 45.3814 33.0044L45.8734 33.875L46.3655 34.7456C46.5529 34.6396 46.7963 34.5703 47.1273 34.5703V33.5703ZM45.8734 33.875L45.3814 33.0044C44.8474 33.3062 44.4342 33.7427 44.1463 34.2852L45.0297 34.7539L45.913 35.2226C46.0314 34.9995 46.1807 34.85 46.3655 34.7456L45.8734 33.875ZM45.0297 34.7539L44.1428 34.292C43.8575 34.8396 43.7367 35.4549 43.7367 36.1016H44.7367H45.7367C45.7367 35.7013 45.8112 35.4182 45.9166 35.2158L45.0297 34.7539ZM44.7367 36.1016H43.7367C43.7367 36.7432 43.8586 37.3538 44.1428 37.8994L45.0297 37.4375L45.9166 36.9756C45.8102 36.7712 45.7367 36.4912 45.7367 36.1016H44.7367ZM45.0297 37.4375L44.1504 37.9138C44.4399 38.4482 44.8528 38.8765 45.3814 39.1753L45.8734 38.3047L46.3655 37.4341C46.1753 37.3266 46.0257 37.1768 45.909 36.9612L45.0297 37.4375ZM45.8734 38.3047L45.4038 39.1876C45.9377 39.4716 46.5297 39.5977 47.1508 39.5977V38.5977V37.5977C46.8031 37.5977 46.5435 37.5284 46.343 37.4218L45.8734 38.3047ZM47.1508 38.5977V39.5977C47.7705 39.5977 48.3626 39.472 48.8903 39.1788L48.4047 38.3047L47.919 37.4305C47.7436 37.528 47.4998 37.5977 47.1508 37.5977V38.5977ZM48.4047 38.3047L48.8967 39.1753C49.4322 38.8726 49.8444 38.4348 50.1194 37.8847L49.225 37.4375L48.3306 36.9903C48.2306 37.1902 48.0959 37.3305 47.9126 37.4341L48.4047 38.3047ZM49.225 37.4375L50.1119 37.8994C50.3961 37.3538 50.518 36.7432 50.518 36.1016H49.518H48.518C48.518 36.4912 48.4445 36.7712 48.3381 36.9756L49.225 37.4375ZM52.5531 28.4609H51.5531C51.5531 29.1399 51.3763 29.7094 51.0371 30.2038L51.8617 30.7695L52.6863 31.3352C53.269 30.4859 53.5531 29.5164 53.5531 28.4609H52.5531ZM51.8617 30.7695L51.0402 30.1993C50.6931 30.6994 50.2005 31.1094 49.5241 31.4187L49.9398 32.3281L50.3556 33.2376C51.3198 32.7968 52.1084 32.1678 52.6832 31.3397L51.8617 30.7695ZM49.9398 32.3281L49.5208 31.4202C48.8601 31.7251 48.0773 31.8906 47.1508 31.8906V32.8906V33.8906C48.318 33.8906 49.3945 33.6812 50.3589 33.2361L49.9398 32.3281ZM47.1508 32.8906V31.8906C46.2155 31.8906 45.4236 31.7247 44.754 31.4187L44.3383 32.3281L43.9225 33.2376C44.8936 33.6815 45.9767 33.8906 47.1508 33.8906V32.8906ZM44.3383 32.3281L44.754 31.4187C44.0776 31.1094 43.585 30.6994 43.2379 30.1993L42.4164 30.7695L41.5949 31.3397C42.1697 32.1678 42.9584 32.7968 43.9225 33.2376L44.3383 32.3281ZM42.4164 30.7695L43.241 30.2038C42.9018 29.7094 42.725 29.1399 42.725 28.4609H41.725H40.725C40.725 29.5164 41.0091 30.4859 41.5918 31.3352L42.4164 30.7695ZM41.725 28.4609H42.725C42.725 27.5801 42.9206 26.9143 43.2527 26.4076L42.4164 25.8594L41.5801 25.3111C40.9904 26.2107 40.725 27.2793 40.725 28.4609H41.725ZM42.4164 25.8594L43.2513 26.4098C43.6109 25.8644 44.1014 25.4466 44.7501 25.1535L44.3383 24.2422L43.9265 23.3309C42.9502 23.7721 42.1594 24.4325 41.5815 25.3089L42.4164 25.8594ZM44.3383 24.2422L44.7468 25.1549C45.4201 24.8536 46.2072 24.6914 47.1273 24.6914V23.6914V22.6914C45.9693 22.6914 44.8971 22.8964 43.9297 23.3295L44.3383 24.2422ZM47.1273 23.6914V24.6914C48.0657 24.6914 48.8547 24.8545 49.5163 25.1535L49.9281 24.2422L50.3399 23.3309C49.3765 22.8955 48.2984 22.6914 47.1273 22.6914V23.6914ZM49.9281 24.2422L49.5196 25.1549C50.175 25.4483 50.6614 25.8643 51.0109 26.4034L51.85 25.8594L52.6891 25.3154C52.1167 24.4326 51.3218 23.7704 50.3367 23.3295L49.9281 24.2422ZM51.85 25.8594L51.0179 26.4141C51.3551 26.9198 51.5531 27.5832 51.5531 28.4609H52.5531H53.5531C53.5531 27.2762 53.2824 26.2052 52.682 25.3047L51.85 25.8594ZM49.1781 28.6133H50.1781C50.1781 28.035 50.0751 27.4798 49.8306 26.9791L48.932 27.418L48.0335 27.8568C48.1171 28.028 48.1781 28.2697 48.1781 28.6133H49.1781ZM48.932 27.418L49.8345 26.9872C49.5931 26.4814 49.2325 26.0645 48.753 25.7694L48.2289 26.6211L47.7048 27.4728C47.8347 27.5527 47.9428 27.667 48.0295 27.8487L48.932 27.418ZM48.2289 26.6211L48.7629 25.7756C48.2711 25.465 47.7075 25.3398 47.1273 25.3398V26.3398V27.3398C47.4222 27.3398 47.593 27.4022 47.6949 27.4666L48.2289 26.6211ZM47.1273 26.3398V25.3398C46.5614 25.3398 46.0154 25.4615 45.5295 25.748L46.0375 26.6094L46.5455 27.4707C46.669 27.3979 46.8496 27.3398 47.1273 27.3398V26.3398ZM46.0375 26.6094L45.5197 25.7539C45.0397 26.0444 44.6832 26.4619 44.4436 26.9638L45.3461 27.3945L46.2486 27.8253C46.3371 27.6397 46.4415 27.5337 46.5553 27.4649L46.0375 26.6094ZM45.3461 27.3945L44.4394 26.9728C44.2067 27.473 44.1117 28.0312 44.1117 28.6133H45.1117H46.1117C46.1117 28.2422 46.173 27.988 46.2528 27.8163L45.3461 27.3945ZM45.1117 28.6133H44.1117C44.1117 29.1869 44.2091 29.736 44.4323 30.2382L45.3461 29.832L46.2599 29.4259C46.1706 29.2249 46.1117 28.9615 46.1117 28.6133H45.1117ZM45.3461 29.832L44.4436 30.2628C44.6835 30.7655 45.0396 31.1812 45.5096 31.4825L46.0492 30.6406L46.5889 29.7987C46.4495 29.7094 46.3368 29.5861 46.2486 29.4013L45.3461 29.832ZM46.0492 30.6406L45.5096 31.4825C46.0034 31.7991 46.5661 31.9336 47.1508 31.9336V30.9336V29.9336C46.8761 29.9336 46.7044 29.8728 46.5889 29.7987L46.0492 30.6406ZM47.1508 30.9336V31.9336C47.7345 31.9336 48.2988 31.7994 48.7902 31.476L48.2406 30.6406L47.691 29.8052C47.5887 29.8725 47.4264 29.9336 47.1508 29.9336V30.9336ZM48.2406 30.6406L48.7803 31.4825C49.2545 31.1786 49.61 30.757 49.8424 30.2458L48.932 29.832L48.0217 29.4182C47.9415 29.5946 47.8362 29.7121 47.701 29.7987L48.2406 30.6406ZM48.932 29.832L49.8382 30.2549C50.0746 29.7484 50.1781 29.1932 50.1781 28.6133H49.1781H48.1781C48.1781 28.9553 48.1176 29.2126 48.0258 29.4091L48.932 29.832Z" fill="#694E4E" mask="url(#path-7-outside-1_335_445)"/>
<defs>
<filter id="filter0_d_335_445" x="11" y="7" width="58" height="58" filterUnits="userSpaceOnUse" color-interpolation-filters="sRGB">
<feFlood flood-opacity="0" result="BackgroundImageFix"/>
<feColorMatrix in="SourceAlpha" type="matrix" values="0 0 0 0 0 0 0 0 0 0 0 0 0 0 0 0 0 0 127 0" result="hardAlpha"/>
<feOffset dy="3"/>
<feGaussianBlur stdDeviation="2"/>
<feComposite in2="hardAlpha" operator="out"/>
<feColorMatrix type="matrix" values="0 0 0 0 0 0 0 0 0 0 0 0 0 0 0 0 0 0 0.25 0"/>
<feBlend mode="normal" in2="BackgroundImageFix" result="effect1_dropShadow_335_445"/>
<feBlend mode="normal" in="SourceGraphic" in2="effect1_dropShadow_335_445" result="shape"/>
</filter>
</defs>
</svg>
