<svg width="227" height="227" viewBox="0 0 227 227" fill="none" xmlns="http://www.w3.org/2000/svg">
<g filter="url(#filter0_d_231_300)">
<path d="M202.965 112.072C206.468 112.072 209.329 109.242 209.108 105.762C208.411 94.7884 205.899 83.9892 201.661 73.8038C196.612 61.6712 189.213 50.6473 179.884 41.3615C170.555 32.0756 159.481 24.7097 147.293 19.6842C137.06 15.4653 126.211 12.9652 115.187 12.2714C111.691 12.0514 108.848 14.899 108.848 18.3861C108.848 21.8732 111.692 24.6763 115.186 24.9281C124.543 25.6024 133.745 27.7667 142.438 31.3508C153.087 35.7417 162.763 42.1775 170.914 50.2907C179.064 58.404 185.53 68.0358 189.941 78.6363C193.541 87.2893 195.716 96.4493 196.393 105.764C196.646 109.242 199.462 112.072 202.965 112.072Z" fill="#D9D9D9"/>
<path d="M87.2796 20.7415C86.0761 19.951 86.0761 18.1933 87.2796 17.4028L113.267 0.333987C114.603 -0.543397 116.383 0.410246 116.383 2.00334V36.141C116.383 37.734 114.603 38.6877 113.267 37.8103L87.2796 20.7415Z" fill="#D9D9D9"/>
<path d="M109.483 203.055C109.483 206.542 112.326 209.389 115.822 209.169C126.846 208.475 137.695 205.975 147.927 201.756C160.116 196.731 171.19 189.365 180.519 180.079C189.847 170.793 197.247 159.769 202.296 147.637C206.534 137.452 209.046 126.652 209.743 115.678C209.964 112.198 207.103 109.369 203.6 109.369C200.097 109.369 197.281 112.199 197.028 115.677C196.35 124.991 194.176 134.151 190.575 142.804C186.164 153.405 179.699 163.037 171.548 171.15C163.398 179.263 153.722 185.699 143.073 190.09C134.38 193.674 125.178 195.838 115.821 196.513C112.327 196.764 109.483 199.567 109.483 203.055Z" fill="#D9D9D9"/>
<path d="M201.233 87.8985C202.028 86.7005 203.793 86.7005 204.588 87.8985L221.735 113.767C222.616 115.097 221.658 116.869 220.058 116.869H185.763C184.163 116.869 183.205 115.097 184.086 113.767L201.233 87.8985Z" fill="#D9D9D9"/>
<path d="M24.2196 106C20.7165 106 17.8558 108.83 18.0768 112.31C18.7738 123.284 21.2853 134.083 25.5237 144.268C30.5722 156.401 37.972 167.425 47.3006 176.711C56.6291 185.997 67.7037 193.363 79.892 198.388C90.1242 202.607 100.973 205.107 111.997 205.801C115.494 206.021 118.336 203.173 118.336 199.686C118.336 196.199 115.493 193.396 111.999 193.144C102.642 192.47 93.4395 190.306 84.7467 186.721C74.0975 182.331 64.4214 175.895 56.2709 167.782C48.1203 159.668 41.655 150.036 37.2439 139.436C33.6433 130.783 31.469 121.623 30.7917 112.309C30.5387 108.831 27.7227 106 24.2196 106Z" fill="#D9D9D9"/>
<path d="M139.905 197.331C141.108 198.121 141.108 199.879 139.905 200.669L113.918 217.738C112.582 218.616 110.802 217.662 110.802 216.069V181.931C110.802 180.338 112.582 179.385 113.918 180.262L139.905 197.331Z" fill="#D9D9D9"/>
<path d="M116.587 20.1266C116.587 16.6395 113.745 13.7918 110.248 14.0119C99.2241 14.7057 88.3752 17.2057 78.143 21.4247C65.9547 26.4501 54.8801 33.8161 45.5516 43.1019C36.223 52.3878 28.8232 63.4117 23.7747 75.5443C19.5364 85.7297 17.0248 96.5289 16.3278 107.503C16.1068 110.983 18.9675 113.813 22.4706 113.813C25.9737 113.813 28.7897 110.982 29.0427 107.504C29.72 98.1898 31.8943 89.0297 35.4949 80.3768C39.906 69.7763 46.3713 60.1445 54.5219 52.0312C62.6724 43.918 72.3485 37.4822 82.9977 33.0913C91.6905 29.5071 100.893 27.3428 110.25 26.6685C113.744 26.4168 116.587 23.6137 116.587 20.1266Z" fill="#D9D9D9"/>
<path d="M24.8368 135.283C24.0427 136.481 22.2769 136.481 21.4828 135.283L4.33552 109.414C3.45411 108.084 4.41213 106.313 6.01255 106.313H40.3071C41.9075 106.313 42.8655 108.084 41.9841 109.414L24.8368 135.283Z" fill="#D9D9D9"/>
</g>
<defs>
<filter id="filter0_d_231_300" x="0" y="0" width="226.07" height="226.072" filterUnits="userSpaceOnUse" color-interpolation-filters="sRGB">
<feFlood flood-opacity="0" result="BackgroundImageFix"/>
<feColorMatrix in="SourceAlpha" type="matrix" values="0 0 0 0 0 0 0 0 0 0 0 0 0 0 0 0 0 0 127 0" result="hardAlpha"/>
<feOffset dy="4"/>
<feGaussianBlur stdDeviation="2"/>
<feComposite in2="hardAlpha" operator="out"/>
<feColorMatrix type="matrix" values="0 0 0 0 0 0 0 0 0 0 0 0 0 0 0 0 0 0 0.25 0"/>
<feBlend mode="normal" in2="BackgroundImageFix" result="effect1_dropShadow_231_300"/>
<feBlend mode="normal" in="SourceGraphic" in2="effect1_dropShadow_231_300" result="shape"/>
</filter>
</defs>
</svg>
