<svg width="227" height="227" viewBox="0 0 227 227" fill="none" xmlns="http://www.w3.org/2000/svg">
<g filter="url(#filter0_d_249_432)">
<path d="M23.1053 112.072C19.6022 112.072 16.7415 109.242 16.9625 105.762C17.6595 94.7884 20.1711 83.9892 24.4094 73.8038C29.458 61.6712 36.8578 50.6473 46.1863 41.3615C55.5149 32.0756 66.5894 24.7097 78.7778 19.6842C89.01 15.4653 99.8589 12.9652 110.883 12.2714C114.379 12.0514 117.222 14.899 117.222 18.3861C117.222 21.8732 114.378 24.6763 110.884 24.9281C101.527 25.6024 92.3252 27.7667 83.6325 31.3508C72.9833 35.7417 63.3072 42.1775 55.1566 50.2907C47.0061 58.404 40.5407 68.0358 36.1297 78.6363C32.529 87.2893 30.3548 96.4493 29.6774 105.764C29.4245 109.242 26.6085 112.072 23.1053 112.072Z" fill="#D9D9D9"/>
<path d="M138.791 20.7415C139.994 19.951 139.994 18.1933 138.791 17.4028L112.803 0.333987C111.467 -0.543397 109.688 0.410246 109.688 2.00334V36.141C109.688 37.734 111.467 38.6877 112.803 37.8103L138.791 20.7415Z" fill="#D9D9D9"/>
<path d="M116.587 203.055C116.587 206.542 113.745 209.389 110.248 209.169C99.2241 208.475 88.3752 205.975 78.143 201.756C65.9547 196.731 54.8801 189.365 45.5516 180.079C36.223 170.793 28.8232 159.769 23.7747 147.637C19.5364 137.452 17.0248 126.652 16.3278 115.678C16.1068 112.198 18.9675 109.369 22.4706 109.369C25.9737 109.369 28.7897 112.199 29.0427 115.677C29.72 124.991 31.8943 134.151 35.4949 142.804C39.906 153.405 46.3713 163.037 54.5219 171.15C62.6724 179.263 72.3485 185.699 82.9977 190.09C91.6905 193.674 100.893 195.838 110.25 196.513C113.744 196.764 116.587 199.567 116.587 203.055Z" fill="#D9D9D9"/>
<path d="M24.8368 87.8985C24.0427 86.7005 22.2769 86.7005 21.4828 87.8985L4.33552 113.767C3.45411 115.097 4.41213 116.869 6.01255 116.869H40.3071C41.9075 116.869 42.8655 115.097 41.9841 113.767L24.8368 87.8985Z" fill="#D9D9D9"/>
<path d="M201.851 106C205.354 106 208.215 108.83 207.994 112.31C207.297 123.284 204.785 134.083 200.547 144.268C195.498 156.401 188.098 167.425 178.77 176.711C169.441 185.997 158.367 193.363 146.178 198.388C135.946 202.607 125.097 205.107 114.073 205.801C110.577 206.021 107.734 203.173 107.734 199.686C107.734 196.199 110.578 193.396 114.072 193.144C123.429 192.47 132.631 190.306 141.324 186.721C151.973 182.331 161.649 175.895 169.799 167.782C177.95 159.668 184.415 150.036 188.826 139.436C192.427 130.783 194.601 121.623 195.279 112.309C195.532 108.831 198.348 106 201.851 106Z" fill="#D9D9D9"/>
<path d="M86.1653 197.331C84.9618 198.121 84.9618 199.879 86.1653 200.669L112.153 217.738C113.489 218.616 115.269 217.662 115.269 216.069V181.931C115.269 180.338 113.489 179.385 112.153 180.262L86.1653 197.331Z" fill="#D9D9D9"/>
<path d="M109.483 20.1266C109.483 16.6395 112.326 13.7918 115.822 14.0119C126.846 14.7057 137.695 17.2057 147.927 21.4247C160.116 26.4501 171.19 33.8161 180.519 43.1019C189.847 52.3878 197.247 63.4117 202.296 75.5443C206.534 85.7297 209.046 96.5289 209.743 107.503C209.964 110.983 207.103 113.813 203.6 113.813C200.097 113.813 197.281 110.982 197.028 107.504C196.35 98.1898 194.176 89.0297 190.575 80.3768C186.164 69.7763 179.699 60.1445 171.548 52.0312C163.398 43.918 153.722 37.4822 143.073 33.0913C134.38 29.5071 125.178 27.3428 115.821 26.6685C112.327 26.4168 109.483 23.6137 109.483 20.1266Z" fill="#D9D9D9"/>
<path d="M201.233 135.283C202.028 136.481 203.793 136.481 204.588 135.283L221.735 109.414C222.616 108.084 221.658 106.313 220.058 106.313H185.763C184.163 106.313 183.205 108.084 184.086 109.414L201.233 135.283Z" fill="#D9D9D9"/>
</g>
<defs>
<filter id="filter0_d_249_432" x="0" y="0" width="226.07" height="226.072" filterUnits="userSpaceOnUse" color-interpolation-filters="sRGB">
<feFlood flood-opacity="0" result="BackgroundImageFix"/>
<feColorMatrix in="SourceAlpha" type="matrix" values="0 0 0 0 0 0 0 0 0 0 0 0 0 0 0 0 0 0 127 0" result="hardAlpha"/>
<feOffset dy="4"/>
<feGaussianBlur stdDeviation="2"/>
<feComposite in2="hardAlpha" operator="out"/>
<feColorMatrix type="matrix" values="0 0 0 0 0 0 0 0 0 0 0 0 0 0 0 0 0 0 0.25 0"/>
<feBlend mode="normal" in2="BackgroundImageFix" result="effect1_dropShadow_249_432"/>
<feBlend mode="normal" in="SourceGraphic" in2="effect1_dropShadow_249_432" result="shape"/>
</filter>
</defs>
</svg>
