<svg width="295" height="287" viewBox="0 0 295 287" fill="none" xmlns="http://www.w3.org/2000/svg">
<g filter="url(#filter0_i_231_299)">
<path d="M272.055 112.072C275.542 112.072 278.389 109.242 278.169 105.762C277.475 94.7884 274.975 83.9892 270.756 73.8038C265.731 61.6712 258.365 50.6473 249.079 41.3615C239.793 32.0756 228.769 24.7097 216.637 19.6842C206.452 15.4653 195.652 12.9652 184.678 12.2714C181.198 12.0514 178.369 14.899 178.369 18.3861C178.369 21.8732 181.199 24.6763 184.677 24.9281C193.991 25.6024 203.151 27.7667 211.804 31.3508C222.405 35.7417 232.037 42.1775 240.15 50.2907C248.263 58.404 254.699 68.0358 259.09 78.6363C262.674 87.2893 264.838 96.4493 265.513 105.764C265.764 109.242 268.567 112.072 272.055 112.072Z" fill="#DDDDDD"/>
<path d="M156.899 20.7415C155.7 19.951 155.7 18.1933 156.899 17.4028L182.767 0.333987C184.097 -0.543397 185.869 0.410246 185.869 2.00334V36.141C185.869 37.734 184.097 38.6877 182.767 37.8103L156.899 20.7415Z" fill="#DDDDDD"/>
<g filter="url(#filter1_g_231_299)">
<path d="M178 268.055C178 271.542 180.83 274.389 184.31 274.169C195.284 273.475 206.083 270.975 216.268 266.756C228.401 261.731 239.425 254.365 248.711 245.079C257.997 235.793 265.363 224.769 270.388 212.637C274.607 202.452 277.107 191.652 277.801 180.678C278.021 177.198 275.173 174.369 271.686 174.369C268.199 174.369 265.396 177.199 265.144 180.677C264.47 189.991 262.306 199.151 258.721 207.804C254.331 218.405 247.895 228.037 239.782 236.15C231.668 244.263 222.036 250.699 211.436 255.09C202.783 258.674 193.623 260.838 184.309 261.513C180.831 261.764 178 264.567 178 268.055Z" fill="#DDDDDD"/>
<path d="M269.331 152.899C270.121 151.7 271.879 151.7 272.669 152.899L289.738 178.767C290.616 180.097 289.662 181.869 288.069 181.869H253.931C252.338 181.869 251.385 180.097 252.262 178.767L269.331 152.899Z" fill="#DDDDDD"/>
</g>
<path d="M22.1271 174C18.64 174 15.7923 176.83 16.0124 180.31C16.7062 191.284 19.2062 202.083 23.4251 212.268C28.4506 224.401 35.8166 235.425 45.1024 244.711C54.3883 253.997 65.4122 261.363 77.5448 266.388C87.7301 270.607 98.5294 273.107 109.503 273.801C112.983 274.021 115.813 271.173 115.813 267.686C115.813 264.199 112.983 261.396 109.505 261.144C100.19 260.47 91.0302 258.306 82.3772 254.721C71.7768 250.331 62.1449 243.895 54.0317 235.782C45.9184 227.668 39.4827 218.036 35.0918 207.436C31.5076 198.783 29.3433 189.623 28.669 180.309C28.4173 176.831 25.6142 174 22.1271 174Z" fill="#DDDDDD"/>
<path d="M137.283 265.331C138.481 266.121 138.481 267.879 137.283 268.669L111.415 285.738C110.085 286.616 108.313 285.662 108.313 284.069V249.931C108.313 248.338 110.085 247.385 111.415 248.262L137.283 265.331Z" fill="#DDDDDD"/>
<g filter="url(#filter2_d_231_299)">
<path d="M116.072 18.1266C116.072 14.6395 113.242 11.7918 109.762 12.0119C98.7884 12.7057 87.9892 15.2057 77.8038 19.4247C65.6712 24.4501 54.6473 31.8161 45.3615 41.1019C36.0756 50.3878 28.7097 61.4117 23.6842 73.5443C19.4653 83.7297 16.9652 94.5289 16.2714 105.503C16.0514 108.983 18.899 111.813 22.3861 111.813C25.8732 111.813 28.6763 108.982 28.9281 105.504C29.6024 96.1898 31.7667 87.0297 35.3508 78.3768C39.7417 67.7763 46.1775 58.1445 54.2907 50.0312C62.404 41.918 72.0358 35.4822 82.6363 31.0913C91.2893 27.5071 100.449 25.3428 109.764 24.6685C113.242 24.4168 116.072 21.6137 116.072 18.1266Z" fill="#DDDDDD"/>
<path d="M24.7415 133.283C23.951 134.481 22.1933 134.481 21.4028 133.283L4.33399 107.414C3.4566 106.084 4.41025 104.313 6.00334 104.313H40.141C41.734 104.313 42.6877 106.084 41.8103 107.414L24.7415 133.283Z" fill="#DDDDDD"/>
</g>
</g>
<defs>
<filter id="filter0_i_231_299" x="4" y="0" width="286.072" height="290.072" filterUnits="userSpaceOnUse" color-interpolation-filters="sRGB">
<feFlood flood-opacity="0" result="BackgroundImageFix"/>
<feBlend mode="normal" in="SourceGraphic" in2="BackgroundImageFix" result="shape"/>
<feColorMatrix in="SourceAlpha" type="matrix" values="0 0 0 0 0 0 0 0 0 0 0 0 0 0 0 0 0 0 127 0" result="hardAlpha"/>
<feOffset dy="4"/>
<feGaussianBlur stdDeviation="2"/>
<feComposite in2="hardAlpha" operator="arithmetic" k2="-1" k3="1"/>
<feColorMatrix type="matrix" values="0 0 0 0 0 0 0 0 0 0 0 0 0 0 0 0 0 0 0.25 0"/>
<feBlend mode="normal" in2="shape" result="effect1_innerShadow_231_299"/>
</filter>
<filter id="filter1_g_231_299" x="174" y="148" width="120.072" height="130.181" filterUnits="userSpaceOnUse" color-interpolation-filters="sRGB">
<feFlood flood-opacity="0" result="BackgroundImageFix"/>
<feBlend mode="normal" in="SourceGraphic" in2="BackgroundImageFix" result="shape"/>
<feTurbulence type="fractalNoise" baseFrequency="2 2" numOctaves="3" seed="1990" />
<feDisplacementMap in="shape" scale="8" xChannelSelector="R" yChannelSelector="G" result="displacedImage" width="100%" height="100%" />
<feMerge result="effect1_texture_231_299">
<feMergeNode in="displacedImage"/>
</feMerge>
</filter>
<filter id="filter2_d_231_299" x="0" y="12" width="120.072" height="130.181" filterUnits="userSpaceOnUse" color-interpolation-filters="sRGB">
<feFlood flood-opacity="0" result="BackgroundImageFix"/>
<feColorMatrix in="SourceAlpha" type="matrix" values="0 0 0 0 0 0 0 0 0 0 0 0 0 0 0 0 0 0 127 0" result="hardAlpha"/>
<feOffset dy="4"/>
<feGaussianBlur stdDeviation="2"/>
<feComposite in2="hardAlpha" operator="out"/>
<feColorMatrix type="matrix" values="0 0 0 0 0 0 0 0 0 0 0 0 0 0 0 0 0 0 0.25 0"/>
<feBlend mode="normal" in2="BackgroundImageFix" result="effect1_dropShadow_231_299"/>
<feBlend mode="normal" in="SourceGraphic" in2="effect1_dropShadow_231_299" result="shape"/>
</filter>
</defs>
</svg>
