<svg width="295" height="287" viewBox="0 0 295 287" fill="none" xmlns="http://www.w3.org/2000/svg">
<g filter="url(#filter0_i_233_307)">
<path d="M22.0176 112.071C18.5305 112.071 15.6829 109.242 15.903 105.761C16.5968 94.7877 19.0968 83.9885 23.3157 73.8032C28.3411 61.6708 35.707 50.6469 44.9928 41.3611C54.2786 32.0754 65.3024 24.7095 77.4349 19.684C87.6202 15.4651 98.4194 12.9651 109.393 12.2713C112.873 12.0513 115.703 14.8989 115.703 18.386C115.703 21.873 112.872 24.6761 109.394 24.9279C100.08 25.6022 90.9202 27.7665 82.2673 31.3506C71.6669 35.7414 62.0352 42.1772 53.922 50.2903C45.8088 58.4035 39.3731 68.0353 34.9823 78.6357C31.3981 87.2886 29.2338 96.4485 28.5595 105.763C28.3078 109.241 25.5047 112.071 22.0176 112.071Z" fill="#DDDDDD"/>
<path d="M137.173 20.7413C138.371 19.9508 138.371 18.1931 137.173 17.4027L111.304 0.333984C109.975 -0.543393 108.203 0.410242 108.203 2.00332V36.1407C108.203 37.7338 109.975 38.6874 111.304 37.81L137.173 20.7413Z" fill="#DDDDDD"/>
<g filter="url(#filter1_g_233_307)">
<path d="M116.071 268.053C116.071 271.54 113.242 274.387 109.761 274.167C98.7877 273.474 87.9885 270.974 77.8032 266.755C65.6708 261.729 54.6469 254.363 45.3611 245.078C36.0754 235.792 28.7095 224.768 23.684 212.635C19.4651 202.45 16.9651 191.651 16.2713 180.677C16.0513 177.197 18.8989 174.367 22.386 174.367C25.873 174.367 28.6761 177.198 28.9279 180.676C29.6022 189.99 31.7665 199.15 35.3506 207.803C39.7414 218.403 46.1772 228.035 54.2903 236.148C62.4035 244.261 72.0353 250.697 82.6357 255.088C91.2886 258.672 100.449 260.836 109.763 261.511C113.241 261.763 116.071 264.566 116.071 268.053Z" fill="#DDDDDD"/>
<path d="M24.7413 152.898C23.9508 151.7 22.1931 151.7 21.4027 152.898L4.33398 178.766C3.45661 180.096 4.41024 181.867 6.00332 181.867H40.1407C41.7337 181.867 42.6874 180.096 41.81 178.766L24.7413 152.898Z" fill="#DDDDDD"/>
</g>
<path d="M271.943 173.999C275.43 173.999 278.278 176.828 278.058 180.309C277.364 191.282 274.864 202.082 270.645 212.267C265.62 224.399 258.254 235.423 248.968 244.709C239.682 253.995 228.659 261.361 216.526 266.386C206.341 270.605 195.542 273.105 184.568 273.799C181.088 274.019 178.258 271.171 178.258 267.684C178.258 264.197 181.089 261.394 184.566 261.142C193.881 260.468 203.041 258.304 211.694 254.719C222.294 250.329 231.926 243.893 240.039 235.78C248.152 227.667 254.588 218.035 258.979 207.434C262.563 198.781 264.727 189.622 265.401 180.307C265.653 176.829 268.456 173.999 271.943 173.999Z" fill="#DDDDDD"/>
<path d="M156.788 265.329C155.59 266.119 155.59 267.877 156.788 268.667L182.656 285.736C183.986 286.613 185.758 285.66 185.758 284.067V249.929C185.758 248.336 183.986 247.383 182.656 248.26L156.788 265.329Z" fill="#DDDDDD"/>
<g filter="url(#filter2_d_233_307)">
<path d="M177.999 18.1265C177.999 14.6394 180.829 11.7918 184.309 12.0119C195.283 12.7057 206.082 15.2057 216.267 19.4246C228.4 24.45 239.423 31.8159 248.709 41.1017C257.995 50.3875 265.361 61.4113 270.386 73.5438C274.605 83.7291 277.105 94.5283 277.799 105.502C278.019 108.982 275.171 111.812 271.684 111.812C268.197 111.812 265.394 108.981 265.142 105.503C264.468 96.1891 262.304 87.0291 258.72 78.3762C254.329 67.7758 247.893 58.1441 239.78 50.0309C231.667 41.9177 222.035 35.482 211.435 31.0912C202.782 27.507 193.622 25.3427 184.308 24.6684C180.83 24.4167 177.999 21.6136 177.999 18.1265Z" fill="#DDDDDD"/>
<path d="M269.329 133.282C270.119 134.48 271.877 134.48 272.668 133.282L289.736 107.413C290.614 106.084 289.66 104.312 288.067 104.312H253.93C252.337 104.312 251.383 106.084 252.26 107.413L269.329 133.282Z" fill="#DDDDDD"/>
</g>
</g>
<defs>
<filter id="filter0_i_233_307" x="4" y="0" width="286.07" height="290.07" filterUnits="userSpaceOnUse" color-interpolation-filters="sRGB">
<feFlood flood-opacity="0" result="BackgroundImageFix"/>
<feBlend mode="normal" in="SourceGraphic" in2="BackgroundImageFix" result="shape"/>
<feColorMatrix in="SourceAlpha" type="matrix" values="0 0 0 0 0 0 0 0 0 0 0 0 0 0 0 0 0 0 127 0" result="hardAlpha"/>
<feOffset dy="4"/>
<feGaussianBlur stdDeviation="2"/>
<feComposite in2="hardAlpha" operator="arithmetic" k2="-1" k3="1"/>
<feColorMatrix type="matrix" values="0 0 0 0 0 0 0 0 0 0 0 0 0 0 0 0 0 0 0.25 0"/>
<feBlend mode="normal" in2="shape" result="effect1_innerShadow_233_307"/>
</filter>
<filter id="filter1_g_233_307" x="0" y="147.999" width="120.071" height="130.18" filterUnits="userSpaceOnUse" color-interpolation-filters="sRGB">
<feFlood flood-opacity="0" result="BackgroundImageFix"/>
<feBlend mode="normal" in="SourceGraphic" in2="BackgroundImageFix" result="shape"/>
<feTurbulence type="fractalNoise" baseFrequency="2 2" numOctaves="3" seed="1990" />
<feDisplacementMap in="shape" scale="8" xChannelSelector="R" yChannelSelector="G" result="displacedImage" width="100%" height="100%" />
<feMerge result="effect1_texture_233_307">
<feMergeNode in="displacedImage"/>
</feMerge>
</filter>
<filter id="filter2_d_233_307" x="173.999" y="11.9999" width="120.071" height="130.18" filterUnits="userSpaceOnUse" color-interpolation-filters="sRGB">
<feFlood flood-opacity="0" result="BackgroundImageFix"/>
<feColorMatrix in="SourceAlpha" type="matrix" values="0 0 0 0 0 0 0 0 0 0 0 0 0 0 0 0 0 0 127 0" result="hardAlpha"/>
<feOffset dy="4"/>
<feGaussianBlur stdDeviation="2"/>
<feComposite in2="hardAlpha" operator="out"/>
<feColorMatrix type="matrix" values="0 0 0 0 0 0 0 0 0 0 0 0 0 0 0 0 0 0 0.25 0"/>
<feBlend mode="normal" in2="BackgroundImageFix" result="effect1_dropShadow_233_307"/>
<feBlend mode="normal" in="SourceGraphic" in2="effect1_dropShadow_233_307" result="shape"/>
</filter>
</defs>
</svg>
